<?xml version="1.0" encoding="utf-8"?>
<!-- Generator: Adobe Illustrator 17.0.0, SVG Export Plug-In . SVG Version: 6.00 Build 0)  -->
<!DOCTYPE svg PUBLIC "-//W3C//DTD SVG 1.1//EN" "http://www.w3.org/Graphics/SVG/1.1/DTD/svg11.dtd">
<svg version="1.1" id="Livello_1" xmlns="http://www.w3.org/2000/svg" xmlns:xlink="http://www.w3.org/1999/xlink" x="0px" y="0px"
	 width="174.001px" height="162px" viewBox="0 0 174.001 162" enable-background="new 0 0 174.001 162" xml:space="preserve">
<g>
	<polygon fill-rule="evenodd" clip-rule="evenodd" fill="#F6CFC3" points="126.136,131.988 126.136,131.5 56.5,131.5 56.5,131.988 
		45.75,131.988 45.75,162 84.225,162 84.225,144.211 97.05,144.211 97.05,162 135.525,162 135.525,131.988 	"/>
	<path fill-rule="evenodd" clip-rule="evenodd" fill="#CF6E57" d="M126.136,131.5H56.5v0.488l-10.75-4.238v4.238
		c9.863,10.998,23.306,23.514,38.475,25.995v-13.772H97.05v14.568c14.476-0.465,27.786-10.48,38.475-18.858v-7.934h-9.389V131.5z"/>
	<path fill="#F6CFC3" d="M158.774,71.963c-4.545-15.974-15.302-29.416-29.561-37.822c-0.911-4.436-1.724-11.789,0.494-16.674
		c0.393-0.866,0.352-1.865-0.108-2.695c-0.461-0.831-1.287-1.393-2.228-1.519c-8.365-1.118-20.926,7.932-25.943,11.885
		c-2.146-0.204-4.314-0.337-6.515-0.337c-33.541,0-61.244,24.194-65.638,55.578c-6.679-2.946-9.242-7.621-10.131-11.322
		c2.112,0.387,4.146,0.144,6.097-0.735c4.583-2.067,6.984-7.494,6.305-10.003c-0.485-1.79-1.77-5.02-4.935-6.526
		c-1.562-0.744-4.171-1.299-7.729,0.28c-2.387,1.061-4.254,3.624-5.29,6.929c-2.26-2.153-4.951-5.369-8.087-10.125
		c-0.913-1.383-2.77-1.765-4.156-0.854c-1.383,0.913-1.765,2.773-0.853,4.156c4.267,6.472,8.345,11.111,12.21,13.903
		c0.013,0.335,0.034,0.672,0.063,1.011c0.375,4.455,2.738,14.734,15.946,19.554c-0.032,0.82-0.064,1.641-0.064,2.469
		c0,35.519,29.667,64.312,66.263,64.312c27.169,0,50.507-15.877,60.733-38.588h9.804V71.963H158.774z M21.318,57.555
		c0.811-0.362,1.944-0.713,2.714-0.347c0.735,0.35,1.282,1.336,1.597,2.265c-0.267,0.891-1.432,3.133-3.568,3.617
		c-0.642,0.148-1.692,0.18-3.17-0.403C19.361,59.83,20.543,57.899,21.318,57.555z"/>
	<g>
		<ellipse fill="#CF6E57" cx="165.45" cy="93.4" rx="8.55" ry="21.437"/>
		<path fill="#CF6E57" d="M135.526,73.25c-1.657,0-3,1.343-3,3c0,5.439-4.408,9.863-9.825,9.863s-9.825-4.424-9.825-9.863
			c0-1.657-1.343-3-3-3s-3,1.343-3,3c0,8.747,7.099,15.863,15.825,15.863s15.825-7.116,15.825-15.863
			C138.526,74.593,137.182,73.25,135.526,73.25z"/>
		<path fill="#CF6E57" d="M103.449,35.26c-2.805-0.397-5.678-0.598-8.536-0.598c-13.545,0-26.359,4.375-37.058,12.653
			c-1.31,1.014-1.551,2.899-0.536,4.208c0.591,0.765,1.478,1.165,2.375,1.165c0.641,0,1.288-0.205,1.834-0.627
			c9.637-7.458,21.182-11.399,33.385-11.399c2.579,0,5.168,0.182,7.696,0.539c1.643,0.237,3.159-0.91,3.391-2.55
			C106.231,37.011,105.089,35.493,103.449,35.26z"/>
	</g>
	<path fill-rule="evenodd" clip-rule="evenodd" fill="#FFB100" d="M73.285,41.913c4.322-1.755,8.898-2.995,13.666-3.656
		C92.415,34.466,96,28.155,96,21C96,9.402,86.598,0,75,0c-11.598,0-21,9.402-21,21C54.001,32.019,62.492,41.038,73.285,41.913z"/>
</g>
</svg>
