<?xml version="1.0" encoding="utf-8"?>
<!-- Generator: Adobe Illustrator 17.0.0, SVG Export Plug-In . SVG Version: 6.00 Build 0)  -->
<!DOCTYPE svg PUBLIC "-//W3C//DTD SVG 1.1//EN" "http://www.w3.org/Graphics/SVG/1.1/DTD/svg11.dtd">
<svg version="1.1" id="Livello_1" xmlns="http://www.w3.org/2000/svg" xmlns:xlink="http://www.w3.org/1999/xlink" x="0px" y="0px"
	 width="275.437px" height="157.707px" viewBox="0 0 275.437 157.707" enable-background="new 0 0 275.437 157.707"
	 xml:space="preserve">
<g>
	<g>
		<rect x="10.719" y="135.853" width="18" height="2"/>
		<rect x="10.719" y="131.853" fill="#FFFFFF" width="18" height="4"/>
		<path d="M28.719,131.853H11.16c0,0-0.387-2.26,2.713-4.74c3.1-2.48,5.967-2.26,5.967-2.26h8.879V131.853z"/>
	</g>
	<path opacity="0.4" fill="#FFFFFF" d="M139.193,35.176C136.724,15.418,119.072,0,97.65,0C74.537,0,55.8,18.005,55.8,39.988
		c0,0.25,0.015,0.328,0.02,0.928h-0.027v94.8h83.4V44.478v-3.562V35.176z"/>
	<path fill="#80A7D0" d="M81.995,106.576l-37.433-2.912c-14.647-1.259-24.722,21.19-24.722,21.19h9.92c0,0,8.99-16.713,25.11-12.179
		s22.63,15.179,22.63,15.179h9.92L81.995,106.576z"/>
	<g>
		<rect x="67.719" y="139.853" width="19" height="1"/>
		<rect x="67.719" y="135.853" fill="#FFFFFF" width="19" height="4"/>
		<path d="M86.719,135.853H68.82c0,0-0.387-2.76,2.713-5.24s5.967-2.76,5.967-2.76h9.219V135.853z"/>
	</g>
	<polygon fill="#FFB100" points="74.4,70.853 53.94,70.853 44.562,103.631 81.995,107.073 	"/>
	<path fill="#FDE6D2" d="M57.665,85.372c-0.345-1.5-1.846-2.439-3.341-2.096c-0.224,0.053-22.597,4.935-34.836-10.848
		c-9.261-11.94-9.143-26.005-8.44-32.58c2.741-0.767,4.763-3.257,4.763-6.243c0-3.595-2.915-6.51-6.51-6.51s-6.51,2.915-6.51,6.51
		c0,2.179,1.081,4.096,2.725,5.278c-0.872,7.325-1.146,23.155,9.563,36.965c8.952,11.544,21.949,13.816,30.795,13.816
		c5.433,0,9.3-0.857,9.702-0.95C57.075,88.368,58.009,86.873,57.665,85.372z"/>
	<circle fill="#FFB100" cx="9.3" cy="26.165" r="9.3"/>
	<path fill="#3F2314" d="M46.903,61.638l-1.963-8.12c0,0,9.05-5.497,11.466,0.083S46.903,61.638,46.903,61.638z"/>
	<path fill="#FDE6D2" d="M90.026,63.916c-7.443,11.791-22.683,15.538-34.038,8.37c-4.175-2.636-7.244-6.38-9.085-10.648
		c0,0,7.812-1.915,6.882-7.34l-8.845-0.78c-0.113-1.63-0.069-3.281,0.138-4.929c0,0-3.306-0.724-2.918-3.669
		c0.388-2.945,4.289-1.976,4.289-1.976c0.626-1.709,1.443-3.381,2.457-4.987c7.443-11.791,22.683-15.538,34.038-8.37
		S97.47,52.125,90.026,63.916z"/>
	<path d="M94.647,56.359c5.393-14.634-1.192-30.535-14.706-35.515c-4.475-1.649-9.089-1.538-13.596-0.952
		c-9.499,1.236-12.439-9.737-14.915-8.297c-2.585,1.503-2.45,16.197,4.887,18.691l33.428,10.72l-3.864,14.787
		c0,0,4.484-0.643,4.096,4.007c-0.388,4.65-5.902,2.906-5.902,2.906l-2.556,9.582C87.221,69.04,92.113,63.235,94.647,56.359z"/>
	<path fill="#FDE6D2" d="M99.279,87.458c-8.642,0-14.107-4.608-14.351-4.819c0,0-6.751-1.875-7.216-3.095
		c-0.465-1.221,3.061-5.987,3.952-6.277c0.575-0.188,2.776,2.595,4.264,4.592c0,0,0.56-4.011,1.781-3.604s-0.361,5.56-0.361,5.56
		c0.053,0.044,5.385,4.497,13.53,3.862c8.101-0.623,14.024-8.899,14.084-8.982l3.041,2.143c-0.282,0.4-7.011,9.792-16.839,10.548
		C100.521,87.434,99.891,87.458,99.279,87.458z"/>
	<path fill="#F29199" d="M138.719,66.635l-25.516,2.33c0,0-6.484,28.123,25.516,29.845V66.635z"/>
	
		<ellipse transform="matrix(0.9116 0.411 -0.411 0.9116 23.1846 -17.9944)" fill="#3F2314" cx="53.44" cy="44.92" rx="2.6" ry="4.34"/>
	<path fill="#FDE6D2" d="M139.193,35.108c-0.023-0.189-0.043-0.382-0.069-0.567l-8.111-1.611c0,0-14.415,3.12-19.007,5.424
		c-4.592,2.304-5.9,9.25-5.9,9.25s-2.717-0.625-3.691,2.238c-0.974,2.863,3.044,3.849,3.044,3.849s-2.318,19.655,19.697,19.993
		l3.769,6.388l1.529-5.815c0,0,5.737-1.286,8.737-3.911V44.478v-3.562V35.108z"/>
	
		<ellipse transform="matrix(0.9434 0.3315 -0.3315 0.9434 23.4421 -37.7274)" fill="#3F2314" cx="122.295" cy="49.842" rx="2.674" ry="3.953"/>
	
		<ellipse transform="matrix(0.981 0.194 -0.194 0.981 11.1729 -20.6688)" fill="#3F2314" cx="111.135" cy="46.722" rx="2.407" ry="3.557"/>
	<ellipse fill="#F29199" cx="126.596" cy="58.909" rx="2.674" ry="1.744"/>
	<path fill="#3F2314" d="M108.727,56.003l12.405,2.377c0,0-2.045,5.877-7.59,4.947C107.996,62.397,108.727,56.003,108.727,56.003z"
		/>
	<g>
		<g>
			<rect x="204.719" y="152.853" width="18" height="2"/>
			<rect x="204.719" y="148.853" fill="#FFFFFF" width="18" height="4"/>
			<path d="M222.719,148.853H204.6c0,0-0.388-2.76,2.712-5.24s5.967-2.76,5.967-2.76h9.439V148.853z"/>
		</g>
		<g>
			<rect x="257.657" y="151.246" transform="matrix(0.861 -0.5086 0.5086 0.861 -40.2904 156.9296)" width="18.6" height="1.86"/>
			
				<rect x="256.238" y="147.914" transform="matrix(0.861 -0.5086 0.5086 0.861 -39.2658 155.874)" fill="#FFFFFF" width="18.6" height="3.72"/>
			<path d="M272.599,143.442l-16.015,9.46c0,0-1.595-1.938-0.187-5.65c1.408-3.712,3.877-5.17,3.877-5.17l8.541-5.045
				L272.599,143.442z"/>
		</g>
		<path fill="#80A7D0" d="M220.72,112.339l-7.44,28.514h9.92c0,0,4.728-20.066,17.36-17.974
			c12.633,2.092,19.714,19.199,19.714,19.199l8.541-5.044c-6.555-11.206-8.415-21.128-8.415-21.128L220.72,112.339z"/>
		<polygon fill="#99D909" points="260.4,115.91 252.96,75.765 231.337,74.528 220.72,112.345 		"/>
		<path fill="#FDE6D2" d="M221.756,109.093c-1.273,0-2.61-0.082-4.014-0.256c-18.348-2.272-30.021-15.171-30.509-15.717
			c0,0-2.153,2.255-2.153,2.1l0.02-12.77c4.2,0.93,6.304,6.96,6.304,6.96c0.102,0.116,10.812,11.881,27.018,13.89
			c15.087,1.855,18.909-9.087,18.947-9.198l5.295,1.766C241.044,100.723,234.689,109.093,221.756,109.093z"/>
		<path fill="#FDE6D2" d="M265.052,64.506c-4.698,13.128-18.756,20.103-31.399,15.578c-4.649-1.664-8.459-4.65-11.185-8.415
			c0,0,7.207-3.57,5.119-8.662l-8.802,1.164c-0.465-1.567-0.782-3.188-0.938-4.841c0,0-3.384,0.013-3.647-2.945
			c-0.263-2.959,3.756-2.862,3.756-2.862c0.239-1.804,0.672-3.614,1.312-5.402c4.698-13.128,18.756-20.103,31.399-15.578
			C263.309,37.067,269.75,51.377,265.052,64.506z"/>
		<path fill="#3F2314" d="M267.916,56.125c2.078-15.457-7.81-29.543-22.084-31.462c-4.727-0.635-9.171,0.575-13.477,2.03
			c-8.07,2.728-13.146-2.658-14.89-5.72c1.046,0.426,4.301-1.395,1.821-3.72c-0.901-0.771-3.836-0.111-3.1,3.41
			c1.395,6.704,4.65,9.455,9.021,11.625c-11.022,1.728-13.414-8.997-13.414-8.997s3.476,0.376,2.92-2.124
			c-0.528-2.376-4.622-1.942-4.195,2.049c0.524,4.907,2.413,13.877,14.312,15.805l34.96,3.186l-0.552,15.273
			c0,0,4.236-1.603,4.87,3.019c0.634,4.623-5.128,4.121-5.128,4.121l-0.409,9.908C263.429,70.117,266.94,63.387,267.916,56.125z"/>
		
			<ellipse transform="matrix(0.9792 0.2027 -0.2027 0.9792 15.6071 -44.5309)" fill="#3F2314" cx="225.208" cy="53.93" rx="2.6" ry="4.34"/>
	</g>
	<path opacity="0.2" fill="#FFFFFF" d="M185.07,45.626c0-24.054-12.109-40.055-25.293-36.17
		c-11.809,3.479-21.058,11.166-21.058,30.859c0,0.224,0,95.4,0,95.4l46.037,14.186l0.281-103.46l0,0
		C185.04,46.442,185.07,45.899,185.07,45.626z"/>
	<path fill="#492C1D" d="M139.193,35.076c-0.313-2.498-0.859-4.938-1.622-7.241c-1.889-0.992-4.884-2.213-8.883-2.344
		c-7.091-0.232-11.625,6.363-14.996,6.479c-3.371,0.116-1.162-5.479-1.162-5.479s-5.598,2.401-5.696,7.432
		c-0.068,3.487,2.558,6.855,9.533,6.855c6.975,0,15.424-4.884,15.424-4.884l7.403,15.043v-6.121v-3.9V35.076z"/>
</g>
</svg>
