<?xml version="1.0" encoding="utf-8"?>
<!-- Generator: Adobe Illustrator 17.0.0, SVG Export Plug-In . SVG Version: 6.00 Build 0)  -->
<!DOCTYPE svg PUBLIC "-//W3C//DTD SVG 1.1//EN" "http://www.w3.org/Graphics/SVG/1.1/DTD/svg11.dtd">
<svg version="1.1" id="Livello_1" xmlns="http://www.w3.org/2000/svg" xmlns:xlink="http://www.w3.org/1999/xlink" x="0px" y="0px"
	 width="206.072px" height="165.674px" viewBox="0 0 206.072 165.674" enable-background="new 0 0 206.072 165.674"
	 xml:space="preserve">
<g>
	<g>
		<path fill-rule="evenodd" clip-rule="evenodd" fill="#F5AF00" d="M45.5,94.824c19.385,0,35.1,15.86,35.1,35.425
			s-15.715,35.425-35.1,35.425s-35.1-15.86-35.1-35.425S26.115,94.824,45.5,94.824z"/>
		<path fill-rule="evenodd" clip-rule="evenodd" fill="#F3A100" d="M45.825,99.374c16.693,0,30.225,13.823,30.225,30.875
			c0,17.052-13.532,30.875-30.225,30.875S15.6,147.301,15.6,130.249C15.6,113.197,29.133,99.374,45.825,99.374z"/>
		<path fill-rule="evenodd" clip-rule="evenodd" fill="#FFFFFF" d="M45.825,99.374c16.334,0,29.575,13.678,29.575,30.55
			s-13.241,30.55-29.575,30.55c-16.334,0-29.575-13.678-29.575-30.55S29.492,99.374,45.825,99.374z"/>
		<path fill-rule="evenodd" clip-rule="evenodd" fill="#3F2416" d="M68.9,122.124l-5.85-1.3l1.51,2.014l-14.497,5.893
			c-0.883-1.613-2.595-2.707-4.563-2.707c-2.872,0-5.2,2.328-5.2,5.2s2.328,5.2,5.2,5.2c0.187,0,0.372-0.011,0.554-0.03l2.74,10.43
			H46.8l4.55,4.55l0.65-5.85l-1.948,0.974l-2.734-10.407c1.974-0.738,3.382-2.635,3.382-4.867c0-0.443-0.061-0.871-0.166-1.281
			L65,124.062v2.612L68.9,122.124z"/>
		<path fill-rule="evenodd" clip-rule="evenodd" fill="#FFE1C9" d="M29.9,62.974l-1.3-10.4c0,0-6.255,3.161-6.5-3.25
			s5.85-3.25,5.85-3.25l-3.25-16.25l37.05-7.15c0,0,3.2,3.483,5.2,7.15c1.897,3.479,2.6,7.15,2.6,7.15s3.773-1.661,4.55,2.6
			c0.777,4.261-3.25,3.9-3.25,3.9s3.479,20.67-17.55,23.4c-0.765,0.141-6.5,10.4-6.5,10.4L29.9,62.974z"/>
		<path fill-rule="evenodd" clip-rule="evenodd" fill="#FFFFFF" d="M27.3,101.324c-2.963-6.392,0.65-34.45,0.65-34.45
			s-4.104-1.475-8.549-4.352c-2.458-1.591-0.076-5.603,2.194-4.388c3.718,1.99,7.005,2.89,7.005,2.89l14.3,6.5l2.6,5.85l3.25-5.85
			c0,0,9.04-1.28,17.091-4.977c2.796-1.284,5.858,2.117,3.01,3.511c-4.941,2.419-9.7,3.415-9.7,3.415s5.8,26.525,4.55,28.6
			C62.451,100.15,30.263,107.717,27.3,101.324z"/>
		<g>
			
				<ellipse transform="matrix(0.9398 -0.3418 0.3418 0.9398 -10.132 19.4332)" fill-rule="evenodd" clip-rule="evenodd" fill="#402517" cx="50.082" cy="38.469" rx="2.655" ry="4.225"/>
			
				<ellipse transform="matrix(0.2143 0.9768 -0.9768 0.2143 84.2121 -34.8985)" fill-rule="evenodd" clip-rule="evenodd" fill="#402517" cx="63.798" cy="34.894" rx="3.696" ry="2.6"/>
			<path fill-rule="evenodd" clip-rule="evenodd" fill="#402517" d="M60.45,48.674c-3.758,0.537-7.8,0-7.8,0s0.295,6.881,7.15,6.5
				c6.855-0.381,6.5-8.45,6.5-8.45S63.426,48.249,60.45,48.674z"/>
		</g>
		<g>
			<path fill-rule="evenodd" clip-rule="evenodd" d="M42.32,113.428l-3.198-9.211l-6.14,2.132l5.33,15.351
				c0,0,2.372-1.733,3.446-3.949C42.675,115.856,42.32,113.428,42.32,113.428z"/>
			
				<rect x="25.986" y="114.233" transform="matrix(-0.328 -0.9447 0.9447 -0.328 -62.9211 184.3562)" fill-rule="evenodd" clip-rule="evenodd" width="16.25" height="0.65"/>
		</g>
		<path fill-rule="evenodd" clip-rule="evenodd" fill="#FFFFFF" d="M32.981,106.349l5.33,15.351l-1.228,0.426l-5.33-15.351
			L32.981,106.349z"/>
		<path fill-rule="evenodd" clip-rule="evenodd" fill="#85A4FF" d="M72.15,92.224c-6.597-7.435-29.25,6.5-29.25,6.5
			s-23.859-14.362-30.55-5.2c-2.852,3.906,16.308,11.733,28.415,16.204l0.696,1.23l2.024-0.202c3.907,1.396,6.564,2.269,6.564,2.269
			S77.728,98.51,72.15,92.224z"/>
		<path fill-rule="evenodd" clip-rule="evenodd" fill="#FFFFFF" d="M55.649,115.672l6.783-14.767l1.181,0.543l-6.783,14.767
			L55.649,115.672z"/>
		<g>
			<path fill-rule="evenodd" clip-rule="evenodd" d="M57.211,101.369c-1.975,0.732-3.4,2.73-3.4,2.73l-4.07,8.86l5.907,2.713
				l6.783-14.767C62.431,100.905,59.52,100.514,57.211,101.369z"/>
			
				<rect x="52.392" y="108.642" transform="matrix(0.4174 -0.9087 0.9087 0.4174 -63.7638 118.4765)" fill-rule="evenodd" clip-rule="evenodd" width="16.25" height="0.65"/>
		</g>
		<g>
			<path fill-rule="evenodd" clip-rule="evenodd" fill="#FFE1C9" d="M21.596,58.133c-2.271-1.215-4.702-2.837-6.645-4.909
				c-4.597-4.904-5.85-13-5.85-13s2.92-6.969,1.95-7.8c-0.97-0.831-2.6,3.25-2.6,3.25s0.57-5.316,0-6.5
				c-0.57-1.184-8.399,3.804-8.45,5.2c-0.051,1.396,5.2,5.2,5.2,5.2s1.478,10.094,7.15,16.9c2.031,2.437,4.593,4.455,7.052,6.046
				L21.596,58.133z"/>
			<path fill-rule="evenodd" clip-rule="evenodd" fill="#FFE1C9" d="M86.45,31.124c-0.738-1.195-7.906-1.829-7.8,0
				c0.106,1.829,1.3,5.2,1.3,5.2s-2.848-2.844-3.25-1.3c-0.402,1.544,3.25,4.55,3.25,4.55s0.738,11.716-6.5,18.2
				c-2.137,1.914-4.814,3.487-7.61,4.771l3.01,3.512c2.849-1.395,5.758-3.26,7.85-5.683c6.57-7.607,7.15-19.5,7.15-19.5
				S87.189,32.319,86.45,31.124z"/>
		</g>
		<path fill-rule="evenodd" clip-rule="evenodd" d="M25.4,29.794l2.713,16.663c0,0-5.721-2.808-4.925,3.224s5.575,2.639,5.575,2.639
			l1.681,9.551c0,0-11.238-8.514-12.035-25.667s12.212-25.636,24.07-26.673c6.805-0.595,11.238,1.759,13.805,1.696
			c2.566-0.063,7.168-2.356,7.256-6.597c0.039-1.853-1.416-2.262-1.416-2.262s0,2.702-2.389,2.545s-2.33-5.184,2.301-4.901
			c2.238,0.137,3.953,2.419,3.894,5.184c-0.145,6.784-8.407,9.142-8.407,9.142s-1.003,1.634,3.628,1.508s7.551-5.404,7.61-7.257
			c-0.451,0.949-2.537,1.351-2.478-0.565c0.059-1.916,0.914-2.827,2.478-2.827c1.563,0,2.566,1.445,2.566,3.581
			c0.001,4.775-3.767,13.04-11.061,14.42S25.4,29.794,25.4,29.794z"/>
	</g>
	<g>
		<polygon fill-rule="evenodd" clip-rule="evenodd" fill="#FFE1C9" points="147.676,73.796 157.589,58.684 141.826,57.546 		"/>
		<path fill-rule="evenodd" clip-rule="evenodd" fill="#F88F95" d="M168.115,100.34l-34.994,0.638l-4.148-14.891l7.871-1.595
			l32.228-0.213c0,0,3.06,5.205,3.404,9.892C172.82,98.858,168.115,100.34,168.115,100.34z"/>
		<path fill-rule="evenodd" clip-rule="evenodd" d="M149.076,85.236c-6.581-0.086-12.232-0.745-12.232-0.745v-2.446l32.335,0.425
			l0.213,2.446C169.392,84.917,158.311,85.357,149.076,85.236z"/>
		<path fill-rule="evenodd" clip-rule="evenodd" fill="#F88F95" d="M148.651,82.683c-6.386-0.084-11.806-0.638-11.806-0.638
			l-1.489-25.74l9.466,4.999l2.765,8.722l5.531-8.403l15.104-7.658l0.957,28.505C169.179,82.471,157.892,82.805,148.651,82.683z"/>
		<path fill-rule="evenodd" clip-rule="evenodd" fill="#FFE1C9" d="M120.784,114.167l13.934-14.572l-5.744-13.508
			c0,0-4.105,1.245-5.425,3.297c-1.536,2.389-0.319,5.637-0.319,5.637l1.702,5.531l-5.85,12.764L120.784,114.167z"/>
		<path fill-rule="evenodd" clip-rule="evenodd" d="M121.528,113.316l-3.085-1.064c0,0-2.633-0.484-4.255,0
			c-1.917,0.572-2.872,2.127-2.872,2.127l7.977,3.085L121.528,113.316z"/>
		<path fill-rule="evenodd" clip-rule="evenodd" fill="#FFE1C9" d="M127.059,31.203c1.277-2.625,2.724-2.214,3.416-1.798
			c0.25-0.494,0.513-0.994,0.792-1.5c6.452-11.333,20.542-15.477,31.471-9.255c10.929,6.222,14.559,20.453,8.107,31.786
			c-6.452,11.333-20.542,15.477-31.471,9.255c-9.136-5.201-14.782-12.808-11.269-24.454C127.2,34.833,125.812,33.767,127.059,31.203
			z"/>
		<path fill-rule="evenodd" clip-rule="evenodd" fill="#FFE1C9" d="M135.401,57.095c0,0-11.118,2.307-18.127-2.704
			c-6.181-4.418-7.658-16.167-7.658-16.167s4.307-5.495,2.872-6.488c-1.435-0.993-2.978,2.34-2.978,2.34s1.292-3.814,0.638-4.467
			c-0.654-0.653-5.792-0.729-6.914,0.425c-1.122,1.155,2.146,9.75,2.872,9.679c0.101,1.01,2.628,13.426,8.935,18.082
			c8.264,6.102,20.624,3.849,20.624,3.849L135.401,57.095z"/>
		<ellipse fill-rule="evenodd" clip-rule="evenodd" fill="#F5AF00" cx="150.246" cy="128.207" rx="33.275" ry="33.611"/>
		<ellipse fill-rule="evenodd" clip-rule="evenodd" fill="#F3A100" cx="149.938" cy="128.207" rx="28.653" ry="29.294"/>
		<ellipse fill-rule="evenodd" clip-rule="evenodd" fill="#FFFFFF" cx="149.938" cy="127.899" rx="28.037" ry="28.985"/>
		<path fill-rule="evenodd" clip-rule="evenodd" fill="#3F2416" d="M135.222,137.298l-1.889-1.61l13.153-6.814
			c0.233,0.328,0.504,0.637,0.825,0.91c1.614,1.376,3.852,1.53,5.601,0.561l5.845,8.391l-1.903,0.805l4.631,3.138l-0.492-6.089
			l-1.227,1.439l-5.858-8.409c0.126-0.119,0.247-0.246,0.363-0.381c1.767-2.073,1.515-5.188-0.562-6.959
			c-2.077-1.771-5.194-1.526-6.961,0.546c-1.211,1.42-1.473,3.331-0.85,4.962l-13.182,6.828l-0.527-2.332l-2.659,5.023
			L135.222,137.298z"/>
		<path fill-rule="evenodd" clip-rule="evenodd" fill="#FFB8A7" d="M148.651,45.563c-2.445-1.027-2.58-1.364-2.234-2.234
			c0.346-0.869,1.65-0.895,3.616-0.213c1.967,0.682,2.573,1.424,2.34,2.234C152.141,46.16,151.096,46.589,148.651,45.563z"/>
		<path fill-rule="evenodd" clip-rule="evenodd" fill="#FA701D" d="M138.395,8.903c-1.102,1.012-2.563,5.978,1.354,3.342
			c5.45-3.668,23.497-6.571,32.981,7.317c9.483,13.888,1.35,34.01,11.41,36.461c4.041,0.985,4.385-5.245,3.17-7.499
			c5.601,1.738,2.075,10.885,2.075,10.885s-0.732,3.674-9.372,5.385c-8.64,1.71-15.612-13.602-15.612-13.602
			s4.426,3.133,6.191-2.026c1.765-5.159-3.602-4.953-3.602-4.953s-4.097-4.998-5.853-10.806c-1.897-6.275-1.463-13.395-1.463-13.395
			s-15.52,2.359-22.175,0.901c-4.165-0.913-4.917-5.703-4.519-8.656c0.683-5.071,7.346-7.995,7.203-4.385
			C140.115,9.506,138.98,8.944,138.395,8.903z"/>
		<path fill-rule="evenodd" clip-rule="evenodd" fill="#402517" d="M132.8,39.301c0,0,1.916,1.793,4.142,2.748
			c2.811,1.206,6.388,1.314,6.388,1.314s-1.995,5.631-7.248,3.898C130.828,45.528,132.8,39.301,132.8,39.301z"/>
		<path fill-rule="evenodd" clip-rule="evenodd" fill="#402517" d="M149.411,31.735c0.412,0.18,0.68,0.595,0.809,1.141
			c0.461-0.328,1.639-1.105,1.835-0.608c0.209,0.531-1.346,0.777-1.793,0.836c0.035,0.228,0.054,0.469,0.043,0.729
			c0.536-0.238,1.792-0.737,1.885-0.223c0.1,0.556-1.442,0.5-1.908,0.47c-0.023,0.248-0.069,0.505-0.133,0.768
			c0.612-0.136,1.803-0.336,1.798,0.158c-0.006,0.53-1.328,0.258-1.867,0.126c-0.074,0.249-0.161,0.5-0.271,0.751
			c-0.804,1.845-2.285,2.978-3.309,2.532c-1.023-0.446-1.201-2.303-0.396-4.148C146.906,32.423,148.388,31.289,149.411,31.735z"/>
		<path fill-rule="evenodd" clip-rule="evenodd" fill="#402517" d="M135.637,32.542c-1.024-0.38-1.29-2.169-0.594-3.995
			c0.281-0.737,0.678-1.359,1.117-1.824c-0.419-0.439-1.266-1.41-0.825-1.667c0.436-0.253,0.859,0.888,1.039,1.457
			c0.154-0.14,0.311-0.263,0.47-0.36c-0.348-0.536-0.916-1.527-0.463-1.693c0.456-0.168,0.675,0.937,0.761,1.547
			c0.353-0.15,0.703-0.194,1.017-0.077c1.024,0.38,1.29,2.169,0.594,3.995C138.056,31.75,136.661,32.922,135.637,32.542z"/>
		<path fill-rule="evenodd" clip-rule="evenodd" fill="#FFE1C9" d="M206.034,32.838c-0.585-0.861-6.036-2.761-7.368-2.083
			c-1.332,0.677-0.678,5.497-0.678,5.497s-1.057-4.66-2.8-3.646c-1.743,1.014,0.95,8.738,0.95,8.738s-1.464,5.002-9.621,12.211
			c-5.095,4.503-13.067,4.985-18.205,4.34l0.22,5.279c4.941,0.218,14.032-0.708,20.371-6.206c9.182-7.963,10.33-14.181,10.33-14.181
			C200.298,43.035,206.619,33.699,206.034,32.838z"/>
		
			<ellipse transform="matrix(-0.9398 -0.3418 0.3418 -0.9398 273.0595 119.3038)" fill-rule="evenodd" clip-rule="evenodd" fill="#85A4FF" cx="147.04" cy="35.597" rx="1.327" ry="2.113"/>
		
			<ellipse transform="matrix(-0.2143 0.9768 -0.9768 -0.2143 194.2404 -96.6284)" fill-rule="evenodd" clip-rule="evenodd" fill="#85A4FF" cx="135.985" cy="29.811" rx="1.848" ry="1.3"/>
	</g>
</g>
</svg>
