<?xml version="1.0" encoding="utf-8"?>
<!-- Generator: Adobe Illustrator 17.0.0, SVG Export Plug-In . SVG Version: 6.00 Build 0)  -->
<!DOCTYPE svg PUBLIC "-//W3C//DTD SVG 1.1//EN" "http://www.w3.org/Graphics/SVG/1.1/DTD/svg11.dtd">
<svg version="1.1" id="Livello_1" xmlns="http://www.w3.org/2000/svg" xmlns:xlink="http://www.w3.org/1999/xlink" x="0px" y="0px"
	 width="148.707px" height="168.745px" viewBox="0 0 148.707 168.745" enable-background="new 0 0 148.707 168.745"
	 xml:space="preserve">
<g>
	
		<rect x="62.848" y="14.67" transform="matrix(0.071 0.9975 -0.9975 0.071 86.7085 -55.3593)" fill="#F3A100" width="20.452" height="8.4"/>
	<g>
		<path fill="#F3A100" d="M19.8,168.632c2.7,1.738,15.9-17.162,15.9-17.162l-9.3-7.8C26.4,143.67,17.1,166.893,19.8,168.632z"/>
		<path fill="#F3A100" d="M131.312,137.67l-9.3,7.8c0,0,13.2,18.9,15.9,17.162C140.612,160.893,131.312,137.67,131.312,137.67z"/>
	</g>
	<path fill-rule="evenodd" clip-rule="evenodd" fill="#F5AF00" d="M9.191,122.044c-13.599-36.979,5.632-78.082,42.953-91.806
		s78.599,5.126,92.198,42.105s-5.632,78.082-42.953,91.806S22.789,159.023,9.191,122.044z"/>
	<path fill-rule="evenodd" clip-rule="evenodd" fill="#F3A100" d="M17.642,118.233C5.932,86.39,22.808,50.879,55.335,38.918
		s68.389,4.155,80.099,35.997s-5.166,67.353-37.693,79.315S29.352,150.075,17.642,118.233z"/>
	<path fill-rule="evenodd" clip-rule="evenodd" fill="#FFFFFF" d="M17.642,118.233C6.184,87.075,22.986,52.221,55.171,40.385
		s67.565,3.828,79.023,34.985c11.458,31.158-5.344,66.011-37.529,77.847C64.48,165.054,29.1,149.39,17.642,118.233z"/>
	<path fill-rule="evenodd" clip-rule="evenodd" fill="#3F2416" d="M29.436,96.195l9.831,7.19l-1.17-4.981l31.794,0.85
		c0.329,3.722,2.624,7.155,6.289,8.76c5.347,2.342,11.579-0.094,13.921-5.441c2.342-5.347-0.094-11.579-5.441-13.921
		c-0.349-0.153-0.701-0.283-1.056-0.395l3.403-21.653l3.712,1.626L85.96,56.05l-5.98,10.361l4.42-0.225l-3.396,21.605
		c-4.276-0.235-8.445,2.149-10.264,6.303c-0.361,0.825-0.596,1.671-0.736,2.521l-31.726-0.848l2.13-4.862L29.436,96.195z"/>
	<g>
		<path fill-rule="evenodd" clip-rule="evenodd" fill="#F5AF00" d="M125.7,23.37c-4.577,0-8.812,1.479-12.284,3.987
			c12.466,6.392,23.233,16.091,30.845,28.429C146.002,52.634,147,48.997,147,45.12C147,33.108,137.464,23.37,125.7,23.37z"/>
		<path fill-rule="evenodd" clip-rule="evenodd" fill="#F5AF00" d="M0,50.82c0,5.1,1.724,9.786,4.602,13.495
			c5.895-12.827,15.224-24.107,27.299-32.357c-3.123-1.834-6.74-2.888-10.601-2.888C9.536,29.07,0,38.808,0,50.82z"/>
	</g>
	<circle fill-rule="evenodd" clip-rule="evenodd" fill="#F5AF00" cx="72.348" cy="8.67" r="8.67"/>
</g>
</svg>
