<?xml version="1.0" encoding="utf-8"?>
<!-- Generator: Adobe Illustrator 17.0.0, SVG Export Plug-In . SVG Version: 6.00 Build 0)  -->
<!DOCTYPE svg PUBLIC "-//W3C//DTD SVG 1.1//EN" "http://www.w3.org/Graphics/SVG/1.1/DTD/svg11.dtd">
<svg version="1.1" id="Livello_1" xmlns="http://www.w3.org/2000/svg" xmlns:xlink="http://www.w3.org/1999/xlink" x="0px" y="0px"
	 width="158.224px" height="281.352px" viewBox="0 0 158.224 281.352" enable-background="new 0 0 158.224 281.352"
	 xml:space="preserve">
<g>
	<g>
		<path fill-rule="evenodd" clip-rule="evenodd" fill="#FFE1C9" d="M37.285,136.08c0,0,3.9-0.2,5.5-1.9c1.6-1.7-7.8-10.8-9.4-9
			c-1.6,1.8,0,8,0,8s-9.6,9.4-8.666,31.187c0.589,13.749,7.226,22.798,14.584,28.648l3.578-4.353
			c-6.796-4.858-12.272-12.546-12.84-24.714C29.085,143.48,37.285,136.08,37.285,136.08z"/>
		<path fill-rule="evenodd" clip-rule="evenodd" fill="#FFE1C9" d="M104.985,137.963c0,0,5.6-7.083,2.3-11.983
			c-3.3-4.9-15.9,8.565-14.8,11.983c1.1,3.417,7,4.217,7,4.217s6.449,12.414,6.548,22.007c0.052,4.997-1.272,9.439-3.262,13.125
			l6.883,5.02c2.194-4.627,3.818-10.705,3.72-18.294C113.217,151.88,104.985,137.963,104.985,137.963z"/>
	</g>
	<path fill-rule="evenodd" clip-rule="evenodd" fill="#FFE1C9" d="M93.485,158.08c0,0-33.4-12.1-39.4-7c-6,5.1-7.7,14.5-7.7,14.5
		s-4-1.5-4.8,2.8s3.7,4.6,3.7,4.6s-2.317,26,26.22,24c-1.62,3.9,4.08,12.3,4.08,12.3l14.595-19.207l7.307-10.368l0.798-15.125
		L93.485,158.08z"/>
	<path fill-rule="evenodd" clip-rule="evenodd" fill="#3E2414" d="M93.485,158.08l-3.8,16.3c0,0,7.2-1.6,6.3,4.8s-6.3,2.8-6.3,2.8
		l-1.9,10.133c0,0,12.7-9.033,13.6-27.233s-13.8-27.2-27.2-28.3c-7.69-0.631-12.7,1.867-15.6,1.8c-2.9-0.067-8.1-2.5-8.2-7
		c-0.044-1.966,1.6-2.4,1.6-2.4s0,2.867,2.7,2.7s2.633-5.5-2.6-5.2c-2.529,0.145-4.467,2.567-4.4,5.5c0.164,7.198,9.5,9.7,9.5,9.7
		s1.133,1.733-4.1,1.6c-5.233-0.133-8.533-5.733-8.6-7.7c0.51,1.007,2.867,1.433,2.8-0.6c-0.067-2.033-1.033-3-2.8-3
		s-2.9,1.533-2.9,3.8c-0.001,5.067,4.257,13.835,12.5,15.3S93.485,158.08,93.485,158.08z"/>
	<path fill-rule="evenodd" clip-rule="evenodd" fill="#76ADDD" d="M61.867,234.97l1.918,32.71l9.1-5.7c0,0-3.8-22.1,14.4-22.6
		c10.308-0.283,20,5.2,31.3,6.2s17.1-17.5,17.1-17.5l-7.9-3.3c0,0-1.5,9-7.3,8.8c-4.205-0.145-6.36-3.339-7.227-5.084
		C112.929,227.834,61.867,234.97,61.867,234.97z"/>
	<path fill-rule="evenodd" clip-rule="evenodd" fill="#FA701D" d="M112.785,227.38l-15.527-31.436c0,0,7.636-3.663,12.397-13.612
		l-6.883-5.02c-7.737,14.126-26.586,19.118-26.586,19.118l-0.7,6.55l-3.98-6c0,0-16.435,0.394-28.623-8.318l-3.578,4.353
		c9.711,7.719,20.681,9.865,20.681,9.865l1.894,32.295l51.17-7.123L112.785,227.38z"/>
	<g>
		
			<ellipse transform="matrix(-0.3193 0.9476 -0.9476 -0.3193 224.9881 165.8826)" fill-rule="evenodd" clip-rule="evenodd" fill="#402517" cx="52.92" cy="163.742" rx="4.2" ry="2.595"/>
		
			<ellipse transform="matrix(0.2076 -0.9782 0.9782 0.2076 -110.6106 198.2623)" fill-rule="evenodd" clip-rule="evenodd" fill="#402517" cx="67.07" cy="167.404" rx="4.479" ry="2.91"/>
		<path fill-rule="evenodd" clip-rule="evenodd" fill="#402517" d="M50.485,175.73c0,0-0.25,8.25,5.75,8.55
			c6,0.3,7.839-6.3,7.839-6.3s-5.039-0.05-7.585-0.323C53.943,177.383,50.485,175.73,50.485,175.73z"/>
	</g>
	<path fill-rule="evenodd" clip-rule="evenodd" fill="#FFFFFF" d="M77.961,270.103l-16.978,10.57l-0.846-1.358l16.978-10.57
		L77.961,270.103z"/>
	<g>
		<path fill-rule="evenodd" clip-rule="evenodd" d="M59.893,272.87c0.587-2.525,2.806-4.574,2.806-4.574l10.187-6.342l4.228,6.791
			l-16.978,10.57C60.137,279.315,59.207,275.821,59.893,272.87z"/>
		
			<rect x="59.683" y="275.327" transform="matrix(-0.8489 0.5285 -0.5285 -0.8489 274.565 472.9698)" fill-rule="evenodd" clip-rule="evenodd" width="20" height="0.8"/>
	</g>
	<path fill-rule="evenodd" clip-rule="evenodd" fill="#FFFFFF" d="M131.469,215.791l18.368,7.913l-0.633,1.469l-18.368-7.913
		L131.469,215.791z"/>
	<g>
		<path fill-rule="evenodd" clip-rule="evenodd" d="M144.049,229.051c-2.409,0.958-5.358,0.305-5.358,0.305l-10.907-4.576
			l3.051-7.52l18.368,7.913C149.204,225.174,146.865,227.931,144.049,229.051z"/>
		
			<rect x="130.811" y="218.98" transform="matrix(0.9184 0.3957 -0.3957 0.9184 98.2908 -37.8114)" fill-rule="evenodd" clip-rule="evenodd" width="20" height="0.8"/>
	</g>
	<g>
		<polygon fill="#922B00" points="59.785,195.647 67.07,202.847 71.505,196.98 		"/>
		<polygon fill="#922B00" points="76.185,196.43 81.652,201.314 87.912,191.437 		"/>
		<circle fill="#922B00" cx="74.518" cy="206.314" r="1.133"/>
		<circle fill="#922B00" cx="72.118" cy="202.314" r="1.133"/>
	</g>
	<g>
		<polygon fill-rule="evenodd" clip-rule="evenodd" fill="#F6CFC3" points="40.603,106.246 40.632,105.81 102.888,109.953 
			102.859,110.389 112.47,111.028 110.684,137.86 76.287,135.571 77.345,119.667 65.879,118.905 64.821,134.808 30.424,132.519 
			32.209,105.687 		"/>
		<path fill-rule="evenodd" clip-rule="evenodd" fill="#CF6E57" d="M40.632,105.81l62.256,4.143l-0.029,0.436l9.863-3.149
			l-0.252,3.789c-9.472,9.245-22.235,19.636-35.944,20.952l0.819-12.312l-11.466-0.763l-0.867,13.024
			c-12.914-1.277-24.218-11.023-33.276-19.148l0.472-7.093l8.394,0.559L40.632,105.81z"/>
		<path fill="#F6CFC3" d="M9.026,50.244L6.476,88.575l8.765,0.583c7.792,20.912,27.711,36.495,52.001,38.111
			c32.717,2.177,60.953-21.8,63.066-53.555c0.049-0.74,0.069-1.476,0.089-2.211c12.095-3.523,14.819-12.573,15.419-16.533
			c0.046-0.301,0.085-0.601,0.116-0.9c3.621-2.266,7.543-6.171,11.743-11.703c0.897-1.182,0.666-2.868-0.516-3.766
			c-1.185-0.897-2.869-0.666-3.767,0.516c-3.087,4.066-5.684,6.78-7.833,8.571c-0.73-3.016-2.247-5.419-4.317-6.509
			c-3.086-1.623-5.452-1.282-6.893-0.71c-2.92,1.158-4.26,3.969-4.8,5.541c-0.756,2.203,1.067,7.198,5.042,9.318
			c1.692,0.902,3.495,1.24,5.407,1.02c-1.014,3.256-3.584,7.283-9.731,9.52c-2.061-28.319-25.389-51.597-55.375-53.592
			c-1.968-0.131-3.914-0.141-5.845-0.086C64.799,8.357,54.107-0.481,46.562,0.02c-0.849,0.057-1.621,0.51-2.082,1.226
			c-0.461,0.715-0.556,1.606-0.257,2.403c1.692,4.499,0.528,11.025-0.551,14.937C30.426,25.252,20.008,36.63,14.995,50.641
			L9.026,50.244z M140.605,50.669c-1.356,0.433-2.293,0.342-2.858,0.172c-1.881-0.559-2.789-2.634-2.974-3.446
			c0.336-0.812,0.885-1.66,1.562-1.93c0.711-0.282,1.703,0.1,2.406,0.472C139.413,46.291,140.355,48.088,140.605,50.669z"/>
		<g>
			
				<ellipse transform="matrix(0.0664 -0.9978 0.9978 0.0664 -62.0195 72.5346)" fill="#CF6E57" cx="7.751" cy="69.409" rx="19.208" ry="7.661"/>
			<path fill="#CF6E57" d="M35.703,53.174c1.481,0.099,2.602,1.379,2.504,2.861c-0.324,4.863,3.354,9.08,8.197,9.402
				c4.844,0.322,9.047-3.371,9.37-8.233c0.099-1.481,1.379-2.602,2.861-2.504c1.481,0.099,2.602,1.379,2.504,2.861
				c-0.52,7.82-7.29,13.759-15.091,13.24c-7.801-0.519-13.725-7.304-13.205-15.123C32.941,54.197,34.222,53.076,35.703,53.174z"/>
			<path fill="#CF6E57" d="M66.64,21.119c2.532-0.188,5.112-0.197,7.667-0.026c12.109,0.806,23.305,5.48,32.378,13.517
				c1.111,0.984,1.214,2.684,0.229,3.794c-0.574,0.648-1.391,0.953-2.192,0.9c-0.573-0.038-1.139-0.26-1.602-0.67
				c-8.172-7.241-18.259-11.451-29.169-12.177c-2.306-0.153-4.631-0.145-6.912,0.024c-1.483,0.114-2.77-1.001-2.88-2.482
				C64.049,22.519,65.16,21.23,66.64,21.119z"/>
		</g>
	</g>
</g>
</svg>
