<?xml version="1.0" encoding="utf-8"?>
<!-- Generator: Adobe Illustrator 17.0.0, SVG Export Plug-In . SVG Version: 6.00 Build 0)  -->
<!DOCTYPE svg PUBLIC "-//W3C//DTD SVG 1.1//EN" "http://www.w3.org/Graphics/SVG/1.1/DTD/svg11.dtd">
<svg version="1.1" id="Livello_1" xmlns="http://www.w3.org/2000/svg" xmlns:xlink="http://www.w3.org/1999/xlink" x="0px" y="0px"
	 width="210.499px" height="380.846px" viewBox="0 0 210.499 380.846" enable-background="new 0 0 210.499 380.846"
	 xml:space="preserve">
<g>
	
		<rect x="45.264" y="31.081" transform="matrix(-0.2603 0.9655 -0.9655 -0.2603 123.7637 -14.4578)" fill="#F3A100" width="44.312" height="18.2"/>
	<path fill="#F3A100" d="M118.723,380.74c-6.462,2.58-26.711-43.081-26.711-43.081l23.008-12.739
		C115.02,324.921,125.185,378.161,118.723,380.74z"/>
	<path fill-rule="evenodd" clip-rule="evenodd" fill="#F5AF00" d="M107.228,73.023C73.718,52.724,35.679,46.416,0,52.435v305.177
		c61.663,11.362,126.425-15.187,160.573-71.558C204.802,213.039,180.919,117.662,107.228,73.023z"/>
	<path fill-rule="evenodd" clip-rule="evenodd" fill="#F3A100" d="M96.847,90.161C66.507,71.782,31.992,66.428,0,72.515v261.976
		c55.104,12.53,113.855-9.988,144.177-60.044C182.263,211.574,161.073,129.066,96.847,90.161z"/>
	<path fill-rule="evenodd" clip-rule="evenodd" fill="#FFFFFF" d="M96.588,93.35C66.262,74.98,31.798,69.636,0,75.745v256.388
		c55.067,13.695,114.1-8.034,144.177-57.685C181.444,212.926,160.138,131.846,96.588,93.35z"/>
	<path fill-rule="evenodd" clip-rule="evenodd" fill="#F5AF00" d="M209.604,138.381c-2.111,10.846-7.717,20.099-15.374,26.795
		c-7.228-29.72-22.399-57.572-44.662-80.116c7.4-2.607,15.53-3.352,23.74-1.754C198.326,88.177,214.577,112.835,209.604,138.381z"/>
	<circle fill-rule="evenodd" clip-rule="evenodd" fill="#F5AF00" cx="73.187" cy="18.789" r="18.785"/>
	<path fill-rule="evenodd" clip-rule="evenodd" fill="#3F2416" d="M128.216,222.698l-21.142-15.794l2.516,11.222l-67.824-11.331
		c0.052-1.865-0.096-3.762-0.523-5.666c-2.149-9.587-10.027-16.384-19.219-17.654l1.722-47.353l9.307,2.308l-8.429-24.511
		L9.455,137.854l8.568-1.921l-1.726,47.459c-0.801,0.093-1.605,0.223-2.409,0.404c-5.89,1.321-10.732,4.804-13.889,9.423v25.851
		c5.137,7.504,14.493,11.526,23.909,9.415c8.458-1.896,14.761-8.247,17.001-16.027l67.97,11.355l-4.55,10.108L128.216,222.698z"/>
</g>
</svg>
