<?xml version="1.0" encoding="utf-8"?>
<!-- Generator: Adobe Illustrator 17.0.0, SVG Export Plug-In . SVG Version: 6.00 Build 0)  -->
<!DOCTYPE svg PUBLIC "-//W3C//DTD SVG 1.1//EN" "http://www.w3.org/Graphics/SVG/1.1/DTD/svg11.dtd">
<svg version="1.1" id="Livello_1" xmlns="http://www.w3.org/2000/svg" xmlns:xlink="http://www.w3.org/1999/xlink" x="0px" y="0px"
	 width="234.619px" height="324px" viewBox="0 0 234.619 324" enable-background="new 0 0 234.619 324" xml:space="preserve">
<g>
	<polygon fill-rule="evenodd" clip-rule="evenodd" fill="#F6CFC3" points="138.89,263.975 138.89,263 0,263 0,324 55.069,324 
		55.069,288.422 80.719,288.422 80.719,324 157.669,324 157.669,263.975 	"/>
	<path fill-rule="evenodd" clip-rule="evenodd" fill="#CF6E57" d="M138.89,263.975V263H0v23.037
		c16.08,14.34,34.802,26.614,55.069,29.929v-27.543h25.65v29.136c28.952-0.93,55.573-20.96,76.95-37.715v-15.867H138.89z"/>
	<path fill="#F6CFC3" d="M204.166,143.926c-9.089-31.948-30.605-58.833-59.121-75.643c-1.822-8.872-3.448-23.578,0.987-33.349
		c0.785-1.731,0.705-3.729-0.215-5.391c-0.921-1.661-2.574-2.786-4.456-3.038c-16.73-2.235-41.853,15.864-51.887,23.77
		c-4.293-0.407-8.627-0.674-13.031-0.674c-28.478,0-54.848,8.723-76.444,23.562v210.141c21.601,14.83,47.973,23.547,76.444,23.547
		c54.338,0,101.013-31.755,121.466-77.175h19.608v-85.749H204.166z"/>
	<g>
		<ellipse fill="#CF6E57" cx="217.518" cy="186.8" rx="17.1" ry="42.875"/>
		<path fill="#CF6E57" d="M157.669,146.499c-3.313,0-6,2.687-6,6c0,10.878-8.815,19.726-19.651,19.726s-19.649-8.848-19.649-19.726
			c0-3.313-2.687-6-6-6s-6,2.687-6,6c0,17.493,14.197,31.726,31.649,31.726s31.651-14.232,31.651-31.726
			C163.669,149.185,160.982,146.499,157.669,146.499z"/>
		<path fill="#CF6E57" d="M93.516,70.52c-5.61-0.794-11.355-1.195-17.073-1.195c-27.089,0-52.718,8.751-74.115,25.307
			c-2.621,2.027-3.101,5.798-1.072,8.417c1.182,1.529,2.956,2.329,4.749,2.329c1.282,0,2.575-0.41,3.668-1.254
			c19.274-14.915,42.363-22.799,66.771-22.799c5.158,0,10.336,0.363,15.391,1.078c3.286,0.475,6.318-1.819,6.782-5.101
			C99.08,74.021,96.796,70.986,93.516,70.52z"/>
	</g>
	<path fill-rule="evenodd" clip-rule="evenodd" fill="#FFB100" d="M36.619,0C20.895,0,7.198,8.646,0,21.438v41.12
		C6.671,74.396,18.922,82.67,33.188,83.827c8.644-3.51,17.796-5.99,27.332-7.312C71.449,68.931,78.619,56.31,78.619,42
		C78.619,18.804,59.814,0,36.619,0z"/>
</g>
</svg>
