<?xml version="1.0" encoding="utf-8"?>
<!-- Generator: Adobe Illustrator 17.0.0, SVG Export Plug-In . SVG Version: 6.00 Build 0)  -->
<!DOCTYPE svg PUBLIC "-//W3C//DTD SVG 1.1//EN" "http://www.w3.org/Graphics/SVG/1.1/DTD/svg11.dtd">
<svg version="1.1" id="Livello_1" xmlns="http://www.w3.org/2000/svg" xmlns:xlink="http://www.w3.org/1999/xlink" x="0px" y="0px"
	 width="87px" height="81px" viewBox="0 0 87 81" enable-background="new 0 0 87 81" xml:space="preserve">
<g>
	<g>
		<polygon fill-rule="evenodd" clip-rule="evenodd" fill="#F6CFC3" points="23.932,65.994 23.932,65.75 58.75,65.75 58.75,65.994 
			64.125,65.994 64.125,81 44.888,81 44.888,72.106 38.475,72.106 38.475,81 19.238,81 19.238,65.994 		"/>
		<path fill-rule="evenodd" clip-rule="evenodd" fill="#CF6E57" d="M23.932,65.75H58.75v0.244l5.375-2.119v2.119
			c-4.931,5.499-11.653,11.757-19.238,12.998v-6.886h-6.412v7.284c-7.238-0.233-13.893-5.24-19.238-9.429v-3.967h4.695V65.75z"/>
		<path fill="#F6CFC3" d="M4.275,35.981v21.437h4.902c5.113,11.355,16.782,19.294,30.367,19.294
			c18.298,0,33.131-14.397,33.131-32.156c0-0.414-0.016-0.824-0.032-1.234c6.604-2.41,7.786-7.55,7.973-9.777
			c0.014-0.169,0.025-0.338,0.031-0.505c1.932-1.396,3.972-3.716,6.105-6.951c0.456-0.691,0.265-1.622-0.427-2.078
			c-0.693-0.456-1.622-0.264-2.078,0.427c-1.568,2.378-2.914,3.986-4.044,5.062c-0.518-1.652-1.452-2.934-2.645-3.464
			c-1.779-0.79-3.083-0.512-3.864-0.14c-1.583,0.753-2.225,2.368-2.468,3.263c-0.339,1.255,0.861,3.968,3.153,5.002
			c0.976,0.439,1.992,0.561,3.048,0.368c-0.444,1.85-1.726,4.188-5.065,5.661C70.166,24.497,56.314,12.4,39.544,12.4
			c-1.101,0-2.184,0.067-3.258,0.169c-2.508-1.976-8.789-6.501-12.972-5.943c-0.471,0.063-0.884,0.344-1.114,0.76
			c-0.23,0.415-0.25,0.915-0.054,1.348c1.109,2.443,0.702,6.119,0.247,8.337c-7.129,4.203-12.508,10.924-14.78,18.911H4.275z
			 M77.554,31.343c-0.739,0.292-1.264,0.275-1.585,0.201c-1.068-0.242-1.651-1.363-1.784-1.808c0.157-0.464,0.431-0.957,0.798-1.132
			c0.385-0.183,0.952-0.007,1.357,0.174C76.729,28.95,77.32,29.915,77.554,31.343z"/>
		<g>
			<ellipse fill="#CF6E57" cx="4.275" cy="46.7" rx="4.275" ry="10.719"/>
			<path fill="#CF6E57" d="M19.238,36.625c0.828,0,1.5,0.672,1.5,1.5c0,2.719,2.204,4.931,4.913,4.931s4.912-2.212,4.912-4.931
				c0-0.828,0.672-1.5,1.5-1.5s1.5,0.672,1.5,1.5c0,4.373-3.549,7.931-7.912,7.931s-7.913-3.558-7.913-7.931
				C17.738,37.296,18.409,36.625,19.238,36.625z"/>
			<path fill="#CF6E57" d="M35.276,17.63c1.403-0.198,2.839-0.299,4.268-0.299c6.772,0,13.18,2.188,18.529,6.327
				c0.655,0.507,0.775,1.449,0.268,2.104c-0.296,0.382-0.739,0.582-1.187,0.582c-0.32,0-0.644-0.103-0.917-0.313
				c-4.819-3.729-10.591-5.7-16.693-5.7c-1.289,0-2.584,0.091-3.848,0.27c-0.821,0.119-1.579-0.455-1.696-1.275
				C33.885,18.505,34.456,17.747,35.276,17.63z"/>
		</g>
		<path fill-rule="evenodd" clip-rule="evenodd" fill="#FFB100" d="M50.358,20.957c-2.161-0.878-4.449-1.498-6.833-1.828
			C40.793,17.233,39,14.078,39,10.5C39,4.701,43.701,0,49.5,0C55.299,0,60,4.701,60,10.5C60,16.009,55.754,20.519,50.358,20.957z"/>
	</g>
</g>
</svg>
