<?xml version="1.0" encoding="utf-8"?>
<!-- Generator: Adobe Illustrator 17.0.0, SVG Export Plug-In . SVG Version: 6.00 Build 0)  -->
<!DOCTYPE svg PUBLIC "-//W3C//DTD SVG 1.1//EN" "http://www.w3.org/Graphics/SVG/1.1/DTD/svg11.dtd">
<svg version="1.1" id="Livello_1" xmlns="http://www.w3.org/2000/svg" xmlns:xlink="http://www.w3.org/1999/xlink" x="0px" y="0px"
	 width="32.303px" height="34.861px" viewBox="0 0 32.303 34.861" enable-background="new 0 0 32.303 34.861" xml:space="preserve">
<g>
	<path fill="#FFE1C9" d="M22.973,11.236c0,0,4.28,3.668,4.433,10.853s-3.77,12.228-11.26,12.738S5.268,30.139,5.268,30.139
		l-3.617-6.624l1.783-11.158L22.973,11.236z"/>
	<path fill="#402517" d="M16.632,17.344c-0.096-0.056-0.219-0.036-0.291,0.048l-2.526,2.928c-0.038,0.044-0.058,0.1-0.056,0.157
		c0.002,0.062,0.029,0.122,0.075,0.165c0.046,0.042,0.109,0.064,0.171,0.06c0.108-0.007,0.108-0.007,0.63-0.558
		c0.051-0.053,0.107-0.113,0.162-0.171c0.201,0.995,0.815,1.69,1.514,1.646c0.806-0.05,1.377-1.062,1.3-2.303
		C17.556,18.435,17.172,17.66,16.632,17.344z"/>
	<path fill="#402517" d="M25.675,19.577l-2.592-2.112c-0.049-0.04-0.112-0.058-0.174-0.05c-0.062,0.008-0.119,0.041-0.157,0.091
		c-0.272,0.366-0.462,0.858-0.534,1.385c-0.168,1.232,0.327,2.283,1.127,2.392c0.71,0.097,1.4-0.601,1.656-1.63
		c0.016,0.012,0.032,0.025,0.047,0.036c0.176,0.132,0.356,0.204,0.414,0.244l0.09,0.007v0.001c0,0.043-0.092,0.266-0.058,0.266
		c0,0,0,0,0.001,0c0.102,0,0.203-0.154,0.244-0.248C25.78,19.865,25.755,19.643,25.675,19.577z"/>
	<path fill="#402517" d="M20.689,26.345c-2.39,0.123-2.744,2.49-2.744,2.49c2.321-0.753,5.15-0.43,5.626-0.231
		C23.572,28.605,23.08,26.222,20.689,26.345z"/>
	<path d="M5.268,30.139c0,0-6.237-6.429-5.007-14.548c0.555-3.664,2.298-6.646,5.369-8.679s9.911-1.548,11.008-1.648
		c1.098-0.1,2.456-2.195,3.416-2.231s-0.035,2.1-0.025,2.146c0.86,0.06,1.816-1.677,2.989-1.952c1.173-0.275-0.001,3.585,0.079,3.6
		c0.832,0.155,2.339-3.587,3.61-3.27c1.271,0.317-1.983,9.768-1.983,9.768L5.848,13.293l0.238,8.274c0,0-3.096-1.235-3.596,1.539
		s2.848,2.364,2.848,2.364L5.268,30.139z"/>
</g>
</svg>
