<?xml version="1.0" encoding="utf-8"?>
<!-- Generator: Adobe Illustrator 17.0.0, SVG Export Plug-In . SVG Version: 6.00 Build 0)  -->
<!DOCTYPE svg PUBLIC "-//W3C//DTD SVG 1.1//EN" "http://www.w3.org/Graphics/SVG/1.1/DTD/svg11.dtd">
<svg version="1.1" id="Livello_1" xmlns="http://www.w3.org/2000/svg" xmlns:xlink="http://www.w3.org/1999/xlink" x="0px" y="0px"
	 width="27.199px" height="30.335px" viewBox="0 0 27.199 30.335" enable-background="new 0 0 27.199 30.335" xml:space="preserve">
<g>
	<path fill="#004594" d="M23.133,6.708c-0.427-1.166-1.606-3.773-4.184-5.872c-0.366-0.299-0.901-0.238-1.195,0.133
		c-0.294,0.371-0.236,0.914,0.13,1.212c0.652,0.529,1.197,1.102,1.659,1.669c-1.726-1.545-4.089-3.265-6.544-3.829
		c-0.317-0.075-0.646,0.044-0.85,0.299c-0.203,0.257-0.246,0.608-0.108,0.906l0.604,1.315c-0.824-0.248-1.808-0.457-2.766-0.457
		c-0.752,0-1.423,0.13-1.993,0.385C5.904,3.358,4.652,4.788,4.362,6.421C1.68,8.94,0,12.541,0,16.541
		c0,7.618,6.088,13.794,13.599,13.794c7.51,0,13.6-6.176,13.6-13.794C27.199,12.691,25.641,9.21,23.133,6.708z M13.599,28.036
		c-6.249,0-11.333-5.158-11.333-11.496c0-2.828,1.015-5.415,2.69-7.419c0.731,0.861,2.049,1.335,3.833,1.335
		c0.525,0,0.894-0.043,0.911-0.046c0.41-0.049,0.728-0.391,0.749-0.811C10.47,9.18,10.19,8.806,9.786,8.714
		c-0.001,0-0.127-0.053-0.187-0.162C9.507,8.385,9.53,8.068,9.661,7.682c0.141-0.414,0.57-1.67,3.416-1.67
		c3.08,0,6.98,1.482,7.955,1.873c2.384,2.109,3.899,5.203,3.899,8.655C24.932,22.879,19.848,28.036,13.599,28.036z"/>
	<path fill="#004594" d="M11.559,13.954c0-0.432-0.104-0.837-0.275-1.203c0.001,0.025,0.007,0.049,0.007,0.074
		c0,0.778-0.622,1.408-1.388,1.408c-0.767,0-1.388-0.63-1.388-1.408c0-0.777,0.621-1.408,1.388-1.408
		c0.028,0,0.054,0.007,0.082,0.008c-0.365-0.179-0.769-0.288-1.202-0.288c-1.533,0-2.776,1.261-2.776,2.816
		c0,1.555,1.243,2.816,2.776,2.816C10.316,16.77,11.559,15.509,11.559,13.954z"/>
	<path fill="#004594" d="M20.924,12.826c0,0.778-0.621,1.408-1.388,1.408c-0.767,0-1.388-0.63-1.388-1.408
		c0-0.777,0.622-1.408,1.388-1.408c0.028,0,0.054,0.007,0.082,0.008c-0.365-0.179-0.769-0.288-1.202-0.288
		c-1.533,0-2.777,1.261-2.777,2.816c0,1.555,1.244,2.816,2.777,2.816c1.535,0,2.777-1.261,2.777-2.816
		c0-0.432-0.104-0.837-0.275-1.203C20.918,12.776,20.924,12.8,20.924,12.826z"/>
	<path fill="#004594" d="M13.611,20.245c-2.469,0-4.449,1.681-5.297,4.048h10.594C18.059,21.926,16.081,20.245,13.611,20.245z"/>
</g>
</svg>
