<?xml version="1.0" encoding="utf-8"?>
<!-- Generator: Adobe Illustrator 17.0.0, SVG Export Plug-In . SVG Version: 6.00 Build 0)  -->
<!DOCTYPE svg PUBLIC "-//W3C//DTD SVG 1.1//EN" "http://www.w3.org/Graphics/SVG/1.1/DTD/svg11.dtd">
<svg version="1.1" id="Livello_1" xmlns="http://www.w3.org/2000/svg" xmlns:xlink="http://www.w3.org/1999/xlink" x="0px" y="0px"
	 width="32.303px" height="34.861px" viewBox="0 0 32.303 34.861" enable-background="new 0 0 32.303 34.861" xml:space="preserve">
<g>
	<path fill="#FFE1C9" d="M22.873,11.236c0,0,4.28,3.668,4.433,10.853c0.153,7.184-3.77,12.228-11.26,12.738
		S5.168,30.139,5.168,30.139l-3.617-6.624l1.783-11.158L22.873,11.236z"/>
	<path fill="#F5AF00" d="M5.168,30.139c0,0-6.237-6.429-5.007-14.548c0.555-3.664,2.298-6.646,5.369-8.679s9.911-1.548,11.008-1.648
		s2.456-2.195,3.416-2.231c0.96-0.036-0.035,2.1-0.025,2.146c0.86,0.06,1.816-1.677,2.989-1.952c1.173-0.275,0,3.585,0.079,3.6
		c0.832,0.155,2.339-3.587,3.61-3.27c1.271,0.317-1.983,9.768-1.983,9.768L5.748,13.293l0.238,8.274c0,0-3.096-1.235-3.596,1.539
		s2.848,2.364,2.848,2.364L5.168,30.139z"/>
	<g>
		<ellipse fill="#402517" cx="23.926" cy="20.138" rx="1.165" ry="1.914"/>
		<ellipse fill="#402517" cx="16.026" cy="20.433" rx="1.165" ry="1.914"/>
		<path fill="#402517" d="M24.178,15.24c-0.099-0.044-0.144-0.16-0.101-0.259c0.044-0.099,0.16-0.144,0.259-0.101
			c0.982,0.432,1.504,1.696,1.526,1.749c0.041,0.1-0.007,0.215-0.108,0.256c-0.024,0.01-0.049,0.014-0.074,0.014
			c-0.077,0-0.151-0.046-0.182-0.122C25.494,16.766,25.013,15.607,24.178,15.24z"/>
		<path fill="#402517" d="M14.437,15.834c0.403-0.51,1.324-0.78,1.363-0.791c0.104-0.03,0.213,0.03,0.243,0.134
			s-0.03,0.213-0.134,0.243c-0.009,0.003-0.84,0.246-1.164,0.657c-0.34,0.431-0.541,1.06-0.543,1.066
			c-0.026,0.084-0.104,0.137-0.187,0.137c-0.02,0-0.039-0.003-0.059-0.009c-0.103-0.033-0.161-0.143-0.128-0.246
			C13.837,16.997,14.051,16.323,14.437,15.834z"/>
		
			<ellipse transform="matrix(-0.9971 0.0764 -0.0764 -0.9971 43.1508 54.67)" fill="#402517" cx="20.53" cy="28.16" rx="2.135" ry="1.276"/>
	</g>
</g>
</svg>
