<?xml version="1.0" encoding="utf-8"?>
<!-- Generator: Adobe Illustrator 17.0.0, SVG Export Plug-In . SVG Version: 6.00 Build 0)  -->
<!DOCTYPE svg PUBLIC "-//W3C//DTD SVG 1.1//EN" "http://www.w3.org/Graphics/SVG/1.1/DTD/svg11.dtd">
<svg version="1.1" id="Livello_1" xmlns="http://www.w3.org/2000/svg" xmlns:xlink="http://www.w3.org/1999/xlink" x="0px" y="0px"
	 width="27.013px" height="29.958px" viewBox="0 0 27.013 29.958" enable-background="new 0 0 27.013 29.958" xml:space="preserve">
<g>
	<ellipse fill="#004594" cx="9.04" cy="13.984" rx="1.969" ry="1.986"/>
	<ellipse fill="#004594" cx="17.982" cy="13.984" rx="1.969" ry="1.986"/>
	<path fill="#004594" d="M22.974,6.625c-0.424-1.152-1.595-3.726-4.156-5.799c-0.363-0.295-0.895-0.235-1.187,0.132
		c-0.292,0.366-0.234,0.902,0.129,1.197c0.647,0.522,1.189,1.088,1.648,1.648c-1.714-1.526-4.061-3.224-6.499-3.781
		c-0.315-0.074-0.642,0.043-0.844,0.296c-0.202,0.254-0.244,0.601-0.107,0.894l0.599,1.299c-0.818-0.245-1.795-0.452-2.747-0.452
		c-0.747,0-1.413,0.128-1.979,0.38c-1.968,0.878-3.212,2.29-3.5,3.903C1.668,8.829,0,12.385,0,16.335
		c0,7.524,6.047,13.623,13.506,13.623c7.459,0,13.507-6.099,13.507-13.623C27.012,12.533,25.465,9.095,22.974,6.625z M13.506,27.687
		c-6.206,0-11.255-5.093-11.255-11.353c0-2.792,1.008-5.348,2.672-7.326c0.726,0.85,2.034,1.318,3.806,1.318
		c0.521,0,0.888-0.043,0.904-0.045c0.408-0.048,0.723-0.386,0.744-0.801c0.021-0.414-0.257-0.784-0.658-0.875
		c-0.001,0-0.126-0.052-0.186-0.16C9.441,8.28,9.465,7.967,9.595,7.587c0.14-0.409,0.567-1.649,3.393-1.649
		c3.059,0,6.932,1.464,7.901,1.849c2.367,2.083,3.872,5.138,3.872,8.547C24.761,22.595,19.712,27.687,13.506,27.687z"/>
	<path fill="#004594" d="M16.269,21.729l0.002-0.007l-5.074-1.53l-0.002,0.008c-0.195-0.059-0.413-0.043-0.608,0.061
		c-0.389,0.208-0.538,0.69-0.332,1.076c0.103,0.193,0.275,0.326,0.47,0.385l-0.003,0.009l5.074,1.531l0.006-0.018
		c0.2,0.066,0.424,0.056,0.625-0.051c0.389-0.208,0.537-0.69,0.331-1.077C16.653,21.917,16.472,21.785,16.269,21.729z"/>
</g>
</svg>
