<?xml version="1.0" encoding="utf-8"?>
<!-- Generator: Adobe Illustrator 17.0.0, SVG Export Plug-In . SVG Version: 6.00 Build 0)  -->
<!DOCTYPE svg PUBLIC "-//W3C//DTD SVG 1.1//EN" "http://www.w3.org/Graphics/SVG/1.1/DTD/svg11.dtd">
<svg version="1.1" id="Livello_1" xmlns="http://www.w3.org/2000/svg" xmlns:xlink="http://www.w3.org/1999/xlink" x="0px" y="0px"
	 width="32.303px" height="34.861px" viewBox="0 0 32.303 34.861" enable-background="new 0 0 32.303 34.861" xml:space="preserve">
<g>
	<path fill="#FFE1C9" d="M22.807,11.202c0,0,4.28,3.668,4.433,10.853s-3.77,12.228-11.26,12.738S5.102,30.105,5.102,30.105
		l-3.618-6.624l1.783-11.158L22.807,11.202z"/>
	<ellipse fill="#402517" cx="23.168" cy="20.399" rx="1.165" ry="1.914"/>
	<path fill="#402517" d="M16.724,26.929c0,0,0.755,3.795,3.527,3.3s2.917-3.703,2.917-3.703s-2.307,0.508-3.499,0.651
		C18.477,27.32,16.724,26.929,16.724,26.929z"/>
	<path fill="#402517" d="M17.758,21.527c0.067-0.029,0.129-0.074,0.18-0.133c0.179-0.209,0.155-0.524-0.054-0.704
		c-0.042-0.036-1.03-0.875-2.152-0.956c-1.189-0.087-2.163,0.896-2.204,0.938c-0.193,0.198-0.189,0.514,0.009,0.707
		c0.198,0.193,0.514,0.189,0.707-0.009c0.006-0.006,0.694-0.692,1.416-0.639c0.79,0.057,1.566,0.712,1.574,0.718
		C17.383,21.578,17.588,21.601,17.758,21.527z"/>
	<path fill="#955116" d="M5.165,12.39l-0.011,9.225c0,0-3.27-2.178-3.389,1.139s3.196,2.071,3.196,2.071l0.141,5.28
		c0,0-6.187-5.858-4.935-15.118S12.399,4.008,15.544,4.186s5.506,0.972,7.107,1.242c1.601,0.27,4.695-0.41,5.182-2.666
		c0.213-0.986-0.65-1.376-0.65-1.376s-0.275,1.444-1.744,1.077s-0.92-3.046,1.929-2.346c1.377,0.338,2.21,1.761,1.892,3.231
		c-0.781,3.608-6.156,3.889-6.156,3.889s-0.79,0.754,2.101,1.236s5.244-1.993,5.469-2.976c-0.377,0.454-1.714,0.421-1.482-0.596
		c0.232-1.017,0.856-1.402,1.828-1.217s1.448,1.076,1.23,2.218c-0.486,2.552-3.669,6.522-8.344,6.395
		C19.233,12.169,5.165,12.39,5.165,12.39z"/>
</g>
</svg>
