<?xml version="1.0" encoding="utf-8"?>
<!-- Generator: Adobe Illustrator 17.0.0, SVG Export Plug-In . SVG Version: 6.00 Build 0)  -->
<!DOCTYPE svg PUBLIC "-//W3C//DTD SVG 1.1//EN" "http://www.w3.org/Graphics/SVG/1.1/DTD/svg11.dtd">
<svg version="1.1" id="Livello_1" xmlns="http://www.w3.org/2000/svg" xmlns:xlink="http://www.w3.org/1999/xlink" x="0px" y="0px"
	 width="27.199px" height="30.335px" viewBox="0 0 27.199 30.335" enable-background="new 0 0 27.199 30.335" xml:space="preserve">
<g>
	<ellipse fill-rule="evenodd" clip-rule="evenodd" fill="#004594" cx="8.783" cy="13.954" rx="1.983" ry="2.011"/>
	<path fill-rule="evenodd" clip-rule="evenodd" fill="#004594" d="M23.133,6.708c-0.427-1.166-1.606-3.773-4.184-5.872
		c-0.366-0.299-0.901-0.238-1.195,0.133c-0.294,0.371-0.236,0.914,0.13,1.212c0.652,0.529,1.197,1.102,1.659,1.669
		c-1.726-1.545-4.089-3.265-6.544-3.829c-0.317-0.075-0.646,0.044-0.85,0.299c-0.203,0.257-0.245,0.608-0.108,0.906l0.604,1.315
		c-0.824-0.248-1.808-0.457-2.766-0.457c-0.752,0-1.423,0.13-1.993,0.385C5.904,3.358,4.652,4.788,4.362,6.421
		C1.68,8.94,0,12.541,0,16.541c0,7.618,6.088,13.794,13.599,13.794c7.51,0,13.6-6.176,13.6-13.794
		C27.199,12.691,25.641,9.21,23.133,6.708z M13.599,28.036c-6.249,0-11.333-5.158-11.333-11.496c0-2.828,1.015-5.415,2.69-7.419
		c0.731,0.861,2.049,1.335,3.833,1.335c0.525,0,0.894-0.043,0.911-0.046c0.41-0.049,0.728-0.391,0.749-0.811
		C10.47,9.18,10.19,8.806,9.786,8.714c-0.001,0-0.127-0.053-0.187-0.162C9.507,8.385,9.53,8.068,9.661,7.682
		c0.141-0.414,0.57-1.67,3.417-1.67c3.08,0,6.98,1.482,7.955,1.873c2.384,2.109,3.899,5.203,3.899,8.655
		C24.932,22.879,19.848,28.036,13.599,28.036z"/>
	<path fill-rule="evenodd" clip-rule="evenodd" fill="#004594" d="M13.641,25.757c2.617,0,4.715-1.666,5.615-4.014H8.027
		C8.926,24.091,11.023,25.757,13.641,25.757z"/>
	<path fill-rule="evenodd" clip-rule="evenodd" fill="#004594" d="M15.211,14.508C15.212,14.51,15,14.707,15,15.074
		c0,0.461,0.361,0.835,0.807,0.835c0.421,0.001,0.541-0.216,0.542-0.216c1.125-1.172,2.95-1.172,4.076,0
		c0.001-0.001,0.208,0.271,0.599,0.272c0.446,0,0.807-0.374,0.807-0.835c0-0.391-0.269-0.621-0.269-0.622
		C19.809,12.682,16.965,12.682,15.211,14.508z"/>
</g>
</svg>
