<?xml version="1.0" encoding="utf-8"?>
<!-- Generator: Adobe Illustrator 17.0.0, SVG Export Plug-In . SVG Version: 6.00 Build 0)  -->
<!DOCTYPE svg PUBLIC "-//W3C//DTD SVG 1.1//EN" "http://www.w3.org/Graphics/SVG/1.1/DTD/svg11.dtd">
<svg version="1.1" id="Livello_1" xmlns="http://www.w3.org/2000/svg" xmlns:xlink="http://www.w3.org/1999/xlink" x="0px" y="0px"
	 width="17.928px" height="13.835px" viewBox="0 0 17.928 13.835" enable-background="new 0 0 17.928 13.835" xml:space="preserve">
<g>
	<path fill="#FFFFFF" d="M5.512,6.917l-5.219-5.21c-0.391-0.39-0.391-1.023-0.001-1.414s1.023-0.391,1.414-0.001L7.634,6.21
		c0.188,0.188,0.293,0.442,0.293,0.708s-0.106,0.52-0.293,0.708l-5.928,5.917C1.511,13.738,1.256,13.835,1,13.835
		c-0.256,0-0.512-0.098-0.708-0.293c-0.39-0.391-0.39-1.024,0.001-1.414L5.512,6.917z"/>
	<path fill="#FFFFFF" d="M10.292,0.293c0.39-0.391,1.023-0.391,1.414-0.001l5.928,5.917c0.188,0.188,0.293,0.442,0.293,0.708
		s-0.106,0.52-0.293,0.708l-5.928,5.917c-0.195,0.195-0.451,0.292-0.707,0.292c-0.256,0-0.512-0.098-0.708-0.293
		c-0.39-0.391-0.39-1.024,0.001-1.414l5.219-5.21l-5.219-5.21C9.903,1.317,9.902,0.684,10.292,0.293z"/>
</g>
</svg>
