<?xml version="1.0" encoding="utf-8"?>
<!-- Generator: Adobe Illustrator 17.0.0, SVG Export Plug-In . SVG Version: 6.00 Build 0)  -->
<!DOCTYPE svg PUBLIC "-//W3C//DTD SVG 1.1//EN" "http://www.w3.org/Graphics/SVG/1.1/DTD/svg11.dtd">
<svg version="1.1" id="Livello_1" xmlns="http://www.w3.org/2000/svg" xmlns:xlink="http://www.w3.org/1999/xlink" x="0px" y="0px"
	 width="17.928px" height="13.835px" viewBox="0 0 17.928 13.835" enable-background="new 0 0 17.928 13.835" xml:space="preserve">
<g>
	<path fill="#FFFFFF" d="M12.416,6.917l5.219-5.21c0.391-0.39,0.391-1.023,0.001-1.414s-1.023-0.391-1.414-0.001L10.293,6.21
		C10.106,6.397,10,6.652,10,6.917s0.106,0.52,0.293,0.708l5.928,5.917c0.195,0.195,0.451,0.292,0.707,0.292
		c0.256,0,0.512-0.098,0.708-0.293c0.39-0.391,0.39-1.024-0.001-1.414L12.416,6.917z"/>
	<path fill="#FFFFFF" d="M7.635,0.293c-0.39-0.391-1.023-0.391-1.414-0.001L0.293,6.21C0.106,6.397,0,6.652,0,6.917
		s0.106,0.52,0.293,0.708l5.928,5.917c0.195,0.195,0.451,0.292,0.707,0.292c0.256,0,0.512-0.098,0.708-0.293
		c0.39-0.391,0.39-1.024-0.001-1.414l-5.219-5.21l5.219-5.21C8.025,1.317,8.026,0.684,7.635,0.293z"/>
</g>
</svg>
