<?xml version="1.0" encoding="utf-8"?>
<!-- Generator: Adobe Illustrator 17.0.0, SVG Export Plug-In . SVG Version: 6.00 Build 0)  -->
<!DOCTYPE svg PUBLIC "-//W3C//DTD SVG 1.1//EN" "http://www.w3.org/Graphics/SVG/1.1/DTD/svg11.dtd">
<svg version="1.1" id="Livello_1" xmlns="http://www.w3.org/2000/svg" xmlns:xlink="http://www.w3.org/1999/xlink" x="0px" y="0px"
	 width="34px" height="34px" viewBox="0 0 34 34" enable-background="new 0 0 34 34" xml:space="preserve">
<path fill="#DDDCDA" d="M17,0C7.611,0,0,7.611,0,17s7.611,17,17,17s17-7.611,17-17S26.389,0,17,0z"/>
<path fill-rule="evenodd" clip-rule="evenodd" fill="#FFFFFF" d="M17,3c7.732,0,14,6.268,14,14s-6.268,14-14,14S3,24.732,3,17
	S9.268,3,17,3z"/>
<path fill="#DDDCDA" d="M20.291,9.908c-1.344,0-2.64,0.422-3.692,1.196c-1.052-0.774-2.348-1.196-3.692-1.196
	c-1.58,0-3.068,0.576-4.189,1.622c-1.137,1.059-1.763,2.472-1.763,3.976c-0.001,1.505,0.625,2.917,1.762,3.978l6.318,5.892
	c0.42,0.392,0.976,0.607,1.564,0.607c0.589,0,1.144-0.216,1.563-0.607c0,0,6.249-5.827,6.318-5.892
	c1.137-1.061,1.763-2.474,1.763-3.978c0-1.504-0.627-2.916-1.763-3.976C23.359,10.484,21.872,9.908,20.291,9.908z M22.983,17.993
	l-6.317,5.891h-0.132l-6.318-5.891c-0.712-0.665-1.105-1.547-1.105-2.485c0-0.938,0.393-1.821,1.105-2.486
	c0.718-0.669,1.676-1.038,2.696-1.038c0.959,0,1.879,0.332,2.59,0.935l1.098,0.931l1.098-0.931c1.469-1.245,3.893-1.195,5.286,0.103
	c0.713,0.665,1.105,1.547,1.105,2.485C24.088,16.445,23.696,17.328,22.983,17.993z"/>
<path fill="#DDDCDA" d="M12.741,12.851c0,0-0.001,0-0.001,0c-1.476,0.001-2.677,1.14-2.677,2.538c0,0.286,0.24,0.519,0.536,0.519
	c0.295,0,0.536-0.233,0.536-0.52c0-0.827,0.721-1.499,1.607-1.499c0.295,0,0.536-0.233,0.536-0.519
	C13.277,13.083,13.038,12.851,12.741,12.851z"/>
</svg>
