<?xml version="1.0" encoding="utf-8"?>

<!-- Generator: Adobe Illustrator 17.0.0, SVG Export Plug-In . SVG Version: 6.00 Build 0)  -->

<!DOCTYPE svg PUBLIC "-//W3C//DTD SVG 1.1//EN" "http://www.w3.org/Graphics/SVG/1.1/DTD/svg11.dtd">

<svg version="1.1" id="Livello_1" xmlns="http://www.w3.org/2000/svg" xmlns:xlink="http://www.w3.org/1999/xlink" x="0px" y="0px"

	 width="34px" height="34px" viewBox="0 0 34 34" enable-background="new 0 0 34 34" xml:space="preserve">

<path fill-rule="evenodd" clip-rule="evenodd" fill="#1a62aa" d="M17,0C7.611,0,0,7.611,0,17s7.611,17,17,17s17-7.611,17-17

	S26.389,0,17,0z"/>

<path fill="#FFFFFF" d="M25,17v-5c0-0.552-0.448-1-1-1h-4c-0.552,0-1,0.448-1,1v4c0,0.552,0.448,1,1,1h2.145

	c-0.213,2.788-1.266,4.582-3.182,5.355l1.289,2.08c1.777-0.801,3.086-1.992,3.926-3.574c0.427-0.812,0.696-2.004,0.822-3.544V17z"/>

<path fill="#FFFFFF" d="M15,17v-5c0-0.552-0.448-1-1-1h-4c-0.552,0-1,0.448-1,1v4c0,0.552,0.448,1,1,1h2.145

	c-0.214,2.788-1.266,4.582-3.182,5.355l1.289,2.08c1.777-0.801,3.086-1.992,3.926-3.574c0.426-0.812,0.696-2.004,0.822-3.544V17z"/>

</svg>

