<?xml version="1.0" encoding="utf-8"?>
<!-- Generator: Adobe Illustrator 17.0.0, SVG Export Plug-In . SVG Version: 6.00 Build 0)  -->
<!DOCTYPE svg PUBLIC "-//W3C//DTD SVG 1.1//EN" "http://www.w3.org/Graphics/SVG/1.1/DTD/svg11.dtd">
<svg version="1.1" id="Livello_1" xmlns="http://www.w3.org/2000/svg" xmlns:xlink="http://www.w3.org/1999/xlink" x="0px" y="0px"
	 width="34px" height="34px" viewBox="0 0 34 34" enable-background="new 0 0 34 34" xml:space="preserve">
<path fill="#004594" d="M17,0C7.611,0,0,7.611,0,17s7.611,17,17,17s17-7.611,17-17S26.389,0,17,0z"/>
<path fill="#FFFFFF" d="M17,3c7.732,0,14,6.268,14,14s-6.268,14-14,14S3,24.732,3,17S9.268,3,17,3z"/>
<path fill="#004594" d="M23.59,21.608c0.545,0.547,0.545,1.433,0,1.981c-0.545,0.546-1.429,0.546-1.974,0l-2.961-2.97
	c-0.075-0.075-0.115-0.169-0.169-0.255c-0.848,0.521-1.836,0.837-2.903,0.837c-3.083,0-5.582-2.507-5.582-5.6s2.499-5.6,5.582-5.6
	s5.583,2.507,5.583,5.6c0,1.049-0.306,2.019-0.806,2.858c0.092,0.056,0.19,0.099,0.269,0.179L23.59,21.608z M15.584,12.801
	c-1.542,0-2.791,1.254-2.791,2.8c0,1.547,1.25,2.8,2.791,2.8c1.542,0,2.791-1.253,2.791-2.8
	C18.375,14.055,17.125,12.801,15.584,12.801z"/>
</svg>
