<?xml version="1.0" encoding="utf-8"?>
<!-- Generator: Adobe Illustrator 17.0.0, SVG Export Plug-In . SVG Version: 6.00 Build 0)  -->
<!DOCTYPE svg PUBLIC "-//W3C//DTD SVG 1.1//EN" "http://www.w3.org/Graphics/SVG/1.1/DTD/svg11.dtd">
<svg version="1.1" id="Livello_1" xmlns="http://www.w3.org/2000/svg" xmlns:xlink="http://www.w3.org/1999/xlink" x="0px" y="0px"
	 width="13px" height="13px" viewBox="0 0 13 13" enable-background="new 0 0 13 13" xml:space="preserve">
<path fill-rule="evenodd" clip-rule="evenodd" fill="#FFFFFF" d="M11.5,5C11.324,5,8,5,8,5s0-3.324,0-3.5C8,0.672,7.328,0,6.5,0
	S5,0.672,5,1.5C5,1.676,5,5,5,5S1.676,5,1.5,5C0.672,5,0,5.672,0,6.5S0.672,8,1.5,8C1.676,8,5,8,5,8s0,3.324,0,3.5
	C5,12.328,5.672,13,6.5,13S8,12.328,8,11.5C8,11.324,8,8,8,8s3.324,0,3.5,0C12.328,8,13,7.328,13,6.5S12.328,5,11.5,5z"/>
</svg>
