<?xml version="1.0" encoding="utf-8"?>
<!-- Generator: Adobe Illustrator 17.0.0, SVG Export Plug-In . SVG Version: 6.00 Build 0)  -->
<!DOCTYPE svg PUBLIC "-//W3C//DTD SVG 1.1//EN" "http://www.w3.org/Graphics/SVG/1.1/DTD/svg11.dtd">
<svg version="1.1" id="Livello_1" xmlns="http://www.w3.org/2000/svg" xmlns:xlink="http://www.w3.org/1999/xlink" x="0px" y="0px"
	 width="22px" height="19px" viewBox="0 0 22 19" enable-background="new 0 0 22 19" xml:space="preserve">
<path fill="#FFF000" d="M21.421,16.167l-8.8-14.96C12.296,0.654,11.675,0.31,11,0.31S9.704,0.654,9.38,1.207l-8.8,14.959
	c-0.341,0.578-0.346,1.301-0.012,1.888C0.903,18.638,1.528,19,2.2,19h17.6c0.671,0,1.297-0.362,1.634-0.948
	C21.767,17.467,21.761,16.744,21.421,16.167z"/>
<g>
	<circle fill-rule="evenodd" clip-rule="evenodd" cx="11" cy="15" r="1"/>
	<path fill-rule="evenodd" clip-rule="evenodd" d="M11.25,6h-0.5C10.336,6,10,6.336,10,6.75c0,0.115,0,0.385,0,1
		c0,1.5,0.719,5.25,1,5.25s1-3.76,1-5.25c0-0.62,0-0.888,0-1C12,6.336,11.664,6,11.25,6z"/>
</g>
</svg>
