<?xml version="1.0" encoding="utf-8"?>
<!-- Generator: Adobe Illustrator 17.0.0, SVG Export Plug-In . SVG Version: 6.00 Build 0)  -->
<!DOCTYPE svg PUBLIC "-//W3C//DTD SVG 1.1//EN" "http://www.w3.org/Graphics/SVG/1.1/DTD/svg11.dtd">
<svg version="1.1" id="Livello_1" xmlns="http://www.w3.org/2000/svg" xmlns:xlink="http://www.w3.org/1999/xlink" x="0px" y="0px"
	 width="31.971px" height="27px" viewBox="0 0 31.971 27" enable-background="new 0 0 31.971 27" xml:space="preserve">
<g>
	<path fill="#FFFFFF" d="M31.195,23.036L6.561,17.36l-0.465-4.867L29.5,1.912c0.503-0.228,0.727-0.82,0.499-1.323
		s-0.82-0.727-1.323-0.499L4.62,10.966c-0.39,0.176-0.624,0.581-0.583,1.006l0.602,6.296c0.041,0.428,0.352,0.783,0.771,0.879
		l3.898,0.898L9.083,21.02c-0.371,1.612,0.638,3.226,2.25,3.598l5.847,1.347c0.222,0.051,0.449,0.077,0.676,0.077
		c1.404,0,2.606-0.957,2.922-2.327l0.224-0.974l9.745,2.245c0.076,0.017,0.151,0.025,0.226,0.025c0.455,0,0.867-0.313,0.974-0.775
		C32.069,23.697,31.733,23.16,31.195,23.036z M18.828,23.265c-0.121,0.523-0.671,0.874-1.199,0.75l-5.847-1.347
		c-0.538-0.124-0.874-0.662-0.75-1.199l0.224-0.974l7.796,1.796L18.828,23.265z"/>
	<path fill="#FFFFFF" d="M1.801,11.308c-0.55,0.053-0.953,0.541-0.9,1.091l0.578,6.044c0.05,0.518,0.485,0.905,0.995,0.905
		c0.032,0,0.064-0.001,0.096-0.004c0.55-0.053,0.953-0.541,0.9-1.091l-0.578-6.044C2.838,11.659,2.346,11.257,1.801,11.308z"/>
</g>
</svg>
