<?xml version="1.0" encoding="utf-8"?>
<!-- Generator: Adobe Illustrator 17.0.0, SVG Export Plug-In . SVG Version: 6.00 Build 0)  -->
<!DOCTYPE svg PUBLIC "-//W3C//DTD SVG 1.1//EN" "http://www.w3.org/Graphics/SVG/1.1/DTD/svg11.dtd">
<svg version="1.1" id="Livello_1" xmlns="http://www.w3.org/2000/svg" xmlns:xlink="http://www.w3.org/1999/xlink" x="0px" y="0px"
	 width="20px" height="20px" viewBox="0 0 20 20" enable-background="new 0 0 20 20" xml:space="preserve">
<path fill-rule="evenodd" clip-rule="evenodd" fill="#6AB5AC" d="M10,0C4.477,0,0,4.477,0,10c0,5.523,4.477,10,10,10s10-4.477,10-10
	C20,4.477,15.523,0,10,0z M14.949,8.276l-5.006,4.886c-0.198,0.194-0.459,0.289-0.719,0.288c-0.263,0.004-0.527-0.09-0.729-0.286
	l-2.86-2.792c-0.395-0.385-0.395-1.01,0-1.396c0.395-0.386,1.035-0.386,1.43,0l2.153,2.102l4.3-4.197
	c0.395-0.385,1.035-0.385,1.43,0C15.344,7.265,15.344,7.89,14.949,8.276z"/>
</svg>
