<?xml version="1.0" encoding="utf-8"?>
<!-- Generator: Adobe Illustrator 17.0.0, SVG Export Plug-In . SVG Version: 6.00 Build 0)  -->
<!DOCTYPE svg PUBLIC "-//W3C//DTD SVG 1.1//EN" "http://www.w3.org/Graphics/SVG/1.1/DTD/svg11.dtd">
<svg version="1.1" id="Livello_1" xmlns="http://www.w3.org/2000/svg" xmlns:xlink="http://www.w3.org/1999/xlink" x="0px" y="0px"
	 width="13px" height="13px" viewBox="0 0 13 13" enable-background="new 0 0 13 13" xml:space="preserve">
<path fill-rule="evenodd" clip-rule="evenodd" fill="#FFFFFF" d="M12,5H8V1c0-0.552-0.448-1-1-1H6C5.448,0,5,0.448,5,1v4H1
	C0.448,5,0,5.448,0,6v1c0,0.552,0.448,1,1,1h4v4c0,0.552,0.448,1,1,1h1c0.552,0,1-0.448,1-1V8h4c0.552,0,1-0.448,1-1V6
	C13,5.448,12.552,5,12,5z"/>
</svg>
