<?xml version="1.0" encoding="utf-8"?>
<!-- Generator: Adobe Illustrator 17.0.0, SVG Export Plug-In . SVG Version: 6.00 Build 0)  -->
<!DOCTYPE svg PUBLIC "-//W3C//DTD SVG 1.1//EN" "http://www.w3.org/Graphics/SVG/1.1/DTD/svg11.dtd">
<svg version="1.1" id="Livello_1" xmlns="http://www.w3.org/2000/svg" xmlns:xlink="http://www.w3.org/1999/xlink" x="0px" y="0px"
	 width="34px" height="34px" viewBox="0 0 34 34" enable-background="new 0 0 34 34" xml:space="preserve">
<path fill-rule="evenodd" clip-rule="evenodd" fill="#FFA600" d="M17,0c9.389,0,17,7.611,17,17s-7.611,17-17,17S0,26.389,0,17
	S7.611,0,17,0z"/>
<g>
	<path fill="#FFFFFF" d="M26.278,12.665C26.092,12.39,25.782,12,25.45,12H10.845l-0.562-1.409C10.135,10.205,9.764,10,9.35,10h-2.8
		c-0.552,0-1,0.448-1,1s0.448,1,1,1h2.113l3.254,8.409C12.065,20.795,12.437,21,12.85,21h9.8c0.409,0,0.776-0.024,0.929-0.404l2.8-7
		C26.502,13.289,26.464,12.939,26.278,12.665z M21.974,19h-8.437l-1.923-5h12.36L21.974,19z"/>
	<circle fill="#FFFFFF" cx="12.85" cy="23.95" r="1.7"/>
	<circle fill="#FFFFFF" cx="22.65" cy="23.95" r="1.7"/>
</g>
</svg>
