<?xml version="1.0" encoding="utf-8"?>
<!-- Generator: Adobe Illustrator 16.0.0, SVG Export Plug-In . SVG Version: 6.00 Build 0)  -->
<!DOCTYPE svg PUBLIC "-//W3C//DTD SVG 1.1//EN" "http://www.w3.org/Graphics/SVG/1.1/DTD/svg11.dtd">
<svg version="1.1" id="Layer_1" xmlns="http://www.w3.org/2000/svg" xmlns:xlink="http://www.w3.org/1999/xlink" x="0px" y="0px"
	 width="16px" height="16px" viewBox="0 0 16 16" enable-background="new 0 0 16 16" xml:space="preserve">
<g>
	<defs>
		<rect id="SVGID_1_" width="16" height="16"/>
	</defs>
	<clipPath id="SVGID_2_">
		<use xlink:href="#SVGID_1_"  overflow="visible"/>
	</clipPath>
	<path clip-path="url(#SVGID_2_)" fill-rule="evenodd" clip-rule="evenodd" fill="#FDA032" d="M3.087,0.325C2.774,0.121,2.402,0,2,0
		C0.895,0,0,0.896,0,2c0,0.402,0.121,0.774,0.325,1.087C1.036,1.979,1.978,1.036,3.087,0.325"/>
	<path clip-path="url(#SVGID_2_)" fill-rule="evenodd" clip-rule="evenodd" fill="#FDA032" d="M8,0C3.582,0,0,3.582,0,8s3.582,8,8,8
		s8-3.582,8-8S12.418,0,8,0 M8,14.588c-3.639,0-6.588-2.949-6.588-6.588S4.361,1.412,8,1.412c3.639,0,6.588,2.949,6.588,6.588
		S11.639,14.588,8,14.588"/>
	<path clip-path="url(#SVGID_2_)" fill-rule="evenodd" clip-rule="evenodd" fill="#FDA032" d="M10.128,5.973L8.109,7.765
		L5.254,4.549c-0.183-0.208-0.5-0.225-0.706-0.042S4.323,5.006,4.506,5.213l3.519,3.964l2.767-2.456
		c0.207-0.184,0.226-0.499,0.042-0.706S10.334,5.79,10.128,5.973"/>
	<path clip-path="url(#SVGID_2_)" fill-rule="evenodd" clip-rule="evenodd" fill="#FDA032" d="M15.676,3.087
		C15.88,2.774,16,2.402,16,2c0-1.105-0.896-2-2-2c-0.401,0-0.773,0.121-1.087,0.325C14.021,1.036,14.965,1.978,15.676,3.087"/>
</g>
</svg>
