<?xml version="1.0" encoding="utf-8"?>
<!-- Generator: Adobe Illustrator 17.0.0, SVG Export Plug-In . SVG Version: 6.00 Build 0)  -->
<!DOCTYPE svg PUBLIC "-//W3C//DTD SVG 1.1//EN" "http://www.w3.org/Graphics/SVG/1.1/DTD/svg11.dtd">
<svg version="1.1" id="Livello_1" xmlns="http://www.w3.org/2000/svg" xmlns:xlink="http://www.w3.org/1999/xlink" x="0px" y="0px"
	 width="22px" height="20px" viewBox="0 0 22 20" enable-background="new 0 0 22 20" xml:space="preserve">
<path fill="#FFFFFF" d="M10.48,0.955c-5.787,0-10.496,3.94-10.496,8.784c0,4.844,4.708,8.784,10.496,8.784
	c1.065,0,2.129-0.14,3.167-0.415l5.303,1.776c0.104,0.035,0.211,0.052,0.318,0.052c0.249,0,0.494-0.093,0.683-0.268
	c0.269-0.251,0.381-0.629,0.292-0.986l-1.018-4.092c1.148-1.443,1.751-3.109,1.751-4.851C20.976,4.895,16.267,0.955,10.48,0.955z
	 M17.379,13.656c-0.224,0.25-0.309,0.595-0.228,0.921l0.699,2.81l-3.858-1.292c-0.103-0.035-0.21-0.052-0.318-0.052
	c-0.095,0-0.189,0.013-0.281,0.04c-0.953,0.279-1.933,0.421-2.913,0.421c-4.68,0-8.487-3.035-8.487-6.765
	c0-3.73,3.807-6.764,8.487-6.764c4.68,0,8.487,3.035,8.487,6.764C18.967,11.143,18.418,12.498,17.379,13.656z"/>
</svg>
