<?xml version="1.0" encoding="utf-8"?>
<!-- Generator: Adobe Illustrator 17.0.0, SVG Export Plug-In . SVG Version: 6.00 Build 0)  -->
<!DOCTYPE svg PUBLIC "-//W3C//DTD SVG 1.1//EN" "http://www.w3.org/Graphics/SVG/1.1/DTD/svg11.dtd">
<svg version="1.1" id="Livello_1" xmlns="http://www.w3.org/2000/svg" xmlns:xlink="http://www.w3.org/1999/xlink" x="0px" y="0px"
	 width="196px" height="196px" viewBox="0 0 196 196" enable-background="new 0 0 196 196" xml:space="preserve">
<path fill-rule="evenodd" clip-rule="evenodd" fill="#DDDCDA" d="M0,0h196v196H0V0z"/>
<path fill="#FFFFFF" d="M160.307,66.502c-0.91-1.079-2.248-1.702-3.657-1.702h-18.528c0.366-4.594,0.569-9.317,0.575-14.155
	c0.004-0.081,0.006-0.163,0.006-0.245c0-2.651-2.138-4.8-4.782-4.8h-0.012H62.09c-2.644,0-4.788,2.149-4.788,4.8
	c0,4.924,0.204,9.728,0.576,14.4H39.35c-1.409,0-2.747,0.623-3.657,1.702c-0.91,1.079-1.299,2.506-1.064,3.899
	c5.134,30.423,25.257,53.726,50.096,59.947c1.383,0.96,2.8,1.772,4.25,2.429c-2.363,6.383-6.782,10.856-11.914,11.186
	c-0.153-0.015-0.318-0.025-0.494-0.025c-3.977,0-7.213,3.244-7.213,7.231c0,3.591,2.621,6.583,6.096,7.124
	c0.324,0.07,0.66,0.107,1.005,0.107h43.092c0.02,0,0.039,0,0.058,0c0.018,0,0.036,0,0.054,0c3.977,0,7.213-3.244,7.213-7.231
	c0-3.987-3.236-7.231-7.213-7.231c-0.229,0-0.438,0.015-0.628,0.039c-5.08-0.287-9.554-4.825-11.962-11.22
	c1.437-0.654,2.842-1.46,4.212-2.412c24.836-6.223,44.957-29.523,50.09-59.944C161.606,69.007,161.217,67.581,160.307,66.502z
	 M133.91,50.4c0,43.962-16.077,79.6-35.91,79.6c-19.833,0-35.91-35.638-35.91-79.6H133.91z M39.35,69.6h18.981
	c2.425,22.408,9.023,41.168,18.093,52.725C57.646,113.59,43.437,93.822,39.35,69.6z M119.399,148.79
	c0.089-0.01,0.167-0.052,0.259-0.052c1.339,0,2.425,1.089,2.425,2.431c0,1.343-1.086,2.431-2.425,2.431
	c-0.04,0-0.073-0.021-0.112-0.023v0.023H76.454v-0.023c-1.284-0.062-2.313-1.106-2.313-2.408c0-1.343,1.086-2.431,2.425-2.431
	c0.071,0,0.131,0.035,0.201,0.041c7.329-0.164,13.635-6.012,16.749-14.474c1.471,0.32,2.965,0.496,4.484,0.496
	c1.518,0,3.013-0.176,4.483-0.496C105.621,142.834,111.998,148.712,119.399,148.79z M119.575,122.327
	c9.07-11.556,15.67-30.317,18.095-52.727h18.98C152.563,93.823,138.353,113.592,119.575,122.327z"/>
</svg>
