<?xml version="1.0" encoding="utf-8"?>
<!-- Generator: Adobe Illustrator 17.0.0, SVG Export Plug-In . SVG Version: 6.00 Build 0)  -->
<!DOCTYPE svg PUBLIC "-//W3C//DTD SVG 1.1//EN" "http://www.w3.org/Graphics/SVG/1.1/DTD/svg11.dtd">
<svg version="1.1" id="Livello_1" xmlns="http://www.w3.org/2000/svg" xmlns:xlink="http://www.w3.org/1999/xlink" x="0px" y="0px"
	 width="16px" height="16px" viewBox="0 0 16 16" enable-background="new 0 0 16 16" xml:space="preserve">
<g>
	<path fill="#AAAAAA" d="M14.945,12.879l-7.474-1.827l-2.473-0.605L3,9.959L2.782,7.434l11.21-4.721
		c0.172-0.073,0.251-0.27,0.175-0.442C14.091,2.1,13.89,2.02,13.718,2.092L2.029,7.033l0.416,3.483l2.398,0.586l-0.182,0.763
		c-0.143,0.602,0.236,1.212,0.846,1.361l2.763,0.675c0.61,0.149,1.221-0.218,1.365-0.82l0.182-0.763l4.974,1.216
		c0.183,0.044,0.366-0.066,0.409-0.246C15.242,13.106,15.128,12.924,14.945,12.879z M8.776,12.756
		c-0.057,0.241-0.302,0.388-0.546,0.328l-2.321-0.567c-0.244-0.06-0.396-0.304-0.338-0.545l0.156-0.654l3.205,0.783L8.776,12.756z"
		/>
	<path fill="#AAAAAA" d="M1.1,6.944C0.913,6.959,0.776,7.122,0.794,7.308l0.305,3.135c0.018,0.185,0.184,0.323,0.372,0.308
		c0.187-0.016,0.324-0.179,0.306-0.364L1.472,7.251C1.454,7.066,1.287,6.928,1.1,6.944z"/>
</g>
</svg>
