<?xml version="1.0" encoding="utf-8"?>

<!-- Generator: Adobe Illustrator 17.0.0, SVG Export Plug-In . SVG Version: 6.00 Build 0)  -->

<!DOCTYPE svg PUBLIC "-//W3C//DTD SVG 1.1//EN" "http://www.w3.org/Graphics/SVG/1.1/DTD/svg11.dtd">

<svg version="1.1" id="Livello_1" xmlns="http://www.w3.org/2000/svg" xmlns:xlink="http://www.w3.org/1999/xlink" x="0px" y="0px"

	 width="16px" height="16px" viewBox="0 0 16 16" enable-background="new 0 0 16 16" xml:space="preserve">

<g>

	<path fill-rule="evenodd" clip-rule="evenodd" fill="#6ab5ac" d="M3.087,0.325C2.774,0.121,2.401,0,2,0C0.895,0,0,0.895,0,2

		c0,0.401,0.121,0.774,0.325,1.087C1.036,1.978,1.978,1.036,3.087,0.325z"/>

	<path fill-rule="evenodd" clip-rule="evenodd" fill="#6ab5ac" d="M8,0C3.582,0,0,3.582,0,8c0,4.418,3.582,8,8,8s8-3.582,8-8

		C16,3.582,12.418,0,8,0z M8,14.588c-3.639,0-6.588-2.95-6.588-6.588S4.361,1.412,8,1.412S14.588,4.361,14.588,8

		S11.639,14.588,8,14.588z"/>

	<path fill-rule="evenodd" clip-rule="evenodd" fill="#6ab5ac" d="M10.128,5.973L8.109,7.765L5.255,4.548

		c-0.184-0.208-0.5-0.225-0.706-0.042c-0.207,0.184-0.225,0.5-0.042,0.706l3.519,3.964l2.767-2.456

		c0.207-0.184,0.225-0.5,0.042-0.706C10.65,5.808,10.334,5.79,10.128,5.973z"/>

	<path fill-rule="evenodd" clip-rule="evenodd" fill="#6ab5ac" d="M15.675,3.087C15.879,2.774,16,2.401,16,2c0-1.105-0.895-2-2-2

		c-0.401,0-0.774,0.121-1.087,0.325C14.022,1.036,14.964,1.978,15.675,3.087z"/>

</g>

</svg>

