<?xml version="1.0" encoding="utf-8"?>
<!-- Generator: Adobe Illustrator 17.0.0, SVG Export Plug-In . SVG Version: 6.00 Build 0)  -->
<!DOCTYPE svg PUBLIC "-//W3C//DTD SVG 1.1//EN" "http://www.w3.org/Graphics/SVG/1.1/DTD/svg11.dtd">
<svg version="1.1" id="Livello_1" xmlns="http://www.w3.org/2000/svg" xmlns:xlink="http://www.w3.org/1999/xlink" x="0px" y="0px"
	 width="196px" height="196px" viewBox="0 0 196 196" enable-background="new 0 0 196 196" xml:space="preserve">
<path fill-rule="evenodd" clip-rule="evenodd" fill="#DDDCDA" d="M0,0h196v196H0V0z"/>
<g>
	<polygon fill-rule="evenodd" clip-rule="evenodd" fill="#FFFFFF" points="109.036,64.147 105.951,60.465 98.599,66.644 
		101.683,70.325 	"/>
	<polygon fill-rule="evenodd" clip-rule="evenodd" fill="#FFFFFF" points="103.121,131.853 106.205,135.535 113.557,129.356 
		110.473,125.675 	"/>
	<polygon fill-rule="evenodd" clip-rule="evenodd" fill="#FFFFFF" points="117.825,119.497 120.91,123.178 128.262,117 
		125.177,113.318 	"/>
	<polygon fill-rule="evenodd" clip-rule="evenodd" fill="#FFFFFF" points="94.331,76.503 91.247,72.822 83.895,79 86.979,82.682 	
		"/>
	<path fill-rule="evenodd" clip-rule="evenodd" fill="#FFFFFF" d="M90.255,142.665c-1.015,0.853-2.529,0.72-3.38-0.296l-4.627-5.522
		l-3.676,3.089l6.169,7.363c1.703,2.033,4.73,2.298,6.761,0.592l7.352-6.178l-3.085-3.682L90.255,142.665z"/>
	<path fill-rule="evenodd" clip-rule="evenodd" fill="#FFFFFF" d="M158.262,85.516l-6.169-7.363l-3.676,3.089l4.627,5.522
		c0.852,1.016,0.719,2.532-0.296,3.385l-5.514,4.634l3.084,3.681l7.352-6.178C159.7,90.581,159.965,87.549,158.262,85.516z"/>
	<path fill-rule="evenodd" clip-rule="evenodd" fill="#FFFFFF" d="M127.416,48.701c-1.704-2.033-4.73-2.298-6.76-0.592l-7.352,6.178
		l3.085,3.681l5.514-4.634c1.015-0.853,2.528-0.72,3.38,0.296l4.627,5.522l3.676-3.089L127.416,48.701z"/>
	<polygon fill-rule="evenodd" clip-rule="evenodd" fill="#FFFFFF" points="132.529,107.14 135.614,110.822 142.966,104.643 
		139.881,100.962 	"/>
	<polygon fill-rule="evenodd" clip-rule="evenodd" fill="#FFFFFF" points="136.078,66.516 142.247,73.88 145.923,70.79 
		139.754,63.427 	"/>
	<path fill-rule="evenodd" clip-rule="evenodd" fill="#FFFFFF" d="M84.594,87.762l-2.193,14.164
		c3.045,0.322,5.991,0.522,8.608,0.519c13.536-0.019,16.542-13.901,16.542-13.901L84.594,87.762z"/>
	<path fill-rule="evenodd" clip-rule="evenodd" fill="#FFFFFF" d="M57.803,85.242c-4.259-5.083-11.826-5.746-16.902-1.481
		c-5.075,4.265-5.737,11.843-1.478,16.927c4.259,5.083,11.826,5.746,16.901,1.481C61.4,97.904,62.062,90.325,57.803,85.242z
		 M51.697,96.647c-2.03,1.706-5.057,1.441-6.761-0.593c-1.704-2.033-1.439-5.064,0.591-6.77c2.03-1.706,5.057-1.441,6.761,0.592
		C53.992,91.909,53.728,94.941,51.697,96.647z"/>
	<path fill-rule="evenodd" clip-rule="evenodd" fill="#FFFFFF" d="M76.31,107.331c-0.425-0.507-0.904-0.937-1.389-1.355
		l7.368-47.584c0,0-14.026,0.731-16.542,13.901c-1.82,9.525-1.747,23.903-1.567,31.155c-1.699,0.43-3.337,1.198-4.77,2.402
		c-5.076,4.265-5.738,11.844-1.479,16.926c4.259,5.083,11.826,5.746,16.902,1.481C79.907,119.992,80.569,112.414,76.31,107.331z
		 M70.205,118.735c-2.03,1.706-5.057,1.441-6.761-0.592c-1.704-2.033-1.439-5.065,0.592-6.771c2.03-1.706,5.057-1.441,6.76,0.592
		C72.5,113.998,72.235,117.029,70.205,118.735z"/>
</g>
</svg>
