<?xml version="1.0" encoding="utf-8"?>
<!-- Generator: Adobe Illustrator 17.0.0, SVG Export Plug-In . SVG Version: 6.00 Build 0)  -->
<!DOCTYPE svg PUBLIC "-//W3C//DTD SVG 1.1//EN" "http://www.w3.org/Graphics/SVG/1.1/DTD/svg11.dtd">
<svg version="1.1" id="Livello_1" xmlns="http://www.w3.org/2000/svg" xmlns:xlink="http://www.w3.org/1999/xlink" x="0px" y="0px"
	 width="9.167px" height="27px" viewBox="0 0 9.167 27" enable-background="new 0 0 9.167 27" xml:space="preserve">
<g>
	<path fill="#FFFFFF" d="M7.342,12.958h-4c-0.552,0-1,0.448-1,1s0.448,1,1,1h4c0.552,0,1-0.448,1-1S7.894,12.958,7.342,12.958z"/>
	<path fill="#FFFFFF" d="M1.714,8.813l3.121-2.502c0.431-0.345,0.5-0.975,0.155-1.406c-0.345-0.431-0.975-0.5-1.406-0.155
		L0.463,7.252c-0.431,0.345-0.5,0.975-0.155,1.406C0.654,9.089,1.283,9.158,1.714,8.813z"/>
	<path fill="#FFFFFF" d="M1.566,19.368c-0.455-0.312-1.078-0.196-1.39,0.259s-0.196,1.078,0.259,1.39l3.299,2.263
		c0.455,0.312,1.078,0.196,1.39-0.259c0.312-0.455,0.196-1.078-0.259-1.39L1.566,19.368z"/>
</g>
</svg>
