<?xml version="1.0" encoding="utf-8"?>
<!-- Generator: Adobe Illustrator 17.0.0, SVG Export Plug-In . SVG Version: 6.00 Build 0)  -->
<!DOCTYPE svg PUBLIC "-//W3C//DTD SVG 1.1//EN" "http://www.w3.org/Graphics/SVG/1.1/DTD/svg11.dtd">
<svg version="1.1" id="Livello_1" xmlns="http://www.w3.org/2000/svg" xmlns:xlink="http://www.w3.org/1999/xlink" x="0px" y="0px"
	 width="196px" height="196px" viewBox="0 0 196 196" enable-background="new 0 0 196 196" xml:space="preserve">
<path fill-rule="evenodd" clip-rule="evenodd" fill="#DDDCDA" d="M0,0h196v196H0V0z"/>
<g>
	<path fill-rule="evenodd" clip-rule="evenodd" fill="#FFFFFF" d="M154.07,117.664c-0.227-1.314-1.493-2.199-2.827-1.976
		l-54.447,9.074l-18.015,3.002l-14.552,2.425l-8.572-16.039L116.236,51.3c0.931-0.966,0.89-2.493-0.092-3.411
		c-0.982-0.918-2.533-0.879-3.464,0.087l-63.124,65.65l12.581,21.807l17.467-2.911l0.96,5.551c0.757,4.38,4.976,7.329,9.423,6.588
		l20.128-3.354c4.447-0.741,7.437-4.892,6.68-9.272l-0.96-5.551l36.231-6.038C153.4,120.224,154.297,118.978,154.07,117.664z
		 M107.544,136.023l-16.908,2.818c-1.779,0.296-3.466-0.883-3.769-2.635l-0.822-4.758l23.349-3.891l0.823,4.758
		C110.519,134.067,109.323,135.727,107.544,136.023z"/>
	<path fill-rule="evenodd" clip-rule="evenodd" fill="#FFFFFF" d="M46.502,116.644c-0.643-1.173-2.129-1.612-3.32-0.98
		c-1.191,0.632-1.635,2.095-0.992,3.268l10.866,19.827c0.643,1.173,2.129,1.612,3.32,0.98c1.191-0.632,1.635-2.095,0.992-3.268
		L46.502,116.644z"/>
</g>
</svg>
