<?xml version="1.0" encoding="utf-8"?>
<!-- Generator: Adobe Illustrator 17.0.0, SVG Export Plug-In . SVG Version: 6.00 Build 0)  -->
<!DOCTYPE svg PUBLIC "-//W3C//DTD SVG 1.1//EN" "http://www.w3.org/Graphics/SVG/1.1/DTD/svg11.dtd">
<svg version="1.1" id="Livello_1" xmlns="http://www.w3.org/2000/svg" xmlns:xlink="http://www.w3.org/1999/xlink" x="0px" y="0px"
	 width="34px" height="34px" viewBox="0 0 34 34" enable-background="new 0 0 34 34" xml:space="preserve">
<g>
	<path fill-rule="evenodd" clip-rule="evenodd" fill="#E00000" d="M17,0c9.389,0,17,7.611,17,17s-7.611,17-17,17S0,26.389,0,17
		S7.611,0,17,0z"/>
	<path fill="#FFFFFF" d="M21,26h-8c-0.477,0-0.887-0.336-0.98-0.804l-3-15C8.911,9.655,9.262,9.128,9.804,9.02
		c0.543-0.108,1.069,0.243,1.177,0.784L13.82,24h6.36L23.02,9.804c0.108-0.542,0.633-0.893,1.177-0.784
		c0.542,0.108,0.893,0.635,0.784,1.177l-3,15C21.887,25.664,21.477,26,21,26z"/>
	<path fill="#FFFFFF" d="M24,11h-3.293H20h-1h-0.707h-2.586H15h-1h-0.707H10v1h1l-0.354,0.354L11.293,13l-0.646,0.646l0.707,0.707
		L12,13.707l1.793,1.793L12,17.293l-0.646-0.646l-0.707,0.707l3.146,3.146l-2.146,2.146l0.707,0.707l2.146-2.146L16.293,23
		l-1.646,1.646l0.707,0.707L17,23.707l1.646,1.646l0.707-0.707L17.707,23l1.793-1.793l2.146,2.146l0.707-0.707L20.207,20.5
		l3.146-3.146l-0.707-0.707L22,17.293L20.207,15.5L22,13.707l0.646,0.646l0.707-0.707L22.707,13l0.646-0.646L23,12h1V11z M17.293,12
		L17,12.293L16.707,12H17.293z M18.793,15.5L17,17.293L15.207,15.5L17,13.707L18.793,15.5z M11.707,12h0.586L12,12.293L11.707,12z
		 M12.707,13l1-1h1.586l1,1L14.5,14.793L12.707,13z M12.707,18l1.793-1.793L16.293,18L14.5,19.793L12.707,18z M17,22.293
		L15.207,20.5L17,18.707l1.793,1.793L17,22.293z M21.293,18L19.5,19.793L17.707,18l1.793-1.793L21.293,18z M19.5,14.793L17.707,13
		l1-1h1.586l1,1L19.5,14.793z M22,12.293L21.707,12h0.586L22,12.293z"/>
</g>
</svg>
