<?xml version="1.0" encoding="utf-8"?>
<!-- Generator: Adobe Illustrator 17.0.0, SVG Export Plug-In . SVG Version: 6.00 Build 0)  -->
<!DOCTYPE svg PUBLIC "-//W3C//DTD SVG 1.1//EN" "http://www.w3.org/Graphics/SVG/1.1/DTD/svg11.dtd">
<svg version="1.1" id="Livello_1" xmlns="http://www.w3.org/2000/svg" xmlns:xlink="http://www.w3.org/1999/xlink" x="0px" y="0px"
	 width="34px" height="34px" viewBox="0 0 34 34" enable-background="new 0 0 34 34" xml:space="preserve">
<g>
	<circle fill-rule="evenodd" clip-rule="evenodd" fill="#0050A0" cx="17" cy="17" r="17"/>
	<circle fill-rule="evenodd" clip-rule="evenodd" fill="#FFFFFF" cx="17" cy="17" r="15"/>
	<path fill="#0050A0" d="M24,21c-0.552,0-1,0.448-1,1v2H11v-2c0-0.552-0.448-1-1-1s-1,0.448-1,1v3c0,0.552,0.448,1,1,1l0,0l0,0h14
		l0,0l0,0c0.552,0,1-0.448,1-1v-3C25,21.448,24.552,21,24,21z"/>
	<path fill="#0050A0" d="M16.297,20.693C16.488,20.881,16.753,21,17.049,21c0.328,0,0.609-0.152,0.801-0.377l4.767-5.177
		c0.382-0.415,0.339-1.047-0.096-1.411c-0.436-0.364-1.099-0.323-1.481,0.092L18,17.429V9c0-0.552-0.448-1-1-1s-1,0.448-1,1v8.322
		l-2.803-3.195c-0.364-0.415-0.996-0.457-1.411-0.092c-0.415,0.364-0.456,0.996-0.092,1.411L16.297,20.693z"/>
</g>
</svg>
