<?xml version="1.0" encoding="utf-8"?>
<!-- Generator: Adobe Illustrator 17.0.0, SVG Export Plug-In . SVG Version: 6.00 Build 0)  -->
<!DOCTYPE svg PUBLIC "-//W3C//DTD SVG 1.1//EN" "http://www.w3.org/Graphics/SVG/1.1/DTD/svg11.dtd">
<svg version="1.1" id="Livello_1" xmlns="http://www.w3.org/2000/svg" xmlns:xlink="http://www.w3.org/1999/xlink" x="0px" y="0px"
	 width="10.749px" height="10.749px" viewBox="0 0 10.749 10.749" enable-background="new 0 0 10.749 10.749" xml:space="preserve">
<path fill="#C70000" d="M8.999,0.301L5.375,3.925L1.75,0.301C1.349-0.1,0.701-0.1,0.3,0.301c-0.4,0.4-0.401,1.049,0,1.45
	l3.624,3.624L0.3,8.999c-0.4,0.4-0.401,1.049,0,1.45s1.049,0.4,1.45,0l3.624-3.625l3.624,3.625c0.401,0.401,1.049,0.4,1.45,0
	c0.4-0.401,0.401-1.049,0-1.45L6.824,5.375l3.624-3.624c0.401-0.401,0.401-1.049,0-1.45C10.048-0.1,9.4-0.1,8.999,0.301z"/>
</svg>
