<?xml version="1.0" encoding="utf-8"?>
<!-- Generator: Adobe Illustrator 17.0.0, SVG Export Plug-In . SVG Version: 6.00 Build 0)  -->
<!DOCTYPE svg PUBLIC "-//W3C//DTD SVG 1.1//EN" "http://www.w3.org/Graphics/SVG/1.1/DTD/svg11.dtd">
<svg version="1.1" id="Livello_1" xmlns="http://www.w3.org/2000/svg" xmlns:xlink="http://www.w3.org/1999/xlink" x="0px" y="0px"
	 width="34px" height="34px" viewBox="0 0 34 34" enable-background="new 0 0 34 34" xml:space="preserve">
<g>
	<path fill-rule="evenodd" clip-rule="evenodd" fill="#FFFFFF" d="M17,0C7.611,0,0,7.611,0,17c0,9.389,7.611,17,17,17
		c9.389,0,17-7.611,17-17C34,7.611,26.389,0,17,0z M17,31C9.268,31,3,24.732,3,17C3,9.268,9.268,3,17,3c7.732,0,14,6.268,14,14
		C31,24.732,24.732,31,17,31z"/>
	<path fill-rule="evenodd" clip-rule="evenodd" fill="#FFFFFF" d="M15,10.938V14h-3v3h3v9.938h4V17h3v-3h-3v-1.062
		c0,0-0.021-0.979,0.469-1.469C19.979,10.958,21,10.937,21,10.937l1,0.001v-3h-4C16.343,7.939,15,9.281,15,10.938z"/>
</g>
</svg>
