<?xml version="1.0" encoding="utf-8"?>
<!-- Generator: Adobe Illustrator 17.0.0, SVG Export Plug-In . SVG Version: 6.00 Build 0)  -->
<!DOCTYPE svg PUBLIC "-//W3C//DTD SVG 1.1//EN" "http://www.w3.org/Graphics/SVG/1.1/DTD/svg11.dtd">
<svg version="1.1" id="Livello_1" xmlns="http://www.w3.org/2000/svg" xmlns:xlink="http://www.w3.org/1999/xlink" x="0px" y="0px"
	 width="196px" height="196px" viewBox="0 0 196 196" enable-background="new 0 0 196 196" xml:space="preserve">
<path fill-rule="evenodd" clip-rule="evenodd" fill="#DDDCDA" d="M0,0h196v196H0V0z"/>
<g>
	<path fill="#FFFFFF" d="M98,63.246c-1.325,0-2.4,1.077-2.4,2.406v67.359c0,1.329,1.075,2.406,2.4,2.406s2.4-1.077,2.4-2.406V65.652
		C100.4,64.323,99.325,63.246,98,63.246z"/>
	<path fill="#FFFFFF" d="M157.512,54.022c-0.489-0.213-12.181-5.216-29.666-5.216c-0.367,0-0.733,0.002-1.104,0.007
		c-14.13,0.171-24.607,3.138-28.677,4.494c-3.991-1.433-14.129-4.5-27.819-4.5c-0.367,0-0.733,0.002-1.104,0.007
		c-17.957,0.217-30.014,4.951-30.519,5.153L35.6,55.172v3.262v81.792v6.967l6.5-2.468c0.114-0.043,12.102-4.492,27.102-4.499
		c15.015,0,26.979,4.455,27.099,4.5l1.697,0.641l1.702-0.642c0.114-0.043,12.102-4.492,27.102-4.499
		c15.015,0,26.979,4.455,27.099,4.5l6.493,2.453l0.006-6.953V58.435v-3.156L157.512,54.022z M155.6,140.227
		c0,0-12.63-4.811-28.76-4.811c-0.013,0-0.027,0-0.04,0c-16.148,0.008-28.8,4.811-28.8,4.811s-12.63-4.811-28.76-4.811
		c-0.013,0-0.027,0-0.04,0c-16.148,0.008-28.8,4.811-28.8,4.811V58.435c0,0,11.527-4.603,28.8-4.811
		c0.352-0.004,0.699-0.006,1.046-0.006C86.935,53.617,98,58.435,98,58.435s11.527-4.603,28.8-4.811
		c0.352-0.004,0.699-0.006,1.046-0.006c16.688,0,27.754,4.818,27.754,4.818V140.227z"/>
</g>
</svg>
