<?xml version="1.0" encoding="utf-8"?>
<!-- Generator: Adobe Illustrator 17.0.0, SVG Export Plug-In . SVG Version: 6.00 Build 0)  -->
<!DOCTYPE svg PUBLIC "-//W3C//DTD SVG 1.1//EN" "http://www.w3.org/Graphics/SVG/1.1/DTD/svg11.dtd">
<svg version="1.1" id="Livello_1" xmlns="http://www.w3.org/2000/svg" xmlns:xlink="http://www.w3.org/1999/xlink" x="0px" y="0px"
	 width="34px" height="34px" viewBox="0 0 34 34" enable-background="new 0 0 34 34" xml:space="preserve">
<g>
	<path fill-rule="evenodd" clip-rule="evenodd" fill="#DDDCDA" d="M17,0c9.389,0,17,7.611,17,17s-7.611,17-17,17S0,26.389,0,17
		S7.611,0,17,0z"/>
	<path fill-rule="evenodd" clip-rule="evenodd" fill="#FFFFFF" d="M17,2c8.284,0,15,6.716,15,15s-6.716,15-15,15S2,25.284,2,17
		S8.716,2,17,2z"/>
	<path fill="#DDDCDA" d="M25,24c-0.552,0-1-0.448-1-1c0-3.86-3.14-7-7-7s-7,3.14-7,7c0,0.552-0.448,1-1,1s-1-0.448-1-1
		c0-4.962,4.038-9,9-9s9,4.038,9,9C26,23.552,25.552,24,25,24z"/>
	<path fill="#DDDCDA" d="M17,16c-2.757,0-5-2.243-5-5s2.243-5,5-5s5,2.243,5,5S19.757,16,17,16z M17,8c-1.654,0-3,1.346-3,3
		s1.346,3,3,3s3-1.346,3-3S18.654,8,17,8z"/>
	<path fill="#DDDCDA" d="M17,27c-0.552,0-1-0.448-1-1v-6c0-0.552,0.448-1,1-1s1,0.448,1,1v6C18,26.552,17.552,27,17,27z"/>
	<path fill="#DDDCDA" d="M20,24h-6c-0.552,0-1-0.448-1-1s0.448-1,1-1h6c0.552,0,1,0.448,1,1S20.552,24,20,24z"/>
</g>
</svg>
