<?xml version="1.0" encoding="utf-8"?>
<!-- Generator: Adobe Illustrator 17.0.0, SVG Export Plug-In . SVG Version: 6.00 Build 0)  -->
<!DOCTYPE svg PUBLIC "-//W3C//DTD SVG 1.1//EN" "http://www.w3.org/Graphics/SVG/1.1/DTD/svg11.dtd">
<svg version="1.1" id="Livello_1" xmlns="http://www.w3.org/2000/svg" xmlns:xlink="http://www.w3.org/1999/xlink" x="0px" y="0px"
	 width="196px" height="196px" viewBox="0 0 196 196" enable-background="new 0 0 196 196" xml:space="preserve">
<path fill-rule="evenodd" clip-rule="evenodd" fill="#DDDCDA" d="M0,0h196v196H0V0z"/>
<path fill="#FFFFFF" d="M134,67.274h-9.524c1.218-1.63,2.241-3.657,2.318-5.923c0.107-3.036-1.409-5.76-4.502-8.094
	c-2.176-1.645-4.687-2.21-7.376-1.669c-6.874,1.405-13.378,10.131-16.289,14.566c-3.219-4.913-10.628-14.766-18.235-14.766
	c-1.963,0-3.79,0.629-5.43,1.869c-3.094,2.334-4.609,5.058-4.504,8.093c0.078,2.268,1.1,4.296,2.318,5.924H62
	c-3.97,0-7.2,3.252-7.2,7.251v16.918c0,3.093,1.968,5.825,4.8,6.835v39.085c0,3.998,3.23,7.25,7.2,7.25h62.4
	c3.97,0,7.2-3.252,7.2-7.25V98.277c2.833-1.01,4.8-3.742,4.8-6.835V74.524C141.2,70.526,137.97,67.274,134,67.274z M115.871,56.326
	c1.309-0.269,2.456-0.022,3.541,0.797c1.761,1.331,2.632,2.695,2.586,4.056c-0.089,2.645-3.158,5.218-4.314,6.095h-13.987
	C106.298,63.585,111.342,57.25,115.871,56.326z M77.839,57.123c0.816-0.615,1.626-0.902,2.552-0.902
	c4.023,0,9.344,5.598,13.185,11.053H79.568c-1.155-0.879-4.224-3.457-4.313-6.096C75.208,59.818,76.079,58.454,77.839,57.123z
	 M83.6,139.779H66.8c-1.323,0-2.4-1.084-2.4-2.417V98.693h19.2V139.779z M83.6,93.859H62c-1.323,0-2.4-1.084-2.4-2.417V74.524
	c0-1.332,1.077-2.417,2.4-2.417h21.6V93.859z M107.6,139.779H88.4V72.107h19.2V139.779z M131.6,137.362
	c0,1.332-1.077,2.417-2.4,2.417h-16.8V98.693h19.2V137.362z M136.4,91.442c0,1.332-1.077,2.417-2.4,2.417h-21.6V72.107H134
	c1.323,0,2.4,1.085,2.4,2.417V91.442z"/>
</svg>
