<?xml version="1.0" encoding="utf-8"?>
<!-- Generator: Adobe Illustrator 17.0.0, SVG Export Plug-In . SVG Version: 6.00 Build 0)  -->
<!DOCTYPE svg PUBLIC "-//W3C//DTD SVG 1.1//EN" "http://www.w3.org/Graphics/SVG/1.1/DTD/svg11.dtd">
<svg version="1.1" id="Livello_1" xmlns="http://www.w3.org/2000/svg" xmlns:xlink="http://www.w3.org/1999/xlink" x="0px" y="0px"
	 width="16px" height="16px" viewBox="0 0 16 16" enable-background="new 0 0 16 16" xml:space="preserve">
<g>
	<path fill="#fff" d="M13,10c-0.552,0-1,0.448-1,1v2c0,0.552-0.449,1-1,1H3c-0.551,0-1-0.448-1-1V5c0-0.552,0.449-1,1-1h2
		c0.552,0,1-0.448,1-1S5.552,2,5,2H3C1.346,2,0,3.346,0,5v8c0,1.654,1.346,3,3,3h8c1.654,0,3-1.346,3-3v-2
		C14,10.448,13.552,10,13,10z"/>
	<path fill="#fff" d="M13,0H8C7.448,0,7,0.448,7,1s0.448,1,1,1h5c-0.256,0-0.512,0.098-0.707,0.293l-6,6
		c-0.391,0.39-0.391,1.024,0,1.414C6.488,9.902,6.744,10,7,10s0.512-0.098,0.707-0.293l6-6C13.902,3.512,14,3.256,14,3v5
		c0,0.552,0.448,1,1,1s1-0.448,1-1V3C16,1.346,14.654,0,13,0z"/>
</g>
</svg>
