<?xml version="1.0" encoding="utf-8"?>
<!-- Generator: Adobe Illustrator 17.0.0, SVG Export Plug-In . SVG Version: 6.00 Build 0)  -->
<!DOCTYPE svg PUBLIC "-//W3C//DTD SVG 1.1//EN" "http://www.w3.org/Graphics/SVG/1.1/DTD/svg11.dtd">
<svg version="1.1" id="Livello_1" xmlns="http://www.w3.org/2000/svg" xmlns:xlink="http://www.w3.org/1999/xlink" x="0px" y="0px"
	 width="7.304px" height="25.807px" viewBox="0 0 7.304 25.807" enable-background="new 0 0 7.304 25.807" xml:space="preserve">
<g>
	<path fill-rule="evenodd" clip-rule="evenodd" fill="#BBBBBB" d="M6.654,12.32h-3.9c-0.359,0-0.65,0.293-0.65,0.656
		c0,0.362,0.291,0.656,0.65,0.656h3.9c0.359,0,0.65-0.294,0.65-0.656C7.304,12.614,7.013,12.32,6.654,12.32z"/>
	<path fill-rule="evenodd" clip-rule="evenodd" fill="#BBBBBB" d="M1.188,3.905l2.753-2.787c0.253-0.257,0.253-0.672-0.002-0.927
		C3.685-0.064,3.273-0.064,3.02,0.193L0.267,2.98C0.014,3.236,0.014,3.651,0.269,3.907C0.523,4.162,0.935,4.162,1.188,3.905z"/>
	<path fill-rule="evenodd" clip-rule="evenodd" fill="#BBBBBB" d="M1.094,21.971c-0.25-0.252-0.655-0.253-0.905-0.002
		s-0.251,0.659-0.002,0.911l2.711,2.738c0.25,0.252,0.655,0.252,0.906,0.002c0.25-0.251,0.251-0.659,0.002-0.911L1.094,21.971z"/>
</g>
</svg>
