<?xml version="1.0" encoding="utf-8"?>
<!-- Generator: Adobe Illustrator 17.0.0, SVG Export Plug-In . SVG Version: 6.00 Build 0)  -->
<!DOCTYPE svg PUBLIC "-//W3C//DTD SVG 1.1//EN" "http://www.w3.org/Graphics/SVG/1.1/DTD/svg11.dtd">
<svg version="1.1" id="Livello_1" xmlns="http://www.w3.org/2000/svg" xmlns:xlink="http://www.w3.org/1999/xlink" x="0px" y="0px"
	 width="16px" height="16px" viewBox="0 0 16 16" enable-background="new 0 0 16 16" xml:space="preserve">
<g>
	<path fill-rule="evenodd" clip-rule="evenodd" fill="#DDDCDA" d="M15.392,12.744l-7.474-1.827l-2.473-0.605L3.448,9.824L3.229,7.3
		l11.21-4.721c0.172-0.073,0.251-0.27,0.175-0.442c-0.076-0.172-0.276-0.252-0.449-0.179L2.476,6.898l0.416,3.483l2.398,0.586
		L5.108,11.73c-0.143,0.602,0.236,1.212,0.846,1.361l2.763,0.675c0.61,0.149,1.221-0.218,1.365-0.82l0.182-0.763l4.974,1.216
		c0.183,0.044,0.366-0.066,0.409-0.246C15.689,12.972,15.575,12.789,15.392,12.744z M9.223,12.621
		c-0.057,0.241-0.302,0.388-0.546,0.328l-2.321-0.567c-0.244-0.06-0.396-0.304-0.338-0.545l0.156-0.654l3.205,0.783L9.223,12.621z"
		/>
	<path fill-rule="evenodd" clip-rule="evenodd" fill="#DDDCDA" d="M1.547,6.809C1.36,6.825,1.223,6.988,1.241,7.173l0.305,3.135
		c0.018,0.185,0.184,0.323,0.372,0.308c0.187-0.016,0.324-0.179,0.306-0.364L1.919,7.117C1.901,6.932,1.735,6.794,1.547,6.809z"/>
</g>
</svg>
