<?xml version="1.0" encoding="utf-8"?>

<!-- Generator: Adobe Illustrator 17.0.0, SVG Export Plug-In . SVG Version: 6.00 Build 0)  -->

<!DOCTYPE svg PUBLIC "-//W3C//DTD SVG 1.1//EN" "http://www.w3.org/Graphics/SVG/1.1/DTD/svg11.dtd">

<svg version="1.1" id="Livello_1" xmlns="http://www.w3.org/2000/svg" xmlns:xlink="http://www.w3.org/1999/xlink" x="0px" y="0px"

	 width="76px" height="85px" viewBox="0 0 76 85" enable-background="new 0 0 76 85" xml:space="preserve">

<g>

	<path fill="#FFFFFF" d="M64.377,20.052c-1.481-3.696-4.672-9.795-10.903-14.866c-1.154-0.942-2.609-1.461-4.096-1.461

		c-1.578,0-3.07,0.563-4.24,1.574c-2.568-1.388-5.082-2.366-7.524-2.927c-0.485-0.114-0.983-0.172-1.48-0.172

		c-1.982,0-3.833,0.893-5.086,2.464c-0.589,0.744-0.999,1.585-1.223,2.466c-2.66-0.08-5.064,0.356-7.157,1.292

		c-5.408,2.425-9.176,6.423-10.553,11.121c-6.833,6.924-10.726,16.394-10.726,26.2c0,20.435,16.423,37.06,36.61,37.06

		c20.188,0,36.612-16.625,36.612-37.061C74.609,36.075,70.983,26.992,64.377,20.052z"/>

	<path fill="#0050a0" d="M60.48,21.984c-1.007-2.753-3.791-8.904-9.88-13.86c-0.863-0.705-2.127-0.56-2.821,0.316

		c-0.694,0.875-0.557,2.157,0.307,2.861c1.539,1.249,2.826,2.601,3.918,3.94c-4.074-3.648-9.655-7.706-15.452-9.038

		c-0.747-0.176-1.525,0.103-2.007,0.707c-0.48,0.606-0.58,1.436-0.256,2.138l1.425,3.103c-1.945-0.585-4.268-1.079-6.532-1.079

		c-1.776,0-3.36,0.306-4.704,0.908c-4.679,2.098-7.638,5.472-8.322,9.327C9.826,27.254,5.86,35.753,5.86,45.194

		c0,17.983,14.375,32.56,32.111,32.56c17.733,0,32.112-14.578,32.112-32.56C70.081,36.106,66.402,27.891,60.48,21.984"/>

	<path fill="#FFFFFF" d="M37.97,72.326c-14.755,0-26.759-12.173-26.759-27.134c0-6.674,2.395-12.781,6.352-17.51

		c1.727,2.031,4.837,3.151,9.05,3.151c1.238,0,2.111-0.103,2.148-0.108c0.97-0.115,1.719-0.924,1.769-1.915

		c0.05-0.991-0.611-1.874-1.566-2.09c-0.003,0-0.299-0.125-0.441-0.384c-0.217-0.394-0.163-1.143,0.148-2.053

		c0.333-0.977,1.348-3.942,8.067-3.942c7.272,0,16.48,3.498,18.783,4.42c5.629,4.978,9.207,12.282,9.207,20.43

		C64.73,60.155,52.725,72.326,37.97,72.326"/>

	<g>

		<path fill-rule="evenodd" clip-rule="evenodd" fill="#0050a0" d="M37.97,66.901c6.237,0,11.237-3.943,13.38-9.497H24.591

			C26.734,62.958,31.73,66.901,37.97,66.901z"/>

		<path fill-rule="evenodd" clip-rule="evenodd" fill="#0050a0" d="M57.071,39.939c-4.18-4.322-10.956-4.322-15.136,0

			c0.002,0.003-0.503,0.47-0.503,1.339c0,1.091,0.861,1.975,1.924,1.975c1.003,0.002,1.289-0.512,1.291-0.51

			c2.682-2.774,7.031-2.774,9.714,0c0.003-0.003,0.495,0.642,1.428,0.644c1.062,0,1.924-0.885,1.924-1.976

			C57.712,40.486,57.069,39.941,57.071,39.939z"/>

		<path fill-rule="evenodd" clip-rule="evenodd" fill="#0050a0" d="M30.68,42.743c0.003-0.003,0.495,0.642,1.428,0.644

			c1.062,0,1.924-0.885,1.924-1.976c0.001-0.925-0.642-1.47-0.64-1.472c-4.18-4.322-10.956-4.322-15.136,0

			c0.003,0.003-0.503,0.47-0.503,1.339c0,1.091,0.861,1.975,1.924,1.975c1.003,0.002,1.289-0.512,1.291-0.51

			C23.648,39.969,27.997,39.969,30.68,42.743z"/>

	</g>

</g>

</svg>

