<?xml version="1.0" encoding="utf-8"?>
<!-- Generator: Adobe Illustrator 17.0.0, SVG Export Plug-In . SVG Version: 6.00 Build 0)  -->
<!DOCTYPE svg PUBLIC "-//W3C//DTD SVG 1.1//EN" "http://www.w3.org/Graphics/SVG/1.1/DTD/svg11.dtd">
<svg version="1.1" id="Livello_1" xmlns="http://www.w3.org/2000/svg" xmlns:xlink="http://www.w3.org/1999/xlink" x="0px" y="0px"
	 width="26.243px" height="26.243px" viewBox="0 0 26.243 26.243" enable-background="new 0 0 26.243 26.243" xml:space="preserve">
<g>
	<path fill-rule="evenodd" clip-rule="evenodd" fill="#FFFFFF" d="M11,10.243c0.604,0,1.175,0.124,1.71,0.32l1.524-1.524
		C13.267,8.533,12.168,8.243,11,8.243c-3.866,0-7,3.134-7,7c0,3.866,3.134,7,7,7c3.866,0,7-3.134,7-7
		c0-1.168-0.29-2.266-0.796-3.234l-1.524,1.524c0.196,0.536,0.32,1.107,0.32,1.71c0,2.761-2.239,5-5,5c-2.761,0-5-2.239-5-5
		S8.239,10.243,11,10.243z"/>
	<path fill-rule="evenodd" clip-rule="evenodd" fill="#FFFFFF" d="M22.759,3.546l-0.062-0.062L22,0l-2.828,2.829l0.471,2.357
		l-8.132,8.131c-0.164-0.043-0.333-0.074-0.511-0.074c-1.105,0-2,0.896-2,2s0.896,2,2,2c1.104,0,2-0.896,2-2
		c0-0.178-0.031-0.347-0.074-0.511L21.057,6.6l2.357,0.471l2.828-2.828L22.759,3.546z"/>
	<path fill-rule="evenodd" clip-rule="evenodd" fill="#FFFFFF" d="M18.667,10.546C19.507,11.915,20,13.519,20,15.243
		c0,4.97-4.029,9-9,9c-4.971,0-9-4.03-9-9c0-4.971,4.029-9,9-9c1.724,0,3.328,0.493,4.697,1.333l1.454-1.454
		C15.395,4.936,13.279,4.243,11,4.243c-6.075,0-11,4.925-11,11c0,6.075,4.925,11,11,11c6.075,0,11-4.925,11-11
		c0-2.279-0.693-4.395-1.879-6.151L18.667,10.546z"/>
</g>
</svg>
