<?xml version="1.0" encoding="utf-8"?>
<!-- Generator: Adobe Illustrator 17.0.0, SVG Export Plug-In . SVG Version: 6.00 Build 0)  -->
<!DOCTYPE svg PUBLIC "-//W3C//DTD SVG 1.1//EN" "http://www.w3.org/Graphics/SVG/1.1/DTD/svg11.dtd">
<svg version="1.1" id="Livello_1" xmlns="http://www.w3.org/2000/svg" xmlns:xlink="http://www.w3.org/1999/xlink" x="0px" y="0px"
	 width="34px" height="34px" viewBox="0 0 34 34" enable-background="new 0 0 34 34" xml:space="preserve">
<g>
	<path fill-rule="evenodd" clip-rule="evenodd" fill="#0050A0" d="M17,0c9.389,0,17,7.611,17,17s-7.611,17-17,17S0,26.389,0,17
		S7.611,0,17,0z"/>
	<path fill-rule="evenodd" clip-rule="evenodd" fill="#FFFFFF" d="M17,2c8.284,0,15,6.716,15,15s-6.716,15-15,15S2,25.284,2,17
		S8.716,2,17,2z"/>
	<g>
		<path fill="#0050A0" d="M15,23h4c0.552,0,1-0.448,1-1s-0.448-1-1-1h-4c-0.552,0-1,0.448-1,1S14.448,23,15,23z"/>
		<circle fill="#0050A0" cx="23" cy="15" r="1"/>
		<path fill="#0050A0" d="M24,11v-1c0-1.654-1.346-3-3-3h-8c-1.654,0-3,1.346-3,3v1c-1.654,0-3,1.346-3,3v5c0,1.654,1.346,3,3,3h1v2
			c0,1.654,1.346,3,3,3h6c1.654,0,3-1.346,3-3v-2h1c1.654,0,3-1.346,3-3v-5C27,12.346,25.654,11,24,11z M12,10c0-0.551,0.449-1,1-1
			h8c0.551,0,1,0.449,1,1v1H12V10z M21,24c0,0.551-0.449,1-1,1h-6c-0.551,0-1-0.449-1-1v-5h8V24z M25,19c0,0.551-0.449,1-1,1h-1v-1
			c0.552,0,1-0.448,1-1s-0.448-1-1-1H11c-0.552,0-1,0.448-1,1s0.448,1,1,1v1h-1c-0.551,0-1-0.449-1-1v-5c0-0.551,0.449-1,1-1h14
			c0.551,0,1,0.449,1,1V19z"/>
	</g>
</g>
</svg>
