<?xml version="1.0" encoding="utf-8"?>
<!-- Generator: Adobe Illustrator 17.0.0, SVG Export Plug-In . SVG Version: 6.00 Build 0)  -->
<!DOCTYPE svg PUBLIC "-//W3C//DTD SVG 1.1//EN" "http://www.w3.org/Graphics/SVG/1.1/DTD/svg11.dtd">
<svg version="1.1" id="Livello_1" xmlns="http://www.w3.org/2000/svg" xmlns:xlink="http://www.w3.org/1999/xlink" x="0px" y="0px"
	 width="34px" height="34px" viewBox="0 0 34 34" enable-background="new 0 0 34 34" xml:space="preserve">
<path fill-rule="evenodd" clip-rule="evenodd" fill="#1a62aa" d="M17,0c9.389,0,17,7.611,17,17c0,9.389-7.611,17-17,17
	C7.611,34,0,26.389,0,17C0,7.611,7.611,0,17,0z"/>
<g>
	<circle fill="#FFFFFF" cx="23" cy="15" r="1"/>
	<path fill="#FFFFFF" d="M15,23h4c0.552,0,1-0.448,1-1s-0.448-1-1-1h-4c-0.552,0-1,0.448-1,1S14.448,23,15,23z"/>
	<path fill="#FFFFFF" d="M24.48,11.045H24V9c0-1.104-0.896-2-2-2H12c-1.105,0-2,0.896-2,2v2.045H9.52c-1.445,0-2.62,1.175-2.62,2.62
		v5.67c0,1.445,1.175,2.62,2.62,2.62H11v2.251c0,1.529,1.196,2.773,2.667,2.773h6.667c1.47,0,2.667-1.244,2.667-2.773v-2.251h1.48
		c1.445,0,2.62-1.175,2.62-2.62v-5.67C27.1,12.22,25.925,11.045,24.48,11.045z M12,10c0-0.552,0.448-1,1-1h8c0.552,0,1,0.448,1,1v1
		H12V10z M21,24.206c0,0.426-0.299,0.773-0.667,0.773h-6.667c-0.368,0-0.667-0.347-0.667-0.773V19h8V24.206z M25.1,19.335
		c0,0.342-0.278,0.62-0.62,0.62H23V19c0.552,0,1-0.448,1-1s-0.448-1-1-1H11c-0.552,0-1,0.448-1,1s0.448,1,1,1v0.955H9.52
		c-0.342,0-0.62-0.278-0.62-0.62v-5.67c0-0.342,0.278-0.62,0.62-0.62h14.96c0.342,0,0.62,0.278,0.62,0.62V19.335z"/>
</g>
</svg>
