<?xml version="1.0" encoding="utf-8"?>
<!-- Generator: Adobe Illustrator 17.0.0, SVG Export Plug-In . SVG Version: 6.00 Build 0)  -->
<!DOCTYPE svg PUBLIC "-//W3C//DTD SVG 1.1//EN" "http://www.w3.org/Graphics/SVG/1.1/DTD/svg11.dtd">
<svg version="1.1" id="Livello_1" xmlns="http://www.w3.org/2000/svg" xmlns:xlink="http://www.w3.org/1999/xlink" x="0px" y="0px"
	 width="196px" height="196px" viewBox="0 0 196 196" enable-background="new 0 0 196 196" xml:space="preserve">
<path fill-rule="evenodd" clip-rule="evenodd" fill="#DDDCDA" d="M0,0h196v196H0V0z"/>
<path fill-rule="evenodd" clip-rule="evenodd" fill="#FFFFFF" d="M152.65,97.732l-13.074-14.755
	c2.745-3.303,9.256-11.135,12.444-14.97c2.083-2.481-0.942-3.72-0.942-3.72l-36.056-19.962c0,0-2.548-1.79-4.477,0.32
	c-1.584,1.733-9.916,11.118-12.842,14.415l-11.55-13.991c0,0-1.53-2.527-4.708-0.781c-3.178,1.745-35.682,19.24-37.58,20.197
	c-2.276,1.147-0.549,3.588-0.549,3.588l12.852,15.032c-2.882,3.373-9.229,10.802-12.376,14.484c-2.105,2.44,0.889,3.712,0.889,3.712
	l12.859,7.336c0,4.277,0,19.88,0,21.334c0,1.687,0.66,1.795,0.66,1.795s36.126,19.291,37.821,20.231
	c1.695,0.941,3.145-0.132,3.145-0.132l37.873-20.134c0,0,1.268-0.566,1.268-1.76c0-1,0-16.049,0-20.913
	c7.019-3.933,13.072-7.315,13.856-7.728C154.421,100.141,152.65,97.732,152.65,97.732z M112.836,49l33.55,18.063l-11.373,13.681
	l-33.789-18.706L112.836,49z M48.843,67.062L83.014,49l11.029,13.36L60.636,80.855L48.843,67.062z M49.389,98.602l11.121-13.015
	l33.711,18.663l-11.673,12.754L49.389,98.602z M95.44,146.743l-33.549-17.946v-17.68l18.42,10.507c0,0,2.513,1.813,4.46-0.26
	c1.283-1.365,6.95-7.569,10.669-11.645V146.743z M97.925,101.319L64.997,83.256l32.928-17.44l32.928,17.44L97.925,101.319z
	 M133.96,128.433l-34.171,18.166v-37.305l10.437,12.197c0,0,1.574,2.499,4.721,0.698c1.569-0.898,10.359-5.841,19.012-10.695
	V128.433z M113.296,117.506l-11.447-13.377l33.531-18.563l11.762,13.274L113.296,117.506z"/>
</svg>
