<?xml version="1.0" encoding="utf-8"?>
<!-- Generator: Adobe Illustrator 17.0.0, SVG Export Plug-In . SVG Version: 6.00 Build 0)  -->
<!DOCTYPE svg PUBLIC "-//W3C//DTD SVG 1.1//EN" "http://www.w3.org/Graphics/SVG/1.1/DTD/svg11.dtd">
<svg version="1.1" id="Livello_1" xmlns="http://www.w3.org/2000/svg" xmlns:xlink="http://www.w3.org/1999/xlink" x="0px" y="0px"
	 width="29.808px" height="24.624px" viewBox="0 0 29.808 24.624" enable-background="new 0 0 29.808 24.624" xml:space="preserve">
<path fill="#FFFFFF" d="M14.256,11.664c-0.716,0-1.296,0.58-1.296,1.296v6.48c0,0.716,0.58,1.296,1.296,1.296h9.72
	c0.716,0,1.296-0.58,1.296-1.296v-6.48c0-0.716-0.58-1.296-1.296-1.296H14.256z M23.976,18.792c0,0.358-0.29,0.648-0.648,0.648
	h-8.424c-0.358,0-0.648-0.29-0.648-0.648v-5.184c0-0.358,0.29-0.648,0.648-0.648h8.424c0.358,0,0.648,0.29,0.648,0.648V18.792z"/>
<path fill="#FFFFFF" d="M22.222,16.39l-1.296,1.296c-0.127,0.126-0.19,0.292-0.19,0.458c0,0.166,0.063,0.332,0.19,0.458
	c0.127,0.127,0.292,0.19,0.458,0.19c0.166,0,0.332-0.063,0.458-0.19l1.296-1.296c0.127-0.126,0.19-0.292,0.19-0.458
	s-0.063-0.332-0.19-0.458C22.885,16.137,22.475,16.137,22.222,16.39z"/>
<path fill="#FFFFFF" d="M22.222,13.798l-3.888,3.888c-0.127,0.126-0.19,0.292-0.19,0.458c0,0.166,0.063,0.332,0.19,0.458
	c0.126,0.127,0.292,0.19,0.458,0.19c0.166,0,0.332-0.063,0.458-0.19l3.888-3.888c0.127-0.127,0.19-0.292,0.19-0.458
	s-0.063-0.332-0.19-0.458C22.885,13.545,22.475,13.545,22.222,13.798z"/>
<path fill="#FFFFFF" d="M25.272,0h-1.296h-2.592h-2.592H16.2h-2.592h-2.592H8.424H5.832H4.536L0,6.48v0.648
	c0,1.328,0.801,2.466,1.944,2.966v13.233c0,0.716,0.58,1.296,1.296,1.296h2.592V13.608c0-0.358,0.29-0.648,0.648-0.648h3.24
	c0.358,0,0.648,0.29,0.648,0.648v11.016h16.2c0.716,0,1.296-0.58,1.296-1.296V10.094c1.143-0.5,1.944-1.639,1.944-2.966V6.48
	L25.272,0z M19.181,1.296l1.555,5.184v0.648c0,1.074-0.87,1.944-1.944,1.944s-1.944-0.87-1.944-1.944V6.48L16.33,1.296H19.181z
	 M9.072,6.48l1.555-5.184h2.851L12.96,6.48v0.648c0,1.074-0.87,1.944-1.944,1.944s-1.944-0.87-1.944-1.944V6.48z M1.296,7.128V6.48
	l3.629-5.184h2.851L5.184,6.48v0.648c0,1.074-0.87,1.944-1.944,1.944S1.296,8.202,1.296,7.128z M26.568,22.68
	c0,0.358-0.29,0.648-0.648,0.648H11.664V12.96c0-0.716-0.58-1.296-1.296-1.296H5.832c-0.716,0-1.296,0.58-1.296,1.296v10.368H3.888
	c-0.358,0-0.648-0.29-0.648-0.648V10.368c0.874,0,1.663-0.35,2.246-0.912c0.344,0.546,0.949,0.912,1.642,0.912
	s1.298-0.366,1.642-0.912c0.583,0.562,1.372,0.912,2.246,0.912c0.874,0,1.663-0.35,2.246-0.912c0.344,0.546,0.948,0.912,1.642,0.912
	s1.298-0.366,1.642-0.912c0.583,0.562,1.372,0.912,2.246,0.912s1.663-0.35,2.246-0.912c0.344,0.546,0.949,0.912,1.642,0.912
	s1.298-0.366,1.642-0.912c0.583,0.562,1.372,0.912,2.246,0.912V22.68z M28.512,7.128c0,1.074-0.87,1.944-1.944,1.944
	s-1.944-0.87-1.944-1.944V6.48l-2.592-5.184h2.851l3.629,5.184V7.128z"/>
</svg>
