<?xml version="1.0" encoding="utf-8"?>
<!-- Generator: Adobe Illustrator 17.0.0, SVG Export Plug-In . SVG Version: 6.00 Build 0)  -->
<!DOCTYPE svg PUBLIC "-//W3C//DTD SVG 1.1//EN" "http://www.w3.org/Graphics/SVG/1.1/DTD/svg11.dtd">
<svg version="1.1" id="Livello_1" xmlns="http://www.w3.org/2000/svg" xmlns:xlink="http://www.w3.org/1999/xlink" x="0px" y="0px"
	 width="22px" height="21px" viewBox="0 0 22 21" enable-background="new 0 0 22 21" xml:space="preserve">
<g>
	<path fill-rule="evenodd" clip-rule="evenodd" fill="#6AB5AC" d="M13,0v10.021h4.4v0.478c0,0.775-0.046,1.476-0.14,2.104
		c-0.093,0.627-0.273,1.189-0.54,1.683c-0.266,0.494-0.64,0.922-1.12,1.283c-0.48,0.36-1.106,0.661-1.88,0.902V21
		c2.56-0.588,4.58-1.784,6.06-3.588c1.48-1.804,2.22-4.108,2.22-6.914v-0.478V0.238V0H13z"/>
	<path fill-rule="evenodd" clip-rule="evenodd" fill="#6AB5AC" d="M0,10.021h4.4v0.478c0,0.775-0.046,1.476-0.14,2.104
		c-0.093,0.627-0.273,1.189-0.54,1.683c-0.266,0.494-0.64,0.922-1.12,1.283c-0.48,0.36-1.106,0.661-1.88,0.902V21
		c2.56-0.588,4.58-1.784,6.06-3.588C8.26,15.609,9,13.304,9,10.499v-0.478V0.238V0H0V10.021z"/>
</g>
</svg>
