<?xml version="1.0" encoding="utf-8"?>
<!-- Generator: Adobe Illustrator 17.0.0, SVG Export Plug-In . SVG Version: 6.00 Build 0)  -->
<!DOCTYPE svg PUBLIC "-//W3C//DTD SVG 1.1//EN" "http://www.w3.org/Graphics/SVG/1.1/DTD/svg11.dtd">
<svg version="1.1" id="Livello_1" xmlns="http://www.w3.org/2000/svg" xmlns:xlink="http://www.w3.org/1999/xlink" x="0px" y="0px"
	 width="31.97px" height="26px" viewBox="0 0 31.97 26" enable-background="new 0 0 31.97 26" xml:space="preserve">
<path fill="#FFFFFF" d="M7.992,0H3.996C1.788,0,0,1.79,0,4v4c0,2.21,1.788,4,3.996,4h3.986c0.002,0.59,0.006,1.252,0.01,2.01
	c0.024,4.776-5.065,8.298-5.111,8.332c-0.915,0.616-1.159,1.86-0.542,2.776C2.723,25.69,3.355,26,3.998,26
	c0.384,0,0.771-0.11,1.113-0.34c0.284-0.19,6.912-4.734,6.878-11.668c-0.022-4.59-0.01-5.616-0.004-5.846
	c0.002-0.018-0.004-0.038-0.004-0.056c0-0.032,0.008-0.06,0.008-0.09V4C11.989,1.79,10.2,0,7.992,0z"/>
<path fill="#FFFFFF" d="M31.97,4c0-2.21-1.788-4-3.996-4h-3.996c-2.208,0-3.996,1.79-3.996,4v4c0,2.21,1.788,4,3.996,4h3.986
	c0.002,0.59,0.006,1.252,0.01,2.01c0.024,4.776-5.065,8.298-5.111,8.332c-0.915,0.616-1.159,1.86-0.542,2.776
	C22.705,25.69,23.336,26,23.979,26c0.384,0,0.771-0.11,1.113-0.34c0.284-0.19,6.911-4.734,6.877-11.668
	c-0.022-4.59-0.01-5.616-0.004-5.846c0.002-0.018-0.004-0.038-0.004-0.056c0-0.032,0.008-0.06,0.008-0.09V4z"/>
</svg>
