<?xml version="1.0" encoding="utf-8"?>
<!-- Generator: Adobe Illustrator 17.0.0, SVG Export Plug-In . SVG Version: 6.00 Build 0)  -->
<!DOCTYPE svg PUBLIC "-//W3C//DTD SVG 1.1//EN" "http://www.w3.org/Graphics/SVG/1.1/DTD/svg11.dtd">
<svg version="1.1" id="Livello_1" xmlns="http://www.w3.org/2000/svg" xmlns:xlink="http://www.w3.org/1999/xlink" x="0px" y="0px"
	 width="31.966px" height="26px" viewBox="0 0 31.966 26" enable-background="new 0 0 31.966 26" xml:space="preserve">
<path fill="#FFFFFF" d="M23.975,26h3.996c2.208,0,3.996-1.79,3.996-4v-4c0-2.21-1.788-4-3.996-4h-3.986
	c-0.002-0.59-0.006-1.252-0.01-2.01c-0.024-4.776,5.065-8.298,5.111-8.332c0.915-0.616,1.159-1.86,0.542-2.776
	C29.243,0.31,28.612,0,27.968,0c-0.384,0-0.771,0.11-1.113,0.34c-0.284,0.19-6.911,4.734-6.877,11.668
	c0.022,4.59,0.01,5.616,0.004,5.846c-0.002,0.018,0.004,0.038,0.004,0.056c0,0.032-0.008,0.06-0.008,0.09v4
	C19.979,24.21,21.767,26,23.975,26z"/>
<path fill="#FFFFFF" d="M0,22c0,2.21,1.788,4,3.996,4h3.996c2.208,0,3.996-1.79,3.996-4v-4c0-2.21-1.788-4-3.996-4H4.006
	C4.004,13.41,4,12.748,3.996,11.99C3.972,7.214,9.06,3.692,9.106,3.658c0.915-0.616,1.159-1.86,0.541-2.776
	C9.264,0.31,8.633,0,7.99,0C7.606,0,7.218,0.11,6.877,0.34C6.593,0.53-0.034,5.074,0,12.008c0.022,4.59,0.01,5.616,0.004,5.846
	c-0.002,0.018,0.004,0.038,0.004,0.056C0.008,17.942,0,17.97,0,18V22z"/>
</svg>
