<?xml version="1.0" encoding="utf-8"?>
<!-- Generator: Adobe Illustrator 17.0.0, SVG Export Plug-In . SVG Version: 6.00 Build 0)  -->
<!DOCTYPE svg PUBLIC "-//W3C//DTD SVG 1.1//EN" "http://www.w3.org/Graphics/SVG/1.1/DTD/svg11.dtd">
<svg version="1.1" id="Livello_1" xmlns="http://www.w3.org/2000/svg" xmlns:xlink="http://www.w3.org/1999/xlink" x="0px" y="0px"
	 width="10.071px" height="10.071px" viewBox="0 0 10.071 10.071" enable-background="new 0 0 10.071 10.071" xml:space="preserve">
<path fill-rule="evenodd" clip-rule="evenodd" fill="#FFFFFF" d="M7.157,5.036c0,0,2.35-2.35,2.475-2.475
	c0.586-0.586,0.586-1.536,0-2.121c-0.586-0.586-1.536-0.586-2.121,0C7.386,0.564,5.036,2.914,5.036,2.914s-2.35-2.35-2.475-2.475
	c-0.586-0.586-1.536-0.586-2.121,0c-0.586,0.586-0.586,1.536,0,2.121c0.125,0.125,2.475,2.475,2.475,2.475s-2.35,2.35-2.475,2.475
	c-0.586,0.586-0.586,1.536,0,2.121c0.586,0.586,1.536,0.586,2.121,0c0.125-0.125,2.475-2.475,2.475-2.475s2.35,2.35,2.475,2.475
	c0.586,0.586,1.536,0.586,2.121,0c0.586-0.586,0.586-1.536,0-2.121C9.507,7.386,7.157,5.036,7.157,5.036z"/>
</svg>
