<?xml version="1.0" encoding="utf-8"?>
<!-- Generator: Adobe Illustrator 17.0.0, SVG Export Plug-In . SVG Version: 6.00 Build 0)  -->
<!DOCTYPE svg PUBLIC "-//W3C//DTD SVG 1.1//EN" "http://www.w3.org/Graphics/SVG/1.1/DTD/svg11.dtd">
<svg version="1.1" id="Livello_1" xmlns="http://www.w3.org/2000/svg" xmlns:xlink="http://www.w3.org/1999/xlink" x="0px" y="0px"
	 width="34px" height="34px" viewBox="0 0 34 34" enable-background="new 0 0 34 34" xml:space="preserve">
<path fill-rule="evenodd" clip-rule="evenodd" fill="#DDDCDA" d="M17,0C7.611,0,0,7.611,0,17s7.611,17,17,17s17-7.611,17-17
	S26.389,0,17,0z"/>
<path fill-rule="evenodd" clip-rule="evenodd" fill="#FFFFFF" d="M17,3c7.732,0,14,6.268,14,14s-6.268,14-14,14S3,24.732,3,17
	S9.268,3,17,3z"/>
<path fill-rule="evenodd" clip-rule="evenodd" fill="#DDDCDA" d="M17,23c1.105,0,2,0.895,2,2s-0.895,2-2,2s-2-0.895-2-2
	S15.895,23,17,23z"/>
<path fill-rule="evenodd" clip-rule="evenodd" fill="#DDDCDA" d="M16.5,7h1C18.328,7,19,7.672,19,8.5c0,0,0-0.979,0,2
	S17.562,21,17,21s-2-7.5-2-10.5s0-2,0-2C15,7.672,15.672,7,16.5,7z"/>
</svg>
