<?xml version="1.0" encoding="utf-8"?>
<!-- Generator: Adobe Illustrator 17.0.0, SVG Export Plug-In . SVG Version: 6.00 Build 0)  -->
<!DOCTYPE svg PUBLIC "-//W3C//DTD SVG 1.1//EN" "http://www.w3.org/Graphics/SVG/1.1/DTD/svg11.dtd">
<svg version="1.1" id="Livello_1" xmlns="http://www.w3.org/2000/svg" xmlns:xlink="http://www.w3.org/1999/xlink" x="0px" y="0px"
	 width="30px" height="30px" viewBox="0 0 30 30" enable-background="new 0 0 30 30" xml:space="preserve">
<path fill-rule="evenodd" clip-rule="evenodd" fill="#FFFFFF" d="M28.658,14.999L25.39,11.31c0.686-0.826,2.313-2.784,3.11-3.742
	c0.521-0.62-0.235-0.93-0.235-0.93l-9.011-4.99c0,0-0.637-0.447-1.119,0.08c-0.396,0.433-2.478,2.779-3.209,3.604l-2.887-3.498
	c0,0-0.383-0.632-1.177-0.196c-0.794,0.437-8.918,4.81-9.392,5.049C0.9,6.974,1.332,7.584,1.332,7.584l3.212,3.758
	c-0.72,0.843-2.307,2.7-3.093,3.621c-0.526,0.61,0.222,0.928,0.222,0.928l3.214,1.834c0,1.069,0,4.97,0,5.333
	c0,0.422,0.165,0.449,0.165,0.449s9.029,4.823,9.453,5.058c0.424,0.235,0.786-0.033,0.786-0.033l9.466-5.034
	c0,0,0.317-0.141,0.317-0.44c0-0.25,0-4.012,0-5.228c1.754-0.983,3.267-1.829,3.463-1.932C29.1,15.601,28.658,14.999,28.658,14.999z
	 M18.707,2.816l8.385,4.516l-2.842,3.42l-8.445-4.676L18.707,2.816z M14.98,15.896L6.75,11.38l8.23-4.36l8.23,4.36L14.98,15.896z
	 M11.253,2.816l2.757,3.34L5.661,10.78L2.713,7.331L11.253,2.816z M5.629,11.963l8.426,4.666l-2.918,3.188l-8.287-4.601
	L5.629,11.963z M5.974,22.765v-4.42l4.604,2.627c0,0,0.628,0.453,1.115-0.065c0.321-0.342,1.737-1.892,2.667-2.911v9.256
	L5.974,22.765z M23.986,22.674l-8.54,4.542v-9.326l2.609,3.049c0,0,0.393,0.625,1.18,0.174c0.392-0.225,2.589-1.46,4.752-2.674
	V22.674z M18.822,19.942l-2.861-3.344l8.38-4.641l2.94,3.319L18.822,19.942z"/>
</svg>
