<?xml version="1.0" encoding="utf-8"?>
<!-- Generator: Adobe Illustrator 17.0.0, SVG Export Plug-In . SVG Version: 6.00 Build 0)  -->
<!DOCTYPE svg PUBLIC "-//W3C//DTD SVG 1.1//EN" "http://www.w3.org/Graphics/SVG/1.1/DTD/svg11.dtd">
<svg version="1.1" id="Livello_1" xmlns="http://www.w3.org/2000/svg" xmlns:xlink="http://www.w3.org/1999/xlink" x="0px" y="0px"
	 width="24.401px" height="22.8px" viewBox="0 0 24.401 22.8" enable-background="new 0 0 24.401 22.8" xml:space="preserve">
<path fill="#FFFFFF" d="M24.108,11.493L21.614,9l2.493-2.493c0.218-0.218,0.323-0.523,0.285-0.829
	c-0.037-0.306-0.214-0.577-0.478-0.735l-8-4.8c-0.394-0.235-0.897-0.174-1.222,0.15L12.2,2.786L9.707,0.293
	C9.423,0.01,8.998-0.076,8.629,0.071l-8,3.2C0.317,3.396,0.088,3.67,0.021,3.999S0.056,4.67,0.293,4.907l2.385,2.385L0.401,9
	C0.144,9.192-0.005,9.495,0,9.816c0.005,0.32,0.164,0.619,0.427,0.803L3.2,12.56V16.2c0,0.326,0.159,0.632,0.427,0.819l8,5.6
	c0.007,0.005,0.016,0.007,0.024,0.012c0.009,0.006,0.015,0.014,0.024,0.02c0.048,0.03,0.1,0.046,0.151,0.067
	c0.03,0.012,0.058,0.03,0.09,0.04c0.093,0.028,0.188,0.043,0.284,0.043c0.147,0,0.294-0.036,0.431-0.102
	c0.005-0.002,0.011-0.001,0.016-0.004l8-4c0.339-0.17,0.553-0.516,0.553-0.895v-3.381l2.647-1.324
	c0.287-0.144,0.488-0.417,0.54-0.734S24.335,11.72,24.108,11.493z M12.286,11.839L6.289,7.642l5.822-2.329l6.012,3.607
	L12.286,11.839z M15.556,2.259l6.232,3.739l-1.743,1.743l-6.232-3.739L15.556,2.259z M8.759,2.174l1.662,1.661L4.442,6.226
	L2.779,4.565L8.759,2.174z M4.221,8.635l6.275,4.394L8.98,14.166L2.704,9.772L4.221,8.635z M5.2,13.961l3.227,2.259
	C8.599,16.34,8.8,16.4,9,16.4c0.211,0,0.423-0.066,0.6-0.2l1.601-1.201v4.879l-6-4.199V13.961z M19.2,17.181l-6,3v-4.768
	l1.493,1.493c0.192,0.192,0.448,0.293,0.707,0.293c0.152,0,0.305-0.034,0.447-0.105l3.353-1.676V17.181z M15.598,14.983
	l-1.709-1.709l6.114-3.058l1.709,1.709L15.598,14.983z"/>
</svg>
