<?xml version="1.0" encoding="utf-8"?>
<!-- Generator: Adobe Illustrator 17.0.0, SVG Export Plug-In . SVG Version: 6.00 Build 0)  -->
<!DOCTYPE svg PUBLIC "-//W3C//DTD SVG 1.1//EN" "http://www.w3.org/Graphics/SVG/1.1/DTD/svg11.dtd">
<svg version="1.1" id="Livello_1" xmlns="http://www.w3.org/2000/svg" xmlns:xlink="http://www.w3.org/1999/xlink" x="0px" y="0px"
	 width="196px" height="196px" viewBox="0 0 196 196" enable-background="new 0 0 196 196" xml:space="preserve">
<path fill-rule="evenodd" clip-rule="evenodd" fill="#DDDCDA" d="M0,0h196v196H0V0z"/>
<path fill="#FFFFFF" d="M140.086,61.088l-2.976-2.256V48.81H89.635L39.147,99.513l47.474,47.676l41.638-41.816
	c3.434,1.124,6.969,1.75,10.281,1.75c7.241,0,12.886-2.819,15.896-7.937l0.101-0.173l0.087-0.18
	C163.947,79.475,141.065,61.83,140.086,61.088z M137.11,84.627c1.109,1.898,1.821,3.632,1.918,4.692
	c-0.079,0.002-0.164,0.003-0.254,0.003c-0.482,0-1.049-0.043-1.665-0.126V84.627z M86.621,140.374l-40.687-40.86l45.688-45.883
	h40.687v18.06l-0.059,4.715l-0.024,1.923l0.084,0.09v9.434c-0.829-0.357-1.664-0.787-2.475-1.302
	c-3.179-2.017-6.344-5.31-8.726-8.316c0.557-1.515,0.802-3.137,0.703-4.777c-0.376-6.234-5.539-11.118-11.754-11.118
	c-0.238,0-0.478,0.007-0.718,0.022c-6.485,0.394-11.442,6.013-11.049,12.526c0.236,3.91,2.339,7.356,5.611,9.353
	c2.147,3.68,7.315,11.433,15.379,16.815c1.309,0.874,2.705,1.656,4.145,2.359L86.621,140.374z M150.303,96.736
	c-2.291,3.896-6.729,5.568-11.763,5.568c-2.073,0-4.247-0.285-6.413-0.813l0.009-0.009c-1.694-0.413-3.377-0.98-5.011-1.674
	c-1.82-0.773-3.579-1.693-5.188-2.768c-8.352-5.574-13.289-14.054-14.556-16.416c-2.383-0.998-4.133-3.266-4.3-6.029
	c-0.233-3.866,2.699-7.189,6.548-7.423c0.144-0.009,0.286-0.013,0.428-0.013c3.663,0,6.739,2.868,6.963,6.589
	c0.111,1.848-0.515,3.56-1.605,4.882c1.302,1.876,5.998,8.279,11.857,11.995c1.621,1.028,3.343,1.762,5.038,2.327v0.045
	c0.175,0.058,0.342,0.088,0.515,0.142c0.391,0.121,0.766,0.218,1.151,0.316c0.534,0.135,1.05,0.25,1.562,0.342
	c0.378,0.068,0.741,0.131,1.103,0.176c0.152,0.019,0.319,0.06,0.469,0.075v-0.038c0.568,0.056,1.154,0.131,1.665,0.131
	c1.98,0,3.472-0.413,4.027-1.166c3.969-5.609-5.072-15.76-5.692-16.445l0,0c-0.022-0.024-0.06-0.066-0.06-0.066l0.06-4.75l0,0
	l0.085-6.78C137.195,64.936,158.018,80.717,150.303,96.736z"/>
</svg>
