<?xml version="1.0" encoding="utf-8"?>
<!-- Generator: Adobe Illustrator 17.0.0, SVG Export Plug-In . SVG Version: 6.00 Build 0)  -->
<!DOCTYPE svg PUBLIC "-//W3C//DTD SVG 1.1//EN" "http://www.w3.org/Graphics/SVG/1.1/DTD/svg11.dtd">
<svg version="1.1" id="Livello_1" xmlns="http://www.w3.org/2000/svg" xmlns:xlink="http://www.w3.org/1999/xlink" x="0px" y="0px"
	 width="220px" height="220px" viewBox="0 0 220 220" enable-background="new 0 0 220 220" xml:space="preserve">
<path fill-rule="evenodd" clip-rule="evenodd" fill="#FFFFFF" d="M107,106c-4.418,0-8,3.582-8,8v40c0,4.418,3.582,8,8,8h60
	c4.418,0,8-3.582,8-8v-40c0-4.418-3.582-8-8-8H107z M167,150c0,2.209-1.791,4-4,4h-52c-2.209,0-4-1.791-4-4v-32c0-2.209,1.791-4,4-4
	h52c2.209,0,4,1.791,4,4V150z"/>
<path fill-rule="evenodd" clip-rule="evenodd" fill="#FFFFFF" d="M156.172,135.172l-8,8C147.391,143.953,147,144.976,147,146
	s0.391,2.047,1.172,2.828S149.976,150,151,150c1.024,0,2.047-0.391,2.828-1.172l8-8c0.781-0.781,1.172-1.804,1.172-2.828
	s-0.391-2.047-1.172-2.828C160.266,133.609,157.734,133.609,156.172,135.172z"/>
<path fill-rule="evenodd" clip-rule="evenodd" fill="#FFFFFF" d="M156.172,119.172l-24,24C131.391,143.953,131,144.976,131,146
	s0.391,2.047,1.172,2.828S133.976,150,135,150c1.024,0,2.047-0.391,2.828-1.172l24-24c0.781-0.781,1.172-1.804,1.172-2.828
	s-0.391-2.047-1.172-2.828C160.266,117.609,157.734,117.609,156.172,119.172z"/>
<path fill-rule="evenodd" clip-rule="evenodd" fill="#FFFFFF" d="M175,34h-8h-16h-16h-16h-16H87H71H55h-8L19,74v4
	c0,8.197,4.942,15.223,12,18.312V178c0,4.418,3.582,8,8,8h16v-68c0-2.209,1.791-4,4-4h20c2.209,0,4,1.791,4,4v68h100
	c4.418,0,8-3.582,8-8V96.312c7.058-3.089,12-10.115,12-18.312v-4L175,34z M137.4,42l9.6,32v4c0,6.628-5.372,12-12,12
	c-6.628,0-12-5.372-12-12v-4l-3.2-32H137.4z M75,74l9.6-32h17.6L99,74v4c0,6.628-5.372,12-12,12s-12-5.372-12-12V74z M27,78v-4
	l22.4-32H67L51,74v4c0,6.628-5.372,12-12,12S27,84.628,27,78z M183,174c0,2.209-1.791,4-4,4H91v-64c0-4.418-3.582-8-8-8H55
	c-4.418,0-8,3.582-8,8v64h-4c-2.209,0-4-1.791-4-4V98c5.394,0,10.268-2.158,13.865-5.63C54.99,95.743,58.72,98,63,98
	s8.01-2.257,10.135-5.63C76.732,95.842,81.606,98,87,98s10.268-2.158,13.865-5.63C102.99,95.743,106.72,98,111,98
	c4.28,0,8.01-2.257,10.135-5.63C124.732,95.842,129.606,98,135,98s10.268-2.158,13.865-5.63C150.99,95.743,154.72,98,159,98
	s8.01-2.257,10.135-5.63C172.732,95.842,177.606,98,183,98V174z M195,78c0,6.628-5.372,12-12,12c-6.628,0-12-5.372-12-12v-4l-16-32
	h17.6L195,74V78z"/>
</svg>
