<?xml version="1.0" encoding="utf-8"?>
<!-- Generator: Adobe Illustrator 17.0.0, SVG Export Plug-In . SVG Version: 6.00 Build 0)  -->
<!DOCTYPE svg PUBLIC "-//W3C//DTD SVG 1.1//EN" "http://www.w3.org/Graphics/SVG/1.1/DTD/svg11.dtd">
<svg version="1.1" id="Livello_1" xmlns="http://www.w3.org/2000/svg" xmlns:xlink="http://www.w3.org/1999/xlink" x="0px" y="0px"
	 width="361.445px" height="101.765px" viewBox="-123.247 -33.344 361.445 101.765"
	 enable-background="new -123.247 -33.344 361.445 101.765" xml:space="preserve">
<g>
	<path fill="#FFFFFF" d="M182.007,34.418c-1.318-1.334-1.978-3.52-1.978-6.55V6.616h13.318V6.318h0.138V-6.136h-0.138v-0.787
		h-13.318v-15.443h-15.718v15.44h-5.581V6.613h4.675v21.472c0,3.104,0.358,5.939,1.075,8.502c0.714,2.566,1.846,4.749,3.395,6.55
		c1.542,1.805,3.542,3.213,5.994,4.224c2.448,1.008,5.408,1.517,8.877,1.517c7.933,0.013,12.237-4.515,13.402-4.851l-4.531-11.59
		C191.616,32.437,186.221,38.078,182.007,34.418z"/>
	<path fill="#FFFFFF" d="M94.173,0.411c-2.669-2.371-5.734-4.189-9.197-5.446s-7.069-1.888-10.81-1.888
		c-3.747,0-7.366,0.63-10.87,1.888c-3.504,1.261-6.592,3.072-9.258,5.446c-2.669,2.371-4.8,5.302-6.39,8.787
		c-1.594,3.488-2.387,7.459-2.387,11.917s0.794,8.432,2.387,11.917c1.59,3.488,3.722,6.416,6.39,8.79
		c2.666,2.371,5.754,4.189,9.258,5.443c3.501,1.258,7.126,1.888,10.87,1.888c3.741,0,7.347-0.63,10.81-1.888
		s6.528-3.072,9.197-5.443c2.666-2.371,4.797-5.299,6.39-8.79c1.59-3.488,2.387-7.456,2.387-11.917
		c0-4.458-0.797-8.429-2.387-11.917C98.973,5.714,96.842,2.782,94.173,0.411z M82.292,32.226c-1.834,2.733-4.541,4.099-8.122,4.099
		c-3.667,0-6.39-1.366-8.182-4.099S63.3,25.79,63.3,21.118s0.896-8.378,2.688-11.107c1.792-2.73,4.518-4.099,8.182-4.099
		c3.581,0,6.291,1.366,8.122,4.099s2.746,6.435,2.746,11.107C85.037,25.79,84.122,29.493,82.292,32.226z"/>
	<path fill="#FFFFFF" d="M139.495-6.926v0.003v37.027c-1.67,1.99-3.232,3.443-4.678,4.342c-1.482,0.925-3.312,1.386-5.498,1.386
		c-2.496,0-4.33-0.71-5.498-2.131c-1.168-1.421-1.754-4.051-1.754-7.888V-6.923h-17.19v34.762c0,6.678,1.421,11.901,4.272,15.67
		c2.845,3.766,7.427,5.648,13.741,5.648c3.978,0,7.386-0.765,10.234-2.291c2.234-1.2,4.355-2.765,6.374-4.685v6.979h17.309v-1.28
		V-6.926h-17.19H139.495z"/>
	<path fill="#FFFFFF" d="M-27.356,35.88c-1.13,0.794-2.938,1.194-5.427,1.194c-2.413,0-4.79-0.47-7.126-1.408
		c-2.336-0.938-4.79-2.346-7.35-4.224l-7.462,9.965c2.864,2.237,6.237,4.045,10.122,5.418c3.882,1.37,7.67,2.058,11.363,2.058
		c3.766,0,7.085-0.454,9.949-1.354c2.864-0.902,5.277-2.128,7.238-3.683c1.958-1.552,3.427-3.376,4.413-5.469
		c0.979-2.093,1.469-4.368,1.469-6.822c0-2.451-0.451-4.563-1.357-6.336c-0.906-1.766-2.09-3.264-3.562-4.493
		c-1.469-1.229-3.091-2.256-4.864-3.085s-3.562-1.571-5.373-2.221c-1.434-0.506-2.81-0.992-4.125-1.462
		c-1.318-0.47-2.486-0.957-3.504-1.462c-1.018-0.506-1.827-1.062-2.429-1.677c-0.605-0.614-0.906-1.354-0.906-2.221
		c0-2.816,2.109-4.224,6.333-4.224c1.958,0,3.917,0.4,5.882,1.194c1.958,0.794,3.955,1.914,5.994,3.357l7.462-9.53
		c-2.413-1.731-5.242-3.306-8.48-4.71c-3.242-1.408-7.011-2.112-11.306-2.112c-3.242,0-6.182,0.419-8.819,1.245
		c-2.64,0.829-4.902,1.968-6.787,3.411c-1.885,1.446-3.334,3.216-4.355,5.306c-1.018,2.096-1.526,4.368-1.526,6.822
		c0,2.237,0.451,4.208,1.357,5.901c0.906,1.696,2.07,3.178,3.504,4.438c1.43,1.264,3.014,2.326,4.752,3.194
		c1.734,0.867,3.466,1.622,5.203,2.275c1.43,0.579,2.826,1.104,4.182,1.571c1.357,0.47,2.579,0.992,3.674,1.571
		c1.091,0.579,1.958,1.21,2.598,1.898c0.64,0.688,0.96,1.462,0.96,2.326C-25.66,33.963-26.224,35.086-27.356,35.88z"/>
	<path fill="#FFFFFF" d="M25.066-7.893C18.66-7.755,12.279-3.534,8.72-0.715v-27.482H-8.588v77.354H8.72V10.955
		c2.877-2.246,7.325-5.254,10.576-5.312c7.325-0.093,6.733,6.768,6.733,6.768v36.746h17.309V12.411
		C43.338,12.411,44.647-8.104,25.066-7.893z"/>
	<path fill="#FFFFFF" d="M-4.502,57.982L-48.214,47.87l-37.107-8.589c-0.003,0-0.006,0-0.006,0l-16.989-3.93l-1.939-20.371
		l92.922-42.182c1.61-0.733,2.326-2.634,1.597-4.253c-0.73-1.616-2.624-2.336-4.237-1.603l-95.008,43.13
		c-1.248,0.566-1.997,1.866-1.869,3.235l2.378,24.963c0.131,1.379,1.126,2.518,2.467,2.829l16.122,3.731l-1.053,4.595
		c-0.666,2.899-0.166,5.888,1.405,8.416c1.574,2.525,4.032,4.282,6.918,4.95l23.091,5.344c0.819,0.189,1.661,0.285,2.499,0.285
		c5.197,0,9.642-3.555,10.81-8.643l1.056-4.595l39.213,9.072c0.243,0.058,0.483,0.083,0.723,0.083c1.456,0,2.774-1.005,3.117-2.493
		C-1.705,60.107-2.78,58.379-4.502,57.982z M-52.451,58.328c-0.573,2.506-3.107,4.128-5.632,3.536l-23.091-5.341
		c-1.222-0.282-2.262-1.027-2.928-2.093c-0.666-1.069-0.877-2.336-0.595-3.562l1.053-4.595l18.582,4.301l13.667,3.158
		L-52.451,58.328z"/>
	<path fill="#FFFFFF" d="M-120.348,11.493c-1.763,0.17-3.053,1.741-2.883,3.507l2.282,23.965c0.16,1.664,1.552,2.909,3.184,2.909
		c0.102,0,0.205-0.003,0.307-0.016c1.76-0.166,3.05-1.734,2.883-3.504l-2.282-23.968C-117.03,12.619-118.595,11.314-120.348,11.493z
		"/>
	<path fill="#FFFFFF" d="M207.124,40.45c-1.434-1.034-3.437-0.704-4.47,0.739c-1.034,1.44-0.704,3.45,0.733,4.483l16.038,11.552
		c0.47,0.339,1.005,0.531,1.546,0.586c1.101,0.109,2.227-0.358,2.922-1.325c1.037-1.44,0.71-3.446-0.73-4.483L207.124,40.45z"/>
	<path fill="#FFFFFF" d="M206.468-0.059c0.538-0.074,1.066-0.288,1.523-0.646l15.568-12.179c1.392-1.088,1.645-3.11,0.554-4.509
		c-1.094-1.402-3.11-1.654-4.496-0.563L204.048-5.778c-1.392,1.088-1.642,3.11-0.554,4.509
		C204.228-0.328,205.37,0.094,206.468-0.059z"/>
	<path fill="#FFFFFF" d="M234.999,15.422h-19.2c-1.766,0-3.2,1.434-3.2,3.2c0,1.766,1.434,3.2,3.2,3.2h19.2
		c1.766,0,3.2-1.434,3.2-3.2C238.199,16.856,236.765,15.422,234.999,15.422z"/>
</g>
</svg>
