<?xml version="1.0" encoding="utf-8"?>
<!-- Generator: Adobe Illustrator 17.0.0, SVG Export Plug-In . SVG Version: 6.00 Build 0)  -->
<!DOCTYPE svg PUBLIC "-//W3C//DTD SVG 1.1//EN" "http://www.w3.org/Graphics/SVG/1.1/DTD/svg11.dtd">
<svg version="1.1" id="Livello_1" xmlns="http://www.w3.org/2000/svg" xmlns:xlink="http://www.w3.org/1999/xlink" x="0px" y="0px"
	 width="34px" height="34px" viewBox="0 0 34 34" enable-background="new 0 0 34 34" xml:space="preserve">
<path fill-rule="evenodd" clip-rule="evenodd" fill="#3751A1" d="M17,0.935C8.128,0.935,0.935,8.128,0.935,17
	S8.128,33.065,17,33.065S33.065,25.872,33.065,17S25.872,0.935,17,0.935z"/>
<path fill-rule="evenodd" clip-rule="evenodd" fill="#3751A1" d="M17,0C7.611,0,0,7.611,0,17s7.611,17,17,17s17-7.611,17-17
	S26.389,0,17,0z M17,31C9.268,31,3,24.732,3,17S9.268,3,17,3s14,6.268,14,14S24.732,31,17,31z"/>
<path fill="#FFFFFF" d="M26.687,14.621c-0.849,0-1.899,0.345-2.197,1.101c-0.042,0.105-0.161,0.145-0.256,0.119
	c-0.16-0.918,0.044-3.179,0.218-4.438l0.123-0.891l-0.898,0.039c0,0-3.981,0.174-5.431,0.233c-0.012,0-0.023,0-0.034-0.001
	c0.024-0.024,0.054-0.053,0.09-0.085c0.653-0.586,1.016-0.98,0.886-2.256c-0.134-1.322-1.358-2.176-3.171-2.176h-0.001
	c-1.294,0.014-2.822,0.625-3.318,1.959c-0.365,0.979-0.189,1.836,0.479,2.389c-0.105,0.003-0.231,0.005-0.38,0.005
	c-1.388,0-3.52-0.181-3.541-0.182l-0.769-0.066l-0.044,0.771c-0.02,0.355-0.193,3.502-0.049,4.515
	c0.099,0.698,0.693,1.204,1.415,1.204c0.474,0,0.916-0.218,1.245-0.615c0.084-0.102,0.246-0.16,0.442-0.16
	c0.452,0,1.189,0.332,1.242,1.223c0.019,0.314-0.057,0.563-0.223,0.739c-0.21,0.223-0.525,0.303-0.75,0.303
	c-0.18,0-0.276-0.042-0.272-0.034c-0.359-0.556-1.053-0.93-1.728-0.93c-0.799,0-1.392,0.538-1.44,1.309
	c-0.088,1.426,0.564,5.49,0.639,5.949l0.083,0.506l0.501,0.107c0.092,0.02,2.258,0.479,3.742,0.479c0.259,0,0.496-0.014,0.702-0.044
	c0.572-0.084,1.045-0.53,1.207-1.135c0.17-0.635-0.034-1.274-0.483-1.618c-0.045-0.071-0.104-0.371,0.033-0.621
	c0.196-0.358,0.709-0.434,1.105-0.434c0.107,0,0.221,0.006,0.342,0.017c0.494,0.046,0.837,0.198,0.918,0.408
	c0.061,0.157-0.01,0.335-0.003,0.344c-0.502,0.283-0.774,0.839-0.694,1.417c0.096,0.689,0.644,1.218,1.465,1.415
	c0.293,0.071,0.664,0.105,1.133,0.105c1.923,0,4.953-0.589,5.081-0.614l0.725-0.142l-0.131-0.728
	c-0.217-1.202-0.515-3.359-0.387-4.046c0.198,0,0.478,0.129,0.5,0.129h0.001c0.51,0.614,1.253,0.966,2.038,0.966
	c1.378,0,2.843-1.104,2.843-3.151C29.684,15.507,28.069,14.621,26.687,14.621z M25.957,19.23c-0.264-0.317-1.008-0.67-1.654-0.67
	c-0.769,0-1.335,0.477-1.478,1.244c-0.16,0.862,0.091,2.737,0.264,3.829c-1.001,0.173-2.833,0.456-4.074,0.456
	c-0.429,0-0.662-0.034-0.782-0.063c-0.155-0.037-0.245-0.088-0.291-0.126c0.528-0.364,0.807-1.138,0.653-1.854
	c-0.094-0.438-0.502-1.475-2.262-1.638c-2.223-0.211-2.873,1.017-3.047,1.519c-0.277,0.799-0.083,1.719,0.469,2.187
	c0.002,0.049-0.037,0.124,0.013,0.095c-0.877,0.127-2.568-0.163-3.406-0.319c-0.216-1.399-0.572-3.965-0.545-4.998
	c0.146,0.019,0.331,0.11,0.415,0.24c0.292,0.45,0.864,0.719,1.532,0.719c0.697,0,1.385-0.289,1.842-0.774
	c0.317-0.336,0.684-0.932,0.628-1.857c-0.098-1.648-1.469-2.634-2.739-2.634c-0.653,0-1.22,0.249-1.596,0.701
	c-0.012,0.015-0.024,0.027-0.035,0.037c-0.062-0.671-0.011-2.252,0.038-3.333c0.771,0.055,1.97,0.128,2.895,0.128
	c1.077,0,1.412-0.095,1.652-0.269c0.465-0.337,0.693-0.723,0.679-1.148c-0.022-0.632-0.559-0.965-0.847-1.144l-0.093-0.059
	c-0.109-0.073-0.292-0.195-0.084-0.75c0.205-0.551,1.034-0.973,1.964-0.983c0.158,0,1.547,0.023,1.628,0.828
	c0.059,0.58,0.059,0.58-0.463,1.049c-0.562,0.508-0.767,1.148-0.55,1.712c0.22,0.571,0.816,0.927,1.654,0.927
	c0.002,0,0.005,0,0.008,0c0.993-0.041,3.255-0.139,4.513-0.193c-0.13,1.182-0.297,3.194-0.064,4.195
	c0.144,0.619,0.782,1.069,1.519,1.069c0.707,0,1.31-0.413,1.531-1.005c0.056-0.058,0.372-0.226,0.844-0.226
	c0.683,0,1.497,0.327,1.497,1.884C28.184,19.644,26.628,20.039,25.957,19.23z"/>
</svg>
