<?xml version="1.0" encoding="utf-8"?>
<!-- Generator: Adobe Illustrator 17.0.0, SVG Export Plug-In . SVG Version: 6.00 Build 0)  -->
<!DOCTYPE svg PUBLIC "-//W3C//DTD SVG 1.1//EN" "http://www.w3.org/Graphics/SVG/1.1/DTD/svg11.dtd">
<svg version="1.1" id="Livello_1" xmlns="http://www.w3.org/2000/svg" xmlns:xlink="http://www.w3.org/1999/xlink" x="0px" y="0px"
	 width="23px" height="23px" viewBox="0 0 23 23" enable-background="new 0 0 23 23" xml:space="preserve">
<path fill="#FFFFFF" d="M19,2.044c0.297,0,0.557,0.135,0.74,0.341C20.49,2.817,21,3.617,21,4.544v8.233
	c0,0.847-0.672,1.533-1.5,1.533c0,0-3.042,0.849-5.408,2.561c-2.208,1.598-2.545,3.924-4.592,4.083
	c-0.02,0.001-0.039,0.001-0.058,0.001c-0.847,0-1.372-0.75-1.442-1.535c-0.046-1.082,0.584-3.509,1.042-5.111H3
	c-0.552,0-1-0.448-1-1v-1.067c0-0.553,0.448-1,1-1h1c-0.552,0-1-0.448-1-1V9.177c0-0.552,0.448-1,1-1h1c-0.552,0-1-0.448-1-1V6.111
	c0-0.552,0.448-1,1-1h1c-0.552,0-1-0.448-1-1V3.044c0-0.552,0.448-1,1-1h11.5h1H19 M19,0.044h-0.5h-1H6c-1.654,0-3,1.346-3,3v0.832
	c-0.614,0.55-1,1.348-1,2.234v0.832c-0.613,0.55-1,1.348-1,2.234v0.832c-0.613,0.55-1,1.348-1,2.234v1.067c0,1.654,1.346,3,3,3
	h3.452c-0.495,2.138-0.463,2.897-0.45,3.196c0.001,0.031,0.003,0.061,0.006,0.092c0.172,1.946,1.617,3.358,3.434,3.358
	c0.046,0,0.092-0.001,0.139-0.003c0.025-0.001,0.05-0.002,0.075-0.004c2.091-0.163,3.139-1.566,3.981-2.694
	c0.488-0.653,0.948-1.27,1.629-1.763c1.725-1.248,3.939-1.996,4.589-2.199C21.618,16.113,23,14.605,23,12.777V4.544
	c0-1.503-0.768-2.913-2.022-3.743C20.432,0.317,19.728,0.044,19,0.044L19,0.044z"/>
</svg>
