<?xml version="1.0" encoding="utf-8"?>
<!-- Generator: Adobe Illustrator 17.0.0, SVG Export Plug-In . SVG Version: 6.00 Build 0)  -->
<!DOCTYPE svg PUBLIC "-//W3C//DTD SVG 1.1//EN" "http://www.w3.org/Graphics/SVG/1.1/DTD/svg11.dtd">
<svg version="1.1" id="Livello_1" xmlns="http://www.w3.org/2000/svg" xmlns:xlink="http://www.w3.org/1999/xlink" x="0px" y="0px"
	 width="23px" height="23px" viewBox="0 0 23 23" enable-background="new 0 0 23 23" xml:space="preserve">
<path fill="#6AB5AC" d="M13.558,0.499L13.558,0.499c-0.045,0-0.09,0.001-0.136,0.003c-0.025,0.001-0.049,0.002-0.074,0.004
	c-2.08,0.158-3.129,1.532-3.971,2.636c-0.486,0.637-0.946,1.239-1.625,1.72C6.023,6.086,3.802,6.819,3.155,7.017
	C1.386,7.191,0,8.686,0,10.5v8c0,1.504,0.768,2.914,2.022,3.744C2.569,22.728,3.272,23,4,23h0.5h1H17c1.654,0,3-1.346,3-3v-0.766
	c0.613-0.55,1-1.347,1-2.234v-0.766c0.614-0.55,1-1.348,1-2.234v-0.765c0.613-0.55,1-1.348,1-2.234v-1c0-1.654-1.346-3-3-3h-3.44
	c0.482-2.056,0.45-2.794,0.438-3.086c-0.001-0.031-0.003-0.063-0.006-0.094C16.82,1.926,15.344,0.499,13.558,0.499L13.558,0.499z"/>
</svg>
