<?xml version="1.0" encoding="utf-8"?>
<!-- Generator: Adobe Illustrator 17.0.0, SVG Export Plug-In . SVG Version: 6.00 Build 0)  -->
<!DOCTYPE svg PUBLIC "-//W3C//DTD SVG 1.1//EN" "http://www.w3.org/Graphics/SVG/1.1/DTD/svg11.dtd">
<svg version="1.1" id="Livello_1" xmlns="http://www.w3.org/2000/svg" xmlns:xlink="http://www.w3.org/1999/xlink" x="0px" y="0px"
	 width="196px" height="196px" viewBox="0 0 196 196" enable-background="new 0 0 196 196" xml:space="preserve">
<path fill-rule="evenodd" clip-rule="evenodd" fill="#DDDCDA" d="M0,0h196v196H0V0z"/>
<g>
	<path fill="#FFFFFF" d="M98,40.4c-21.174,0-38.4,17.226-38.4,38.4c0,13.772,7.32,26.378,19.2,33.243V126.8v2.4v12
		c0,3.97,3.23,7.2,7.2,7.2c0,3.97,3.23,7.2,7.2,7.2h9.6c3.97,0,7.2-3.23,7.2-7.2c3.97,0,7.2-3.23,7.2-7.2v-12v-2.4v-14.757
		c11.88-6.865,19.2-19.471,19.2-33.243C136.4,57.626,119.174,40.4,98,40.4z M102.8,150.8h-9.6c-1.323,0-2.4-1.077-2.4-2.4h14.4
		C105.2,149.723,104.123,150.8,102.8,150.8z M112.4,141.2c0,1.323-1.077,2.4-2.4,2.4H86c-1.323,0-2.4-1.077-2.4-2.4v-9.6h28.8V141.2
		z M113.677,108.507c-0.785,0.415-1.277,1.232-1.277,2.121V126.8H83.6v-16.172c0-0.889-0.492-1.706-1.277-2.121
		C71.267,102.659,64.4,91.276,64.4,78.8c0-18.527,15.073-33.6,33.6-33.6s33.6,15.073,33.6,33.6
		C131.6,91.276,124.733,102.659,113.677,108.507z"/>
	<path fill="#FFFFFF" d="M115.602,74.149c-1.246-0.443-2.611,0.209-3.063,1.447C112.42,75.923,109.482,83.6,98,83.6
		s-14.42-7.677-14.532-7.985c-0.433-1.253-1.798-1.92-3.053-1.482c-1.253,0.433-1.916,1.801-1.482,3.053
		c0.149,0.433,3.645,10.035,16.668,11.107V119.6c0,1.326,1.074,2.4,2.4,2.4c1.326,0,2.4-1.074,2.4-2.4V88.292
		c13.022-1.072,16.518-10.674,16.668-11.107C117.499,75.941,116.843,74.591,115.602,74.149z"/>
</g>
</svg>
