<?xml version="1.0" encoding="utf-8"?>
<!-- Generator: Adobe Illustrator 17.0.0, SVG Export Plug-In . SVG Version: 6.00 Build 0)  -->
<!DOCTYPE svg PUBLIC "-//W3C//DTD SVG 1.1//EN" "http://www.w3.org/Graphics/SVG/1.1/DTD/svg11.dtd">
<svg version="1.1" id="Livello_1" xmlns="http://www.w3.org/2000/svg" xmlns:xlink="http://www.w3.org/1999/xlink" x="0px" y="0px"
	 width="34px" height="34px" viewBox="0 0 34 34" enable-background="new 0 0 34 34" xml:space="preserve">
<g>
	<path fill-rule="evenodd" clip-rule="evenodd" fill="#FFFFFF" d="M17,0C7.611,0,0,7.611,0,17c0,9.389,7.611,17,17,17
		s17-7.611,17-17C34,7.611,26.389,0,17,0z M17,31C9.268,31,3,24.732,3,17C3,9.268,9.268,3,17,3c7.732,0,14,6.268,14,14
		C31,24.732,24.732,31,17,31z"/>
	<path fill-rule="evenodd" clip-rule="evenodd" fill="#FFFFFF" d="M21,16c1.105,0,2-0.896,2-2c0-1.105-0.895-2-2-2h-5v-1h0l0,0
		c0-1.104-0.895-2-2-2s-2,0.895-2,2l0,0h0v11c0,1.104,0.895,2,2,2h7c1.105,0,2-0.895,2-2s-0.895-2-2-2h-5v-4H21z"/>
</g>
</svg>
