<?xml version="1.0" encoding="utf-8"?>
<!-- Generator: Adobe Illustrator 17.0.0, SVG Export Plug-In . SVG Version: 6.00 Build 0)  -->
<!DOCTYPE svg PUBLIC "-//W3C//DTD SVG 1.1//EN" "http://www.w3.org/Graphics/SVG/1.1/DTD/svg11.dtd">
<svg version="1.1" id="Livello_1" xmlns="http://www.w3.org/2000/svg" xmlns:xlink="http://www.w3.org/1999/xlink" x="0px" y="0px"
	 width="15.142px" height="15.142px" viewBox="0 0 15.142 15.142" enable-background="new 0 0 15.142 15.142" xml:space="preserve">
<path fill-rule="evenodd" clip-rule="evenodd" fill="#DDDCDA" d="M8.985,7.571l6.01-6.01c0.195-0.195,0.195-0.512,0-0.707
	l-0.707-0.707c-0.195-0.195-0.512-0.195-0.707,0l-6.01,6.01l-6.01-6.01c-0.195-0.195-0.512-0.195-0.707,0L0.146,0.853
	c-0.195,0.195-0.195,0.512,0,0.707l6.01,6.01l-6.01,6.01c-0.195,0.195-0.195,0.512,0,0.707l0.707,0.707
	c0.195,0.195,0.512,0.195,0.707,0l6.01-6.01l6.01,6.01c0.195,0.195,0.512,0.195,0.707,0l0.707-0.707
	c0.195-0.195,0.195-0.511,0-0.707L8.985,7.571z"/>
</svg>
