<?xml version="1.0" encoding="utf-8"?>
<!-- Generator: Adobe Illustrator 17.0.0, SVG Export Plug-In . SVG Version: 6.00 Build 0)  -->
<!DOCTYPE svg PUBLIC "-//W3C//DTD SVG 1.1//EN" "http://www.w3.org/Graphics/SVG/1.1/DTD/svg11.dtd">
<svg version="1.1" id="Livello_1" xmlns="http://www.w3.org/2000/svg" xmlns:xlink="http://www.w3.org/1999/xlink" x="0px" y="0px"
	 width="84px" height="84px" viewBox="0 0 84 84" enable-background="new 0 0 84 84" xml:space="preserve">
<path fill-rule="evenodd" clip-rule="evenodd" fill="#0050a0" d="M42,0c23.196,0,42,18.804,42,42S65.196,84,42,84S0,65.196,0,42
	S18.804,0,42,0z"/>
<path fill-rule="evenodd" clip-rule="evenodd" fill="#63A8A0" d="M42,3c21.539,0,39,17.461,39,39S63.539,81,42,81S3,63.539,3,42
	S20.461,3,42,3z"/>
<g>
	<path fill="#FFFFFF" d="M42,19c-8.822,0-16,7.178-16,16c0,5.738,3.05,10.991,8,13.851V55v1v5c0,1.654,1.346,3,3,3
		c0,1.654,1.346,3,3,3h4c1.654,0,3-1.346,3-3c1.654,0,3-1.346,3-3v-5v-1v-6.149c4.95-2.86,8-8.113,8-13.851
		C58,26.178,50.822,19,42,19z M44,65h-4c-0.551,0-1-0.449-1-1h6C45,64.551,44.551,65,44,65z M48,61c0,0.551-0.449,1-1,1H37
		c-0.551,0-1-0.449-1-1v-4h12V61z M48.532,47.378C48.205,47.551,48,47.891,48,48.262V55H36v-6.738c0-0.371-0.205-0.711-0.532-0.884
		C30.861,44.941,28,40.198,28,35c0-7.72,6.28-14,14-14s14,6.28,14,14C56,40.198,53.139,44.941,48.532,47.378z"/>
	<path fill="#FFFFFF" d="M49.334,33.062c-0.519-0.185-1.088,0.087-1.276,0.603C48.008,33.801,46.784,37,42,37
		s-6.008-3.199-6.055-3.327c-0.181-0.522-0.749-0.8-1.272-0.618c-0.522,0.181-0.798,0.75-0.618,1.272
		c0.062,0.18,1.519,4.181,6.945,4.628V52c0,0.552,0.448,1,1,1s1-0.448,1-1V38.955c5.426-0.447,6.883-4.448,6.945-4.628
		C50.125,33.809,49.851,33.246,49.334,33.062z"/>
</g>
</svg>
