<?xml version="1.0" encoding="utf-8"?>
<!-- Generator: Adobe Illustrator 17.0.0, SVG Export Plug-In . SVG Version: 6.00 Build 0)  -->
<!DOCTYPE svg PUBLIC "-//W3C//DTD SVG 1.1//EN" "http://www.w3.org/Graphics/SVG/1.1/DTD/svg11.dtd">
<svg version="1.1" id="Livello_1" xmlns="http://www.w3.org/2000/svg" xmlns:xlink="http://www.w3.org/1999/xlink" x="0px" y="0px"
	 width="60px" height="60px" viewBox="0 0 60 60" enable-background="new 0 0 60 60" xml:space="preserve">
<path fill-rule="evenodd" clip-rule="evenodd" fill="#0050a0" d="M30,0c16.569,0,30,13.432,30,30S46.569,60,30,60S0,46.569,0,30
	S13.432,0,30,0z"/>
<path fill-rule="evenodd" clip-rule="evenodd" fill="#0050a0" d="M30,3c14.912,0,27,12.088,27,27S44.912,57,30,57S3,44.912,3,30
	S15.088,3,30,3z"/>
<g>
	<path fill-rule="evenodd" clip-rule="evenodd" fill="#FFFFFF" d="M29.3,29.3c-0.773,0-1.4,0.627-1.4,1.4v7
		c0,0.773,0.627,1.4,1.4,1.4h10.5c0.773,0,1.4-0.627,1.4-1.4v-7c0-0.773-0.627-1.4-1.4-1.4H29.3z M39.8,37
		c0,0.387-0.313,0.7-0.7,0.7H30c-0.387,0-0.7-0.313-0.7-0.7v-5.6c0-0.387,0.313-0.7,0.7-0.7h9.1c0.387,0,0.7,0.313,0.7,0.7V37z"/>
	<path fill-rule="evenodd" clip-rule="evenodd" fill="#FFFFFF" d="M37.905,34.405l-1.4,1.4C36.368,35.942,36.3,36.121,36.3,36.3
		c0,0.179,0.068,0.358,0.205,0.495C36.642,36.932,36.821,37,37,37s0.358-0.068,0.495-0.205l1.4-1.4
		c0.137-0.137,0.205-0.316,0.205-0.495c0-0.179-0.068-0.358-0.205-0.495C38.622,34.132,38.179,34.132,37.905,34.405z"/>
	<path fill-rule="evenodd" clip-rule="evenodd" fill="#FFFFFF" d="M37.905,31.605l-4.2,4.2C33.568,35.942,33.5,36.121,33.5,36.3
		c0,0.179,0.068,0.358,0.205,0.495C33.842,36.932,34.021,37,34.2,37c0.179,0,0.358-0.068,0.495-0.205l4.2-4.2
		c0.137-0.137,0.205-0.316,0.205-0.495c0-0.179-0.068-0.358-0.205-0.495C38.622,31.332,38.179,31.332,37.905,31.605z"/>
	<path fill-rule="evenodd" clip-rule="evenodd" fill="#FFFFFF" d="M41.2,16.7h-1.4H37h-2.8h-2.8h-2.8h-2.8H23h-2.8h-1.4l-4.9,7v0.7
		c0,1.434,0.865,2.664,2.1,3.204V41.9c0,0.773,0.627,1.4,1.4,1.4h2.8V31.4c0-0.387,0.313-0.7,0.7-0.7h3.5c0.387,0,0.7,0.313,0.7,0.7
		v11.9h17.5c0.773,0,1.4-0.627,1.4-1.4V27.604c1.235-0.54,2.1-1.77,2.1-3.204v-0.7L41.2,16.7z M34.62,18.1l1.68,5.6v0.7
		c0,1.16-0.94,2.1-2.1,2.1s-2.1-0.94-2.1-2.1v-0.7l-0.56-5.6H34.62z M23.7,23.7l1.68-5.6h3.08l-0.56,5.6v0.7
		c0,1.16-0.94,2.1-2.1,2.1s-2.1-0.94-2.1-2.1V23.7z M15.3,24.4v-0.7l3.92-5.6h3.08l-2.8,5.6v0.7c0,1.16-0.94,2.1-2.1,2.1
		C16.24,26.5,15.3,25.56,15.3,24.4z M42.6,41.2c0,0.387-0.313,0.7-0.7,0.7H26.5V30.7c0-0.773-0.627-1.4-1.4-1.4h-4.9
		c-0.773,0-1.4,0.627-1.4,1.4v11.2h-0.7c-0.387,0-0.7-0.313-0.7-0.7V27.9c0.944,0,1.797-0.378,2.426-0.985
		c0.372,0.59,1.025,0.985,1.774,0.985c0.749,0,1.402-0.395,1.774-0.985c0.63,0.607,1.482,0.985,2.426,0.985s1.797-0.378,2.426-0.985
		C28.598,27.505,29.251,27.9,30,27.9s1.402-0.395,1.774-0.985c0.629,0.607,1.482,0.985,2.426,0.985s1.797-0.378,2.426-0.985
		c0.372,0.59,1.025,0.985,1.774,0.985c0.749,0,1.402-0.395,1.774-0.985c0.63,0.607,1.483,0.985,2.426,0.985V41.2z M44.7,24.4
		c0,1.16-0.94,2.1-2.1,2.1c-1.16,0-2.1-0.94-2.1-2.1v-0.7l-2.8-5.6h3.08l3.92,5.6V24.4z"/>
</g>
</svg>
