<?xml version="1.0" encoding="utf-8"?>
<!-- Generator: Adobe Illustrator 17.0.0, SVG Export Plug-In . SVG Version: 6.00 Build 0)  -->
<!DOCTYPE svg PUBLIC "-//W3C//DTD SVG 1.1//EN" "http://www.w3.org/Graphics/SVG/1.1/DTD/svg11.dtd">
<svg version="1.1" id="Livello_1" xmlns="http://www.w3.org/2000/svg" xmlns:xlink="http://www.w3.org/1999/xlink" x="0px" y="0px"
	 width="60px" height="60px" viewBox="0 0 60 60" enable-background="new 0 0 60 60" xml:space="preserve">
<path fill-rule="evenodd" clip-rule="evenodd" fill="#0050a0" d="M30,0c16.569,0,30,13.432,30,30S46.569,60,30,60S0,46.569,0,30
	S13.432,0,30,0z"/>
<path fill-rule="evenodd" clip-rule="evenodd" fill="#63A8A0" d="M30,3c14.912,0,27,12.088,27,27S44.912,57,30,57S3,44.912,3,30
	S15.088,3,30,3z"/>
<g>
	<path fill-rule="evenodd" clip-rule="evenodd" fill="#FFFFFF" d="M21.48,36.965c-0.517-0.103-0.936-0.204-1.321-0.317
		c-0.138-0.04-0.285-0.037-0.422,0.008l-6.652,2.224l1.299-5.209c0.056-0.225-0.004-0.463-0.159-0.636
		c-1.581-1.758-2.416-3.825-2.416-5.977c0-5.629,5.672-10.208,12.644-10.208c3.226,0,6.304,0.993,8.668,2.797
		c0.308,0.235,0.749,0.178,0.985-0.13c0.236-0.307,0.177-0.747-0.131-0.981c-2.608-1.99-5.989-3.085-9.522-3.085
		c-7.746,0-14.048,5.208-14.048,11.608c0,2.386,0.873,4.671,2.528,6.628l-1.519,6.094c-0.062,0.248,0.017,0.51,0.206,0.683
		c0.132,0.121,0.302,0.186,0.476,0.186c0.075,0,0.15-0.012,0.223-0.036l7.66-2.561c0.365,0.1,0.761,0.192,1.226,0.285
		c0.382,0.076,0.75-0.17,0.826-0.549C22.107,37.409,21.86,37.041,21.48,36.965z"/>
	<path fill-rule="evenodd" clip-rule="evenodd" fill="#FFFFFF" d="M49.599,32.11c0-6.33-6.271-11.48-13.978-11.48
		c-7.707,0-13.978,5.15-13.978,11.48c0,6.33,6.271,11.48,13.978,11.48c1.499,0,2.996-0.204,4.452-0.607l7.619,2.531
		c0.073,0.024,0.148,0.036,0.222,0.036c0.174,0,0.345-0.065,0.477-0.186c0.188-0.174,0.266-0.436,0.204-0.684l-1.509-6.016
		C48.731,36.728,49.599,34.47,49.599,32.11z M40.311,41.587c-0.072-0.024-0.147-0.036-0.222-0.036c-0.066,0-0.132,0.009-0.197,0.028
		c-1.395,0.405-2.832,0.611-4.271,0.611c-6.933,0-12.573-4.522-12.573-10.08c0-5.558,5.64-10.08,12.573-10.08
		c6.933,0,12.574,4.522,12.574,10.08c0,2.124-0.83,4.164-2.401,5.9c-0.157,0.173-0.216,0.413-0.16,0.639l1.288,5.134L40.311,41.587z
		"/>
	<circle fill-rule="evenodd" clip-rule="evenodd" fill="#FFFFFF" cx="30.071" cy="32.25" r="1.4"/>
	<circle fill-rule="evenodd" clip-rule="evenodd" fill="#FFFFFF" cx="35.691" cy="32.25" r="1.4"/>
	<circle fill-rule="evenodd" clip-rule="evenodd" fill="#FFFFFF" cx="41.31" cy="32.25" r="1.4"/>
</g>
</svg>
