<?xml version="1.0" encoding="utf-8"?>
<!-- Generator: Adobe Illustrator 17.0.0, SVG Export Plug-In . SVG Version: 6.00 Build 0)  -->
<!DOCTYPE svg PUBLIC "-//W3C//DTD SVG 1.1//EN" "http://www.w3.org/Graphics/SVG/1.1/DTD/svg11.dtd">
<svg version="1.1" id="Livello_1" xmlns="http://www.w3.org/2000/svg" xmlns:xlink="http://www.w3.org/1999/xlink" x="0px" y="0px"
	 width="451.994px" height="127.207px" viewBox="0 0 451.994 127.207" enable-background="new 0 0 451.994 127.207"
	 xml:space="preserve">
<path fill="#FFFFFF" d="M381.725,84.703c-1.649-1.668-2.473-4.4-2.473-8.188V49.951h16.655v-0.372h0.172V34.011h-0.172v-0.984
	h-16.655V13.723h-19.656v19.3h-6.979v16.924h5.846v26.84c0,3.88,0.448,7.424,1.345,10.628c0.892,3.208,2.309,5.936,4.246,8.188
	c1.929,2.256,4.43,4.016,7.495,5.28c3.061,1.26,6.763,1.896,11.1,1.896c9.92,0.016,15.302-5.644,16.759-6.064l-5.666-14.488
	C393.742,82.227,386.995,89.279,381.725,84.703z"/>
<path fill="#FFFFFF" d="M271.887,42.195c-3.337-2.964-7.171-5.236-11.501-6.808c-4.33-1.572-8.84-2.36-13.518-2.36
	c-4.686,0-9.212,0.788-13.594,2.36c-4.382,1.576-8.243,3.84-11.577,6.808c-3.337,2.964-6.003,6.628-7.991,10.984
	c-1.993,4.36-2.985,9.324-2.985,14.896s0.992,10.54,2.985,14.896c1.989,4.36,4.654,8.02,7.991,10.988
	c3.333,2.964,7.195,5.236,11.577,6.804c4.378,1.572,8.912,2.36,13.594,2.36c4.678,0,9.188-0.788,13.518-2.36
	c4.33-1.572,8.163-3.84,11.501-6.804c3.333-2.964,5.999-6.624,7.991-10.988c1.989-4.36,2.985-9.32,2.985-14.896
	c0-5.572-0.996-10.536-2.985-14.896C277.89,48.823,275.225,45.159,271.887,42.195z M257.029,81.963
	c-2.293,3.416-5.678,5.124-10.156,5.124c-4.586,0-7.991-1.708-10.232-5.124c-2.241-3.416-3.361-8.044-3.361-13.884
	c0-5.84,1.12-10.472,3.361-13.884c2.241-3.412,5.65-5.124,10.232-5.124c4.478,0,7.867,1.708,10.156,5.124
	c2.289,3.416,3.433,8.044,3.433,13.884C260.463,73.919,259.318,78.547,257.029,81.963z"/>
<path fill="#FFFFFF" d="M328.563,33.023v0.004v46.284c-2.089,2.488-4.042,4.304-5.85,5.428c-1.853,1.156-4.142,1.732-6.875,1.732
	c-3.121,0-5.414-0.888-6.875-2.664c-1.461-1.776-2.193-5.064-2.193-9.86v-40.92h-21.497v43.452c0,8.348,1.777,14.876,5.342,19.588
	c3.558,4.708,9.288,7.06,17.183,7.06c4.974,0,9.236-0.956,12.797-2.864c2.793-1.5,5.446-3.456,7.971-5.856v8.724h21.645v-1.6V33.023
	h-21.497H328.563z"/>
<path fill="#FFFFFF" d="M119.912,86.531c-1.413,0.992-3.674,1.492-6.787,1.492c-3.017,0-5.991-0.588-8.912-1.76
	c-2.921-1.172-5.99-2.932-9.192-5.28L85.69,93.439c3.581,2.796,7.799,5.056,12.657,6.772c4.854,1.712,9.592,2.572,14.21,2.572
	c4.71,0,8.86-0.568,12.441-1.692c3.582-1.128,6.599-2.66,9.052-4.604c2.449-1.94,4.286-4.22,5.518-6.836
	c1.225-2.616,1.837-5.46,1.837-8.528c0-3.064-0.564-5.704-1.697-7.92c-1.132-2.208-2.613-4.08-4.454-5.616
	c-1.837-1.536-3.866-2.82-6.082-3.856c-2.217-1.036-4.454-1.964-6.719-2.776c-1.793-0.632-3.514-1.24-5.158-1.828
	c-1.649-0.588-3.109-1.196-4.382-1.828c-1.273-0.632-2.285-1.328-3.037-2.096c-0.756-0.768-1.132-1.692-1.132-2.776
	c0-3.52,2.637-5.28,7.919-5.28c2.449,0,4.898,0.5,7.355,1.492c2.449,0.992,4.946,2.392,7.495,4.196l9.332-11.912
	c-3.017-2.164-6.555-4.132-10.604-5.888c-4.054-1.76-8.768-2.64-14.138-2.64c-4.054,0-7.731,0.524-11.029,1.556
	c-3.301,1.036-6.131,2.46-8.487,4.264c-2.357,1.808-4.17,4.02-5.446,6.632c-1.272,2.62-1.909,5.46-1.909,8.528
	c0,2.796,0.564,5.26,1.697,7.376c1.132,2.12,2.589,3.972,4.382,5.548c1.789,1.58,3.77,2.908,5.942,3.992
	c2.169,1.084,4.334,2.028,6.507,2.844c1.789,0.724,3.533,1.38,5.23,1.964c1.697,0.588,3.225,1.24,4.594,1.964
	c1.365,0.724,2.449,1.512,3.249,2.372s1.201,1.828,1.201,2.908C122.033,84.135,121.329,85.539,119.912,86.531z"/>
<path fill="#FFFFFF" d="M185.468,31.815c-8.011,0.172-15.991,5.448-20.44,8.972V6.435h-21.645v96.692h21.645V55.375
	c3.598-2.808,9.16-6.568,13.225-6.64c9.16-0.116,8.419,8.46,8.419,8.46v45.932h21.645V57.195
	C208.317,57.195,209.954,31.551,185.468,31.815z"/>
<path fill="#FFFFFF" d="M148.492,114.159l-54.663-12.64L47.426,90.783c-0.004,0-0.008,0-0.008,0l-21.245-4.912l-2.425-25.464
	l116.2-52.728c2.013-0.916,2.909-3.292,1.997-5.316c-0.912-2.02-3.281-2.92-5.298-2.004L17.838,54.271
	c-1.561,0.708-2.497,2.332-2.337,4.044l2.973,31.204c0.164,1.724,1.409,3.148,3.085,3.536l20.16,4.664l-1.317,5.744
	c-0.832,3.624-0.208,7.36,1.757,10.52c1.969,3.156,5.042,5.352,8.652,6.188l28.876,6.68c1.024,0.236,2.077,0.356,3.125,0.356
	c6.499,0,12.057-4.444,13.518-10.804l1.321-5.744l49.036,11.34c0.304,0.072,0.604,0.104,0.904,0.104
	c1.821,0,3.469-1.256,3.898-3.116C151.99,116.815,150.645,114.655,148.492,114.159z M88.531,114.591
	c-0.716,3.132-3.886,5.16-7.043,4.42l-28.876-6.676c-1.529-0.352-2.829-1.284-3.661-2.616c-0.832-1.336-1.097-2.92-0.744-4.452
	l1.317-5.744l23.238,5.376l17.091,3.948L88.531,114.591z"/>
<path fill="#FFFFFF" d="M3.624,56.047c-2.205,0.212-3.818,2.176-3.605,4.384l2.853,29.956c0.2,2.08,1.941,3.636,3.982,3.636
	c0.128,0,0.256-0.004,0.384-0.02c2.201-0.208,3.814-2.168,3.606-4.38L7.99,59.663C7.774,57.455,5.817,55.823,3.624,56.047z"/>
<path fill="#FFFFFF" d="M413.134,92.243c-1.793-1.292-4.298-0.88-5.59,0.924c-1.293,1.8-0.88,4.312,0.916,5.604l20.056,14.44
	c0.588,0.424,1.257,0.664,1.933,0.732c1.377,0.136,2.785-0.448,3.653-1.656c1.297-1.8,0.888-4.308-0.912-5.604L413.134,92.243z"/>
<path fill="#FFFFFF" d="M412.313,41.607c0.672-0.092,1.333-0.36,1.905-0.808l19.468-15.224c1.741-1.36,2.057-3.888,0.692-5.636
	c-1.368-1.752-3.89-2.068-5.622-0.704l-19.468,15.224c-1.741,1.36-2.053,3.888-0.692,5.636
	C409.512,41.271,410.941,41.799,412.313,41.607z"/>
<path fill="#FFFFFF" d="M447.992,60.959h-24.01c-2.209,0-4.002,1.792-4.002,4s1.793,4,4.002,4h24.01c2.209,0,4.002-1.792,4.002-4
	S450.201,60.959,447.992,60.959z"/>
</svg>
