<?xml version="1.0" encoding="utf-8"?>
<!-- Generator: Adobe Illustrator 17.0.0, SVG Export Plug-In . SVG Version: 6.00 Build 0)  -->
<!DOCTYPE svg PUBLIC "-//W3C//DTD SVG 1.1//EN" "http://www.w3.org/Graphics/SVG/1.1/DTD/svg11.dtd">
<svg version="1.1" id="Livello_1" xmlns="http://www.w3.org/2000/svg" xmlns:xlink="http://www.w3.org/1999/xlink" x="0px" y="0px"
	 width="173.492px" height="196.869px" viewBox="0 0 173.492 196.869" enable-background="new 0 0 173.492 196.869"
	 xml:space="preserve">
<g>
	
		<rect x="73.323" y="17.115" transform="matrix(0.071 0.9975 -0.9975 0.071 101.16 -64.5859)" fill="#F3A100" width="23.86" height="9.8"/>
	<g>
		<path fill="#F3A100" d="M23.1,196.737c3.15,2.028,18.55-20.022,18.55-20.022l-10.85-9.1C30.8,167.615,19.95,194.709,23.1,196.737z
			"/>
		<path fill="#F3A100" d="M153.197,160.615l-10.85,9.1c0,0,15.4,22.05,18.55,20.022
			C164.047,187.709,153.197,160.615,153.197,160.615z"/>
	</g>
	<path fill-rule="evenodd" clip-rule="evenodd" fill="#F5AF00" d="M10.722,142.385C-5.143,99.243,17.293,51.29,60.834,35.278
		s91.699,5.981,107.564,49.122s-6.571,91.095-50.112,107.107S26.588,185.527,10.722,142.385z"/>
	<path fill-rule="evenodd" clip-rule="evenodd" fill="#F3A100" d="M20.582,137.938c-13.662-37.15,6.027-78.579,43.975-92.534
		s79.787,4.847,93.449,41.997s-6.027,78.579-43.975,92.534S34.244,175.088,20.582,137.938z"/>
	<path fill-rule="evenodd" clip-rule="evenodd" fill="#FFFFFF" d="M20.582,137.938c-13.368-36.351,6.235-77.013,43.784-90.822
		s78.826,4.466,92.193,40.816c13.368,36.351-6.235,77.013-43.784,90.822C75.227,192.563,33.95,174.289,20.582,137.938z"/>
	<path fill-rule="evenodd" clip-rule="evenodd" fill="#3F2416" d="M34.342,112.228l11.47,8.389l-1.365-5.811l37.093,0.991
		c0.384,4.343,3.062,8.348,7.337,10.22c6.238,2.732,13.509-0.11,16.241-6.348c2.732-6.238-0.11-13.509-6.348-16.241
		c-0.407-0.178-0.818-0.33-1.232-0.461l3.971-25.261l4.331,1.897l-5.554-14.211L93.31,77.48l5.156-0.262l-3.962,25.205
		c-4.989-0.275-9.852,2.507-11.974,7.354c-0.421,0.962-0.695,1.95-0.859,2.941l-37.014-0.989l2.485-5.673L34.342,112.228z"/>
	<g>
		<path fill-rule="evenodd" clip-rule="evenodd" fill="#F5AF00" d="M146.65,27.265c-5.339,0-10.281,1.725-14.332,4.652
			c14.544,7.458,27.105,18.773,35.986,33.167c2.031-3.678,3.196-7.921,3.196-12.444C171.5,38.626,160.374,27.265,146.65,27.265z"/>
		<path fill-rule="evenodd" clip-rule="evenodd" fill="#F5AF00" d="M0,59.29c0,5.95,2.011,11.417,5.369,15.744
			c6.878-14.964,17.762-28.125,31.848-37.75c-3.643-2.139-7.863-3.369-12.367-3.369C11.126,33.915,0,45.276,0,59.29z"/>
	</g>
	<circle fill-rule="evenodd" clip-rule="evenodd" fill="#F5AF00" cx="84.406" cy="10.115" r="10.115"/>
</g>
</svg>
