<?xml version="1.0" encoding="utf-8"?>
<!-- Generator: Adobe Illustrator 17.0.0, SVG Export Plug-In . SVG Version: 6.00 Build 0)  -->
<!DOCTYPE svg PUBLIC "-//W3C//DTD SVG 1.1//EN" "http://www.w3.org/Graphics/SVG/1.1/DTD/svg11.dtd">
<svg version="1.1" id="Livello_1" xmlns="http://www.w3.org/2000/svg" xmlns:xlink="http://www.w3.org/1999/xlink" x="0px" y="0px"
	 width="356.496px" height="199.762px" viewBox="0 0 356.496 199.762" enable-background="new 0 0 356.496 199.762"
	 xml:space="preserve">
<g>
	<path fill="#DDDCDA" d="M172.584,44.556C175.712,19.529,198.071,0,225.206,0c29.277,0,53.01,22.806,53.01,50.651
		c0,0.316-0.019,0.415-0.025,1.175h0.034v120.08h-105.64V56.339v-4.512V44.556z"/>
	<path fill="#FDE6D2" d="M223.142,110.78c10.947,0,17.869-5.837,18.177-6.104c0,0,8.551-2.374,9.14-3.921s-3.878-7.583-5.007-7.951
		c-0.729-0.238-3.516,3.288-5.401,5.817c0,0-0.71-5.081-2.256-4.565s0.458,7.043,0.458,7.043c-0.067,0.055-6.821,5.697-17.137,4.891
		c-10.261-0.789-17.764-11.272-17.839-11.377l-3.852,2.715c0.357,0.506,8.881,12.404,21.329,13.361
		C221.569,110.75,222.367,110.78,223.142,110.78z"/>
	<path fill="#F29199" d="M172.248,84.405l32.32,2.951c0,0,7.68,35.622-32.32,37.804V84.405z"/>
	<path fill="#FDE6D2" d="M172.584,44.471c0.03-0.239,0.055-0.484,0.087-0.719l10.274-2.04c0,0,18.259,3.952,24.075,6.87
		c5.817,2.918,7.473,11.716,7.473,11.716s3.442-0.792,4.675,2.835c1.233,3.626-3.856,4.876-3.856,4.876s2.936,24.896-24.949,25.324
		l-4.774,8.092l-1.937-7.366c0,0-7.267-1.629-11.067-4.954V56.339v-4.512V44.471z"/>
	
		<ellipse transform="matrix(-0.9434 0.3315 -0.3315 -0.9434 397.9375 58.3781)" fill="#3F2314" cx="193.989" cy="63.133" rx="3.387" ry="5.006"/>
	
		<ellipse transform="matrix(-0.981 0.194 -0.194 -0.981 423.7766 76.869)" fill="#3F2314" cx="208.125" cy="59.181" rx="3.048" ry="4.506"/>
	<ellipse fill="#F29199" cx="188.54" cy="74.618" rx="3.387" ry="2.209"/>
	<g>
		<rect x="247.248" y="180.881" width="24" height="3"/>
		<rect x="247.248" y="176.881" fill="#FFFFFF" width="24" height="4"/>
		<path d="M271.248,176.881H247.96c0,0-0.091-3.429,3.836-6.571s7.559-3.429,7.559-3.429h11.892V176.881z"/>
	</g>
	<path fill="#3F2314" d="M211.174,70.937l-15.713,3.011c0,0,2.59,7.444,9.615,6.266S211.174,70.937,211.174,70.937z"/>
	<path fill="#80A7D0" d="M338.085,144.155l-47.415-3.902c-18.553-1.595-31.315,26.628-31.315,26.628h12.165
		c0,0,11.788-20.936,32.206-15.194s27.862,19.533,27.862,19.533l12.207-3.88L338.085,144.155z"/>
	<g>
		<rect x="325.315" y="184.51" transform="matrix(0.9562 -0.2928 0.2928 0.9562 -39.5859 106.8429)" width="23.56" height="2.28"/>
		
			<rect x="324.313" y="180.1" transform="matrix(0.9562 -0.2928 0.2928 0.9562 -38.6722 106.4064)" fill="#FFFFFF" width="23.56" height="4.56"/>
		<path d="M346.689,176.751l-22.527,6.899c0,0-1-3.217,1.834-7.371c2.835-4.153,6.241-5.435,6.241-5.435l11.559-3.54
			L346.689,176.751z"/>
	</g>
	<polygon fill="#FFB100" points="328.465,97.881 302.549,97.881 290.671,139.893 338.085,144.005 	"/>
	<path fill="#FDE6D2" d="M307.266,117.258c-0.437-1.9-2.339-3.09-4.232-2.655c-0.284,0.067-28.623,6.251-44.126-13.741
		c-11.73-15.124-11.581-32.94-10.691-41.268c3.472-0.972,6.033-4.125,6.033-7.907c0-4.554-3.692-8.246-8.246-8.246
		s-8.246,3.692-8.246,8.246c0,2.76,1.369,5.189,3.451,6.685c-1.105,9.279-1.452,29.33,12.114,46.822
		c11.339,14.623,27.803,17.501,39.007,17.501c6.882,0,11.78-1.086,12.29-1.203C306.52,121.052,307.702,119.159,307.266,117.258z"/>
	<circle fill="#FFB100" cx="246.005" cy="42.263" r="11.78"/>
	<path fill="#3F2314" d="M293.636,87.195l-2.487-10.286c0,0,11.463-6.963,14.523,0.105S293.636,87.195,293.636,87.195z"/>
	<path fill="#FDE6D2" d="M348.258,90.08c-9.428,14.935-28.731,19.682-43.114,10.602c-5.288-3.339-9.175-8.081-11.508-13.487
		c0,0,9.895-2.426,8.717-9.297l-11.203-0.988c-0.143-2.065-0.087-4.156,0.174-6.243c0,0-4.187-0.917-3.696-4.647
		c0.491-3.73,5.433-2.503,5.433-2.503c0.793-2.165,1.828-4.283,3.112-6.317c9.428-14.935,28.731-19.682,43.114-10.602
		C353.67,55.677,357.686,75.145,348.258,90.08z"/>
	<path d="M354.11,80.508c6.831-18.537-1.509-38.678-18.628-44.986c-5.669-2.089-11.512-1.949-17.221-1.206
		c-12.031,1.565-15.756-12.333-18.893-10.509c-3.274,1.904-3.103,20.517,6.19,23.676l42.342,13.578l-4.894,18.73
		c0,0,5.679-0.814,5.188,5.076c-0.491,5.89-7.476,3.68-7.476,3.68l-3.237,12.137C344.705,96.57,350.901,89.218,354.11,80.508z"/>
	
		<ellipse transform="matrix(0.9116 0.411 -0.411 0.9116 53.8128 -118.2537)" fill="#3F2314" cx="301.915" cy="66.019" rx="3.293" ry="5.497"/>
	<path fill="#492C1D" d="M172.584,44.429c0.396-3.164,1.088-6.255,2.054-9.172c2.393-1.257,6.187-2.803,11.251-2.969
		c8.982-0.294,14.725,8.06,18.995,8.207c4.27,0.147,1.473-6.94,1.473-6.94s7.091,3.041,7.215,9.414
		c0.086,4.418-3.24,8.683-12.075,8.683c-8.835,0-19.537-6.187-19.537-6.187l-9.377,19.054v-7.753v-4.94V44.429z"/>
	<g>
		<g>
			<g>
				<rect x="66.248" y="192.881" width="23" height="3"/>
				<rect x="66.248" y="187.881" fill="#FFFFFF" width="23" height="5"/>
				<path d="M66.248,187.881h23.479c0,0,0.491-2.929-3.436-6.071s-7.559-2.929-7.559-2.929H66.248V187.881z"/>
			</g>
			<g>
				
					<rect x="-1.038" y="191.578" transform="matrix(-0.861 -0.5086 0.5086 -0.861 -78.0473 364.1819)" width="23.56" height="2.356"/>
				
					<rect x="0.759" y="187.357" transform="matrix(-0.861 -0.5086 0.5086 -0.861 -73.1547 359.4335)" fill="#FFFFFF" width="23.56" height="4.712"/>
				<path d="M3.595,181.693l20.285,11.983c0,0,2.02-2.455,0.237-7.157c-1.783-4.702-4.91-6.549-4.91-6.549l-10.819-6.391
					L3.595,181.693z"/>
			</g>
			<path fill="#80A7D0" d="M69.309,142.53l9.424,36.351H66.167c0,0-5.988-25.651-21.989-23
				c-16.001,2.651-24.971,24.202-24.971,24.202l-10.819-6.447c8.303-14.194,10.659-26.675,10.659-26.675L69.309,142.53z"/>
			<polygon fill="#99D909" points="19.047,146.82 28.471,95.97 55.86,94.403 69.309,142.304 			"/>
			<path fill="#FDE6D2" d="M67.996,138.184c1.613,0,3.306-0.104,5.085-0.324c23.24-2.878,38.026-19.216,38.645-19.909
				c0,0,2.728,2.856,2.728,2.66l-0.025-16.175c-5.32,1.178-7.985,8.817-7.985,8.817c-0.129,0.147-13.695,15.049-34.222,17.594
				c-19.11,2.349-23.951-11.511-24-11.651l-6.707,2.236C43.564,127.582,51.615,138.184,67.996,138.184z"/>
			<path fill="#FDE6D2" d="M13.155,81.707c5.951,16.629,23.758,25.464,39.773,19.733c5.888-2.107,10.715-5.89,14.168-10.659
				c0,0-9.129-4.521-6.484-10.972l11.15,1.474c0.589-1.984,0.99-4.038,1.189-6.131c0,0,4.286,0.017,4.619-3.731
				c0.333-3.748-4.758-3.626-4.758-3.626c-0.303-2.285-0.852-4.578-1.662-6.843C65.198,44.323,47.391,35.489,31.377,41.22
				S7.204,65.078,13.155,81.707z"/>
			<path fill="#3F2314" d="M9.527,71.091C6.895,51.512,19.419,33.67,37.5,31.239c5.987-0.805,11.617,0.728,17.071,2.572
				c10.222,3.455,16.652-3.367,18.861-7.245c-1.325,0.54-5.448-1.767-2.307-4.712c1.141-0.977,4.859-0.141,3.927,4.319
				c-1.767,8.491-5.89,11.976-11.427,14.725c13.961,2.189,16.991-11.396,16.991-11.396s-4.403,0.477-3.699-2.69
				c0.669-3.01,5.854-2.46,5.314,2.595c-0.664,6.216-3.056,17.578-18.128,20.02L19.82,53.462l0.699,19.346
				c0,0-5.366-2.031-6.169,3.825c-0.803,5.856,6.496,5.22,6.496,5.22l0.518,12.55C15.211,88.815,10.763,80.29,9.527,71.091z"/>
			
				<ellipse transform="matrix(-0.9792 0.2027 -0.2027 -0.9792 139.7748 122.3071)" fill="#3F2314" cx="63.624" cy="68.311" rx="3.293" ry="5.497"/>
		</g>
		<path opacity="0.2" fill="#FFFFFF" d="M114.465,57.793c0-30.468,14.873-50.736,31.573-45.816
			c14.958,4.407,26.209,14.143,26.209,39.089c0,0.283,0,120.84,0,120.84l-57.849,17.969l-0.124-131.049l0,0
			C114.271,58.826,114.465,58.139,114.465,57.793z"/>
	</g>
</g>
</svg>
