<?xml version="1.0" encoding="utf-8"?>
<!-- Generator: Adobe Illustrator 17.0.0, SVG Export Plug-In . SVG Version: 6.00 Build 0)  -->
<!DOCTYPE svg PUBLIC "-//W3C//DTD SVG 1.1//EN" "http://www.w3.org/Graphics/SVG/1.1/DTD/svg11.dtd">
<svg version="1.1" id="Livello_1" xmlns="http://www.w3.org/2000/svg" xmlns:xlink="http://www.w3.org/1999/xlink" x="0px" y="0px"
	 width="361.595px" height="101.765px" viewBox="0 0 361.595 101.765" enable-background="new 0 0 361.595 101.765"
	 xml:space="preserve">
<path fill="#FFFFFF" d="M305.38,67.762c-1.319-1.334-1.979-3.52-1.979-6.55V39.96h13.324v-0.298h0.138V27.208h-0.138v-0.787h-13.324
	V10.978h-15.725v15.44h-5.583v13.539h4.677v21.472c0,3.104,0.359,5.939,1.076,8.502c0.714,2.566,1.847,4.749,3.397,6.55
	c1.543,1.805,3.544,3.213,5.996,4.224c2.449,1.008,5.41,1.517,8.88,1.517c7.936,0.013,12.242-4.515,13.407-4.851l-4.533-11.59
	C314.993,65.781,309.596,71.423,305.38,67.762z"/>
<path fill="#FFFFFF" d="M217.51,33.756c-2.67-2.371-5.737-4.189-9.201-5.446c-3.464-1.258-7.072-1.888-10.814-1.888
	c-3.749,0-7.369,0.63-10.875,1.888c-3.505,1.261-6.595,3.072-9.261,5.446c-2.67,2.371-4.802,5.302-6.393,8.787
	c-1.594,3.488-2.388,7.459-2.388,11.917s0.794,8.432,2.388,11.917c1.591,3.488,3.723,6.416,6.393,8.79
	c2.667,2.371,5.756,4.189,9.261,5.443c3.502,1.258,7.129,1.888,10.875,1.888c3.742,0,7.35-0.63,10.814-1.888
	s6.531-3.072,9.201-5.443c2.667-2.371,4.799-5.299,6.393-8.79c1.591-3.488,2.388-7.456,2.388-11.917
	c0-4.458-0.797-8.429-2.388-11.917C222.312,39.058,220.18,36.127,217.51,33.756z M205.623,65.57
	c-1.834,2.733-4.543,4.099-8.125,4.099c-3.669,0-6.393-1.366-8.186-4.099c-1.793-2.733-2.689-6.435-2.689-11.107
	s0.896-8.378,2.689-11.107c1.793-2.73,4.52-4.099,8.186-4.099c3.582,0,6.294,1.366,8.125,4.099
	c1.831,2.733,2.747,6.435,2.747,11.107S207.454,62.837,205.623,65.57z"/>
<path fill="#FFFFFF" d="M262.85,26.418v0.003v37.027c-1.671,1.99-3.233,3.443-4.68,4.342c-1.482,0.925-3.313,1.386-5.5,1.386
	c-2.497,0-4.331-0.71-5.5-2.131c-1.169-1.421-1.754-4.051-1.754-7.888V26.421h-17.198v34.762c0,6.678,1.422,11.901,4.274,15.67
	c2.846,3.766,7.43,5.648,13.747,5.648c3.979,0,7.389-0.765,10.238-2.291c2.234-1.2,4.357-2.765,6.377-4.685v6.979h17.316v-1.28
	V26.418h-17.198H262.85z"/>
<path fill="#FFFFFF" d="M95.93,69.224c-1.13,0.794-2.939,1.194-5.429,1.194c-2.414,0-4.792-0.47-7.129-1.408
	c-2.337-0.938-4.792-2.346-7.353-4.224l-7.465,9.965c2.865,2.237,6.239,4.045,10.126,5.418c3.883,1.37,7.674,2.058,11.368,2.058
	c3.768,0,7.088-0.454,9.953-1.354c2.865-0.902,5.279-2.128,7.241-3.683c1.959-1.552,3.429-3.376,4.415-5.469
	c0.98-2.093,1.469-4.368,1.469-6.822c0-2.451-0.451-4.563-1.357-6.336c-0.906-1.766-2.09-3.264-3.563-4.493
	c-1.469-1.229-3.092-2.256-4.866-3.085c-1.774-0.829-3.563-1.571-5.375-2.221c-1.434-0.506-2.811-0.992-4.127-1.462
	c-1.319-0.47-2.487-0.957-3.505-1.462c-1.018-0.506-1.828-1.062-2.43-1.677c-0.605-0.614-0.906-1.354-0.906-2.221
	c0-2.816,2.11-4.224,6.335-4.224c1.959,0,3.918,0.4,5.884,1.194c1.959,0.794,3.957,1.914,5.996,3.357l7.465-9.53
	c-2.414-1.731-5.244-3.306-8.484-4.71c-3.243-1.408-7.014-2.112-11.31-2.112c-3.243,0-6.185,0.419-8.823,1.245
	c-2.641,0.829-4.904,1.968-6.79,3.411c-1.886,1.446-3.336,3.216-4.357,5.306c-1.018,2.096-1.527,4.368-1.527,6.822
	c0,2.237,0.451,4.208,1.357,5.901c0.906,1.696,2.071,3.178,3.506,4.438c1.431,1.264,3.016,2.326,4.754,3.194
	c1.735,0.867,3.467,1.622,5.205,2.275c1.431,0.579,2.827,1.104,4.184,1.571c1.357,0.47,2.58,0.992,3.675,1.571
	c1.092,0.579,1.959,1.21,2.6,1.898c0.64,0.688,0.96,1.462,0.96,2.326C97.627,67.308,97.063,68.431,95.93,69.224z"/>
<path fill="#FFFFFF" d="M148.374,25.452c-6.409,0.138-12.792,4.358-16.352,7.178V5.148h-17.316v77.354h17.316V44.3
	c2.878-2.246,7.328-5.254,10.58-5.312c7.328-0.093,6.736,6.768,6.736,6.768v36.746h17.316V45.756
	C166.654,45.756,167.963,25.24,148.374,25.452z"/>
<path fill="#FFFFFF" d="M118.794,91.327l-43.73-10.112l-37.122-8.589c-0.003,0-0.006,0-0.006,0l-16.996-3.93l-1.94-20.371
	l92.96-42.182c1.61-0.733,2.327-2.634,1.597-4.253c-0.73-1.616-2.625-2.336-4.239-1.603L14.27,43.416
	c-1.248,0.566-1.998,1.866-1.87,3.235l2.378,24.963c0.131,1.379,1.127,2.518,2.468,2.829l16.128,3.731l-1.053,4.595
	c-0.666,2.899-0.167,5.888,1.405,8.416c1.575,2.525,4.034,4.282,6.921,4.95l23.101,5.344c0.82,0.189,1.662,0.285,2.5,0.285
	c5.199,0,9.646-3.555,10.814-8.643l1.057-4.595l39.229,9.072c0.243,0.058,0.483,0.083,0.724,0.083c1.457,0,2.776-1.005,3.118-2.493
	C121.592,93.452,120.516,91.724,118.794,91.327z M70.825,91.672c-0.573,2.506-3.109,4.128-5.634,3.536L42.09,89.868
	c-1.223-0.282-2.263-1.027-2.929-2.093c-0.666-1.069-0.877-2.336-0.595-3.562l1.053-4.595l18.59,4.301l13.673,3.158L70.825,91.672z"
	/>
<path fill="#FFFFFF" d="M2.899,44.837c-1.764,0.17-3.054,1.741-2.884,3.507l2.282,23.965c0.16,1.664,1.553,2.909,3.185,2.909
	c0.102,0,0.205-0.003,0.307-0.016c1.761-0.166,3.051-1.734,2.884-3.504L6.392,47.73C6.219,45.964,4.654,44.658,2.899,44.837z"/>
<path fill="#FFFFFF" d="M330.507,73.794c-1.434-1.034-3.438-0.704-4.472,0.739c-1.034,1.44-0.704,3.45,0.733,4.483l16.045,11.552
	c0.471,0.339,1.005,0.531,1.546,0.586c1.101,0.109,2.228-0.358,2.923-1.325c1.037-1.44,0.711-3.446-0.73-4.483L330.507,73.794z"/>
<path fill="#FFFFFF" d="M329.851,33.285c0.538-0.074,1.066-0.288,1.524-0.646l15.574-12.179c1.393-1.088,1.645-3.11,0.554-4.509
	c-1.095-1.402-3.112-1.654-4.498-0.563L327.43,27.567c-1.393,1.088-1.642,3.11-0.554,4.509
	C327.61,33.016,328.753,33.439,329.851,33.285z"/>
<path fill="#FFFFFF" d="M358.394,48.767h-19.208c-1.767,0-3.201,1.434-3.201,3.2s1.434,3.2,3.201,3.2h19.208
	c1.767,0,3.201-1.434,3.201-3.2S360.161,48.767,358.394,48.767z"/>
</svg>
