<?xml version="1.0" encoding="utf-8"?>
<!-- Generator: Adobe Illustrator 17.0.0, SVG Export Plug-In . SVG Version: 6.00 Build 0)  -->
<!DOCTYPE svg PUBLIC "-//W3C//DTD SVG 1.1//EN" "http://www.w3.org/Graphics/SVG/1.1/DTD/svg11.dtd">
<svg version="1.1" id="Livello_1" xmlns="http://www.w3.org/2000/svg" xmlns:xlink="http://www.w3.org/1999/xlink" x="0px" y="0px"
	 width="208.801px" height="194.4px" viewBox="0 0 208.801 194.4" enable-background="new 0 0 208.801 194.4" xml:space="preserve">
<g>
	<g>
		<polygon fill-rule="evenodd" clip-rule="evenodd" fill="#F6CFC3" points="151.364,158.385 151.364,157.8 67.8,157.8 67.8,158.385 
			54.901,158.385 54.901,194.4 101.071,194.4 101.071,173.054 116.46,173.054 116.46,194.4 162.63,194.4 162.63,158.385 		"/>
		<path fill-rule="evenodd" clip-rule="evenodd" fill="#CF6E57" d="M151.364,157.8H67.8v0.585l-12.9-5.085v5.085
			c11.835,13.197,27.967,28.217,46.17,31.194v-16.526h15.39v17.481c17.371-0.558,33.344-12.576,46.17-22.629v-9.52h-11.267V157.8z"
			/>
		<path fill="#F6CFC3" d="M190.529,86.355c-5.454-19.169-18.363-35.3-35.473-45.386c-1.093-5.323-2.069-14.147,0.592-20.009
			c0.471-1.039,0.423-2.238-0.129-3.234c-0.553-0.997-1.544-1.672-2.674-1.823c-10.038-1.341-25.112,9.519-31.132,14.262
			c-2.576-0.244-5.176-0.405-7.818-0.405c-40.25,0-73.493,29.032-78.765,66.693c-8.015-3.536-11.091-9.146-12.157-13.587
			c2.535,0.464,4.975,0.172,7.316-0.882c5.5-2.48,8.381-8.993,7.567-12.004c-0.582-2.148-2.123-6.024-5.922-7.831
			c-1.875-0.893-5.005-1.559-9.274,0.336c-2.864,1.273-5.105,4.349-6.348,8.314c-2.712-2.584-5.941-6.442-9.705-12.15
			c-1.095-1.659-3.324-2.118-4.988-1.025c-1.659,1.095-2.118,3.328-1.024,4.987c5.121,7.766,10.014,13.333,14.652,16.683
			c0.016,0.403,0.041,0.807,0.076,1.213c0.45,5.346,3.285,17.681,19.135,23.465c-0.038,0.985-0.077,1.969-0.077,2.963
			c0,42.623,35.6,77.175,79.515,77.175c32.603,0,60.608-19.053,72.88-46.305h11.765v-51.45H190.529z M25.582,69.066
			c0.973-0.434,2.333-0.856,3.257-0.417c0.882,0.42,1.539,1.603,1.916,2.718c-0.32,1.069-1.718,3.76-4.281,4.34
			c-0.77,0.178-2.03,0.216-3.804-0.483C23.234,71.796,24.652,69.479,25.582,69.066z"/>
		<g>
			<ellipse fill="#CF6E57" cx="198.54" cy="112.08" rx="10.26" ry="25.725"/>
			<path fill="#CF6E57" d="M162.631,87.899c-1.988,0-3.6,1.612-3.6,3.6c0,6.527-5.289,11.835-11.791,11.835
				s-11.79-5.309-11.79-11.835c0-1.988-1.612-3.6-3.6-3.6s-3.6,1.612-3.6,3.6c0,10.496,8.518,19.035,18.99,19.035
				c10.471,0,18.991-8.539,18.991-19.035C166.231,89.511,164.619,87.899,162.631,87.899z"/>
			<path fill="#CF6E57" d="M124.139,42.312c-3.366-0.476-6.813-0.717-10.244-0.717c-16.254,0-31.631,5.251-44.469,15.184
				c-1.572,1.216-1.861,3.479-0.643,5.05c0.709,0.918,1.774,1.397,2.849,1.397c0.769,0,1.545-0.246,2.201-0.752
				c11.565-8.949,25.418-13.679,40.062-13.679c3.095,0,6.202,0.218,9.235,0.647c1.971,0.285,3.791-1.092,4.069-3.06
				C127.477,44.413,126.107,42.592,124.139,42.312z"/>
		</g>
		<path fill-rule="evenodd" clip-rule="evenodd" fill="#FFB100" d="M87.942,50.296c5.186-2.106,10.677-3.594,16.399-4.388
			c6.558-4.55,10.86-12.123,10.86-20.709c0-13.918-11.283-25.2-25.2-25.2c-13.917,0-25.2,11.282-25.2,25.2
			C64.801,38.423,74.99,49.246,87.942,50.296z"/>
	</g>
</g>
</svg>
