<?xml version="1.0" encoding="utf-8"?>
<!-- Generator: Adobe Illustrator 17.0.0, SVG Export Plug-In . SVG Version: 6.00 Build 0)  -->
<!DOCTYPE svg PUBLIC "-//W3C//DTD SVG 1.1//EN" "http://www.w3.org/Graphics/SVG/1.1/DTD/svg11.dtd">
<svg version="1.1" id="Livello_1" xmlns="http://www.w3.org/2000/svg" xmlns:xlink="http://www.w3.org/1999/xlink" x="0px" y="0px"
	 width="229.681px" height="213.84px" viewBox="0 0 229.681 213.84" enable-background="new 0 0 229.681 213.84"
	 xml:space="preserve">
<g>
	<g>
		<polygon fill-rule="evenodd" clip-rule="evenodd" fill="#F6CFC3" points="166.5,174.224 166.5,173.58 74.58,173.58 74.58,174.224 
			60.391,174.224 60.391,213.84 111.178,213.84 111.178,190.359 128.106,190.359 128.106,213.84 178.894,213.84 178.894,174.224 		
			"/>
		<path fill-rule="evenodd" clip-rule="evenodd" fill="#CF6E57" d="M166.5,173.58H74.58v0.644l-14.19-5.594v5.594
			c13.019,14.517,30.764,31.039,50.787,34.314v-18.179h16.929v19.23c19.108-0.614,36.678-13.834,50.787-24.892v-10.472H166.5V173.58
			z"/>
		<path fill="#F6CFC3" d="M209.582,94.991c-5.999-21.086-20.199-38.83-39.02-49.925c-1.202-5.856-2.276-15.562,0.652-22.01
			c0.518-1.143,0.465-2.461-0.142-3.558c-0.608-1.096-1.699-1.839-2.941-2.005c-11.042-1.475-27.623,10.47-34.245,15.688
			c-2.833-0.269-5.694-0.445-8.6-0.445c-44.274,0-80.842,31.935-86.642,73.362c-8.817-3.889-12.2-10.06-13.372-14.945
			c2.788,0.51,5.472,0.189,8.048-0.971c6.05-2.728,9.219-9.892,8.323-13.205c-0.64-2.363-2.336-6.626-6.514-8.614
			c-2.062-0.982-5.506-1.715-10.202,0.369c-3.151,1.4-5.615,4.784-6.983,9.146c-2.984-2.842-6.536-7.087-10.675-13.365
			c-1.205-1.825-3.656-2.33-5.487-1.127c-1.825,1.205-2.33,3.66-1.126,5.486c5.633,8.543,11.016,14.666,16.117,18.352
			c0.017,0.443,0.045,0.888,0.083,1.334c0.495,5.88,3.614,19.449,21.049,25.811c-0.042,1.083-0.085,2.166-0.085,3.259
			c0,46.885,39.16,84.893,87.467,84.893c35.863,0,66.669-20.958,80.168-50.936h12.942V94.991H209.582z M28.14,75.973
			c1.07-0.478,2.566-0.942,3.583-0.458c0.97,0.462,1.693,1.763,2.108,2.989c-0.352,1.176-1.89,4.136-4.709,4.774
			c-0.847,0.195-2.233,0.238-4.184-0.532C25.557,78.976,27.117,76.427,28.14,75.973z"/>
		<g>
			<ellipse fill="#CF6E57" cx="218.394" cy="123.288" rx="11.286" ry="28.297"/>
			<path fill="#CF6E57" d="M178.894,96.689c-2.187,0-3.96,1.773-3.96,3.96c0,7.179-5.818,13.019-12.97,13.019
				s-12.969-5.839-12.969-13.019c0-2.187-1.773-3.96-3.96-3.96c-2.187,0-3.96,1.773-3.96,3.96c0,11.545,9.37,20.939,20.889,20.939
				s20.89-9.393,20.89-20.939C182.854,98.462,181.081,96.689,178.894,96.689z"/>
			<path fill="#CF6E57" d="M136.553,46.544c-3.703-0.524-7.495-0.789-11.268-0.789c-17.879,0-34.794,5.776-48.916,16.702
				c-1.73,1.338-2.047,3.827-0.708,5.555c0.78,1.009,1.951,1.537,3.134,1.537c0.846,0,1.7-0.271,2.421-0.828
				c12.721-9.844,27.96-15.047,44.069-15.047c3.404,0,6.822,0.24,10.158,0.712c2.169,0.313,4.17-1.201,4.476-3.366
				C140.225,48.854,138.718,46.851,136.553,46.544z"/>
		</g>
		<path fill-rule="evenodd" clip-rule="evenodd" fill="#FFB100" d="M96.736,55.326c5.705-2.317,11.745-3.953,18.039-4.826
			c7.213-5.005,11.946-13.335,11.946-22.779C126.721,12.411,114.31,0,99.001,0c-15.309,0-27.72,12.411-27.72,27.72
			C71.281,42.265,82.489,54.171,96.736,55.326z"/>
	</g>
</g>
</svg>
