<?xml version="1.0" encoding="utf-8"?>
<!-- Generator: Adobe Illustrator 17.0.0, SVG Export Plug-In . SVG Version: 6.00 Build 0)  -->
<!DOCTYPE svg PUBLIC "-//W3C//DTD SVG 1.1//EN" "http://www.w3.org/Graphics/SVG/1.1/DTD/svg11.dtd">
<svg version="1.1" id="Livello_1" xmlns="http://www.w3.org/2000/svg" xmlns:xlink="http://www.w3.org/1999/xlink" x="0px" y="0px"
	 width="495.691px" height="562.482px" viewBox="0 0 495.691 562.482" enable-background="new 0 0 495.691 562.482"
	 xml:space="preserve">
<g>
	
		<rect x="209.494" y="48.9" transform="matrix(0.071 0.9975 -0.9975 0.071 289.0285 -184.531)" fill="#F3A100" width="68.172" height="28"/>
	<g>
		<path fill="#F3A100" d="M66,562.105c9,5.795,53-57.205,53-57.205l-31-26C88,478.9,57,556.31,66,562.105z"/>
		<path fill="#F3A100" d="M437.707,458.9l-31,26c0,0,44,63,53,57.205S437.707,458.9,437.707,458.9z"/>
	</g>
	<path fill-rule="evenodd" clip-rule="evenodd" fill="#F5AF00" d="M30.635,406.814c-45.329-123.262,18.773-260.272,143.176-306.021
		s261.998,17.088,307.327,140.35s-18.773,260.272-143.176,306.021S75.964,530.076,30.635,406.814z"/>
	<path fill-rule="evenodd" clip-rule="evenodd" fill="#F3A100" d="M58.807,394.108c-39.033-106.142,17.22-224.51,125.644-264.383
		s227.963,13.849,266.996,119.991s-17.22,224.51-125.644,264.383S97.84,500.25,58.807,394.108z"/>
	<path fill-rule="evenodd" clip-rule="evenodd" fill="#FFFFFF" d="M58.807,394.108c-38.194-103.859,17.814-220.037,125.097-259.49
		s225.216,12.759,263.41,116.618c38.194,103.86-17.814,220.037-125.097,259.49S97.001,497.968,58.807,394.108z"/>
	<path fill-rule="evenodd" clip-rule="evenodd" fill="#3F2416" d="M98.121,320.651l32.77,23.968l-3.899-16.602l105.981,2.832
		c1.096,12.408,8.748,23.851,20.963,29.2c17.822,7.806,38.598-0.314,46.404-18.136c7.806-17.822-0.314-38.598-18.136-46.404
		c-1.162-0.509-2.337-0.943-3.519-1.318l11.344-72.175l12.375,5.42l-15.869-40.603l-19.934,34.537l14.733-0.75l-11.32,72.015
		c-14.254-0.784-28.149,7.164-34.213,21.01c-1.204,2.75-1.986,5.571-2.455,8.403l-105.753-2.826l7.099-16.208L98.121,320.651z"/>
	<g>
		<path fill-rule="evenodd" clip-rule="evenodd" fill="#F5AF00" d="M419,77.9c-15.255,0-29.374,4.929-40.948,13.29
			c41.554,21.308,77.442,53.636,102.817,94.764c5.804-10.507,9.13-22.631,9.13-35.554C490,110.359,458.212,77.9,419,77.9z"/>
		<path fill-rule="evenodd" clip-rule="evenodd" fill="#F5AF00" d="M0,169.4c0,17,5.745,32.62,15.34,44.983
			c19.651-42.755,50.748-80.357,90.995-107.856C95.927,100.414,83.869,96.9,71,96.9C31.788,96.9,0,129.359,0,169.4z"/>
	</g>
	<circle fill-rule="evenodd" clip-rule="evenodd" fill="#F5AF00" cx="241.16" cy="28.9" r="28.9"/>
</g>
</svg>
