<?xml version="1.0" encoding="utf-8"?>
<!-- Generator: Adobe Illustrator 17.0.0, SVG Export Plug-In . SVG Version: 6.00 Build 0)  -->
<!DOCTYPE svg PUBLIC "-//W3C//DTD SVG 1.1//EN" "http://www.w3.org/Graphics/SVG/1.1/DTD/svg11.dtd">
<svg version="1.1" id="Livello_1" xmlns="http://www.w3.org/2000/svg" xmlns:xlink="http://www.w3.org/1999/xlink" x="0px" y="0px"
	 width="205.884px" height="212.712px" viewBox="0 0 205.884 212.712" enable-background="new 0 0 205.884 212.712"
	 xml:space="preserve">
<g>
	<path fill="#DDDCDA" d="M0.193,49.833C3.692,21.842,28.698,0,59.046,0c32.743,0,59.288,25.507,59.288,56.649
		c0,0.354-0.021,0.465-0.028,1.315h0.038v134.3H0.193V63.011v-5.047V49.833z"/>
	<path fill="#FDE6D2" d="M56.738,123.898c12.243,0,19.985-6.528,20.33-6.827c0,0,9.563-2.656,10.222-4.385
		c0.659-1.729-4.337-8.481-5.599-8.893c-0.815-0.266-3.933,3.677-6.041,6.506c0,0-0.794-5.682-2.523-5.106
		c-1.729,0.576,0.512,7.877,0.512,7.877c-0.075,0.062-7.628,6.371-19.167,5.471c-11.477-0.883-19.868-12.606-19.952-12.725
		l-4.308,3.036c0.399,0.566,9.933,13.872,23.855,14.943C54.979,123.865,55.871,123.898,56.738,123.898z"/>
	<path fill="#F29199" d="M0,94.4l36.148,3.3c0,0,8.852,39.841-36.148,42.281V94.4z"/>
	<path fill="#FDE6D2" d="M0.193,49.737c0.033-0.267,0.061-0.541,0.098-0.804l11.49-2.282c0,0,20.421,4.42,26.926,7.684
		c6.505,3.264,8.358,13.104,8.358,13.104s3.849-0.885,5.229,3.17c1.379,4.055-4.313,5.453-4.313,5.453s3.284,27.845-27.904,28.323
		l-5.34,9.05l-2.167-8.238c0,0-8.128-1.822-12.378-5.54V63.011v-5.047V49.737z"/>
	
		<ellipse transform="matrix(-0.9434 0.3315 -0.3315 -0.9434 70.3115 129.2231)" fill="#3F2314" cx="24.133" cy="70.609" rx="3.788" ry="5.599"/>
	
		<ellipse transform="matrix(-0.981 0.194 -0.194 -0.981 91.9659 123.3736)" fill="#3F2314" cx="39.943" cy="66.189" rx="3.409" ry="5.039"/>
	<ellipse fill="#F29199" cx="18.039" cy="83.455" rx="3.788" ry="2.47"/>
	<g>
		<rect x="84" y="202.356" width="27" height="3"/>
		<rect x="84" y="197.356" fill="#FFFFFF" width="27" height="5"/>
		<path d="M111,197.356H84.496c0,0-0.101-3.743,4.29-7.257c4.392-3.513,8.454-3.743,8.454-3.743H111V197.356z"/>
	</g>
	<path fill="#3F2314" d="M43.353,79.337L25.78,82.705c0,0,2.897,8.325,10.753,7.008S43.353,79.337,43.353,79.337z"/>
	<path fill="#80A7D0" d="M185.293,161.226l-53.029-4.508c-20.751-1.784-35.024,29.637-35.024,29.637h13.606
		c0,0,13.184-23.272,36.02-16.849c22.837,6.423,31.162,21.918,31.162,21.918l13.653-4.303L185.293,161.226z"/>
	<g>
		<rect x="171.01" y="206.36" transform="matrix(0.9562 -0.2928 0.2928 0.9562 -52.7254 63.0326)" width="26.35" height="2.55"/>
		
			<rect x="169.89" y="201.428" transform="matrix(0.9562 -0.2928 0.2928 0.9562 -51.7036 62.5444)" fill="#FFFFFF" width="26.35" height="5.1"/>
		<path d="M194.916,197.682l-25.195,7.716c0,0-1.119-3.598,2.051-8.244s6.98-6.079,6.98-6.079l12.928-3.959L194.916,197.682z"/>
	</g>
	<polygon fill="#FFB100" points="174.533,109.356 145.548,109.356 132.264,156.401 185.293,160.972 	"/>
	<path fill="#FDE6D2" d="M150.825,131.144c-0.489-2.126-2.616-3.456-4.733-2.97c-0.318,0.075-32.012,6.992-49.351-15.369
		c-13.119-16.915-12.952-36.84-11.957-46.155c3.883-1.087,6.747-4.614,6.747-8.844c0-5.093-4.129-9.222-9.222-9.222
		c-5.093,0-9.223,4.129-9.223,9.222c0,3.087,1.531,5.803,3.86,7.477c-1.236,10.378-1.623,32.803,13.548,52.367
		c12.682,16.354,31.095,19.573,43.627,19.573c7.697,0,13.175-1.215,13.745-1.346C149.99,135.388,151.313,133.27,150.825,131.144z"/>
	<circle fill="#FFB100" cx="82.308" cy="47.268" r="13.175"/>
	<path fill="#3F2314" d="M135.58,97.52l-2.781-11.504c0,0,12.82-7.788,16.243,0.117S135.58,97.52,135.58,97.52z"/>
	<path fill="#FDE6D2" d="M196.671,100.747c-10.545,16.704-32.134,22.012-48.22,11.857c-5.915-3.734-10.262-9.039-12.871-15.084
		c0,0,11.066-2.713,9.749-10.398l-12.53-1.105c-0.16-2.31-0.098-4.649,0.195-6.982c0,0-4.683-1.025-4.134-5.197
		c0.549-4.172,6.076-2.799,6.076-2.799c0.887-2.421,2.044-4.79,3.48-7.065c10.545-16.704,32.134-22.012,48.22-11.857
		S207.215,84.044,196.671,100.747z"/>
	<path d="M203.216,90.042c7.64-20.732-1.688-43.258-20.834-50.313c-6.34-2.336-12.876-2.179-19.261-1.349
		c-13.456,1.751-17.622-13.794-21.13-11.754c-3.662,2.129-3.47,22.946,6.923,26.48l47.357,15.186l-5.473,20.948
		c0,0,6.352-0.911,5.803,5.677c-0.549,6.588-8.361,4.116-8.361,4.116l-3.621,13.574C192.696,108.006,199.627,99.783,203.216,90.042z
		"/>
	
		<ellipse transform="matrix(0.9116 0.411 -0.411 0.9116 43.146 -53.0047)" fill="#3F2314" cx="144.84" cy="73.837" rx="3.683" ry="6.148"/>
	<path fill="#492C1D" d="M0.193,49.691c0.443-3.539,1.217-6.995,2.298-10.259c2.676-1.406,6.919-3.135,12.584-3.321
		c10.046-0.329,16.469,9.014,21.245,9.179c4.776,0.165,1.647-7.762,1.647-7.762s7.931,3.401,8.07,10.529
		c0.096,4.941-3.623,9.711-13.505,9.711s-21.851-6.92-21.851-6.92L0.193,72.16v-8.671v-5.525V49.691z"/>
</g>
</svg>
