<?xml version="1.0" encoding="utf-8"?>
<!-- Generator: Adobe Illustrator 17.0.0, SVG Export Plug-In . SVG Version: 6.00 Build 0)  -->
<!DOCTYPE svg PUBLIC "-//W3C//DTD SVG 1.1//EN" "http://www.w3.org/Graphics/SVG/1.1/DTD/svg11.dtd">
<svg version="1.1" id="Livello_1" xmlns="http://www.w3.org/2000/svg" xmlns:xlink="http://www.w3.org/1999/xlink" x="0px" y="0px"
	 width="74.354px" height="84.372px" viewBox="0 0 74.354 84.372" enable-background="new 0 0 74.354 84.372" xml:space="preserve">
<g>
	
		<rect x="31.424" y="7.335" transform="matrix(0.071 0.9975 -0.9975 0.071 43.3543 -27.6797)" fill="#F3A100" width="10.226" height="4.2"/>
	<g>
		<path fill="#F3A100" d="M9.9,84.316c1.35,0.869,7.95-8.581,7.95-8.581l-4.65-3.9C13.2,71.835,8.55,83.447,9.9,84.316z"/>
		<path fill="#F3A100" d="M65.656,68.835l-4.65,3.9c0,0,6.6,9.45,7.95,8.581C70.306,80.447,65.656,68.835,65.656,68.835z"/>
	</g>
	<path fill-rule="evenodd" clip-rule="evenodd" fill="#F5AF00" d="M4.595,61.022c-6.799-18.489,2.816-39.041,21.476-45.903
		s39.3,2.563,46.099,21.052s-2.816,39.041-21.476,45.903S11.395,79.511,4.595,61.022z"/>
	<path fill-rule="evenodd" clip-rule="evenodd" fill="#F3A100" d="M8.821,59.116C2.966,43.195,11.404,25.44,27.668,19.459
		s34.194,2.077,40.049,17.999S65.134,71.134,48.87,77.115S14.676,75.038,8.821,59.116z"/>
	<path fill-rule="evenodd" clip-rule="evenodd" fill="#FFFFFF" d="M8.821,59.116c-5.729-15.579,2.672-33.006,18.765-38.924
		s33.782,1.914,39.511,17.493c5.729,15.579-2.672,33.006-18.765,38.924C32.24,82.527,14.55,74.695,8.821,59.116z"/>
	<path fill-rule="evenodd" clip-rule="evenodd" fill="#3F2416" d="M14.718,48.098l4.916,3.595l-0.585-2.49l15.897,0.425
		c0.164,1.861,1.312,3.578,3.144,4.38c2.673,1.171,5.79-0.047,6.961-2.72c1.171-2.673-0.047-5.79-2.72-6.961
		c-0.174-0.076-0.351-0.141-0.528-0.198l1.702-10.826l1.856,0.813l-2.38-6.09l-2.99,5.181l2.21-0.112l-1.698,10.802
		c-2.138-0.118-4.222,1.075-5.132,3.152c-0.181,0.412-0.298,0.836-0.368,1.26l-15.863-0.424l1.065-2.431L14.718,48.098z"/>
	<g>
		<path fill-rule="evenodd" clip-rule="evenodd" fill="#F5AF00" d="M62.85,11.685c-2.288,0-4.406,0.739-6.142,1.994
			c6.233,3.196,11.616,8.045,15.423,14.215c0.871-1.576,1.37-3.395,1.37-5.333C73.5,16.554,68.732,11.685,62.85,11.685z"/>
		<path fill-rule="evenodd" clip-rule="evenodd" fill="#F5AF00" d="M0,25.41c0,2.55,0.862,4.893,2.301,6.747
			c2.948-6.413,7.612-12.053,13.649-16.178c-1.561-0.917-3.37-1.444-5.3-1.444C4.768,14.535,0,19.404,0,25.41z"/>
	</g>
	<circle fill-rule="evenodd" clip-rule="evenodd" fill="#F5AF00" cx="36.174" cy="4.335" r="4.335"/>
</g>
</svg>
