<?xml version="1.0" encoding="utf-8"?>
<!-- Generator: Adobe Illustrator 17.0.0, SVG Export Plug-In . SVG Version: 6.00 Build 0)  -->
<!DOCTYPE svg PUBLIC "-//W3C//DTD SVG 1.1//EN" "http://www.w3.org/Graphics/SVG/1.1/DTD/svg11.dtd">
<svg version="1.1" id="Livello_1" xmlns="http://www.w3.org/2000/svg" xmlns:xlink="http://www.w3.org/1999/xlink" x="0px" y="0px"
	 width="77.744px" height="80.08px" viewBox="0 0 77.744 80.08" enable-background="new 0 0 77.744 80.08" xml:space="preserve">
<g>
	<path fill="#DDDCDA" d="M0.308,18.761C1.625,8.223,11.039,0,22.464,0c12.327,0,22.32,9.602,22.32,21.327
		c0,0.133-0.008,0.175-0.011,0.495h0.014v50.56H0.308v-48.66v-1.9V18.761z"/>
	<path fill="#FDE6D2" d="M21.595,46.644c4.609,0,7.524-2.458,7.654-2.57c0,0,3.6-1,3.848-1.651c0.248-0.651-1.633-3.193-2.108-3.348
		c-0.307-0.1-1.481,1.384-2.274,2.449c0,0-0.299-2.139-0.95-1.922c-0.651,0.217,0.193,2.965,0.193,2.965
		c-0.028,0.023-2.872,2.399-7.216,2.06c-4.321-0.332-7.48-4.746-7.511-4.79l-1.622,1.143c0.15,0.213,3.739,5.223,8.981,5.626
		C20.933,46.631,21.269,46.644,21.595,46.644z"/>
	<path fill="#F29199" d="M0,35.539l13.609,1.242c0,0,3.391,14.999-13.609,15.918V35.539z"/>
	<path fill="#FDE6D2" d="M0.308,18.725c0.012-0.101,0.023-0.204,0.037-0.303l4.326-0.859c0,0,7.688,1.664,10.137,2.893
		c2.449,1.229,3.147,4.933,3.147,4.933s1.449-0.333,1.968,1.193c0.519,1.527-1.624,2.053-1.624,2.053s1.236,10.483-10.505,10.663
		l-2.01,3.407l-0.816-3.101c0,0-3.06-0.686-4.66-2.086V23.722v-1.9V18.725z"/>
	
		<ellipse transform="matrix(-0.9434 0.3315 -0.3315 -0.9434 26.9268 48.5708)" fill="#3F2314" cx="9.32" cy="26.582" rx="1.426" ry="2.108"/>
	
		<ellipse transform="matrix(-0.981 0.194 -0.194 -0.981 35.0879 46.401)" fill="#3F2314" cx="15.272" cy="24.918" rx="1.284" ry="1.897"/>
	<ellipse fill="#F29199" cx="7.026" cy="31.418" rx="1.426" ry="0.93"/>
	<g>
		<rect x="32" y="76.04" width="10" height="1"/>
		<rect x="32" y="74.04" fill="#FFFFFF" width="10" height="2"/>
		<path d="M42,74.04h-9.955c0,0-0.038-1.339,1.615-2.661c1.653-1.323,3.183-1.339,3.183-1.339H42V74.04z"/>
	</g>
	<path fill="#3F2314" d="M16.556,29.868L9.94,31.136c0,0,1.091,3.134,4.048,2.638C16.946,33.278,16.556,29.868,16.556,29.868z"/>
	<path fill="#80A7D0" d="M69.992,60.697l-19.964-1.756C42.216,58.269,36.843,70.04,36.843,70.04h5.122c0,0,4.963-8.702,13.561-6.284
		c8.597,2.418,11.731,8.281,11.731,8.281l5.14-1.605L69.992,60.697z"/>
	<g>
		<rect x="64.615" y="77.688" transform="matrix(0.9562 -0.2928 0.2928 0.9562 -19.8393 23.7987)" width="9.92" height="0.96"/>
		
			<rect x="64.194" y="75.832" transform="matrix(0.9562 -0.2928 0.2928 0.9562 -19.4546 23.6149)" fill="#FFFFFF" width="9.92" height="1.92"/>
		<path d="M73.615,74.421l-9.485,2.905c0,0-0.421-1.355,0.772-3.104s2.628-2.288,2.628-2.288l4.867-1.49L73.615,74.421z"/>
	</g>
	<polygon fill="#FFB100" points="65.942,41.04 55.03,41.04 50.028,58.816 69.992,60.504 	"/>
	<path fill="#FDE6D2" d="M57.016,49.372c-0.184-0.8-0.985-1.301-1.782-1.118c-0.12,0.028-12.052,2.632-18.579-5.786
		c-4.939-6.368-4.876-13.869-4.501-17.376c1.462-0.409,2.54-1.737,2.54-3.329c0-1.918-1.554-3.472-3.472-3.472
		s-3.472,1.554-3.472,3.472c0,1.162,0.576,2.185,1.453,2.815c-0.465,3.907-0.611,12.349,5.1,19.715
		c4.774,6.157,11.706,7.369,16.424,7.369c2.898,0,4.96-0.457,5.175-0.507C56.702,50.969,57.2,50.172,57.016,49.372z"/>
	<circle fill="#FFB100" cx="31.222" cy="17.795" r="4.96"/>
	<path fill="#3F2314" d="M51.277,36.714l-1.047-4.331c0,0,4.826-2.932,6.115,0.044C57.634,35.403,51.277,36.714,51.277,36.714z"/>
	<path fill="#FDE6D2" d="M74.276,37.928c-3.97,6.288-12.097,8.287-18.153,4.464c-2.227-1.406-3.863-3.403-4.845-5.679
		c0,0,4.166-1.021,3.67-3.915l-4.717-0.416c-0.06-0.869-0.037-1.75,0.073-2.629c0,0-1.763-0.386-1.556-1.957
		c0.207-1.571,2.288-1.054,2.288-1.054c0.334-0.911,0.77-1.803,1.31-2.66c3.97-6.288,12.097-8.287,18.153-4.464
		C76.554,23.443,78.245,31.64,74.276,37.928z"/>
	<path d="M76.74,33.898c2.876-7.805-0.635-16.285-7.843-18.941c-2.387-0.88-4.847-0.821-7.251-0.508
		c-5.066,0.659-6.634-5.193-7.955-4.425c-1.379,0.802-1.306,8.639,2.606,9.969l17.828,5.717l-2.061,7.886
		c0,0,2.391-0.343,2.185,2.137c-0.207,2.48-3.148,1.55-3.148,1.55l-1.363,5.11C72.78,40.661,75.389,37.565,76.74,33.898z"/>
	
		<ellipse transform="matrix(0.9116 0.411 -0.411 0.9116 16.264 -20.0513)" fill="#3F2314" cx="54.763" cy="27.798" rx="1.387" ry="2.315"/>
	<path fill="#492C1D" d="M0.308,18.707c0.167-1.332,0.458-2.634,0.865-3.862c1.008-0.529,2.605-1.18,4.737-1.25
		c3.782-0.124,6.2,3.394,7.998,3.456c1.798,0.062,0.62-2.922,0.62-2.922s2.986,1.281,3.038,3.964
		c0.036,1.86-1.364,3.656-5.084,3.656s-8.226-2.605-8.226-2.605l-3.948,8.023v-3.264v-2.08V18.707z"/>
</g>
</svg>
