<?xml version="1.0" encoding="utf-8"?>
<!-- Generator: Adobe Illustrator 17.0.0, SVG Export Plug-In . SVG Version: 6.00 Build 0)  -->
<!DOCTYPE svg PUBLIC "-//W3C//DTD SVG 1.1//EN" "http://www.w3.org/Graphics/SVG/1.1/DTD/svg11.dtd">
<svg version="1.1" id="Livello_1" xmlns="http://www.w3.org/2000/svg" xmlns:xlink="http://www.w3.org/1999/xlink" x="0px" y="0px"
	 width="348.001px" height="324px" viewBox="0 0 348.001 324" enable-background="new 0 0 348.001 324" xml:space="preserve">
<g>
	<g>
		<polygon fill-rule="evenodd" clip-rule="evenodd" fill="#F6CFC3" points="95.729,263.975 95.729,263 235,263 235,263.975 
			256.5,263.975 256.5,324 179.55,324 179.55,288.423 153.901,288.423 153.901,324 76.95,324 76.95,263.975 		"/>
		<path fill-rule="evenodd" clip-rule="evenodd" fill="#CF6E57" d="M95.729,263H235v0.976l21.5-8.475v8.475
			c-19.726,21.995-46.612,47.029-76.95,51.991v-27.543h-25.65v29.136c-28.952-0.931-55.573-20.961-76.95-37.716v-15.867h18.778V263z
			"/>
		<path fill="#F6CFC3" d="M17.101,143.926v85.749h19.608c20.453,45.42,67.128,77.175,121.466,77.175
			c73.191,0,132.525-57.587,132.525-128.625c0-1.656-0.064-3.297-0.129-4.938c26.416-9.64,31.142-30.198,31.892-39.108
			c0.057-0.677,0.1-1.351,0.126-2.021c7.73-5.584,15.886-14.862,24.42-27.806c1.824-2.766,1.059-6.486-1.707-8.312
			c-2.773-1.822-6.488-1.058-8.313,1.708c-6.272,9.513-11.654,15.943-16.175,20.25c-2.073-6.609-5.807-11.736-10.581-13.857
			c-7.115-3.158-12.333-2.048-15.457-0.56c-6.331,3.012-8.9,9.472-9.87,13.052c-1.358,5.019,3.444,15.873,12.611,20.007
			c3.902,1.758,7.969,2.244,12.193,1.471c-1.777,7.402-6.903,16.752-20.261,22.645c-8.788-62.768-64.193-111.155-131.276-111.155
			c-4.403,0-8.738,0.267-13.031,0.674c-10.034-7.906-35.157-26.005-51.887-23.77c-1.882,0.252-3.535,1.377-4.456,3.038
			c-0.92,1.661-1,3.659-0.215,5.391c4.435,9.771,2.809,24.476,0.987,33.349c-28.516,16.811-50.032,43.695-59.121,75.643H17.101z
			 M310.218,125.373c-2.956,1.166-5.057,1.102-6.34,0.806c-4.271-0.967-6.602-5.452-7.135-7.233
			c0.628-1.857,1.724-3.829,3.193-4.529c1.541-0.732,3.807-0.029,5.429,0.694C306.914,115.799,309.279,119.66,310.218,125.373z"/>
		<g>
			<ellipse fill="#CF6E57" cx="17.101" cy="186.8" rx="17.1" ry="42.875"/>
			<path fill="#CF6E57" d="M76.95,146.499c3.313,0,6,2.687,6,6c0,10.878,8.815,19.726,19.651,19.726s19.649-8.848,19.649-19.726
				c0-3.313,2.687-6,6-6s6,2.687,6,6c0,17.493-14.197,31.726-31.649,31.726S70.95,169.992,70.95,152.499
				C70.95,149.186,73.637,146.499,76.95,146.499z"/>
			<path fill="#CF6E57" d="M141.103,70.521c5.61-0.794,11.355-1.195,17.073-1.195c27.089,0,52.718,8.751,74.115,25.307
				c2.621,2.027,3.101,5.798,1.072,8.417c-1.182,1.529-2.956,2.329-4.749,2.329c-1.282,0-2.575-0.41-3.668-1.254
				c-19.274-14.915-42.363-22.799-66.771-22.799c-5.158,0-10.336,0.363-15.391,1.078c-3.286,0.475-6.318-1.819-6.782-5.101
				C135.539,74.021,137.823,70.986,141.103,70.521z"/>
		</g>
		<path fill-rule="evenodd" clip-rule="evenodd" fill="#FFB100" d="M201.431,83.827c-8.644-3.51-17.796-5.99-27.332-7.312
			C163.17,68.931,156,56.31,156,42c0-23.196,18.804-42,42-42c23.195,0,42,18.804,42,42C240,64.038,223.018,82.077,201.431,83.827z"
			/>
	</g>
</g>
</svg>
