<?xml version="1.0" encoding="utf-8"?>
<!-- Generator: Adobe Illustrator 17.0.0, SVG Export Plug-In . SVG Version: 6.00 Build 0)  -->
<!DOCTYPE svg PUBLIC "-//W3C//DTD SVG 1.1//EN" "http://www.w3.org/Graphics/SVG/1.1/DTD/svg11.dtd">
<svg version="1.1" id="Livello_1" xmlns="http://www.w3.org/2000/svg" xmlns:xlink="http://www.w3.org/1999/xlink" x="0px" y="0px"
	 width="286.983px" height="321.857px" viewBox="0 0 286.983 321.857" enable-background="new 0 0 286.983 321.857"
	 xml:space="preserve">
<g>
	
		<rect x="103.071" y="26.347" transform="matrix(0.2506 0.9681 -0.9681 0.2506 124.2552 -92.4159)" fill="#F3A100" width="37.495" height="15.4"/>
	<g>
		<path fill="#F3A100" d="M75.518,321.763c5.446,2.237,22.966-36.224,22.966-36.224l-19.359-10.974
			C79.125,274.565,70.073,319.525,75.518,321.763z"/>
		<path fill="#F3A100" d="M266.287,228.894l-14.176,17.153c0,0,30.078,29.691,34.369,25.66
			C290.769,267.675,266.287,228.894,266.287,228.894z"/>
	</g>
	<path fill-rule="evenodd" clip-rule="evenodd" fill="#F5AF00" d="M40.913,241.291C4.11,179.137,25.128,98.641,87.857,61.497
		s143.416-16.869,180.219,45.285s15.785,142.651-46.944,179.794S77.716,303.445,40.913,241.291z"/>
	<path fill-rule="evenodd" clip-rule="evenodd" fill="#F3A100" d="M54.884,231.611C23.193,178.09,41.823,108.458,96.495,76.086
		s124.684-15.229,156.376,38.293s13.061,123.153-41.611,155.526S86.576,285.133,54.884,231.611z"/>
	<path fill-rule="evenodd" clip-rule="evenodd" fill="#FFFFFF" d="M54.884,231.611c-31.01-52.37-12.294-120.792,41.803-152.825
		s123.09-15.545,154.1,36.826c31.01,52.371,12.294,120.792-41.803,152.825S85.894,283.982,54.884,231.611z"/>
	<path fill-rule="evenodd" clip-rule="evenodd" fill="#3F2416" d="M68.828,187.96l20.114,9.698l-3.764-8.591l57.607-9.03
		c1.83,6.602,7.109,12.029,14.249,13.705c10.418,2.446,20.846-4.017,23.292-14.435c2.446-10.418-4.017-20.846-14.435-23.292
		c-0.679-0.159-1.358-0.277-2.035-0.362l-1.057-40.17l7.233,1.698l-12.63-20.38l-7.34,20.668l7.894-1.874l1.055,40.081
		c-7.788,0.996-14.511,6.68-16.412,14.774c-0.377,1.607-0.519,3.211-0.49,4.79l-57.483,9.011l2.224-9.474L68.828,187.96z"/>
	<g>
		<path fill-rule="evenodd" clip-rule="evenodd" fill="#F5AF00" d="M218.197,24.678c-8.251,1.52-15.397,5.594-20.824,11.27
			c24.6,7.384,47.234,21.293,65.058,41.01c2.092-6.262,2.683-13.151,1.395-20.141C259.835,35.159,239.406,20.77,218.197,24.678z"/>
		<path fill-rule="evenodd" clip-rule="evenodd" fill="#F5AF00" d="M0.681,115.928C2.375,125.123,7.039,133,13.462,138.73
			c6.368-25.085,19.441-48.522,38.47-67.408c-6.239-2.269-13.111-2.968-20.072-1.685C10.649,73.545-3.31,94.271,0.681,115.928z"/>
	</g>
	<circle fill-rule="evenodd" clip-rule="evenodd" fill="#F5AF00" cx="117.121" cy="15.898" r="15.895"/>
</g>
</svg>
