<?xml version="1.0" encoding="utf-8"?>
<!-- Generator: Adobe Illustrator 17.0.0, SVG Export Plug-In . SVG Version: 6.00 Build 0)  -->
<!DOCTYPE svg PUBLIC "-//W3C//DTD SVG 1.1//EN" "http://www.w3.org/Graphics/SVG/1.1/DTD/svg11.dtd">
<svg version="1.1" id="Livello_1" xmlns="http://www.w3.org/2000/svg" xmlns:xlink="http://www.w3.org/1999/xlink" x="0px" y="0px"
	 width="469.073px" height="262.844px" viewBox="0 0 469.073 262.844" enable-background="new 0 0 469.073 262.844"
	 xml:space="preserve">
<g>
	<path fill="#DDDCDA" d="M227.085,58.627C231.2,25.696,260.619,0,296.323,0c38.522,0,69.75,30.008,69.75,66.646
		c0,0.416-0.025,0.547-0.033,1.547h0.044v158h-139V74.13v-5.938V58.627z"/>
	<path fill="#FDE6D2" d="M293.608,145.763c14.404,0,23.512-7.68,23.918-8.032c0,0,11.251-3.124,12.026-5.159
		c0.775-2.034-5.102-9.978-6.587-10.463c-0.959-0.313-4.627,4.326-7.107,7.654c0,0-0.934-6.685-2.968-6.007
		c-2.034,0.678,0.602,9.267,0.602,9.267c-0.088,0.073-8.975,7.496-22.549,6.436c-13.502-1.038-23.374-14.831-23.473-14.97
		l-5.068,3.572c0.469,0.666,11.686,16.32,28.065,17.58C291.539,145.723,292.588,145.763,293.608,145.763z"/>
	<path fill="#F29199" d="M226.537,111.059l42.527,3.883c0,0,10.473,46.871-42.527,49.742V111.059z"/>
	<path fill="#FDE6D2" d="M227.085,58.514c0.039-0.315,0.072-0.636,0.115-0.946l13.518-2.684c0,0,24.025,5.2,31.678,9.04
		c7.653,3.84,9.833,15.416,9.833,15.416s4.529-1.042,6.151,3.73c1.623,4.771-5.074,6.416-5.074,6.416s3.864,32.758-32.828,33.321
		l-6.282,10.647l-2.549-9.692c0,0-9.562-2.143-14.562-6.518V74.13v-5.938V58.514z"/>
	
		<ellipse transform="matrix(-0.9434 0.3315 -0.3315 -0.9434 523.6019 76.8133)" fill="#3F2314" cx="255.249" cy="83.069" rx="4.457" ry="6.588"/>
	
		<ellipse transform="matrix(-0.981 0.194 -0.194 -0.981 557.6008 101.1434)" fill="#3F2314" cx="273.849" cy="77.869" rx="4.011" ry="5.929"/>
	<ellipse fill="#F29199" cx="248.08" cy="98.182" rx="4.456" ry="2.906"/>
	<g>
		<rect x="325.537" y="238.422" width="31" height="3"/>
		<rect x="325.537" y="232.422" fill="#FFFFFF" width="31" height="6"/>
		<path d="M356.537,232.422h-30.273c0,0-0.119-4.433,5.048-8.567s9.946-4.433,9.946-4.433h15.28V232.422z"/>
	</g>
	<path fill="#3F2314" d="M277.861,93.338L257.186,97.3c0,0,3.408,9.794,12.651,8.244C279.08,103.994,277.861,93.338,277.861,93.338z
		"/>
	<path fill="#80A7D0" d="M444.849,189.678l-62.388-5.213c-24.413-2.099-41.204,34.958-41.204,34.958h16.007
		c0,0,15.51-27.469,42.377-19.913c26.867,7.556,36.661,25.741,36.661,25.741l16.062-5.085L444.849,189.678z"/>
	<g>
		<rect x="428.045" y="242.776" transform="matrix(0.9562 -0.2928 0.2928 0.9562 -52.0867 140.5828)" width="31" height="3"/>
		
			<rect x="426.728" y="236.974" transform="matrix(0.9562 -0.2928 0.2928 0.9562 -50.8845 140.0084)" fill="#FFFFFF" width="31" height="6"/>
		<path d="M456.17,232.567l-29.641,9.077c0,0-1.316-4.233,2.413-9.698c3.73-5.465,8.212-7.151,8.212-7.151l15.209-4.658
			L456.17,232.567z"/>
	</g>
	<polygon fill="#FFB100" points="432.19,129.422 398.09,129.422 382.461,184.385 444.849,189.954 	"/>
	<path fill="#FDE6D2" d="M404.298,154.287c-0.575-2.501-3.077-4.066-5.569-3.494c-0.374,0.088-37.662,8.225-58.06-18.081
		c-15.434-19.9-15.238-43.342-14.067-54.3c4.568-1.279,7.938-5.428,7.938-10.404c0-5.992-4.858-10.85-10.85-10.85
		s-10.85,4.858-10.85,10.85c0,3.632,1.801,6.827,4.541,8.797c-1.454,12.209-1.91,38.592,15.939,61.608
		c14.92,19.24,36.582,23.027,51.326,23.027c9.055,0,15.5-1.429,16.171-1.583C403.316,159.279,404.872,156.788,404.298,154.287z"/>
	<circle fill="#FFB100" cx="323.69" cy="55.609" r="15.5"/>
	<path fill="#3F2314" d="M386.363,114.73l-3.272-13.534c0,0,15.083-9.162,19.11,0.138
		C406.228,110.634,386.363,114.73,386.363,114.73z"/>
	<path fill="#FDE6D2" d="M458.234,118.526c-12.406,19.651-37.804,25.897-56.729,13.95c-6.959-4.393-12.073-10.634-15.142-17.746
		c0,0,13.019-3.192,11.469-12.233l-14.741-1.3c-0.189-2.717-0.115-5.469,0.23-8.215c0,0-5.509-1.206-4.863-6.114
		c0.646-4.908,7.148-3.294,7.148-3.294c1.044-2.848,2.405-5.635,4.095-8.312c12.406-19.651,37.804-25.897,56.729-13.95
		S470.64,98.875,458.234,118.526z"/>
	<path d="M465.935,105.932c8.988-24.391-1.986-50.892-24.51-59.192c-7.459-2.749-15.148-2.564-22.659-1.587
		c-15.831,2.059-20.732-16.228-24.859-13.828c-4.308,2.505-4.083,26.996,8.145,31.152l55.714,17.866l-6.439,24.644
		c0,0,7.473-1.072,6.827,6.678c-0.646,7.75-9.837,4.843-9.837,4.843l-4.26,15.969C453.559,127.066,461.712,117.392,465.935,105.932z
		"/>
	
		<ellipse transform="matrix(0.9116 0.411 -0.411 0.9116 70.8063 -155.5969)" fill="#3F2314" cx="397.257" cy="86.867" rx="4.333" ry="7.233"/>
	<path fill="#492C1D" d="M227.085,58.46c0.521-4.164,1.432-8.23,2.703-12.069c3.148-1.654,8.14-3.688,14.804-3.907
		c11.819-0.387,19.375,10.605,24.994,10.799c5.619,0.194,1.938-9.132,1.938-9.132s9.33,4.002,9.494,12.387
		c0.113,5.812-4.263,11.425-15.888,11.425s-25.707-8.141-25.707-8.141l-12.338,25.072V74.693v-6.5V58.46z"/>
	<g>
		<g>
			<g>
				<rect x="86.537" y="254.422" width="31" height="3"/>
				<rect x="86.537" y="247.422" fill="#FFFFFF" width="31" height="7"/>
				<path d="M86.537,247.422h31.525c0,0,0.646-3.933-4.521-8.067c-5.167-4.133-9.946-3.933-9.946-3.933H86.537V247.422z"/>
			</g>
			<g>
				<rect x="-1.366" y="252.076" transform="matrix(-0.861 -0.5086 0.5086 -0.861 -102.6938 479.1867)" width="31" height="3.1"/>
				
					<rect x="0.999" y="246.523" transform="matrix(-0.861 -0.5086 0.5086 -0.861 -96.2562 472.9388)" fill="#FFFFFF" width="31" height="6.2"/>
				<path d="M4.73,239.07l26.691,15.767c0,0,2.658-3.23,0.312-9.417c-2.346-6.187-6.461-8.617-6.461-8.617l-14.235-8.409
					L4.73,239.07z"/>
			</g>
			<path fill="#80A7D0" d="M91.195,187.566l12.4,47.857H87.062c0,0-7.879-33.777-28.933-30.29s-32.857,31.832-32.857,31.832
				l-14.235-8.49c10.925-18.676,14.025-35.089,14.025-35.089L91.195,187.566z"/>
			<polygon fill="#99D909" points="25.062,193.184 37.462,126.276 73.5,124.214 91.195,187.242 			"/>
			<path fill="#FDE6D2" d="M89.469,181.821c2.122,0,4.35-0.136,6.69-0.427c30.579-3.787,50.035-25.284,50.849-26.196
				c0,0,3.589,3.758,3.589,3.5l-0.033-21.283c-7,1.55-10.506,11.601-10.506,11.601c-0.17,0.194-18.02,19.802-45.03,23.15
				c-25.145,3.091-31.515-15.146-31.579-15.33l-8.825,2.943C57.322,167.871,67.914,181.821,89.469,181.821z"/>
			<path fill="#FDE6D2" d="M17.31,107.509c7.831,21.881,31.261,33.505,52.332,25.964c7.748-2.773,14.098-7.751,18.642-14.025
				c0,0-12.012-5.949-8.531-14.437l14.671,1.94c0.776-2.611,1.303-5.313,1.564-8.067c0,0,5.64,0.022,6.078-4.909
				c0.438-4.931-6.26-4.771-6.26-4.771c-0.399-3.007-1.121-6.024-2.187-9.004C85.787,58.32,62.357,46.696,41.285,54.237
				S9.479,85.629,17.31,107.509z"/>
			<path fill="#3F2314" d="M12.535,93.541C9.072,67.779,25.551,44.302,49.342,41.104c7.878-1.059,15.286,0.958,22.462,3.384
				c13.45,4.546,21.91-4.431,24.817-9.533c-1.744,0.71-7.169-2.325-3.035-6.2c1.502-1.285,6.394-0.185,5.167,5.683
				c-2.325,11.173-7.75,15.758-15.035,19.375c18.369,2.88,22.357-14.995,22.357-14.995s-5.793,0.627-4.867-3.54
				c0.88-3.96,7.703-3.237,6.992,3.415c-0.873,8.178-4.022,23.129-23.853,26.342l-58.267,5.31l0.92,25.455
				c0,0-7.06-2.672-8.117,5.032c-1.057,7.705,8.547,6.868,8.547,6.868l0.682,16.514C20.014,116.862,14.162,105.645,12.535,93.541z"
				/>
			
				<ellipse transform="matrix(-0.9792 0.2027 -0.2027 -0.9792 183.9142 160.9304)" fill="#3F2314" cx="83.716" cy="89.883" rx="4.333" ry="7.233"/>
		</g>
		<path opacity="0.2" fill="#FFFFFF" d="M150.612,76.044c0-40.089,19.517-66.758,41.491-60.284
			c19.681,5.799,34.433,18.609,34.433,51.432c0,0.373,0,159,0,159l-76.065,23.643l-0.136-172.433l0,0
			C150.33,77.403,150.612,76.499,150.612,76.044z"/>
	</g>
</g>
</svg>
