<?xml version="1.0" encoding="utf-8"?>
<!-- Generator: Adobe Illustrator 17.0.0, SVG Export Plug-In . SVG Version: 6.00 Build 0)  -->
<!DOCTYPE svg PUBLIC "-//W3C//DTD SVG 1.1//EN" "http://www.w3.org/Graphics/SVG/1.1/DTD/svg11.dtd">
<svg version="1.1" id="Livello_1" xmlns="http://www.w3.org/2000/svg" xmlns:xlink="http://www.w3.org/1999/xlink" x="0px" y="0px"
	 width="24px" height="24px" viewBox="0 0 24 24" enable-background="new 0 0 24 24" xml:space="preserve">
<path fill-rule="evenodd" clip-rule="evenodd" fill="#6AB5AC" d="M12,0C5.373,0,0,5.373,0,12c0,6.627,5.373,12,12,12s12-5.373,12-12
	C24,5.373,18.627,0,12,0z M17.856,10.193l-5.749,5.611c-0.228,0.223-0.527,0.332-0.826,0.331c-0.303,0.004-0.606-0.104-0.837-0.329
	L7.16,12.599c-0.453-0.443-0.453-1.16,0-1.603c0.453-0.443,1.189-0.443,1.642,0l2.473,2.414l4.939-4.82
	c0.453-0.443,1.189-0.443,1.642,0C18.31,9.032,18.31,9.75,17.856,10.193z"/>
</svg>
