<?xml version="1.0" encoding="utf-8"?>
<!-- Generator: Adobe Illustrator 17.0.0, SVG Export Plug-In . SVG Version: 6.00 Build 0)  -->
<!DOCTYPE svg PUBLIC "-//W3C//DTD SVG 1.1//EN" "http://www.w3.org/Graphics/SVG/1.1/DTD/svg11.dtd">
<svg version="1.1" id="Livello_1" xmlns="http://www.w3.org/2000/svg" xmlns:xlink="http://www.w3.org/1999/xlink" x="0px" y="0px"
	 width="172.234px" height="36.274px" viewBox="0 0 172.234 36.274" enable-background="new 0 0 172.234 36.274"
	 xml:space="preserve">
<path d="M38.702,9.169c0-3.225-6.645-5.416-8.781-0.621c-1.661-3.73-6.912-3.606-8.343,0.029l0.001-1.904
	c0-0.288-0.264-0.552-0.554-0.552h-2.981c-0.29,0-0.554,0.264-0.554,0.552v16.093c0,0.289,0.264,0.553,0.554,0.553h3.204
	c0.29,0,0.545-0.264,0.545-0.553V12.562c0-1.152,0.488-2.452,1.71-2.721c1.344-0.298,2.441,0.444,2.441,1.993l-0.001,10.932
	c0,0.289,0.264,0.553,0.554,0.553h3.258c0.29,0,0.554-0.264,0.554-0.553l0.001-10.843c0-2.459,4.1-3.094,4.1,0v10.843
	c0,0.289,0.264,0.553,0.554,0.553h3.184c0.29,0,0.554-0.264,0.554-0.553L38.702,9.169z"/>
<path d="M70.568,6.701c0-0.288-0.264-0.55-0.554-0.55h-10.54c-0.146,0-0.291,0.06-0.394,0.162c-0.103,0.104-0.149,0.247-0.149,0.393
	v2.236c0,0.286,0.28,0.543,0.568,0.543h5.54l-6.313,9.223c-0.361,0.526-0.299,0.853-0.299,0.963l0.005,2.565
	c0,0.551,0.205,0.796,0.837,0.529c3.86-1.627,7.973-1.724,11.073,0.126c0.254,0.153,0.56-0.012,0.56-0.444l0.001-2.881
	c0-0.187-0.101-0.368-0.259-0.466c-1.791-1.128-4.068-1.428-6.278-1.395l5.902-8.184c0.283-0.393,0.299-0.813,0.299-0.927
	L70.568,6.701z"/>
<path d="M82.073,14.742c0,3.118-0.112,5.646-2.465,5.646c-2.241,0-2.465-2.527-2.465-5.646c0-3.119,0.187-5.684,2.465-5.648
	C81.811,9.131,82.073,11.623,82.073,14.742z M86.817,14.686c-0.002-5.132-3.021-9.031-7.209-8.983
	c-4.212,0.048-7.215,3.992-7.209,9.019c0.006,5.153,3.068,9.096,7.284,8.982C83.878,23.591,86.819,19.67,86.817,14.686z"/>
<path d="M102.147,10.362c0-2.551-1.548-4.658-5.171-4.547c-1.681,0.051-2.991,1.326-3.719,3.131V6.628
	c0-0.291-0.264-0.553-0.554-0.553h-3.092c-0.29,0-0.554,0.262-0.554,0.553v16.153c0,0.289,0.264,0.55,0.554,0.55h3.234
	c0.29,0,0.554-0.262,0.554-0.55V12.635c0-1.511,1.297-2.786,2.494-2.833c0.987-0.036,1.974,0.909,1.974,1.977v11.003
	c0,0.289,0.263,0.55,0.553,0.55h3.174c0.29,0,0.554-0.262,0.553-0.55L102.147,10.362z"/>
<path d="M50.81,14.98v2.092c0,1.623-1.079,3.005-1.971,3.271c-1.758,0.529-2.899-0.834-2.856-2.287
	c0.055-1.835,1.673-2.956,3.039-3.007L50.81,14.98z M55.164,10.021c0-2.714-2.354-4.443-6.913-4.283
	c-2.784,0.097-5.433,1.13-6.116,4.486c-0.031,0.151,0.004,0.313,0.094,0.436c0.09,0.124,0.233,0.206,0.386,0.223l2.84,0.325
	c0.272,0.029,0.551-0.172,0.605-0.439c0.205-1.057,1.009-1.84,2.191-1.84c1.76,0,2.522,0.905,2.522,2.102v1.569l-3.508,0.267
	c-2.967,0.226-5.729,2.156-5.787,5.854c-0.053,3.405,2.213,5.028,5.307,4.87c1.842-0.097,3.449-0.883,4.666-2.236l1.751,1.945
	c0.099,0.109,0.243,0.177,0.391,0.182c0.148,0.005,0.297-0.051,0.404-0.153l2.279-2.173c0.191-0.184,0.221-0.509,0.067-0.723
	l-0.838-1.101c-0.17-0.223-0.34-1.218-0.34-1.782V10.021z"/>
<path d="M9.334,14.977v2.09c0,1.622-1.079,3.005-1.97,3.271c-1.758,0.529-2.899-0.834-2.856-2.287
	c0.054-1.836,1.673-2.954,3.039-3.007L9.334,14.977z M13.687,10.015c0-2.713-2.353-4.443-6.913-4.282
	C3.99,5.83,1.341,6.863,0.658,10.222c-0.031,0.148,0.004,0.31,0.094,0.434c0.09,0.124,0.233,0.209,0.385,0.226l2.84,0.323
	c0.272,0.031,0.551-0.17,0.605-0.439c0.205-1.057,1.01-1.838,2.191-1.838c1.76,0,2.522,0.902,2.522,2.099v1.572l-3.508,0.265
	c-2.967,0.225-5.728,2.156-5.786,5.854c-0.053,3.407,2.213,5.03,5.306,4.87c1.842-0.094,3.449-0.88,4.667-2.236l1.751,1.945
	c0.099,0.109,0.243,0.177,0.391,0.184c0.148,0.005,0.297-0.051,0.403-0.153l2.279-2.175c0.191-0.182,0.221-0.509,0.067-0.722
	l-0.838-1.099c-0.17-0.226-0.34-1.22-0.34-1.785V10.015z"/>
<path d="M107.225,22.124c0-0.858-0.697-1.554-1.557-1.554c-0.86,0-1.557,0.696-1.557,1.554c0,0.859,0.697,1.552,1.557,1.552
	C106.528,23.676,107.225,22.983,107.225,22.124z"/>
<path d="M119.585,11.926c0.095,0,0.189-0.039,0.253-0.109c0.065-0.068,0.099-0.165,0.092-0.259
	c-0.232-3.241-2.292-5.927-6.071-5.854c-4.558,0.085-6.252,4.991-6.312,8.796c-0.065,4.118,1.382,8.944,6.312,9.206
	c3.539,0.187,5.913-2.862,6.076-6.087c0.005-0.092-0.029-0.187-0.093-0.255c-0.064-0.068-0.156-0.114-0.25-0.114h-1.616
	c-0.165,0-0.321,0.124-0.345,0.289c-0.305,2.062-1.868,3.909-3.472,3.931c-2.914,0.036-3.953-4.028-3.997-6.822
	c-0.037-2.348,1.046-6.633,3.885-6.672c2.101-0.026,3.319,1.625,3.587,3.652c0.021,0.163,0.177,0.298,0.343,0.298H119.585z"/>
<path d="M139.063,22.124c0-0.858-0.697-1.554-1.557-1.554c-0.86,0-1.557,0.696-1.557,1.554c0,0.859,0.697,1.552,1.557,1.552
	C138.366,23.676,139.063,22.983,139.063,22.124z"/>
<path d="M132.396,14.708c0,3.776-1.2,6.836-4.035,6.836c-2.799-0.179-4.035-3.06-4.035-6.836c0-3.776,1.309-6.875,4.035-6.839
	C131.05,7.906,132.396,10.933,132.396,14.708z M135.268,14.689c0-4.989-2.399-8.995-6.889-9.031
	c-4.453,0.036-6.816,3.935-6.816,8.924c-0.037,5.549,2.036,8.886,6.762,9.104C132.432,23.722,135.268,20.203,135.268,14.689z"/>
<path d="M152.536,6.439c0-0.18-0.165-0.345-0.346-0.345h-1.817c-0.181,0-0.346,0.165-0.346,0.345l-0.001,10.173
	c0,0.944-0.909,4.389-3.744,4.79c-2.383,0.335-3.173-2.396-3.173-4.101l0-10.861c0-0.18-0.165-0.345-0.346-0.345h-1.915
	c-0.181,0-0.346,0.165-0.346,0.345l0.001,11.262c0,3.155,1.704,6.065,4.944,6.094c2.133,0.017,3.791-1.188,4.742-2.939v2.137
	c0,0.182,0.164,0.346,0.346,0.346h1.656c0.181,0,0.346-0.165,0.346-0.346V6.439z"/>
<path d="M167.076,6.93c0.268-0.349,0.545-0.766-0.073-0.766l-1.943-0.002c-0.103,0-0.204,0.053-0.268,0.134l-6.55,8.405l0-14.353
	c0-0.182-0.165-0.347-0.346-0.347h-1.889c-0.181,0-0.346,0.165-0.346,0.347V23c0,0.182,0.165,0.347,0.346,0.347h1.915
	c0.181,0,0.346-0.165,0.346-0.347v-4.823c0-0.078,0.026-0.153,0.072-0.214l2.992-3.883l4.125,9.065
	c0.055,0.119,0.183,0.201,0.315,0.201h2.061c0.117,0,0.231-0.063,0.293-0.162c0.062-0.1,0.069-0.23,0.018-0.335l-5.14-10.629
	L167.076,6.93z"/>
<path d="M171.076,7.205c0,0.046-0.01,0.087-0.027,0.124c-0.019,0.039-0.046,0.073-0.084,0.102c-0.037,0.027-0.086,0.051-0.142,0.066
	c-0.056,0.017-0.123,0.022-0.201,0.022h-0.286V6.892h0.247c0.058,0,0.104,0.002,0.142,0.005c0.035,0.003,0.067,0.01,0.096,0.015
	c0.092,0.022,0.157,0.058,0.196,0.109C171.055,7.069,171.076,7.132,171.076,7.205z M171.518,8.51c0-0.007-0.004-0.017-0.008-0.031
	c-0.005-0.015-0.015-0.039-0.029-0.073l-0.198-0.411c-0.025-0.046-0.048-0.087-0.069-0.126c-0.025-0.036-0.048-0.07-0.073-0.099
	c-0.025-0.027-0.054-0.051-0.083-0.072c-0.029-0.022-0.062-0.037-0.098-0.051c0.062-0.02,0.121-0.044,0.175-0.07
	c0.052-0.027,0.098-0.061,0.136-0.1c0.038-0.036,0.065-0.08,0.086-0.128c0.021-0.051,0.031-0.107,0.031-0.17
	c0-0.063-0.013-0.121-0.033-0.174c-0.023-0.054-0.056-0.1-0.1-0.141c-0.046-0.041-0.1-0.075-0.165-0.102
	c-0.067-0.027-0.144-0.046-0.228-0.061c-0.029-0.003-0.062-0.003-0.1-0.007c-0.038-0.003-0.086-0.005-0.14-0.005h-0.47
	c-0.027,0-0.052,0.01-0.075,0.022c-0.023,0.017-0.033,0.044-0.033,0.08v1.72c0,0.007,0.002,0.014,0.006,0.019
	c0.004,0.008,0.01,0.012,0.023,0.015c0.01,0.003,0.025,0.005,0.046,0.007c0.019,0.003,0.042,0.003,0.071,0.003
	c0.029,0,0.052,0,0.071-0.003c0.019-0.002,0.033-0.004,0.044-0.007c0.011-0.003,0.019-0.007,0.025-0.015
	c0.004-0.005,0.008-0.012,0.008-0.019V7.719h0.197c0.067,0,0.123,0.007,0.171,0.027c0.048,0.016,0.09,0.038,0.125,0.07
	c0.035,0.032,0.067,0.066,0.092,0.107c0.025,0.041,0.05,0.087,0.075,0.136l0.203,0.439c0.004,0.012,0.01,0.019,0.017,0.027
	c0.006,0.01,0.014,0.017,0.027,0.019c0.01,0.005,0.025,0.005,0.044,0.01c0.019,0,0.044,0,0.073,0c0.034,0,0.063,0,0.083,0
	c0.019-0.005,0.034-0.005,0.048-0.01c0.01-0.003,0.017-0.007,0.021-0.015C171.516,8.524,171.518,8.517,171.518,8.51z"/>
<path d="M170.254,8.85c-0.656-0.262-0.975-1.004-0.712-1.659c0.262-0.655,1.007-0.973,1.662-0.711
	c0.656,0.262,0.975,1.004,0.712,1.659C171.654,8.793,170.91,9.111,170.254,8.85z M172.234,7.665c0-0.228-0.052-0.453-0.151-0.657
	c-0.133-0.274-0.353-0.507-0.62-0.654c-0.516-0.289-1.209-0.238-1.669,0.133c-0.44,0.354-0.667,0.965-0.533,1.516
	c0.07,0.286,0.219,0.558,0.438,0.759c0.417,0.378,1.055,0.512,1.578,0.301c0.425-0.175,0.768-0.541,0.896-0.982
	C172.214,7.945,172.234,7.804,172.234,7.665z"/>
<g>
	<path fill="#EE9200" d="M68.326,24.835c-1.217-1.11-6.867-1.101-9.37,0.723c-1.046,0.764-0.46,0.912,0.644,0.844
		c1.93-0.121,3.665-0.247,5.147-0.121c1.407,0.121,1.487,0.805,1.126,2.287c-0.419,1.721-0.683,2.769-1.407,4.494
		c-0.649,1.547,0.931,0.538,1.126,0.361C67.723,31.497,69.292,25.718,68.326,24.835z"/>
	<path fill="#EE9200" d="M62.151,28.407c-14.575,5.939-31.391,5.114-45.224-2.163c-0.191-0.099-0.869-0.487-1.641-0.873
		c-0.604-0.301-0.718-0.201-0.816-0.094c-0.135,0.146-0.084,0.41,0.131,0.604c8.123,7.302,17.889,10.814,28.552,10.353
		c8.139-0.354,15.724-3.332,20.067-6.502c0.641-0.468,0.87-1.077,0.603-1.363C63.549,28.075,62.828,28.131,62.151,28.407z"/>
</g>
</svg>
