<?xml version="1.0" encoding="utf-8"?>
<!-- Generator: Adobe Illustrator 17.0.0, SVG Export Plug-In . SVG Version: 6.00 Build 0)  -->
<!DOCTYPE svg PUBLIC "-//W3C//DTD SVG 1.1//EN" "http://www.w3.org/Graphics/SVG/1.1/DTD/svg11.dtd">
<svg version="1.1" id="Livello_1" xmlns="http://www.w3.org/2000/svg" xmlns:xlink="http://www.w3.org/1999/xlink" x="0px" y="0px"
	 width="121.966px" height="44.538px" viewBox="0 0 121.966 44.538" enable-background="new 0 0 121.966 44.538"
	 xml:space="preserve">
<g>
	<path fill-rule="evenodd" clip-rule="evenodd" fill="#DDDCDA" d="M66.134,35.766c-16.734-1.009-22.821-8.953-22.821-8.953H31.651
		l2.535-7.982c0,0-7.474-8.018-7.596-19.018H15.804L0,25.813h5.268l3.306-6h12.253c0,0,10.924,22.861,40.023,24.389
		c38.508,2.024,48.22-21.17,48.22-21.17S94.367,37.468,66.134,35.766z M11.1,16.813l5.539-9.494c0,0,0.319,2.494,2.472,9.494H11.1z"
		/>
	<path fill-rule="evenodd" clip-rule="evenodd" fill="#DDDCDA" d="M42.062,25.813c0.05,0,0.43-1.521,2.697-8.918
		c3.003-9.8,8.011-5.707,8.011-5.707c1.079-2.452,3.386-3.878,3.386-3.878c-6.778-2.786-9.935,2.844-9.935,2.844l0.845-3.341h-7.469
		l-5.47,19H42.062z"/>
	<path fill-rule="evenodd" clip-rule="evenodd" fill="#DDDCDA" d="M42.064,25.813h-0.002C42.046,25.813,42.064,25.813,42.064,25.813
		z"/>
	<path fill-rule="evenodd" clip-rule="evenodd" fill="#DDDCDA" d="M53.085,22.41c2.253,2.815,4.733,2.595,7.218,2.371
		c3.356-0.302,5.48-3.299,5.48-3.299c-1.765,12.39-15.713,8.426-15.713,8.426c19.254,10.107,22.337-3.98,22.645-4.673
		c0.308-0.693,4.933-18.3,4.933-18.3c-0.681,0.338-5.863,0.169-5.863,0.169s-3.998-0.846-9.101-0.508
		c-5.103,0.339-7.789,4.366-8.931,6.175C52.565,14.654,51.389,20.291,53.085,22.41z M61.701,12.834
		c1.079-1.993,4.471-3.526,7.474-2.834c0,0-1.435,10.921-6.076,10.725C58.41,20.536,60.622,14.827,61.701,12.834z"/>
	<path fill-rule="evenodd" clip-rule="evenodd" fill="#DDDCDA" d="M77.824,23.427c0.68,0.592,3.572,3.552,10.206,2.452
		c6.634-1.099,9.016-3.636,10.972-6.512c1.957-2.876,3.349-8.002-0.51-11.079c-2.977-2.368-8.08-1.861-8.08-1.861
		s-7.315,0-11.568,5.835C74.592,18.099,77.143,22.835,77.824,23.427z M84.968,15.477c1.956-5.582,5.613-5.159,5.613-5.159
		s4.253-0.084,2.297,6.174c-2.158,6.92-5.954,5.752-6.379,5.667C86.074,22.074,83.012,21.059,84.968,15.477z"/>
	<path fill-rule="evenodd" clip-rule="evenodd" fill="#DDDCDA" d="M113.036,13.87c0,0-2.806-0.169-3.487-1.353
		c-0.803-1.411,1.616-2.875,4.508-2.875c2.892,0,4.848,1.522,4.848,1.522l3.062-2.791c-5.103-3.383-12.077-1.607-13.183-1.353
		c-1.106,0.253-6.613,2.023-6.804,6.512c-0.207,4.854,4.593,4.651,4.593,4.651s2.42-0.136,4.253,2.114
		c2.129,2.615-3.317,9.388-3.317,9.388c6.464-2.03,13.779-9.135,11.993-12.94C118.112,13.759,113.036,13.87,113.036,13.87z"/>
</g>
</svg>
