<?xml version="1.0" encoding="utf-8"?>
<!-- Generator: Adobe Illustrator 17.0.0, SVG Export Plug-In . SVG Version: 6.00 Build 0)  -->
<!DOCTYPE svg PUBLIC "-//W3C//DTD SVG 1.1//EN" "http://www.w3.org/Graphics/SVG/1.1/DTD/svg11.dtd">
<svg version="1.1" id="Livello_1" xmlns="http://www.w3.org/2000/svg" xmlns:xlink="http://www.w3.org/1999/xlink" x="0px" y="0px"
	 width="175.997px" height="23.816px" viewBox="0 0 175.997 23.816" enable-background="new 0 0 175.997 23.816"
	 xml:space="preserve">
<path fill="#E11A22" d="M153.765,8.721l0.054-0.339c0.026-0.135-0.012-0.278-0.098-0.384c-0.089-0.106-0.219-0.169-0.355-0.169
	h-2.403c-0.222-0.003-0.416,0.156-0.458,0.379l-0.067,0.368l-2.567,14.204c-0.023,0.136,0.018,0.28,0.109,0.386
	c0.091,0.106,0.229,0.169,0.368,0.166l1.185-0.018h1.115c0.222,0,0.408-0.157,0.452-0.374l1.761-8.816
	c0.582-2.234,2.044-2.898,3.338-3.092c0.069-0.009,0.33-0.005,0.385-0.041c-0.886,5.345-1.936,11.672-1.954,11.778
	c-0.023,0.134,0.015,0.273,0.103,0.379c0.087,0.104,0.217,0.166,0.35,0.166h2.589c0.201,0,0.382-0.131,0.439-0.329
	c0.083-0.257,0.702-3.889,1.074-6.071c0.958,1.471,4.018,6.184,4.018,6.184c0.087,0.132,0.231,0.21,0.387,0.21l3.093,0.005
	c0.057,0,0.107-0.014,0.16-0.031c0.066,0.031,0.139,0.051,0.211,0.049l2.612-0.018c0.225-0.002,0.414-0.166,0.452-0.386
	c0,0,1.891-11.058,2.016-11.784c0.608-0.001,2.998-0.004,2.998-0.004c0.224,0,0.417-0.165,0.456-0.388l0.403-2.378
	c0.005-0.026,0.008-0.051,0.008-0.079c0-0.108-0.039-0.215-0.107-0.3c-0.088-0.104-0.217-0.166-0.356-0.166c0,0-2.172,0-2.953,0
	c0.145-0.84,0.67-3.94,0.67-3.94c0.003-0.028,0.006-0.054,0.006-0.079c0-0.113-0.037-0.219-0.109-0.302
	c-0.086-0.107-0.217-0.166-0.352-0.166H170.2c-0.224,0-0.417,0.164-0.456,0.387c0,0-0.578,3.466-0.686,4.101
	c-0.234,0.007-0.476,0.013-0.476,0.013l-0.405,0.003l-0.43-0.008c-0.165-0.004-0.312,0.082-0.399,0.217
	c-0.083-0.129-0.223-0.211-0.38-0.211l-2.376-0.006h-0.697c-0.129,0-0.25,0.055-0.34,0.15c0,0-2.391,2.773-3.66,4.164
	c0.372-2.204,1.396-8.257,1.396-8.257c0.003-0.028,0.006-0.053,0.006-0.081c0-0.109-0.039-0.216-0.11-0.3
	c-0.087-0.107-0.216-0.167-0.352-0.167l-2.585-0.005c-0.227-0.001-0.421,0.161-0.458,0.386c-0.06,0.36-0.329,1.971-0.688,4.117
	c-0.004-0.007-0.007-0.013-0.012-0.018c-0.091-0.108-0.223-0.166-0.364-0.16C155.626,7.698,154.632,8.155,153.765,8.721
	L153.765,8.721z M166.718,22.019c-1.065-1.732-4.175-6.786-4.449-7.232c0.36-0.429,4.146-5.099,4.915-6.013l-0.34,1.81
	c-0.026,0.138,0.013,0.28,0.101,0.386c0.088,0.106,0.217,0.17,0.356,0.17c0,0,0.671,0,1.179,0
	C168.346,11.965,167.113,19.574,166.718,22.019L166.718,22.019L166.718,22.019z M77.936,15.973c-0.54,1.907-2.325,3.723-4.066,4.151
	c-1.331,0.179-2.309,0.051-2.99-0.394c-0.717-0.499-1.077-1.363-1.355-2.146c-0.048-0.28-0.073-0.562-0.073-0.836
	c0-1.738,0.918-3.413,2.607-4.694c0.971-0.689,2.291-0.948,3.449-0.679c0.652,0.151,1.546,0.545,2.104,1.566
	c0.312,0.554,0.478,1.257,0.478,1.943C78.09,15.263,78.037,15.635,77.936,15.973L77.936,15.973L77.936,15.973z M64.77,3.713
	l-0.559,3.071c-0.026,0.136,0.011,0.28,0.099,0.39c0.088,0.106,0.219,0.169,0.359,0.169h2.701c0.223,0,0.416-0.16,0.456-0.385
	l0.508-3.043c0.022-0.137-0.014-0.279-0.101-0.386c-0.088-0.106-0.217-0.169-0.352-0.171l-2.654-0.022
	C65.004,3.334,64.812,3.494,64.77,3.713L64.77,3.713L64.77,3.713z M58.936,15.973L58.936,15.973c0.101-0.339,0.15-0.711,0.15-1.089
	c0-0.686-0.164-1.388-0.476-1.943c-0.56-1.021-1.452-1.415-2.106-1.566c-1.155-0.269-2.477-0.01-3.448,0.679
	c-1.686,1.281-2.607,2.956-2.607,4.694c0,0.274,0.026,0.556,0.074,0.836c0.278,0.782,0.637,1.647,1.356,2.146
	c0.68,0.446,1.659,0.573,2.989,0.394C56.61,19.697,58.392,17.881,58.936,15.973L58.936,15.973z M36.78,13.782L36.78,13.782
	c1.106-0.009,6.401-0.06,7.162-0.067c-0.055-0.52-0.325-1.006-0.891-1.58c-0.625-0.541-1.481-0.796-2.697-0.803
	C39.037,11.519,37.499,12.395,36.78,13.782L36.78,13.782z M145.321,15.973c-0.54,1.907-2.322,3.723-4.066,4.151
	c-1.333,0.179-2.31,0.051-2.987-0.394c-0.719-0.499-1.079-1.363-1.357-2.146c-0.047-0.28-0.074-0.562-0.074-0.836
	c0-1.738,0.92-3.413,2.61-4.694c0.969-0.689,2.29-0.948,3.447-0.679c0.652,0.151,1.547,0.545,2.105,1.566
	c0.309,0.554,0.476,1.257,0.476,1.943C145.474,15.263,145.423,15.635,145.321,15.973L145.321,15.973L145.321,15.973z M0,23.073
	v-0.29c0.014-0.031,0.032-0.06,0.055-0.086L19.299,0.248c0.068-0.075,0.162-0.12,0.264-0.12h3.107c0.102,0,0.201,0.047,0.268,0.128
	c0.05,0.063,0.079,0.145,0.079,0.221c0,0.022-0.004,0.049-0.009,0.071c0,0-2.41,12.05-2.859,14.229
	c1.518-1.736,12.719-14.53,12.719-14.53c0.065-0.078,0.16-0.12,0.258-0.12h2.923c0.107,0,0.209,0.049,0.275,0.134
	c0.065,0.085,0.089,0.197,0.062,0.301l-3.069,12.613c0.024-0.046,0.047-0.092,0.069-0.137c1.461-2.876,4.237-4.897,7.241-5.268
	c0.01-0.003,0.021-0.003,0.033-0.003c2.717-0.139,4.814,0.901,6.072,3.004c0.007,0.011,0.011,0.021,0.02,0.033
	c0.451,0.918,0.788,2.151,0.848,3.422c0.513-1.515,1.425-2.916,2.691-4.098c2.147-2.021,4.764-2.816,7.374-2.237
	c0.028,0.005,0.059,0.017,0.087,0.028l0.242,0.106c0.578,0.252,1.209,0.533,1.741,1.016c0.282-1.345,1.11-5.33,1.11-5.33
	c0.045-0.216,0.235-0.372,0.454-0.372h2.4c0.139,0,0.27,0.063,0.358,0.168l0,0c0.088,0.107,0.125,0.249,0.101,0.385l-3.499,19.102
	c-0.043,0.222-0.234,0.383-0.458,0.383l-2.38-0.007c-0.139,0-0.271-0.059-0.359-0.166c-0.07-0.085-0.108-0.191-0.108-0.299
	c0-0.03,0.003-0.059,0.01-0.087c0,0,0.059-0.32,0.098-0.532c-1.941,1.212-3.906,1.684-5.746,1.347
	c-2.105-0.424-4.065-2.506-4.46-4.738c-0.108-0.598-0.156-1.197-0.15-1.787c-0.083,0.076-0.193,0.122-0.311,0.122
	c0,0-10.529,0.004-11.053,0.005c-0.012,0.045-0.019,0.087-0.019,0.136c0,0.171,0.058,0.393,0.134,0.647c0,0,0.032,0.115,0.047,0.166
	c0.524,1.304,1.783,2.122,3.211,2.087c1.419-0.032,2.735-0.72,3.904-2.043c0.087-0.1,0.214-0.157,0.344-0.157h2.464
	c0.16,0,0.308,0.084,0.392,0.22c0.086,0.136,0.097,0.307,0.029,0.452c-1.398,2.977-4.536,4.977-7.829,4.977
	c-2.29-0.09-4.213-1.218-5.283-3.104c-0.533-1.006-0.785-2.253-0.771-3.531l-1.446,5.943c-0.039,0.16-0.18,0.27-0.339,0.27h-3.118
	c-0.105,0-0.206-0.05-0.27-0.135c-0.051-0.064-0.077-0.141-0.077-0.217c0-0.029,0.004-0.054,0.008-0.082
	c1.218-5.131,2.925-12.424,3.546-15.309c-1.492,1.767-13.176,15.598-13.176,15.598c-0.063,0.078-0.159,0.121-0.26,0.121
	l-2.633,0.023c-0.106,0-0.204-0.047-0.272-0.132c-0.05-0.061-0.078-0.139-0.078-0.22c0-0.024,0.002-0.049,0.007-0.074
	c1.115-5.191,2.674-12.585,3.223-15.461C16.044,9.149,4.455,23.173,4.455,23.173c-0.067,0.081-0.17,0.127-0.277,0.125
	c-0.9-0.032-1.578-0.028-2.364-0.023h-1.5C0.179,23.278,0.056,23.198,0,23.073L0,23.073z M149.605,7.998
	c-0.087-0.106-0.216-0.169-0.355-0.169h-2.401c-0.219,0-0.41,0.155-0.454,0.372l-0.185,0.92c-0.534-0.483-1.066-0.794-1.828-1.094
	l-0.24-0.106c-0.029-0.011-0.058-0.023-0.088-0.028c-2.607-0.58-5.227,0.216-7.373,2.237c-1.071,0.998-1.883,2.154-2.421,3.399
	l0.073-0.3l3.082-12.667c0.026-0.104,0.003-0.216-0.063-0.301c-0.065-0.085-0.165-0.134-0.273-0.134h-2.923
	c-0.102,0-0.194,0.042-0.26,0.12c0,0-11.201,12.794-12.718,14.53c0.447-2.179,2.946-14.229,2.946-14.229
	c0-0.022,0.006-0.049,0.006-0.071c0-0.078-0.025-0.158-0.077-0.221c-0.066-0.081-0.165-0.128-0.268-0.128h-3.229
	c-0.102,0-0.197,0.045-0.263,0.12l-16.131,18.854c-0.27-2.745-1.561-5.734-1.561-5.734c-2.161-4.484-6.971-5.936-9.699-3.365
	l-0.02,0.004l-0.427,0.314c1.978-3.196,6.999-3.054,10.231,0.71c0,0,1.436,1.747,2.456,4.347c0.271-0.918,0.438-1.868,0.487-2.841
	c-1.682-2.304-3.579-3.658-3.579-3.658c-4.083-2.787-8.97-1.61-10.063,1.998l-0.014,0.015l-0.212,0.488
	c0.133-3.772,4.55-6.188,9.207-4.564c0,0,2.191,0.814,4.405,2.619c-0.03-0.144-0.061-0.288-0.099-0.432
	c-0.24-0.953-0.586-1.857-1.034-2.699c-2.581-1.131-4.869-1.341-4.869-1.341c-4.915-0.346-8.562,3.142-7.728,6.82l-0.005,0.02
	l0.055,0.53c-1.745-3.334,0.884-7.658,5.719-8.613c0,0,2.244-0.394,5.004,0.023c-0.701-0.749-1.499-1.404-2.386-1.958
	c-2.767,0.329-4.831,1.298-4.831,1.298c-4.424,2.186-5.863,7.056-3.322,9.819l0.003,0.017l0.312,0.436
	c-3.159-2.005-3.016-7.085,0.699-10.355c0,0,1.736-1.466,4.318-2.503C96.144,0.172,95.04,0.008,93.925,0
	c-2.159,1.664-3.42,3.471-3.42,3.471c-2.753,4.134-1.591,9.077,1.972,10.185l0.013,0.012l0.485,0.217
	c-3.725-0.135-6.112-4.605-4.509-9.32c0,0,0.739-2.032,2.367-4.169c-0.932,0.245-1.814,0.602-2.642,1.05
	c-1.052,2.539-1.248,4.749-1.248,4.749c-0.343,4.976,3.105,8.668,6.739,7.823l0.016,0.006l0.529-0.06
	c-3.295,1.771-7.57-0.893-8.509-5.788c0,0-0.377-2.186,0-4.91c-0.786,0.753-1.472,1.617-2.042,2.582
	c0.352,2.685,1.253,4.658,1.253,4.658c2.16,4.481,6.97,5.934,9.7,3.362l0.019-0.004l0.427-0.313
	c-1.977,3.196-6.998,3.054-10.228-0.709c0,0-1.657-2.095-2.522-4.534c0.001-0.114-0.033-0.224-0.103-0.311
	c-0.089-0.106-0.22-0.169-0.36-0.169h-2.398c-0.221,0-0.41,0.155-0.456,0.372c0,0-0.184,0.283-0.269,0.842
	c-0.533-0.483-1.163-0.764-1.74-1.016l-0.244-0.106c-0.028-0.011-0.059-0.023-0.087-0.028c-2.607-0.58-5.225,0.216-7.372,2.237
	c-1.268,1.182-2.179,2.583-2.695,4.098c0,0-0.017,0.037-0.044,0.099l1.02-5.949c0.022-0.136-0.015-0.276-0.103-0.382
	c-0.089-0.104-0.22-0.167-0.357-0.166l-2.559,0.003c-0.224,0.003-0.416,0.163-0.457,0.389L61.456,22.82
	c-0.023,0.137,0.014,0.278,0.102,0.386c0.087,0.106,0.219,0.166,0.355,0.166l2.698,0.007c0.228,0,0.421-0.166,0.458-0.392l1.02-5.94
	c0.011,0.037,0.02,0.062,0.02,0.062c-0.008,0.59,0.04,1.189,0.148,1.787c0.397,2.232,2.353,4.315,4.46,4.738
	c1.839,0.337,3.805-0.135,5.746-1.347c-0.038,0.212-0.098,0.532-0.098,0.532c-0.005,0.028-0.008,0.057-0.008,0.087
	c0,0.108,0.037,0.214,0.106,0.299c0.088,0.107,0.219,0.166,0.359,0.166l2.381,0.007c0.224,0,0.417-0.161,0.456-0.383l2.096-11.492
	c1.568,1.886,3.62,3.495,3.62,3.495c4.082,2.789,8.966,1.612,10.059-1.994l0.016-0.016l0.212-0.489
	c-0.133,3.771-4.551,6.188-9.208,4.563c0,0-2.009-0.746-4.124-2.395c0.018,0.078,0.034,0.159,0.054,0.238
	c0.251,0.987,0.615,1.923,1.085,2.793c2.461,1.025,4.584,1.219,4.584,1.219c4.912,0.348,8.562-3.142,7.726-6.821l0.007-0.019
	l-0.058-0.532c1.747,3.334-0.884,7.665-5.718,8.613c0,0-2.113,0.374-4.762,0.012c0.634,0.676,1.349,1.282,2.138,1.801
	c2.745-0.336,4.779-1.293,4.779-1.293c4.426-2.185,5.864-7.056,3.323-9.817l-0.005-0.021l-0.31-0.431
	c3.159,2.002,3.018,7.081-0.698,10.355c0,0-1.773,1.49-4.393,2.529c0.723,0.246,1.465,0.422,2.218,0.522h1.072
	c2.201-1.679,3.485-3.525,3.485-3.525c2.756-4.133,1.594-9.08-1.97-10.184l-0.015-0.015l-0.482-0.216
	c3.726,0.136,6.112,4.606,4.51,9.321c0,0-0.801,2.205-2.577,4.442c0.143-0.032,0.281-0.061,0.421-0.099
	c0.9-0.231,1.748-0.569,2.536-0.981c1.101-2.593,1.303-4.885,1.303-4.885c0.346-4.97-3.104-8.667-6.74-7.821l-0.015-0.004
	l-0.526,0.057c3.293-1.768,7.57,0.894,8.51,5.789c0,0,0.542,2.248,0.136,4.909c-0.079,0.385-0.238,0.942-0.544,1.536
	c-0.094,0.165-0.209,0.361-0.35,0.588c0.003-0.003,0.004-0.006,0.004-0.006c-0.001,0.006-0.007,0.012-0.011,0.019
	c-0.003,0.007-0.003,0.008-0.003,0.013c-0.055,0.095-0.068,0.215-0.021,0.32c0.055,0.125,0.179,0.205,0.317,0.202h1.498
	c0.787-0.004,1.465-0.009,2.365,0.023c0.107,0.002,0.209-0.044,0.278-0.125c0,0,11.588-14.024,13.024-15.762
	c-0.549,2.876-2.108,10.269-3.223,15.461c-0.004,0.025-0.007,0.05-0.007,0.074c0,0.081,0.026,0.159,0.076,0.22
	c0.066,0.085,0.166,0.132,0.274,0.132l2.635-0.023c0.1,0,0.195-0.043,0.26-0.121c0,0,11.682-13.832,13.177-15.598
	c-0.622,2.885-2.328,10.178-3.544,15.309c-0.008,0.028-0.012,0.052-0.012,0.082c0,0.077,0.026,0.154,0.076,0.217
	c0.066,0.085,0.165,0.135,0.273,0.135h3.116c0.16,0,0.3-0.11,0.339-0.27l1.349-5.538l0.187-0.778
	c0.006,0.222,0.009,0.399,0.009,0.399c-0.006,0.59,0.043,1.189,0.151,1.787c0.394,2.232,2.354,4.315,4.458,4.738
	c1.839,0.337,3.808-0.135,5.749-1.347c-0.04,0.212-0.099,0.532-0.099,0.532c-0.005,0.028-0.008,0.057-0.008,0.087
	c0,0.108,0.036,0.214,0.104,0.299c0.091,0.107,0.222,0.166,0.358,0.166l2.383,0.007c0.226,0,0.417-0.161,0.457-0.383l2.151-11.57
	l0.515-3.118C149.715,8.194,149.68,8.085,149.605,7.998L149.605,7.998L149.605,7.998z"/>
</svg>
