<?xml version="1.0" encoding="utf-8"?>
<!-- Generator: Adobe Illustrator 17.0.0, SVG Export Plug-In . SVG Version: 6.00 Build 0)  -->
<!DOCTYPE svg PUBLIC "-//W3C//DTD SVG 1.1//EN" "http://www.w3.org/Graphics/SVG/1.1/DTD/svg11.dtd">
<svg version="1.1" id="Livello_1" xmlns="http://www.w3.org/2000/svg" xmlns:xlink="http://www.w3.org/1999/xlink" x="0px" y="0px"
	 width="174.252px" height="53.828px" viewBox="0 0 174.252 53.828" enable-background="new 0 0 174.252 53.828"
	 xml:space="preserve">
<path fill="#DDDCDA" d="M173.437,27.72c-0.214,0-0.427,0.083-0.586,0.249c-2.798,2.894-17.854,17.329-39.645,17.329h0.242v1.629
	l-0.242,0.002c-0.114,0-0.228-0.001-0.343-0.002c0.115,0.002,0.229,0.002,0.343,0.002c5.197,0,10.418-0.802,15.518-2.384
	c4.191-1.299,8.333-3.132,12.312-5.45c3.015-1.755,5.908-3.768,8.599-5.984c2.183-1.797,3.687-3.282,4.389-4.008
	c0.312-0.325,0.303-0.84-0.021-1.153C173.845,27.796,173.641,27.72,173.437,27.72"/>
<path fill-rule="evenodd" clip-rule="evenodd" fill="#DDDCDA" d="M150.005,6.727h-1.815c-0.281,0-0.48,0.159-0.562,0.436
	l-3.923,10.688l-0.235,0.75l-0.239-0.75l-4.036-10.688c-0.118-0.318-0.279-0.436-0.629-0.436h-4.33
	c-0.236,0-0.357,0.118-0.357,0.356c0,0.119,0.042,0.233,0.203,0.629l7.213,16.666c-0.082,2.932-2.858,3.928-5.984,3.053
	c-0.477-0.122-0.792-0.236-1.228-0.236c-0.273,0-0.516,0.273-0.516,0.55v2.254c0,0.4,0.277,0.711,0.787,0.828
	c0.684,0.205,1.148,0.205,1.666,0.205c3.057,0,5.906-2.144,6.897-4.708l7.286-18.73c0.081-0.239,0.164-0.355,0.164-0.51
	C150.366,6.885,150.202,6.727,150.005,6.727z M70.374,10.587c0-2.575,4.949-2.335,7.805-0.394c0.231,0.161,0.557,0.316,0.755,0.316
	c0.392,0,0.628-0.156,0.628-0.717V8.49c0-0.438-0.117-0.838-0.591-1.027c-5.155-2.14-12.042-0.988-12.042,4.589
	c0,6.294,9.978,4.989,9.978,8.4c0,2.721-4.711,3.008-8.121,0.396c-0.237-0.198-0.476-0.323-0.75-0.323
	c-0.395,0-0.64,0.162-0.64,0.715v1.542c0,0.437,0.118,0.792,0.604,1.028c4.385,1.979,12.474,2.022,12.474-5.261
	C80.474,12.293,70.374,13.716,70.374,10.587z M79.11,7.519l0.062,0.023L79.11,7.519z M29.324,6.28c-2.136,0-4.59,0.438-6.175,1.226
	c-0.436,0.237-0.595,0.591-0.595,0.956v1.778c0,0.551,0.438,0.792,0.67,0.792c0.475,0,0.831-0.437,1.066-0.599
	c1.473-0.988,2.938-1.665,4.878-1.665c2.419,0,2.776,1.585,2.776,3.527c0,0.913-0.319,1.146-3.765,1.585
	c-2.105,0.282-6.897,1.221-6.897,5.541c0,3.565,2.851,5.464,6.181,5.464c1.823,0,3.325-0.795,4.594-1.9l0.088,1.03
	c0,0.277,0.195,0.471,0.392,0.471h3.606c0.271,0,0.475-0.194,0.475-0.471V11.705C36.619,8.497,34.915,6.28,29.324,6.28z
	 M31.944,20.614c0,0.514-1.347,1.892-3.177,1.892c-2.095,0-2.889-1.496-2.889-3.001c0-2.142,1.665-4.125,6.065-4.125V20.614z
	 M6.744,5.569c0-1.828,1.747-3.053,3.96-3.053c1.982,0,3.494,0.674,5.075,1.822c0.431,0.314,0.714,0.514,1.072,0.514
	c0.428,0,0.547-0.278,0.547-0.636V1.916c0-0.35-0.074-0.551-0.431-0.714c-1.354-0.514-3.725-1.025-6.338-1.025
	c-5.273,0-8.124,3.248-8.124,6.926c0,8,12.355,6.34,12.355,11.759c0,3.286-4.747,5.583-10.255,1.746
	c-0.518-0.353-0.751-0.557-1.11-0.557c-0.671,0-0.791,0.354-0.791,0.717v2.013c0,0.356,0.076,0.552,0.472,0.792
	c6.657,3.131,16.129,1.305,16.129-6.647C19.306,9.606,6.744,10.077,6.744,5.569z M92.485,6.512c-2.702,0-4.446,1.386-5.198,2.017
	V0.65c0-0.276-0.201-0.473-0.478-0.473h-3.799c-0.196,0-0.391,0.197-0.391,0.473v20.432c0,0.635,0.121,1.384,0.715,1.819
	c1.384,1.064,3.475,2.056,6.333,2.056c5.232,0,9.472-4.032,9.472-10.135C99.14,10.077,96.567,6.512,92.485,6.512z M89.981,22.824
	c-1.149,0-1.743-0.204-2.138-0.436c-0.48-0.321-0.556-0.67-0.556-1.025V10.666c0.59-0.434,1.625-1.224,3.055-1.224
	c3.6,0,3.969,4.675,3.969,6.331C94.311,20.214,92.515,22.824,89.981,22.824z M44.225,6.776h-3.803c-0.199,0-0.396,0.2-0.396,0.469
	v16.787c0,0.28,0.197,0.479,0.396,0.479h3.803c0.275,0,0.472-0.198,0.472-0.479V7.244C44.697,6.975,44.5,6.776,44.225,6.776z
	 M42.284,0c-1.74,0-2.575,1.03-2.575,2.219c0,1.428,1.026,2.379,2.575,2.379c1.543,0,2.499-0.951,2.499-2.379
	C44.782,1.031,43.946,0,42.284,0z M116.845,6.727h-3.797c-0.199,0-0.4,0.195-0.4,0.475v11.517c0,2.576-0.786,3.96-3.252,3.96
	c-2.018,0-3.21-1.143-3.21-3.008V7.201c0-0.28-0.201-0.475-0.474-0.475h-3.805c-0.201,0-0.398,0.195-0.398,0.475v11.556
	c0,4.431,3.96,6.098,7.886,6.098c3.965,0,7.922-1.667,7.922-6.572V7.201C117.318,6.921,117.114,6.727,116.845,6.727z M131.865,6.605
	l0.186,0.045L131.865,6.605z M131.865,6.605c-0.757-0.198-1.237-0.198-1.754-0.198c-2.202,0-3.986,1.823-4.743,2.928l-0.08-2.134
	c0-0.28-0.202-0.475-0.474-0.475h-3.69c-0.198,0-0.393,0.195-0.393,0.475v16.781c0,0.278,0.195,0.477,0.393,0.477h3.809
	c0.27,0,0.474-0.199,0.474-0.477V13.299c0-3.407,3.235-3.527,5.387-3.094c0.507,0.12,0.912,0.284,1.339,0.284
	c0.284,0,0.522-0.284,0.522-0.553V7.438C132.655,7.049,132.377,6.727,131.865,6.605z M58.94,6.313c-2.185,0-4.493,1.066-5.68,1.784
	l-0.082-0.911c0-0.278-0.196-0.482-0.48-0.482H49c-0.199,0-0.397,0.204-0.397,0.482v16.845c0,0.28,0.197,0.48,0.397,0.48h3.814
	c0.285,0,0.484-0.2,0.484-0.48V10.446c0.757-0.446,2.345-1.239,3.695-1.239c2.631,0,2.789,1.594,2.789,2.946v11.878
	c0,0.28,0.197,0.48,0.39,0.48h3.822c0.278,0,0.48-0.2,0.48-0.48V11.754C64.473,8.536,62.759,6.313,58.94,6.313z M166.515,7.517
	l0.068,0.028L166.515,7.517z M166.385,7.467l0.067,0.026L166.385,7.467z M157.78,10.587c0-2.575,4.956-2.335,7.803-0.394
	c0.242,0.161,0.554,0.316,0.755,0.316c0.402,0,0.641-0.156,0.641-0.717V8.49c0-0.438-0.121-0.838-0.604-1.027
	c-5.146-2.14-12.039-0.988-12.039,4.589c0,6.294,9.98,4.989,9.98,8.4c0,2.721-4.721,3.008-8.116,0.396
	c-0.238-0.198-0.478-0.323-0.757-0.323c-0.393,0-0.626,0.162-0.626,0.715v1.542c0,0.437,0.113,0.792,0.589,1.028
	c4.393,1.979,12.479,2.022,12.479-5.261C167.887,12.293,157.78,13.716,157.78,10.587z M154.16,0.17h-1.881
	c-0.433,0-0.513,0.319-0.513,0.557c0,0.483,1.196,1.673,1.196,3.312c0,1.669-0.639,2.27-0.639,2.787
	c0,0.198,0.197,0.353,0.483,0.353h0.832C155.509,7.178,157.619,0.17,154.16,0.17z"/>
<path fill="#DDDCDA" d="M52.649,32.079c-11.299,0-21.045,0.927-28.969,2.755c-4.122,0.952-7.801,2.162-10.93,3.598
	c-3.243,1.487-5.979,3.252-8.129,5.247c-2.254,2.092-3.759,4.483-4.349,6.914C0.104,51.279,0,51.953,0,52.604
	c0,0.442,0.019,1.224,0.831,1.224c0.813,0,0.803-0.879,0.803-1.283c0-0.506,0.092-1.03,0.222-1.567
	c0.515-2.12,1.855-4.23,3.874-6.104c4.023-3.731,10.184-6.575,18.317-8.451c7.804-1.801,17.428-2.714,28.602-2.714
	c21.234,0,37.525,4.267,51.9,8.034c10.485,2.747,19.559,5.123,28.314,5.183c-0.029,0-0.058,0-0.087-0.001l0.429-1.628l0,0
	c-8.652,0-17.731-2.378-28.243-5.132c-6.938-1.817-14.802-3.878-23.423-5.435C71.659,32.946,62.209,32.079,52.649,32.079"/>
<path fill="#DDDCDA" d="M133.448,45.297h-0.242l0,0l-0.429,1.628c0.029,0,0.058,0,0.087,0.001c0.114,0.001,0.229,0.002,0.343,0.002
	l0.242-0.002V45.297"/>
</svg>
