<?xml version="1.0" encoding="utf-8"?>
<!-- Generator: Adobe Illustrator 17.0.0, SVG Export Plug-In . SVG Version: 6.00 Build 0)  -->
<!DOCTYPE svg PUBLIC "-//W3C//DTD SVG 1.1//EN" "http://www.w3.org/Graphics/SVG/1.1/DTD/svg11.dtd">
<svg version="1.1" id="Livello_1" xmlns="http://www.w3.org/2000/svg" xmlns:xlink="http://www.w3.org/1999/xlink" x="0px" y="0px"
	 width="173.745px" height="48.708px" viewBox="0 0 173.745 48.708" enable-background="new 0 0 173.745 48.708"
	 xml:space="preserve">
<path fill="#0077BE" d="M3.438,44.358c0.471,0.241,1.196,0.483,1.943,0.483c0.805,0,1.232-0.333,1.232-0.84
	c0-0.484-0.368-0.759-1.3-1.093c-1.288-0.451-2.127-1.163-2.127-2.292c0-1.325,1.104-2.337,2.932-2.337
	c0.874,0,1.519,0.184,1.979,0.393l-0.391,1.416c-0.311-0.15-0.863-0.37-1.622-0.37c-0.759,0-1.127,0.347-1.127,0.748
	c0,0.495,0.436,0.714,1.438,1.094c1.368,0.507,2.012,1.22,2.012,2.313c0,1.302-1.001,2.419-3.129,2.419
	c-0.885,0-1.759-0.24-2.196-0.483L3.438,44.358z"/>
<path fill="#0077BE" d="M14.318,44.795c0,0.541,0.023,1.059,0.081,1.369h-1.576l-0.103-0.564h-0.035
	c-0.368,0.452-0.943,0.691-1.61,0.691c-1.139,0-1.818-0.828-1.818-1.727c0-1.462,1.311-2.163,3.301-2.152V42.33
	c0-0.298-0.162-0.724-1.024-0.724c-0.576,0-1.185,0.195-1.553,0.426l-0.322-1.128c0.391-0.22,1.161-0.496,2.185-0.496
	c1.874,0,2.473,1.107,2.473,2.43V44.795z M12.617,43.504c-0.921-0.011-1.634,0.208-1.634,0.887c0,0.449,0.299,0.668,0.69,0.668
	c0.437,0,0.794-0.288,0.909-0.646c0.023-0.091,0.035-0.196,0.035-0.299V43.504z"/>
<path fill="#0077BE" d="M16.86,40.535l0.759,2.613c0.138,0.473,0.242,0.921,0.322,1.369h0.035c0.092-0.461,0.184-0.885,0.31-1.369
	l0.724-2.613h1.841l-2.093,5.628H17.01l-2.047-5.628H16.86z"/>
<path fill="#0077BE" d="M22.83,43.908c0.056,0.724,0.77,1.071,1.587,1.071c0.597,0,1.081-0.082,1.552-0.23l0.23,1.186
	c-0.576,0.228-1.277,0.356-2.036,0.356c-1.91,0-3.002-1.117-3.002-2.878c0-1.426,0.886-3.005,2.841-3.005
	c1.817,0,2.508,1.416,2.508,2.809c0,0.3-0.035,0.566-0.058,0.692H22.83z M24.889,42.71c0-0.425-0.185-1.139-0.99-1.139
	c-0.736,0-1.035,0.668-1.082,1.139H24.889z"/>
<path fill="#0077BE" d="M29.88,42.33c0-0.701-0.023-1.301-0.047-1.795h1.472l0.081,0.76h0.035c0.242-0.357,0.736-0.887,1.703-0.887
	c0.724,0,1.299,0.368,1.541,0.956h0.023c0.207-0.3,0.46-0.517,0.724-0.679c0.311-0.185,0.656-0.277,1.07-0.277
	c1.08,0,1.897,0.761,1.897,2.441v3.314h-1.702v-3.061c0-0.817-0.264-1.29-0.828-1.29c-0.403,0-0.69,0.277-0.805,0.611
	c-0.046,0.126-0.07,0.311-0.07,0.449v3.291h-1.702v-3.154c0-0.713-0.254-1.197-0.805-1.197c-0.449,0-0.713,0.346-0.817,0.633
	c-0.058,0.138-0.069,0.3-0.069,0.438v3.28H29.88V42.33z"/>
<path fill="#0077BE" d="M45.326,43.286c0,2.06-1.461,3.004-2.967,3.004c-1.645,0-2.91-1.082-2.91-2.9
	c0-1.819,1.197-2.983,3.002-2.983C44.176,40.408,45.326,41.595,45.326,43.286z M41.255,43.344c0,0.967,0.402,1.692,1.15,1.692
	c0.678,0,1.116-0.679,1.116-1.692c0-0.841-0.322-1.691-1.116-1.691C41.565,41.653,41.255,42.514,41.255,43.344z"/>
<path fill="#0077BE" d="M46.407,42.33c0-0.701-0.022-1.301-0.045-1.795h1.517l0.081,0.77h0.034c0.231-0.357,0.806-0.898,1.737-0.898
	c1.151,0,2.014,0.761,2.014,2.418v3.338h-1.749v-3.119c0-0.726-0.253-1.221-0.885-1.221c-0.483,0-0.771,0.335-0.885,0.657
	c-0.047,0.115-0.069,0.278-0.069,0.438v3.245h-1.749V42.33z"/>
<path fill="#0077BE" d="M54.493,43.908c0.058,0.724,0.771,1.071,1.588,1.071c0.598,0,1.081-0.082,1.552-0.23l0.231,1.186
	c-0.576,0.228-1.278,0.356-2.036,0.356c-1.91,0-3.002-1.117-3.002-2.878c0-1.426,0.886-3.005,2.841-3.005
	c1.817,0,2.507,1.416,2.507,2.809c0,0.3-0.034,0.566-0.057,0.692H54.493z M56.552,42.71c0-0.425-0.183-1.139-0.989-1.139
	c-0.736,0-1.036,0.668-1.081,1.139H56.552z"/>
<path fill="#0077BE" d="M60.462,40.535l0.84,2.764c0.092,0.333,0.207,0.747,0.275,1.047h0.034c0.081-0.3,0.173-0.725,0.254-1.047
	l0.69-2.764h1.875l-1.312,3.707c-0.805,2.233-1.346,3.131-1.977,3.694c-0.611,0.53-1.254,0.714-1.691,0.771l-0.368-1.484
	c0.219-0.035,0.494-0.137,0.759-0.299c0.265-0.14,0.552-0.415,0.725-0.704c0.057-0.079,0.092-0.17,0.092-0.253
	c0-0.056-0.012-0.148-0.081-0.287l-2.058-5.146H60.462z"/>
<path fill="#0077BE" d="M66.048,46.291c-0.588,0-1.012-0.448-1.012-1.06c0-0.62,0.424-1.069,1.035-1.069
	c0.61,0,1.024,0.436,1.024,1.069c0,0.612-0.414,1.06-1.036,1.06H66.048z"/>
<path fill="#0077BE" d="M70.998,38.404h1.76v6.287h3.083v1.472h-4.843V38.404z"/>
<path fill="#0077BE" d="M78.853,38.969c0,0.484-0.368,0.876-0.943,0.876c-0.553,0-0.92-0.392-0.908-0.876
	c-0.012-0.507,0.355-0.885,0.919-0.885C78.485,38.085,78.842,38.463,78.853,38.969z M77.047,46.163v-5.628h1.748v4.252v1.376H77.047
	z"/>
<path fill="#0077BE" d="M81.729,40.535l0.759,2.613c0.137,0.473,0.242,0.921,0.322,1.369h0.034c0.091-0.461,0.185-0.885,0.312-1.369
	l0.725-2.613h1.841l-2.094,5.628h-1.75l-2.046-5.628H81.729z"/>
<path fill="#0077BE" d="M87.699,43.908c0.057,0.724,0.771,1.071,1.586,1.071c0.599,0,1.082-0.082,1.553-0.23l0.229,1.186
	c-0.575,0.228-1.277,0.356-2.035,0.356c-1.91,0-3.003-1.117-3.003-2.878c0-1.426,0.887-3.005,2.841-3.005
	c1.818,0,2.508,1.416,2.508,2.809c0,0.3-0.035,0.566-0.06,0.692H87.699z M89.758,42.71c0-0.425-0.184-1.139-0.991-1.139
	c-0.737,0-1.035,0.668-1.08,1.139H89.758z"/>
<path fill="#0077BE" d="M94.749,37.991h1.747v3.212h0.024c0.334-0.484,0.921-0.796,1.703-0.796c1.344,0,2.335,1.118,2.321,2.845
	c0,2.026-1.287,3.038-2.575,3.038c-0.655,0-1.289-0.24-1.692-0.909h-0.023l-0.07,0.781h-1.483c0.022-0.366,0.046-1.046,0.046-1.679
	V37.991z M96.496,43.77c0,0.114,0.012,0.22,0.035,0.312c0.114,0.47,0.517,0.827,1.025,0.827c0.748,0,1.207-0.575,1.207-1.588
	c0-0.875-0.391-1.565-1.207-1.565c-0.473,0-0.91,0.356-1.025,0.864c-0.022,0.103-0.035,0.206-0.035,0.323V43.77z"/>
<path fill="#0077BE" d="M103.008,43.908c0.057,0.724,0.77,1.071,1.586,1.071c0.598,0,1.081-0.082,1.553-0.23l0.23,1.186
	c-0.574,0.228-1.278,0.356-2.037,0.356c-1.909,0-3-1.117-3-2.878c0-1.426,0.885-3.005,2.841-3.005c1.817,0,2.506,1.416,2.506,2.809
	c0,0.3-0.034,0.566-0.057,0.692H103.008z M105.065,42.71c0-0.425-0.185-1.139-0.987-1.139c-0.736,0-1.036,0.668-1.082,1.139H105.065
	z"/>
<path fill="#0077BE" d="M109.918,39.003v1.532h1.256v1.289h-1.256v2.038c0,0.68,0.162,0.99,0.691,0.99
	c0.241,0,0.347-0.012,0.519-0.047l0.011,1.325c-0.23,0.09-0.645,0.16-1.14,0.16c-0.563,0-1.034-0.206-1.31-0.494
	c-0.323-0.334-0.484-0.876-0.484-1.669v-2.304h-0.747v-1.289h0.747v-1.06L109.918,39.003z"/>
<path fill="#0077BE" d="M114.37,39.003v1.532h1.252v1.289h-1.252v2.038c0,0.68,0.161,0.99,0.689,0.99
	c0.242,0,0.345-0.012,0.519-0.047l0.01,1.325c-0.229,0.09-0.643,0.16-1.138,0.16c-0.562,0-1.035-0.206-1.311-0.494
	c-0.322-0.334-0.483-0.876-0.483-1.669v-2.304h-0.748v-1.289h0.748v-1.06L114.37,39.003z"/>
<path fill="#0077BE" d="M118.211,43.908c0.057,0.724,0.771,1.071,1.59,1.071c0.596,0,1.079-0.082,1.55-0.23l0.229,1.186
	c-0.573,0.228-1.274,0.356-2.034,0.356c-1.909,0-3.001-1.117-3.001-2.878c0-1.426,0.886-3.005,2.841-3.005
	c1.815,0,2.507,1.416,2.507,2.809c0,0.3-0.035,0.566-0.059,0.692H118.211z M120.271,42.71c0-0.425-0.184-1.139-0.989-1.139
	c-0.738,0-1.036,0.668-1.083,1.139H120.271z"/>
<path fill="#0077BE" d="M123.167,42.387c0-0.828-0.021-1.368-0.044-1.852h1.507l0.057,1.036h0.046
	c0.287-0.819,0.976-1.163,1.516-1.163c0.161,0,0.242,0,0.368,0.023v1.659c-0.126-0.036-0.276-0.058-0.472-0.058
	c-0.644,0-1.08,0.345-1.194,0.886c-0.023,0.116-0.034,0.254-0.034,0.392v2.854h-1.751V42.387z"/>
<path fill="#0077BE" d="M128.418,46.291c-0.587,0-1.01-0.448-1.01-1.06c0-0.62,0.423-1.069,1.033-1.069
	c0.609,0,1.023,0.436,1.023,1.069c0,0.612-0.414,1.06-1.035,1.06H128.418z"/>
<path fill="#FBBC1B" d="M153.13,13.963c0.971,0,1.77-0.504,1.878-1.158l0.96-10.851c0-1.073-1.255-1.954-2.834-1.954
	c-1.577,0-2.83,0.881-2.83,1.954l0.957,10.851c0.106,0.654,0.906,1.158,1.873,1.158H153.13z"/>
<path fill="#FBBC1B" d="M147.271,17.353c0.487-0.84,0.449-1.786-0.063-2.205l-8.911-6.256c-0.925-0.536-2.316,0.109-3.104,1.478
	c-0.791,1.367-0.65,2.894,0.275,3.43l9.865,4.598c0.618,0.23,1.458-0.21,1.941-1.05L147.271,17.353z"/>
<path fill="#FBBC1B" d="M158.994,17.347c0.486,0.84,1.323,1.28,1.94,1.05l9.867-4.598c0.929-0.536,1.063-2.063,0.277-3.43
	c-0.792-1.368-2.184-2.014-3.108-1.478l-8.911,6.256c-0.51,0.419-0.547,1.365-0.063,2.205L158.994,17.347z"/>
<path fill="#FBBC1B" d="M153.13,27.516c0.971,0,1.77,0.502,1.878,1.155l0.96,10.85c0,1.075-1.255,1.954-2.834,1.954
	c-1.577,0-2.83-0.879-2.83-1.954l0.957-10.85c0.106-0.653,0.906-1.155,1.873-1.155H153.13z"/>
<path fill="#FBBC1B" d="M158.994,24.128c0.486-0.841,1.323-1.279,1.94-1.046l9.867,4.593c0.929,0.538,1.063,2.066,0.277,3.434
	c-0.792,1.364-2.184,2.012-3.108,1.477l-8.911-6.25c-0.51-0.424-0.547-1.369-0.063-2.209L158.994,24.128z"/>
<path fill="#FBBC1B" d="M147.271,24.126c0.487,0.84,0.449,1.785-0.063,2.209l-8.911,6.25c-0.925,0.535-2.316-0.113-3.104-1.477
	c-0.791-1.368-0.65-2.896,0.275-3.434l9.865-4.593c0.618-0.233,1.458,0.205,1.942,1.046L147.271,24.126z"/>
<path fill="#0077BE" d="M101.803,21.986c0-4.098-1.748-7.702-7.658-7.702c-3.034,0-5.442,0.853-6.756,1.613l0.962,3.293
	c1.201-0.758,3.115-1.386,4.926-1.386c2.997-0.008,3.489,1.698,3.489,2.792v0.259c-6.535-0.01-10.664,2.254-10.664,6.868
	c0,2.817,2.103,5.458,5.759,5.458c2.248,0,4.13-0.898,5.255-2.337h0.111c0,0,0.746,3.125,4.861,1.93
	c-0.216-1.3-0.286-2.687-0.286-4.357V21.986z M96.924,26.314c0,0.334-0.03,0.678-0.121,0.979c-0.378,1.253-1.674,2.312-3.295,2.312
	c-1.352,0-2.425-0.768-2.425-2.392c0-2.484,2.732-3.171,5.842-3.154V26.314z"/>
<path fill="#0077BE" d="M0,8.704c0,0,4.269,17.512,4.951,20.354c0.795,3.317,2.228,4.538,6.36,3.715l2.666-10.858
	c0.676-2.697,1.129-4.619,1.564-7.362h0.076c0.305,2.77,0.74,4.674,1.296,7.372c0,0,1.085,4.929,1.641,7.517
	c0.557,2.588,2.108,4.219,6.155,3.331L31.06,8.704h-5.129L23.763,19.11c-0.583,3.029-1.112,5.396-1.52,8.167H22.17
	c-0.371-2.744-0.842-5.017-1.435-7.967L18.476,8.704h-5.343l-2.415,10.338c-0.684,3.142-1.324,5.678-1.731,8.355H8.913
	c-0.417-2.521-0.973-5.709-1.574-8.75c0,0-1.435-7.395-1.938-9.943H0z"/>
<path fill="#0077BE" d="M45.636,21.986c0-4.098-1.748-7.702-7.656-7.702c-3.035,0-5.444,0.853-6.757,1.613l0.961,3.293
	c1.202-0.758,3.115-1.386,4.927-1.386c3-0.008,3.49,1.698,3.49,2.792v0.259c-6.536-0.01-10.665,2.254-10.665,6.868
	c0,2.817,2.102,5.458,5.756,5.458c2.25,0,4.131-0.898,5.258-2.337h0.111c0,0,0.747,3.125,4.861,1.93
	c-0.216-1.3-0.286-2.687-0.286-4.357V21.986z M40.758,26.314c0,0.334-0.029,0.678-0.121,0.979c-0.378,1.253-1.674,2.312-3.295,2.312
	c-1.351,0-2.425-0.768-2.425-2.392c0-2.484,2.732-3.171,5.841-3.154V26.314z"/>
<path fill="#0077BE" d="M53.776,27.663V8.704h-4.883v24.069h4.883V27.663z"/>
<path fill="#0077BE" d="M117.664,8.704c0,2.309,0,17.756,0,17.756c0,2.448,0.461,4.163,1.445,5.21c0.86,0.917,2.277,1.51,3.975,1.51
	c1.444,0,2.864-0.274,3.534-0.524l-0.063-3.819c-0.498,0.123-1.071,0.221-1.855,0.221c-1.663,0-2.221-1.067-2.221-3.265v-6.793
	h4.252v-4.605h-4.252V8.704H117.664z"/>
<path fill="#0077BE" d="M105.059,14.692v18.081h5.038v-9.258c0-0.5,0.03-0.935,0.109-1.335c0.373-1.94,1.855-3.179,3.982-3.179
	c0.584,0,1.002,0.063,1.454,0.129v-4.734c-0.379-0.076-0.638-0.112-1.11-0.112c-1.88,0-4.018,1.215-4.916,3.819h-0.137v-3.41
	H105.059z"/>
<path fill="#0077BE" d="M57.196,14.692v18.081h4.909V22.169c0-0.497,0.057-1.023,0.23-1.48c0.407-1.067,1.399-2.317,2.984-2.317
	c1.981,0,2.908,1.677,2.908,4.095v10.305h4.904V22.041c0-0.475,0.065-1.046,0.204-1.466c0.403-1.214,1.473-2.203,2.945-2.203
	c2.008,0,2.972,1.647,2.972,4.493c0,0,0,7.639,0,9.907h4.907V22.124c0-5.616-2.849-7.84-6.065-7.84
	c-1.424,0-2.549,0.358-3.565,0.982c-0.854,0.526-1.619,1.27-2.288,2.253h-0.072c-0.776-1.949-2.601-3.235-4.979-3.235
	c-3.056,0-4.429,1.55-5.261,2.865h-0.073v-2.457H57.196z"/>
<path fill="#FBBC1B" d="M172.89,31.674c0.481,0,0.855,0.374,0.855,0.84c0,0.477-0.374,0.846-0.86,0.846
	c-0.481,0-0.865-0.369-0.865-0.846c0-0.466,0.384-0.84,0.865-0.84H172.89z M172.88,31.843c-0.368,0-0.645,0.302-0.645,0.671
	c0,0.374,0.277,0.672,0.655,0.672c0.369,0.005,0.64-0.298,0.64-0.672c0-0.369-0.271-0.671-0.645-0.671H172.88z M172.752,32.949
	h-0.195v-0.835c0.077-0.016,0.184-0.031,0.322-0.031c0.159,0,0.23,0.026,0.292,0.067c0.046,0.035,0.082,0.102,0.082,0.179
	c0,0.098-0.072,0.169-0.174,0.2v0.011c0.082,0.025,0.128,0.092,0.153,0.205c0.026,0.128,0.041,0.179,0.061,0.204h-0.21
	c-0.025-0.03-0.041-0.102-0.066-0.2c-0.015-0.092-0.067-0.133-0.174-0.133h-0.092V32.949z M172.757,32.478h0.092
	c0.108,0,0.195-0.036,0.195-0.123c0-0.076-0.056-0.128-0.179-0.128c-0.051,0-0.087,0.005-0.108,0.01V32.478z"/>
</svg>
