<?xml version="1.0" encoding="utf-8"?>
<!-- Generator: Adobe Illustrator 17.0.0, SVG Export Plug-In . SVG Version: 6.00 Build 0)  -->
<!DOCTYPE svg PUBLIC "-//W3C//DTD SVG 1.1//EN" "http://www.w3.org/Graphics/SVG/1.1/DTD/svg11.dtd">
<svg version="1.1" id="Livello_1" xmlns="http://www.w3.org/2000/svg" xmlns:xlink="http://www.w3.org/1999/xlink" x="0px" y="0px"
	 width="84px" height="84px" viewBox="0 0 84 84" enable-background="new 0 0 84 84" xml:space="preserve">
<path fill-rule="evenodd" clip-rule="evenodd" fill="#0050a0" d="M42,0c23.196,0,42,18.804,42,42S65.196,84,42,84S0,65.196,0,42
	S18.804,0,42,0z"/>
<path fill-rule="evenodd" clip-rule="evenodd" fill="#0050a0" d="M42,3c21.539,0,39,17.461,39,39S63.539,81,42,81S3,63.539,3,42
	S20.461,3,42,3z"/>
<path fill-rule="evenodd" clip-rule="evenodd" fill="#FFFFFF" d="M64.912,42.498l-5.483-6.15c1.151-1.377,3.882-4.642,5.219-6.24
	c0.873-1.034-0.395-1.551-0.395-1.551l-15.121-8.321c0,0-1.069-0.746-1.878,0.133c-0.664,0.722-4.158,4.634-5.385,6.009
	l-4.844-5.832c0,0-0.642-1.053-1.974-0.326c-1.333,0.727-14.964,8.02-15.76,8.419c-0.955,0.478-0.23,1.496-0.23,1.496l5.39,6.266
	c-1.209,1.406-3.871,4.503-5.19,6.038c-0.883,1.017,0.373,1.547,0.373,1.547l5.393,3.058c0,1.783,0,8.287,0,8.893
	c0,0.703,0.277,0.748,0.277,0.748s15.151,8.041,15.862,8.433c0.711,0.392,1.319-0.055,1.319-0.055l15.883-8.393
	c0,0,0.532-0.236,0.532-0.734c0-0.417,0-6.69,0-8.718c2.944-1.64,5.482-3.049,5.811-3.222
	C65.655,43.502,64.912,42.498,64.912,42.498z M48.215,22.184l14.07,7.529l-4.77,5.703l-14.17-7.798L48.215,22.184z M41.962,43.993
	l-13.809-7.529l13.809-7.27l13.809,7.27L41.962,43.993z M35.708,22.184l4.625,5.569l-14.01,7.71l-4.946-5.749L35.708,22.184z
	 M26.271,37.435l14.138,7.78l-4.895,5.316L21.607,42.86L26.271,37.435z M26.85,55.447v-7.37l7.725,4.38c0,0,1.054,0.756,1.871-0.108
	c0.538-0.569,2.915-3.155,4.475-4.854v15.433L26.85,55.447z M57.074,55.295l-14.331,7.572v-15.55l4.377,5.084
	c0,0,0.66,1.042,1.98,0.291c0.658-0.374,4.344-2.435,7.973-4.458V55.295z M48.408,50.74l-4.801-5.576l14.062-7.738l4.933,5.533
	L48.408,50.74z"/>
</svg>
