<?xml version="1.0" encoding="utf-8"?>
<!-- Generator: Adobe Illustrator 17.0.0, SVG Export Plug-In . SVG Version: 6.00 Build 0)  -->
<!DOCTYPE svg PUBLIC "-//W3C//DTD SVG 1.1//EN" "http://www.w3.org/Graphics/SVG/1.1/DTD/svg11.dtd">
<svg version="1.1" id="Livello_1" xmlns="http://www.w3.org/2000/svg" xmlns:xlink="http://www.w3.org/1999/xlink" x="0px" y="0px"
	 width="60px" height="60px" viewBox="0 0 60 60" enable-background="new 0 0 60 60" xml:space="preserve">
<path fill="#0050A0" d="M30,0c16.569,0,30,13.432,30,30S46.568,60,30,60S0,46.569,0,30S13.431,0,30,0z"/>
<path fill="#5EAAA1" d="M30,2c15.464,0,28,12.536,28,28S45.464,58,30,58S2,45.464,2,30S14.536,2,30,2z"/>
<path fill="#FFFFFF" d="M30,29c-1.654,0-3,1.346-3,3v6c0,1.654,1.346,3,3,3h10c1.654,0,3-1.346,3-3v-6c0-1.654-1.346-3-3-3H30z
	 M41,32v6c0,0.551-0.449,1-1,1H30c-0.552,0-1-0.449-1-1v-6c0-0.551,0.448-1,1-1h10C40.551,31,41,31.449,41,32z"/>
<path fill="#FFFFFF" d="M38.647,32.646l-4,4c-0.195,0.195-0.195,0.512,0,0.707C34.744,37.451,34.872,37.5,35,37.5
	s0.256-0.049,0.353-0.146l4-4c0.195-0.195,0.195-0.512,0-0.707C39.158,32.451,38.842,32.451,38.647,32.646z"/>
<path fill="#FFFFFF" d="M38.647,35.647l-1,1c-0.195,0.195-0.195,0.512,0,0.707C37.744,37.451,37.872,37.5,38,37.5
	s0.256-0.049,0.353-0.146l1-1c0.195-0.195,0.195-0.512,0-0.707C39.158,35.451,38.842,35.451,38.647,35.647z"/>
<path fill="#FFFFFF" d="M42,15h-0.8H38h-3.2h-3.2h-3.2h-3.2H22h-3.2H18h-0.8l-5.6,8v0.8c0,1.639,0.988,3.045,2.4,3.662v1.321V43
	c0,1.654,1.346,3,3,3h2V32c0-0.551,0.448-1,1-1h3c0.551,0,1,0.449,1,1v14h2h17c1.654,0,3-1.346,3-3V28.783v-1.321
	c1.412-0.618,2.4-2.023,2.4-3.662V23l-5.6-8H42z M35.4,17l1.8,6v0.8c0,1.326-1.074,2.4-2.4,2.4s-2.4-1.074-2.4-2.4V23l-0.6-6H35.4z
	 M22.8,23l1.8-6h3.6l-0.6,6v0.8c0,1.326-1.074,2.4-2.4,2.4s-2.4-1.074-2.4-2.4V23z M13.2,23.8V23l4.2-6H21l-3,6v0.8
	c0,1.326-1.074,2.4-2.4,2.4C14.274,26.2,13.2,25.126,13.2,23.8z M44,43c0,0.551-0.449,1-1,1H26V32c0-1.654-1.346-3-3-3h-3
	c-1.654,0-3,1.346-3,3v12c-0.552,0-1-0.449-1-1V27.76c0.917-0.094,1.745-0.48,2.373-1.086c0.425,0.675,1.171,1.126,2.027,1.126
	s1.602-0.451,2.027-1.126c0.719,0.694,1.694,1.126,2.773,1.126s2.054-0.432,2.773-1.126C28.398,27.349,29.144,27.8,30,27.8
	c0.856,0,1.602-0.451,2.027-1.126c0.719,0.694,1.694,1.126,2.773,1.126s2.054-0.432,2.773-1.126
	c0.425,0.675,1.171,1.126,2.027,1.126s1.602-0.451,2.027-1.126c0.628,0.606,1.456,0.993,2.373,1.086V43z M46.8,23.8
	c0,1.326-1.074,2.4-2.4,2.4S42,25.126,42,23.8V23l-3-6h3.6l4.2,6C46.8,23,46.8,23.8,46.8,23.8z"/>
<g>
	<path fill="#FFFFFF" d="M51.932,32.497c-1.305-1.325-2.709-1.997-4.173-1.997c-1.284,0-2.286,0.528-2.861,0.929
		c-0.116,0.048-0.225,0.12-0.319,0.215l-8.477,8.477c-0.14,0.14-0.235,0.317-0.273,0.511l-1.695,8.477
		c-0.066,0.328,0.037,0.667,0.273,0.903c0.189,0.189,0.444,0.293,0.707,0.293c0.065,0,0.131-0.006,0.196-0.02l8.477-1.695
		c0.193-0.039,0.371-0.134,0.511-0.273l8.477-8.477c0.086-0.086,0.153-0.189,0.201-0.301C54.182,37.814,54.512,35.117,51.932,32.497
		z M41.411,43.055c-0.351-0.35-0.686-0.652-1.006-0.917l6.268-6.241l1.835,1.836l-6.258,6.232
		C42.003,43.673,41.727,43.37,41.411,43.055z M39.601,41.526c-0.5-0.345-0.942-0.584-1.322-0.754l6.634-6.635l1.052,1.052
		L39.601,41.526z M37.674,41.604c0.681,0.271,1.725,0.854,3.031,2.158c1.273,1.271,1.859,2.295,2.139,2.976l-6.455,1.291
		L37.674,41.604z M43.666,46.119c-0.18-0.391-0.437-0.847-0.798-1.358l6.348-6.321l1.065,1.065L43.666,46.119z M51.254,38.504
		c-0.021,0.028-0.041,0.057-0.059,0.086l-0.208,0.208L45.62,33.43l0.208-0.208c0.03-0.019,0.06-0.039,0.088-0.061
		c0.32-0.247,0.984-0.662,1.842-0.662c0.909,0,1.833,0.471,2.749,1.4C52.599,36.025,51.873,37.697,51.254,38.504z"/>
	<path fill="#5EAAA1" d="M47.759,30.5c1.464,0,2.868,0.672,4.173,1.997c2.581,2.62,2.25,5.317,1.043,7.042
		c-0.047,0.112-0.114,0.214-0.201,0.301l-8.477,8.477c-0.14,0.14-0.317,0.235-0.511,0.273l-8.477,1.695
		c-0.065,0.013-0.131,0.02-0.196,0.02c-0.263,0-0.518-0.104-0.707-0.293c-0.236-0.236-0.339-0.575-0.273-0.903l1.695-8.477
		c0.039-0.193,0.134-0.371,0.273-0.511l8.477-8.477c0.094-0.095,0.203-0.167,0.319-0.215C45.473,31.028,46.475,30.5,47.759,30.5
		 M50.987,38.798l0.208-0.208c0.018-0.029,0.038-0.058,0.059-0.086c0.619-0.807,1.346-2.479-0.747-4.604
		c-0.915-0.929-1.84-1.4-2.749-1.4c-0.858,0-1.522,0.415-1.842,0.662c-0.028,0.022-0.058,0.042-0.088,0.061L45.62,33.43
		L50.987,38.798 M39.601,41.526l6.364-6.337l-1.052-1.052l-6.634,6.635C38.659,40.943,39.101,41.182,39.601,41.526 M42.25,43.964
		l6.258-6.232l-1.835-1.836l-6.268,6.241c0.32,0.265,0.655,0.567,1.006,0.917C41.727,43.37,42.003,43.673,42.25,43.964
		 M43.666,46.119l6.614-6.614l-1.065-1.065l-6.348,6.321C43.229,45.272,43.486,45.728,43.666,46.119 M36.388,48.03l6.455-1.291
		c-0.28-0.681-0.865-1.705-2.139-2.976c-1.307-1.304-2.35-1.887-3.031-2.158L36.388,48.03 M47.759,28.5
		c-1.684,0-3.009,0.626-3.861,1.191c-0.272,0.141-0.519,0.323-0.737,0.543l-8.473,8.473c-0.421,0.421-0.704,0.951-0.821,1.534
		l-1.695,8.476c-0.198,0.984,0.109,1.998,0.82,2.71c0.567,0.567,1.32,0.879,2.121,0.879c0.198,0,0.397-0.02,0.592-0.059l8.474-1.695
		c0.582-0.116,1.112-0.4,1.533-0.82l8.477-8.477c0.208-0.208,0.383-0.446,0.521-0.708c2.374-3.547,0.769-7.298-1.352-9.452
		C51.662,29.373,49.778,28.5,47.759,28.5L47.759,28.5z M38.938,45.48l0.108-0.541c0.08,0.076,0.162,0.156,0.246,0.239
		c0.066,0.065,0.129,0.13,0.19,0.193L38.938,45.48L38.938,45.48z"/>
</g>
</svg>
