<?xml version="1.0" encoding="utf-8"?>
<!-- Generator: Adobe Illustrator 17.0.0, SVG Export Plug-In . SVG Version: 6.00 Build 0)  -->
<!DOCTYPE svg PUBLIC "-//W3C//DTD SVG 1.1//EN" "http://www.w3.org/Graphics/SVG/1.1/DTD/svg11.dtd">
<svg version="1.1" id="Livello_1" xmlns="http://www.w3.org/2000/svg" xmlns:xlink="http://www.w3.org/1999/xlink" x="0px" y="0px"
	 width="18.136px" height="14.424px" viewBox="0 0 18.136 14.424" enable-background="new 0 0 18.136 14.424" xml:space="preserve">
<g>
	<path fill-rule="evenodd" clip-rule="evenodd" fill="#004594" d="M12.907,7.347c1.621-1.699,3.241-3.4,4.862-5.098
		c1.109-1.163-0.543-3.044-1.648-1.885c-1.926,2.02-3.853,4.041-5.78,6.061c-0.446,0.467-0.463,1.418,0,1.884
		c1.915,1.922,3.83,3.846,5.744,5.768c1.125,1.129,2.78-0.748,1.648-1.884C16.124,10.576,14.515,8.961,12.907,7.347z"/>
	<path fill-rule="evenodd" clip-rule="evenodd" fill="#004594" d="M6.12,0.364c-1.926,2.02-3.853,4.041-5.78,6.061
		c-0.446,0.467-0.463,1.418,0,1.884c1.915,1.922,3.83,3.846,5.744,5.768c1.125,1.129,2.78-0.748,1.648-1.884
		c-1.609-1.616-3.218-3.231-4.826-4.845c1.621-1.699,3.241-3.4,4.862-5.098C8.878,1.085,7.226-0.796,6.12,0.364z"/>
</g>
</svg>
