<?xml version="1.0" encoding="utf-8"?>
<!-- Generator: Adobe Illustrator 17.0.0, SVG Export Plug-In . SVG Version: 6.00 Build 0)  -->
<!DOCTYPE svg PUBLIC "-//W3C//DTD SVG 1.1//EN" "http://www.w3.org/Graphics/SVG/1.1/DTD/svg11.dtd">
<svg version="1.1" id="Livello_1" xmlns="http://www.w3.org/2000/svg" xmlns:xlink="http://www.w3.org/1999/xlink" x="0px" y="0px"
	 width="18.136px" height="14.424px" viewBox="0 0 18.136 14.424" enable-background="new 0 0 18.136 14.424" xml:space="preserve">
<g>
	<path fill-rule="evenodd" clip-rule="evenodd" fill="#1a62aa" d="M5.229,7.347c-1.621-1.699-3.241-3.4-4.862-5.098
		C-0.742,1.085,0.91-0.796,2.016,0.364c1.926,2.02,3.853,4.041,5.78,6.061c0.446,0.467,0.463,1.418,0,1.884
		c-1.915,1.922-3.83,3.846-5.744,5.768c-1.125,1.129-2.78-0.748-1.648-1.884C2.012,10.576,3.621,8.961,5.229,7.347z"/>
	<path fill-rule="evenodd" clip-rule="evenodd" fill="#1a62aa" d="M12.016,0.364c1.926,2.02,3.853,4.041,5.78,6.061
		c0.446,0.467,0.463,1.418,0,1.884c-1.915,1.922-3.83,3.846-5.744,5.768c-1.125,1.129-2.78-0.748-1.648-1.884
		c1.609-1.616,3.218-3.231,4.826-4.845c-1.621-1.699-3.241-3.4-4.862-5.098C9.258,1.085,10.91-0.796,12.016,0.364z"/>
</g>
</svg>
