<?xml version="1.0" encoding="utf-8"?>
<!-- Generator: Adobe Illustrator 17.0.0, SVG Export Plug-In . SVG Version: 6.00 Build 0)  -->
<!DOCTYPE svg PUBLIC "-//W3C//DTD SVG 1.1//EN" "http://www.w3.org/Graphics/SVG/1.1/DTD/svg11.dtd">
<svg version="1.1" id="Livello_1" xmlns="http://www.w3.org/2000/svg" xmlns:xlink="http://www.w3.org/1999/xlink" x="0px" y="0px"
	 width="60px" height="60px" viewBox="0 0 60 60" enable-background="new 0 0 60 60" xml:space="preserve">
<path fill="#0050A0" d="M30,0c16.569,0,30,13.432,30,30S46.568,60,30,60S0,46.569,0,30S13.431,0,30,0z"/>
<path fill="#88C4BD" d="M30,2c15.464,0,28,12.536,28,28S45.464,58,30,58S2,45.464,2,30S14.536,2,30,2z"/>
<path fill="#FFFFFF" d="M20,45h18c0.552,0,1-0.448,1-1s-0.448-1-1-1H21.921l0.895-1.51c1.475-2.486,3.361-6.182,3.976-9.664
	L26.938,31H36c0.552,0,1-0.448,1-1c0-0.551-0.448-1-1-1h-8.996l-0.135-0.842c-0.163-1.015-0.455-1.842-0.74-2.602
	c-0.487-1.295-1.04-2.763-1.13-5.589c-0.077-2.402,2.404-4.087,4.743-4.636c0.63-0.148,1.269-0.224,1.896-0.224
	c2.502,0,4.489,1.206,5.452,3.31c0.222,0.485,0.832,0.719,1.326,0.492c0.501-0.229,0.722-0.824,0.492-1.326
	c-1.844-4.027-5.753-4.462-7.349-4.462c-0.768,0-1.533,0.088-2.277,0.263c-3.796,0.892-6.38,3.626-6.283,6.648
	c0.101,3.156,0.742,4.86,1.257,6.229c0.213,0.566,0.371,1.012,0.496,1.482L25.086,29H20c-0.551,0-1,0.449-1,1c0,0.552,0.449,1,1,1
	h4.953l-0.284,1.226c-0.979,4.228-4.011,9.165-5.478,11.186c-0.223,0.307-0.254,0.705-0.083,1.042C19.281,44.791,19.622,45,20,45z"
	/>
</svg>
