<?xml version="1.0" encoding="utf-8"?>
<!-- Generator: Adobe Illustrator 17.0.0, SVG Export Plug-In . SVG Version: 6.00 Build 0)  -->
<!DOCTYPE svg PUBLIC "-//W3C//DTD SVG 1.1//EN" "http://www.w3.org/Graphics/SVG/1.1/DTD/svg11.dtd">
<svg version="1.1" id="Livello_1" xmlns="http://www.w3.org/2000/svg" xmlns:xlink="http://www.w3.org/1999/xlink" x="0px" y="0px"
	 width="84px" height="84px" viewBox="0 0 84 84" enable-background="new 0 0 84 84" xml:space="preserve">
<path fill-rule="evenodd" clip-rule="evenodd" fill="#0050a0" d="M42,0c23.196,0,42,18.804,42,42S65.196,84,42,84S0,65.196,0,42
	S18.804,0,42,0z"/>
<path fill-rule="evenodd" clip-rule="evenodd" fill="#6AB5AC" d="M42,3c21.539,0,39,17.461,39,39S63.539,81,42,81S3,63.539,3,42
	S20.461,3,42,3z"/>
<path fill="#FFFFFF" d="M60.571,28.65l-1.24-0.936v-4.158H39.55L18.513,44.593l19.781,19.781l17.349-17.349
	c1.431,0.466,2.904,0.726,4.284,0.726c3.017,0,5.369-1.17,6.624-3.293l0.042-0.072l0.036-0.075
	C70.514,36.279,60.979,28.958,60.571,28.65z M59.331,38.416c0.462,0.788,0.759,1.507,0.799,1.947
	c-0.033,0.001-0.068,0.001-0.106,0.001c-0.201,0-0.437-0.018-0.694-0.052V38.416z M38.294,61.546L21.341,44.593l19.037-19.037
	h16.953v7.493l-0.025,1.956l-0.01,0.798l0.035,0.038v3.914c-0.346-0.148-0.693-0.327-1.031-0.54
	c-1.325-0.837-2.644-2.203-3.636-3.451c0.232-0.628,0.334-1.301,0.293-1.982c-0.156-2.587-2.308-4.613-4.898-4.613
	c-0.099,0-0.199,0.003-0.299,0.009c-2.702,0.163-4.767,2.495-4.604,5.197c0.098,1.622,0.974,3.052,2.338,3.881
	c0.894,1.527,3.048,4.744,6.408,6.977c0.546,0.363,1.127,0.687,1.727,0.979L38.294,61.546z M64.828,43.44
	c-0.955,1.617-2.804,2.31-4.901,2.31c-0.864,0-1.769-0.118-2.672-0.338l0.004-0.004c-0.706-0.171-1.407-0.406-2.088-0.694
	c-0.759-0.321-1.491-0.703-2.162-1.148c-3.48-2.313-5.537-5.831-6.065-6.811c-0.993-0.414-1.722-1.355-1.792-2.501
	c-0.097-1.604,1.124-2.983,2.728-3.08c0.06-0.004,0.119-0.005,0.178-0.005c1.526,0,2.808,1.19,2.901,2.734
	c0.046,0.767-0.215,1.477-0.669,2.026c0.543,0.778,2.499,3.435,4.94,4.977c0.675,0.427,1.393,0.731,2.099,0.965v0.019
	c0.073,0.024,0.142,0.036,0.215,0.059c0.163,0.05,0.319,0.091,0.479,0.131c0.222,0.056,0.437,0.104,0.651,0.142
	c0.157,0.028,0.309,0.054,0.46,0.073c0.063,0.008,0.133,0.025,0.195,0.031V42.31c0.237,0.023,0.481,0.055,0.694,0.055
	c0.825,0,1.447-0.171,1.678-0.484c1.654-2.327-2.113-6.539-2.372-6.823l0,0c-0.009-0.01-0.025-0.027-0.025-0.027l0.025-1.971l0,0
	l0.035-2.813C59.367,30.246,68.043,36.794,64.828,43.44z"/>
</svg>
