<?xml version="1.0" encoding="utf-8"?>
<!-- Generator: Adobe Illustrator 17.0.0, SVG Export Plug-In . SVG Version: 6.00 Build 0)  -->
<!DOCTYPE svg PUBLIC "-//W3C//DTD SVG 1.1//EN" "http://www.w3.org/Graphics/SVG/1.1/DTD/svg11.dtd">
<svg version="1.1" id="Livello_1" xmlns="http://www.w3.org/2000/svg" xmlns:xlink="http://www.w3.org/1999/xlink" x="0px" y="0px"
	 width="34px" height="34px" viewBox="0 0 34 34" enable-background="new 0 0 34 34" xml:space="preserve">
<path fill-rule="evenodd" clip-rule="evenodd" fill="#F7F7F7" d="M17,0C7.611,0,0,7.611,0,17s7.611,17,17,17s17-7.611,17-17
	S26.389,0,17,0z"/>
<path fill-rule="evenodd" clip-rule="evenodd" fill="#FFFFFF" d="M17,3c7.732,0,14,6.268,14,14s-6.268,14-14,14S3,24.732,3,17
	S9.268,3,17,3z"/>
<path fill="#F7F7F7" d="M16.712,22.323c-0.907,0-1.553,0.183-1.974,0.56c-0.432,0.385-0.65,0.888-0.65,1.493
	c0,0.607,0.222,1.11,0.66,1.496c0.426,0.375,1.068,0.557,1.964,0.557c0.896,0,1.538-0.182,1.964-0.557
	c0.438-0.386,0.66-0.889,0.66-1.496c0-0.607-0.222-1.11-0.66-1.496C18.25,22.505,17.608,22.323,16.712,22.323z"/>
<path fill="#F7F7F7" d="M16.961,6.796c-0.949,0-1.881,0.125-2.769,0.37c-0.873,0.241-2.102,0.734-3.655,1.465L10.25,8.766V11.5
	c0,0.86,0.18,1.475,0.549,1.876c0.375,0.409,0.862,0.616,1.445,0.616c0.594,0,1.087-0.21,1.462-0.626
	c0.368-0.407,0.547-1.017,0.547-1.866v-0.122c0.867-0.384,1.772-0.579,2.693-0.579c0.912,0,1.615,0.218,2.088,0.647
	c0.466,0.422,0.693,0.905,0.693,1.475c0,0.368-0.197,0.752-0.586,1.141c-0.3,0.3-1.257,0.887-4.117,1.981l-0.321,0.123v2.029
	c0,0.859,0.179,1.474,0.547,1.881c0.376,0.416,0.863,0.626,1.447,0.626c0.542,0,1.001-0.178,1.365-0.528
	c0.302-0.291,0.503-0.712,0.6-1.254c1.921-0.868,3.204-1.705,3.918-2.556c0.763-0.909,1.15-2.023,1.15-3.31
	c0-1.784-0.628-3.291-1.868-4.477C20.629,7.394,18.98,6.796,16.961,6.796z"/>
</svg>
