<?xml version="1.0" encoding="utf-8"?>
<!-- Generator: Adobe Illustrator 17.0.0, SVG Export Plug-In . SVG Version: 6.00 Build 0)  -->
<!DOCTYPE svg PUBLIC "-//W3C//DTD SVG 1.1//EN" "http://www.w3.org/Graphics/SVG/1.1/DTD/svg11.dtd">
<svg version="1.1" id="Livello_1" xmlns="http://www.w3.org/2000/svg" xmlns:xlink="http://www.w3.org/1999/xlink" x="0px" y="0px"
	 width="60px" height="60px" viewBox="0 0 60 60" enable-background="new 0 0 60 60" xml:space="preserve">
<path fill-rule="evenodd" clip-rule="evenodd" fill="#0050a0" d="M30,0c16.569,0,30,13.432,30,30S46.569,60,30,60S0,46.569,0,30
	S13.432,0,30,0z"/>
<path fill-rule="evenodd" clip-rule="evenodd" fill="#0050a0" d="M30,3c14.912,0,27,12.088,27,27S44.912,57,30,57S3,44.912,3,30
	S15.088,3,30,3z"/>
<path fill-rule="evenodd" clip-rule="evenodd" fill="#FFFFFF" d="M45.054,35.19l-15.88,2.646l-5.254,0.876l-4.244,0.707l-2.5-4.678
	l17.669-18.331c0.271-0.282,0.259-0.727-0.027-0.995c-0.286-0.268-0.739-0.256-1.01,0.025L15.395,34.589l3.669,6.36L24.16,40.1
	l0.28,1.619c0.221,1.278,1.451,2.138,2.748,1.922l5.871-0.978c1.297-0.216,2.169-1.427,1.948-2.704l-0.28-1.619l10.567-1.761
	c0.389-0.065,0.651-0.428,0.584-0.811C45.812,35.384,45.443,35.126,45.054,35.19z M32.309,41.122l-4.931,0.822
	c-0.519,0.086-1.011-0.258-1.099-0.769l-0.24-1.388l6.81-1.135l0.24,1.388C33.177,40.551,32.828,41.035,32.309,41.122z"/>
<path fill-rule="evenodd" clip-rule="evenodd" fill="#FFFFFF" d="M14.505,35.469c-0.188-0.342-0.621-0.47-0.968-0.286
	c-0.347,0.184-0.477,0.611-0.289,0.953l3.169,5.783c0.188,0.342,0.621,0.47,0.968,0.286c0.347-0.184,0.477-0.611,0.289-0.953
	L14.505,35.469z"/>
</svg>
