<?xml version="1.0" encoding="utf-8"?>
<!-- Generator: Adobe Illustrator 17.0.0, SVG Export Plug-In . SVG Version: 6.00 Build 0)  -->
<!DOCTYPE svg PUBLIC "-//W3C//DTD SVG 1.1//EN" "http://www.w3.org/Graphics/SVG/1.1/DTD/svg11.dtd">
<svg version="1.1" id="Livello_1" xmlns="http://www.w3.org/2000/svg" xmlns:xlink="http://www.w3.org/1999/xlink" x="0px" y="0px"
	 width="34px" height="34px" viewBox="0 0 34 34" enable-background="new 0 0 34 34" xml:space="preserve">
<g opacity="0.7">
	<g>
		<circle fill="#D23333" cx="17" cy="17" r="17"/>
		<path fill="#FFFFFF" d="M25.053,26.469c-0.124,0-0.249-0.023-0.368-0.07l-3.848-1.523c-1.226,0.435-2.515,0.656-3.837,0.656
			c-5.514,0-10-3.813-10-8.5s4.486-8.5,10-8.5s10,3.813,10,8.5c0,1.691-0.579,3.309-1.681,4.709l0.713,3.53
			c0.073,0.359-0.057,0.73-0.338,0.965C25.511,26.389,25.283,26.469,25.053,26.469z"/>
	</g>
	<g>
		<path fill="#D23333" d="M11.169,19.351v-0.29c0-0.419,0.064-0.764,0.193-1.033c0.129-0.271,0.369-0.556,0.72-0.857
			c0.487-0.412,0.794-0.722,0.921-0.929c0.127-0.208,0.19-0.458,0.19-0.752c0-0.365-0.117-0.647-0.352-0.846
			c-0.235-0.199-0.572-0.298-1.013-0.298c-0.283,0-0.559,0.033-0.827,0.099c-0.269,0.066-0.577,0.188-0.924,0.363L9.76,14.083
			c0.677-0.354,1.384-0.532,2.122-0.532c0.684,0,1.216,0.168,1.595,0.505s0.569,0.811,0.569,1.423c0,0.261-0.035,0.491-0.105,0.69
			c-0.069,0.198-0.172,0.387-0.309,0.563c-0.136,0.178-0.43,0.463-0.881,0.857c-0.362,0.308-0.601,0.564-0.717,0.768
			c-0.117,0.204-0.175,0.476-0.175,0.816v0.177h-0.69V19.351z M10.906,20.946c0-0.487,0.215-0.73,0.645-0.73
			c0.208,0,0.368,0.062,0.48,0.188c0.113,0.126,0.169,0.307,0.169,0.543c0,0.229-0.057,0.407-0.172,0.534s-0.274,0.19-0.478,0.19
			c-0.186,0-0.34-0.056-0.462-0.169C10.967,21.39,10.906,21.204,10.906,20.946z"/>
		<path fill="#D23333" d="M19.607,16.687l-0.354,1.826h1.521v0.693h-1.649l-0.451,2.31h-0.736l0.452-2.31h-1.628l-0.44,2.31h-0.73
			l0.43-2.31h-1.407v-0.693h1.542l0.365-1.826h-1.488v-0.682h1.606l0.44-2.342h0.747l-0.44,2.342h1.639l0.451-2.342h0.72
			l-0.451,2.342h1.418v0.682H19.607z M16.89,18.513h1.628l0.354-1.826h-1.628L16.89,18.513z"/>
		<path fill="#D23333" d="M22.261,20.946c0-0.487,0.215-0.73,0.645-0.73c0.208,0,0.368,0.062,0.48,0.188
			c0.113,0.126,0.17,0.307,0.17,0.543c0,0.229-0.058,0.407-0.172,0.534c-0.115,0.127-0.274,0.19-0.479,0.19
			c-0.186,0-0.34-0.056-0.462-0.169C22.322,21.39,22.261,21.204,22.261,20.946z M23.195,19.351h-0.563l-0.274-5.688h1.112
			L23.195,19.351z"/>
	</g>
</g>
</svg>
