<?xml version="1.0" encoding="utf-8"?>
<!-- Generator: Adobe Illustrator 17.0.0, SVG Export Plug-In . SVG Version: 6.00 Build 0)  -->
<!DOCTYPE svg PUBLIC "-//W3C//DTD SVG 1.1//EN" "http://www.w3.org/Graphics/SVG/1.1/DTD/svg11.dtd">
<svg version="1.1" id="Livello_1" xmlns="http://www.w3.org/2000/svg" xmlns:xlink="http://www.w3.org/1999/xlink" x="0px" y="0px"
	 width="159px" height="34px" viewBox="0 0 159 34" enable-background="new 0 0 159 34" xml:space="preserve">
<g opacity="0.7">
	<path fill-rule="evenodd" clip-rule="evenodd" fill="#BE0000" d="M17,0C7.611,0,0,7.611,0,17s7.611,17,17,17h125V0H17z"/>
	<g>
		<polygon fill="#FFFFFF" points="27.821,23.68 29.315,23.68 29.315,18.187 34.642,18.187 34.642,16.86 29.315,16.86 29.315,12.157 
			34.984,12.157 34.984,10.83 27.821,10.83 		"/>
		<polygon fill="#FFFFFF" points="37.111,23.68 44.274,23.68 44.274,22.344 38.605,22.344 38.605,17.615 43.932,17.615 
			43.932,16.297 38.605,16.297 38.605,12.157 44.274,12.157 44.274,10.83 37.111,10.83 		"/>
		<polygon fill="#FFFFFF" points="47.122,23.68 54.285,23.68 54.285,22.344 48.616,22.344 48.616,17.615 53.942,17.615 
			53.942,16.297 48.616,16.297 48.616,12.157 54.285,12.157 54.285,10.83 47.122,10.83 		"/>
		<path fill="#FFFFFF" d="M61.07,10.83h-3.938v12.85h3.56c2.162,0,3.819-0.561,4.97-1.683c1.151-1.122,1.727-2.744,1.727-4.865
			c0-1.986-0.554-3.533-1.661-4.641S63.068,10.83,61.07,10.83z M64.463,21.074c-0.896,0.876-2.235,1.314-4.017,1.314h-1.819V12.122
			h2.171c1.658,0,2.908,0.425,3.749,1.274c0.841,0.85,1.261,2.112,1.261,3.788C65.808,18.902,65.359,20.198,64.463,21.074z"/>
		<path fill="#FFFFFF" d="M76.231,16.948V16.86c0.814-0.146,1.434-0.467,1.859-0.962c0.425-0.495,0.637-1.124,0.637-1.885
			c0-1.102-0.381-1.907-1.143-2.417c-0.762-0.51-1.995-0.765-3.7-0.765h-3.63v12.85h4.482c1.394,0,2.48-0.322,3.256-0.967
			c0.776-0.644,1.165-1.541,1.165-2.689C79.158,18.307,78.183,17.281,76.231,16.948z M71.749,12.122h2.197
			c1.125,0,1.945,0.16,2.461,0.479c0.516,0.319,0.773,0.839,0.773,1.56c0,0.785-0.232,1.343-0.694,1.674
			c-0.463,0.331-1.222,0.497-2.276,0.497h-2.461V12.122z M76.772,21.803c-0.524,0.401-1.305,0.602-2.342,0.602h-2.681v-4.808h2.558
			c1.096,0,1.912,0.188,2.448,0.562c0.536,0.375,0.804,0.961,0.804,1.758C77.559,20.774,77.296,21.402,76.772,21.803z"/>
		<path fill="#FFFFFF" d="M85.231,10.778l-5.08,12.902h1.512l1.582-4.087h5.15l1.6,4.087h1.547l-5.054-12.902H85.231z
			 M83.772,18.248l1.512-3.982c0.24-0.674,0.425-1.292,0.554-1.854c0.205,0.732,0.404,1.351,0.598,1.854l1.494,3.982H83.772z"/>
		<path fill="#FFFFFF" d="M98.811,11.982c0.973,0,1.945,0.229,2.918,0.685l0.633-1.283c-1.008-0.492-2.186-0.738-3.533-0.738
			c-1.266,0-2.366,0.27-3.3,0.809c-0.935,0.539-1.649,1.307-2.145,2.303c-0.495,0.996-0.743,2.156-0.743,3.48
			c0,2.115,0.514,3.747,1.542,4.896c1.028,1.148,2.489,1.723,4.381,1.723c1.307,0,2.405-0.167,3.296-0.501v-1.31
			c-1.148,0.322-2.171,0.483-3.067,0.483c-1.459,0-2.583-0.458-3.371-1.375c-0.788-0.917-1.182-2.216-1.182-3.898
			c0-1.635,0.409-2.922,1.226-3.863C96.284,12.452,97.398,11.982,98.811,11.982z"/>
		<polygon fill="#FFFFFF" points="108.584,16.411 113.752,10.83 111.985,10.83 106.158,17.202 106.158,10.83 104.664,10.83 
			104.664,23.68 106.158,23.68 106.158,18.644 107.503,17.448 112.188,23.68 113.945,23.68 		"/>
	</g>
	<g>
		<g>
			<circle fill="#BE0000" cx="142" cy="17" r="17"/>
			<path fill="#FFFFFF" d="M150.053,26.469c-0.124,0-0.249-0.023-0.368-0.07l-3.848-1.523c-1.226,0.435-2.515,0.656-3.837,0.656
				c-5.514,0-10-3.813-10-8.5s4.486-8.5,10-8.5s10,3.813,10,8.5c0,1.691-0.579,3.309-1.681,4.709l0.713,3.53
				c0.073,0.359-0.057,0.73-0.338,0.965C150.511,26.389,150.283,26.469,150.053,26.469z"/>
		</g>
		<g>
			<path fill="#BE0000" d="M136.169,19.351v-0.29c0-0.419,0.064-0.764,0.193-1.033c0.129-0.271,0.369-0.556,0.72-0.857
				c0.487-0.412,0.794-0.722,0.921-0.929c0.127-0.208,0.19-0.458,0.19-0.752c0-0.365-0.117-0.647-0.352-0.846
				c-0.235-0.199-0.572-0.298-1.013-0.298c-0.283,0-0.559,0.033-0.827,0.099c-0.269,0.066-0.577,0.188-0.924,0.363l-0.317-0.725
				c0.677-0.354,1.384-0.532,2.122-0.532c0.684,0,1.216,0.168,1.595,0.505c0.379,0.337,0.569,0.811,0.569,1.423
				c0,0.261-0.035,0.491-0.105,0.69c-0.069,0.198-0.172,0.387-0.309,0.563c-0.136,0.178-0.43,0.463-0.881,0.857
				c-0.362,0.308-0.601,0.564-0.717,0.768c-0.117,0.204-0.175,0.476-0.175,0.816v0.177h-0.69V19.351z M135.906,20.946
				c0-0.487,0.215-0.73,0.645-0.73c0.208,0,0.368,0.062,0.48,0.188c0.113,0.126,0.169,0.307,0.169,0.543
				c0,0.229-0.057,0.407-0.172,0.534s-0.274,0.19-0.478,0.19c-0.186,0-0.34-0.056-0.462-0.169
				C135.967,21.39,135.906,21.204,135.906,20.946z"/>
			<path fill="#BE0000" d="M144.607,16.687l-0.354,1.826h1.521v0.693h-1.649l-0.451,2.31h-0.736l0.452-2.31h-1.628l-0.44,2.31h-0.73
				l0.43-2.31h-1.407v-0.693h1.542l0.365-1.826h-1.488v-0.682h1.606l0.44-2.342h0.747l-0.44,2.342h1.639l0.451-2.342h0.72
				l-0.451,2.342h1.418v0.682H144.607z M141.89,18.513h1.628l0.354-1.826h-1.628L141.89,18.513z"/>
			<path fill="#BE0000" d="M147.261,20.946c0-0.487,0.215-0.73,0.645-0.73c0.208,0,0.368,0.062,0.48,0.188
				c0.113,0.126,0.17,0.307,0.17,0.543c0,0.229-0.058,0.407-0.172,0.534c-0.115,0.127-0.274,0.19-0.479,0.19
				c-0.186,0-0.34-0.056-0.462-0.169C147.322,21.39,147.261,21.204,147.261,20.946z M148.195,19.351h-0.563l-0.274-5.688h1.112
				L148.195,19.351z"/>
		</g>
	</g>
</g>
</svg>
