<?xml version="1.0" encoding="utf-8"?>
<!-- Generator: Adobe Illustrator 17.0.0, SVG Export Plug-In . SVG Version: 6.00 Build 0)  -->
<!DOCTYPE svg PUBLIC "-//W3C//DTD SVG 1.1//EN" "http://www.w3.org/Graphics/SVG/1.1/DTD/svg11.dtd">
<svg version="1.1" id="Livello_1" xmlns="http://www.w3.org/2000/svg" xmlns:xlink="http://www.w3.org/1999/xlink" x="0px" y="0px"
	 width="225.066px" height="197.503px" viewBox="0 0 225.066 197.503" enable-background="new 0 0 225.066 197.503"
	 xml:space="preserve">
<path fill="#5B8EC2" d="M224.981,140.901c-0.51-2.759-3.219-4.557-6.048-4.015l-171.907,33.06l-18.41-31.727L144.39,8.419
	c1.901-2.134,1.702-5.355-0.452-7.187c-2.148-1.835-5.438-1.591-7.346,0.547L15.911,137.086l25.679,44.255l36.918-7.098l2.052,11.47
	c0.679,3.804,2.837,7.098,6.069,9.273c3.233,2.179,7.158,2.98,11.056,2.259l40.74-7.562c1.664-0.312,3.252-0.888,4.716-1.716
	c5.451-3.087,8.389-9.209,7.313-15.225l-2.134-11.921l72.472-13.934c0.591-0.114,1.134-0.317,1.626-0.597
	C224.298,145.226,225.39,143.091,224.981,140.901z M138.034,179.167c-0.432,0.245-0.902,0.41-1.401,0.506L95.89,187.23
	c-2.382,0.442-4.664-1.087-5.079-3.416l-1.838-10.274l49.39-9.168l1.837,10.274C140.522,176.432,139.653,178.25,138.034,179.167z"/>
<path fill="#5B8EC2" d="M9.737,144.959c-1.411-2.43-4.582-3.251-7.085-1.834c-2.505,1.418-3.391,4.537-1.98,6.968l21.938,37.808
	c1.41,2.429,4.584,3.255,7.089,1.837c2.503-1.418,3.386-4.539,1.977-6.97L9.737,144.959z"/>
</svg>
