<?xml version="1.0" encoding="utf-8"?>
<!-- Generator: Adobe Illustrator 17.0.0, SVG Export Plug-In . SVG Version: 6.00 Build 0)  -->
<!DOCTYPE svg PUBLIC "-//W3C//DTD SVG 1.1//EN" "http://www.w3.org/Graphics/SVG/1.1/DTD/svg11.dtd">
<svg version="1.1" id="Livello_1" xmlns="http://www.w3.org/2000/svg" xmlns:xlink="http://www.w3.org/1999/xlink" x="0px" y="0px"
	 width="24px" height="24px" viewBox="0 0 24 24" enable-background="new 0 0 24 24" xml:space="preserve">
<path fill="#FFF000" d="M22.5,0H0l24,24V1.5C24,0.672,23.328,0,22.5,0z M21.327,11.042h-6.082V9.9
	c0.383-0.117,0.666-0.305,0.85-0.562c0.184-0.258,0.275-0.605,0.275-1.043V7.216h-1.102V6.208h1.102v-1.5
	c0-0.734,0.222-1.309,0.665-1.723s1.054-0.621,1.831-0.621c0.758,0,1.49,0.16,2.197,0.48L20.618,3.91
	c-0.633-0.277-1.188-0.416-1.664-0.416c-0.801,0-1.201,0.428-1.201,1.283v1.43h2.326v1.008h-2.326v1.066
	c0,0.356-0.065,0.658-0.193,0.908c-0.129,0.25-0.35,0.463-0.662,0.639h4.43L21.327,11.042L21.327,11.042z"/>
</svg>
