<?xml version="1.0" encoding="utf-8"?>
<!-- Generator: Adobe Illustrator 17.0.0, SVG Export Plug-In . SVG Version: 6.00 Build 0)  -->
<!DOCTYPE svg PUBLIC "-//W3C//DTD SVG 1.1//EN" "http://www.w3.org/Graphics/SVG/1.1/DTD/svg11.dtd">
<svg version="1.1" id="Livello_1" xmlns="http://www.w3.org/2000/svg" xmlns:xlink="http://www.w3.org/1999/xlink" x="0px" y="0px"
	 width="34px" height="34px" viewBox="0 0 34 34" enable-background="new 0 0 34 34" xml:space="preserve">
<g>
	<path fill-rule="evenodd" clip-rule="evenodd" fill="#FFFFFF" d="M17,0C7.611,0,0,7.611,0,17s7.611,17,17,17s17-7.611,17-17
		S26.389,0,17,0z M17,32C8.716,32,2,25.284,2,17S8.716,2,17,2s15,6.716,15,15S25.284,32,17,32z"/>
	<path fill-rule="evenodd" clip-rule="evenodd" fill="#FFFFFF" d="M14,10v4h-3v4h3v10h4V18h3.455l0.182-4H18v-2.5
		c0-0.828,0.672-1.5,1.5-1.5h2.318L22,6h-4C15.791,6,14,7.791,14,10z"/>
</g>
</svg>
