<?xml version="1.0" encoding="utf-8"?>
<!-- Generator: Adobe Illustrator 17.0.0, SVG Export Plug-In . SVG Version: 6.00 Build 0)  -->
<!DOCTYPE svg PUBLIC "-//W3C//DTD SVG 1.1//EN" "http://www.w3.org/Graphics/SVG/1.1/DTD/svg11.dtd">
<svg version="1.1" id="Livello_1" xmlns="http://www.w3.org/2000/svg" xmlns:xlink="http://www.w3.org/1999/xlink" x="0px" y="0px"
	 width="148.544px" height="105.808px" viewBox="18.021 2.549 148.544 105.808"
	 enable-background="new 18.021 2.549 148.544 105.808" xml:space="preserve">
<path fill="#F1C6B7" d="M67.6,67.531c0.857-0.35,1.702-0.736,2.575-1.038c0.619-0.214,0.966-0.588,1.189-1.198
	c0.355-0.973,0.847-1.89,1.401-2.769c0.125-0.143,0.203-0.317,0.312-0.47l0,0c0.102-0.077,0.063-0.229,0.164-0.307
	c0.999-1.428,2.121-2.746,3.38-3.956c0.751-0.722,1.558-1.369,2.397-1.978c0.38-0.276,0.599-0.568,0.673-1.06
	c0.198-1.328,0.463-2.647,0.584-3.987c0.052-0.577-0.082-1.132-0.221-1.688c-0.206-0.819,0.02-1.109,0.878-1.102
	c1.481,0.013,2.786,0.556,3.963,1.417c0.521,0.381,0.996,0.826,1.492,1.241c0.043,0.08,0.031,0.15-0.035,0.212
	c-0.5,0.228-0.968-0.044-1.448-0.102c-1.025-0.123-2.02-0.158-2.916,0.506c-1.529,1.134-1.569,3.345-0.041,4.476
	c1.323,0.98,2.825,1.659,4.267,2.437c0.099,0.066,0.183,0.147,0.254,0.241c0.298,0.527,0.557,1.074,0.819,1.62
	c0.447,1.439,1.272,2.703,1.887,4.064c0.167,0.202,0.111,0.616,0.544,0.564c0.298,0.012,0.561-0.096,0.817-0.227
	c1.087-0.276,2.029-0.895,3.063-1.296c1.061-0.344,2.098-0.75,3.134-1.162c0.8-0.318,1.566-0.224,2.252,0.327
	c0.11,0.443-0.068,0.863-0.105,1.295c-0.123,1.431,0.319,2.684,1.205,3.794c0.13,0.163,0.312,0.267,0.496,0.36
	c0.171,0.103,0.335,0.23,0.557,0.167c0.24-0.117,0.294-0.36,0.354-0.574c0.411-1.462,1.03-2.857,1.402-4.331
	c0.028-0.11,0.063-0.218,0.104-0.325c0.036-0.109,0.077-0.215,0.114-0.324c0.401-0.923,0.636-1.906,1.018-2.837
	c1.091-0.824,2.299-1.361,3.675-1.482c0.054,0.311,0.314,0.47,0.509,0.673c2.563,2.686,4.316,5.824,5.324,9.395
	c0.461,1.634,0.688,3.287,0.791,4.982c0.167,2.751-0.199,5.412-1.038,8.018c-0.804,2.497-2.026,4.786-3.61,6.87
	c-0.644,0.847-1.357,1.648-2.156,2.36c-0.318,0.283-0.474,0.605-0.426,1.031c0.017,0.154-0.005,0.313,0,0.469
	c0.075,2.058-0.183,4.106-0.168,6.163c0.004,0.589-0.048,0.607-0.622,0.554c-0.233-0.022-0.468-0.029-0.702-0.024
	c-3.282,0.072-6.556-0.243-9.838-0.187c-0.594,0.01-1.181-0.17-1.784-0.139c-0.368,0.018-0.465-0.23-0.511-0.555
	c-0.045-0.322,0.151-0.742-0.181-0.945c-0.282-0.173-0.663-0.054-1.001-0.059c-0.678-0.009-1.356,0.007-2.033-0.012
	c-0.36-0.01-0.541,0.112-0.518,0.49c0.009,0.155-0.011,0.312-0.026,0.468c-0.03,0.31-0.203,0.474-0.515,0.463
	c-1.481-0.048-2.968,0.106-4.446-0.114c-0.23-0.034-0.467-0.032-0.701-0.034c-1.59-0.01-3.18,0.001-4.77-0.03
	c-0.856-0.017-1.705-0.189-2.566-0.141c-0.274,0.015-0.46-0.089-0.452-0.397c0.039-1.404-0.094-2.811,0.098-4.212
	c0.11-0.803,0.029-1.613,0.049-2.419c0.007-0.265-0.174-0.425-0.342-0.588c-1.912-1.847-3.391-4.003-4.533-6.395
	c-0.156-0.327-0.366-0.568-0.72-0.659c-1.181-0.304-2.303-0.803-3.504-1.041c-0.041-0.008-0.07-0.071-0.105-0.109
	c1.208-0.482,1.72-1.516,2.074-2.655c0.884-2.842,0.851-5.728,0.37-8.631c-0.042-0.256-0.134-0.501-0.215-0.748
	C69.202,68.842,68.741,67.906,67.6,67.531z"/>
<path fill="#FCDFC9" d="M57.112,40.67c0.645,0.811,1.305,1.61,1.928,2.438c0.422,0.561,0.733,1.19,0.973,1.856
	c0.178,0.494,0.266,0.533,0.738,0.325c0.563-0.247,1.009-0.096,1.417,0.299c0.668,0.648,0.95,1.474,1.043,2.37
	c0.05,0.48-0.18,0.854-0.6,1.099c-0.135,0.078-0.272,0.159-0.419,0.207c-0.4,0.131-0.486,0.38-0.376,0.773
	c0.236,0.847,0.437,1.701,0.539,2.581c0.102,0.882,0.117,1.75-0.009,2.632c-0.103,0.717-0.213,1.43-0.335,2.144
	c-0.255,1.491-0.981,2.716-1.945,3.834c-0.101,0.117-0.19,0.245-0.285,0.367c-2.043,2.33-4.562,3.938-7.527,4.795
	c-1.006,0.291-1.645,0.775-1.907,1.803c-0.277,1.084-0.795,2.093-1.069,3.183c-0.075,0.298-0.143,0.671-0.514,0.71
	c-0.324,0.034-0.467-0.293-0.616-0.53c-0.731-1.17-1.504-2.315-2.159-3.532c-0.342-0.635-0.831-0.992-1.571-1.134
	c-1.665-0.32-3.236-0.974-4.84-1.512c-0.565-0.361-0.78-0.964-1.028-1.532c-0.334-0.764-0.651-1.537-0.911-2.33
	c-0.169-0.515-0.457-0.703-1.005-0.521c-2.455,0.813-3.619-1.252-3.591-3.015c0.016-1.008,0.837-1.928,1.976-2.119
	c0.651-0.109,0.922-0.433,1.124-0.993c1.079-2.992,2.134-5.992,2.909-9.08c0.355-1.416,0.731-2.826,1.145-4.226
	c0.253-0.854,0.403-0.982,1.284-0.846c2.112,0.327,4.234,0.55,6.361,0.743c1.672,0.152,3.328-0.09,4.988-0.195
	c1.275-0.081,2.542-0.241,3.764-0.648C56.762,40.558,56.953,40.528,57.112,40.67z"/>
<path fill="#FCDFC9" d="M131.6,56.128c0.084-0.045,0.34-0.03,0.094-0.204c-0.551-0.389-1.124-0.749-1.67-1.145
	c-0.462-0.334-0.918-0.682-1.344-1.06c-1.019-0.906-1.628-2.069-2.093-3.334c-0.497-1.352-0.736-2.754-0.913-4.171
	c-0.081-0.653,0.182-1.281,0.152-1.939c-0.038-0.837,0.004-0.866-0.752-1.109c-0.563-0.181-0.778-0.562-0.819-1.1
	c-0.045-0.582,0.062-1.143,0.28-1.677c0.342-0.838,0.731-1.106,1.627-0.999c0.412,0.049,0.518-0.039,0.621-0.431
	c0.561-2.124,1.628-3.978,3.09-5.613c0.345-0.386,0.639-0.813,1.089-1.099c0.199-0.126,0.329-0.333,0.364-0.581
	c0.421-0.183,0.821,0,1.22,0.086c6.345,1.363,12.645,2.925,18.983,4.318c1.195,0.263,1.322,0.451,1.123,1.662
	c-0.381,2.315-0.929,4.598-1.354,6.905c-0.178,0.964-0.172,0.965,0.791,1.113c1.015,0.156,1.838,1.039,1.879,2.015
	c0.046,1.101-0.751,2.338-1.681,2.576c-0.378,0.097-0.774,0.194-1.16,0.095c-0.7-0.18-0.911,0.17-1.036,0.783
	c-0.223,1.097-0.439,2.198-0.776,3.27c-0.107,0.294-0.362,0.456-0.579,0.654c-2.174,1.414-4.514,2.407-7.097,2.778
	c-0.658,0.658-0.901,1.565-1.392,2.325c-0.538,0.833-0.719,0.848-1.309,0.031c-0.489-0.678-0.685-1.521-1.256-2.146
	c-1.179-0.402-2.426-0.529-3.61-0.91c-0.616-0.198-1.236-0.383-1.836-0.628C132.025,56.438,131.647,56.509,131.6,56.128z"/>
<path fill="#3F2417" d="M57.112,40.67c-1.602,0.609-3.292,0.722-4.974,0.88c-3.373,0.318-6.71-0.014-10.039-0.528
	c-0.459-0.071-1.001-0.341-1.36-0.137c-0.408,0.232-0.373,0.873-0.508,1.34c-0.806,2.774-1.408,5.605-2.361,8.337
	c-0.583,1.671-1.172,3.34-1.759,5.01c-0.106,0.301-0.176,0.527-0.64,0.458c-1.141-0.169-2.454,1.101-2.218,2.33
	c0.115,0.598,0.232,1.168,0.596,1.668c0.652,0.896,1.456,1.161,2.526,0.84c0.342-0.103,0.713-0.438,1.015-0.264
	c0.314,0.181,0.37,0.66,0.509,1.019c0.47,1.212,0.851,2.463,1.614,3.54c0.059,0.083,0.132,0.155,0.198,0.232
	c1.494,1.006,2.306,2.452,2.563,4.193c0.144,0.976,0.056,1.971-0.123,2.951c-0.089,0.488-0.328,0.705-0.809,0.546
	c-0.829-0.274-1.645-0.148-2.464,0.028c-1.156,0.247-2.274,0.122-3.36-0.34c-0.486-0.206-0.924-0.47-1.228-0.916
	c-1.393-1.034-2.918-1.293-4.542-0.681c-0.876,0.33-1.747,0.65-2.669,0.818c-0.178,0.033-0.357,0.071-0.537,0.086
	c-1.056,0.09-1.061,0.032-1.409-0.965c-0.572-1.638,0.12-2.985,0.882-4.329c0.266-0.469,0.678-0.858,0.76-1.425
	c-0.021-0.817-0.196-1.589-0.615-2.303c-0.679-1.157-0.435-2.415-0.369-3.651c0.266-1.671,0.772-3.236,1.951-4.516
	c0.651-0.707,0.891-1.581,0.895-2.516c0.014-3.606,0.849-7.022,2.528-10.197c1.591-3.009,3.71-5.588,6.648-7.415
	c1.311-0.815,2.763-1.188,4.266-1.401c2.131-0.302,4.254-0.278,6.362,0.202c0.945,0.215,1.833,0.577,2.689,1.028
	c1.15,0.607,2.311,1.194,3.455,1.812c1.07,0.578,2.204,0.758,3.398,0.616c0.737-0.088,1.167-0.488,1.32-1.223
	c0.053-0.255,0.064-0.52,0.138-0.767c0.213-0.71,0.892-0.886,1.371-0.326c0.453,0.531,0.722,1.139,0.432,1.871
	c-0.572,1.444-1.4,2.667-2.824,3.401C57.981,40.2,57.548,40.438,57.112,40.67z"/>
<path fill="#FCDFC9" d="M87.446,36.579c0.04-0.07,0.367-0.032,0.12-0.196c-0.452-0.302-0.939-0.553-1.422-0.805
	c-2.189-1.144-3.534-2.955-4.33-5.264c-0.559-1.621-0.827-3.258-0.758-4.965c0.03-0.732,0.004-0.734-0.676-0.949
	c-0.834-0.264-0.987-0.472-1.039-1.325c-0.036-0.588,0.107-1.128,0.357-1.654c0.261-0.549,0.659-0.835,1.282-0.837
	c0.619-0.002,0.597-0.027,0.717-0.603c0.169-0.811,0.365-1.61,0.756-2.36c0.613-1.175,1.176-2.372,2.021-3.412
	c0.231-0.284,0.481-0.543,0.727-0.81c0.174-0.19,0.394-0.35,0.406-0.642c1.103-0.136,2.179,0.119,3.242,0.31
	c5.51,0.992,11.064,1.698,16.581,2.643c0.154,0.026,0.308,0.054,0.461,0.084c0.92,0.176,1.11,0.413,0.985,1.325
	c-0.215,1.574-0.38,3.155-0.62,4.726c-0.126,0.824-0.204,1.655-0.336,2.478c-0.068,0.426,0.066,0.592,0.53,0.624
	c1.352,0.091,2.217,1.004,2.207,2.25c-0.011,1.367-1.015,2.496-2.347,2.519c-0.722,0.012-1.016,0.299-1.12,0.983
	c-0.169,1.107-0.283,2.222-0.501,3.321c-0.079,0.234-0.254,0.389-0.447,0.526c-2.316,1.653-4.804,2.956-7.652,3.351
	c-2.229,0.309-4.468,0.237-6.657-0.392c-0.601-0.173-1.206-0.327-1.809-0.492C87.863,36.938,87.539,36.93,87.446,36.579z"/>
<path fill="#869DD1" d="M45.383,97.497c-0.577-0.1-1.158-0.098-1.74-0.074c-1.211,0.472-2.399,0.268-3.58-0.125
	c-1.655-0.171-3.317-0.187-4.979-0.217c-0.987-0.018-1.964-0.138-2.941-0.273c-0.375-0.051-0.441-0.189-0.422-0.556
	c0.056-1.089,0.01-2.184,0.079-3.273c0.064-1.007,0.214-2.01,0.347-3.012c0.208-1.568,0.497-3.121,0.884-4.657
	c0.217-0.863,0.571-1.667,0.894-2.487c0.072-0.182,0.232-0.275,0.36-0.4c0.214-0.236,0.504-0.273,0.791-0.261
	c1.904,0.081,3.798-0.193,5.699-0.164c3.723,0.056,7.445-0.032,11.168-0.012c0.885,0.005,1.765,0.158,2.653,0.051
	c0.237-0.029,0.467,0.044,0.627,0.249c0.018,0.155-0.002,0.327,0.06,0.461c0.588,1.271,0.692,2.658,0.943,4.005
	c0.204,1.095,0.277,2.215,0.403,3.324c0.242,2.126,0.221,4.26,0.191,6.395c-0.003,0.182-0.009,0.364-0.013,0.547
	c-0.008,0.384-0.206,0.563-0.588,0.569c-1.613,0.025-3.221,0.169-4.836,0.146c-0.911-0.013-1.823-0.001-2.734,0
	C47.54,97.934,46.461,97.72,45.383,97.497z"/>
<path fill="#E86A3D" d="M87.446,36.579c2.61,0.817,5.246,1.431,8.018,1.241c2.197-0.15,4.213-0.863,6.135-1.873
	c1.033-0.543,2.025-1.166,2.937-1.904c0.214-0.347,0.511-0.571,0.923-0.629c0.222-0.035,0.434,0.174,0.661,0.026
	c0.73-0.122,1.385-0.433,2.016-0.802c0.105-0.039,0.225-0.033,0.283,0.052c0.509,0.739,0.965,1.502,0.956,2.444l0.004-0.004
	c-0.043,0.066-0.1,0.116-0.17,0.152c-1.013,0.582-2.022,1.174-3.124,1.579c-0.365,0.134-0.417,0.35-0.378,0.718
	c0.243,2.297,0.467,4.597,0.676,6.897c0.191,2.096,0.302,4.198,0.385,6.301c-0.142,0.359-0.48,0.461-0.791,0.58
	c-2.625,1.007-5.14,2.27-7.723,3.374c-0.843,0.36-1.523,0.418-2.346-0.028c-2.18-1.182-4.486-2.08-6.848-2.828
	c-0.77-0.244-1.485-0.634-2.279-0.807c-0.154-0.034-0.28-0.136-0.34-0.296c-0.003-0.052-0.021-0.097-0.055-0.137l0,0
	c0.165-0.185,0.002-0.441,0.136-0.632c0.44-3.408,0.908-6.812,1.526-10.192c0.078-0.424-0.057-0.545-0.428-0.64
	c-1.109-0.286-2.189-0.668-3.264-1.063c-0.056-0.049-0.114-0.097-0.161-0.156l0.001,0.002c0.086-0.837,0.227-1.645,1.093-2.07
	c0.492,0.225,0.992,0.429,1.525,0.539c0.114,0.046,0.246,0.037,0.352,0.109C87.26,36.548,87.353,36.563,87.446,36.579z"/>
<path fill="#5EAE84" d="M137.883,58.001c0.53,0.799,0.857,1.715,1.439,2.486c0.304,0.402,0.374,0.413,0.617-0.036
	c0.408-0.754,0.797-1.517,1.202-2.272c0.082-0.153,0.099-0.358,0.302-0.428c0.707,0.441,1.051,1.206,1.598,1.791
	c0.59,0.631,0.585,0.643,1.192,0.035c1.487-1.488,3.004-2.946,4.481-4.444c0.217-0.227,0.492-0.394,0.677-0.655
	c0.269-0.114,0.434-0.463,0.801-0.357c0.262,0.215,0.544,0.098,0.818,0.042c0.949-0.197,1.835-0.56,2.676-1.038
	c0.069-0.036,0.182-0.087,0.213-0.034c0.488,0.826,1.082,1.621,0.872,2.674c-1.445,0.651-2.81,1.483-4.35,1.919
	c-0.273,0.077-0.361,0.265-0.353,0.529c0.013,0.468-0.015,0.94,0.033,1.404c0.162,1.557,0.048,3.122,0.138,4.679
	c0.175,3.038,0.217,6.08,0.347,9.12c0.017,0.391,0.015,0.778-0.052,1.163c-0.246,0.256-0.57,0.245-0.878,0.22
	c-2.309-0.186-4.617-0.396-6.928-0.534c-2.782-0.166-5.542-0.564-8.325-0.712c-1.506-0.08-3-0.356-4.517-0.321
	c-0.229,0.005-0.474-0.033-0.607-0.278c0.011-1.177,0.31-2.314,0.512-3.461c0.588-3.349,1.343-6.665,2.131-9.973
	c0.137-0.575,0.135-0.586-0.492-0.812c-1.419-0.511-2.835-1.026-4.117-1.841c-0.241-0.153-0.48-0.31-0.72-0.465
	c0.413-0.771,0.804-1.561,1.72-1.868c0.834,0.685,1.775,1.159,2.816,1.439c0.09,0.07,0.214,0.048,0.306,0.112
	c0.055,0.014,0.109,0.028,0.164,0.042c0.164,0.207,0.482,0.024,0.639,0.251c0.977,1.324,2.23,2.384,3.395,3.527
	c0.335,0.329,0.61,0.241,0.891-0.14C136.965,59.168,137.211,58.418,137.883,58.001z"/>
<path fill="#F8F8F8" d="M55.223,82.287c-1.502-0.01-3.003-0.026-4.505-0.029c-2.106-0.003-4.215-0.055-6.318,0.025
	c-1.739,0.066-3.477-0.135-5.208,0.003c-1.636,0.131-3.272,0.077-4.908,0.137c-0.049-0.145-0.166-0.306-0.137-0.434
	c0.256-1.103,0.087-2.219,0.117-3.328c0.031-1.14,0.017-2.282,0.004-3.423c-0.01-0.828,0.245-1.635,0.169-2.47
	c-0.028-0.311-0.048-0.617-0.147-0.914c1.612,1.142,3.371,1.394,5.267,0.895c0.616-0.162,1.235-0.121,1.834,0.136
	c0.459,0.197,0.452,0.181,0.54-0.339c0.149-0.874,0.257-1.744,0.169-2.638c-0.143-1.461-0.746-2.691-1.758-3.735
	c-0.234-0.242-0.503-0.455-0.632-0.781c0.337-0.222,0.645-0.034,0.934,0.099c1.331,0.61,2.744,0.944,4.161,1.264
	c0.445,0.101,0.805,0.264,1.058,0.695c0.736,1.253,1.513,2.483,2.276,3.72c0.174,0.283,0.359,0.559,0.552,0.857
	c0.376-0.208,0.35-0.56,0.43-0.834c0.411-1.396,0.957-2.744,1.44-4.114c0.094-0.266,0.3-0.39,0.554-0.501
	c0.787-0.344,1.621-0.555,2.431-0.821c1.035-0.341,1.879-0.991,2.819-1.481c1.138-0.593,2.085-1.447,2.989-2.347
	c0.127-0.127,0.283-0.225,0.425-0.336c-0.016,0.311-0.215,0.552-0.423,0.713c-0.672,0.52-1.157,1.258-1.944,1.643
	c-0.181,0.088-0.389,0.218-0.134,0.458c-0.151,1.147-0.075,2.304-0.16,3.453c-0.124,0.221-0.325,0.395-0.318,0.69
	c0.016,0.724-0.005,1.443-0.142,2.163c-0.187,0.987-0.145,2.001-0.289,3c-0.095,0.659-0.083,1.336-0.184,2.003
	c-0.162,1.068-0.232,2.147-0.427,3.215c-0.147,0.808-0.246,1.63-0.348,2.447C55.374,81.691,55.269,81.981,55.223,82.287z"/>
<path d="M150.193,54.12c-0.266,0.123-0.439,0.395-0.743,0.456c-0.108,0.052-0.214,0.068-0.314-0.019
	c0.301-1.371,0.607-2.742,0.901-4.114c0.069-0.32,0.206-0.417,0.546-0.352c0.398,0.076,0.777,0.221,1.221,0.137
	c1.012-0.192,1.653-0.789,1.907-1.777c0.321-1.249-0.68-2.611-2.008-2.52c-0.257,0.018-0.517,0.003-0.819,0.003
	c-0.057-0.214,0.026-0.401,0.064-0.593c0.516-2.629,1.03-5.258,1.543-7.888c0.03-0.153,0.051-0.308,0.08-0.462
	c0.06-0.316-0.069-0.484-0.384-0.55c-0.739-0.155-1.475-0.319-2.211-0.489c-4.745-1.095-9.489-2.197-14.236-3.288
	c-1.218-0.28-2.445-0.522-3.666-0.789c-0.253-0.055-0.499-0.139-0.748-0.209c0.094-0.695,0.117-1.409,0.294-2.082
	c0.505-1.925,0.569-3.914,0.926-5.858c0.089-0.486,0.181-0.974,0.173-1.472c-0.003-0.186,0.033-0.361,0.114-0.529
	c0.23-0.475,0.729-0.549,1.067-0.143c0.272,0.326,0.369,0.742,0.526,1.126c0.265,0.649,0.51,1.306,0.763,1.96
	c0.1,0.123,0.174,0.15,0.231-0.04c0.059-0.196-0.046-0.417,0.099-0.597c0.161-0.579,0.101-1.195,0.297-1.768
	c0.067-0.196,0.1-0.41,0.197-0.59c0.161-0.302,0.415-0.368,0.724-0.196c0.283,0.158,0.473,0.405,0.649,0.664
	c0.378,0.554,0.75,1.112,1.197,1.776c0.086-0.399,0.08-0.708,0.222-0.971c0.199-0.369,0.474-0.459,0.84-0.252
	c0.253,0.143,0.474,0.342,0.623,0.584c0.842,1.365,2.19,1.966,3.636,2.374c1.728,0.488,3.464,0.938,5.169,1.512
	c1.446,0.487,2.781,1.167,4.052,1.992c0.834,0.542,1.364,1.341,1.829,2.198c1.386,2.553,1.94,5.325,2.081,8.182
	c0.09,1.833-0.294,3.632-0.781,5.393c-0.608,2.199-1.562,4.237-2.876,6.117C152.511,52.287,151.363,53.208,150.193,54.12z"/>
<path fill="#F39A71" d="M129.279,72.955c3.128,0.056,6.235,0.427,9.347,0.697c2.075,0.18,4.153,0.314,6.225,0.51
	c1.893,0.179,3.789,0.28,5.683,0.417c0.42,0.629,0.977,1.145,1.445,1.733c0.436,0.547,0.814,1.14,1.218,1.713
	c0.102,0.077,0.063,0.23,0.166,0.306l0,0c0.086,0.088,0.053,0.234,0.154,0.315c0.974,2.259,1.256,4.603,0.76,7.01
	c-0.358,1.737-1.151,3.25-2.446,4.519c-1.556,1.525-3.319,2.737-5.211,3.785c-0.365,0.057-0.399-0.271-0.521-0.471
	c-0.701-1.152-1.309-2.36-2.065-3.48c1.728-0.873,3.187-2.063,4.213-3.72c0.587-0.949,0.723-2.004,0.343-3.066
	c-0.982-2.739-2.856-4.608-5.569-5.661c-1.266-0.491-2.569-0.584-3.907-0.534c-0.992,0.037-1.974,0.09-2.939,0.353
	c-1.451,0.395-2.817,0.904-3.811,2.137c-0.578,0.718-0.925,1.512-1.041,2.404c-0.219,1.677,1.013,3.219,2.74,3.474
	c0.093,0.035,0.111,0.094,0.053,0.175c-0.362,0.189-0.559,0.497-0.733,0.865c-0.442,0.941-0.883,1.881-1.282,2.841
	c-0.089,0.214-0.162,0.446-0.427,0.518c-0.195-0.054-0.108-0.268-0.212-0.374c-1.192-0.533-2.283-1.236-3.335-2.002
	c-2.112-1.539-3.204-3.622-3.399-6.22c-0.171-2.287,0.617-4.233,1.971-6.01C127.404,74.261,128.286,73.546,129.279,72.955z"/>
<path fill="#F4AE00" d="M105.468,33.551c-0.364,0.063-0.586,0.396-0.932,0.492c0.07-1.432,0.356-2.834,0.594-4.243
	c0.039-0.234,0.156-0.308,0.366-0.298c0.234,0.011,0.472,0,0.701,0.041c1.005,0.178,1.989-0.928,2.19-1.851
	c0.221-1.017-0.208-1.945-1.14-2.407c-0.394-0.195-0.782-0.225-1.207-0.088c-0.396,0.128-0.476,0.065-0.427-0.337
	c0.122-1.006,0.276-2.008,0.413-3.012c0.228-1.674,0.459-3.347,0.674-5.023c0.082-0.642,0.035-0.678-0.635-0.787
	c-3.129-0.509-6.255-1.037-9.389-1.516c-1-0.153-2.032-0.103-3.018-0.358c-2.45-0.633-4.964-0.872-7.457-1.239
	c-0.21-0.031-0.402-0.096-0.595-0.172c-1.592-2.735-1.77-5.498-0.164-8.296c0.325-0.567,0.7-1.098,1.117-1.6
	c0.332-0.398,0.658-0.419,0.951-0.009c0.29,0.407,0.668,0.73,0.968,1.122c1.223,1.595,2.902,2.292,4.84,2.543
	c1.093,0.141,2.183,0.151,3.276,0.116c1.489-0.048,2.985,0.034,4.443,0.245c2.449,0.356,4.739,1.22,6.656,2.872
	c0.657,0.566,1.191,1.246,1.643,1.978c1.183,1.918,1.883,3.999,1.964,6.263c0.143,4.001-0.596,7.816-2.404,11.411
	c-0.764,1.519-1.865,2.749-3.121,3.861C105.717,33.404,105.608,33.494,105.468,33.551z"/>
<path fill="#8EB98D" d="M86.44,50.773c3.495,1.131,6.971,2.311,10.216,4.068c0.287,0.155,0.531,0.136,0.807,0
	c1.964-0.967,4.065-1.63,5.997-2.667c1.061-0.57,2.237-0.855,3.307-1.397c0.572-0.169,1.146-0.331,1.714-0.51
	c1.305-0.412,2.618-0.366,3.923-0.039c0.792,0.198,1.483,0.572,2.012,1.247c0.533,0.678,0.498,1.387,0.01,2.159
	c-0.219,0.347-0.505,0.655-0.831,0.924c-1.573,1.3-3.294,2.356-5.161,3.178c-0.213,0.094-0.421,0.201-0.632,0.302
	c-1.004,0.377-2.012,0.742-2.992,1.18c-0.189,0.085-0.368,0.172-0.529,0.3c-0.206,0.008-0.292,0.242-0.491,0.263
	c-0.269,0.039-0.493,0.203-0.754,0.266c-0.92,0.256-1.786,0.664-2.699,0.939c-0.43,0.13-0.643,0.483-0.868,0.835
	c-0.133,0.208-0.169,0.558-0.554,0.495c-1.019-0.446-1.973-0.344-2.964,0.181c-0.723,0.383-1.523,0.647-2.346,0.79
	c-0.28-0.149-0.363-0.429-0.449-0.7c-0.227-0.717-0.504-1.416-0.761-2.122c-0.793-2.186-3.128-3.704-5.506-3.568
	c-0.181,0.028-0.364,0.032-0.546,0.042c-0.563,0.032-0.161,0.317-0.129,0.503c0.076,0.284,0.262,0.567,0.006,0.852
	c-1.715-0.693-3.364-1.535-4.783-2.714c-1.022-0.849-1.292-2.897,0.125-4.248c0.964-0.919,2.125-0.974,3.348-0.789
	C85.421,50.62,85.911,50.827,86.44,50.773z"/>
<path fill="#FCDFC9" d="M57.12,67.861c-0.162-0.03-0.332-0.1-0.282-0.286c0.223-0.832,0.102-1.677,0.117-2.515
	c0.005-0.293,0.141-0.473,0.325-0.652c1.501-0.369,2.743-1.221,3.934-2.149c1.99-1.55,3.317-3.634,4.558-5.778
	c1.507-2.605,2.142-5.501,2.767-8.399c0.109-0.506,0.215-1.015,0.284-1.528c0.073-0.544,0.084-1.079-0.214-1.592
	c-0.301-0.517-0.538-1.071-0.812-1.605c-0.134-0.261-0.213-0.525-0.198-0.824c0.015-0.294,0.153-0.505,0.411-0.611
	c0.272-0.113,0.509-0.035,0.672,0.228c0.052,0.084,0.123,0.155,0.3,0.373c0.046-0.648,0.071-1.148-0.024-1.64
	c-0.042-0.218,0.008-0.405,0.026-0.609c0.035-0.393,0.227-0.461,0.579-0.392c1.068,0.207,2.141,0.39,3.211,0.586
	c0.152,0.028,0.299,0.088,0.451,0.121c0.32,0.07,0.332,0.247,0.233,0.521c-0.505,1.394-0.973,2.801-1.502,4.186
	c-0.263,0.69-0.39,1.382-0.464,2.115c-0.172,1.703-0.442,3.395-0.971,5.033c-0.655,2.031-1.327,4.06-2.284,5.973
	c-0.772,1.542-1.768,2.938-2.97,4.184c-1.141,1.182-2.325,2.308-3.698,3.228C60.194,66.751,58.714,67.427,57.12,67.861z"/>
<path fill="#FCDFC9" d="M128.314,54.534c-0.071,0.031-0.174,0.041-0.208,0.095c-0.421,0.662-1.032,1.162-1.512,1.773
	c-0.87-0.571-1.727-1.187-2.439-1.925c-1.079-1.117-2.164-2.259-2.969-3.602c-0.937-1.563-1.791-3.17-2.34-4.927
	c-0.329-1.052-0.422-2.134-0.533-3.215c-0.072-0.695-0.02-1.394-0.124-2.098c-0.096-0.656,0.08-1.342,0.141-2.011
	c0.175-1.915,0.502-3.813,1.237-5.605c0.74-1.804,1.455-3.623,2.558-5.254c0.231-0.341,0.404-0.732,0.548-1.12
	c0.532-1.439,1.042-2.886,1.559-4.33c0.265-0.74,0.389-0.794,1.039-0.358c0.776,0.52,1.608,0.962,2.261,1.656
	c0.212,0.226,0.278,0.367,0.039,0.639c-0.477,0.543-0.902,1.133-1.435,1.814c0.428-0.153,0.738-0.255,1.041-0.374
	c0.2-0.079,0.402-0.121,0.611-0.081c0.345,0.066,0.466,0.354,0.255,0.637c-0.272,0.364-0.671,0.573-1.057,0.787
	c-0.41,0.228-0.819,0.479-1.261,0.62c-0.75,0.239-1.202,0.749-1.558,1.41c-0.74,1.374-1.452,2.755-1.993,4.229
	c-0.593,1.616-1.103,3.256-1.299,4.957c-0.111,0.96-0.31,1.924-0.123,2.94c0.162,0.879,0.14,1.81,0.298,2.702
	c0.279,1.577,0.907,3.032,1.724,4.402c0.974,1.633,2.035,3.209,3.433,4.515C126.87,53.429,127.61,53.962,128.314,54.534z"/>
<path fill="#FCDFC9" d="M25.792,59.405c0.008,0.463,0.007,0.926,0.028,1.388c0.04,0.887,0.244,1.736,0.709,2.499
	c0.402,0.66,0.446,1.345,0.247,2.067c-0.38-0.597-1.049-0.836-1.576-1.248c-1.404-1.095-2.659-2.318-3.701-3.768
	c-1.028-1.43-1.48-3.079-1.917-4.739c-0.451-1.715-0.72-3.451-0.651-5.235c0.036-0.937-0.252-1.845-0.356-2.771
	c-0.124-1.105-0.285-2.207-0.417-3.311c-0.031-0.257-0.039-0.512-0.098-0.77c-0.117-0.511,0.02-0.68,0.525-0.704
	c0.338-0.016,0.686-0.041,1.014,0.019c0.869,0.159,1.752,0.177,2.625,0.29c0.448,0.058,0.45,0.06,0.368,0.533
	c-0.096,0.556-0.339,1.084-0.357,1.657c0.263,0.084,0.333-0.135,0.455-0.24c0.161-0.139,0.33-0.26,0.528-0.326
	c0.28-0.093,0.565-0.125,0.797,0.121c0.239,0.254,0.178,0.555,0.039,0.801c-0.383,0.678-0.79,1.343-1.346,1.903
	c-0.22,0.221-0.395,0.491-0.633,0.688c-0.81,0.671-0.726,1.587-0.591,2.443c0.126,0.797,0.133,1.599,0.244,2.396
	c0.265,1.907,0.823,3.686,1.871,5.306c0.507,0.784,0.925,1.634,1.672,2.238c0.095,0.077,0.16,0.213,0.34,0.177
	C25.769,60.364,25.487,59.843,25.792,59.405z"/>
<path fill="#FCDFC9" d="M85.289,35.885c-0.287,0.094-0.336,0.37-0.441,0.596c-0.227,0.487-0.436,0.982-0.652,1.474
	c-0.38-0.028-0.683-0.248-0.999-0.42c-2.196-1.194-4.066-2.773-5.666-4.699c-0.854-1.028-1.562-2.152-2.211-3.298
	c-0.872-1.54-1.484-3.193-1.645-4.996c-0.058-0.647-0.128-1.291-0.115-1.939c0.008-0.406-0.108-0.778-0.282-1.124
	c-0.54-1.077-0.775-2.259-1.197-3.375c-0.119-0.315,0.054-0.455,0.325-0.471c0.85-0.051,1.694-0.32,2.554-0.097
	c0.291,0.075,0.556-0.091,0.846-0.074c0.52,0.031,0.599,0.071,0.549,0.602c-0.041,0.436-0.144,0.868-0.239,1.298
	c-0.057,0.258-0.094,0.509-0.018,0.809c0.285-0.075,0.495-0.265,0.728-0.41c0.218-0.136,0.449-0.161,0.648,0.021
	c0.204,0.187,0.171,0.427,0.062,0.648c-0.233,0.47-0.553,0.876-0.926,1.247c-0.968,0.964-0.949,0.965-0.659,2.302
	c0.238,1.096,0.655,2.13,1.042,3.176c0.169,0.44,0.346,0.875,0.626,1.26c1.045,1.606,2.161,3.156,3.511,4.525
	c1.102,1.117,2.417,1.934,3.762,2.713C85.026,35.729,85.157,35.807,85.289,35.885z"/>
<path fill="#FCDFC9" d="M109.374,35.135c-0.287-0.683-0.572-1.366-0.86-2.049c-0.079-0.187-0.146-0.389-0.379-0.448
	c1.129-0.634,2.265-1.256,3.197-2.182c0.911-0.905,1.634-1.951,2.299-3.039c0.889-1.457,1.453-3.041,1.801-4.706
	c0.098-0.467,0.102-0.92-0.109-1.372c-0.32-0.686-0.464-1.432-0.687-2.152c-0.192-0.618-0.129-1.042,0.162-1.128
	c0.526-0.154,0.638,0.312,0.853,0.615c0.012,0.017,0.041,0.02,0.11,0.052c0.106-0.919,0.265-1.816,0.183-2.841
	c1.174,0.416,2.186,0.868,3.166,1.387c0.411,0.218,0.771,0.533,1.204,0.719c0.349,0.149,0.391,0.38,0.197,0.683
	c-0.42,0.657-0.826,1.323-1.262,1.969c-0.349,0.516-0.727,1.013-1.105,1.508c-0.309,0.405-0.388,0.872-0.51,1.357
	c-0.659,2.609-1.554,5.121-3.305,7.242c-0.578,0.7-1.171,1.384-1.799,2.039c-0.368,0.205-0.607,0.566-0.955,0.795l0.005-0.006
	c-0.063,0.046-0.111,0.108-0.162,0.166C110.818,34.324,110.154,34.815,109.374,35.135z"/>
<path fill="#FCDFC9" d="M154.772,55.764c-0.08-0.621-0.285-1.21-0.596-1.742c-0.173-0.295-0.057-0.751-0.49-0.898
	c0.106-0.173,0.281-0.139,0.442-0.149c0.633-0.277,1.187-0.68,1.733-1.095l-0.003,0.004c0.062-0.046,0.109-0.107,0.162-0.161
	c0.136-0.156,0.256-0.332,0.412-0.465c1.651-1.407,2.827-3.152,3.728-5.11c0.383-0.833,0.64-1.699,0.9-2.57
	c0.079-0.265,0.08-0.486,0.002-0.751c-0.221-0.746-0.396-1.506-0.6-2.257c-0.091-0.334-0.059-0.672-0.064-1.009
	c-0.003-0.195,0.063-0.369,0.248-0.452c0.231-0.103,0.391,0.035,0.545,0.191c0.125,0.127,0.149,0.335,0.413,0.456
	c0.146-0.904,0.286-1.776,0.423-2.625c0.165-0.087,0.29-0.026,0.403,0.027c1.391,0.65,2.719,1.408,3.952,2.328
	c0.249,0.186,0.217,0.391,0.064,0.606c-0.421,0.593-0.828,1.197-1.279,1.767c-0.402,0.509-0.857,0.975-1.283,1.465
	c-0.311,0.358-0.507,0.775-0.657,1.225c-0.467,1.404-0.911,2.817-1.611,4.133c-0.663,1.247-1.458,2.39-2.432,3.416
	c-0.479,0.505-0.937,1.031-1.45,1.503c-0.475,0.359-0.953,0.716-1.404,1.106l0.003-0.003c-0.056,0.051-0.114,0.101-0.167,0.156
	C155.703,55.161,155.238,55.462,154.772,55.764z"/>
<path fill="#C67158" d="M67.6,67.531c0.758-0.086,1.219,0.327,1.567,0.931c0.462,0.8,0.769,1.67,0.896,2.57
	c0.36,2.544,0.371,5.086-0.264,7.601c-0.199,0.788-0.476,1.545-0.883,2.248c-0.356,0.615-0.815,1.09-1.608,1.034L67.3,81.913
	c-0.092-0.074-0.236-0.042-0.311-0.151c-0.8-0.604-1.121-1.496-1.342-2.404c-0.798-3.286-0.676-6.548,0.407-9.756
	C66.339,68.759,66.74,67.963,67.6,67.531z"/>
<path fill="#030303" d="M144.034,90.008c0.323-0.005,0.425,0.244,0.553,0.471c0.574,1.016,1.15,2.031,1.73,3.043
	c0.088,0.153,0.128,0.343,0.303,0.438c0.157,0.352,0.312,0.705,0.471,1.057c0.608,1.342,0.565,2.706,0.148,4.084
	c-0.103,0.443-0.328,0.808-0.663,1.12c-0.533,0.497-0.705,0.503-1.026-0.163c-0.666-1.383-1.285-2.788-1.924-4.184
	c-0.618-1.35-1.303-2.666-1.949-4.001c-0.268-0.555-0.164-0.899,0.481-0.998C142.823,90.672,143.41,90.3,144.034,90.008z"/>
<path fill="#010101" d="M45.089,105.805c0.046-0.817,0.093-1.633,0.139-2.45c0.133-0.215,0.33-0.34,0.577-0.346
	c0.955-0.025,1.92-0.175,2.851,0.187c0.564,0.068,1.13,0.118,1.691,0.206c1.241,0.195,2.31,0.718,3.116,1.711
	c0.211,0.26,0.421,0.52,0.632,0.779c0.326,0.605-0.022,0.797-0.54,0.832c-0.882,0.06-1.775,0.095-2.649,0.006
	c-1.558-0.158-3.115-0.121-4.673-0.139C45.671,106.583,45.185,106.482,45.089,105.805z"/>
<path fill="#010201" d="M43.196,103.033c0.068,0.475,0.01,0.962,0.137,1.431c0.183,0.425,0.066,0.87,0.083,1.306
	c0.015,0.393-0.302,0.455-0.589,0.481c-2.493,0.229-4.992,0.231-7.491,0.156c-0.358-0.011-0.855-0.051-0.542-0.671
	c0.86-1.625,2.204-2.535,4.034-2.727c0.256-0.027,0.51-0.074,0.764-0.112C40.807,102.574,42.018,102.379,43.196,103.033z"/>
<path fill="#F8F8F8" d="M142.157,90.874c-0.527,0.398-0.522,0.396-0.246,0.966c1.243,2.567,2.503,5.126,3.634,7.745
	c0.132,0.306,0.281,0.605,0.44,0.947c0.715-0.266,0.887-0.936,1.254-1.432c0.059,0.366-0.091,0.663-0.321,0.925
	c-0.623,0.715-1.353,1.289-2.235,1.655c-0.589,0.245-0.765,0.202-1.036-0.385c-0.234-0.509-0.661-0.953-0.591-1.577
	c0.628,0.273,0.579,0.994,0.936,1.361c-0.861-2.001-1.891-4.005-2.846-6.043c-0.319-0.681-0.612-1.375-0.948-2.048
	c-0.101-0.201-0.118-0.555-0.509-0.455c-0.356-0.148-0.331-0.362-0.077-0.575c0.137-0.114,0.314-0.183,0.478-0.262
	c0.536-0.26,1.126-0.407,1.609-0.782C141.828,90.816,142.002,90.857,142.157,90.874z"/>
<path fill="#FCDFC9" d="M43.196,103.033c-0.754-0.284-1.53-0.119-2.297-0.101c-0.437,0.01-0.873,0.08-1.306-0.035
	c0.049-0.146,0.147-0.294,0.139-0.437c-0.064-1.062,0.217-2.106,0.169-3.163c-0.031-0.679,0.205-1.326,0.163-2
	c1.194,0.027,2.384,0.161,3.581,0.125c-0.099,1.333-0.194,2.667-0.298,4C43.303,101.96,43.132,102.486,43.196,103.033z"/>
<path fill="#F8F8F8" d="M134.04,85.5c0.02-0.032,0.028-0.067,0.023-0.105c1.086,0.236,2.082,0.724,3.111,1.12
	c0.096,0.037,0.184,0.093,0.278,0.135c0.844,0.381,0.873,0.557,0.229,1.376c-0.117-0.13-0.117-0.28-0.031-0.626
	c-0.559,1.414-0.973,2.678-1.465,3.913c-0.498,1.25-0.949,2.517-1.438,3.825c0.305-0.408,0.182-1.019,0.751-1.202
	c0.095,0.665-0.302,1.184-0.54,1.745c-0.087,0.205-0.295,0.4-0.568,0.232c-0.464-0.287-1.005-0.393-1.474-0.682
	c-1.08-0.666-1.549-1.668-1.787-2.859c-0.163-0.816,0.016-1.578,0.208-2.347c0.05-0.201,0.121-0.395,0.124-0.604
	c0.146,0.027,0.156,0.167,0.22,0.262c0.21,0.395-0.017,0.76-0.091,1.131c-0.229,1.153-0.053,2.227,0.625,3.194
	c0.406,0.579,0.663,0.563,0.877-0.079c0.772-2.317,1.647-4.596,2.507-6.881c0.159-0.421,0.032-0.676-0.381-0.866
	C134.808,85.992,134.289,85.971,134.04,85.5z"/>
<path fill="#FCDFC9" d="M48.656,103.195c-0.944,0.024-1.889,0.05-2.833,0.069c-0.204,0.004-0.41-0.026-0.595,0.091
	c0.001-1.031,0.003-2.061,0.004-3.092c0.001-0.925,0.238-1.837,0.151-2.767c1.101-0.083,2.189,0.008,3.267,0.237
	c-0.121,0.454-0.165,0.918-0.133,1.385c0.076,1.117-0.219,2.215-0.166,3.332C48.365,102.753,48.399,103.01,48.656,103.195z"/>
<path fill="#F7F8F8" d="M34.794,105.737c-0.086,0.303-0.049,0.481,0.343,0.467c2.122-0.073,4.247,0.021,6.368-0.116
	c0.465-0.03,0.931-0.047,1.396-0.049c0.294-0.001,0.419-0.116,0.413-0.414c-0.008-0.387,0.012-0.774,0.02-1.161
	c0.208,0.143,0.171,0.363,0.17,0.567c-0.004,0.828-0.011,1.657-0.02,2.485c-0.001,0.121-0.086,0.179-0.196,0.205
	c-0.295-0.312-0.683-0.221-1.029-0.194c-1.987,0.155-3.973,0.284-5.966,0.225c-0.268,0.003-0.539-0.006-0.809,0.004
	c0.388-0.008,0.776-0.001,1.167-0.003c0.793,0,1.583-0.005,2.373,0.003c0.249,0.003,0.516-0.055,0.726,0.149
	c-0.127,0.172-0.313,0.16-0.495,0.16c-1.352,0.002-2.704,0.011-4.056,0.004c-0.59-0.003-0.599-0.023-0.612-0.628
	c-0.009-0.416-0.003-0.832-0.003-1.248C34.583,106.008,34.579,105.822,34.794,105.737z"/>
<path fill="#F8F8F8" d="M45.089,105.805c0.105,0.273,0.237,0.499,0.587,0.506c2.769,0.056,5.538,0.119,8.307,0.176
	c0.045,0.001,0.091-0.039,0.137-0.06c0.076-0.183-0.029-0.356-0.024-0.535c0.097,0.046,0.187,0.114,0.188,0.224
	c0.006,0.672,0.006,1.343,0.001,2.015c-0.001,0.111-0.087,0.18-0.185,0.226c-0.549-0.419-1.211-0.243-1.805-0.265
	c-1.943-0.073-3.891,0.025-5.828-0.247c-0.386-0.054-0.838-0.151-1.185,0.193c-0.423-0.181-0.178-0.587-0.161-0.805
	C45.158,106.749,45.114,106.28,45.089,105.805z"/>
<path fill="#3A393B" d="M139.69,92.533c0.012-0.144-0.098-0.328,0.096-0.413c0.202-0.088,0.268,0.082,0.333,0.223
	c0.59,1.269,1.17,2.543,1.77,3.806c0.767,1.615,1.555,3.221,2.321,4.837c0.089,0.188,0.356,0.462,0.077,0.609
	c-0.366,0.193-0.366-0.244-0.481-0.436c-0.277-0.465-0.423-1-0.749-1.441c-0.303-0.915-0.764-1.76-1.173-2.627
	C141.164,95.567,140.422,94.052,139.69,92.533z"/>
<path fill="#4B494B" d="M135.498,93.936c-0.248,0.371-0.334,0.809-0.506,1.212c-0.061,0.143-0.104,0.294-0.176,0.431
	c-0.047,0.089-0.126,0.166-0.252,0.128c-0.126-0.038-0.149-0.142-0.126-0.243c0.033-0.151,0.088-0.298,0.142-0.443
	c0.935-2.528,1.947-5.027,2.82-7.578c0.042-0.122,0.097-0.24,0.153-0.357c0.035-0.072,0.092-0.12,0.182-0.11
	c0.14,0.015,0.159,0.132,0.154,0.226c-0.016,0.286-0.224,0.526-0.208,0.823C136.952,89.995,136.093,91.917,135.498,93.936z"/>
<path fill="#282628" d="M45.281,108.037c-0.097-0.27,0.02-0.404,0.284-0.403c0.415,0.001,0.834-0.005,1.246,0.042
	c2.071,0.236,4.149,0.272,6.23,0.225c0.26-0.006,0.521-0.002,0.779,0.018c0.27,0.021,0.345,0.189,0.279,0.437
	c-2.133-0.065-4.267-0.124-6.4-0.196C46.893,108.133,46.087,108.079,45.281,108.037z"/>
<path fill="#353437" d="M39.749,107.905c-1.097-0.004-2.195-0.009-3.292-0.013c-0.08-0.116-0.374,0.009-0.307-0.273
	c2.102-0.032,4.202-0.097,6.296-0.29c0.229-0.021,0.468-0.011,0.695,0.027c0.202,0.034,0.2,0.201,0.146,0.365
	C42.11,107.821,40.923,107.735,39.749,107.905z"/>
<path fill="#E8E3D1" d="M155.861,51.88c-0.497,0.493-0.94,1.07-1.733,1.095C154.609,52.457,155.239,52.175,155.861,51.88z"/>
<path fill="#E3E6D7" d="M156.333,54.706c0.343-0.528,0.807-0.901,1.404-1.106C157.387,54.119,156.905,54.47,156.333,54.706z"/>
<path fill="#E4E2CF" d="M77.62,28.414c-0.409-0.32-0.607-0.745-0.626-1.26C77.307,27.523,77.496,27.952,77.62,28.414z"/>
<path fill="#D7E0CE" d="M111.578,33.584c0.245-0.353,0.479-0.719,0.955-0.795C112.27,33.12,112.043,33.496,111.578,33.584z"/>
<path fill="#D0C7C6" d="M135.52,24.031c0.04,0.345-0.002,0.672-0.192,0.978c-0.158-0.095-0.156-0.216-0.138-0.342
	C135.446,24.531,135.272,24.172,135.52,24.031z"/>
<path fill="#F4D0B2" d="M105.468,33.551c0.07-0.132,0.148-0.255,0.309-0.29c0.068,0.147,0.218,0.137,0.342,0.179
	C105.926,33.621,105.697,33.588,105.468,33.551z"/>
<path fill="#F8E2D9" d="M73.077,62.055c0.004,0.229-0.101,0.385-0.312,0.47C72.768,62.301,72.873,62.145,73.077,62.055z"/>
<path fill="#F1C6B7" d="M86.521,50.004c0.03,0.227,0.074,0.457-0.136,0.632C86.365,50.411,86.337,50.185,86.521,50.004z"/>
<path fill="#FAD0B8" d="M153.517,78.644c-0.131-0.066-0.167-0.179-0.154-0.315C153.492,78.397,153.528,78.509,153.517,78.644z"/>
<path fill="#FCDFC9" d="M131.436,56.085c-0.125,0.025-0.229-0.006-0.306-0.112C131.253,55.954,131.363,55.969,131.436,56.085z"/>
<path fill="#F1C6B7" d="M66.99,81.762c0.133-0.009,0.241,0.032,0.311,0.151C67.157,81.946,67.044,81.915,66.99,81.762z"/>
<path fill="#FAD0B8" d="M153.363,78.329c-0.13-0.061-0.169-0.172-0.166-0.306C153.331,78.083,153.37,78.194,153.363,78.329z"/>
<path fill="#F8E2D9" d="M73.241,61.748c-0.003,0.13-0.034,0.245-0.164,0.307C73.08,61.925,73.11,61.809,73.241,61.748z"/>
<path fill="#FCDFC9" d="M87.166,36.533c-0.138,0.031-0.259,0.006-0.352-0.109C86.955,36.385,87.077,36.406,87.166,36.533z"/>
<path fill="#E3E6D7" d="M156.169,54.859c0.056-0.052,0.111-0.104,0.167-0.156C156.28,54.755,156.225,54.807,156.169,54.859z"/>
<path fill="#FCDFC9" d="M84.195,37.953c0.054,0.052,0.107,0.104,0.161,0.156C84.262,38.099,84.205,38.05,84.195,37.953z"/>
<path fill="#E8E3D1" d="M156.02,51.722c-0.054,0.054-0.108,0.108-0.161,0.161C155.912,51.83,155.966,51.776,156.02,51.722z"/>
<path fill="#FCDFC9" d="M109.208,35.284c0.057-0.051,0.113-0.101,0.17-0.152C109.361,35.226,109.304,35.277,109.208,35.284z"/>
<path fill="#D7E0CE" d="M111.421,33.743c0.054-0.055,0.108-0.11,0.162-0.166C111.529,33.633,111.475,33.688,111.421,33.743z"/>
<path fill="#010101" d="M86.821,56.739c0.625-0.196,1.229-0.038,1.822,0.139c1.189,0.355,2.175,1.073,3.147,1.81
	c0.172,0.131,0.277,0.308,0.349,0.505c0.5,1.361,1.049,2.704,1.467,4.093c-0.797,0.5-1.68,0.82-2.536,1.198
	c-0.194,0.086-0.388,0.15-0.603,0.1c-0.343-0.107-0.432-0.428-0.571-0.697c-1.093-2.119-1.999-4.326-3.006-6.485
	C86.792,57.193,86.678,56.977,86.821,56.739z"/>
<path fill="#010101" d="M98.916,62.316c0.482-1.054,1.278-1.682,2.433-1.898c0.603-0.113,1.145-0.467,1.766-0.552
	c0.164,0.619-0.135,1.172-0.295,1.728c-0.56,1.942-1.326,3.817-1.896,5.757c-0.058,0.196-0.127,0.399-0.331,0.506
	c-0.137,0.099-0.258,0.129-0.395-0.022c-1.129-1.245-1.707-2.678-1.49-4.378C98.756,63.074,98.845,62.696,98.916,62.316z"/>
<path fill="#C8755C" d="M81.147,73.614c-1.172-0.032-2.194-0.779-2.961-1.875c-0.485-0.693-0.73-1.495-0.876-2.322
	c-0.042-0.237-0.117-0.559,0.28-0.607c0.326-0.039,0.453,0.157,0.51,0.457c0.194,1.017,0.608,1.911,1.328,2.687
	c0.959,1.033,2.944,1.016,3.883,0.023c0.645-0.682,1.122-1.427,1.359-2.329c0.083-0.316,0.17-0.62,0.602-0.562
	c0.175,0.023,0.284,0.095,0.288,0.293C85.606,71.306,83.287,73.672,81.147,73.614z"/>
<path fill="#C7735A" d="M103.449,93.998c-1.13,0.81-2.389,1.374-3.672,1.879c-1.745,0.686-3.542,1.207-5.388,1.545
	c-0.201,0.037-0.518,0.311-0.65-0.114c-0.138-0.443,0.034-0.711,0.521-0.838c0.553-0.144,1.107-0.285,1.663-0.42
	c2.25-0.549,4.468-1.2,6.591-2.139c0.094-0.041,0.198-0.059,0.298-0.087c0.15-0.1,0.331-0.155,0.494-0.181
	C103.765,93.57,103.669,93.77,103.449,93.998z"/>
<path fill="#C8745B" d="M82.026,93.807c1.331,0.521,2.654,1.064,3.996,1.556c0.976,0.358,1.976,0.648,2.965,0.97
	c0.173,0.056,0.36,0.093,0.513,0.185c0.284,0.17,0.2,0.461,0.143,0.702c-0.06,0.254-0.27,0.174-0.448,0.127
	c-2.957-0.787-5.804-1.824-8.298-3.662c-0.067-0.074-0.177-0.132-0.149-0.253c0.042-0.178,0.178-0.161,0.301-0.108
	C81.383,93.469,81.699,93.648,82.026,93.807z"/>
<path fill="#FDFDFC" d="M86.821,56.739c1.069,2.34,2.136,4.68,3.209,7.018c0.13,0.283,0.291,0.551,0.437,0.826
	c-0.212,0.31-0.472,0.36-0.782,0.146c-0.355-0.075-0.414-0.407-0.571-0.654c-0.59-1.347-1.369-2.608-1.832-4.012
	c-0.027-0.062-0.056-0.125-0.086-0.186c-0.031-0.093-0.063-0.187-0.114-0.272c-0.031-0.056-0.057-0.116-0.08-0.176
	c-0.045-0.086-0.099-0.169-0.138-0.259c-0.159-0.334-0.335-0.659-0.467-1.006c-0.021-0.288-0.208-0.52-0.26-0.798
	c-0.175-0.244-0.227-0.467,0.109-0.622C86.438,56.744,86.629,56.742,86.821,56.739z"/>
<path fill="#FAFAFA" d="M100.592,67.857c0.494-1.933,1.227-3.789,1.823-5.689c0.24-0.765,0.466-1.534,0.699-2.301
	c0.23-0.045,0.396-0.298,0.668-0.202c0.043,0.062,0.063,0.13,0.061,0.205c-0.01,0.11-0.034,0.217-0.058,0.325
	c-0.168,0.605-0.33,1.211-0.522,1.809c-0.053,0.138-0.143,0.263-0.144,0.418c-0.015,0.115-0.067,0.217-0.108,0.323
	c-0.478,1.629-1.066,3.221-1.596,4.832c-0.037,0.141-0.102,0.271-0.171,0.399c-0.035,0.061-0.072,0.121-0.111,0.18
	C100.88,68.189,100.665,68.151,100.592,67.857z"/>
<path fill="#353030" d="M101.227,67.71c0.525-1.713,1.099-3.41,1.709-5.095c0.166,0.076,0.074,0.263,0.159,0.374
	c-0.084,0.299-0.159,0.601-0.253,0.896c-0.386,1.209-0.764,2.42-1.179,3.619c-0.088,0.255-0.075,0.663-0.528,0.653
	c0.001-0.047-0.001-0.093-0.006-0.139C101.172,67.918,101.168,67.804,101.227,67.71z"/>
<path fill="#3D3636" d="M87.283,59.874c0.648,1.387,1.296,2.775,1.943,4.162c0.067,0.17-0.009,0.223-0.169,0.208
	c-0.556-1.114-1.115-2.226-1.664-3.343c-0.125-0.255-0.242-0.518-0.264-0.81C87.087,59.953,87.115,59.865,87.283,59.874z"/>
<path fill="#2D2525" d="M103.095,62.989c-0.122-0.095-0.127-0.24-0.159-0.374c0.019-0.082,0.038-0.165,0.057-0.247
	c0.074-0.108,0.062-0.243,0.116-0.357c0.093-0.7,0.385-1.346,0.542-2.029l0.037-0.065c0.032-0.083,0.063-0.167,0.095-0.251
	c0.157-0.082,0.24-0.421,0.501-0.146c-0.305,1.017-0.599,2.039-1.035,3.012c-0.04,0.073-0.103,0.135-0.097,0.227
	C103.133,62.835,103.114,62.912,103.095,62.989z"/>
<path fill="#D58B75" d="M103.449,93.998c0.028-0.158,0.157-0.387-0.201-0.245c-0.134,0.053-0.29,0.049-0.436,0.07
	c0.697-0.489,1.478-0.805,2.281-1.102C104.64,93.273,104.117,93.727,103.449,93.998z"/>
<path fill="#D28771" d="M82.026,93.807c-0.383,0.007-0.652-0.281-0.991-0.38c-0.318-0.092-0.131,0.148-0.137,0.258
	c-0.349-0.023-0.499-0.356-0.773-0.497c-0.055-0.046-0.107-0.095-0.157-0.146l-0.001-0.001c-0.052-0.052-0.103-0.106-0.16-0.153
	l0.001,0.001c-0.05-0.055-0.096-0.114-0.158-0.156l-0.002,0.001c0.001-0.258,0.12-0.278,0.311-0.154l0.004,0.002
	c0.058,0.045,0.106,0.101,0.166,0.143l-0.002-0.002c0.076,0.107,0.227,0.069,0.31,0.163C80.962,93.2,81.583,93.349,82.026,93.807z"
	/>
<path fill="#4B4747" d="M87.283,59.874c-0.051,0.072-0.102,0.145-0.153,0.217c-0.295-0.514-0.552-1.046-0.763-1.6
	c-0.054-0.169-0.14-0.354,0.169-0.346c0.177,0.367,0.353,0.734,0.53,1.101c0.014,0.058,0.042,0.108,0.085,0.15
	c0.017,0.057,0.034,0.114,0.051,0.171c0.035,0.052,0.061,0.107,0.08,0.166C87.293,59.78,87.294,59.827,87.283,59.874z"/>
<path fill="#60605E" d="M86.535,58.146c-0.153,0.068-0.142,0.216-0.169,0.346c-0.048-0.066-0.096-0.131-0.144-0.197
	c0.016-0.326-0.218-0.607-0.165-0.939c0.054-0.058,0.102-0.051,0.146,0.012C86.324,57.622,86.494,57.856,86.535,58.146z"/>
<path fill="#4C4544" d="M89.057,64.244c0.056-0.069,0.113-0.139,0.169-0.208c0.153,0.231,0.306,0.463,0.459,0.694
	c-0.038,0.133-0.028,0.372-0.259,0.175C89.228,64.738,89.112,64.503,89.057,64.244z"/>
<path fill="#E9B5A3" d="M79.346,92.569c-0.044-0.024-0.098-0.038-0.132-0.073c-0.138-0.14-0.347-0.344-0.175-0.491
	c0.182-0.156,0.356,0.063,0.461,0.247C79.501,92.384,79.449,92.489,79.346,92.569z"/>
<path fill="#DB9883" d="M79.346,92.569c-0.001-0.131,0.028-0.247,0.154-0.316c0.158,0.101,0.36,0.14,0.459,0.326
	c-0.129,0.001-0.243,0.03-0.311,0.154C79.547,92.678,79.446,92.623,79.346,92.569z"/>
<path fill="#DB9883" d="M80.437,92.885c-0.131-0.001-0.248-0.03-0.31-0.163C80.256,92.727,80.369,92.763,80.437,92.885z"/>
<path fill="#353030" d="M103.152,62.758c-0.007-0.092,0.022-0.17,0.097-0.227C103.262,62.626,103.228,62.701,103.152,62.758z"/>
<path fill="#DB9883" d="M80.128,92.725c-0.055-0.048-0.11-0.096-0.166-0.144C80.018,92.629,80.073,92.677,80.128,92.725z"/>
<path fill="#DB9883" d="M79.649,92.732c0.053,0.052,0.106,0.104,0.158,0.156C79.755,92.837,79.702,92.784,79.649,92.732z"/>
<path fill="#DB9883" d="M79.807,92.888c0.053,0.051,0.107,0.102,0.16,0.153C79.914,92.99,79.86,92.939,79.807,92.888z"/>
<path fill="#DB9883" d="M79.968,93.042c0.052,0.049,0.105,0.098,0.157,0.146C80.072,93.139,80.02,93.09,79.968,93.042z"/>
<path fill="#402518" d="M58.903,52.199c0.766,1.743-0.011,4.026-1.327,4.872c-0.6,0.386-1.256,0.476-1.942,0.435
	c-1.423-0.084-3.314-1.062-3.817-2.717C54.408,54.62,56.816,53.943,58.903,52.199z"/>
<path fill="#402518" d="M47.251,47.484c0.471-0.878,1.297-1.017,1.932-0.287c0.587,0.674,1,1.457,1.207,2.335
	c0.098,0.418,0.063,0.824-0.13,1.216c-0.353,0.716-1.016,0.892-1.68,0.436c-0.443-0.305-0.756-0.736-0.961-1.209
	c-0.231-0.534-0.517-0.876-1.149-0.781c-0.126,0.019-0.252-0.039-0.35-0.217c0.249-0.214,0.537-0.076,0.791-0.107
	c0.114-0.014,0.208-0.058,0.217-0.175c0.008-0.111-0.067-0.198-0.176-0.221c-0.228-0.049-0.462-0.077-0.689-0.13
	c-0.124-0.029-0.269-0.078-0.247-0.246c0.023-0.172,0.171-0.158,0.298-0.15c0.104,0.006,0.207,0.021,0.311,0.032
	c0.223,0.13,0.367,0.09,0.397-0.188C47.028,47.637,47.177,47.588,47.251,47.484z"/>
<path fill="#412618" d="M56.999,43.887c0.475,0.545,0.642,1.232,0.856,1.894c0.073,0.226,0.032,0.465-0.028,0.692
	c-0.107,0.405-0.205,0.833-0.685,0.956c-0.488,0.125-0.959,0.005-1.286-0.362c-0.757-0.851-1.089-1.887-1.029-3.01
	c0.027-0.495,0.27-0.988,0.887-1.011c0.312-0.012,0.384-0.175,0.47-0.407c0.085-0.231,0.1-0.529,0.427-0.59
	c0.185,0.126,0.104,0.293,0.07,0.453c-0.031,0.041-0.045,0.088-0.042,0.139c-0.116,0.164-0.063,0.348-0.064,0.525
	c0.04,0.02-0.03,0.18,0.107,0.079c0.065,0.001,0.119,0.023,0.163,0.071C56.95,43.493,56.774,43.743,56.999,43.887z"/>
<path fill="#F6B6A7" d="M48.699,54.233c0.13,0,0.26-0.004,0.39,0.001c0.397,0.014,0.629,0.258,0.72,0.606
	c0.083,0.319-0.129,0.561-0.377,0.708c-0.581,0.346-1.185,0.652-1.839,0.844c-0.224,0.065-0.451,0.124-0.68,0.163
	c-0.525,0.088-0.975-0.156-1.139-0.603c-0.129-0.349,0.046-0.793,0.477-1.045C47.003,54.467,47.825,54.247,48.699,54.233z"/>
<path fill="#6E5141" d="M56.999,43.887c-0.334-0.076-0.112-0.466-0.34-0.602c-0.108-0.158-0.007-0.253,0.103-0.345
	c0.026-0.037,0.042-0.078,0.048-0.123c0.049-0.051,0.088-0.109,0.117-0.173c0.106-0.1,0.189-0.286,0.367-0.191
	c0.181,0.096,0.084,0.255,0.032,0.4C57.207,43.194,56.788,43.441,56.999,43.887z"/>
<path fill="#624434" d="M47.251,47.484c-0.05,0.112-0.1,0.224-0.15,0.336c-0.051,0.07-0.105,0.076-0.163,0.009
	c-0.284-0.194-0.669-0.227-0.952-0.574C46.515,47.049,46.848,47.47,47.251,47.484z"/>
<path fill="#D4B6A0" d="M56.763,42.94c-0.034,0.115-0.069,0.23-0.103,0.345l-0.004,0.005c-0.053,0.037-0.109,0.041-0.168,0.016
	c-0.179-0.275-0.02-0.472,0.154-0.666C56.681,42.74,56.722,42.84,56.763,42.94z"/>
<path fill="#C7A791" d="M46.938,47.829c0.054-0.003,0.109-0.006,0.163-0.009c-0.002,0.517-0.256,0.287-0.476,0.161
	C46.731,47.932,46.874,47.962,46.938,47.829z"/>
<path fill="#D4B6A0" d="M56.683,42.501c-0.023-0.151-0.047-0.302-0.07-0.453C56.894,42.159,56.86,42.319,56.683,42.501z"/>
<path fill="#D4B6A0" d="M56.928,42.644c0.004,0.087-0.038,0.142-0.117,0.173C56.806,42.729,56.848,42.673,56.928,42.644z"/>
<path fill="#412618" d="M135.857,46.979c-0.072,0.723-0.46,1.287-0.933,1.759c-0.857,0.856-1.904,1.378-3.143,1.343
	c-1.161-0.032-1.911-0.756-2.463-1.689c-0.432-0.731-0.598-1.548-0.555-2.401c0.015-0.289,0.116-0.468,0.435-0.287
	c2.028,1.149,4.225,1.38,6.499,1.203C135.72,46.904,135.744,46.926,135.857,46.979z"/>
<path fill="#2A6144" d="M148.829,55.165c-1.608,1.896-3.494,3.512-5.236,5.341c-0.727-0.998-1.567-1.775-2.15-2.757
	c2.616-0.351,4.98-1.363,7.198-2.756C148.799,54.946,148.843,55.024,148.829,55.165z"/>
<path fill="#412618" d="M139.286,40.573c0.022,0.827-0.254,1.524-0.676,2.16c-0.28,0.423-0.642,0.765-1.225,0.643
	c-0.463-0.097-0.893-0.627-0.949-1.21c-0.064-0.662,0.107-1.291,0.353-1.897c0.126-0.311,0.266-0.627,0.459-0.899
	c0.535-0.752,1.454-0.646,1.853,0.184C139.264,39.896,139.295,40.249,139.286,40.573z"/>
<path fill="#296144" d="M137.883,58.001c-0.482,0.737-0.97,1.471-1.445,2.214c-0.181,0.284-0.329,0.319-0.606,0.081
	c-1.301-1.116-2.527-2.305-3.644-3.606c-0.11-0.128-0.087-0.227,0.05-0.312c1.71,0.62,3.452,1.128,5.253,1.412
	C137.649,57.815,137.8,57.842,137.883,58.001z"/>
<path fill="#412618" d="M131.583,38.103c-0.044,0.549-0.124,1.142-0.341,1.707c-0.093,0.243-0.216,0.473-0.414,0.656
	c-0.676,0.626-1.487,0.442-1.779-0.433c-0.292-0.877,0.023-1.691,0.336-2.497c0.028-0.072,0.073-0.138,0.112-0.206
	c0.347-0.604,0.753-0.863,1.226-0.783c0.437,0.074,0.76,0.533,0.836,1.193C131.571,37.843,131.573,37.948,131.583,38.103z"/>
<path fill="#688865" d="M148.829,55.165c-0.063-0.057-0.125-0.114-0.188-0.171c0.165-0.146,0.33-0.291,0.495-0.437
	c0.105,0.007,0.21,0.013,0.314,0.019C149.271,54.802,149.08,55.015,148.829,55.165z"/>
<path fill="#402518" d="M84.148,26.421c2.235,1.143,4.542,1.245,6.935,0.883c-0.052,0.837-0.427,1.464-0.924,1.989
	c-0.773,0.817-1.73,1.331-2.882,1.399c-0.452,0.027-0.872-0.109-1.272-0.315C84.841,29.776,83.837,27.951,84.148,26.421z"/>
<path fill="#402518" d="M94.032,21.288c-0.038,0.608-0.221,1.338-0.678,1.962c-0.553,0.755-1.333,0.701-1.835-0.095
	c-0.113-0.179-0.213-0.368-0.227-0.575c-0.066-1.015,0.172-1.969,0.708-2.825c0.348-0.554,1.378-0.737,1.764,0.169
	C93.931,20.318,94.025,20.709,94.032,21.288z"/>
<path fill="#412618" d="M86.312,19.278c-0.065,0.506-0.057,0.981-0.238,1.421c-0.079,0.191-0.155,0.392-0.279,0.552
	c-0.593,0.769-1.404,0.646-1.858-0.2c-0.325-0.606,0.021-2.634,0.632-3.242c0.478-0.475,1.067-0.408,1.453,0.16
	C86.301,18.382,86.274,18.858,86.312,19.278z"/>
<path fill="#2B6446" d="M138.632,68.933c-0.007-0.459,0.268-0.782,0.671-0.791c0.34-0.008,0.558,0.213,0.58,0.588
	c0.026,0.436-0.27,0.831-0.627,0.835C138.891,69.57,138.638,69.314,138.632,68.933z"/>
<path fill="#2B6446" d="M140.075,65.798c0.005,0.461-0.29,0.816-0.673,0.787c-0.329-0.024-0.529-0.22-0.566-0.541
	c-0.049-0.437,0.32-0.88,0.701-0.873C139.874,65.178,140.07,65.406,140.075,65.798z"/>
<path fill="#2B6447" d="M140.237,63.197c-0.008,0.413-0.261,0.709-0.579,0.678c-0.327-0.032-0.667-0.365-0.674-0.659
	c-0.008-0.369,0.321-0.703,0.687-0.698C140.05,62.524,140.246,62.759,140.237,63.197z"/>
<path fill="#2B6446" d="M139.768,71.417c-0.006,0.436-0.207,0.674-0.574,0.679c-0.352,0.005-0.679-0.295-0.669-0.612
	c0.012-0.368,0.346-0.686,0.711-0.678C139.596,70.815,139.773,71.019,139.768,71.417z"/>
<path fill="#0D0D0E" d="M49.773,75.198c-0.005,0.616-0.373,1.058-0.891,1.07c-0.465,0.011-1.114-0.574-1.128-1.017
	c-0.018-0.537,0.538-1.131,1.07-1.143C49.374,74.096,49.778,74.56,49.773,75.198z"/>
<path fill="#0A0B0C" d="M49.618,79.817c-0.02,0.664-0.414,1.148-0.929,1.144c-0.548-0.005-1.025-0.513-1.014-1.079
	c0.011-0.6,0.52-1.134,1.071-1.125C49.298,78.766,49.638,79.179,49.618,79.817z"/>
<path fill="#030304" d="M134.04,85.5c0.508,0.2,1.017,0.395,1.522,0.602c0.521,0.213,0.527,0.23,0.338,0.735
	c-0.501,1.339-1.013,2.673-1.507,4.015c-0.376,1.024-0.729,2.056-1.096,3.084c-0.087,0.245-0.182,0.487-0.281,0.727
	c-0.075,0.184-0.207,0.217-0.37,0.108c-0.24-0.161-0.442-0.359-0.598-0.605c-0.704-1.107-0.948-2.293-0.618-3.578
	c0.078-0.302,0.166-0.602,0.249-0.903c0.564-1.237,1.132-2.47,1.687-3.709C133.503,85.672,133.652,85.427,134.04,85.5z"/>
<path fill="#88A193" d="M86.203,57.367c-0.049,0.002-0.098-0.002-0.146-0.012c-0.326-0.451-0.312-0.496,0.189-0.609
	C85.998,56.937,86.163,57.156,86.203,57.367z"/>
<path fill="#222023" d="M36.15,107.619c0.102,0.091,0.204,0.182,0.307,0.273c-0.558,0.036-1.118,0.128-1.695-0.011
	C35.091,107.52,35.132,107.512,36.15,107.619z"/>
<path fill="#F1C6B7" d="M87.15,59.396c-0.071-0.026-0.104-0.073-0.085-0.15C87.138,59.271,87.167,59.32,87.15,59.396z"/>
<path fill="#F1C6B7" d="M87.282,59.733c-0.081-0.029-0.102-0.088-0.081-0.167C87.271,59.602,87.307,59.653,87.282,59.733z"/>
<path fill="#F1C6B7" d="M101.227,67.71c0.021,0.12,0.004,0.228-0.099,0.307C101.079,67.888,101.119,67.788,101.227,67.71z"/>
<path fill="#353030" d="M103.108,62.011c0.021,0.138,0.011,0.267-0.116,0.357C102.973,62.23,103.001,62.107,103.108,62.011z"/>
<rect x="103.643" y="59.925" transform="matrix(0.2316 0.9728 -0.9728 0.2316 137.981 -54.7852)" fill="#8EB98D" width="0.054" height="0.052"/>
<path fill="#6E5141" d="M56.487,43.306c0.056-0.005,0.112-0.011,0.168-0.016C56.61,43.407,56.554,43.419,56.487,43.306z"/>
</svg>
