<?xml version="1.0" encoding="utf-8"?>
<!-- Generator: Adobe Illustrator 17.0.0, SVG Export Plug-In . SVG Version: 6.00 Build 0)  -->
<!DOCTYPE svg PUBLIC "-//W3C//DTD SVG 1.1//EN" "http://www.w3.org/Graphics/SVG/1.1/DTD/svg11.dtd">
<svg version="1.1" id="Livello_1" xmlns="http://www.w3.org/2000/svg" xmlns:xlink="http://www.w3.org/1999/xlink" x="0px" y="0px"
	 width="150.015px" height="120.213px" viewBox="16.954 -0.427 150.015 120.213"
	 enable-background="new 16.954 -0.427 150.015 120.213" xml:space="preserve">
<path fill="#FCDFC9" d="M109.226,54.308c-2.161-1.037-4.26-2.175-6.137-3.689c-1.319-1.064-2.439-2.283-3.261-3.775
	c-1.285-2.333-2.076-4.844-2.478-7.451c-0.178-1.152-0.273-2.362-0.089-3.551c0.036-0.235,0.014-0.479,0.017-0.718
	c0.012-1.305,0.011-1.305-1.26-1.662c-1.048-0.294-1.396-0.739-1.414-1.848c-0.016-0.957-0.025-1.899,0.366-2.822
	c0.551-1.301,1.34-1.827,2.706-1.556c0.477,0.095,0.598-0.05,0.672-0.47c0.31-1.76,0.879-3.431,1.725-5.014
	c1.262-2.362,2.685-4.603,4.625-6.479c0.265-0.256,0.592-0.484,0.636-0.902c0.401-0.21,0.806-0.073,1.207-0.008
	c6.632,1.071,13.221,2.382,19.828,3.596c3.91,0.718,7.822,1.428,11.739,2.113c0.27,0.047,0.54,0.094,0.808,0.152
	c1.365,0.292,1.504,0.511,1.344,1.889c-0.459,3.951-1.27,7.845-1.864,11.775c-0.061,0.401-0.194,0.796-0.137,1.327
	c0.885-0.202,1.751-0.182,2.569,0.239c1.674,0.861,2.414,2.627,1.933,4.643c-0.451,1.888-1.946,3.132-3.803,3.166
	c-1.776,0.032-1.795,0.029-2.098,1.776c-0.258,1.486-0.464,2.98-0.847,4.442c-0.128,0.322-0.16,0.676-0.325,0.986
	c-1.191,1.226-2.726,1.958-4.196,2.731c-2.33,1.225-4.721,2.357-7.355,2.833c-0.575,0.104-1.142,0.205-1.729,0.209
	c-3.835,0.025-7.68,0.159-11.411-0.996C110.35,55.041,109.639,54.954,109.226,54.308z"/>
<path fill="#F08241" d="M31.21,67.004c-2.16-1.32-4.411-1.582-6.766-0.572c-1.169,0.501-2.37,0.898-3.615,1.159
	c-0.201,0.042-0.403,0.099-0.606,0.11c-1.976,0.106-1.765,0.101-2.298-1.513c-0.785-2.378,0.185-4.354,1.276-6.32
	c0.365-0.658,0.807-1.273,1.205-1.913c0.319-0.513,0.42-1.06,0.335-1.672c-0.096-0.684-0.223-1.359-0.488-1.991
	c-0.764-1.823-1.012-3.762-1.33-5.686c-0.033-0.201-0.059-0.419-0.018-0.613c0.382-1.785,0.867-3.531,2.047-4.991
	c0.344-0.427,0.714-0.84,1.003-1.302c0.594-0.95,0.882-1.993,0.853-3.127c-0.111-4.35,0.908-8.507,2.359-12.549
	c1.047-2.917,2.645-5.559,4.664-7.941c1.509-1.78,3.009-3.543,4.899-4.957c2.435-1.823,5.17-2.775,8.153-3.123
	c2.596-0.303,5.194-0.366,7.789-0.007c1.888,0.261,3.651,0.911,5.339,1.779c1.737,0.893,3.475,1.786,5.214,2.675
	c1.576,0.806,3.239,1.058,4.983,0.747c0.167-0.03,0.334-0.079,0.493-0.137c0.766-0.282,0.889-0.558,0.601-1.323
	c-0.526-1.396,0.198-2.441,1.699-2.476c0.78-0.018,1.314,0.322,1.613,1.03c0.51,1.208,0.508,2.415-0.141,3.563
	c-0.872,1.543-1.995,2.862-3.575,3.742c-0.656,0.365-1.293,0.764-1.939,1.147c-0.322,0.467-0.849,0.565-1.335,0.704
	c-3.506,1.003-7.059,1.655-10.729,1.657c-3.64,0.003-7.268-0.018-10.821-0.94c-0.761-0.198-0.96,0.233-1.111,0.828
	c-0.716,2.824-1.435,5.647-2.155,8.47c-1.025,4.018-2.065,8.033-3.079,12.055c-0.371,1.471-0.488,1.555-2.034,1.604
	c-1.509,0.048-2.374,0.894-2.4,2.348c-0.03,1.671,0.835,2.718,2.341,2.825c0.587,0.042,1.153-0.039,1.716-0.238
	c0.968-0.342,1.14-0.229,1.493,0.766c0.814,2.295,1.711,4.554,2.995,6.638c0.509,0.689,1.03,1.37,1.525,2.066
	c1.865,2.624,2.268,5.517,1.486,8.609c-0.171,0.677-0.541,1.004-1.263,0.838c-1.33-0.307-2.656-0.196-3.977,0.063
	C35.108,69.522,32.927,68.997,31.21,67.004z"/>
<path fill="#FCDFC9" d="M39.644,57.573c-0.509-0.648-0.921-1.359-1.227-2.119c-0.664-1.649-1.519-3.222-1.965-4.957
	c-0.118-0.457-0.361-0.482-0.757-0.282c-1.174,0.592-2.368,0.686-3.513-0.061c-1.625-1.061-1.586-3.983,0.026-5.06
	c0.57-0.381,1.185-0.289,1.787-0.303c1.095-0.026,1.099-0.001,1.381-1.099c1.758-6.854,3.514-13.708,5.272-20.562
	c0.385-1.502,0.385-1.5,1.926-1.149c2.952,0.672,5.95,0.851,8.969,0.878c4.594,0.041,9.058-0.694,13.417-2.117
	c0.684,0.85,1.343,1.721,2.057,2.545c0.998,1.151,1.764,2.429,2.299,3.852c0.118,0.314,0.199,0.629,0.719,0.447
	c1.402-0.492,2.143-0.25,3,0.954c0.563,0.79,0.862,1.695,0.987,2.664c0.106,0.821-0.252,1.385-0.9,1.807
	c-0.257,0.167-0.54,0.298-0.822,0.422c-0.451,0.199-0.51,0.473-0.442,0.977c0.21,1.55,0.619,3.079,0.518,4.669
	c-0.035,0.547-0.032,1.091-0.198,1.619c-0.273,0.447-0.732,0.464-1.173,0.478c-1.275,0.039-2.513-0.132-3.698-0.646
	c0.762,0.626,1.645,0.885,2.637,0.954c0.738,0.051,1.481-0.314,2.206,0.046c-0.286,1.543-0.484,3.107-1.055,4.582
	c-0.98,2.536-2.245,4.878-4.091,6.934c-1.23,1.37-2.663,2.431-4.108,3.512c-2.561,1.59-5.261,2.733-8.322,2.994
	C49.442,59.986,44.465,59.41,39.644,57.573z"/>
<path fill="#F8F8F8" d="M109.226,54.308c1.972,0.803,4.025,1.215,6.139,1.47c2.564,0.309,5.128,0.202,7.684,0.127
	c1.486-0.043,2.943-0.562,4.341-1.121c2.897-1.158,5.615-2.654,8.195-4.406c0.118-0.113,0.23-0.236,0.397-0.281
	c0.087-0.012,0.159,0.013,0.216,0.082c1.002,1.569,1.949,3.17,3.035,4.69c1.139,1.594,2.104,3.313,3.146,4.977
	c-1.06,0.881-2.141,1.733-3.299,2.484c-0.447-0.666-0.895-1.333-1.319-1.964c-0.312,0.041-0.245,0.191-0.221,0.317
	c0.351,1.797,0.74,3.587,1.045,5.392c0.349,2.064,0.766,4.116,1.152,6.171c0.374,1.988,0.696,3.987,1.109,5.969
	c0.419,2.016,0.748,4.052,1.12,6.078c0.128,0.696,0.292,1.386,0.397,2.086c0.06,0.399,0.224,0.633,0.635,0.664
	c-0.093,0.473-0.454,0.382-0.778,0.37c-0.542-0.142-1.09-0.039-1.636-0.045c-8.867-0.102-17.732,0.425-26.597,0.175
	c-3.353-0.095-6.705-0.144-10.058-0.182c-0.377-0.004-0.758-0.015-1.068-0.284c0.564-2.862,1.125-5.725,1.692-8.586
	c0.705-3.556,1.424-7.11,2.119-10.668c0.208-1.064,0.316-2.148,0.633-3.192c0.019-0.061-0.092-0.162-0.142-0.244
	c-1.09-0.761-2.479-1.088-3.29-2.257c1.715-2.473,3.43-4.945,5.145-7.418l0.001-0.001C109.184,54.625,109.222,54.475,109.226,54.308
	z"/>
<path fill="#3F2417" d="M136.197,50.179c-0.066-0.004-0.13,0.002-0.194,0.018c-0.519-0.054-0.268-0.399-0.249-0.657
	c0.399-2.085,0.805-4.169,1.078-6.274c0.053-0.409,0.237-0.533,0.611-0.461c0.202,0.039,0.404,0.073,0.605,0.117
	c2.088,0.462,4.177-0.828,4.478-3.135c0.291-2.232-0.262-3.605-2.479-4.327c-0.609-0.198-0.937-0.144-2.109,0.168
	c-0.172-0.263-0.036-0.529-0.006-0.794c0.33-2.862,1.096-5.651,1.428-8.51c0.182-1.566,0.471-3.114,0.687-4.673
	c0.116-0.836,0.088-0.91-0.785-1.072c-2.288-0.427-4.58-0.833-6.871-1.248c-4.009-0.727-8.026-1.41-12.024-2.194
	c-4.804-0.941-9.631-1.749-14.454-2.582c-0.199-0.034-0.388-0.122-0.581-0.184c-1.122-1.199-2.21-2.423-3.116-3.804
	c-1.755-2.674-2.782-5.554-2.653-8.794c0.029-0.717,0.004-1.436,0.004-2.139c0.317-0.181,0.467,0.086,0.649,0.203
	c2.448,1.583,5.109,2.593,7.996,3.008c0.71,0.102,1.417,0.233,2.126,0.338c0.612,0.091,1.229,0.11,1.839-0.016
	c3.084-0.637,6.19-1.207,9.339-1.257c3.557-0.057,7.171-0.062,10.518,1.344c4.344,1.825,8.293,4.256,10.902,8.375
	c1.723,2.721,2.84,5.697,3.529,8.827c0.508,2.307,0.954,4.63,0.807,7.018c-0.145,2.363-0.469,4.7-1.036,6.997
	c-0.826,3.345-2.113,6.501-3.903,9.455c-1.301,2.146-3.036,3.871-5.012,5.38C136.944,49.595,136.572,49.888,136.197,50.179z"/>
<path fill="#C26075" d="M64.509,89.081c0.18,1.63,0.345,3.261,0.544,4.888c0.403,3.297,0.688,6.593,0.294,9.915
	c-0.136,1.147-0.167,1.209-1.286,1.225c-2.701,0.039-5.395,0.324-8.099,0.258c-0.855-0.021-1.71-0.027-2.565-0.04
	c-1.702,0.151-3.407,0.374-5.085-0.171c-0.768-0.24-1.554-0.189-2.339-0.144c-0.158,0.069-0.29,0.258-0.441,0.251
	c-1.691-0.076-3.407,0.27-5.071-0.276c-0.365-0.269-0.792-0.17-1.193-0.181c-2.767-0.083-5.537-0.047-8.302-0.233
	c-0.787-0.053-1.559-0.2-2.342-0.252c-0.518-0.034-0.703-0.28-0.677-0.797c0.032-0.646-0.022-1.292,0.048-1.943
	c0.081-0.745,0.11-1.502,0.083-2.251c-0.064-1.785,0.181-3.538,0.462-5.29c0.265-1.651,0.418-3.32,0.799-4.952
	c0.458-0.268,0.69,0.091,0.929,0.359c0.336,0.378,0.629,0.796,1.048,1.103c0.752-1.267,0.573-2.519-0.401-3.552
	c-0.352-0.373-1.047-0.627-0.735-1.378c0.414-0.95,0.828-1.899,1.242-2.849c0.143-0.45,0.52-0.564,0.902-0.496
	c1.205,0.215,2.389-0.083,3.582-0.086c5.513-0.017,11.026-0.008,16.539-0.007c0.343,0,0.684,0.027,1.022,0.066
	c0.53,0.079,0.915,0.419,1.328,0.725c2.64,1.962,5.397,3.722,8.536,4.793C63.986,87.989,64.518,88.28,64.509,89.081z"/>
<path fill="#72ADD8" d="M102.863,87.078c1.469-0.154,2.943-0.06,4.411-0.025c6.568,0.157,13.139,0.317,19.705,0.137
	c4.755-0.13,9.508-0.144,14.262-0.173c0.391-0.002,0.827-0.15,1.166,0.198c-0.73,0.856-1.891,0.85-2.779,1.39
	c-0.133,0.011-0.265-0.005-0.387-0.064c-0.605-0.292-0.288,0.113-0.236,0.316c0.083,0.212,0.149,0.43,0.233,0.641
	c0.037,0.086,0.067,0.175,0.095,0.264c0.534,1.625,1.348,3.109,2.275,4.536c0.141,0.231,0.285,0.461,0.474,0.658
	c0.152,0.163,0.305,0.324,0.436,0.503c0.114,0.115,0.229,0.396,0.334-0.006c0.043-0.166,0.145-0.279,0.301-0.348
	c0.315-0.089,0.615-0.095,0.875,0.144c0.224,1.344,0.466,2.685,0.668,4.032c0.338,2.257,0.65,4.518,0.973,6.778
	c0.14,0.978,0.293,1.955,0.415,2.936c0.041,0.33,0.156,0.49,0.507,0.482c0.339-0.007,0.679,0.031,1.019,0.049
	c-0.056,0.574-0.542,0.437-0.854,0.455c-2.724,0.153-5.453,0.192-8.175,0.392c-0.342,0.025-0.688,0.004-0.948-0.278
	c-0.285-1.405-0.579-2.809-0.852-4.216c-0.37-1.905-1.377-3.484-2.516-4.998c-2.52-3.352-5.992-5.153-10.004-5.946
	c-2.483-0.491-4.941-0.33-7.332,0.732c-2.029,0.902-3.928,1.976-5.478,3.551c-1.149,1.168-2.161,2.47-2.617,4.117
	c-0.483,1.746-1.092,3.455-1.319,5.269c-0.064,0.508-0.058,1.024-0.164,1.526c-0.311,0.274-0.689,0.28-1.062,0.232
	c-2.298-0.297-4.626-0.009-6.918-0.368c-0.406-0.064-0.981,0.207-1.147-0.47c0.281-0.044,0.494-0.097,0.523-0.482
	c0.243-3.251,1.133-6.389,1.726-9.579c0.725-3.899,1.552-7.779,2.33-11.669C102.848,87.561,102.843,87.317,102.863,87.078z"/>
<path fill="#F8F8F8" d="M53.842,82.506c-5.995,0.008-11.99,0.016-17.984,0.028c-0.375,0.001-0.752,0.022-1.126,0.059
	c-0.751,0.074-1.5,0.133-2.248-0.022c-0.38-0.079-0.75-0.088-1.062,0.199c-0.007-3.417-0.09-6.837,0.017-10.251
	c0.04-1.286,0.14-2.578,0.175-3.871c0.016-0.597-0.064-1.146-0.403-1.644c0.351,0.085,0.572,0.366,0.844,0.568
	c1.474,1.095,3.107,1.562,4.936,1.258c0.573-0.095,1.144-0.207,1.718-0.302c0.997-0.165,1.987-0.125,2.949,0.19
	c0.471,0.154,0.733,0.132,0.879-0.439c0.828-3.243,0.446-6.241-1.665-8.934c-0.442-0.564-0.818-1.181-1.225-1.773
	c0.044-0.442,0.339-0.248,0.518-0.169c1.191,0.528,2.463,0.793,3.705,1.154c1.442,0.42,2.91,0.709,4.423,0.683
	c0.922-0.016,1.836,0.14,2.748,0.171c2.703,0.093,5.374-0.161,7.933-1.161c0.991-0.388,1.911-0.913,2.869-1.362
	c0.341-0.16,0.659-0.37,1.058-0.333c-0.222,0.367-0.005,0.606,0.282,0.747c0.396,0.195,0.814,0.365,1.241,0.473
	c1.126,0.284,2.262,0.526,3.437,0.444c0.435,0.573,0.311,1.248,0.271,1.875c-0.059,0.912,0.103,1.659,0.991,2.096
	c-0.247,0.513-0.738,0.439-1.163,0.449c-1.57,0.037-3.145,0.096-4.83-0.534c0.503,7.103-0.584,14.062,0.142,21.022
	c-0.077,0.156-0.218,0.33-0.369,0.182c-0.716-0.704-1.62-0.468-2.462-0.537c-0.564-0.038-1.063-0.269-1.517-0.579
	c-2.12-1.448-4.235-2.905-6.052-4.741c-1.708-1.726-3.518-3.359-4.986-5.308c-0.356-0.473-0.619-0.478-1.069-0.094
	c-1.491,1.271-1.462,1.219-0.242,2.788c1.986,2.556,4.372,4.708,6.75,6.874C53.556,81.928,53.944,82.061,53.842,82.506z"/>
<path fill="#FDC60C" d="M81.683,27.338c-0.904-0.819-1.965-1.425-2.931-2.16c-0.042-0.666,0.689-0.983,0.769-1.675
	c-0.652,0.23-0.733,1.067-1.413,1.146c-1.251-0.859-2.336-1.907-3.405-2.974c0.069-0.713,0.961-0.679,1.175-1.327
	c-0.609,0.184-0.873,0.898-1.534,0.911c-0.702-0.928-1.431-1.839-1.784-2.976c0.383-0.543,0.825-1.009,1.514-1.149
	c0.087,0.038,0.16,0.096,0.216,0.173c0.009,0.046,0.017,0.092,0.027,0.138c-0.003,0.139-0.022,0.277-0.032,0.416
	c0.006,0.391,0.065,0.756,0.548,0.805c0.266,0.027,0.458-0.137,0.493-0.397c0.09-0.665-0.454-0.711-0.883-0.863
	c-0.085-0.051-0.16-0.113-0.228-0.184c0.25-0.815,0.84-1.18,1.653-1.249c0.522,0.805,1.048,1.607,1.564,2.415
	c1.1,1.725,2.678,2.922,4.411,3.923c1.278,0.739,2.581,1.456,3.701,2.406c2.389,2.027,3.385,4.628,3.005,7.779
	c-0.262,2.17-0.523,4.345-0.563,6.537c-0.128,0.836,0.078,1.678-0.102,2.523c-0.191,0.894-0.264,1.813-0.661,2.655
	c-0.491,2.308-0.857,4.635-1.087,6.983c-0.093,0.953-0.366,1.875-0.423,2.836c-0.109,1.842-0.243,3.683-0.401,5.522
	c-0.243,2.825-0.407,5.656-0.727,8.477c-0.23,2.031-0.31,4.08-0.361,6.132c-0.066,2.636-0.093,5.272-0.147,7.908
	c-0.157,1.3-0.157,1.299-1.475,1.179c-0.72-0.065-1.429-0.043-2.125,0.196c-0.311,0.107-0.634,0.293-0.974,0.059
	c-0.329-0.609-0.26-1.238-0.099-1.871c0.26-0.523,0.817-0.317,1.23-0.476c-0.406-0.109-0.886,0.232-1.214-0.241
	c-0.159-1.135,0.089-2.248,0.178-3.367c0.297-0.611,0.841-0.228,1.281-0.308c-0.438-0.18-1.033,0.044-1.294-0.539
	c0.001-1.57,0.066-3.135,0.219-4.694c0.404-0.607,1.005-0.131,1.485-0.288c-0.407-0.143-0.95,0.032-1.252-0.45
	c-0.257-1.281-0.022-2.52,0.307-3.75c0.491-0.207,0.97,0.024,1.532,0.023c-0.567-0.12-1.197,0.038-1.455-0.615
	c-0.16-1.024-0.248-2.042,0.194-3.024c0.399-0.53,0.956-0.352,1.436-0.33c-0.396-0.294-1.055,0.17-1.418-0.412
	c-0.297-1.282,0.004-2.527,0.217-3.776c0.41-0.628,1.031-0.286,1.539-0.345c-0.476-0.039-1.002-0.038-1.327-0.541
	c-0.333-1.229,0.068-2.417,0.19-3.619c0.43-0.683,1.043-0.204,1.563-0.257c-0.444-0.196-1,0.033-1.426-0.316
	c-0.123-0.435-0.006-0.864,0.023-1.296c0.253-1.07,0.163-2.205,0.615-3.236c0.497-0.247,0.969,0.163,1.484,0.067
	c-0.54-0.098-1.121-0.049-1.426-0.628c-0.087-1.416,0.117-2.789,0.583-4.125c0.5-0.448,1.073,0.014,1.622-0.121
	c-0.513-0.245-1.171,0.048-1.566-0.494c-0.051-1.267,0.219-2.479,0.625-3.667c0.616-0.489,1.287,0.081,1.965-0.109
	c-0.537-0.425-1.345-0.127-1.77-0.728c-0.168-0.828,0.018-1.595,0.387-2.332c0.255-0.379,0.133-0.835,0.256-1.241
	c0.44-0.457,0.972-0.131,1.563-0.18c-0.486-0.35-1.125-0.001-1.464-0.483c0.075-1.43-0.084-2.852-0.155-4.277
	c0.306-0.733,1.209-0.495,1.681-1.017c-0.662-0.02-1.231,0.509-1.889,0.204c-0.435-0.954-1.024-1.816-1.615-2.676
	c-0.019-0.687,0.674-0.986,0.894-1.613C82.438,26.35,82.424,27.42,81.683,27.338z"/>
<path fill="#FCDFC9" d="M79.613,83.502c1.088-0.575,2.227-0.763,3.44-0.486c0.743,0.17,0.746,0.15,0.903-0.672
	c0.018-0.096,0.079-0.185,0.12-0.277c0.004,0.829,0.21,1.498,0.784,2.212c0.87,1.083,1.093,2.474,0.751,3.885
	c-0.202,0.834-0.933,1.239-1.47,1.8c-0.14,0.146-0.311,0.262-0.468,0.392c-0.892,0.501-1.798,0.204-2.686,0.015
	c-1.135-0.241-1.129-0.268-1.131,0.942c0.002,0.164,0,0.326-0.007,0.49c-0.049,0.328,0.006,0.711-0.441,0.825
	c-0.011-0.854-0.027-1.709-0.032-2.563c-0.003-0.454-0.117-0.634-0.666-0.603c-1.565,0.088-3.121,0.292-4.696,0.298
	c-0.839,0.003-1.692,0.231-2.543,0.152c-2.168-0.201-4.337-0.434-6.4-1.191c-0.442-0.162-0.542-0.019-0.561,0.362
	c-0.123-0.628-0.604-0.838-1.139-1.027c-3.527-1.244-6.664-3.164-9.528-5.549c-1.555-1.484-3.219-2.849-4.723-4.391
	c-1.458-1.495-2.736-3.134-4.076-4.769c0.64-0.87,1.634-1.285,2.251-2.109c0.697,0.393,1.007,1.041,1.427,1.558
	c1.278,1.578,2.797,2.914,4.2,4.365c1.817,1.879,3.972,3.335,6.099,4.823c0.36,0.252,0.757,0.473,1.21,0.544
	c1.111,0.214,2.006,1.001,3.134,1.174c2.068,1.275,4.438,1.532,6.746,1.964c2.131,0.399,4.279,0.328,6.424,0.018
	c0.791-0.114,1.422-0.326,1.766-1.152C78.523,83.993,78.974,83.59,79.613,83.502z"/>
<path fill="#FDC60C" d="M79.589,91.317c0-0.543,0-1.086,0-1.761c1.328,0.723,2.7,0.804,4.085,0.8
	c-0.124,2.18-0.297,4.358-0.358,6.54c-0.048,1.738-0.105,3.483,0.145,5.216c0.005,0.034,0.002,0.069,0.007,0.102
	c0.361,2.31,1.097,2.531,2.915,2.287c0.034-0.005,0.068-0.01,0.101-0.018c1.282-0.29,2.523-0.313,3.572,0.644
	c1.195,1.091,2.107,2.332,2.07,4.062c-0.009,0.407-0.067,0.821,0.051,1.224c0.375,0.327-0.031,0.607-0.074,0.898
	c-0.23,1.54-0.793,2.949-1.76,4.183c-0.722,0.966-1.583,1.765-2.716,2.231c-1.181,0.65-2.33,1.373-3.694,1.601
	c-1.021-0.727-1.637-1.836-2.518-2.696c-0.19-0.185-0.321-0.452-0.185-0.75c0.627-0.196,1.255-0.392,1.882-0.589
	c0.522,0.138,0.664,0.664,1.081,1.051c-0.18-0.484-0.675-0.765-0.509-1.281c0.75-0.495,1.444-1.054,1.986-1.781
	c0.445-0.001,0.684,0.381,1.07,0.584c-0.266-0.34-0.732-0.456-0.778-0.921c0.172-0.289,0.347-0.577,0.516-0.868
	c0.119-0.205,0.244-0.407,0.339-0.623c0.305-0.685,0.394-1.415-0.073-2.022c-0.432-0.562-1.093-0.396-1.695-0.231
	c-0.096,0.026-0.199,0.027-0.299,0.04c-0.164-0.335,0.068-0.569,0.226-0.856c-0.301,0.343-0.419,0.814-0.89,0.949
	c-1.699-0.051-3.003-0.776-3.86-2.263c0.135-0.437,0.622-0.476,0.875-0.769c-0.386,0.156-0.705,0.514-1.188,0.404
	c-0.424-1.08-0.823-2.166-0.746-3.357c0.312-0.441,0.876-0.307,1.243-0.591c-0.431-0.026-0.859,0.422-1.332,0.114
	c-0.152-1.145-0.094-2.292-0.047-3.44c0.209-0.359,0.646-0.185,0.924-0.384c-0.316,0.039-0.641,0.231-0.92-0.089
	c0.16-1.233,0.054-2.492,0.355-3.712c0.24-0.213,0.541-0.219,0.914-0.24c-0.337-0.159-0.688,0.048-0.919-0.217
	c-0.121-0.722,0.063-1.44,0.023-2.161c0.239-0.25,0.101-0.586,0.2-0.868c0.381-0.325,0.875-0.173,1.291-0.291
	C80.477,91.33,79.987,91.779,79.589,91.317z"/>
<path fill="#FCDFC9" d="M139.079,62.33c0.919-1.068,2.006-1.913,3.299-2.484c2.068,3.185,4.025,6.435,5.913,9.731
	c1.206,2.105,2.562,4.127,3.919,6.14c0.634,0.941,1.585,1.612,2.487,2.284c1.02,0.761,1.864,1.709,2.837,2.519
	c0.837,0.698,1.63,1.459,2.478,2.151c0.269,0.219,0.238,0.387-0.002,0.567c-1.642,1.237-3.031,2.762-4.619,4.062
	c-0.597,0.489-0.681,0.494-1.046-0.223c-0.71-1.393-1.387-2.803-2.299-4.334c0,0.584-0.01,0.975,0.003,1.366
	c0.012,0.382-0.037,0.748-0.179,1.106c-0.242,0.607-0.766,0.788-1.298,0.411c-0.582-0.413-0.766-1.033-0.775-1.708
	c-0.016-1.166-0.036-2.333-0.003-3.498c0.017-0.611-0.125-1.15-0.441-1.656c-2.752-4.41-5.303-8.945-8.214-13.257
	C140.432,64.463,139.764,63.39,139.079,62.33z"/>
<path fill="#FCDFC9" d="M103.875,62.131c0.856,0.528,1.709,1.061,2.571,1.58c0.292,0.176,0.577,0.347,0.719,0.677
	c-1.924,2.614-3.851,5.225-5.77,7.843c-1.213,1.655-2.403,3.326-3.621,4.977c-0.437,0.593-0.579,1.188-0.368,1.919
	c0.191,0.661,0.085,1.365,0.05,2.047c-0.018,0.346-0.199,0.661-0.469,0.89c-0.297,0.252-0.644,0.397-1.039,0.276
	c-0.437-0.134-0.516-0.484-0.529-0.894c-0.011-0.358,0.131-0.763-0.262-1.099c-0.687,0.864-1.095,1.882-1.68,2.79
	c-0.111,0.172-0.192,0.364-0.293,0.543c-0.183,0.325-0.421,0.303-0.677,0.094c-0.106-0.087-0.202-0.186-0.301-0.281
	c-0.991-0.945-1.906-1.97-3.001-2.807c-0.262-0.201-0.543-0.422-0.682-0.812c0.906-0.754,1.825-1.511,2.734-2.28
	c0.967-0.818,2.017-1.524,3.015-2.3c0.795-0.618,1.237-1.543,1.815-2.345c0.939-1.305,1.748-2.709,2.75-3.961
	C100.612,66.769,102.192,64.413,103.875,62.131z"/>
<path fill="#FCDFC9" d="M82.886,45.026c-0.348,1.448-0.578,2.913-0.611,4.405c0.083,0.155,0.093,0.293-0.094,0.382
	c-0.119,0.825-0.248,1.649-0.352,2.476c-0.034,0.269-0.061,0.533-0.195,0.774c-1.447,3.12-3.949,5.272-6.674,7.2
	c-1.415,1.001-3.046,1.537-4.72,1.937c-0.39,0.093-0.797,0.268-1.169-0.064c-1.185-0.024-1.24,0.18-1.228-1.192
	c0.008-0.909,0.009-1.817,0.013-2.726c1.461,0.044,2.771-0.528,3.974-1.214c3.726-2.125,6.566-5.098,8.261-9.093
	c0.42-0.99,0.397-2.005,0.215-3.02c-0.186-1.038-0.466-2.06-0.666-3.096c-0.077-0.398-0.084-0.82-0.055-1.226
	c0.035-0.489,0.169-0.958,0.749-1.088c0.703-0.157,1.112,0.022,1.426,0.659c0.194,0.394,0.345,0.809,0.564,1.332
	c0.431-0.727,0.503-1.464,0.74-2.138c0.159-0.45,0.285-0.912,0.412-1.372c0.066-0.24,0.217-0.331,0.451-0.323
	c0.099,0.839-0.283,1.633-0.228,2.468c0.12,0.245,0.024,0.436-0.15,0.608c-0.225,1.285-0.573,2.549-0.634,3.861
	C83.024,44.734,82.992,44.883,82.886,45.026z"/>
<path fill="#010101" d="M137.633,110.095c3.323-0.259,6.665-0.169,9.979-0.568c1.462-0.163,2.867-0.006,4.266,0.517
	c2.034,0.76,3.286,2.277,4.277,4.09c0.194,0.355,0.325,0.743,0.484,1.116c-0.252,0.637-0.832,0.516-1.312,0.517
	c-2.459,0.007-4.915-0.035-7.375-0.152c-3.138-0.15-6.288-0.058-9.433-0.026c-0.362,0.004-0.759,0.141-1.058-0.204
	c-0.188-1.72-0.071-3.438,0.039-5.156c0.058-0.035,0.104-0.082,0.139-0.14L137.633,110.095z"/>
<path fill="#010203" d="M90.123,115.421c0.966-1.38,1.539-2.914,1.825-4.567c0.027-0.156,0.15-0.295,0.228-0.441
	c1.42-0.699,2.907-1.071,4.504-0.934c0.51,0.044,1.026,0.031,1.54,0.045c1.257,0.353,2.556,0.269,3.833,0.335
	c1.765,0.091,3.535,0.09,5.296,0.271c0.292,1.751,0.207,3.517,0.212,5.28c-0.37,0.397-0.864,0.37-1.339,0.371
	c-4.921,0.009-9.842,0.01-14.763-0.002C90.992,115.779,90.49,115.833,90.123,115.421z"/>
<path fill="#F8F8F8" d="M137.461,115.386c2.835-0.219,5.675-0.11,8.511-0.097c3.178,0.014,6.355,0.132,9.533,0.182
	c0.378,0.006,0.823,0.187,1.134-0.22c0.311,1.095,0.376,2.231,0.549,3.349c0.046,0.301,0.121,0.724-0.425,0.728
	c-0.428-0.64-1.102-0.466-1.688-0.461c-5.481,0.044-10.961-0.08-15.658-0.016c2.817,0.188,6.419-0.085,10.016,0.028
	c2.121,0.067,4.241,0.182,6.364,0.179c0.341,0,0.69,0.012,0.964,0.27c-0.167,0.309-0.465,0.239-0.729,0.239
	c-2.193,0.004-4.388,0.054-6.579-0.028c-0.763-0.029-1.54-0.071-2.309-0.143c-0.672-0.063-1.351-0.014-2.038,0.094
	c-1.285,0.203-2.611,0.177-3.894,0.035c-1.06-0.117-2.11-0.13-3.166-0.162c-0.791-0.024-0.76-0.033-0.828-0.818
	C137.127,117.475,137.457,116.444,137.461,115.386z"/>
<path fill="#F8F8F8" d="M90.123,115.421c1.094,0.013,2.188,0.035,3.282,0.036c4.344,0.004,8.688,0.003,13.032,0
	c0.375,0,0.75-0.03,1.125-0.047c0.021,1.128,0.019,2.258,0.075,3.384c0.018,0.356-0.08,0.513-0.409,0.557
	c-0.068,0.009-0.137,0.013-0.205,0.011c-2.22-0.056-4.426,0.356-6.65,0.206c-0.814-0.055-1.613-0.29-2.44-0.2
	c-2.919,0.317-5.849,0.168-8.775,0.2c-0.24,0.003-0.48,0.005-0.719-0.008c-0.411-0.023-0.595-0.254-0.632-0.66
	c-0.036-0.394,0.155-0.828-0.183-1.175C88.446,116.944,89.454,116.366,90.123,115.421z"/>
<path fill="#010101" d="M53.026,112.385c1.125,0.011,2.25,0.031,3.376,0.031c1.896,0.001,3.49,0.683,4.819,2.039
	c0.518,0.529,0.628,1.277,1.094,1.822c-0.046,0.555-0.453,0.646-0.88,0.628c-4.227-0.184-8.457-0.06-12.684-0.122
	c-0.507-0.007-0.953-0.135-1.083-0.721c-0.124-0.909,0.234-1.796,0.115-2.717c-0.031-0.237,0.031-0.703,0.492-0.765
	c0.354-0.327,0.799-0.34,1.236-0.323C50.681,112.301,51.862,112.109,53.026,112.385z"/>
<path fill="#010101" d="M45.368,112.633c0.626,0.559,0.295,1.327,0.414,1.993c0.083,0.465,0.022,0.957,0.026,1.436
	c-0.224,0.796-0.886,0.736-1.492,0.739c-3,0.015-6.001,0.001-9.001,0.009c-1.022,0.003-2.045-0.036-3.067,0.054
	c-0.407,0.036-0.838,0.085-1.044-0.411c0.296-1.161,0.95-2.125,1.806-2.915c0.629-0.58,1.471-0.845,2.328-0.904
	c1.563-0.107,3.129-0.162,4.694-0.238c1.574-0.287,3.157-0.131,4.737-0.094C45.011,112.307,45.224,112.422,45.368,112.633z"/>
<path fill="#F8F8F8" d="M31.204,116.452c0.216,0.104,0.43,0.185,0.684,0.17c4.306-0.254,8.616-0.113,12.924-0.117
	c0.416,0,0.812,0.042,0.996-0.442c0.001,0.855,0.014,1.71-0.001,2.565c-0.015,0.825-0.123,0.965-0.966,0.931
	c-0.881-0.036-1.788-0.026-2.628,0.077c-1.784,0.218-3.524-0.196-5.292-0.086c-1.737,0.109-3.487,0.031-5.231,0.022
	c-0.901-0.005-0.907-0.019-0.907-0.931C30.782,117.885,30.941,117.158,31.204,116.452z"/>
<path fill="#FCDFC9" d="M45.368,112.633c-1.655-0.038-3.311-0.077-4.966-0.114c-0.138-0.003-0.267-0.022-0.37-0.125
	c0.211-2.466,0.426-4.932,0.428-7.41c1.57-0.014,3.14-0.078,4.707,0.091c0.264,0.028,0.538-0.041,0.807-0.065
	c-0.28,0.709-0.328,1.487-0.325,2.205C45.657,109.031,45.353,110.823,45.368,112.633z"/>
<path fill="#F8F8F8" d="M47.667,116.062c0.15,0.348,0.394,0.459,0.787,0.454c2.287-0.029,4.575-0.029,6.862-0.027
	c1.568,0.001,3.135-0.028,4.702,0.096c0.534,0.042,1.081-0.038,1.625,0.032c0.271,0.035,0.55-0.024,0.672-0.34
	c0.243,0.811,0.311,1.653,0.366,2.488c0.049,0.755-0.023,0.8-0.813,0.805c-2.085,0.011-4.17-0.008-6.255,0.009
	c-0.916,0.007-1.844-0.12-2.745,0.178c-0.124,0.041-0.276,0.034-0.407,0.008c-1.271-0.25-2.559-0.131-3.838-0.195
	c-0.258-0.013-0.566,0.085-0.699-0.266c0.338-0.255,0.729-0.141,1.096-0.142c3.944-0.009,7.889-0.005,11.833-0.006
	c-3.944-0.001-7.888-0.004-11.832,0.005c-0.365,0.001-0.759-0.121-1.091,0.151c-0.344-0.136-0.259-0.441-0.262-0.699
	C47.66,117.764,47.666,116.913,47.667,116.062z"/>
<path fill="#FCDFC9" d="M53.026,112.385c-0.649,0.269-1.335,0.185-2.005,0.184c-0.916-0.002-1.832,0.14-2.748,0.011
	c0.012-2.475,0.025-4.95,0.038-7.426c1.695,0.079,3.397-0.047,5.086,0.171c-0.274,0.804-0.318,1.652-0.355,2.479
	C52.974,109.329,53.025,110.858,53.026,112.385z"/>
<path fill="#58935C" d="M142.317,95.475c-0.132-0.147-0.264-0.293-0.396-0.44c0.038-0.039,0.076-0.078,0.113-0.117
	c2.009-1.078,4.017-0.809,6.019,0.016c0.906,0.374,0.979,0.322,1.238-0.621c0.402-1.468,0.116-2.909-0.102-4.355
	c-0.04-0.268-0.149-0.527-0.082-0.806c0.063-0.118,0.152-0.144,0.268-0.078c1.523,0.12,1.192-0.108,1.341,1.102
	c0.229,1.865,0.182,3.751-0.503,5.555c-0.06,0.159-0.111,0.323-0.187,0.474c-0.716,1.423-0.698,1.316-1.734,0.451
	c-1.204-1.004-2.64-1.554-4.264-1.407c-0.349-0.067-0.692-0.011-1.033,0.056C142.797,95.477,142.566,95.512,142.317,95.475z"/>
<path fill="#91C686" d="M149.375,89.074c-0.067,0.019-0.135,0.038-0.202,0.057c0.07,0.846,0.333,1.661,0.372,2.515
	c0.025,0.547,0.099,1.104,0.006,1.633c-0.104,0.592-0.044,1.304-0.523,1.727c-0.565,0.5-1.065-0.156-1.587-0.299
	c-1.856-0.511-3.679-0.702-5.433,0.337c0,0-0.087-0.009-0.087-0.01c-0.234-0.113-0.342-0.319-0.408-0.555
	c0.016-0.052,0.032-0.104,0.048-0.156c1.489-1.337,3.251-1.445,5.092-1.081c1.94,0.384,1.96,0.404,1.813-1.598
	c-0.083-1.127-0.405-2.211-0.755-3.288c-0.203-0.623-0.557-0.867-1.204-0.846c-2.351,0.078-4.63,0.4-6.648,1.74
	c-0.248,0.164-0.468,0.428-0.824,0.277c-0.177-0.143-0.168-0.347-0.177-0.545c0.01-0.373,0.346-0.368,0.57-0.492
	c0.912-0.615,1.993-0.837,2.98-1.278c0.218,0.012,0.432,0.015,0.592-0.172c1.115-0.122,2.229-0.224,3.351-0.283
	c1.126-0.059,1.832,0.343,2.169,1.397C148.663,88.609,148.936,88.911,149.375,89.074z"/>
<path fill="#C6C6C5" d="M81.229,115.88c0.58,0.973,1.474,1.693,2.111,2.621c0.192,0.279,0.488,0.483,0.591,0.825
	c-0.164,0.051-0.324,0.119-0.491,0.149c-1.183,0.212-2.295,0.253-3.124-0.888c-0.357-0.492-0.864-0.878-1.171-1.421
	c-0.375-0.664-0.183-1.067,0.566-1.098C80.226,116.047,80.728,115.987,81.229,115.88z"/>
<path fill="#E4B628" d="M166.245,92.362c-0.016,2.183-1.844,3.967-4.044,3.945c-2.198-0.022-3.974-1.837-3.948-4.04
	c0.022-1.891,1.414-3.919,4.042-3.949C164.494,88.292,166.261,90.163,166.245,92.362z"/>
<path fill="#E4B729" d="M162.142,119.54c-2.026-0.464-3.188-1.978-3.125-4.072c0.056-1.837,1.44-3.423,3.239-3.712
	c2-0.32,3.806,0.734,4.478,2.614c0.54,1.512,0.135,3.078-1.084,4.189c-0.071-0.078-0.111-0.169-0.121-0.274
	c0.038-0.391,0.299-0.685,0.452-1.026c0.832-1.859,0.022-4.112-1.81-4.673c-2.073-0.636-3.805,0.172-4.497,2.385
	c-0.395,1.262,0.338,2.912,1.536,3.622c0.346,0.205,0.794,0.258,1.009,0.664C162.238,119.364,162.21,119.458,162.142,119.54z"/>
<path fill="#E4B729" d="M151.024,105.333c-2.026-0.464-3.188-1.978-3.125-4.072c0.056-1.837,1.44-3.423,3.239-3.712
	c2-0.32,3.806,0.734,4.478,2.614c0.54,1.512,0.135,3.078-1.084,4.189c-0.071-0.078-0.111-0.169-0.121-0.274
	c0.038-0.391,0.299-0.685,0.452-1.026c0.832-1.859,0.022-4.112-1.81-4.673c-2.073-0.636-3.805,0.172-4.497,2.385
	c-0.395,1.262,0.338,2.912,1.536,3.622c0.346,0.205,0.794,0.258,1.009,0.664C151.12,105.158,151.092,105.251,151.024,105.333z"/>
<path fill="#FCE0C9" d="M87.221,44.21c0.205-1.733,0.389-3.47,0.764-5.178c-0.039,0.646,0.242,1.061,0.826,1.369
	c0.94,0.496,0.927,0.536,0.264,1.406C88.461,42.611,87.839,43.409,87.221,44.21z"/>
<path fill="#462A1C" d="M72.15,41.528c-0.871,0.191-1.743,0.278-2.642,0.205c-0.882-0.072-1.649-0.4-2.384-0.847
	c-0.114-0.069-0.222-0.161-0.307-0.264c-0.16-0.193-0.062-0.406,0.035-0.573c0.156-0.27,0.335-0.085,0.502,0.024
	c1.508,0.978,3.137,1.019,4.823,0.624C72.44,40.983,72.175,41.252,72.15,41.528z"/>
<path fill="#C9C7C3" d="M74.228,17.231c-0.688,0.142-1.001,0.879-1.669,1.052c-0.458-0.751-0.463-0.759,0.147-1.203
	c0.658-0.479,1.322-0.951,1.994-1.409c0.703-0.479,0.709-0.471,1.166,0.302c-0.588,0.375-1.183,0.741-1.651,1.271L74.228,17.231z"/>
<path fill="#1F180B" d="M81.683,27.338c0.393-0.425,0.79-0.848,1.179-1.277c0.24-0.265,0.447-0.233,0.684,0.015
	c0.237,0.247,0.113,0.41-0.067,0.602c-0.398,0.424-0.783,0.86-1.173,1.291C81.963,27.893,81.789,27.649,81.683,27.338z"/>
<path fill="#251E0F" d="M78.109,24.65c0.389-0.464,0.778-0.927,1.166-1.391c0.185-0.221,0.378-0.248,0.597-0.042
	c0.199,0.188,0.111,0.342-0.026,0.518c-0.371,0.476-0.73,0.961-1.094,1.443C78.428,25.136,78.209,24.964,78.109,24.65z"/>
<path fill="#211B0F" d="M83.922,30.645c0.586-0.168,1.173-0.335,1.758-0.507c0.242-0.071,0.529-0.307,0.666,0.102
	c0.138,0.412-0.177,0.509-0.488,0.61c-0.58,0.189-1.152,0.404-1.728,0.607C83.801,31.254,83.929,30.932,83.922,30.645z"/>
<path fill="#2A2311" d="M84.285,35.736c0.576,0.044,1.153,0.074,1.726,0.141c0.187,0.022,0.421,0.09,0.409,0.363
	c-0.014,0.34-0.271,0.342-0.515,0.331c-0.576-0.025-1.135-0.227-1.719-0.172C84.082,36.157,83.977,35.915,84.285,35.736z"/>
<path fill="#251D0D" d="M74.343,21.259c0.453-0.407,0.904-0.817,1.36-1.22c0.164-0.145,0.371-0.227,0.544-0.058
	c0.225,0.219,0.112,0.423-0.103,0.593c-0.474,0.376-0.85,0.88-1.442,1.101C74.539,21.575,74.388,21.463,74.343,21.259z"/>
<path fill="#3E331B" d="M79.078,102.87c0.517-0.144,1.035-0.287,1.552-0.431c0.189-0.053,0.412-0.177,0.517,0.092
	c0.106,0.273-0.118,0.331-0.32,0.394c-0.546,0.171-1.078,0.392-1.66,0.423C79.061,103.203,78.927,103.063,79.078,102.87z"/>
<path fill="#292013" d="M83.683,115.061c0.272,0.389,0.552,0.771,0.811,1.168c0.119,0.183,0.35,0.399,0.039,0.601
	c-0.228,0.148-0.357-0.038-0.494-0.202c-0.35-0.419-0.667-0.858-0.928-1.338C83.292,115.191,83.443,115.015,83.683,115.061z"/>
<path fill="#E1B220" d="M154.521,104.122c0.003,0.077,0.006,0.154,0.01,0.231c-0.98,1.004-2.164,1.275-3.507,0.98
	c0-0.06,0-0.121,0-0.181C152.198,104.839,153.362,104.488,154.521,104.122z"/>
<path fill="#E1B220" d="M162.142,119.54c0-0.06,0-0.121,0-0.181c1.175-0.313,2.339-0.665,3.498-1.031
	c0.003,0.077,0.006,0.154,0.01,0.231C164.669,119.564,163.485,119.835,162.142,119.54z"/>
<path fill="#2A2212" d="M85.961,112.944c0.402,0.312,0.808,0.617,1.202,0.938c0.127,0.104,0.253,0.237,0.076,0.42
	c-0.155,0.16-0.301,0.118-0.444,0.001c-0.392-0.322-0.825-0.6-1.126-1.022C85.747,113.151,85.804,113.004,85.961,112.944z"/>
<path fill="#2A2312" d="M79.913,106.705c0.496-0.288,0.99-0.581,1.49-0.862c0.12-0.068,0.26-0.082,0.364,0.046
	c0.152,0.188,0.031,0.33-0.115,0.413c-0.469,0.268-0.951,0.513-1.427,0.767C80.036,107.022,79.943,106.891,79.913,106.705z"/>
<path fill="#060603" d="M79.385,94.788c0.462-0.123,0.931-0.081,1.398-0.053c0.143,0.009,0.254,0.115,0.213,0.267
	c-0.02,0.077-0.128,0.179-0.202,0.184c-0.467,0.033-0.936,0.042-1.404,0.059C79.389,95.093,79.387,94.941,79.385,94.788z"/>
<path fill="#342C1C" d="M84.085,109.333c0.26-0.388,0.515-0.779,0.782-1.162c0.14-0.201,0.253-0.575,0.576-0.345
	c0.295,0.21-0.067,0.398-0.16,0.576c-0.153,0.293-0.353,0.561-0.534,0.839C84.545,109.389,84.353,109.63,84.085,109.333z"/>
<path fill="#362B19" d="M79.035,98.957c0.462-0.06,0.924-0.129,1.388-0.176c0.151-0.015,0.359-0.043,0.366,0.208
	c0.004,0.169-0.145,0.183-0.27,0.229c-0.482,0.176-0.987,0.174-1.487,0.212C78.947,99.272,78.947,99.114,79.035,98.957z"/>
<path fill="#F8F8F8" d="M109.02,54.712c-0.089-0.026-0.177-0.051-0.266-0.077C108.904,54.447,108.948,54.631,109.02,54.712
	L109.02,54.712z"/>
<path fill="#72ADD8" d="M137.64,110.09c-0.008,0.086-0.036,0.152-0.14,0.141C137.479,110.116,137.542,110.086,137.64,110.09z"/>
<path fill="#402517" d="M102.31,36.936c3.635,1.993,7.468,2.222,11.456,1.718c-0.207,1.292-0.768,2.348-1.607,3.202
	c-1.361,1.386-3.026,2.219-5.009,2.255c-0.399,0.007-0.814-0.108-1.198-0.236C103.401,43.029,101.647,39.442,102.31,36.936z"/>
<path fill="#3F2417" d="M118.773,28.342c0.023,1.316-0.365,2.369-0.923,3.369c-0.185,0.331-0.44,0.613-0.745,0.843
	c-0.662,0.501-1.456,0.463-2.051-0.123c-0.649-0.638-0.939-1.419-0.846-2.333c0.126-1.241,0.475-2.417,1.036-3.53
	c0.226-0.449,0.576-0.753,1.04-0.946c0.801-0.334,1.491-0.117,1.947,0.607C118.669,26.924,118.804,27.687,118.773,28.342z"/>
<path fill="#402517" d="M106.128,25.061c-0.049,0.753-0.154,1.6-0.411,2.419c-0.123,0.391-0.295,0.765-0.577,1.075
	c-1.013,1.116-2.336,0.917-2.948-0.437c-0.23-0.509-0.318-1.02-0.247-1.589c0.144-1.164,0.355-2.295,0.98-3.315
	c0.261-0.426,0.596-0.723,1.078-0.889c0.556-0.191,0.997-0.065,1.392,0.346C106.015,23.317,106.1,24.127,106.128,25.061z"/>
<path fill="#8B766A" d="M135.754,49.54c0.1,0.213-0.049,0.52,0.249,0.657c-0.096,0.16-0.241,0.209-0.419,0.182
	C135.571,50.085,135.534,49.786,135.754,49.54z"/>
<path fill="#402517" d="M56.285,31.801c0.026-0.297-0.242-0.379-0.398-0.542c0.024-0.535,0.898-0.218,0.839-0.837
	c0.827-0.813,1.821-0.831,2.574,0.021c0.802,0.907,1.402,1.944,1.738,3.12c0.207,0.726,0.131,1.423-0.18,2.103
	c-0.447,0.977-1.218,1.234-2.189,0.733c-0.502-0.259-0.885-0.649-1.192-1.109c-0.266-0.398-0.551-0.799-0.727-1.238
	c-0.187-0.467-0.465-0.612-0.94-0.577c-0.318,0.023-0.682,0.059-0.936-0.275c0.273-0.308,0.593-0.16,0.876-0.193
	c0.217-0.025,0.524,0.11,0.576-0.245c0.043-0.29-0.191-0.412-0.418-0.511C55.779,31.886,56.264,32.038,56.285,31.801z"/>
<path fill="#F6B5A6" d="M58.746,44.406c-0.137,0-0.279,0.022-0.411-0.004c-0.578-0.114-1.157-0.232-1.349-0.922
	c-0.152-0.546,0.12-1.05,0.765-1.543c1.086-0.831,2.404-0.935,3.667-1.187c0.425-0.085,0.883,0.141,1.252,0.389
	c0.645,0.433,0.71,1.152,0.198,1.763c-0.36,0.429-0.794,0.767-1.324,0.945C60.637,44.151,59.702,44.339,58.746,44.406z"/>
<path fill="#664938" d="M56.285,31.801c-0.014,0.244-0.291,0.266-0.378,0.449c-0.358,0.094-0.668-0.096-0.997-0.172
	c-0.138-0.032-0.263-0.092-0.24-0.268c0.025-0.185,0.178-0.173,0.307-0.178C55.423,31.612,55.824,31.932,56.285,31.801z"/>
<path fill="#66493A" d="M56.726,30.422c0.169,0.729-0.587,0.53-0.839,0.837c-0.392-0.02-0.72-0.204-1.043-0.404
	c-0.044-0.236,0.043-0.337,0.285-0.279c0.152,0.055,0.31,0.096,0.454,0.166C56.064,30.977,56.445,30.885,56.726,30.422z"/>
<path fill="#94715C" d="M55.129,30.576c-0.131,0.057-0.241,0.133-0.285,0.279c-0.179-0.071-0.263-0.197-0.115-0.349
	C54.868,30.362,55.013,30.45,55.129,30.576z"/>
<path fill="#8CC58A" d="M141.513,94.48c-1.131-1.423-1.876-3.042-2.424-4.761c2.22-1.92,4.918-2.215,7.689-2.267
	c0.479-0.009,0.778,0.207,0.937,0.644c0.557,1.524,0.918,3.081,0.835,4.721c-0.036,0.708-0.375,0.89-1.019,0.702
	c-1.544-0.451-3.081-0.543-4.626,0.045c-0.525,0.2-1.002,0.424-1.345,0.878L141.513,94.48z"/>
<path fill="#78AC79" d="M141.561,94.441c0.019-0.619,0.58-0.792,0.966-0.937c1.423-0.532,2.898-0.709,4.409-0.326
	c1.408,0.357,1.397,0.341,1.416-1.075c0.017-1.246-0.291-2.431-0.654-3.601c-0.239-0.77-0.372-0.819-1.183-0.848
	c-1.723-0.061-3.375,0.34-5.029,0.743c-0.449,0.109-0.785,0.401-1.167,0.619c-0.409,0.235-0.737,0.612-1.229,0.701
	c-0.032-0.059-0.05-0.122-0.055-0.189c1.587-1.271,3.406-1.9,5.422-2.125c0.816-0.091,1.623-0.134,2.438-0.167
	c0.487-0.02,0.777,0.199,0.933,0.631c0.62,1.709,1.069,3.45,0.922,5.29c-0.061,0.766-0.249,0.902-0.963,0.654
	c-0.875-0.305-1.799-0.554-2.685-0.514c-1.06,0.047-2.168,0.233-3.087,0.91C141.88,94.308,141.713,94.364,141.561,94.441z"/>
<path fill="#1D5886" d="M139.427,88.493c-0.092,0.277-0.328,0.387-0.57,0.492c-0.27-0.289-0.397-0.622-0.329-1.066
	C138.993,87.887,139.138,88.31,139.427,88.493z"/>
<path fill="#165283" d="M142.317,95.475c0.199-0.164,0.425-0.219,0.677-0.169c-0.046,0.321,0.259,0.617,0.06,0.992
	C142.622,96.179,142.419,95.876,142.317,95.475z"/>
<path fill="#0C0C0E" d="M61.662,68.971c-0.039,0.935-0.637,1.593-1.413,1.556c-0.821-0.039-1.483-0.77-1.416-1.565
	c0.068-0.81,0.785-1.496,1.551-1.483C61.236,67.493,61.702,68.036,61.662,68.971z"/>
<path fill="#0B0C0D" d="M60.078,73.44c0.739-0.026,1.408,0.641,1.436,1.433c0.029,0.821-0.553,1.591-1.236,1.634
	c-0.687,0.043-1.396-0.617-1.431-1.334C58.804,74.283,59.385,73.464,60.078,73.44z"/>
<path fill="#C46A7F" d="M63.102,83.34c0.017,0.135,0.033,0.27,0.05,0.406c-0.111,0.171-0.254,0.191-0.429,0.099
	c-0.835-0.433-1.714-0.781-2.493-1.318c0.505-0.005,1.016,0.034,1.515-0.024C62.444,82.421,62.897,82.659,63.102,83.34z"/>
<path fill="#FFFDFB" d="M74.385,17.318c0.382-0.155,0.729-0.123,1.024,0.189c0.29,0.305,0.356,0.656,0.167,1.029
	c-0.193,0.379-0.524,0.521-0.936,0.432c-0.413-0.089-0.652-0.341-0.657-0.782c-0.002-0.206,0.019-0.407,0.131-0.587
	c0.026-0.029,0.051-0.059,0.077-0.088c0.02-0.046,0.052-0.079,0.097-0.1C74.321,17.38,74.353,17.349,74.385,17.318z"/>
<path fill="#2C2511" d="M83.551,40.715c-0.058-0.229,0.103-0.404,0.15-0.608c0.606,0.072,1.214,0.137,1.819,0.22
	c0.225,0.031,0.374,0.158,0.32,0.419c-0.046,0.224-0.169,0.407-0.411,0.346C84.809,40.935,84.141,41.016,83.551,40.715z"/>
<path fill="#312811" d="M82.886,45.026c0.01-0.15,0.02-0.3,0.031-0.45c0.568,0.049,1.137,0.083,1.701,0.156
	c0.191,0.025,0.41,0.112,0.332,0.402c-0.074,0.279-0.246,0.223-0.468,0.184C83.949,45.226,83.398,45.234,82.886,45.026z"/>
<path fill="#3F341B" d="M80.1,71.928c-0.118-0.208-0.19-0.41,0.07-0.572c0.591,0.126,1.214-0.002,1.794,0.228
	c0.125,0.05,0.259,0.068,0.243,0.248c-0.017,0.19-0.178,0.197-0.297,0.193C81.307,72.003,80.703,71.962,80.1,71.928z"/>
<path fill="#302715" d="M81.5,54.742c-0.079-0.188-0.07-0.37,0.039-0.546c0.558,0.169,1.141,0.057,1.706,0.151
	c0.212,0.035,0.418,0.087,0.405,0.346c-0.015,0.3-0.27,0.249-0.454,0.233C82.63,54.876,82.066,54.804,81.5,54.742z"/>
<path fill="#41351E" d="M81.093,59.223c-0.079-0.21-0.08-0.407,0.097-0.574c0.573,0.062,1.146,0.121,1.718,0.189
	c0.172,0.02,0.361,0.07,0.328,0.296c-0.038,0.256-0.254,0.151-0.404,0.148C82.252,59.267,81.673,59.244,81.093,59.223z"/>
<path fill="#443717" d="M80.834,63.654c-0.001-0.081-0.002-0.162-0.003-0.243c0.613-0.521,1.242-0.005,1.863-0.017
	c0.127-0.003,0.184,0.176,0.149,0.328c-0.037,0.161-0.162,0.231-0.299,0.211C81.972,63.85,81.404,63.749,80.834,63.654z"/>
<path fill="#312914" d="M80.547,67.56c0.026-0.129,0.052-0.258,0.078-0.387c0.578,0.051,1.156,0.099,1.734,0.155
	c0.189,0.018,0.321,0.111,0.281,0.33c-0.031,0.166-0.171,0.21-0.306,0.205C81.725,67.844,81.125,67.761,80.547,67.56z"/>
<path fill="#080709" d="M79.647,81.459c-0.003-0.167-0.006-0.334-0.008-0.502c0.506-0.009,1.011-0.022,1.517-0.024
	c0.149-0.001,0.278,0.093,0.275,0.235c-0.002,0.134-0.13,0.251-0.268,0.257C80.659,81.448,80.153,81.45,79.647,81.459z"/>
<path fill="#352B13" d="M82.181,49.813c0.031-0.127,0.063-0.255,0.094-0.382c0.534,0.056,1.068,0.107,1.601,0.169
	c0.182,0.021,0.324,0.126,0.31,0.324c-0.015,0.21-0.177,0.261-0.363,0.25C83.257,50.143,82.693,50.097,82.181,49.813z"/>
<path fill="#272616" d="M79.852,77.387c-0.068-0.165-0.052-0.332-0.009-0.499c0.502,0.019,1.004,0.034,1.505,0.061
	c0.13,0.007,0.278,0.027,0.277,0.217c-0.001,0.186-0.066,0.322-0.269,0.363C80.84,77.632,80.354,77.43,79.852,77.387z"/>
<path fill="#C9C7C3" d="M74.191,17.511c-0.002,0.052-0.028,0.082-0.078,0.089c0.001-0.001,0.01-0.069,0.01-0.069L74.191,17.511z"/>
<path fill="#C9C7C3" d="M74.385,17.318c-0.008,0.056-0.041,0.087-0.097,0.093c-0.009-0.064-0.029-0.125-0.059-0.181l-0.012,0.012
	C74.272,17.269,74.328,17.294,74.385,17.318z"/>
<path fill="#191102" d="M79.589,91.317c0.653,0.019,1.34-0.348,2.023,0.184c-0.661,0.463-1.364,0.136-2.003,0.258
	C79.556,91.614,79.501,91.469,79.589,91.317z"/>
<path fill="#322A19" d="M88.846,110.188c-0.283,0.37-0.849,0.308-1.286,0.508c-0.147,0.067-0.352,0.07-0.404-0.157
	c-0.02-0.089,0.001-0.218,0.055-0.288c0.176-0.224,1.287-0.449,1.55-0.337C88.837,109.946,88.875,109.989,88.846,110.188z"/>
<path fill="#CFCFCF" d="M31.556,87.226c-0.532-0.464-1.141-0.883-1.377-1.608c-0.511-0.292-0.617-0.775-0.639-1.31
	c-0.03-0.735,0.181-1.426,0.422-2.097c0.532-1.481,0.49-2.93-0.007-4.416c-0.53-1.585-1.644-2.579-3.11-3.208
	c-1.128-0.484-2.311-0.171-2.927,0.725c-0.57,0.829-0.897,1.759-0.964,2.776c-0.158,2.41,1.182,3.996,2.986,5.265
	c0.702,0.494,1.307,1.094,2.003,1.588c0.388,0.276,0.562,0.724,0.683,1.315c-1.005-0.329-1.836-0.654-2.381-1.483
	c-0.547-0.831-1.214-1.564-1.925-2.259c-1.758-1.718-4.152-1.924-6.153-0.513c-1.123,0.792-1.539,1.942-0.938,3.123
	c0.858,1.686,2.244,2.809,4.081,3.351c1.089,0.321,2.157,0.175,3.235-0.066c0.964-0.215,1.935-0.444,2.936-0.342
	c0.755,0.077,1.489,0.226,1.86,1.02c0.47,0.054,0.641,0.465,0.923,0.754c0.431,0.442,0.745,1.038,1.456,1.265
	c0.189-0.985,0.32-1.89,0.322-2.815C32.04,87.849,31.903,87.529,31.556,87.226z M24.135,87.019c-0.28,0.111-0.573,0.245-0.891,0.209
	c-1.443-0.163-2.825-0.466-3.871-1.6c-0.541-0.585-0.741-1.289-0.432-1.984c0.294-0.661,0.94-0.964,1.694-0.936
	c0.102,0.004,0.205,0.001,0.308,0.001c1.625,0.095,2.959,0.701,3.851,2.135C25.425,85.858,25.23,86.585,24.135,87.019z
	 M28.68,81.503c-0.264,1.013-0.986,1.285-1.851,0.689c-1.324-0.912-1.94-2.222-2.037-3.804c0.012-0.238-0.004-0.482,0.04-0.714
	c0.233-1.213,1.44-1.658,2.392-0.878c0.678,0.555,1.099,1.274,1.36,2.115C28.853,79.775,28.906,80.637,28.68,81.503z"/>
<path fill="#939F9E" d="M30.364,88.883c-0.455,0.009-0.954-0.42-0.989-0.851c-0.03-0.37,0.499-0.947,0.888-0.967
	c0.429-0.022,0.914,0.472,0.902,0.92C31.152,88.438,30.762,88.875,30.364,88.883z"/>
<path fill="#1F1D1E" d="M156.762,119.328c-3.665-0.041-7.332-0.161-10.995-0.097c-2.503,0.044-4.998-0.055-7.497-0.081
	c-0.103-0.001-0.206-0.001-0.308-0.003c-0.248-0.007-0.515-0.014-0.49-0.361c0.026-0.352,0.315-0.297,0.544-0.29
	c2.705,0.088,5.411,0.09,8.118,0.084c3.219-0.007,6.438,0.018,9.657,0.031c0.274,0.001,0.558-0.032,0.818,0.031
	C157.066,118.752,156.987,119.037,156.762,119.328C156.763,119.328,156.762,119.328,156.762,119.328z"/>
<path fill="#1F1D1E" d="M97.796,118.523c2.908,0,5.817,0,8.725-0.001c0.102,0,0.205-0.02,0.307-0.021
	c0.262-0.002,0.605-0.1,0.596,0.332c-0.007,0.34-0.301,0.307-0.537,0.314c-1.266,0.034-2.533,0.101-3.799,0.093
	c-4.484-0.027-8.967-0.003-13.449,0.078c-0.376,0.007-0.753-0.008-1.129-0.021c-0.241-0.008-0.524-0.014-0.499-0.354
	c0.024-0.323,0.313-0.314,0.548-0.321c0.719-0.02,1.441-0.08,2.156-0.03C93.075,118.759,95.437,118.4,97.796,118.523z"/>
<path fill="#262528" d="M38.192,119.409c-2.023,0-4.046,0.001-6.069-0.001c-0.24,0-0.481-0.003-0.719-0.023
	c-0.168-0.014-0.371-0.045-0.345-0.277c0.025-0.216,0.236-0.219,0.395-0.22c1.851-0.005,3.702-0.014,5.553,0.003
	c2.537,0.023,5.073,0.079,7.61-0.019c0.171-0.007,0.344-0.02,0.514-0.007c0.166,0.012,0.361,0.027,0.34,0.271
	c-0.014,0.163-0.148,0.216-0.288,0.226c-0.205,0.014-0.411,0.011-0.617,0.018C42.442,119.455,40.317,119.454,38.192,119.409z"/>
<path fill="#262528" d="M47.929,119.313c-0.025-0.453,0.259-0.461,0.603-0.453c1.299,0.03,2.599,0.055,3.899,0.054
	c3.045-0.002,6.09-0.024,9.135-0.027c0.286,0,0.786-0.129,0.801,0.197c0.024,0.51-0.515,0.311-0.802,0.313
	c-1.95,0.017-3.901-0.011-5.851-0.006c-2.257,0.005-4.514,0.086-6.771-0.009c-0.341-0.014-0.681-0.05-1.021-0.075l-0.039,0.041
	L47.929,119.313z"/>
<path fill="#3A6D36" d="M142.009,95.045c0.964-0.827,2.106-1.049,3.325-0.918c1.186,0.127,2.347,0.38,3.506,0.982
	c0.356-0.675,0.524-1.351,0.538-2.06c0.021-1.124,0.017-2.249-0.317-3.342c-0.06-0.197-0.271-0.453,0.113-0.576
	c0.699,1.945,0.857,3.91,0.189,5.896c-0.223,0.661-0.321,0.719-0.947,0.364c-0.976-0.553-2.056-0.718-3.124-0.907
	c-0.672-0.118-1.356-0.023-2.013,0.229C142.871,94.87,142.48,95.124,142.009,95.045z"/>
<path fill="#FDC60C" d="M165.849,92.399c0.133,1.871-1.468,3.676-3.624,3.616c-1.932-0.053-3.531-1.301-3.597-3.684
	c-0.064-2.326,2.103-3.674,3.659-3.633C164.294,88.75,165.984,90.39,165.849,92.399z"/>
<path fill="#FDC60C" d="M165.64,118.328c-1.033,0.797-2.19,1.168-3.498,1.031c-0.274-0.282-0.666-0.332-1.001-0.481
	c-1.083-0.48-1.957-2.198-1.865-3.422c0.104-1.378,1.375-3.008,2.638-3.239c2.524-0.461,4.198,0.608,4.712,3.18
	C166.837,116.458,166.296,117.459,165.64,118.328z"/>
<path fill="#FDC60C" d="M154.521,104.122c-1.033,0.797-2.19,1.168-3.498,1.031c-0.274-0.282-0.666-0.332-1.001-0.481
	c-1.083-0.48-1.957-2.198-1.865-3.422c0.104-1.378,1.375-3.008,2.638-3.239c2.524-0.461,4.198,0.608,4.712,3.18
	C155.718,102.251,155.178,103.252,154.521,104.122z"/>
<path fill="#73A976" d="M144.025,91.418c0.002,0.979-0.337,1.43-1.223,1.677c-0.524,0.146-1.569-0.381-1.889-0.971
	c-0.408-0.752-0.484-1.57-0.352-2.394c0.089-0.555,0.475-0.909,1.031-1.017c0.653-0.127,1.271,0.021,1.651,0.577
	C143.681,89.933,144.113,90.615,144.025,91.418z"/>
</svg>
