<?xml version="1.0" encoding="utf-8"?>
<!-- Generator: Adobe Illustrator 17.0.0, SVG Export Plug-In . SVG Version: 6.00 Build 0)  -->
<!DOCTYPE svg PUBLIC "-//W3C//DTD SVG 1.1//EN" "http://www.w3.org/Graphics/SVG/1.1/DTD/svg11.dtd">
<svg version="1.1" id="Livello_1" xmlns="http://www.w3.org/2000/svg" xmlns:xlink="http://www.w3.org/1999/xlink" x="0px" y="0px"
	 width="131.164px" height="151.364px" viewBox="25.73 1.265 131.164 151.364" enable-background="new 25.73 1.265 131.164 151.364"
	 xml:space="preserve">
<path fill="#FCDFC8" d="M52.331,72.352c0.121-0.015,0.243-0.03,0.436-0.054c-0.62-0.453-1.185-0.866-1.751-1.279
	c-1.231-0.898-2.404-1.87-3.562-2.859c-0.155-0.132-0.357-0.171-0.489-0.324c-0.07-0.361-0.087-0.725-0.072-1.091
	c0.084-2.09-0.165-4.169-0.218-6.254c-0.013-0.53-0.009-1.061,0.039-1.593c0.052-0.572-0.133-0.752-0.713-0.789
	c-0.621-0.039-1.23,0.123-1.862,0.041c-1.643-0.212-2.822-1.054-3.425-2.569c-0.765-1.92-0.738-3.851,0.415-5.631
	c1.049-1.619,3.298-2.164,5.021-1.306c0.583,0.29,0.663,0.265,0.624-0.396c-0.149-2.507,0.006-5.022-0.129-7.524
	c-0.169-3.148-0.196-6.295-0.192-9.444c0.002-1.158,0.274-1.406,1.418-1.451c2.176-0.085,4.351-0.169,6.525-0.304
	c0.949-0.059,1.901-0.07,2.852-0.118c2.759-0.139,5.518-0.297,8.278-0.425c1.992-0.092,3.986-0.179,5.979-0.262
	c2.01-0.084,4.023-0.133,6.031-0.292c0.839-0.066,1.683-0.08,2.523-0.111c2.579-0.095,5.153-0.273,7.731-0.374
	c0.821-0.032,1.646-0.06,2.467-0.124c0.198-0.015,0.405-0.07,0.562,0.115c-0.003,0.233,0.118,0.414,0.241,0.6
	c0.723,1.098,1.529,2.142,2.187,3.283c0.731,1.268,1.396,2.569,1.975,3.915c0.674,1.565,1.188,3.182,1.593,4.832
	c0.325,1.325,0.682,2.649,0.618,4.039c-0.027,0.586,0.114,0.692,0.717,0.691c0.238,0,0.476,0.002,0.714-0.006
	c1.02-0.035,1.699,0.457,2.1,1.366c0.259,0.588,0.39,1.215,0.531,1.838c0.234,1.034,0.028,2.022-0.288,3.007
	c-0.303,0.945-0.993,1.393-1.906,1.605c-0.361,0.084-0.721,0.095-1.087,0.098c-0.505,0.004-0.645,0.138-0.668,0.651
	c-0.019,0.419-0.064,0.835-0.097,1.252c-0.14,1.77-0.497,3.498-0.947,5.207c-0.387,1.468-0.925,2.883-1.557,4.267
	c-0.511,1.12-1.102,2.186-1.807,3.189c-0.43,0.612-0.918,1.179-1.399,1.753c-0.401,0.478-0.842,0.913-1.271,1.362
	c-0.506,0.531-1.072,0.992-1.633,1.46c-0.122,0.102-0.203,0.204-0.224,0.357c-0.033,0.036-0.071,0.064-0.114,0.087
	c-0.11,0.052-0.209,0.12-0.309,0.19c-0.133,0.082-0.253,0.181-0.38,0.272c-2.311,1.387-4.651,2.708-7.239,3.533
	c-2.034,0.648-4.108,1.064-6.238,1.211c-0.385-0.064-0.558,0.127-0.661,0.481c-0.642,2.218-1.502,4.366-2.145,6.584
	c-0.036,0.123-0.068,0.249-0.143,0.355c-0.155,0.221-0.319,0.229-0.477,0.006c-0.098-0.138-0.111-0.308-0.155-0.466
	c-0.623-2.224-1.453-4.383-2.041-6.618c-0.019-0.071-0.054-0.136-0.101-0.193c-0.242-0.246-0.557-0.254-0.868-0.26
	c-3.324-0.066-6.483-0.876-9.475-2.272c-1.802-0.841-3.53-1.845-5.209-2.921C52.835,72.534,52.452,72.72,52.331,72.352z"/>
<path fill="#402517" d="M90.818,27.936c-2.173,0.112-4.346,0.224-6.519,0.335c-2.192,0.111-4.383,0.223-6.575,0.329
	c-1.644,0.079-3.289,0.148-4.933,0.222c-1.626,0.073-3.252,0.141-4.878,0.219c-2.21,0.106-4.421,0.221-6.631,0.33
	c-2.228,0.11-4.457,0.223-6.686,0.328c-1.681,0.079-3.363,0.136-5.043,0.229c-0.658,0.036-1.315,0.07-1.973,0.084
	c-0.11,0.002-0.22,0.012-0.328,0.031c-0.453,0.08-0.6,0.227-0.621,0.691c-0.03,0.658-0.044,1.317-0.048,1.976
	c-0.014,2.234,0.059,4.466,0.164,6.696c0.053,1.117,0.06,2.233,0.053,3.349c-0.01,1.74,0.027,3.478,0.162,5.213
	c0.023,0.295-0.001,0.586-0.024,0.877c-0.025,0.32-0.143,0.383-0.425,0.209c-0.375-0.232-0.748-0.46-1.179-0.57
	c-1.717-0.439-3.748,0.529-4.447,2.207c-0.724,1.738-0.703,3.505,0.139,5.207c0.593,1.198,1.608,1.859,2.928,2.061
	c0.474,0.073,0.941,0.085,1.418,0.015c0.323-0.048,0.658-0.046,0.986-0.025c0.342,0.021,0.48,0.175,0.535,0.515
	c0.017,0.108,0.025,0.22,0.014,0.328c-0.165,1.612,0.009,3.217,0.104,4.823c0.078,1.317,0.08,2.635,0.077,3.954
	c0,0.105,0.02,0.227-0.124,0.268c-3.515-2.708-5.931-6.225-7.573-10.307c-0.635-1.578-1.229-3.175-1.666-4.819
	c-0.488-1.84-0.762-3.726-0.998-5.615c-0.048-0.381-0.089-0.764-0.156-1.142c-0.135-0.759-0.188-1.52-0.208-2.291
	c-0.039-1.465-0.049-2.929,0.045-4.392c0.098-1.534,0.272-3.06,0.452-4.587c0.291-2.485,1.15-4.793,2.087-7.075
	c1.114-2.712,2.42-5.327,4.135-7.722c2.383-3.328,5.449-5.837,9.078-7.704c2.4-1.235,4.873-2.242,7.526-2.779
	c1.511-0.306,3.037-0.469,4.576-0.509c1.52-0.04,3.041-0.039,4.555,0.118c1.347,0.14,2.681,0.37,4.015,0.599
	c3.323,0.57,6.533,1.537,9.703,2.675c2.091,0.75,4.259,1.165,6.504,1.137c3.049-0.038,5.322-1.369,6.857-3.986
	c0.596-1.015,0.994-2.114,1.348-3.232c0.123-0.39,0.08-0.761-0.065-1.126c-0.282-0.712-1.043-0.923-1.662-0.456
	c-0.204,0.154-0.391,0.332-0.57,0.515c-0.486,0.496-1.094,0.548-1.728,0.467c-0.397-0.05-0.914-0.703-0.957-1.157
	c-0.079-0.834,0.249-1.509,0.848-2.052c0.958-0.868,2.098-1.205,3.384-1.119c1.22,0.082,2.239,0.538,2.945,1.554
	c0.462,0.664,0.779,1.407,0.96,2.2c0.299,1.31,0.054,2.579-0.279,3.847c-0.692,2.639-2.275,4.632-4.457,6.196
	c-1.254,0.898-2.555,1.704-4.068,2.102c-0.711,0.187-1.432,0.294-2.167,0.292c-0.11,0-0.222-0.016-0.329,0.001
	c-0.186,0.03-0.243,0.18-0.119,0.313c0.074,0.079,0.171,0.136,0.261,0.199c1.388,0.982,2.948,1.553,4.617,1.76
	c2.014,0.25,3.835-0.215,5.352-1.67c1.583-1.518,3.009-3.147,3.98-5.135c0.062-0.127,0.165-0.242,0.151-0.437
	c-0.251,0.015-0.498,0.041-0.746,0.043c-0.908,0.008-1.473-0.583-1.425-1.483c0.058-1.096,0.811-1.87,1.953-1.895
	c1.015-0.022,1.947,0.274,2.698,1.012c0.428,0.421,0.637,0.927,0.651,1.522c0.034,1.428-0.36,2.744-1.032,3.99
	c-1.395,2.587-3.194,4.859-5.329,6.871c-1.715,1.617-3.603,2.996-5.701,4.07C93.273,27.212,92.085,27.69,90.818,27.936z"/>
<path fill="#79B9E6" d="M49.696,136.328c0.005-0.527,0-1.053,0.017-1.579c0.009-0.279-0.09-0.382-0.376-0.38
	c-0.998,0.007-1.99,0.162-2.989,0.1c-0.163-0.01-0.327-0.004-0.49-0.005c-0.179-0.099-0.234-0.27-0.266-0.454
	c-0.018-0.108-0.027-0.218-0.024-0.327c0.067-2.571-0.184-5.138-0.112-7.709c0.008-0.287-0.041-0.591,0.19-0.828
	c1.282,0.003,2.564,0.008,3.846,0.009c0.506,0,0.599-0.092,0.508-0.573c-0.097-0.511-0.091-1.015,0-1.524
	c0.016-0.09,0.022-0.183,0.019-0.274c-0.049-1.538,0.111-3.07,0.153-4.606c0.052-1.936,0.162-3.871,0.219-5.808
	c0.018-0.619,0.084-1.239,0.08-1.86c-0.075-0.255,0.108-0.412,0.235-0.579c1.009-1.323,1.897-2.726,2.808-4.116
	c0.203-0.31,0.204-0.451-0.177-0.579c-0.483-0.162-0.945-0.388-1.411-0.599c-0.178-0.08-0.477-0.137-0.439-0.343
	c0.047-0.256,0.358-0.177,0.566-0.194c0.163-0.014,0.328-0.022,0.494-0.03c2.178,0.032,4.355,0.07,6.529,0.192
	c0.073,0.004,0.146,0.014,0.219,0.011c2.051-0.067,4.099,0.082,6.148,0.135c3.57,0.091,7.14,0.131,10.708,0.073
	c2.306-0.038,4.613-0.144,6.917-0.079c2.507,0.07,5.014,0.099,7.522,0.103c0.245,0,0.526-0.047,0.686,0.231
	c0.199,0.329,0.135,0.712,0.187,1.065c0.126,0.848,0.155,1.709,0.263,2.56c0.158,1.242,0.081,2.486,0.092,3.729
	c0.008,0.812-0.19,1.596-0.362,2.379c-0.469,2.134-1.159,4.192-2.158,6.143c-0.596,1.165-1.397,2.187-2.18,3.224
	c-1.17,1.551-2.68,2.737-4.186,3.932c-2.347,1.863-5.054,2.997-7.852,3.959c-2.254,0.775-4.572,1.278-6.919,1.674
	c-1.404,0.237-2.812,0.45-4.226,0.608c-0.688,0.077-1.38,0.124-2.068,0.207c-0.452,0.055-0.479,0.082-0.509,0.526
	c-0.028,0.418-0.065,0.836-0.098,1.254c-0.123,0.17-0.311,0.187-0.492,0.188c-0.477,0.003-0.949,0.099-1.42,0.101
	c-2.248,0.006-4.489,0.206-6.736,0.249c-0.86,0.017-1.71-0.191-2.571-0.071C49.91,136.48,49.79,136.427,49.696,136.328z"/>
<path fill="#E86A3D" d="M91.276,104.734c-1.447-0.027-2.895-0.057-4.342-0.081c-2.657-0.045-5.313-0.159-7.97-0.071
	c-3.023,0.1-6.047,0.128-9.071,0.076c-3.628-0.062-7.255-0.154-10.882-0.245c-2.235-0.056-4.469-0.135-6.703-0.204
	c-0.287-0.048-0.576-0.053-0.861,0.002c-0.192,0.037-0.358,0.037-0.485-0.134c-0.059-0.115-0.064-0.237-0.044-0.362
	c0.054-0.408,0.308-0.615,0.675-0.775c0.773-0.338,0.958-1.264,0.266-1.694c-0.649-0.405-0.684-0.915-0.658-1.528
	c0.005-0.109-0.014-0.219-0.016-0.329c0.166-2.535,0.305-5.072,0.397-7.61c0.065-1.79,0.219-3.574,0.28-5.365
	c0.065-1.915,0.236-3.83,0.369-5.744c0.062-0.893,0.152-1.786,0.152-2.682c0-0.57-0.071-0.682-0.633-0.619
	c-1.44,0.163-2.89,0.002-4.327,0.179c-0.345,0.043-0.694,0.039-1.042,0.019c-0.698-0.055-0.788-0.101-0.861-0.788
	c-0.142-1.341-0.057-2.689-0.049-4.034c0.002-0.333,0.173-0.477,0.522-0.463c0.323,0.013,0.653,0.056,0.975-0.035
	c1.369-0.036,2.736-0.009,4.103,0.072c0.418,0.025,0.839,0.022,1.258,0.031c0.133,0.121,0.3,0.079,0.455,0.089
	c0.124,0.007,0.25-0.005,0.328,0.121c1.164,1.87,2.604,3.529,4.035,5.19c1.267,1.47,2.658,2.818,4.117,4.099
	c1.017,0.894,2.029,1.791,3.108,2.611c0.481,0.366,0.547,0.386,0.821-0.141c1.036-1.998,2.278-3.882,3.253-5.912
	c0.07-0.146,0.107-0.318,0.298-0.366c0.301,0.668,0.417,1.394,0.645,2.084c0.366,1.109,0.726,2.219,1.077,3.333
	c0.186,0.59,0.396,1.174,0.5,1.788c0.016,0.094,0.022,0.22,0.15,0.266c0.149-0.038,0.197-0.168,0.221-0.287
	c0.223-1.078,0.652-2.089,0.998-3.126c0.41-1.229,0.813-2.462,1.218-3.693c0.187-0.567,0.186-0.568,0.78-0.54
	c-0.461,0.277-0.351,0.644-0.217,1.064c0.513,1.613,1.334,3.09,2.019,4.627c0.134,0.301,0.281,0.597,0.396,0.905
	c0.12,0.32,0.284,0.377,0.574,0.169c0.701-0.501,1.365-1.049,2.014-1.612c1.438-1.247,2.845-2.53,4.147-3.92
	c1.765-1.884,3.481-3.81,4.885-5.989c0.1-0.155,0.218-0.294,0.359-0.413c0.033-0.004,0.065-0.003,0.098,0.003
	c0.099,0.115,0.235,0.083,0.358,0.08c2.352-0.053,4.708,0.09,7.058-0.11c0.162-0.014,0.327,0.014,0.49,0.023
	c0.356,0.456,0.252,1.015,0.29,1.522c0.08,1.09,0.031,2.186,0.023,3.28c-0.001,0.202-0.023,0.403-0.193,0.549
	c-1.354,0.027-2.708-0.055-4.063,0.012c-1.024,0.05-2.049,0.074-3.074,0.114c-0.343,0.013-0.358,0.02-0.324,0.396
	c0.071,0.801,0.162,1.6,0.237,2.4c0.073,0.782,0.142,1.565,0.203,2.349c0.187,2.387,0.368,4.775,0.556,7.162
	c0.222,2.826,0.415,5.655,0.684,8.476c0.179,1.875,0.265,3.757,0.474,5.628C91.335,104.631,91.295,104.684,91.276,104.734z"/>
<path fill="#F8AF12" d="M125.359,111.604c-0.011,0.539-0.223,1.035-0.382,1.533c-0.691,2.176-1.311,4.373-1.975,6.557
	c-0.855,2.812-1.725,5.62-2.578,8.433c-0.604,1.991-1.18,3.991-1.786,5.981c-0.702,2.307-1.432,4.606-2.135,6.913
	c-0.655,2.15-1.288,4.306-1.936,6.458c-0.347,1.154-0.705,2.304-1.059,3.456c-0.043,0.14-0.08,0.283-0.138,0.417
	c-0.496,1.149-1.019,1.478-2.225,1.166c-1.754-0.454-3.452-1.087-5.184-1.612c-0.928-0.281-1.85-0.578-2.757-0.919
	c-0.81-0.304-1.174-0.988-0.977-1.831c0.245-1.051,0.606-2.069,0.916-3.101c1.061-3.536,2.129-7.069,3.199-10.602
	c1.129-3.725,2.265-7.448,3.394-11.173c0.642-2.116,1.276-4.235,1.914-6.352c0.695-2.309,1.39-4.618,2.088-6.926
	c0.116-0.385,0.257-0.762,0.37-1.148c0.06-0.206,0.171-0.359,0.349-0.469c1.448,0.382,2.856,0.901,4.306,1.277
	c1.963,0.509,3.91,1.079,5.869,1.602C124.892,111.335,125.175,111.365,125.359,111.604z"/>
<path fill="#FCDFC8" d="M51.019,104.016c0.172,0.186,0.403,0.089,0.606,0.124c0.226,0.038,0.464-0.04,0.683,0.068
	c-0.248,0.012-0.496,0.024-0.744,0.037c-0.008,0.027-0.016,0.053-0.024,0.08c0.645,0.274,1.282,0.569,1.938,0.816
	c0.631,0.238,0.503,0.185,0.193,0.674c-1.014,1.6-2.071,3.172-3.201,4.694c-0.412,0.432-0.686,0.981-1.147,1.409
	c-0.514-0.469-0.985-0.927-1.48-1.36c-1.182-1.035-2.345-2.093-3.492-3.167c-0.776-0.726-1.516-1.49-2.261-2.248
	c-0.287-0.292-0.602-0.525-0.976-0.695c-1.732-0.786-3.474-1.554-5.185-2.384c-1.3-0.631-2.54-1.376-3.69-2.259
	c-0.492-0.378-0.999-0.741-1.457-1.157c-0.391-0.354-0.736-0.763-1.077-1.168c-0.423-0.503-0.825-1.023-1.228-1.542
	c-0.564-0.727-0.972-1.54-1.349-2.378c-0.361-0.804-0.692-1.615-0.884-2.474c-0.183-0.817-0.293-1.648-0.421-2.475
	c-0.076-0.492-0.093-0.981-0.093-1.474c-0.002-1.499,0.354-2.927,0.867-4.323c0.588-1.601,1.544-2.97,2.638-4.263
	c0.976-1.154,2.047-2.19,3.333-2.99c0.748-0.465,1.559-0.799,2.376-1.127c1.358-0.545,2.727-1.047,4.159-1.358
	c1.086-0.236,2.182-0.411,3.29-0.519c0.962-0.094,1.924-0.172,2.888-0.238c0.564-0.039,1.123-0.102,1.688-0.07
	c-0.332,0.152-0.684,0.058-1.025,0.074c-0.231,0.011-0.328,0.087-0.321,0.324c0.045,1.441-0.045,2.885,0.082,4.326
	c0.034,0.381,0.029,0.491,0.48,0.437c0.071-0.008,0.145,0.008,0.217,0.013c-0.143,0.351-0.459,0.22-0.708,0.237
	c-2.782,0.192-5.536,0.564-8.25,1.219c-1.773,0.428-3.139,1.491-4.274,2.844c-1.385,1.652-2.188,3.552-2.375,5.739
	c-0.244,2.86,0.662,5.246,2.637,7.284c2.106,2.172,4.636,3.677,7.408,4.823c0.795,0.329,1.615,0.622,2.359,1.049
	c0.95,0.544,1.933,0.286,2.899,0.241c1.443-0.067,2.882-0.231,4.326-0.278c0.481-0.016,0.725-0.131,0.681-0.652
	c-0.014-0.16-0.03-0.387,0.236-0.42c0,0.292,0.02,0.586-0.007,0.875c-0.024,0.255,0.042,0.377,0.294,0.492
	c0.691,0.313,0.932,0.905,0.726,1.565c-0.118,0.379-0.394,0.58-0.736,0.665c-0.344,0.086-0.526,0.269-0.583,0.604
	c-0.117-0.089-0.075-0.407-0.383-0.229c-0.143,0.083-0.346,0.062-0.528,0.103C50.413,103.757,50.773,103.771,51.019,104.016z"/>
<path fill="#030404" d="M49.696,136.328c0.675-0.071,1.351-0.02,2.027-0.013c1.848,0.02,3.694-0.071,5.539-0.172
	c0.329-0.018,0.659-0.026,0.988-0.018c1.007,0.024,2.006-0.125,3.012-0.13c1.023-0.001,2.048,0.04,3.069-0.012
	c1.896-0.097,3.604,0.461,5.215,1.392c1.792,1.035,3.236,2.426,4.261,4.237c0.331,0.586,0.701,1.151,0.954,1.779
	c0.059,0.574-0.369,0.595-0.74,0.601c-1.336,0.024-2.674,0.037-4.01-0.002c-4.246-0.125-8.494-0.167-12.738-0.064
	c-2.27,0.055-4.539,0.035-6.807,0.078c-0.219,0.004-0.44,0.007-0.658-0.026c-0.247-0.038-0.402-0.15-0.38-0.433
	c0.029-0.382-0.044-0.767,0.042-1.147c0.044-1.514,0.092-3.028,0.128-4.543C49.608,137.344,49.613,136.834,49.696,136.328z"/>
<path fill="#030404" d="M45.646,125.144c-0.004,1.08-0.029,2.16-0.009,3.24c0.034,1.829,0.134,3.656,0.127,5.486
	c-0.001,0.198,0.061,0.396,0.094,0.594c-0.006,1.26-0.038,2.521-0.012,3.781c0.029,1.389-0.331,2.67-0.957,3.889
	c-0.968,1.886-2.357,3.37-4.232,4.382c-0.321,0.173-0.636,0.358-0.957,0.53c-0.227,0.121-0.461,0.225-0.73,0.173
	c-0.311-0.196-0.353-0.52-0.324-0.827c0.194-2.064-0.008-4.138,0.182-6.201c0.027-0.293,0.026-0.586,0.026-0.879
	c0-4.379,0-8.758,0-13.137c0-0.092,0-0.183,0-0.275c0.004-1.095,0.034-1.122,1.169-1.009c1.585,0.053,3.17,0.109,4.755,0.159
	C45.07,125.061,45.362,125.06,45.646,125.144z"/>
<path fill="#F8F8F8" d="M49.468,142.398c-0.006,0.402-0.008,0.804-0.02,1.205c-0.005,0.186,0.06,0.251,0.256,0.249
	c2.213-0.023,4.429,0.022,6.64-0.069c3.126-0.129,6.252-0.057,9.377-0.056c2.154,0,4.308,0.093,6.463,0.1
	c0.676,0.002,1.353,0.015,2.029,0.005c0.414-0.006,0.44-0.043,0.548-0.44c0.119,0.065,0.121,0.165,0.091,0.281
	c-0.116,0.449-0.116,0.895,0.006,1.346c0.037,0.137,0.027,0.29,0.027,0.435c0,0.967-0.004,1.934-0.007,2.901
	c-0.132,0.116-0.294,0.155-0.46,0.148c-0.954-0.042-1.898,0.123-2.85,0.122c-3.662-0.006-7.324-0.054-10.984,0.018
	c-2.617,0.051-5.232,0.087-7.849,0.091c-0.988,0.001-1.975-0.044-2.96-0.116c-0.185-0.013-0.365-0.035-0.511-0.168
	c0.046-1.288,0.107-2.576,0.134-3.865c0.012-0.559-0.103-1.112-0.028-1.668C49.392,142.742,49.317,142.549,49.468,142.398z"/>
<path fill="#F8F8F8" d="M40.022,124.892c-0.091,0.006-0.183,0.006-0.273,0.018c-0.229,0.03-0.516-0.133-0.674,0.052
	c-0.149,0.174-0.038,0.457-0.037,0.691c0.008,3.437,0.027,6.874,0.031,10.311c0.001,1.352,0.014,2.707-0.056,4.056
	c-0.085,1.624-0.079,3.247-0.123,4.87c-0.014,0.527-0.044,1.055-0.059,1.583c-0.008,0.263,0.042,0.507,0.138,0.746
	c-0.036,0.003-0.073,0.01-0.109,0.009c-1.114-0.034-2.223,0.062-3.334,0.115c-0.2,0.01-0.402-0.009-0.603-0.014
	c-0.238-0.249-0.24-0.567-0.241-0.877c-0.009-5.675-0.033-11.351,0.018-17.026c0.01-1.149,0.077-2.303,0.088-3.455
	c0.004-0.369-0.026-0.73-0.153-1.079c0.064-0.029,0.136-0.093,0.192-0.082c0.974,0.2,1.96,0.052,2.938,0.101
	c0.547,0.028,1.085-0.056,1.626-0.105C39.598,124.789,39.83,124.732,40.022,124.892z"/>
<path fill="#F8AF12" d="M121.726,92.475c0.561,0.37,1.229,0.437,1.847,0.643c1.036,0.345,2.089,0.639,3.134,0.959
	c0.118,0.036,0.258,0.046,0.322,0.183c-0.692,2.474-1.384,4.948-2.074,7.423c-0.284,1.019-0.561,2.04-0.851,3.057
	c-0.067,0.235-0.06,0.468-0.06,0.705c-0.404,0.085-0.734-0.156-1.093-0.258c-1.311-0.373-2.607-0.793-3.919-1.164
	c-0.172-0.049-0.36-0.073-0.485-0.227c0.537-1.344,0.843-2.757,1.25-4.14c0.422-1.436,0.861-2.868,1.211-4.325
	c0.196-0.816,0.413-1.626,0.666-2.425C121.718,92.763,121.737,92.622,121.726,92.475z"/>
<path fill="#FCDFC8" d="M106.021,72.554c0.184,0.799,0.293,1.613,0.491,2.411c0.251,1.014,0.585,1.999,0.91,2.988
	c-0.085-0.033-0.17-0.096-0.254-0.094c-0.892,0.021-1.786-0.092-2.676,0.062c-0.178,0.031-0.369,0.049-0.545,0.021
	c-0.889-0.142-1.775,0.039-2.663,0.014c-0.876-0.025-1.753-0.004-2.63,0.002c-0.673,0.005-1.348-0.036-2.015,0.091
	c0.078-1.367,0.037-2.733-0.023-4.098c-0.018-0.418-0.064-0.835-0.097-1.253c2.212-0.006,4.424-0.012,6.636-0.017
	c0.786-0.002,1.572,0.002,2.358-0.001C105.689,72.677,105.884,72.728,106.021,72.554z"/>
<path fill="#E69F06" d="M118.546,103.796c0.378-0.043,0.709,0.142,1.052,0.239c1.322,0.376,2.634,0.788,3.947,1.193
	c0.172,0.053,0.332,0.143,0.498,0.216c0.237,0.577,0.255,1.203,0.394,1.802c0.311,1.342,0.679,2.671,0.902,4.033
	c0.017,0.106,0.014,0.216,0.02,0.324c-2.356-0.632-4.716-1.251-7.067-1.901c-1.194-0.33-2.372-0.718-3.558-1.076
	c-0.136-0.041-0.22-0.121-0.278-0.242c0.412-0.623,0.92-1.167,1.416-1.722C116.743,105.689,117.611,104.712,118.546,103.796z"/>
<path fill="#141414" d="M49.262,148.45c3.088,0.086,6.176,0.102,9.265,0.065c5.158-0.062,10.316-0.097,15.474-0.144
	c0.292-0.003,0.584-0.01,0.875-0.015c0.016,1.008,0.016,1.006-0.964,0.982c-0.677-0.017-1.354-0.036-2.031-0.035
	c-3.223,0.007-6.447-0.024-9.669,0.046c-3.095,0.067-6.189,0.065-9.284,0.095c-1.007,0.01-2.014-0.016-3.02-0.029
	c-0.146-0.002-0.292-0.029-0.438-0.029c-0.197,0-0.252-0.106-0.242-0.279C49.241,148.888,49.251,148.669,49.262,148.45z"/>
<path fill="#141414" d="M34.634,124.893c0.272-0.027,0.365,0.062,0.358,0.366c-0.051,2.341-0.13,4.681-0.122,7.024
	c0.015,4.487,0.004,8.973,0.005,13.46c0,0.529-0.018,1.06,0.047,1.587c-0.129,0.116-0.28,0.163-0.452,0.159
	c-0.317-0.006-0.436-0.098-0.438-0.421c-0.003-0.548,0.026-1.096,0.036-1.644c0.101-5.781-0.01-11.562,0.023-17.343
	c0.005-0.914,0.039-1.827,0.067-2.741C34.17,124.939,34.179,124.939,34.634,124.893z"/>
<path fill="#A29A92" d="M134.324,94.233c0.279-0.159,0.584-0.124,0.885-0.116C134.93,94.281,134.625,94.245,134.324,94.233z"/>
<path fill="#CD4617" d="M68.745,78.043c-0.439,1.129-1.084,2.148-1.69,3.189c-0.432,0.741-0.839,1.496-1.256,2.246
	c-0.204,0.367-0.397,0.74-0.605,1.104c-0.268,0.47-0.286,0.485-0.719,0.138c-1.025-0.819-2.058-1.627-3.018-2.527
	c-0.985-0.923-2.036-1.778-2.955-2.769c-0.966-1.042-1.914-2.101-2.816-3.202c-0.775-0.946-1.569-1.873-2.22-2.912
	c-0.147-0.234-0.349-0.446-0.352-0.749c1.363,0.85,2.77,1.621,4.181,2.386c2.731,1.481,5.653,2.326,8.73,2.682
	c0.709,0.082,1.422,0.084,2.129,0.163C68.358,77.814,68.655,77.716,68.745,78.043z"/>
<path fill="#CD4617" d="M88.513,72.7c-0.395,0.894-1.015,1.641-1.604,2.405c-0.914,1.185-1.882,2.329-2.901,3.422
	c-1.021,1.096-2.055,2.187-3.211,3.151c-0.49,0.409-0.936,0.871-1.419,1.29c-0.852,0.74-1.7,1.486-2.698,2.096
	c-0.289-0.621-0.588-1.207-0.838-1.813c-0.237-0.577-0.525-1.128-0.801-1.685c-0.481-0.969-0.845-1.983-1.179-3.009
	c-0.165-0.505-0.153-0.51,0.384-0.627c0.032-0.007,0.059-0.04,0.088-0.061c1.67-0.189,3.332-0.406,4.955-0.877
	c2.061-0.597,4.059-1.332,5.919-2.417c0.868-0.506,1.748-0.992,2.622-1.486c0.149-0.019,0.275-0.073,0.348-0.215
	C88.272,72.779,88.35,72.657,88.513,72.7z"/>
<path fill="#422719" d="M75.572,57.437c1.205,0.126,2.379,0.286,3.558,0.364c2.712,0.18,5.409,0.105,8.048-0.65
	c0.298-0.085,0.588-0.196,0.881-0.298c0.107-0.037,0.219-0.07,0.308,0.018c0.077,0.076,0.017,0.167-0.011,0.251
	c-0.426,1.274-0.985,2.487-1.757,3.585c-1.031,1.466-2.469,2.333-4.23,2.59c-1.009,0.147-2.004-0.045-2.912-0.557
	c-1.255-0.708-2.284-1.636-2.906-2.966c-0.317-0.678-0.713-1.319-0.94-2.038C75.583,57.65,75.532,57.57,75.572,57.437z"/>
<path fill="#422719" d="M74.904,46.096c0.011,0.87-0.147,1.711-0.442,2.526c-0.504,1.391-1.861,1.793-3.042,0.894
	c-0.719-0.547-1.131-1.282-1.247-2.178c-0.143-1.097-0.125-2.193,0.108-3.274c0.173-0.801,0.594-1.452,1.32-1.87
	c0.71-0.409,1.472-0.309,2.059,0.261c0.487,0.472,0.756,1.073,0.969,1.699C74.84,44.781,74.918,45.435,74.904,46.096z"/>
<path fill="#422719" d="M86.584,45.356c0.022-0.673-0.003-1.353,0.179-2.012c0.139-0.504,0.383-0.946,0.764-1.308
	c0.843-0.803,1.952-0.728,2.68,0.185c0.443,0.556,0.691,1.202,0.829,1.89c0.23,1.151,0.113,2.296-0.127,3.429
	c-0.097,0.457-0.363,0.832-0.702,1.155c-0.75,0.715-1.689,0.74-2.46,0.054c-0.751-0.668-1.124-1.517-1.162-2.516
	C86.575,45.941,86.584,45.648,86.584,45.356z"/>
<path fill="#DD6737" d="M88.18,72.874c-0.05,0.306-0.071,0.319-0.348,0.215C87.922,72.975,88.04,72.907,88.18,72.874z"/>
<path fill="#FFFDFC" d="M51.019,104.016c-0.427-0.023-0.786-0.211-1.201-0.473c0.315-0.108,0.567-0.145,0.822-0.196
	c0.339-0.068,0.393,0.099,0.396,0.36C51.03,103.81,51.025,103.913,51.019,104.016z"/>
<path fill="#E69F06" d="M156.849,67.331c-0.197-3.456-1.132-6.714-2.618-9.812c-1.593-3.322-3.874-6.133-6.743-8.436
	c-5.095-4.09-10.925-5.984-17.46-5.703c-2.306,0.099-4.546,0.549-6.726,1.273c-4.766,1.584-8.741,4.341-11.878,8.263
	c-3.753,4.692-5.571,10.08-5.64,16.075c-0.014,1.195,0.131,2.377,0.236,3.562c-0.033,0.307-0.04,0.609,0.019,0.92
	c0.223,1.189,0.524,2.358,0.892,3.51c0.112,0.352,0.256,0.682,0.49,0.969c0.04,0.082,0.086,0.162,0.119,0.246
	c1.493,3.79,3.75,7.048,6.778,9.775c1.862,1.677,3.937,3.025,6.197,4.096c0.098,0.046,0.213,0.136,0.299,0.116
	c0.371-0.088,0.622,0.152,0.912,0.289c0.131,0.238,0.34,0.36,0.597,0.432c0.717,0.202,1.423,0.439,2.141,0.636
	c0.856,0.235,1.683,0.572,2.564,0.716c0.193-0.129,0.394-0.125,0.622-0.092c2.221,0.317,4.446,0.35,6.673,0.065
	c0.281-0.142,0.602,0.018,0.885-0.116c1.842-0.249,3.63-0.731,5.353-1.409c5.836-2.295,10.296-6.193,13.277-11.71
	C156.138,76.745,157.125,72.174,156.849,67.331z M150.97,69.689c-0.063,1.936-0.435,3.809-1.019,5.635
	c-0.439,1.37-1.06,2.673-1.82,3.91c-1.12,1.824-2.441,3.468-4.077,4.851c-1.387,1.172-2.885,2.162-4.54,2.935
	c-2.008,0.938-4.106,1.522-6.29,1.817c-1.274,0.172-2.553,0.144-3.836,0.052c-1.671-0.12-3.294-0.47-4.881-0.975
	c-1.812-0.576-3.417-1.557-4.967-2.641c-1.13-0.79-2.161-1.688-3.102-2.693c-0.5-0.534-0.951-1.109-1.402-1.684
	c-0.136-0.206,0.04-0.29,0.167-0.303c1.055-0.101,2.113-0.126,3.158,0.076c0.226,0.044,0.379,0.28,0.545,0.45
	c0.627,0.644,1.299,1.241,2.022,1.774c1.066,0.785,2.214,1.277,3.593,1.32c1.189,0.037,2.378,0.046,3.567,0.074
	c0.896,0.021,1.79,0.196,2.686,0.104c2.223-0.227,4.471,0.072,6.686-0.317c0.198-0.035,0.398-0.058,0.595-0.105
	c1.601-0.38,2.304-1.535,1.872-3.123c-0.122-0.45-0.104-0.785,0.303-1.108c0.91-0.722,1.191-1.673,0.875-2.797
	c-0.23-0.818-0.226-0.833,0.483-1.287c0.441-0.283,0.738-0.685,0.824-1.186c0.131-0.763,0.141-1.527-0.232-2.254
	c-0.351-0.683-0.313-0.72,0.194-1.291c0.784-0.884,1.293-1.871,0.997-3.105c-0.32-1.333-1.415-2.232-2.832-2.24
	c-2.142-0.011-4.281-0.198-6.424-0.12c-0.091,0.003-0.183,0.001-0.275-0.001c-0.781-0.016-0.899-0.156-0.601-0.885
	c0.674-1.65,1.055-3.361,0.975-5.139c-0.06-1.331-0.167-2.666-0.606-3.949c-0.393-1.149-1.631-1.89-2.741-1.994
	c-0.792-0.074-1.749,0.566-2.074,1.299c-0.364,0.82-0.445,1.7-0.511,2.574c-0.208,2.744-1.462,4.912-3.464,6.758
	c-1.505,1.388-3.297,2.378-4.83,3.714c-0.647,0.564-1.333,1.093-1.884,1.76c-0.327,0.396-0.78,0.508-1.238,0.469
	c-1.774-0.153-3.55-0.069-5.325-0.101c-0.167-0.003-0.33-0.023-0.455-0.154c-0.084-0.548-0.021-1.098,0.008-1.643
	c0.092-1.737,0.305-3.462,0.859-5.118c0.604-1.804,1.378-3.53,2.441-5.124c1.105-1.658,2.414-3.123,3.953-4.38
	c2.24-1.83,4.753-3.13,7.56-3.867c2.088-0.548,4.202-0.799,6.353-0.64c1.512,0.112,3.016,0.333,4.465,0.799
	c1.846,0.594,3.611,1.355,5.246,2.428c2.063,1.353,3.815,3.017,5.246,5.011c1.253,1.747,2.22,3.65,2.859,5.712
	C150.748,65.171,151.044,67.398,150.97,69.689z"/>
<path fill="#FCDFC8" d="M111.083,69.81c1.429,0.004,2.858,0.023,4.287,0.003c0.48-0.007,0.94,0.132,1.418,0.112
	c0.259-0.011,0.506-0.057,0.757-0.102c0.178-0.032,0.301-0.119,0.401-0.259c0.528-0.738,1.283-1.241,1.939-1.845
	c1.133-1.043,2.523-1.744,3.698-2.732c1.446-1.216,2.874-2.466,3.656-4.236c0.477-1.079,0.856-2.199,0.893-3.419
	c0.028-0.904,0.167-1.808,0.53-2.665c0.407-0.961,1.83-1.588,2.804-1.223c0.623,0.233,1.196,0.504,1.681,0.988
	c0.543,0.542,0.752,1.23,0.873,1.917c0.211,1.199,0.429,2.415,0.348,3.639c-0.08,1.213-0.101,2.444-0.631,3.587
	c-0.199,0.429-0.319,0.894-0.478,1.342c-0.115,0.323-0.085,0.384,0.27,0.386c1.044,0.007,2.089-0.007,3.133,0.004
	c1.352,0.014,2.706,0.066,4.054,0.134c2.397,0.12,3.484,2.571,2.606,4.312c-0.264,0.523-0.519,1.037-0.989,1.427
	c-0.352,0.292-0.353,0.393-0.109,0.777c0.487,0.765,0.493,1.611,0.372,2.444c-0.094,0.648-0.455,1.182-1.096,1.484
	c-0.472,0.222-0.508,0.336-0.314,0.815c0.418,1.036,0.191,1.968-0.454,2.824c-0.139,0.184-0.335,0.354-0.541,0.451
	c-0.278,0.129-0.258,0.31-0.199,0.535c0.097,0.369,0.235,0.723,0.228,1.121c-0.014,0.754-0.267,1.386-0.81,1.911
	c-0.231,0.224-0.497,0.373-0.802,0.453c-0.707,0.184-1.429,0.261-2.153,0.356c-1.079,0.141-2.155,0.083-3.232,0.086
	c-1.152,0.003-2.299,0.205-3.45,0.103c-1.479-0.131-2.964-0.023-4.44-0.123c-0.652-0.044-1.318,0.002-1.96-0.151
	c-1.221-0.291-2.235-0.96-3.185-1.754c-0.605-0.506-1.167-1.054-1.72-1.613c-0.138-0.139-0.291-0.197-0.487-0.204
	c-0.767-0.025-1.534,0.036-2.303-0.043c-0.18-0.019-0.536-0.108-0.642,0.244c-1.011-1.322-1.797-2.771-2.434-4.304
	c-0.802-1.931-1.3-3.936-1.453-6.023C111.129,70.316,111.046,70.068,111.083,69.81z"/>
</svg>
