<?xml version="1.0" encoding="utf-8"?>
<!-- Generator: Adobe Illustrator 17.0.0, SVG Export Plug-In . SVG Version: 6.00 Build 0)  -->
<!DOCTYPE svg PUBLIC "-//W3C//DTD SVG 1.1//EN" "http://www.w3.org/Graphics/SVG/1.1/DTD/svg11.dtd">
<svg version="1.1" id="Livello_1" xmlns="http://www.w3.org/2000/svg" xmlns:xlink="http://www.w3.org/1999/xlink" x="0px" y="0px"
	 width="111.681px" height="177.016px" viewBox="22.32 1.469 111.681 177.016" enable-background="new 22.32 1.469 111.681 177.016"
	 xml:space="preserve">
<g>
	<path fill="#EC6D3C" d="M120.042,98.069c-2.742,2.362-5.801,4.254-8.958,5.991c-0.701,0.386-0.825,0.841-0.738,1.556
		c0.225,1.85,0.683,3.654,1.018,5.482c1.026,5.605,2.035,11.214,3.141,16.803c0.683,3.45,1.283,6.912,1.83,10.384
		c0.082,0.519,0.156,1.041,0.094,1.569c-0.485,0.334-1.035,0.448-1.611,0.47c-0.203,0.008-0.405,0.019-0.608,0.017
		c-10.621-0.136-21.241,0.561-31.855,0.186c-4.979-0.176-9.972,0.115-14.938-0.433c-0.441-0.049-0.901-0.021-1.241-0.387
		c-0.088-1.091,0.048-2.176,0.16-3.253c0.595-5.703,1.251-11.4,1.843-17.104c0.304-2.932,0.513-5.873,0.775-8.81
		c0.064-0.725,0.138-1.451,0.256-2.168c0.099-0.603-0.046-0.958-0.668-1.193c-3.007-1.134-5.671-2.917-8.411-4.552
		c-0.31-0.185-0.584-0.43-0.874-0.648c-0.263-0.357-0.11-0.705,0.082-1.002c1.023-1.583,1.932-3.236,2.991-4.795
		c0.137-0.202,0.303-0.375,0.565-0.411c0.39,0,0.692,0.218,0.99,0.425c2.957,2.055,6.189,3.529,9.622,4.587
		c0.463,0.143,0.938,0.271,1.332,0.577c1.823,2.629,3.415,5.403,5.037,8.157c0.65,1.103,0.797,1.118,1.532,0.059
		c1.063-1.53,2.01-3.136,3.054-4.678c0.41-0.606,0.749-1.109-0.297-1.382c-0.162-0.042-0.176-0.246-0.059-0.403
		c1.356-0.372,1.63-0.264,2.188,0.916c0.723,1.53,1.284,3.133,2.074,4.633c0.182,0.346,0.264,0.768,0.777,1.06
		c0.583-1.561,0.912-3.17,1.489-4.692c0.153-0.403,0.144-0.892,0.581-1.153c0.591,0.041,0.759,0.562,1.01,0.947
		c1.15,1.764,2.425,3.441,3.569,5.208c0.342,0.528,0.673,0.841,1.139,0.088c2.04-3.303,4.358-6.432,6.2-9.861
		c0.173-0.323,0.329-0.648,0.431-1c1.073-1.28,2.642-1.875,3.937-2.849c1.6-1.02,3.123-2.141,4.514-3.435
		c0.353-0.329,0.667-0.705,1.119-0.912c0.355-0.141,0.72-0.265,1.02-0.518c0.514-0.316,0.898-0.912,1.629-0.768
		c1.224,2.128,2.645,4.128,3.981,6.184C119.978,97.291,120.253,97.624,120.042,98.069z"/>
	<path fill="#F8B124" d="M48.294,29.238c-1.665-0.427-3.394-0.537-5.045-1.033c-0.354-0.403-0.358-0.879-0.247-1.359
		c1.807-7.815,2.801-15.794,4.785-23.572c0.148-0.582,0.218-1.217,0.786-1.588c0.217-0.142,0.464-0.099,0.698-0.003
		c9.957,1.965,19.917,3.921,29.872,5.898c9.478,1.882,18.951,3.787,28.426,5.682c0.674,0.135,1.348,0.27,2.022,0.405
		c0.421,0.424,0.215,0.919,0.128,1.379c-1.523,8.004-3.314,15.954-4.866,23.952c-0.078,0.404-0.177,0.795-0.55,1.043
		c-1.532,0.269-2.966-0.311-4.415-0.592c-9.91-1.926-19.814-3.886-29.741-5.721c-0.517-0.096-1.041-0.177-1.518-0.417
		c-0.626-0.57-0.27-1.107,0.098-1.599c0.38-0.508,0.917-0.637,1.523-0.434c0.434,0.145,0.771,0.438,1.113,0.726
		c0.429,0.361,0.908,0.658,1.389,0.152c0.456-0.48,0.19-0.976-0.134-1.428c-1.612-2.249-4.979-1.886-6.167,0.665
		c-0.203,0.436-0.242,0.951-0.631,1.298c-0.529,0.135-1.04-0.008-1.556-0.095c-4.754-0.917-9.474-2.003-14.249-2.811
		C49.408,29.682,48.871,29.408,48.294,29.238z"/>
	<path fill="#72ADD8" d="M66.177,139.708c4.206,0.159,8.417,0.148,12.621,0.29c6.32,0.214,12.638,0.194,18.953,0.086
		c5.79-0.099,11.579-0.207,17.37-0.21c0.437,0,0.871-0.263,1.309-0.019c0.396,1.488,0.451,3.029,0.699,4.541
		c0.66,4.022,1.015,8.087,1.66,12.115c0.466,2.907,0.791,5.838,1.255,8.748c0.076,0.477,0.05,0.97,0.071,1.455
		c-0.534,0.522-1.241,0.568-1.907,0.587c-2.162,0.061-4.324,0.066-6.481,0.274c-0.544,0.053-1.133,0.081-1.6-0.339
		c-0.371-1.408-0.678-2.845-0.901-4.267c-0.387-2.463-1.519-4.506-2.942-6.447c-3.015-4.111-7.22-6.303-12.104-7.261
		c-3.306-0.648-6.479-0.166-9.559,1.339c-3.102,1.515-5.706,3.516-7.573,6.435c-0.174,0.273-0.393,0.535-0.493,0.834
		c-0.833,2.492-1.794,4.953-1.988,7.613c-0.338,0.584,0.163,1.315-0.329,1.873c-0.689,0.343-1.44,0.301-2.146,0.2
		c-1.855-0.265-3.715-0.165-5.573-0.224c-0.839-0.026-1.712-0.005-2.409-0.619c0.094-2.621,0.126-5.247,0.299-7.863
		c0.244-3.701,0.658-7.391,0.869-11.093c0.124-2.181,0.53-4.332,0.572-6.517C65.859,140.705,65.966,140.196,66.177,139.708z"/>
	<path fill="#FCDFC9" d="M48.294,29.238c2.376,0.181,4.69,0.732,7.019,1.191c2.844,0.561,5.686,1.134,8.528,1.708
		c0.191,0.039,0.371,0.137,0.556,0.207c-1.451,0.759-2.282,2.269-3.723,3.054c-0.677,0.369-1.316,0.896-2.08,0.956
		c-1.888,0.148-2.949,1.445-3.909,2.779c-3.18,4.419-5.592,9.258-6.642,14.6c-1.213,6.172-1.962,12.432-0.144,18.645
		c2.03,6.935,4.688,13.537,10.011,18.748c1.333,1.305,2.586,2.661,4.175,3.667c0.381,0.242,0.886,0.476,0.813,1.094
		c-1.185,1.874-2.373,3.746-3.549,5.626c-0.078,0.125-0.062,0.309-0.09,0.466c-1.275-1.176-2.73-2.127-4.021-3.293
		c-1.924-1.738-3.823-3.488-5.392-5.561c-2.227-2.942-4.096-6.097-5.716-9.413c-1.444-2.956-2.475-6.048-3.386-9.197
		c-0.714-2.466-1.074-4.964-0.965-7.524c0.027-0.623-0.332-1.196-0.223-1.794c0.227-1.241,0.132-2.499,0.265-3.739
		c0.258-2.4,0.592-4.79,1.152-7.146c0.946-3.973,2.061-7.873,3.998-11.512c0.814-1.53,1.458-3.157,2.375-4.637
		c0.849-1.371,1.635-2.787,2.691-4.021c0.375-0.438,0.464-0.828,0.071-1.39c-0.528-0.756-0.933-1.61-1.188-2.515
		C48.808,29.841,48.635,29.488,48.294,29.238z"/>
	<path fill="#FCDFC9" d="M120.042,98.069c-0.505-1.153-1.337-2.098-2.004-3.148c-0.838-1.321-1.835-2.549-2.349-4.057
		c-0.192-0.764,0.426-1.127,0.858-1.461c2.986-2.305,4.719-5.516,6.411-8.752c1.611-3.081,2.096-6.461,2.373-9.865
		c0.129-1.577,0.49-3.121,0.521-4.71c0.106-5.531-1.581-10.623-3.778-15.589c-0.639-1.444-1.235-2.91-2.059-4.27
		c-0.402-0.664-0.898-1.106-1.66-1.304c-1.307-0.338-2.479-0.994-3.645-1.656c-0.508-0.288-0.954-0.624-1.025-1.265
		c0.11-0.334,0.413-0.344,0.685-0.402c3.219-0.693,5.924-2.348,8.291-4.564c1.8-1.685,3.543-3.436,5-5.443
		c0.163-0.225,0.33-0.472,0.667-0.455c-0.041,0.926,0.086,1.83,0.208,2.749c0.296,2.238-0.201,4.359-1.486,6.227
		c-0.365,0.53-0.378,0.893-0.085,1.412c1.572,2.782,3.073,5.613,4.144,8.622c0.905,2.543,1.534,5.18,2.137,7.821
		c0.894,3.918,0.809,7.884,0.665,11.835c-0.123,3.381-0.725,6.712-1.792,9.962c-0.604,1.839-1.041,3.739-1.805,5.525
		c-1.28,2.99-2.765,5.851-5.174,8.135C123.469,95,121.953,96.75,120.042,98.069z"/>
	<path fill="#EC788F" d="M128.327,31.129c-3.017,4.049-6.359,7.731-11.078,9.871c-1.11,0.503-2.234,0.932-3.479,0.91
		c-1.152,0.356-2.203,0.026-3.231-0.469c-0.297-0.464-0.115-0.937-0.028-1.41c1.398-7.6,3.018-15.156,4.486-22.742
		c0.158-0.816,0.125-1.708,0.732-2.394c1.535,0.109,3.026,0.493,4.534,0.763c2.385,0.426,4.757,0.932,7.133,1.407
		c0.396,0.079,0.797,0.15,1.182,0.267c1.392,0.423,2.104,1.656,1.865,3.109c-0.544,3.308-1.267,6.579-1.995,9.85
		C128.387,30.565,128.367,30.849,128.327,31.129z"/>
	<path fill="#FFEDC8" d="M49.271,1.683c-0.644-0.099-0.839,0.307-0.957,0.829c-0.4,1.776-0.855,3.54-1.209,5.325
		c-1.157,5.834-2.291,11.673-3.401,17.517c-0.179,0.943-0.655,1.846-0.454,2.851c-2.553-2.002-5.121-3.985-7.65-6.017
		c-0.749-0.602-1.449-1.271-2.168-1.911c-0.688-0.613-1.362-1.231-2.131-1.74c0.871-3.996,1.798-7.98,2.648-11.981
		c2.04-0.715,4.082-1.424,6.12-2.147c2.196-0.779,4.385-1.576,6.583-2.351c0.567-0.2,1.155-0.337,1.73-0.513
		C48.705,1.446,49.011,1.4,49.271,1.683z"/>
	<path fill="#DBDCDC" d="M115.728,14.894c-0.22,2.046-0.651,4.058-1.079,6.065c-1.278,5.987-2.435,11.997-3.54,18.018
		c-0.145,0.788-0.517,1.532-0.456,2.359c-0.35,0.455-0.863,0.389-1.338,0.396c-1.483,0.022-2.882-0.401-4.263-0.874
		c-0.413-0.141-0.85-0.343-0.78-0.928c0.479-2.335,0.961-4.669,1.438-7.005c1.271-6.219,2.541-12.438,3.808-18.657
		c0.04-0.197,0.049-0.4,0.072-0.6c0.852-0.517,1.726-0.23,2.569-0.015C113.381,13.964,114.731,13.932,115.728,14.894z"/>
	<path fill="#020202" d="M64.109,166.711c1.405,0.211,2.823,0.23,4.239,0.26c1.985,0.043,3.965,0.16,5.941,0.336
		c0.36,1.877,0.078,3.772,0.148,5.657c0.015,0.404-0.308,0.532-0.635,0.618c-0.316,0.084-0.641,0.094-0.965,0.089
		c-6.192-0.086-12.38,0.114-18.57,0.236c-0.735,0.014-1.737,0.305-2.103-0.498c-0.33-0.723,0.376-1.413,0.791-2.05
		c0.497-0.63,0.959-1.291,1.497-1.883c1.906-2.1,4.413-2.721,7.116-2.772C62.414,166.689,63.262,166.789,64.109,166.711z"/>
	<path fill="#020202" d="M110.127,167.235c3.326-0.244,6.669-0.161,9.989-0.522c0.884,0.077,1.768-0.023,2.65-0.007
		c2.69,0.049,5.185,0.667,7.09,2.75c0.484,0.529,0.911,1.112,1.364,1.67c0.313,0.277,0.457,0.661,0.636,1.02
		c0.756,1.513,0.619,1.772-1.136,1.759c-6.499-0.047-12.996-0.357-19.497-0.243c-0.482,0.008-0.981-0.001-1.332-0.43
		c0.01-0.983,0.021-1.966,0.031-2.949c0.238-1.013-0.145-2.07,0.219-3.074L110.127,167.235z"/>
	<path fill="#F8F8F8" d="M52.956,171.36c-0.169,0.702-0.713,1.264-0.791,2.066c0.286,0.208,0.615,0.132,0.913,0.128
		c2.63-0.029,5.258-0.113,7.887-0.19c3.032-0.089,6.068-0.027,9.102-0.028c1.214,0,2.429-0.017,3.641,0.025
		c0.562,0.02,0.689-0.212,0.676-0.712c-0.046-1.781-0.066-3.562-0.095-5.343c0.205-0.592-0.13-1.265,0.277-1.827
		c0.003,3.483,0.007,6.966,0.01,10.45c0,0.284-0.005,0.567,0.002,0.851c0.033,1.378,0.034,1.392-1.284,1.379
		c-2.263-0.021-4.506,0.357-6.776,0.264c-1.13-0.046-2.228-0.379-3.373-0.263c-3.452,0.35-6.918,0.228-10.38,0.242
		c-0.283,0.001-0.568,0.006-0.85-0.015c-0.423-0.032-0.681-0.272-0.694-0.697c-0.065-2.134,0.31-4.176,1.345-6.065
		C52.635,171.504,52.824,171.448,52.956,171.36z"/>
	<path fill="#F8F8F8" d="M109.889,173.231c1.281,0.25,2.581,0.109,3.862,0.087c5.66-0.096,11.313,0.151,16.969,0.23
		c0.473,0.007,0.957,0.098,1.466-0.097c-0.122-0.866-0.688-1.539-0.966-2.326c0.961,0.629,1.188,1.695,1.462,2.674
		c0.29,1.036,0.411,2.126,0.519,3.201c0.04,0.394,0.319,1.035-0.488,1.119c-0.506-0.756-1.303-0.551-1.995-0.545
		c-6.478,0.054-12.955-0.098-18.488-0.018c3.311,0.22,7.569-0.101,11.821,0.032c2.507,0.078,5.012,0.215,7.522,0.212
		c0.403-0.001,0.816,0.014,1.14,0.32c-0.198,0.365-0.55,0.282-0.861,0.283c-2.591,0.004-5.184,0.064-7.772-0.033
		c-0.902-0.034-1.819-0.08-2.727-0.168c-0.793-0.078-1.595-0.021-2.408,0.109c-1.518,0.242-3.083,0.206-4.6,0.044
		c-1.251-0.134-2.492-0.158-3.74-0.192c-0.945-0.026-0.91-0.039-0.99-0.953C109.495,175.863,109.937,174.566,109.889,173.231z"/>
	<path fill="#2F2E2C" d="M33.948,6.556c0.294,0.141,0.226,0.401,0.178,0.626c-0.785,3.652-1.582,7.301-2.362,10.954
		c-0.062,0.291-0.175,0.423-0.465,0.4c-1.984-1.914-4.187-3.572-6.287-5.35c-0.854-0.723-1.697-1.459-2.692-2.315
		C26.329,9.384,30.138,7.97,33.948,6.556z"/>
	<path fill="#72ADD8" d="M110.139,167.208c-0.154,1.02,0.02,2.064-0.219,3.076C109.89,169.25,109.647,168.203,110.139,167.208z"/>
	<path fill="#FCDFC9" d="M91.317,103.911c-0.675,2.11-1.348,4.22-2.032,6.327c-0.029,0.088-0.166,0.141-0.316,0.261
		c-0.965-1.635-1.638-3.364-2.396-5.05c-0.133-0.295-0.234-0.604-0.365-0.9c-0.587-1.33-0.589-1.329-2.134-1.301
		c-0.259,0.248-0.583,0.265-0.905,0.217c-2.346-0.345-4.583-1.133-6.873-1.701c0.058-0.297-0.081-0.393-0.363-0.502
		c-3.027-1.168-5.657-2.979-8.033-5.152c-3.003-2.747-4.302-6.418-5.302-10.213c-0.604-2.29-0.68-4.637-0.525-6.997
		c0.1-1.52,0.064-1.539-1.389-2.058c-1.238-0.443-1.684-1.035-1.75-2.332c-0.067-1.308,0.006-2.591,0.58-3.806
		c0.531-1.125,1.389-1.894,2.634-1.817c1.085,0.067,1.239-0.472,1.456-1.307c1.405-5.404,4.292-9.912,8.416-13.651
		c1.107-0.039,2.166,0.268,3.241,0.449c12.023,2.029,23.973,4.465,35.99,6.53c0.279,0.048,0.555,0.118,0.832,0.175
		c0.975,0.203,1.335,0.777,1.175,1.763c-0.546,3.357-0.832,6.756-1.581,10.08c-0.418,1.856-0.555,3.748-0.937,5.752
		c1.507-0.29,2.776-0.091,3.9,0.789c1.522,1.192,2.088,3.311,1.403,5.404c-0.742,2.268-2.048,3.301-4.224,3.339
		c-2.267,0.039-2.291,0.035-2.672,2.304c-0.275,1.638-0.515,3.281-0.932,4.891c-0.067,0.246-0.161,0.482-0.263,0.715
		c-0.077,0.166-0.16,0.33-0.224,0.502c-1.323,0.881-2.646,1.761-3.969,2.642c-0.232,0.336-0.492,0.643-0.876,0.815
		c-3.281,1.466-6.513,3.074-10.159,3.473C92.238,103.607,91.798,103.837,91.317,103.911z"/>
	<path fill="#3F2417" d="M107.728,96.624c0.017-0.215,0.034-0.43,0.051-0.645c0.014-0.051,0.027-0.103,0.041-0.154
		c0.539-2.492,0.974-5.003,1.319-7.527c0.087-0.637,0.384-0.727,0.892-0.611c0.714,0.163,1.432,0.267,2.166,0.21
		c1.39-0.107,2.446-0.684,3.076-2.001c0.484-1.011,0.75-2.034,0.674-3.16c-0.191-2.829-2.427-4.404-5.158-3.616
		c-0.109,0.031-0.224,0.038-0.338,0.056c-0.186-0.332-0.028-0.644,0.008-0.957c0.387-3.38,1.294-6.675,1.686-10.052
		c0.215-1.85,0.554-3.678,0.812-5.52c0.136-0.975,0.099-1.061-0.944-1.255c-2.623-0.489-5.251-0.955-7.876-1.43
		c-4.736-0.856-9.483-1.654-14.204-2.584c-5.832-1.149-11.692-2.137-17.55-3.136c-0.157-0.027-0.308-0.084-0.462-0.127
		c-0.653,0.248-1.192-0.092-1.717-0.375c-3.71-1.999-6.416-5.037-8.631-8.536c-0.819-1.294-1.533-2.663-2.071-4.12
		c-0.467-1.263-0.566-2.512-0.286-3.814c0.277-1.288,1.53-2.377,2.842-2.445c1.108-0.057,2.307,0.82,2.448,1.791
		c0.153,1.049-0.534,1.718-2.046,1.991c1.396,4.287,4.133,7.173,8.209,7.26c1.59,0.034,3.13-0.378,4.597-1.007
		c0.201-0.056,0.41-0.092,0.328-0.085c0.03-0.014-0.219,0.038-0.478,0.061c-4.915-0.53-9.643-5.667-9.784-10.643
		c-0.016-0.564,0.055-1.129,0.439-1.595c0.188-0.924,0.569-1.734,1.157-2.496c1.14-1.479,2.895-1.422,4.403-0.861
		c0.817,0.304,1.399,0.959,1.854,1.69c0.321,0.517,0.218,1.245-0.153,1.565c-0.482,0.417-1.099,0.411-1.645-0.035
		c-0.25-0.204-0.461-0.457-0.716-0.655c-0.951-0.739-1.783-0.458-2.085,0.705c-0.049,0.188-0.013,0.399-0.016,0.599
		c0.358,0.566,0.374,1.235,0.549,1.855c1.169,4.137,4.446,5.984,8.487,5.769c2.417-0.128,4.808-0.685,7.208-1.023
		c5.257-0.739,10.614-1.311,15.817,0.055c8.515,2.236,15.038,7.07,18.4,15.507c1.785,4.48,3.014,9.148,2.797,13.974
		c-0.363,8.089-2.587,15.639-7.544,22.212c-0.293,0.328-0.706,0.511-1.008,0.829C111.56,93.904,109.703,95.339,107.728,96.624z"/>
	<path fill="#AD4217" d="M91.317,103.911c-0.015-0.467,0.359-0.499,0.66-0.531c4.252-0.447,8.007-2.307,11.782-4.115
		c0.055,0.338-0.062,0.618-0.232,0.912c-1.129,1.957-2.265,3.908-3.533,5.781c-1.041,1.538-2.022,3.118-3.046,4.668
		c-0.471,0.712-0.626,0.718-1.101,0.018C94.328,108.407,92.826,106.157,91.317,103.911z"/>
	<path fill="#AD4217" d="M74.856,101.519c0.456,0.006,0.913,0.012,1.369,0.018c2.28,0.253,4.387,1.253,6.659,1.538
		c0.398,0.05,0.794,0.115,1.19,0.172c0.381,0.387,0.96,0.029,1.352,0.35c0.081,0.231-0.041,0.409-0.147,0.572
		c-1.345,2.066-2.687,4.133-4.052,6.186c-0.498,0.748-0.778,0.767-1.196,0.035c-1.604-2.807-3.258-5.583-5.012-8.299
		C74.916,101.932,74.908,101.711,74.856,101.519z"/>
	<path fill="#B04318" d="M87.396,115.266c0.078-0.976,0.579-1.454,1.438-1.375c0.733,0.068,1.317,0.813,1.278,1.631
		c-0.035,0.713-0.69,1.34-1.332,1.275C87.996,116.717,87.338,115.99,87.396,115.266z"/>
	<path fill="#B04318" d="M88.448,119.487c0.745-0.017,1.396,0.597,1.422,1.34c0.026,0.746-0.583,1.515-1.229,1.552
		c-0.743,0.043-1.411-0.642-1.425-1.462C87.199,119.982,87.609,119.506,88.448,119.487z"/>
	<path fill="#DFC8BA" d="M113.962,91.482c0.086,0.094,0.172,0.188,0.258,0.283c-0.232,0.323-0.567,0.461-0.944,0.523
		C113.423,91.95,113.64,91.672,113.962,91.482z"/>
	<path fill="#1F1C1E" d="M63.156,177.158c3.399,0,6.797,0,10.196-0.001c0.242,0,0.485-0.026,0.727-0.015
		c0.173,0.008,0.292,0.111,0.313,0.298c0.026,0.231-0.065,0.408-0.295,0.438c-0.279,0.037-0.566,0.014-0.848,0.031
		c-4.609,0.274-9.222-0.016-13.833,0.11c-2.063,0.056-4.128,0.068-6.191,0.094c-0.404,0.005-0.809-0.014-1.214-0.031
		c-0.243-0.01-0.529-0.018-0.568-0.324c-0.05-0.384,0.252-0.473,0.549-0.481c0.931-0.024,1.865-0.082,2.792-0.029
		C57.575,177.41,60.366,177.042,63.156,177.158z"/>
	<path fill="#1F1D1E" d="M132.712,178.119c-4.332-0.049-8.666-0.19-12.996-0.115c-2.958,0.051-5.908-0.065-8.862-0.096
		c-0.122-0.001-0.243-0.001-0.365-0.004c-0.293-0.008-0.609-0.017-0.579-0.427c0.031-0.416,0.373-0.351,0.643-0.342
		c3.198,0.104,6.396,0.106,9.595,0.1c3.805-0.008,7.61,0.022,11.415,0.037c0.323,0.001,0.66-0.037,0.967,0.037
		C133.071,177.438,132.977,177.775,132.712,178.119L132.712,178.119z"/>
	<path fill="#402517" d="M68.315,80.719c4.287,2.361,8.848,2.648,13.608,2.036c-0.433,1.847-1.238,3.335-2.663,4.454
		c-1.29,1.013-2.685,1.737-4.364,1.939c-1.286,0.154-2.434-0.097-3.441-0.824c-2.384-1.722-3.383-4.133-3.286-7.033
		C68.174,81.138,68.244,80.988,68.315,80.719z"/>
	<path fill="#3F2417" d="M87.808,70.62c0.024,1.484-0.416,2.692-1.041,3.847c-0.215,0.396-0.503,0.735-0.853,1.02
		c-0.85,0.69-1.857,0.632-2.605-0.175c-0.732-0.79-1.025-1.733-0.889-2.802c0.175-1.377,0.548-2.694,1.168-3.941
		c0.284-0.571,0.7-0.976,1.294-1.218c0.947-0.386,1.753-0.12,2.295,0.741C87.697,68.916,87.837,69.82,87.808,70.62z"/>
	<path fill="#402517" d="M72.864,66.713c-0.077,0.935-0.18,1.942-0.507,2.904c-0.209,0.615-0.492,1.211-1.079,1.566
		c-1.077,0.651-2.26,0.932-3.049-0.821c-0.289-0.641-0.405-1.279-0.306-1.996c0.179-1.289,0.38-2.56,1.072-3.695
		c0.126-0.207,0.246-0.422,0.403-0.604c0.881-1.016,2.098-0.953,2.869,0.137C72.787,64.94,72.827,65.788,72.864,66.713z"/>
	<path fill="#EC6D3C" d="M107.819,95.824c0.009,0.046,0.019,0.092,0.023,0.138c0,0.005-0.042,0.013-0.064,0.017
		c-0.009-0.047-0.02-0.092-0.025-0.138C107.752,95.838,107.796,95.83,107.819,95.824z"/>
</g>
</svg>
