<?xml version="1.0" encoding="utf-8"?>
<!-- Generator: Adobe Illustrator 17.0.0, SVG Export Plug-In . SVG Version: 6.00 Build 0)  -->
<!DOCTYPE svg PUBLIC "-//W3C//DTD SVG 1.1//EN" "http://www.w3.org/Graphics/SVG/1.1/DTD/svg11.dtd">
<svg version="1.1" id="Livello_1" xmlns="http://www.w3.org/2000/svg" xmlns:xlink="http://www.w3.org/1999/xlink" x="0px" y="0px"
	 width="24px" height="24px" viewBox="0 0 24 24" enable-background="new 0 0 24 24" xml:space="preserve">
<path fill="#FFF000" d="M22.5,0H0l24,24V1.5C24,0.672,23.328,0,22.5,0z M22.539,4.694l-5.903,5.933
	c-0.194,0.193-0.447,0.29-0.701,0.29c-0.253,0-0.506-0.097-0.699-0.291L12.29,7.664c-0.387-0.388-0.387-1.016,0-1.403
	c0.386-0.388,1.012-0.388,1.399,0l2.247,2.261l5.204-5.231c0.386-0.388,1.012-0.388,1.399,0S22.926,4.307,22.539,4.694z"/>
</svg>
