<?xml version="1.0" encoding="utf-8"?>
<!-- Generator: Adobe Illustrator 17.0.0, SVG Export Plug-In . SVG Version: 6.00 Build 0)  -->
<!DOCTYPE svg PUBLIC "-//W3C//DTD SVG 1.1//EN" "http://www.w3.org/Graphics/SVG/1.1/DTD/svg11.dtd">
<svg version="1.1" id="Livello_1" xmlns="http://www.w3.org/2000/svg" xmlns:xlink="http://www.w3.org/1999/xlink" x="0px" y="0px"
	 width="20px" height="20px" viewBox="0 0 20 20" enable-background="new 0 0 20 20" xml:space="preserve">
<path fill="#4881BB" d="M13.399,20H2.6C1.167,20,0,18.832,0,17.397V9.382C0,8.909,0.133,8.44,0.385,8.028
	C0.614,7.61,1.004,7.253,1.49,7.034c0.079-0.039,0.191-0.083,0.307-0.121l0.12-0.036C2.143,6.813,2.375,6.778,2.6,6.778
	c0.931-0.055,2.146-0.667,4.139-2.111c0.619-0.449,1.032-1.004,1.432-1.541c0.633-0.849,1.35-1.811,2.752-1.92l0.124-0.004
	c0.743,0,1.555,0.355,2.118,0.927c0.558,0.566,0.846,1.299,0.834,2.12c0.009,0.171,0.034,0.752-0.39,2.528h2.19
	c1.654,0,3,1.348,3,3.004c0,0.778-0.298,1.509-0.821,2.06C17.993,11.957,18,12.072,18,12.188c0,0.779-0.298,1.51-0.821,2.06
	c0.014,0.115,0.021,0.23,0.021,0.345c0,0.778-0.298,1.509-0.82,2.06c0.014,0.115,0.021,0.229,0.021,0.345
	C16.399,18.652,15.054,20,13.399,20z M11.047,3.203c-0.425,0.033-0.675,0.317-1.272,1.119C9.331,4.917,8.779,5.659,7.913,6.287
	c-1.969,1.427-3.616,2.396-5.255,2.49c-0.096,0.001-0.149,0.011-0.22,0.031L2.31,8.858C2.217,8.9,2.158,8.952,2.114,9.032
	C2.031,9.17,2,9.275,2,9.382v8.016C2,17.729,2.269,18,2.6,18h10.799c0.552,0,1-0.45,1-1.004c0-0.113-0.023-0.233-0.07-0.355
	l-0.293-0.765l0.691-0.438c0.296-0.188,0.472-0.504,0.472-0.847c0-0.115-0.023-0.233-0.071-0.361l-0.288-0.762l0.689-0.436
	C15.824,12.847,16,12.53,16,12.188c0-0.115-0.023-0.232-0.071-0.357l-0.291-0.764l0.69-0.438c0.295-0.187,0.472-0.503,0.472-0.847
	c0-0.554-0.448-1.004-1-1.004h-4.789l0.345-1.263C11.967,5.277,12.01,4.505,12,4.278c0.003-0.339-0.081-0.563-0.26-0.745
	C11.516,3.306,11.199,3.203,11.047,3.203z"/>
</svg>
