<?xml version="1.0" encoding="utf-8"?>
<!-- Generator: Adobe Illustrator 17.0.0, SVG Export Plug-In . SVG Version: 6.00 Build 0)  -->
<!DOCTYPE svg PUBLIC "-//W3C//DTD SVG 1.1//EN" "http://www.w3.org/Graphics/SVG/1.1/DTD/svg11.dtd">
<svg version="1.1" id="Livello_1" xmlns="http://www.w3.org/2000/svg" xmlns:xlink="http://www.w3.org/1999/xlink" x="0px" y="0px"
	 width="20px" height="20px" viewBox="0 0 20 20" enable-background="new 0 0 20 20" xml:space="preserve">
<path fill="#6D9AC9" d="M13.399,20H2.6C1.167,20,0,18.832,0,17.397V9.382C0,8.909,0.133,8.44,0.385,8.028
	C0.614,7.61,1.004,7.253,1.49,7.034c0.079-0.039,0.191-0.083,0.307-0.121l0.12-0.036C2.143,6.813,2.375,6.778,2.6,6.778
	c0.931-0.055,2.146-0.667,4.139-2.111c0.619-0.449,1.032-1.004,1.432-1.541c0.633-0.849,1.35-1.811,2.752-1.92l0.124-0.004
	c0.743,0,1.555,0.355,2.118,0.927c0.558,0.566,0.846,1.299,0.834,2.12c0.009,0.171,0.034,0.752-0.39,2.528h2.19
	c1.654,0,3,1.348,3,3.004c0,0.778-0.298,1.509-0.821,2.06C17.993,11.957,18,12.072,18,12.188c0,0.779-0.298,1.51-0.821,2.06
	c0.014,0.115,0.021,0.23,0.021,0.345c0,0.778-0.298,1.509-0.82,2.06c0.014,0.115,0.021,0.229,0.021,0.345
	C16.399,18.652,15.054,20,13.399,20z"/>
</svg>
