<?xml version="1.0" encoding="utf-8"?>
<!-- Generator: Adobe Illustrator 17.0.0, SVG Export Plug-In . SVG Version: 6.00 Build 0)  -->
<!DOCTYPE svg PUBLIC "-//W3C//DTD SVG 1.1//EN" "http://www.w3.org/Graphics/SVG/1.1/DTD/svg11.dtd">
<svg version="1.1" id="Livello_1" xmlns="http://www.w3.org/2000/svg" xmlns:xlink="http://www.w3.org/1999/xlink" x="0px" y="0px"
	 width="34px" height="34px" viewBox="0 0 34 34" enable-background="new 0 0 34 34" xml:space="preserve">
<g>
	<circle fill-rule="evenodd" clip-rule="evenodd" fill="#0050A0" cx="17" cy="17" r="17"/>
	<circle fill-rule="evenodd" clip-rule="evenodd" fill="#FFFFFF" cx="17" cy="17" r="15"/>
	<path fill="#0050A0" d="M25.053,26.469c-0.124,0-0.249-0.023-0.368-0.07l-3.848-1.523c-1.226,0.435-2.515,0.656-3.837,0.656
		c-5.514,0-10-3.813-10-8.5s4.486-8.5,10-8.5s10,3.813,10,8.5c0,1.691-0.579,3.309-1.681,4.709l0.713,3.53
		c0.073,0.359-0.057,0.73-0.338,0.965C25.511,26.389,25.283,26.469,25.053,26.469z"/>
	<path fill="#FFFFFF" d="M20.847,22.804c0.125,0,0.25,0.023,0.368,0.07l2.493,0.987l-0.443-2.194
		c-0.062-0.307,0.023-0.625,0.23-0.86C24.479,19.692,25,18.387,25,17.031c0-3.584-3.589-6.5-8-6.5s-8,2.916-8,6.5s3.589,6.5,8,6.5
		c1.206,0,2.376-0.221,3.479-0.657C20.597,22.827,20.722,22.804,20.847,22.804z"/>
</g>
</svg>
