<?xml version="1.0" encoding="utf-8"?>
<!-- Generator: Adobe Illustrator 17.0.0, SVG Export Plug-In . SVG Version: 6.00 Build 0)  -->
<!DOCTYPE svg PUBLIC "-//W3C//DTD SVG 1.1//EN" "http://www.w3.org/Graphics/SVG/1.1/DTD/svg11.dtd">
<svg version="1.1" id="Livello_1" xmlns="http://www.w3.org/2000/svg" xmlns:xlink="http://www.w3.org/1999/xlink" x="0px" y="0px"
	 width="34px" height="34px" viewBox="0 0 34 34" enable-background="new 0 0 34 34" xml:space="preserve">
<path fill-rule="evenodd" clip-rule="evenodd" fill="#0050a0" d="M17,0c9.389,0,17,7.612,17,17c0,9.389-7.611,17-17,17
	C7.611,34,0,26.389,0,17C0,7.611,7.611,0,17,0z"/>
<path fill-rule="evenodd" clip-rule="evenodd" fill="#FFFFFF" d="M17,3c7.732,0,14,6.268,14,14c0,7.732-6.268,14-14,14
	C9.268,31,3,24.732,3,17C3,9.268,9.268,3,17,3z"/>
<path fill="#0050a0" d="M16.495,12.146c-1.367,0-2.525,0.517-3.475,1.55c-0.95,1.034-1.425,2.284-1.425,3.75
	c0,1.467,0.366,2.659,1.1,3.575c0.733,0.917,1.733,1.375,3,1.375c1.683,0,2.925-0.791,3.725-2.375c0.466,1.55,1.533,2.325,3.2,2.325
	c1.216,0,2.291-0.571,3.225-1.712c0.933-1.141,1.4-2.671,1.4-4.587c0-2.733-0.929-4.929-2.788-6.587
	c-1.859-1.658-4.129-2.488-6.812-2.488c-2,0-3.85,0.463-5.55,1.388s-3.054,2.221-4.062,3.887c-1.009,1.667-1.513,3.517-1.513,5.55
	c0,2.734,0.841,4.996,2.525,6.788c1.683,1.791,3.975,2.688,6.875,2.688c1.766,0,3.275-0.3,4.525-0.9l0.1-2.275
	c-1.384,0.733-2.917,1.1-4.6,1.1c-2,0-3.692-0.646-5.075-1.938c-1.384-1.291-2.075-3.137-2.075-5.538s0.854-4.45,2.562-6.15
	c1.708-1.7,3.721-2.55,6.037-2.55c2.316,0,4.183,0.621,5.6,1.862c1.416,1.242,2.125,3.013,2.125,5.312
	c0,1.25-0.229,2.263-0.688,3.038c-0.459,0.775-1.029,1.163-1.712,1.163c-1.034,0-1.55-0.858-1.55-2.575
	c0-0.8,0.141-2.658,0.425-5.575h-2c-0.067,0.8-0.1,1.325-0.1,1.575C18.861,12.704,17.861,12.146,16.495,12.146z M14.682,15.083
	c0.541-0.691,1.229-1.038,2.062-1.038c1.433,0,2.283,0.859,2.55,2.575c-0.017,0.45-0.042,0.875-0.075,1.275
	c-0.234,0.817-0.629,1.454-1.188,1.913c-0.559,0.459-1.171,0.688-1.837,0.688c-0.667,0-1.221-0.254-1.663-0.763
	c-0.442-0.508-0.663-1.237-0.663-2.188S14.141,15.775,14.682,15.083z"/>
</svg>
