<?xml version="1.0" encoding="utf-8"?>
<!-- Generator: Adobe Illustrator 17.0.0, SVG Export Plug-In . SVG Version: 6.00 Build 0)  -->
<!DOCTYPE svg PUBLIC "-//W3C//DTD SVG 1.1//EN" "http://www.w3.org/Graphics/SVG/1.1/DTD/svg11.dtd">
<svg version="1.1" id="Livello_1" xmlns="http://www.w3.org/2000/svg" xmlns:xlink="http://www.w3.org/1999/xlink" x="0px" y="0px"
	 width="34px" height="34px" viewBox="0 0 34 34" enable-background="new 0 0 34 34" xml:space="preserve">
<path fill-rule="evenodd" clip-rule="evenodd" fill="#004594" d="M17,0c9.389,0,17,7.611,17,17c0,9.389-7.611,17-17,17
	C7.611,34,0,26.389,0,17C0,7.611,7.611,0,17,0z"/>
<path fill-rule="evenodd" clip-rule="evenodd" fill="#004594" d="M17,3c7.732,0,14,6.268,14,14c0,7.732-6.268,14-14,14
	S3,24.732,3,17C3,9.268,9.268,3,17,3z"/>
<g>
	<path fill-rule="evenodd" clip-rule="evenodd" fill="#FFFFFF" d="M20.393,15.214c0.637-0.778,0.982-1.737,0.982-2.751
		c0-2.413-1.962-4.375-4.375-4.375s-4.375,1.962-4.375,4.375c0,1.015,0.345,1.974,0.982,2.751c-3.001,1.333-4.982,4.34-4.982,7.648
		c0,0.648,0.527,1.175,1.175,1.175s1.175-0.527,1.175-1.175c0-3.322,2.703-6.025,6.025-6.025s6.025,2.703,6.025,6.025
		c0,0.648,0.527,1.175,1.175,1.175s1.175-0.527,1.175-1.175C25.375,19.554,23.394,16.547,20.393,15.214z M17,14.487
		c-1.117,0-2.025-0.908-2.025-2.025s0.908-2.025,2.025-2.025s2.025,0.908,2.025,2.025S18.117,14.487,17,14.487z"/>
	<path fill-rule="evenodd" clip-rule="evenodd" fill="#FFFFFF" d="M19,22h-1v-1c0-0.552-0.448-1-1-1s-1,0.448-1,1v1h-1
		c-0.552,0-1,0.448-1,1s0.448,1,1,1h1v1c0,0.552,0.448,1,1,1s1-0.448,1-1v-1h1c0.552,0,1-0.448,1-1S19.552,22,19,22z"/>
</g>
</svg>
