<?xml version="1.0" encoding="utf-8"?>
<!-- Generator: Adobe Illustrator 17.0.0, SVG Export Plug-In . SVG Version: 6.00 Build 0)  -->
<!DOCTYPE svg PUBLIC "-//W3C//DTD SVG 1.1//EN" "http://www.w3.org/Graphics/SVG/1.1/DTD/svg11.dtd">
<svg version="1.1" id="Livello_1" xmlns="http://www.w3.org/2000/svg" xmlns:xlink="http://www.w3.org/1999/xlink" x="0px" y="0px"
	 width="34px" height="34px" viewBox="0 0 34 34" enable-background="new 0 0 34 34" xml:space="preserve">
<g>
	<path fill="#BE0000" d="M17,0c9.389,0,17,7.611,17,17s-7.611,17-17,17S0,26.389,0,17S7.611,0,17,0z"/>
	<path fill="#FFFFFF" d="M17,2c8.284,0,15,6.716,15,15s-6.716,15-15,15S2,25.284,2,17S8.716,2,17,2z"/>
	<path fill="#BE0000" d="M17,27c-0.256,0-0.512-0.098-0.707-0.293l-7.072-7.071c-1.134-1.133-1.758-2.64-1.758-4.243
		s0.624-3.109,1.758-4.243c1.133-1.134,2.64-1.758,4.242-1.758c1.287,0,2.512,0.402,3.532,1.148c1.02-0.745,2.245-1.147,3.532-1.147
		c1.603,0,3.109,0.624,4.242,1.757c2.307,2.306,2.339,6.04,0.096,8.386c-0.026,0.034-0.055,0.068-0.087,0.099l-7.071,7.071
		C17.512,26.902,17.256,27,17,27z M13.463,11.393c-1.068,0-2.072,0.416-2.828,1.172s-1.172,1.76-1.172,2.829
		s0.416,2.073,1.172,2.829L17,24.586l6.279-6.279c0.024-0.031,0.05-0.061,0.079-0.089c1.556-1.559,1.555-4.095-0.003-5.652
		c-1.509-1.51-4.142-1.511-5.654-0.003c-0.39,0.39-1.022,0.389-1.413,0C15.533,11.808,14.53,11.393,13.463,11.393z"/>
	<path fill="#FFFFFF" d="M4.49,8.732L25.268,29.51c1.684-1.115,3.128-2.559,4.243-4.243L8.732,4.49
		C7.049,5.604,5.604,7.049,4.49,8.732z"/>
	<path fill="#BE0000" d="M6.393,4.979L29.02,27.606l-1.414,1.414L4.979,6.393L6.393,4.979z"/>
</g>
</svg>
