<?xml version="1.0" encoding="utf-8"?>
<!-- Generator: Adobe Illustrator 17.0.0, SVG Export Plug-In . SVG Version: 6.00 Build 0)  -->
<!DOCTYPE svg PUBLIC "-//W3C//DTD SVG 1.1//EN" "http://www.w3.org/Graphics/SVG/1.1/DTD/svg11.dtd">
<svg version="1.1" id="Livello_1" xmlns="http://www.w3.org/2000/svg" xmlns:xlink="http://www.w3.org/1999/xlink" x="0px" y="0px"
	 width="40.5px" height="40.5px" viewBox="-2.75 -6.75 40.5 40.5" enable-background="new -2.75 -6.75 40.5 40.5"
	 xml:space="preserve">
<linearGradient id="SVGID_1_" gradientUnits="userSpaceOnUse" x1="285.94" y1="-222.365" x2="303.19" y2="-205.115" gradientTransform="matrix(1 0 0 -1 -268.44 -208.865)">
	<stop  offset="0.0547" style="stop-color:#000000;stop-opacity:0"/>
	<stop  offset="0.113" style="stop-color:#000000;stop-opacity:0.0617"/>
	<stop  offset="1" style="stop-color:#000000"/>
</linearGradient>
<path opacity="0.8" fill="url(#SVGID_1_)" enable-background="new    " d="M31.75-6.75h-34.5l40.5,40.5v-34.5L31.75-6.75z
	 M34.813,9.962H24.676V7.257l0.204-0.105c0.585-0.299,0.988-0.66,1.203-1.077c0.222-0.433,0.336-1.018,0.336-1.74
	c0-0.069,0-0.134-0.001-0.192h-1.721V1.526h1.424c-0.039-0.369-0.058-0.701-0.058-0.99c0-1.618,0.438-2.9,1.3-3.807
	c0.867-0.913,2.132-1.377,3.757-1.377c1.098,0,2.05,0.229,2.833,0.681l0.188,0.108v3.319l-0.579-0.374
	c-0.608-0.391-1.266-0.591-1.959-0.591c-1.41,0-2.04,0.642-2.04,2.082c0,0.207,0.018,0.523,0.052,0.948h3.644v2.619h-3.383
	c0,0.06,0.001,0.125,0.001,0.192c0,1.132-0.275,2.041-0.819,2.712h5.754V9.962z"/>
<path fill="#FFF000" d="M31.75-6.75h-24l30,30v-24C37.75-4.063,35.063-6.75,31.75-6.75z M34.438,9.587h-9.387v-2.1
	c0.658-0.336,1.113-0.748,1.365-1.239c0.252-0.489,0.378-1.126,0.378-1.911c0-0.252-0.007-0.441-0.021-0.567h-1.701V1.901h1.47
	c-0.071-0.533-0.105-0.987-0.105-1.365c0-1.525,0.399-2.709,1.197-3.549s1.96-1.26,3.486-1.26c1.037,0,1.918,0.21,2.646,0.63v2.415
	c-0.672-0.434-1.394-0.651-2.163-0.651c-1.61,0-2.415,0.819-2.415,2.457c0,0.266,0.028,0.707,0.084,1.323h3.612V3.77h-3.402
	c0.014,0.126,0.021,0.315,0.021,0.567c0,1.457-0.477,2.486-1.428,3.087h6.363C34.438,7.424,34.438,9.587,34.438,9.587z"/>
</svg>
