<?xml version="1.0" encoding="utf-8"?>
<!-- Generator: Adobe Illustrator 17.0.0, SVG Export Plug-In . SVG Version: 6.00 Build 0)  -->
<!DOCTYPE svg PUBLIC "-//W3C//DTD SVG 1.1//EN" "http://www.w3.org/Graphics/SVG/1.1/DTD/svg11.dtd">
<svg version="1.1" id="Livello_1" xmlns="http://www.w3.org/2000/svg" xmlns:xlink="http://www.w3.org/1999/xlink" x="0px" y="0px"
	 width="25px" height="21px" viewBox="0 0 25 21" enable-background="new 0 0 25 21" xml:space="preserve">
<g>
	<path fill-rule="evenodd" clip-rule="evenodd" fill="#FFFFFF" d="M2.5,5c0.171,0,19.829,0,20,0C23.881,5,25,3.881,25,2.5
		S23.881,0,22.5,0c-0.171,0-19.829,0-20,0C1.119,0,0,1.119,0,2.5S1.119,5,2.5,5z"/>
	<path fill-rule="evenodd" clip-rule="evenodd" fill="#FFFFFF" d="M22.5,16c-0.171,0-19.829,0-20,0C1.119,16,0,17.119,0,18.5
		S1.119,21,2.5,21c0.171,0,19.829,0,20,0c1.381,0,2.5-1.119,2.5-2.5S23.881,16,22.5,16z"/>
	<path fill-rule="evenodd" clip-rule="evenodd" fill="#FFFFFF" d="M22.5,8c-0.171,0-19.829,0-20,0C1.119,8,0,9.119,0,10.5
		S1.119,13,2.5,13c0.171,0,19.829,0,20,0c1.381,0,2.5-1.119,2.5-2.5S23.881,8,22.5,8z"/>
</g>
</svg>
