<?xml version="1.0" encoding="utf-8"?>
<!-- Generator: Adobe Illustrator 17.0.0, SVG Export Plug-In . SVG Version: 6.00 Build 0)  -->
<!DOCTYPE svg PUBLIC "-//W3C//DTD SVG 1.1//EN" "http://www.w3.org/Graphics/SVG/1.1/DTD/svg11.dtd">
<svg version="1.1" id="Livello_1" xmlns="http://www.w3.org/2000/svg" xmlns:xlink="http://www.w3.org/1999/xlink" x="0px" y="0px"
	 width="25px" height="21px" viewBox="0 0 25 21" enable-background="new 0 0 25 21" xml:space="preserve">
<g>
	<circle fill-rule="evenodd" clip-rule="evenodd" fill="#FFFFFF" cx="1.5" cy="1.5" r="1.5"/>
	<circle fill-rule="evenodd" clip-rule="evenodd" fill="#FFFFFF" cx="1.5" cy="10.5" r="1.5"/>
	<circle fill-rule="evenodd" clip-rule="evenodd" fill="#FFFFFF" cx="1.5" cy="19.5" r="1.5"/>
	<path fill-rule="evenodd" clip-rule="evenodd" fill="#FFFFFF" d="M23.5,9h-16C6.672,9,6,9.672,6,10.501C6,11.328,6.672,12,7.5,12
		h16c0.828,0,1.5-0.672,1.5-1.5C25,9.672,24.328,9,23.5,9z"/>
	<path fill-rule="evenodd" clip-rule="evenodd" fill="#FFFFFF" d="M23.5,18h-16C6.672,18,6,18.672,6,19.5C6,20.329,6.672,21,7.5,21
		h16c0.828,0,1.5-0.671,1.5-1.5C25,18.672,24.328,18,23.5,18z"/>
	<path fill-rule="evenodd" clip-rule="evenodd" fill="#FFFFFF" d="M7.5,3h16C24.328,3,25,2.329,25,1.5C25,0.672,24.328,0,23.5,0h-16
		C6.672,0,6,0.672,6,1.5C6,2.329,6.672,3,7.5,3z"/>
</g>
</svg>
