<?xml version="1.0" encoding="utf-8"?>
<!-- Generator: Adobe Illustrator 17.0.0, SVG Export Plug-In . SVG Version: 6.00 Build 0)  -->
<!DOCTYPE svg PUBLIC "-//W3C//DTD SVG 1.1//EN" "http://www.w3.org/Graphics/SVG/1.1/DTD/svg11.dtd">
<svg version="1.1" id="Livello_1" xmlns="http://www.w3.org/2000/svg" xmlns:xlink="http://www.w3.org/1999/xlink" x="0px" y="0px"
	 width="26px" height="26px" viewBox="0 0 26 26" enable-background="new 0 0 26 26" xml:space="preserve">
<path fill-rule="evenodd" clip-rule="evenodd" fill="#FFFFFF" d="M23.503,11.322c-0.283,0.096-0.583,0.156-0.899,0.156
	c-1.552,0-2.811-1.258-2.811-2.811c0-0.245,0.041-0.478,0.1-0.704c-0.003-0.013-0.009-0.024-0.012-0.037
	c-1.37-0.188-2.43-1.351-2.43-2.772c0-0.39,0.08-0.761,0.223-1.099c-0.831-0.488-1.394-1.382-1.394-2.415
	c0-0.408,0.091-0.793,0.247-1.142C15.404,0.181,14.224,0,13,0C5.82,0,0,5.82,0,13s5.82,13,13,13c7.144,0,12.938-5.764,12.995-12.895
	C24.856,13.055,23.896,12.334,23.503,11.322z M4.189,16.162c-0.179,0-0.324-0.145-0.324-0.324c0-0.179,0.145-0.324,0.324-0.324
	c0.179,0,0.324,0.145,0.324,0.324C4.513,16.017,4.368,16.162,4.189,16.162z M6.09,12.297c-0.647,0-1.171-0.524-1.171-1.171
	S5.443,9.955,6.09,9.955s1.171,0.524,1.171,1.171S6.737,12.297,6.09,12.297z M8.315,18.387c-0.647,0-1.171-0.524-1.171-1.171
	s0.524-1.171,1.171-1.171s1.171,0.524,1.171,1.171S8.962,18.387,8.315,18.387z M9.955,6.559c0-0.97,0.786-1.757,1.757-1.757
	c0.97,0,1.757,0.786,1.757,1.757c0,0.97-0.787,1.757-1.757,1.757C10.742,8.315,9.955,7.529,9.955,6.559z M11.36,11.712
	c-0.259,0-0.469-0.21-0.469-0.468c0-0.259,0.21-0.468,0.469-0.468c0.259,0,0.468,0.21,0.468,0.468
	C11.829,11.502,11.619,11.712,11.36,11.712z M13.234,23.072c-0.841,0-1.523-0.682-1.523-1.523c0-0.841,0.682-1.523,1.523-1.523
	c0.841,0,1.523,0.682,1.523,1.523C14.757,22.39,14.075,23.072,13.234,23.072z M15.108,16.162c-0.582,0-1.054-0.472-1.054-1.054
	s0.472-1.054,1.054-1.054s1.054,0.472,1.054,1.054S15.69,16.162,15.108,16.162z M17.703,10.757c-0.269,0-0.487-0.218-0.487-0.486
	c0-0.269,0.218-0.487,0.487-0.487s0.487,0.218,0.487,0.487C18.189,10.539,17.971,10.757,17.703,10.757z M18.838,19.568
	c-0.269,0-0.486-0.218-0.486-0.487c0-0.269,0.218-0.487,0.486-0.487c0.269,0,0.486,0.218,0.486,0.487
	C19.324,19.35,19.107,19.568,18.838,19.568z M22.252,16.279c-0.518,0-0.937-0.419-0.937-0.937c0-0.517,0.419-0.937,0.937-0.937
	c0.517,0,0.937,0.419,0.937,0.937C23.189,15.86,22.77,16.279,22.252,16.279z"/>
</svg>
