<?xml version="1.0" encoding="utf-8"?>
<!-- Generator: Adobe Illustrator 17.0.0, SVG Export Plug-In . SVG Version: 6.00 Build 0)  -->
<!DOCTYPE svg PUBLIC "-//W3C//DTD SVG 1.1//EN" "http://www.w3.org/Graphics/SVG/1.1/DTD/svg11.dtd">
<svg version="1.1" id="Livello_1" xmlns="http://www.w3.org/2000/svg" xmlns:xlink="http://www.w3.org/1999/xlink" x="0px" y="0px"
	 width="34px" height="34px" viewBox="0 0 34 34" enable-background="new 0 0 34 34" xml:space="preserve">
<path fill-rule="evenodd" clip-rule="evenodd" fill="#72C2B9" d="M17,0C7.611,0,0,7.611,0,17s7.611,17,17,17s17-7.611,17-17
	S26.389,0,17,0z"/>
<path fill-rule="evenodd" clip-rule="evenodd" fill="#FFFFFF" d="M25.413,14.069l-8.51,8.306c-0.337,0.33-0.78,0.492-1.222,0.49
	c-0.448,0.006-0.897-0.153-1.239-0.487L9.58,17.631c-0.672-0.655-0.672-1.717,0-2.373c0.671-0.655,1.76-0.655,2.431,0l3.66,3.573
	l7.311-7.136c0.671-0.655,1.759-0.655,2.431,0C26.084,12.351,26.084,13.413,25.413,14.069z"/>
</svg>
