<?xml version="1.0" encoding="utf-8"?>
<!-- Generator: Adobe Illustrator 17.0.0, SVG Export Plug-In . SVG Version: 6.00 Build 0)  -->
<!DOCTYPE svg PUBLIC "-//W3C//DTD SVG 1.1//EN" "http://www.w3.org/Graphics/SVG/1.1/DTD/svg11.dtd">
<svg version="1.1" id="Livello_1" xmlns="http://www.w3.org/2000/svg" xmlns:xlink="http://www.w3.org/1999/xlink" x="0px" y="0px"
	 width="99px" height="99px" viewBox="0 0 99 99" enable-background="new 0 0 99 99" xml:space="preserve">
<path fill="#FFFFFF" d="M49.5,0C22.162,0,0,22.162,0,49.5S22.162,99,49.5,99S99,76.838,99,49.5S76.838,0,49.5,0z M49.5,90
	C27.132,90,9,71.868,9,49.5S27.132,9,49.5,9S90,27.132,90,49.5S71.868,90,49.5,90z"/>
<path fill="#FFFFFF" d="M62.292,48.978c-8.054-4.037-17.526-4.037-25.583,0c-1.334,0.668-1.873,2.29-1.205,3.623
	c0.667,1.333,2.29,1.875,3.623,1.205c6.542-3.277,14.205-3.277,20.744,0c0.389,0.195,0.802,0.286,1.208,0.286
	c0.99,0,1.943-0.546,2.417-1.49C64.164,51.268,63.625,49.646,62.292,48.978z"/>
<path fill="#FFFFFF" d="M49.5,58.247c-4.295,0-7.776,3.482-7.776,7.776S45.205,73.8,49.5,73.8c4.294,0,7.776-3.482,7.776-7.777
	S53.795,58.247,49.5,58.247z"/>
<path fill="#FFFFFF" d="M71.557,30.445c-6.949-3.48-14.371-5.246-22.057-5.246c-7.686,0-15.107,1.765-22.056,5.246
	c-1.333,0.667-1.873,2.29-1.205,3.623c0.667,1.333,2.29,1.875,3.623,1.205c12.386-6.202,26.895-6.2,39.278,0
	c0.388,0.195,0.8,0.286,1.206,0.286c0.99,0,1.943-0.546,2.416-1.491C73.43,32.735,72.89,31.113,71.557,30.445z"/>
<path fill="#FFFFFF" d="M66.924,39.712c-10.979-5.5-23.868-5.5-34.847,0c-1.334,0.668-1.873,2.29-1.205,3.623
	c0.667,1.332,2.29,1.875,3.623,1.205c9.466-4.741,20.545-4.741,30.011,0c0.387,0.195,0.8,0.286,1.206,0.286
	c0.99,0,1.943-0.546,2.416-1.491C68.797,42.002,68.258,40.381,66.924,39.712z"/>
</svg>
