<?xml version="1.0" encoding="utf-8"?>
<!-- Generator: Adobe Illustrator 17.0.0, SVG Export Plug-In . SVG Version: 6.00 Build 0)  -->
<!DOCTYPE svg PUBLIC "-//W3C//DTD SVG 1.1//EN" "http://www.w3.org/Graphics/SVG/1.1/DTD/svg11.dtd">
<svg version="1.1" id="Livello_1" xmlns="http://www.w3.org/2000/svg" xmlns:xlink="http://www.w3.org/1999/xlink" x="0px" y="0px"
	 width="34px" height="34px" viewBox="0 0 34 34" enable-background="new 0 0 34 34" xml:space="preserve">
<path fill="#FFFFFF" d="M17,0C7.611,0,0,7.611,0,17s7.611,17,17,17s17-7.611,17-17S26.389,0,17,0z"/>
<path fill-rule="evenodd" clip-rule="evenodd" fill="#004594" d="M17,3c7.732,0,14,6.268,14,14s-6.268,14-14,14S3,24.732,3,17
	S9.268,3,17,3z"/>
<g>
	<path fill="#FFFFFF" d="M25.609,18.948l-13.862,2.349l-1.253-2.384l9.652-10.18c0.22-0.233,0.21-0.602-0.022-0.823
		c-0.224-0.213-0.61-0.203-0.823,0.021L9.052,18.767l2.157,3.801l2.754-0.467l0.123,0.723c0.123,0.726,0.746,1.252,1.48,1.252h0
		c0.083,0,0.167-0.007,0.252-0.021l3.238-0.549c0.395-0.067,0.74-0.284,0.972-0.611c0.232-0.327,0.323-0.726,0.256-1.122
		l-0.123-0.723l5.643-0.956c0.153-0.026,0.287-0.11,0.377-0.237c0.09-0.127,0.125-0.281,0.099-0.434
		C26.226,19.112,25.931,18.893,25.609,18.948z M18.856,21.883c0.015,0.089-0.005,0.179-0.058,0.253
		c-0.052,0.073-0.13,0.122-0.219,0.137l-2.72,0.461c-0.186,0.031-0.359-0.095-0.39-0.278l-0.101-0.593l3.386-0.574L18.856,21.883z"
		/>
	<path fill="#FFFFFF" d="M8.536,19.419c-0.147-0.273-0.514-0.385-0.788-0.236c-0.137,0.074-0.236,0.197-0.281,0.345
		c-0.045,0.149-0.028,0.306,0.045,0.443l1.748,3.242c0.102,0.189,0.298,0.306,0.512,0.306h0c0.095,0,0.191-0.024,0.275-0.07
		c0.137-0.074,0.236-0.197,0.281-0.345c0.045-0.149,0.028-0.306-0.045-0.443L8.536,19.419z"/>
</g>
</svg>
