<?xml version="1.0" encoding="utf-8"?>
<!-- Generator: Adobe Illustrator 17.0.0, SVG Export Plug-In . SVG Version: 6.00 Build 0)  -->
<!DOCTYPE svg PUBLIC "-//W3C//DTD SVG 1.1//EN" "http://www.w3.org/Graphics/SVG/1.1/DTD/svg11.dtd">
<svg version="1.1" id="Livello_1" xmlns="http://www.w3.org/2000/svg" xmlns:xlink="http://www.w3.org/1999/xlink" x="0px" y="0px"
	 width="20px" height="19px" viewBox="0 0 20 19" enable-background="new 0 0 20 19" xml:space="preserve">
<path fill-rule="evenodd" clip-rule="evenodd" fill="#FFFFFF" d="M13.435,8.618C14.395,7.707,15,6.428,15,5c0-2.761-2.239-5-5-5
	S5,2.239,5,5c0,1.428,0.605,2.707,1.565,3.618C2.737,10.021,0,13.686,0,18c0,0.552,0.448,1,1,1s1-0.448,1-1c0-4.418,3.582-8,8-8
	s8,3.582,8,8c0,0.552,0.448,1,1,1s1-0.448,1-1C20,13.686,17.263,10.021,13.435,8.618z M7,5c0-1.657,1.343-3,3-3s3,1.343,3,3
	s-1.343,3-3,3S7,6.657,7,5z"/>
</svg>
