<?xml version="1.0" encoding="utf-8"?>
<!-- Generator: Adobe Illustrator 17.0.0, SVG Export Plug-In . SVG Version: 6.00 Build 0)  -->
<!DOCTYPE svg PUBLIC "-//W3C//DTD SVG 1.1//EN" "http://www.w3.org/Graphics/SVG/1.1/DTD/svg11.dtd">
<svg version="1.1" id="Livello_1" xmlns="http://www.w3.org/2000/svg" xmlns:xlink="http://www.w3.org/1999/xlink" x="0px" y="0px"
	 width="34px" height="34px" viewBox="0 0 34 34" enable-background="new 0 0 34 34" xml:space="preserve">
<path fill="#FFFFFF" d="M17,0C7.611,0,0,7.611,0,17s7.611,17,17,17s17-7.611,17-17S26.389,0,17,0z"/>
<path fill-rule="evenodd" clip-rule="evenodd" fill="#004594" d="M17,3c7.732,0,14,6.268,14,14s-6.268,14-14,14S3,24.732,3,17
	S9.268,3,17,3z"/>
<g>
	<path fill-rule="evenodd" clip-rule="evenodd" fill="#FFFFFF" d="M12.325,20.546c-0.283-0.057-0.513-0.112-0.725-0.174
		c-0.076-0.022-0.157-0.02-0.231,0.004l-3.649,1.22l0.712-2.858c0.031-0.124-0.002-0.254-0.087-0.349
		c-0.867-0.964-1.326-2.098-1.326-3.279c0-3.088,3.111-5.6,6.936-5.6c1.77,0,3.458,0.545,4.755,1.534
		c0.169,0.129,0.411,0.097,0.54-0.071c0.129-0.168,0.097-0.409-0.072-0.538c-1.43-1.091-3.285-1.692-5.223-1.692
		c-4.249,0-7.706,2.857-7.706,6.368c0,1.309,0.479,2.562,1.387,3.636l-0.833,3.343c-0.034,0.136,0.009,0.28,0.113,0.375
		c0.072,0.067,0.166,0.102,0.261,0.102c0.041,0,0.082-0.007,0.122-0.02l4.202-1.405c0.2,0.055,0.417,0.105,0.673,0.156
		c0.209,0.041,0.412-0.093,0.453-0.301C12.669,20.79,12.534,20.588,12.325,20.546z"/>
	<path fill-rule="evenodd" clip-rule="evenodd" fill="#FFFFFF" d="M27.751,17.883c0-3.473-3.44-6.298-7.668-6.298
		c-4.228,0-7.668,2.825-7.668,6.298s3.44,6.298,7.668,6.298c0.822,0,1.643-0.112,2.442-0.333l4.179,1.388
		c0.04,0.013,0.081,0.02,0.122,0.02c0.096,0,0.189-0.035,0.262-0.102c0.103-0.095,0.146-0.239,0.112-0.375l-0.828-3.3
		C27.275,20.416,27.751,19.178,27.751,17.883z M22.655,23.082c-0.039-0.013-0.081-0.02-0.122-0.02c-0.036,0-0.073,0.005-0.108,0.015
		c-0.765,0.222-1.554,0.335-2.343,0.335c-3.803,0-6.897-2.481-6.897-5.53c0-3.049,3.094-5.53,6.897-5.53
		c3.803,0,6.897,2.481,6.897,5.53c0,1.165-0.455,2.284-1.317,3.236c-0.086,0.095-0.119,0.226-0.088,0.35l0.707,2.816L22.655,23.082z
		"/>
	<circle fill-rule="evenodd" clip-rule="evenodd" fill="#FFFFFF" cx="17.038" cy="17.96" r="0.768"/>
	<circle fill-rule="evenodd" clip-rule="evenodd" fill="#FFFFFF" cx="20.121" cy="17.96" r="0.768"/>
	<circle fill-rule="evenodd" clip-rule="evenodd" fill="#FFFFFF" cx="23.204" cy="17.96" r="0.768"/>
</g>
</svg>
