<?xml version="1.0" encoding="utf-8"?>
<!-- Generator: Adobe Illustrator 17.0.0, SVG Export Plug-In . SVG Version: 6.00 Build 0)  -->
<!DOCTYPE svg PUBLIC "-//W3C//DTD SVG 1.1//EN" "http://www.w3.org/Graphics/SVG/1.1/DTD/svg11.dtd">
<svg version="1.1" id="Livello_1" xmlns="http://www.w3.org/2000/svg" xmlns:xlink="http://www.w3.org/1999/xlink" x="0px" y="0px"
	 width="34px" height="34px" viewBox="0 0 34 34" enable-background="new 0 0 34 34" xml:space="preserve">
<path fill="#FFFFFF" d="M17,0c9.389,0,17,7.612,17,17c0,9.389-7.611,17-17,17S0,26.389,0,17S7.611,0,17,0z"/>
<path fill="#004594" d="M17,3c7.732,0,14,6.268,14,14s-6.268,14-14,14S3,24.732,3,17S9.268,3,17,3z"/>
<path fill="#FFFFFF" d="M19.469,11.469C19.979,10.958,21,10.937,21,10.937l1,0.001v-3h-4c-1.657,0-3,1.343-3,3V14h-3v3h3v9.938h4V17
	h3v-3h-3v-1.062C19,12.938,18.979,11.959,19.469,11.469z"/>
</svg>
