<?xml version="1.0" encoding="utf-8"?>
<!-- Generator: Adobe Illustrator 17.0.0, SVG Export Plug-In . SVG Version: 6.00 Build 0)  -->
<!DOCTYPE svg PUBLIC "-//W3C//DTD SVG 1.1//EN" "http://www.w3.org/Graphics/SVG/1.1/DTD/svg11.dtd">
<svg version="1.1" id="Livello_1" xmlns="http://www.w3.org/2000/svg" xmlns:xlink="http://www.w3.org/1999/xlink" x="0px" y="0px"
	 width="18px" height="20px" viewBox="0 0 18 20" enable-background="new 0 0 18 20" xml:space="preserve">
<path fill-rule="evenodd" clip-rule="evenodd" fill="#004594" d="M11.748,8.795C12.516,8.066,13,7.042,13,5.9c0-2.209-1.791-4-4-4
	s-4,1.791-4,4c0,1.142,0.484,2.166,1.252,2.895C3.19,9.917,1,12.849,1,16.3c0,0.442,0.358,0.8,0.8,0.8c0.442,0,0.8-0.358,0.8-0.8
	c0-3.535,2.865-6.4,6.4-6.4c3.535,0,6.4,2.865,6.4,6.4c0,0.442,0.358,0.8,0.8,0.8c0.442,0,0.8-0.358,0.8-0.8
	C17,12.849,14.811,9.917,11.748,8.795z M6.6,5.9c0-1.326,1.075-2.4,2.4-2.4s2.4,1.075,2.4,2.4c0,1.325-1.075,2.4-2.4,2.4
	S6.6,7.225,6.6,5.9z"/>
<path fill-rule="evenodd" clip-rule="evenodd" fill="#004594" d="M9,13c0.552,0,1,0.448,1,1c0,0.552-0.448,1-1,1s-1-0.448-1-1
	C8,13.448,8.448,13,9,13z"/>
<path fill-rule="evenodd" clip-rule="evenodd" fill="#004594" d="M9,17c0.552,0,1,0.448,1,1c0,0.552-0.448,1-1,1s-1-0.448-1-1
	C8,17.448,8.448,17,9,17z"/>
<path fill-rule="evenodd" clip-rule="evenodd" fill="#004594" d="M7,15c0.552,0,1,0.448,1,1c0,0.552-0.448,1-1,1s-1-0.448-1-1
	C6,15.448,6.448,15,7,15z"/>
<path fill-rule="evenodd" clip-rule="evenodd" fill="#004594" d="M11,15c0.552,0,1,0.448,1,1c0,0.552-0.448,1-1,1s-1-0.448-1-1
	C10,15.448,10.448,15,11,15z"/>
<path fill-rule="evenodd" clip-rule="evenodd" fill="#004594" d="M8,14h2v4H8V14z"/>
<path fill-rule="evenodd" clip-rule="evenodd" fill="#004594" d="M7,15h4v2H7V15z"/>
</svg>
