<?xml version="1.0" encoding="utf-8"?>
<!-- Generator: Adobe Illustrator 17.0.0, SVG Export Plug-In . SVG Version: 6.00 Build 0)  -->
<!DOCTYPE svg PUBLIC "-//W3C//DTD SVG 1.1//EN" "http://www.w3.org/Graphics/SVG/1.1/DTD/svg11.dtd">
<svg version="1.1" id="Livello_1" xmlns="http://www.w3.org/2000/svg" xmlns:xlink="http://www.w3.org/1999/xlink" x="0px" y="0px"
	 width="34px" height="34px" viewBox="0 0 34 34" enable-background="new 0 0 34 34" xml:space="preserve">
<path fill-rule="evenodd" clip-rule="evenodd" fill="#0050a0" d="M17,0c9.389,0,17,7.612,17,17c0,9.389-7.611,17-17,17
	C7.611,34,0,26.389,0,17C0,7.611,7.611,0,17,0z"/>
<path fill-rule="evenodd" clip-rule="evenodd" fill="#FFFFFF" d="M17,3c7.732,0,14,6.268,14,14c0,7.732-6.268,14-14,14
	C9.268,31,3,24.732,3,17C3,9.268,9.268,3,17,3z"/>
<g>
	<polygon fill-rule="evenodd" clip-rule="evenodd" fill="#0050a0" points="27,16 25,16 25,14 23,14 23,16 21,16 21,18 23,18 23,20 
		25,20 25,18 27,18 	"/>
	<path fill-rule="evenodd" clip-rule="evenodd" fill="#0050a0" d="M12.91,18h3.657c-0.439,1.566-1.861,2.72-3.567,2.72
		c-2.055,0-3.72-1.665-3.72-3.72c0-2.055,1.666-3.72,3.72-3.72c1.027,0,1.957,0.416,2.63,1.09l1.612-1.612
		C16.157,11.671,14.657,11,13,11c-3.314,0-6,2.686-6,6s2.686,6,6,6c2.972,0,5.433-2.163,5.91-5v-2h-6V18z"/>
</g>
</svg>
