<?xml version="1.0" encoding="utf-8"?>
<!-- Generator: Adobe Illustrator 17.0.0, SVG Export Plug-In . SVG Version: 6.00 Build 0)  -->
<!DOCTYPE svg PUBLIC "-//W3C//DTD SVG 1.1//EN" "http://www.w3.org/Graphics/SVG/1.1/DTD/svg11.dtd">
<svg version="1.1" id="Livello_1" xmlns="http://www.w3.org/2000/svg" xmlns:xlink="http://www.w3.org/1999/xlink" x="0px" y="0px"
	 width="124.49px" height="138.989px" viewBox="0 0 124.49 138.989" enable-background="new 0 0 124.49 138.989"
	 xml:space="preserve">
<path fill="#FFFFFF" d="M62.243,117.921c12.09,0,21.781-7.653,25.936-18.436h-51.87C40.462,110.269,50.147,117.921,62.243,117.921z"
	/>
<path fill="#FFFFFF" d="M49.274,63.934c0-5.089-4.062-9.215-9.078-9.215c-5.011,0-9.074,4.126-9.074,9.215
	c0,5.089,4.063,9.217,9.074,9.217C45.212,73.151,49.274,69.023,49.274,63.934z"/>
<path fill="#FFFFFF" d="M84.287,54.719c-5.012,0-9.077,4.126-9.077,9.215c0,5.089,4.065,9.217,9.077,9.217
	c5.016,0,9.079-4.128,9.079-9.217C93.366,58.845,89.303,54.719,84.287,54.719z"/>
<path fill="#FFFFFF" d="M105.876,30.733c-1.952-5.343-7.349-17.284-19.151-26.902c-1.673-1.368-4.122-1.087-5.469,0.613
	c-1.345,1.698-1.079,4.186,0.595,5.552c2.983,2.426,5.478,5.05,7.595,7.649C81.55,10.565,70.732,2.688,59.495,0.101
	c-1.448-0.341-2.957,0.2-3.89,1.372c-0.931,1.176-1.124,2.787-0.496,4.15l2.763,6.022C54.102,10.51,49.6,9.551,45.212,9.551
	c-3.443,0-6.513,0.594-9.119,1.762c-9.069,4.073-14.805,10.622-16.131,18.106C7.689,40.962,0,57.46,0,75.786
	c0,34.906,27.865,63.203,62.243,63.203c34.373,0,62.246-28.297,62.246-63.203C124.486,58.145,117.355,42.198,105.876,30.733z
	 M62.243,128.452c-28.601,0-51.87-23.629-51.87-52.669c0-12.955,4.643-24.809,12.313-33.989c3.348,3.942,9.376,6.117,17.543,6.117
	c2.399,0,4.091-0.2,4.164-0.21c1.881-0.222,3.332-1.792,3.429-3.716c0.097-1.923-1.184-3.637-3.035-4.057
	c-0.005,0-0.58-0.243-0.856-0.745c-0.421-0.764-0.315-2.217,0.286-3.984c0.645-1.896,2.613-7.651,15.637-7.651
	c14.097,0,31.946,6.79,36.41,8.58c10.911,9.663,17.847,23.841,17.847,39.657C114.115,104.826,90.844,128.452,62.243,128.452z"/>
</svg>
