<?xml version="1.0" encoding="utf-8"?>
<!-- Generator: Adobe Illustrator 17.0.0, SVG Export Plug-In . SVG Version: 6.00 Build 0)  -->
<!DOCTYPE svg PUBLIC "-//W3C//DTD SVG 1.1//EN" "http://www.w3.org/Graphics/SVG/1.1/DTD/svg11.dtd">
<svg version="1.1" id="Livello_1" xmlns="http://www.w3.org/2000/svg" xmlns:xlink="http://www.w3.org/1999/xlink" x="0px" y="0px"
	 width="160.804px" height="116.687px" viewBox="0 0 160.804 116.687" enable-background="new 0 0 160.804 116.687"
	 xml:space="preserve">
<path fill-rule="evenodd" clip-rule="evenodd" fill="#FFFFFF" d="M93.252,48.442H67.95c2.026,5.25,6.75,8.977,12.65,8.977
	C86.498,57.419,91.225,53.693,93.252,48.442z"/>
<path fill-rule="evenodd" clip-rule="evenodd" fill="#FFFFFF" d="M74.274,31.131c0-2.478-1.981-4.487-4.428-4.487
	c-2.444,0-4.426,2.009-4.426,4.487c0,2.478,1.982,4.488,4.426,4.488C72.293,35.619,74.274,33.609,74.274,31.131z"/>
<path fill-rule="evenodd" clip-rule="evenodd" fill="#FFFFFF" d="M91.353,35.619c2.447,0,4.428-2.01,4.428-4.488
	c0-2.478-1.982-4.487-4.428-4.487c-2.445,0-4.428,2.009-4.428,4.487C86.926,33.609,88.908,35.619,91.353,35.619z"/>
<path fill-rule="evenodd" clip-rule="evenodd" fill="#FFFFFF" d="M132.299,114.285c-0.272-23.821-16.594-43.782-38.664-49.583
	c10.245-4.944,17.329-15.532,17.329-27.799c-0.002-8.59-3.48-16.355-9.079-21.938c-0.952-2.602-3.585-8.416-9.341-13.099
	c-0.816-0.666-2.011-0.529-2.668,0.299c-0.656,0.827-0.526,2.038,0.29,2.704c1.455,1.181,2.672,2.459,3.704,3.724
	c-3.852-3.448-9.129-7.283-14.61-8.543c-0.706-0.166-1.442,0.097-1.897,0.668c-0.454,0.573-0.548,1.357-0.242,2.021l1.348,2.933
	c-1.839-0.553-4.035-1.02-6.176-1.02c-1.68,0-3.177,0.289-4.448,0.858c-4.424,1.983-7.222,5.172-7.869,8.816
	c-5.987,5.621-9.737,13.654-9.737,22.578c0,12.208,7.012,22.755,17.177,27.729c-22.205,5.719-38.651,25.757-38.912,49.679
	c0,0.007-0.002,0.013-0.002,0.02c0,0.003,0.001,0.006,0.001,0.01c0,0.009-0.001,0.018-0.001,0.028h0.004
	c0.021,1.284,1.064,2.319,2.353,2.319c1.302,0,2.357-1.055,2.357-2.356c0-0.047-0.011-0.091-0.014-0.137
	c0.372-25.748,21.354-46.51,47.2-46.51c25.905,0,46.927,20.855,47.206,46.684h0.011c0.03,1.266,1.063,2.284,2.339,2.284
	c1.276,0,2.309-1.018,2.339-2.284h0.006c0-0.014-0.001-0.027-0.001-0.041c0-0.005,0.001-0.009,0.001-0.014
	C132.302,114.304,132.299,114.295,132.299,114.285z M55.299,36.9c0-6.308,2.265-12.08,6.007-16.55
	c1.633,1.92,4.573,2.978,8.557,2.978c1.17,0,1.996-0.097,2.031-0.102c0.918-0.108,1.625-0.873,1.673-1.81
	c0.047-0.936-0.578-1.771-1.481-1.976c-0.003,0-0.283-0.118-0.417-0.363c-0.206-0.372-0.154-1.08,0.14-1.94
	c0.315-0.923,1.274-3.726,7.628-3.726c6.876,0,15.583,3.306,17.761,4.178c5.322,4.705,8.705,11.609,8.705,19.31
	c0.001,14.142-11.35,25.646-25.301,25.646S55.299,51.041,55.299,36.9z"/>
<path fill-rule="evenodd" clip-rule="evenodd" fill="#FFFFFF" d="M36.26,59.062H22.091c1.134,2.94,3.78,5.027,7.084,5.027
	C32.478,64.089,35.125,62.003,36.26,59.062z"/>
<path fill-rule="evenodd" clip-rule="evenodd" fill="#FFFFFF" d="M25.633,49.368c0-1.388-1.11-2.513-2.48-2.513
	c-1.369,0-2.479,1.125-2.479,2.513c0,1.388,1.11,2.514,2.479,2.514C24.523,51.882,25.633,50.756,25.633,49.368z"/>
<path fill-rule="evenodd" clip-rule="evenodd" fill="#FFFFFF" d="M35.197,51.882c1.37,0,2.48-1.126,2.48-2.514
	c0-1.388-1.11-2.513-2.48-2.513c-1.369,0-2.48,1.125-2.48,2.513C32.717,50.756,33.828,51.882,35.197,51.882z"/>
<path fill-rule="evenodd" clip-rule="evenodd" fill="#FFFFFF" d="M28.875,69.819c0.101,0.002,0.199,0.015,0.3,0.015
	c0.063,0,0.123-0.009,0.186-0.01c5.013,0.056,9.69,1.503,13.662,3.978c0.672-0.618,1.358-1.22,2.06-1.804
	c-2.609-1.727-5.52-3.026-8.627-3.843c5.742-2.767,9.722-8.683,9.722-15.556c-0.001-4.81-1.949-9.159-5.084-12.285
	c-0.533-1.457-2.007-4.713-5.231-7.336c-0.457-0.373-1.126-0.296-1.494,0.167c-0.368,0.463-0.295,1.141,0.162,1.514
	c0.815,0.662,1.496,1.377,2.075,2.086c-2.157-1.931-5.112-4.079-8.182-4.784c-0.396-0.093-0.808,0.054-1.062,0.374
	c-0.254,0.321-0.307,0.76-0.135,1.132l0.755,1.642c-1.03-0.31-2.26-0.571-3.458-0.571c-0.94,0-1.779,0.162-2.491,0.481
	c-2.478,1.11-4.044,2.896-4.406,4.937c-3.353,3.148-5.453,7.646-5.453,12.644c0,6.832,3.932,12.718,9.618,15.506
	C9.414,71.294,0.235,82.428,0.007,95.743C0.006,95.769,0,95.792,0,95.818c0,0.012,0.003,0.024,0.004,0.036
	C0.003,95.888,0,95.922,0,95.957h0.014c0.07,0.665,0.624,1.185,1.305,1.185s1.234-0.52,1.305-1.185h0.006
	c0-0.029,0.003-0.057,0.003-0.086c0.001-0.018,0.005-0.035,0.005-0.053c0-0.009-0.002-0.017-0.003-0.025
	C2.877,81.468,14.511,69.92,28.875,69.819z M15.006,52.599c0-3.533,1.268-6.765,3.364-9.268c0.915,1.075,2.561,1.668,4.792,1.668
	c0.655,0,1.118-0.054,1.138-0.057c0.514-0.06,0.91-0.489,0.937-1.014c0.026-0.524-0.323-0.992-0.829-1.106
	c-0.001,0-0.158-0.066-0.234-0.203c-0.115-0.208-0.086-0.605,0.078-1.086c0.176-0.517,0.714-2.086,4.271-2.086
	c3.851,0,8.727,1.851,9.946,2.34c2.981,2.635,4.875,6.501,4.875,10.813c0.001,7.919-6.356,14.362-14.169,14.362
	S15.006,60.518,15.006,52.599z"/>
<path fill-rule="evenodd" clip-rule="evenodd" fill="#FFFFFF" d="M131.851,64.089c3.303,0,5.95-2.087,7.085-5.027h-14.169
	C125.901,62.003,128.547,64.089,131.851,64.089z"/>
<path fill-rule="evenodd" clip-rule="evenodd" fill="#FFFFFF" d="M128.308,49.368c0-1.388-1.11-2.513-2.48-2.513
	c-1.369,0-2.479,1.125-2.479,2.513c0,1.388,1.11,2.514,2.479,2.514C127.199,51.882,128.308,50.756,128.308,49.368z"/>
<path fill-rule="evenodd" clip-rule="evenodd" fill="#FFFFFF" d="M137.872,46.855c-1.369,0-2.48,1.125-2.48,2.513
	c0,1.388,1.11,2.514,2.48,2.514c1.37,0,2.48-1.126,2.48-2.514C140.352,47.98,139.243,46.855,137.872,46.855z"/>
<path fill-rule="evenodd" clip-rule="evenodd" fill="#FFFFFF" d="M160.804,95.957c-0.131-13.359-9.277-24.558-21.649-27.812
	c5.73-2.772,9.699-8.681,9.699-15.545c-0.001-4.81-1.949-9.159-5.084-12.285c-0.533-1.457-2.007-4.713-5.231-7.336
	c-0.457-0.373-1.126-0.296-1.494,0.167c-0.367,0.463-0.295,1.141,0.163,1.514c0.815,0.662,1.496,1.377,2.075,2.086
	c-2.157-1.931-5.112-4.079-8.182-4.784c-0.396-0.093-0.807,0.054-1.062,0.374c-0.254,0.321-0.307,0.76-0.135,1.132l0.755,1.642
	c-1.03-0.31-2.26-0.571-3.458-0.571c-0.941,0-1.779,0.162-2.491,0.481c-2.477,1.11-4.044,2.896-4.406,4.937
	c-3.353,3.148-5.453,7.646-5.453,12.644c0,6.842,3.943,12.735,9.644,15.518c-3.116,0.802-6.037,2.091-8.657,3.808
	c0.703,0.583,1.391,1.184,2.065,1.801c3.981-2.451,8.661-3.875,13.673-3.907c0.094,0.002,0.184,0.014,0.278,0.014
	c0.077,0,0.151-0.011,0.227-0.012c14.346,0.181,25.935,11.776,26.097,26.121c0,0.009-0.003,0.018-0.003,0.028
	c0,0.745,0.589,1.349,1.316,1.349c0.727,0,1.316-0.604,1.316-1.349c0-0.005-0.001-0.01-0.001-0.015H160.804z M131.851,66.961
	c-7.813,0-14.169-6.443-14.169-14.362c0-3.533,1.268-6.765,3.364-9.268c0.915,1.075,2.561,1.668,4.792,1.668
	c0.656,0,1.118-0.054,1.138-0.057c0.514-0.06,0.91-0.489,0.937-1.014c0.027-0.524-0.323-0.992-0.829-1.106
	c-0.001,0-0.158-0.066-0.234-0.203c-0.115-0.208-0.086-0.605,0.078-1.086c0.176-0.517,0.714-2.086,4.271-2.086
	c3.851,0,8.726,1.851,9.946,2.34c2.981,2.635,4.875,6.501,4.875,10.813C146.02,60.518,139.664,66.961,131.851,66.961z"/>
</svg>
