<?xml version="1.0" encoding="utf-8"?>
<!-- Generator: Adobe Illustrator 17.0.0, SVG Export Plug-In . SVG Version: 6.00 Build 0)  -->
<!DOCTYPE svg PUBLIC "-//W3C//DTD SVG 1.1//EN" "http://www.w3.org/Graphics/SVG/1.1/DTD/svg11.dtd">
<svg version="1.1" id="Livello_1" xmlns="http://www.w3.org/2000/svg" xmlns:xlink="http://www.w3.org/1999/xlink" x="0px" y="0px"
	 width="5.752px" height="20.323px" viewBox="0 0 5.752 20.323" enable-background="new 0 0 5.752 20.323" xml:space="preserve">
<path fill-rule="evenodd" clip-rule="evenodd" fill="#C70000" d="M5.24,9.702H2.169c-0.283,0-0.512,0.231-0.512,0.516
	c0,0.285,0.229,0.517,0.512,0.517H5.24c0.283,0,0.512-0.231,0.512-0.517C5.752,9.933,5.523,9.702,5.24,9.702z"/>
<path fill-rule="evenodd" clip-rule="evenodd" fill="#C70000" d="M0.936,3.075l2.168-2.194c0.2-0.202,0.199-0.529-0.001-0.73
	c-0.2-0.201-0.525-0.201-0.724,0.001L0.21,2.347c-0.2,0.202-0.199,0.529,0.001,0.73C0.412,3.278,0.736,3.277,0.936,3.075z"/>
<path fill-rule="evenodd" clip-rule="evenodd" fill="#C70000" d="M0.861,17.302c-0.197-0.198-0.516-0.199-0.713-0.001
	c-0.197,0.198-0.198,0.519-0.001,0.717l2.135,2.156c0.197,0.199,0.516,0.199,0.713,0.001c0.197-0.198,0.198-0.519,0.001-0.717
	L0.861,17.302z"/>
</svg>
