<?xml version="1.0" encoding="utf-8"?>
<!-- Generator: Adobe Illustrator 16.0.0, SVG Export Plug-In . SVG Version: 6.00 Build 0)  -->
<!DOCTYPE svg PUBLIC "-//W3C//DTD SVG 1.1//EN" "http://www.w3.org/Graphics/SVG/1.1/DTD/svg11.dtd">
<svg version="1.1" id="Livello_1" xmlns="http://www.w3.org/2000/svg" xmlns:xlink="http://www.w3.org/1999/xlink" x="0px" y="0px"
	 width="258.697px" height="227.016px" viewBox="0 0 258.697 227.016" enable-background="new 0 0 258.697 227.016"
	 xml:space="preserve">
<path opacity="0.1" fill="#FFFFFF" d="M258.598,161.955c-0.586-3.171-3.7-5.238-6.951-4.614l-197.594,38l-21.16-36.467
	L165.965,9.677c2.186-2.452,1.957-6.154-0.519-8.261c-2.469-2.109-6.25-1.829-8.444,0.629L18.288,157.57l29.517,50.868l42.434-8.159
	l2.359,13.184c0.779,4.372,3.261,8.158,6.975,10.659c3.717,2.505,8.228,3.425,12.708,2.597l46.827-8.691
	c1.912-0.359,3.738-1.021,5.421-1.973c6.265-3.549,9.643-10.585,8.406-17.5l-2.452-13.702l83.301-16.017
	c0.679-0.132,1.303-0.363,1.869-0.686C257.813,166.927,259.069,164.472,258.598,161.955z M158.66,205.939
	c-0.496,0.28-1.037,0.471-1.611,0.581l-46.831,8.686c-2.737,0.508-5.36-1.25-5.838-3.926l-2.112-11.809l56.77-10.538l2.111,11.809
	C161.52,202.795,160.521,204.885,158.66,205.939z"/>
<path opacity="0.1" fill="#FFFFFF" d="M11.192,166.619c-1.622-2.793-5.267-3.736-8.145-2.108c-2.879,1.631-3.897,5.216-2.275,8.01
	l25.216,43.458c1.621,2.792,5.269,3.74,8.148,2.111c2.877-1.63,3.893-5.217,2.272-8.011L11.192,166.619z"/>
</svg>
