<?xml version="1.0" encoding="utf-8"?>
<!-- Generator: Adobe Illustrator 17.0.0, SVG Export Plug-In . SVG Version: 6.00 Build 0)  -->
<!DOCTYPE svg PUBLIC "-//W3C//DTD SVG 1.1//EN" "http://www.w3.org/Graphics/SVG/1.1/DTD/svg11.dtd">
<svg version="1.1" id="Livello_1" xmlns="http://www.w3.org/2000/svg" xmlns:xlink="http://www.w3.org/1999/xlink" x="0px" y="0px"
	 width="183.99px" height="227.015px" viewBox="0 0 183.99 227.015" enable-background="new 0 0 183.99 227.015"
	 xml:space="preserve">
<g>
	<path fill="#7163A8" d="M183.99,163.119L16.444,195.34L0,167.002v23.866l10.195,17.571l42.434-8.159l2.359,13.184
		c0.78,4.372,3.261,8.158,6.975,10.659c3.717,2.504,8.228,3.425,12.708,2.597l46.827-8.692c1.912-0.359,3.738-1.02,5.421-1.973
		c6.265-3.548,9.643-10.584,8.406-17.5l-2.452-13.703l51.117-9.828V163.119z M121.051,205.939c-0.496,0.281-1.037,0.471-1.611,0.581
		l-46.831,8.686c-2.738,0.508-5.361-1.25-5.838-3.926l-2.113-11.809l56.77-10.538l2.111,11.809
		C123.91,202.795,122.912,204.885,121.051,205.939z"/>
	<path fill="#7163A8" d="M0,153.585L128.356,9.677c2.185-2.453,1.957-6.155-0.519-8.261c-2.469-2.11-6.25-1.829-8.444,0.629
		L0,135.908V153.585z"/>
</g>
</svg>
