<?xml version="1.0" encoding="utf-8"?>
<!-- Generator: Adobe Illustrator 17.0.0, SVG Export Plug-In . SVG Version: 6.00 Build 0)  -->
<!DOCTYPE svg PUBLIC "-//W3C//DTD SVG 1.1//EN" "http://www.w3.org/Graphics/SVG/1.1/DTD/svg11.dtd">
<svg version="1.1" id="Livello_1" xmlns="http://www.w3.org/2000/svg" xmlns:xlink="http://www.w3.org/1999/xlink" x="0px" y="0px"
	 width="258.697px" height="227.015px" viewBox="0 0 258.697 227.015" enable-background="new 0 0 258.697 227.015"
	 xml:space="preserve">
<path fill="#7163A8" d="M258.598,161.955c-0.586-3.171-3.7-5.238-6.951-4.614l-197.594,38l-21.16-36.467L165.965,9.677
	c2.185-2.453,1.957-6.155-0.519-8.261c-2.469-2.11-6.25-1.829-8.444,0.629L18.288,157.57l29.516,50.868l42.434-8.159l2.359,13.184
	c0.78,4.372,3.261,8.158,6.975,10.659c3.717,2.505,8.228,3.425,12.708,2.597l46.827-8.692c1.912-0.359,3.738-1.02,5.421-1.973
	c6.265-3.548,9.643-10.584,8.406-17.5l-2.452-13.702l83.301-16.016c0.679-0.132,1.303-0.364,1.869-0.686
	C257.813,166.927,259.069,164.472,258.598,161.955z M158.66,205.939c-0.496,0.281-1.037,0.471-1.611,0.581l-46.831,8.686
	c-2.738,0.508-5.361-1.25-5.838-3.926l-2.113-11.809l56.77-10.538l2.111,11.809C161.52,202.795,160.521,204.885,158.66,205.939z"/>
<path fill="#7163A8" d="M11.192,166.619c-1.622-2.793-5.266-3.736-8.144-2.108c-2.879,1.63-3.898,5.215-2.276,8.009l25.216,43.458
	c1.621,2.792,5.269,3.741,8.148,2.112c2.877-1.63,3.893-5.217,2.273-8.011L11.192,166.619z"/>
</svg>
