<?xml version="1.0" encoding="utf-8"?>
<!-- Generator: Adobe Illustrator 17.0.0, SVG Export Plug-In . SVG Version: 6.00 Build 0)  -->
<!DOCTYPE svg PUBLIC "-//W3C//DTD SVG 1.1//EN" "http://www.w3.org/Graphics/SVG/1.1/DTD/svg11.dtd">
<svg version="1.1" id="Livello_1" xmlns="http://www.w3.org/2000/svg" xmlns:xlink="http://www.w3.org/1999/xlink" x="0px" y="0px"
	 width="21.504px" height="20.323px" viewBox="0 0 21.504 20.323" enable-background="new 0 0 21.504 20.323" xml:space="preserve">
<path fill-rule="evenodd" clip-rule="evenodd" fill="#6AB5AC" d="M21.11,17.793L9.971,15.252l-3.685-0.841l-2.977-0.679l-0.346-3.78
	l16.644-7.381c0.256-0.114,0.371-0.412,0.257-0.667c-0.114-0.255-0.413-0.37-0.669-0.257L1.838,9.37l0.648,5.213l3.573,0.815
	l-0.264,1.15c-0.208,0.907,0.36,1.811,1.27,2.018l4.118,0.939c0.91,0.207,1.816-0.36,2.024-1.267l0.264-1.15l7.412,1.691
	c0.273,0.062,0.545-0.108,0.607-0.38C21.553,18.127,21.382,17.856,21.11,17.793z M11.928,17.773c-0.083,0.363-0.446,0.59-0.81,0.507
	l-3.459-0.789c-0.364-0.083-0.591-0.444-0.508-0.807l0.226-0.986l4.777,1.09L11.928,17.773z"/>
<path fill-rule="evenodd" clip-rule="evenodd" fill="#6AB5AC" d="M1.011,9.713c-0.029-0.278-0.277-0.48-0.556-0.452
	C0.177,9.289-0.026,9.537,0.003,9.815l0.479,4.694c0.028,0.278,0.277,0.48,0.556,0.452c0.278-0.028,0.481-0.276,0.453-0.554
	L1.011,9.713z"/>
</svg>
