<?xml version="1.0" encoding="utf-8"?>
<!-- Generator: Adobe Illustrator 17.0.0, SVG Export Plug-In . SVG Version: 6.00 Build 0)  -->
<!DOCTYPE svg PUBLIC "-//W3C//DTD SVG 1.1//EN" "http://www.w3.org/Graphics/SVG/1.1/DTD/svg11.dtd">
<svg version="1.1" id="Livello_1" xmlns="http://www.w3.org/2000/svg" xmlns:xlink="http://www.w3.org/1999/xlink" x="0px" y="0px"
	 width="24px" height="24px" viewBox="0 0 24 24" enable-background="new 0 0 24 24" xml:space="preserve">
<path fill-rule="evenodd" clip-rule="evenodd" fill="#FFAE00" d="M12,0C5.373,0,0,5.373,0,12c0,6.627,5.373,12,12,12s12-5.373,12-12
	C24,5.373,18.627,0,12,0z M12,19.059c-0.78,0-1.412-0.632-1.412-1.412c0-0.78,0.632-1.412,1.412-1.412s1.412,0.632,1.412,1.412
	C13.412,18.427,12.78,19.059,12,19.059z M13.412,7.412c0,2.103-1.015,7.412-1.412,7.412s-1.412-5.294-1.412-7.412
	c0-0.854,0-1.245,0-1.412c0-0.585,0.474-1.059,1.059-1.059h0.706c0.585,0,1.059,0.474,1.059,1.059
	C13.412,6.164,13.412,6.553,13.412,7.412z"/>
</svg>
