<?xml version="1.0" encoding="utf-8"?>
<!-- Generator: Adobe Illustrator 17.0.0, SVG Export Plug-In . SVG Version: 6.00 Build 0)  -->
<!DOCTYPE svg PUBLIC "-//W3C//DTD SVG 1.1//EN" "http://www.w3.org/Graphics/SVG/1.1/DTD/svg11.dtd">
<svg version="1.1" id="Livello_1" xmlns="http://www.w3.org/2000/svg" xmlns:xlink="http://www.w3.org/1999/xlink" x="0px" y="0px"
	 width="34px" height="34px" viewBox="0 0 34 34" enable-background="new 0 0 34 34" xml:space="preserve">
<path fill="#1a62aa" d="M17,0c9.389,0,17,7.611,17,17s-7.611,17-17,17S0,26.389,0,17S7.611,0,17,0z"/>
<g>
	<path fill="#FFFFFF" d="M21.738,17.727c-2.983-1.495-6.491-1.495-9.475,0c-0.494,0.248-0.694,0.848-0.446,1.342
		c0.247,0.493,0.848,0.694,1.342,0.446c2.423-1.214,5.261-1.214,7.683,0c0.144,0.072,0.297,0.106,0.447,0.106
		c0.366,0,0.719-0.203,0.895-0.552C22.431,18.575,22.232,17.975,21.738,17.727z"/>
	<circle fill="#FFFFFF" cx="17" cy="24.04" r="2.88"/>
	<path fill="#FFFFFF" d="M25.169,10.863C22.596,9.574,19.847,8.92,17,8.92s-5.595,0.654-8.169,1.943
		c-0.493,0.247-0.694,0.848-0.446,1.342c0.247,0.493,0.848,0.694,1.342,0.446c4.587-2.297,9.961-2.296,14.547,0
		c0.144,0.072,0.297,0.106,0.447,0.106c0.366,0,0.719-0.202,0.894-0.552C25.863,11.711,25.663,11.11,25.169,10.863z"/>
	<path fill="#FFFFFF" d="M23.452,14.295c-4.066-2.037-8.84-2.037-12.906,0c-0.494,0.248-0.694,0.848-0.446,1.342
		c0.247,0.493,0.848,0.694,1.342,0.446c3.506-1.756,7.609-1.756,11.115,0c0.144,0.072,0.297,0.106,0.447,0.106
		c0.367,0,0.72-0.202,0.894-0.552C24.146,15.143,23.946,14.543,23.452,14.295z"/>
</g>
</svg>
