<?xml version="1.0" encoding="utf-8"?>
<!-- Generator: Adobe Illustrator 17.0.0, SVG Export Plug-In . SVG Version: 6.00 Build 0)  -->
<!DOCTYPE svg PUBLIC "-//W3C//DTD SVG 1.1//EN" "http://www.w3.org/Graphics/SVG/1.1/DTD/svg11.dtd">
<svg version="1.1" id="Livello_1" xmlns="http://www.w3.org/2000/svg" xmlns:xlink="http://www.w3.org/1999/xlink" x="0px" y="0px"
	 width="21.799px" height="18px" viewBox="0 0 21.799 18" enable-background="new 0 0 21.799 18" xml:space="preserve">
<path fill="#FFFFFF" d="M10.899,8c-1.87,0-3.627,0.728-4.95,2.05c-0.391,0.39-0.391,1.023,0,1.414c0.391,0.39,1.023,0.39,1.414,0
	C8.308,10.52,9.564,10,10.899,10s2.591,0.52,3.536,1.464c0.195,0.195,0.451,0.293,0.707,0.293c0.256,0,0.512-0.098,0.707-0.293
	c0.391-0.391,0.391-1.024,0-1.414C14.527,8.728,12.769,8,10.899,8z"/>
<path fill="#FFFFFF" d="M10.899,12c-1.657,0-3,1.343-3,3c0,1.657,1.343,3,3,3s3-1.343,3-3C13.899,13.343,12.556,12,10.899,12z"/>
<path fill="#FFFFFF" d="M10.899,4c-2.938,0-5.7,1.144-7.778,3.222c-0.391,0.39-0.391,1.023,0,1.414c0.391,0.391,1.023,0.391,1.414,0
	C6.235,6.936,8.496,6,10.899,6s4.664,0.936,6.364,2.636c0.195,0.195,0.451,0.293,0.707,0.293c0.256,0,0.512-0.097,0.707-0.293
	c0.391-0.391,0.391-1.024,0-1.414C16.6,5.144,13.837,4,10.899,4z"/>
<path fill="#FFFFFF" d="M21.506,4.393C18.673,1.561,14.907,0,10.899,0S3.126,1.561,0.293,4.393c-0.391,0.391-0.391,1.024,0,1.414
	c0.391,0.39,1.023,0.39,1.414,0C4.162,3.352,7.427,2,10.899,2s6.737,1.352,9.192,3.808c0.195,0.195,0.451,0.293,0.707,0.293
	c0.256,0,0.512-0.098,0.707-0.293C21.897,5.418,21.897,4.784,21.506,4.393z"/>
</svg>
