<?xml version="1.0" encoding="utf-8"?>
<!-- Generator: Adobe Illustrator 17.0.0, SVG Export Plug-In . SVG Version: 6.00 Build 0)  -->
<!DOCTYPE svg PUBLIC "-//W3C//DTD SVG 1.1//EN" "http://www.w3.org/Graphics/SVG/1.1/DTD/svg11.dtd">
<svg version="1.1" id="Livello_1" xmlns="http://www.w3.org/2000/svg" xmlns:xlink="http://www.w3.org/1999/xlink" x="0px" y="0px"
	 width="34px" height="34px" viewBox="0 0 34 34" enable-background="new 0 0 34 34" xml:space="preserve">
<path fill-rule="evenodd" clip-rule="evenodd" fill="#FFFFFF" d="M17,0c9.389,0,17,7.611,17,17c0,9.389-7.611,17-17,17
	C7.611,34,0,26.389,0,17C0,7.611,7.611,0,17,0z"/>
<path fill-rule="evenodd" clip-rule="evenodd" fill="#1a62aa" d="M17,3c7.732,0,14,6.268,14,14s-6.268,14-14,14
	C9.268,31,3,24.732,3,17S9.268,3,17,3z"/>
<path fill="#FFFFFF" d="M21.289,19.621c-0.15,0-0.303-0.034-0.447-0.106c-2.422-1.214-5.26-1.214-7.683,0
	c-0.494,0.248-1.095,0.047-1.342-0.446c-0.248-0.494-0.048-1.094,0.446-1.342c2.984-1.495,6.492-1.495,9.475,0
	c0.494,0.248,0.693,0.848,0.446,1.342C22.008,19.418,21.655,19.621,21.289,19.621z"/>
<path fill-rule="evenodd" clip-rule="evenodd" fill="#FFFFFF" d="M17,21.16c1.591,0,2.88,1.289,2.88,2.88s-1.289,2.88-2.88,2.88
	c-1.591,0-2.88-1.289-2.88-2.88S15.409,21.16,17,21.16z"/>
<path fill="#FFFFFF" d="M24.721,12.757c-0.15,0-0.303-0.034-0.447-0.106c-4.586-2.296-9.96-2.297-14.547,0
	c-0.494,0.248-1.095,0.047-1.342-0.446c-0.248-0.494-0.047-1.095,0.446-1.342C11.405,9.574,14.153,8.92,17,8.92
	s5.596,0.654,8.169,1.943c0.494,0.247,0.694,0.848,0.446,1.342C25.44,12.555,25.087,12.757,24.721,12.757z"/>
<path fill="#FFFFFF" d="M23.004,16.189c-0.15,0-0.303-0.034-0.447-0.106c-3.506-1.756-7.609-1.756-11.115,0
	c-0.494,0.248-1.095,0.047-1.342-0.446c-0.248-0.494-0.048-1.094,0.446-1.342c4.066-2.037,8.84-2.037,12.906,0
	c0.494,0.248,0.694,0.848,0.446,1.342C23.724,15.987,23.371,16.189,23.004,16.189z"/>
</svg>
