<?xml version="1.0" encoding="utf-8"?>
<!-- Generator: Adobe Illustrator 17.0.0, SVG Export Plug-In . SVG Version: 6.00 Build 0)  -->
<!DOCTYPE svg PUBLIC "-//W3C//DTD SVG 1.1//EN" "http://www.w3.org/Graphics/SVG/1.1/DTD/svg11.dtd">
<svg version="1.1" id="Livello_1" xmlns="http://www.w3.org/2000/svg" xmlns:xlink="http://www.w3.org/1999/xlink" x="0px" y="0px"
	 width="21.136px" height="21.475px" viewBox="0 0 21.136 21.475" enable-background="new 0 0 21.136 21.475" xml:space="preserve">
<path fill-rule="evenodd" clip-rule="evenodd" fill="#FFFFFF" d="M18.381,14.627c0.017-0.029,0.04-0.052,0.057-0.08l-0.006-0.003
	l1.66-2.874c2.148-3.72,0.873-8.478-2.847-10.626C13.525-1.105,8.768,0.17,6.62,3.891L4.96,6.765L4.949,6.758
	c-0.016,0.029-0.024,0.061-0.04,0.09C4.486,7.579,2.951,8.169,2.951,8.169C1.731,8.323,0.796,8.792,0.326,9.605
	c-1.345,2.329,1.587,6.538,6.547,9.403c4.961,2.864,10.072,3.297,11.417,0.969c0.469-0.813,0.408-1.857-0.069-2.991
	C18.221,16.985,17.958,15.36,18.381,14.627z M16.497,18.935c-0.802,1.389-4.669,0.658-8.638-1.634
	c-3.968-2.292-6.536-5.275-5.734-6.664c0.664-1.151,3.433-0.843,6.619,0.598c-0.359,0.219-0.676,0.517-0.901,0.907
	c-0.716,1.24-0.291,2.826,0.949,3.542c1.24,0.716,2.826,0.291,3.542-0.949c0.225-0.39,0.325-0.813,0.335-1.234
	C15.51,15.541,17.161,17.784,16.497,18.935z"/>
</svg>
