<?xml version="1.0" encoding="utf-8"?>
<!-- Generator: Adobe Illustrator 17.0.0, SVG Export Plug-In . SVG Version: 6.00 Build 0)  -->
<!DOCTYPE svg PUBLIC "-//W3C//DTD SVG 1.1//EN" "http://www.w3.org/Graphics/SVG/1.1/DTD/svg11.dtd">
<svg version="1.1" id="Livello_1" xmlns="http://www.w3.org/2000/svg" xmlns:xlink="http://www.w3.org/1999/xlink" x="0px" y="0px"
	 width="23px" height="20px" viewBox="0 0 23 20" enable-background="new 0 0 23 20" xml:space="preserve">
<g>
	<path fill="#FFFFFF" d="M22.294,17.637l-8.196-1.899L7.14,14.124c-0.001,0-0.001,0-0.001,0l-3.185-0.738L3.59,9.56l17.423-7.923
		c0.302-0.138,0.436-0.495,0.299-0.799c-0.137-0.304-0.492-0.439-0.794-0.301L2.704,8.638c-0.234,0.106-0.374,0.35-0.35,0.608
		l0.446,4.689c0.025,0.259,0.211,0.473,0.463,0.531l3.023,0.701l-0.197,0.863c-0.125,0.544-0.031,1.106,0.263,1.581
		c0.295,0.474,0.756,0.804,1.297,0.93l4.33,1.004c0.154,0.035,0.311,0.054,0.469,0.054c0.974,0,1.808-0.668,2.027-1.623l0.198-0.863
		l7.352,1.704c0.046,0.011,0.091,0.016,0.136,0.016c0.273,0,0.52-0.189,0.584-0.468C22.818,18.036,22.616,17.711,22.294,17.637z
		 M13.303,17.701c-0.107,0.471-0.583,0.775-1.056,0.664l-4.33-1.003c-0.229-0.053-0.424-0.193-0.549-0.393
		c-0.125-0.201-0.164-0.439-0.112-0.669l0.197-0.863l3.484,0.808l2.563,0.593L13.303,17.701z"/>
	<path fill="#FFFFFF" d="M0.572,8.905C0.242,8.937,0,9.232,0.032,9.563l0.428,4.501c0.03,0.312,0.291,0.546,0.597,0.546
		c0.019,0,0.038-0.001,0.058-0.003c0.33-0.031,0.572-0.326,0.541-0.658L1.227,9.448C1.195,9.116,0.901,8.871,0.572,8.905z"/>
</g>
</svg>
