<?xml version="1.0" encoding="utf-8"?>
<!-- Generator: Adobe Illustrator 17.0.0, SVG Export Plug-In . SVG Version: 6.00 Build 0)  -->
<!DOCTYPE svg PUBLIC "-//W3C//DTD SVG 1.1//EN" "http://www.w3.org/Graphics/SVG/1.1/DTD/svg11.dtd">
<svg version="1.1" id="Livello_1" xmlns="http://www.w3.org/2000/svg" xmlns:xlink="http://www.w3.org/1999/xlink" x="0px" y="0px"
	 width="18.004px" height="20px" viewBox="0 0 18.004 20" enable-background="new 0 0 18.004 20" xml:space="preserve">
<path fill-rule="evenodd" clip-rule="evenodd" fill="#FFFFFF" d="M17.087,9.504h-4c-0.276,0-0.5,0.224-0.5,0.5
	c0,0.276,0.224,0.5,0.5,0.5h4c0.276,0,0.5-0.224,0.5-0.5C17.587,9.728,17.363,9.504,17.087,9.504z"/>
<path fill-rule="evenodd" clip-rule="evenodd" fill="#FFFFFF" d="M13.986,2.876l-3.159,2.453c-0.218,0.169-0.258,0.484-0.088,0.702
	c0.169,0.218,0.484,0.258,0.702,0.088L14.6,3.665c0.218-0.169,0.258-0.484,0.088-0.702C14.519,2.746,14.205,2.706,13.986,2.876z"/>
<path fill-rule="evenodd" clip-rule="evenodd" fill="#FFFFFF" d="M14.631,16.254l-3.254-2.326c-0.225-0.161-0.537-0.109-0.698,0.116
	c-0.161,0.225-0.109,0.537,0.116,0.697l3.254,2.326c0.225,0.161,0.537,0.109,0.698-0.116C14.908,16.726,14.856,16.414,14.631,16.254
	z"/>
<g>
	<path fill="#FFFFFF" d="M3.152,9.93H3.117c-0.299,0.435-0.746,0.652-1.344,0.652c-0.559,0-0.994-0.191-1.307-0.574
		C0.156,9.625,0,9.081,0,8.375s0.156-1.254,0.469-1.645s0.748-0.586,1.305-0.586c0.582,0,1.027,0.211,1.336,0.633H3.16L3.133,6.469
		L3.117,6.168V4.426h0.648v6.078H3.238L3.152,9.93z M1.855,10.039c0.443,0,0.764-0.121,0.963-0.361s0.299-0.629,0.299-1.166V8.375
		c0-0.607-0.1-1.04-0.303-1.299C2.613,6.817,2.291,6.688,1.848,6.688c-0.379,0-0.67,0.148-0.873,0.443
		C0.773,7.426,0.672,7.844,0.672,8.383c0,0.547,0.102,0.959,0.301,1.238C1.174,9.9,1.469,10.039,1.855,10.039z"/>
	<path fill="#FFFFFF" d="M5.238,4.793h1.613c0.758,0,1.306,0.113,1.645,0.34s0.508,0.584,0.508,1.074
		c0,0.338-0.095,0.618-0.283,0.838S8.257,7.408,7.895,7.473v0.039C8.762,7.66,9.195,8.116,9.195,8.879
		c0,0.51-0.173,0.909-0.518,1.195s-0.827,0.43-1.447,0.43H5.238V4.793z M5.902,7.238h1.094c0.469,0,0.806-0.074,1.012-0.221
		s0.309-0.395,0.309-0.744c0-0.32-0.114-0.551-0.344-0.693S7.379,5.367,6.879,5.367H5.902V7.238z M5.902,7.801v2.137h1.191
		c0.461,0,0.808-0.089,1.041-0.268s0.35-0.458,0.35-0.838c0-0.354-0.119-0.615-0.357-0.781c-0.238-0.167-0.601-0.25-1.088-0.25
		H5.902z"/>
</g>
</svg>
