<?xml version="1.0" encoding="utf-8"?>
<!-- Generator: Adobe Illustrator 17.0.0, SVG Export Plug-In . SVG Version: 6.00 Build 0)  -->
<!DOCTYPE svg PUBLIC "-//W3C//DTD SVG 1.1//EN" "http://www.w3.org/Graphics/SVG/1.1/DTD/svg11.dtd">
<svg version="1.1" id="Livello_1" xmlns="http://www.w3.org/2000/svg" xmlns:xlink="http://www.w3.org/1999/xlink" x="0px" y="0px"
	 width="25px" height="25px" viewBox="0 0 25 25" enable-background="new 0 0 25 25" xml:space="preserve">
<path fill-rule="evenodd" clip-rule="evenodd" fill="#0050a0" d="M12.5,0C19.404,0,25,5.596,25,12.5S19.404,25,12.5,25
	S0,19.404,0,12.5S5.596,0,12.5,0z"/>
<path fill-rule="evenodd" clip-rule="evenodd" fill="#FFFFFF" d="M12.5,2C18.299,2,23,6.701,23,12.5S18.299,23,12.5,23
	S2,18.299,2,12.5S6.701,2,12.5,2z"/>
<path fill="#0050a0" d="M15.453,7.07c-1.075,0-2.112,0.338-2.954,0.957C11.658,7.407,10.621,7.07,9.546,7.07
	c-1.264,0-2.455,0.461-3.352,1.298c-0.909,0.848-1.41,1.977-1.41,3.18c0,1.204,0.5,2.334,1.41,3.182l5.054,4.714
	c0.336,0.313,0.78,0.486,1.251,0.486c0.471,0,0.915-0.173,1.25-0.486c0,0,4.999-4.662,5.055-4.713
	c0.909-0.849,1.411-1.979,1.41-3.183c0-1.203-0.501-2.333-1.41-3.18C17.908,7.531,16.718,7.07,15.453,7.07z"/>
<path fill="#FFFFFF" d="M17.607,13.538l-5.054,4.713h-0.106l-5.055-4.713c-0.57-0.532-0.884-1.238-0.884-1.988
	c0-0.75,0.314-1.457,0.884-1.989c0.575-0.536,1.341-0.83,2.157-0.83c0.767,0,1.503,0.266,2.072,0.748l0.878,0.744l0.878-0.744
	c1.175-0.996,3.114-0.956,4.229,0.083c0.57,0.532,0.884,1.238,0.884,1.988C18.491,12.299,18.177,13.005,17.607,13.538z"/>
<path fill="#0050a0" d="M9.413,9.424c0,0-0.001,0-0.001,0c-1.181,0.001-2.142,0.912-2.142,2.03c0,0.229,0.192,0.415,0.429,0.415
	c0.236,0,0.429-0.187,0.429-0.416c0-0.661,0.577-1.199,1.286-1.199c0.236,0,0.429-0.186,0.429-0.416
	C9.843,9.61,9.651,9.424,9.413,9.424z"/>
</svg>
