<?xml version="1.0" encoding="utf-8"?>
<!-- Generator: Adobe Illustrator 17.0.0, SVG Export Plug-In . SVG Version: 6.00 Build 0)  -->
<!DOCTYPE svg PUBLIC "-//W3C//DTD SVG 1.1//EN" "http://www.w3.org/Graphics/SVG/1.1/DTD/svg11.dtd">
<svg version="1.1" id="Livello_1" xmlns="http://www.w3.org/2000/svg" xmlns:xlink="http://www.w3.org/1999/xlink" x="0px" y="0px"
	 width="34px" height="34px" viewBox="0 0 34 34" enable-background="new 0 0 34 34" xml:space="preserve">
<path fill="#FFFFFF" d="M17,0C7.611,0,0,7.611,0,17s7.611,17,17,17s17-7.611,17-17S26.389,0,17,0z"/>
<path fill-rule="evenodd" clip-rule="evenodd" fill="#004594" d="M17,3c7.732,0,14,6.268,14,14s-6.268,14-14,14S3,24.732,3,17
	S9.268,3,17,3z"/>
<path fill-rule="evenodd" clip-rule="evenodd" fill="#FFFFFF" d="M26.793,16.847l-2.32-2.602c0.487-0.583,1.642-1.964,2.208-2.64
	c0.369-0.438-0.167-0.656-0.167-0.656l-6.397-3.52c0,0-0.452-0.316-0.794,0.056c-0.281,0.306-1.759,1.961-2.278,2.542L14.995,7.56
	c0,0-0.272-0.446-0.835-0.138c-0.564,0.308-6.331,3.393-6.668,3.562c-0.404,0.202-0.097,0.633-0.097,0.633l2.28,2.651
	c-0.511,0.595-1.638,1.905-2.196,2.554c-0.374,0.43,0.158,0.655,0.158,0.655l2.282,1.294c0,0.754,0,3.506,0,3.762
	c0,0.297,0.117,0.317,0.117,0.317s6.41,3.402,6.711,3.568c0.301,0.166,0.558-0.023,0.558-0.023l6.72-3.551c0,0,0.225-0.1,0.225-0.31
	c0-0.176,0-2.83,0-3.688c1.245-0.694,2.319-1.29,2.458-1.363C27.107,17.272,26.793,16.847,26.793,16.847z M19.729,8.253l5.953,3.186
	l-2.018,2.413l-5.995-3.299L19.729,8.253z M17.083,17.48l-5.842-3.185l5.842-3.076l5.842,3.076L17.083,17.48z M14.437,8.253
	l1.957,2.356l-5.927,3.262l-2.092-2.432L14.437,8.253z M10.444,14.706l5.981,3.291l-2.071,2.249l-5.883-3.245L10.444,14.706z
	 M10.689,22.326v-3.118l3.268,1.853c0,0,0.446,0.32,0.791-0.046c0.228-0.241,1.233-1.335,1.893-2.054v6.529L10.689,22.326z
	 M23.477,22.262l-6.063,3.204v-6.579l1.852,2.151c0,0,0.279,0.441,0.838,0.123c0.278-0.158,1.838-1.03,3.373-1.886V22.262z
	 M19.81,20.335l-2.031-2.359l5.949-3.274l2.087,2.341L19.81,20.335z"/>
</svg>
