<?xml version="1.0" encoding="utf-8"?>
<!-- Generator: Adobe Illustrator 17.0.0, SVG Export Plug-In . SVG Version: 6.00 Build 0)  -->
<!DOCTYPE svg PUBLIC "-//W3C//DTD SVG 1.1//EN" "http://www.w3.org/Graphics/SVG/1.1/DTD/svg11.dtd">
<svg version="1.1" id="Livello_1" xmlns="http://www.w3.org/2000/svg" xmlns:xlink="http://www.w3.org/1999/xlink" x="0px" y="0px"
	 width="110px" height="110px" viewBox="0 0 110 110" enable-background="new 0 0 110 110" xml:space="preserve">
<path fill="#FFFFFF" d="M55,0C24.624,0,0,24.624,0,55s24.624,55,55,55s55-24.624,55-55S85.376,0,55,0z M55,100
	c-24.853,0-45-20.147-45-45s20.147-45,45-45s45,20.147,45,45S79.853,100,55,100z"/>
<path fill-rule="evenodd" clip-rule="evenodd" fill="#FFFFFF" d="M65.958,49.231c2.058-2.512,3.173-5.61,3.173-8.887
	c0-7.793-6.339-14.131-14.131-14.131s-14.131,6.339-14.131,14.131c0,3.277,1.115,6.375,3.173,8.887
	c-9.695,4.306-16.093,14.018-16.093,24.704c0,2.093,1.702,3.796,3.795,3.796c2.093,0,3.796-1.703,3.796-3.796
	c0-10.731,8.729-19.46,19.46-19.46s19.46,8.729,19.46,19.46c0,2.093,1.703,3.796,3.796,3.796c2.093,0,3.795-1.703,3.795-3.796
	C82.051,63.248,75.653,53.536,65.958,49.231z M55,46.884c-3.607,0-6.54-2.933-6.54-6.54c0-3.607,2.933-6.54,6.54-6.54
	c3.607,0,6.54,2.933,6.54,6.54C61.54,43.951,58.607,46.884,55,46.884z"/>
<path fill-rule="evenodd" clip-rule="evenodd" fill="#FFFFFF" d="M61.46,71.15h-3.23v-3.23c0-1.784-1.446-3.23-3.23-3.23
	s-3.23,1.446-3.23,3.23v3.23h-3.23c-1.784,0-3.23,1.446-3.23,3.23c0,1.784,1.446,3.23,3.23,3.23h3.23v3.23
	c0,1.784,1.446,3.23,3.23,3.23s3.23-1.446,3.23-3.23v-3.23h3.23c1.784,0,3.23-1.446,3.23-3.23
	C64.69,72.596,63.244,71.15,61.46,71.15z"/>
</svg>
