<?xml version="1.0" encoding="utf-8"?>
<!-- Generator: Adobe Illustrator 17.0.0, SVG Export Plug-In . SVG Version: 6.00 Build 0)  -->
<!DOCTYPE svg PUBLIC "-//W3C//DTD SVG 1.1//EN" "http://www.w3.org/Graphics/SVG/1.1/DTD/svg11.dtd">
<svg version="1.1" id="Livello_1" xmlns="http://www.w3.org/2000/svg" xmlns:xlink="http://www.w3.org/1999/xlink" x="0px" y="0px"
	 width="22px" height="22px" viewBox="0 0 22 22" enable-background="new 0 0 22 22" xml:space="preserve">
<path fill="#FFFFFF" d="M21.707,20.293l-5.682-5.682C17.257,13.071,18,11.122,18,9c0-4.962-4.037-9-9-9S0,4.038,0,9s4.038,9,9,9
	c2.121,0,4.07-0.742,5.61-1.975l5.682,5.682C20.488,21.903,20.744,22,21,22s0.512-0.098,0.707-0.293
	C22.097,21.317,22.097,20.684,21.707,20.293z M9,16c-3.86,0-7-3.141-7-7s3.14-7,7-7s7,3.14,7,7S12.86,16,9,16z"/>
</svg>
