<?xml version="1.0" encoding="utf-8"?>
<!-- Generator: Adobe Illustrator 17.0.0, SVG Export Plug-In . SVG Version: 6.00 Build 0)  -->
<!DOCTYPE svg PUBLIC "-//W3C//DTD SVG 1.1//EN" "http://www.w3.org/Graphics/SVG/1.1/DTD/svg11.dtd">
<svg version="1.1" id="Livello_1" xmlns="http://www.w3.org/2000/svg" xmlns:xlink="http://www.w3.org/1999/xlink" x="0px" y="0px"
	 width="24px" height="24px" viewBox="0 0 24 24" enable-background="new 0 0 24 24" xml:space="preserve">
<path fill-rule="evenodd" clip-rule="evenodd" fill="#FFFFFF" d="M23.196,21.076l-6.356-6.356c1.049-1.472,1.672-3.267,1.672-5.212
	c0-4.97-4.029-9-9-9s-9,4.029-9,9c0,4.971,4.029,9,9,9c1.942,0,3.736-0.621,5.206-1.667l6.356,6.356
	c0.391,0.391,1.024,0.391,1.414,0l0.707-0.707C23.586,22.1,23.586,21.467,23.196,21.076z M3.512,9.509c0-3.314,2.686-6,6-6
	s6,2.686,6,6c0,3.314-2.686,6-6,6S3.512,12.823,3.512,9.509z"/>
</svg>
