<?xml version="1.0" encoding="utf-8"?>
<!-- Generator: Adobe Illustrator 17.0.0, SVG Export Plug-In . SVG Version: 6.00 Build 0)  -->
<!DOCTYPE svg PUBLIC "-//W3C//DTD SVG 1.1//EN" "http://www.w3.org/Graphics/SVG/1.1/DTD/svg11.dtd">
<svg version="1.1" id="Livello_1" xmlns="http://www.w3.org/2000/svg" xmlns:xlink="http://www.w3.org/1999/xlink" x="0px" y="0px"
	 width="14px" height="14px" viewBox="0 0 14 14" enable-background="new 0 0 14 14" xml:space="preserve">
<path fill="#0050A0" d="M13.707,12.292l-2.822-2.822C11.584,8.49,12,7.294,12,6c0-3.309-2.691-6-6-6S0,2.691,0,6
	c0,3.308,2.691,6,6,6c1.294,0,2.49-0.416,3.471-1.115l2.822,2.822C12.488,13.902,12.744,14,13,14s0.512-0.098,0.707-0.293
	C14.098,13.316,14.098,12.683,13.707,12.292z M6,10c-2.206,0-4-1.794-4-4s1.794-4,4-4c2.206,0,4,1.794,4,4S8.206,10,6,10z"/>
</svg>
