<?xml version="1.0" encoding="utf-8"?>
<!-- Generator: Adobe Illustrator 17.0.0, SVG Export Plug-In . SVG Version: 6.00 Build 0)  -->
<!DOCTYPE svg PUBLIC "-//W3C//DTD SVG 1.1//EN" "http://www.w3.org/Graphics/SVG/1.1/DTD/svg11.dtd">
<svg version="1.1" id="Livello_1" xmlns="http://www.w3.org/2000/svg" xmlns:xlink="http://www.w3.org/1999/xlink" x="0px" y="0px"
	 width="34px" height="34px" viewBox="0 0 34 34" enable-background="new 0 0 34 34" xml:space="preserve">
<g>
	<circle fill-rule="evenodd" clip-rule="evenodd" fill="#0050A0" cx="17" cy="17" r="17"/>
	<circle fill-rule="evenodd" clip-rule="evenodd" fill="#FFFFFF" cx="17" cy="17" r="15"/>
	<path fill-rule="evenodd" clip-rule="evenodd" fill="#0050A0" d="M20.725,18.8c-1.085,0-2.047,0.49-2.707,1.25l-3.359-1.866
		c0.13-0.372,0.215-0.767,0.215-1.184c0-0.417-0.085-0.811-0.215-1.183l3.359-1.866c0.66,0.759,1.621,1.249,2.706,1.249
		c1.988,0,3.6-1.612,3.6-3.6c0-1.988-1.612-3.6-3.6-3.6c-1.988,0-3.6,1.612-3.6,3.6c0,0.542,0.128,1.051,0.343,1.512l-3.26,1.811
		c-0.652-0.919-1.72-1.524-2.933-1.524c-1.988,0-3.6,1.612-3.6,3.6c0,1.988,1.612,3.6,3.6,3.6c1.213,0,2.281-0.604,2.933-1.524
		l3.26,1.811c-0.215,0.461-0.343,0.97-0.343,1.513c0,1.988,1.612,3.6,3.6,3.6c1.988,0,3.6-1.612,3.6-3.6
		C24.325,20.412,22.713,18.8,20.725,18.8z"/>
</g>
</svg>
