<?xml version="1.0" encoding="utf-8"?>
<!-- Generator: Adobe Illustrator 17.0.0, SVG Export Plug-In . SVG Version: 6.00 Build 0)  -->
<!DOCTYPE svg PUBLIC "-//W3C//DTD SVG 1.1//EN" "http://www.w3.org/Graphics/SVG/1.1/DTD/svg11.dtd">
<svg version="1.1" id="Livello_1" xmlns="http://www.w3.org/2000/svg" xmlns:xlink="http://www.w3.org/1999/xlink" x="0px" y="0px"
	 width="34px" height="34px" viewBox="0 0 34 34" enable-background="new 0 0 34 34" xml:space="preserve">
<path fill-rule="evenodd" clip-rule="evenodd" fill="#dddcda" d="M17,0C7.611,0,0,7.611,0,17s7.611,17,17,17s17-7.611,17-17
	S26.389,0,17,0z"/>
<path fill-rule="evenodd" clip-rule="evenodd" fill="#FFFFFF" d="M17,3c7.732,0,14,6.268,14,14s-6.268,14-14,14S3,24.732,3,17
	S9.268,3,17,3z"/>
<path fill-rule="evenodd" clip-rule="evenodd" fill="#dddcda" d="M20.225,18.8c-1.085,0-2.047,0.49-2.707,1.249l-3.359-1.866
	c0.13-0.372,0.215-0.767,0.215-1.184c0-0.417-0.085-0.811-0.215-1.183l3.359-1.866c0.66,0.759,1.621,1.249,2.706,1.249
	c1.988,0,3.6-1.612,3.6-3.6c0-1.988-1.612-3.6-3.6-3.6c-1.988,0-3.6,1.612-3.6,3.6c0,0.542,0.128,1.051,0.343,1.512l-3.26,1.811
	c-0.652-0.919-1.72-1.524-2.933-1.524c-1.988,0-3.6,1.612-3.6,3.6c0,1.988,1.612,3.6,3.6,3.6c1.213,0,2.281-0.604,2.933-1.524
	l3.26,1.811c-0.215,0.461-0.343,0.97-0.343,1.512c0,1.988,1.612,3.6,3.6,3.6c1.988,0,3.6-1.612,3.6-3.6
	C23.825,20.412,22.213,18.8,20.225,18.8z"/>
</svg>
