<?xml version="1.0" encoding="utf-8"?>
<!-- Generator: Adobe Illustrator 17.0.0, SVG Export Plug-In . SVG Version: 6.00 Build 0)  -->
<!DOCTYPE svg PUBLIC "-//W3C//DTD SVG 1.1//EN" "http://www.w3.org/Graphics/SVG/1.1/DTD/svg11.dtd">
<svg version="1.1" id="Livello_1" xmlns="http://www.w3.org/2000/svg" xmlns:xlink="http://www.w3.org/1999/xlink" x="0px" y="0px"
	 width="31px" height="27px" viewBox="0 0 31 27" enable-background="new 0 0 31 27" xml:space="preserve">
<path fill-rule="evenodd" clip-rule="evenodd" fill="#86BA8F" d="M4,0h23c2.209,0,4,1.791,4,4v19c0,2.209-1.791,4-4,4H4
	c-2.209,0-4-1.791-4-4V4C0,1.791,1.791,0,4,0z"/>
<path fill-rule="evenodd" clip-rule="evenodd" fill="#FFFFFF" d="M20.5,12c-0.176,0-3.5,0-3.5,0s0-3.324,0-3.5
	C17,7.672,16.328,7,15.5,7S14,7.672,14,8.5c0,0.176,0,3.5,0,3.5s-3.324,0-3.5,0C9.672,12,9,12.672,9,13.5S9.672,15,10.5,15
	c0.176,0,3.5,0,3.5,0s0,3.324,0,3.5c0,0.828,0.672,1.5,1.5,1.5s1.5-0.672,1.5-1.5c0-0.176,0-3.5,0-3.5s3.324,0,3.5,0
	c0.828,0,1.5-0.672,1.5-1.5S21.328,12,20.5,12z"/>
<path opacity="0.1" fill-rule="evenodd" clip-rule="evenodd" d="M27,0H10l21,21V4C31,1.791,29.209,0,27,0z M28.792,10.891h-6.258
	v-1.4c0.439-0.224,0.742-0.499,0.91-0.826c0.168-0.327,0.252-0.751,0.252-1.274c0-0.168-0.005-0.294-0.014-0.378h-1.134V5.766h0.98
	c-0.047-0.355-0.07-0.658-0.07-0.91c0-1.017,0.266-1.806,0.798-2.366c0.532-0.56,1.307-0.84,2.324-0.84
	c0.691,0,1.279,0.14,1.764,0.42v1.61c-0.448-0.289-0.929-0.434-1.442-0.434c-1.073,0-1.61,0.546-1.61,1.638
	c0,0.177,0.019,0.471,0.056,0.882h2.408v1.246h-2.268c0.009,0.084,0.014,0.21,0.014,0.378c0,0.971-0.317,1.657-0.952,2.058h4.242
	V10.891z"/>
<path fill-rule="evenodd" clip-rule="evenodd" fill="#FFF000" d="M27,0H11l20,20V4C31,1.791,29.209,0,27,0z M28.792,10.891h-6.258
	v-1.4c0.439-0.224,0.742-0.499,0.91-0.826c0.168-0.327,0.252-0.751,0.252-1.274c0-0.168-0.005-0.294-0.014-0.378h-1.134V5.767h0.98
	c-0.047-0.355-0.07-0.658-0.07-0.91c0-1.017,0.266-1.806,0.798-2.366c0.532-0.56,1.307-0.84,2.324-0.84
	c0.691,0,1.279,0.14,1.764,0.42v1.61c-0.448-0.289-0.929-0.434-1.442-0.434c-1.073,0-1.61,0.546-1.61,1.638
	c0,0.177,0.019,0.471,0.056,0.882h2.408v1.246h-2.268c0.009,0.084,0.014,0.21,0.014,0.378c0,0.971-0.317,1.657-0.952,2.058h4.242
	V10.891z"/>
</svg>
