<?xml version="1.0" encoding="utf-8"?>
<!-- Generator: Adobe Illustrator 17.0.0, SVG Export Plug-In . SVG Version: 6.00 Build 0)  -->
<!DOCTYPE svg PUBLIC "-//W3C//DTD SVG 1.1//EN" "http://www.w3.org/Graphics/SVG/1.1/DTD/svg11.dtd">
<svg version="1.1" id="Livello_1" xmlns="http://www.w3.org/2000/svg" xmlns:xlink="http://www.w3.org/1999/xlink" x="0px" y="0px"
	 width="31px" height="27px" viewBox="0 0 31 27" enable-background="new 0 0 31 27" xml:space="preserve">
<path fill-rule="evenodd" clip-rule="evenodd" fill="#72C2B9" d="M4,0h23l4,4v19c0,2.209-1.791,4-4,4H4c-2.209,0-4-1.791-4-4V4
	C0,1.791,1.791,0,4,0z"/>
<linearGradient id="SVGID_1_" gradientUnits="userSpaceOnUse" x1="67.5" y1="8822.5" x2="79" y2="8834" gradientTransform="matrix(1 0 0 -1 -50 8836)">
	<stop  offset="0.0547" style="stop-color:#000000;stop-opacity:0"/>
	<stop  offset="0.113" style="stop-color:#000000;stop-opacity:0.0617"/>
	<stop  offset="1" style="stop-color:#000000"/>
</linearGradient>
<path opacity="0.8" fill="url(#SVGID_1_)" enable-background="new    " d="M27,0H4l27,27V4L27,0z M29.042,11.141h-6.758V9.338
	l0.136-0.07c0.39-0.199,0.659-0.44,0.802-0.718c0.148-0.289,0.224-0.679,0.224-1.16c0-0.046,0-0.089-0.001-0.128h-1.147V5.517h0.949
	c-0.026-0.246-0.039-0.467-0.039-0.66c0-1.079,0.292-1.933,0.867-2.538c0.578-0.609,1.421-0.918,2.505-0.918
	c0.732,0,1.367,0.153,1.889,0.454l0.125,0.072V4.14l-0.386-0.249c-0.405-0.261-0.844-0.394-1.306-0.394
	c-0.94,0-1.36,0.428-1.36,1.388c0,0.138,0.012,0.349,0.035,0.632h2.429v1.746h-2.255c0,0.04,0.001,0.083,0.001,0.128
	c0,0.755-0.183,1.361-0.546,1.808h3.836V11.141z"/>
<path fill="#FFF000" d="M27,0H11l20,20V4C31,1.791,29.209,0,27,0z M28.792,10.891h-6.258v-1.4c0.439-0.224,0.742-0.499,0.91-0.826
	c0.168-0.326,0.252-0.751,0.252-1.274c0-0.168-0.005-0.294-0.014-0.378h-1.134V5.767h0.98c-0.047-0.355-0.07-0.658-0.07-0.91
	c0-1.017,0.266-1.806,0.798-2.366s1.307-0.84,2.324-0.84c0.691,0,1.279,0.14,1.764,0.42v1.61c-0.448-0.289-0.929-0.434-1.442-0.434
	c-1.073,0-1.61,0.546-1.61,1.638c0,0.177,0.019,0.471,0.056,0.882h2.408v1.246h-2.268c0.009,0.084,0.014,0.21,0.014,0.378
	c0,0.971-0.318,1.657-0.952,2.058h4.242C28.792,9.449,28.792,10.891,28.792,10.891z"/>
<path fill="#FFFFFF" d="M20.5,12c-0.176,0-3.5,0-3.5,0s0-3.324,0-3.5C17,7.672,16.328,7,15.5,7C14.672,7,14,7.672,14,8.5
	c0,0.176,0,3.5,0,3.5s-3.324,0-3.5,0C9.672,12,9,12.672,9,13.5S9.672,15,10.5,15c0.176,0,3.5,0,3.5,0s0,3.324,0,3.5
	c0,0.828,0.672,1.5,1.5,1.5c0.828,0,1.5-0.672,1.5-1.5c0-0.176,0-3.5,0-3.5s3.324,0,3.5,0c0.828,0,1.5-0.672,1.5-1.5
	S21.328,12,20.5,12z"/>
</svg>
