<?xml version="1.0" encoding="utf-8"?>
<!-- Generator: Adobe Illustrator 17.0.0, SVG Export Plug-In . SVG Version: 6.00 Build 0)  -->
<!DOCTYPE svg PUBLIC "-//W3C//DTD SVG 1.1//EN" "http://www.w3.org/Graphics/SVG/1.1/DTD/svg11.dtd">
<svg version="1.1" id="Livello_1" xmlns="http://www.w3.org/2000/svg" xmlns:xlink="http://www.w3.org/1999/xlink" x="0px" y="0px"
	 width="20px" height="20px" viewBox="0 0 20 20" enable-background="new 0 0 20 20" xml:space="preserve">
<path fill="#BE0000" d="M8.953,18.765c-0.744,0-1.556-0.355-2.119-0.927C6.277,17.273,5.989,16.542,6,15.722
	C5.992,15.55,5.967,14.969,6.39,13.2H4.2c-1.654,0-3-1.346-3-3c0-0.778,0.298-1.507,0.821-2.057C2.007,8.029,2,7.915,2,7.8
	c0-0.778,0.298-1.508,0.821-2.058C2.807,5.628,2.8,5.514,2.8,5.4c0-0.778,0.298-1.507,0.821-2.057C3.607,3.229,3.6,3.114,3.6,3
	c0-1.654,1.346-3,3-3h10.8C18.834,0,20,1.167,20,2.6v8c0,1.434-1.166,2.6-2.6,2.6c-0.939,0.063-2.158,0.675-4.141,2.108
	c-0.618,0.447-1.031,1.001-1.432,1.536c-0.632,0.848-1.349,1.809-2.751,1.917L8.953,18.765z"/>
</svg>
