<?xml version="1.0" encoding="utf-8"?>
<!-- Generator: Adobe Illustrator 17.0.0, SVG Export Plug-In . SVG Version: 6.00 Build 0)  -->
<!DOCTYPE svg PUBLIC "-//W3C//DTD SVG 1.1//EN" "http://www.w3.org/Graphics/SVG/1.1/DTD/svg11.dtd">
<svg version="1.1" id="Livello_1" xmlns="http://www.w3.org/2000/svg" xmlns:xlink="http://www.w3.org/1999/xlink" x="0px" y="0px"
	 width="23px" height="36px" viewBox="0 0 23 36" enable-background="new 0 0 23 36" xml:space="preserve">
<path fill="#4881bb" d="M13.558,6.023L13.558,6.023c-0.045,0-0.09,0.001-0.136,0.003c-0.025,0.001-0.049,0.002-0.074,0.004
	c-2.08,0.161-3.129,1.564-3.971,2.69c-0.486,0.65-0.946,1.265-1.625,1.755c-1.729,1.249-3.951,1.997-4.597,2.198
	C1.386,12.851,0,14.377,0,16.228v8.163c0,1.535,0.768,2.973,2.023,3.82c0.546,0.494,1.25,0.771,1.978,0.771h0.5h1H17
	c1.654,0,3-1.373,3-3.061V25.14c0.613-0.561,1-1.375,1-2.28v-0.781c0.614-0.561,1-1.375,1-2.28v-0.781c0.614-0.561,1-1.375,1-2.28
	v-1.021c0-1.688-1.346-3.061-3-3.061h-3.44c0.482-2.098,0.45-2.851,0.438-3.149c-0.001-0.032-0.003-0.064-0.006-0.096
	C16.82,7.48,15.344,6.023,13.558,6.023L13.558,6.023z"/>
</svg>
