<?xml version="1.0" encoding="utf-8"?>
<!-- Generator: Adobe Illustrator 17.0.0, SVG Export Plug-In . SVG Version: 6.00 Build 0)  -->
<!DOCTYPE svg PUBLIC "-//W3C//DTD SVG 1.1//EN" "http://www.w3.org/Graphics/SVG/1.1/DTD/svg11.dtd">
<svg version="1.1" id="Livello_1" xmlns="http://www.w3.org/2000/svg" xmlns:xlink="http://www.w3.org/1999/xlink" x="0px" y="0px"
	 width="23px" height="36px" viewBox="0 0 23 36" enable-background="new 0 0 23 36" xml:space="preserve">
<path fill="#4881bb" d="M13.558,8.064c0.847,0,1.372,0.749,1.442,1.532c0.046,1.08-0.585,3.502-1.042,5.101H20
	c0.552,0,1,0.457,1,1.02v1.021c0,0.563-0.448,1.02-1,1.02h-1c0.552,0,1,0.457,1,1.02v1.021c0,0.564-0.448,1.02-1,1.02h-1
	c0.552,0,1,0.457,1,1.02v1.02c0,0.564-0.448,1.02-1,1.02h-1c0.552,0,1,0.457,1,1.02v1.021c0,0.564-0.448,1.02-1,1.02H5.5h-1H4
	c-0.297,0-0.556-0.138-0.739-0.348C2.511,26.154,2,25.337,2,24.391v-8.163c0-0.845,0.672-1.531,1.5-1.531
	c0,0,3.041-0.847,5.408-2.556c2.208-1.595,2.545-3.917,4.592-4.076C13.519,8.064,13.539,8.064,13.558,8.064 M13.558,6.023
	L13.558,6.023c-0.045,0-0.09,0.001-0.136,0.003c-0.025,0.001-0.049,0.002-0.074,0.004c-2.08,0.161-3.129,1.564-3.971,2.69
	c-0.486,0.65-0.946,1.265-1.625,1.755c-1.729,1.249-3.951,1.997-4.597,2.198C1.386,12.851,0,14.377,0,16.228v8.163
	c0,1.535,0.768,2.973,2.023,3.82c0.546,0.494,1.25,0.771,1.978,0.771h0.5h1H17c1.654,0,3-1.373,3-3.061V25.14
	c0.613-0.561,1-1.375,1-2.28v-0.781c0.614-0.561,1-1.375,1-2.28v-0.781c0.614-0.561,1-1.375,1-2.28v-1.021
	c0-1.688-1.346-3.061-3-3.061h-3.44c0.482-2.098,0.45-2.851,0.438-3.149c-0.001-0.032-0.003-0.064-0.006-0.096
	C16.82,7.48,15.344,6.023,13.558,6.023L13.558,6.023z"/>
</svg>
