<?xml version="1.0" encoding="utf-8"?>
<!-- Generator: Adobe Illustrator 17.0.0, SVG Export Plug-In . SVG Version: 6.00 Build 0)  -->
<!DOCTYPE svg PUBLIC "-//W3C//DTD SVG 1.1//EN" "http://www.w3.org/Graphics/SVG/1.1/DTD/svg11.dtd">
<svg version="1.1" id="Livello_1" xmlns="http://www.w3.org/2000/svg" xmlns:xlink="http://www.w3.org/1999/xlink" x="0px" y="0px"
	 width="34px" height="34px" viewBox="0 0 34 34" enable-background="new 0 0 34 34" xml:space="preserve">
<path fill="#FFFFFF" d="M17,0C7.611,0,0,7.611,0,17s7.611,17,17,17s17-7.611,17-17S26.389,0,17,0z"/>
<path fill-rule="evenodd" clip-rule="evenodd" fill="#004594" d="M17,3c7.732,0,14,6.268,14,14s-6.268,14-14,14S3,24.732,3,17
	S9.268,3,17,3z"/>
<g>
	<path fill="#FFFFFF" d="M17,6.44c-3.882,0-7.04,3.158-7.04,7.04c0,2.525,1.342,4.836,3.52,6.094v2.706v0.44v2.2
		c0,0.728,0.592,1.32,1.32,1.32c0,0.728,0.592,1.32,1.32,1.32h1.76c0.728,0,1.32-0.592,1.32-1.32c0.728,0,1.32-0.592,1.32-1.32v-2.2
		v-0.44v-2.706c2.178-1.259,3.52-3.57,3.52-6.094C24.04,9.598,20.882,6.44,17,6.44z M17.88,26.68h-1.76
		c-0.243,0-0.44-0.197-0.44-0.44h2.64C18.32,26.483,18.123,26.68,17.88,26.68z M19.64,24.92c0,0.243-0.197,0.44-0.44,0.44h-4.4
		c-0.243,0-0.44-0.197-0.44-0.44v-1.76h5.28V24.92z M19.874,18.926c-0.144,0.076-0.234,0.226-0.234,0.389v2.965h-5.28v-2.965
		c0-0.163-0.09-0.313-0.234-0.389c-2.027-1.072-3.286-3.159-3.286-5.446c0-3.397,2.763-6.16,6.16-6.16s6.16,2.763,6.16,6.16
		C23.16,15.767,21.901,17.854,19.874,18.926z"/>
	<path fill="#FFFFFF" d="M20.227,12.627c-0.228-0.081-0.479,0.038-0.562,0.265c-0.022,0.06-0.56,1.467-2.665,1.467
		s-2.644-1.407-2.664-1.464c-0.079-0.23-0.33-0.352-0.56-0.272c-0.23,0.079-0.351,0.33-0.272,0.56
		c0.027,0.079,0.668,1.84,3.056,2.036v5.74c0,0.243,0.197,0.44,0.44,0.44c0.243,0,0.44-0.197,0.44-0.44v-5.74
		c2.387-0.197,3.028-1.957,3.056-2.036C20.575,12.956,20.454,12.708,20.227,12.627z"/>
</g>
</svg>
