<?xml version="1.0" encoding="utf-8"?>
<!-- Generator: Adobe Illustrator 17.0.0, SVG Export Plug-In . SVG Version: 6.00 Build 0)  -->
<!DOCTYPE svg PUBLIC "-//W3C//DTD SVG 1.1//EN" "http://www.w3.org/Graphics/SVG/1.1/DTD/svg11.dtd">
<svg version="1.1" id="Livello_1" xmlns="http://www.w3.org/2000/svg" xmlns:xlink="http://www.w3.org/1999/xlink" x="0px" y="0px"
	 width="34px" height="34px" viewBox="0 0 34 34" enable-background="new 0 0 34 34" xml:space="preserve">
<path fill-rule="evenodd" clip-rule="evenodd" fill="#FFFFFF" d="M17,0c9.389,0,17,7.611,17,17s-7.611,17-17,17S0,26.389,0,17
	S7.611,0,17,0z"/>
<path fill-rule="evenodd" clip-rule="evenodd" fill="#004594" d="M17,3c7.732,0,14,6.268,14,14s-6.268,14-14,14S3,24.732,3,17
	S9.268,3,17,3z"/>
<path fill-rule="evenodd" clip-rule="evenodd" fill="#FFFFFF" d="M26.209,10.691c-0.196-0.195-0.452-0.293-0.709-0.293v0h-5.012
	c-0.554,0-1.002,0.448-1.002,1s0.449,1,1.002,1h2.592l-4.657,4.647l-2.126-2.121c-0.391-0.391-1.026-0.391-1.418,0l-7.087,7.072
	c-0.391,0.391-0.391,1.024,0,1.414c0.392,0.391,1.026,0.391,1.418,0l6.379-6.364l2.126,2.121c0.391,0.391,1.026,0.391,1.417,0
	l5.366-5.354v2.586c0,0.552,0.449,1,1.002,1c0.554,0,1.002-0.448,1.002-1v-5C26.502,11.142,26.404,10.886,26.209,10.691z"/>
</svg>
