<?xml version="1.0" encoding="utf-8"?>
<!-- Generator: Adobe Illustrator 17.0.0, SVG Export Plug-In . SVG Version: 6.00 Build 0)  -->
<!DOCTYPE svg PUBLIC "-//W3C//DTD SVG 1.1//EN" "http://www.w3.org/Graphics/SVG/1.1/DTD/svg11.dtd">
<svg version="1.1" id="Livello_1" xmlns="http://www.w3.org/2000/svg" xmlns:xlink="http://www.w3.org/1999/xlink" x="0px" y="0px"
	 width="34px" height="38px" viewBox="0 0 34 38" enable-background="new 0 0 34 38" xml:space="preserve">
<g>
	<ellipse fill="#C70000" cx="10.968" cy="17.311" rx="2.478" ry="2.495"/>
	<ellipse fill="#C70000" cx="23.005" cy="17.311" rx="2.478" ry="2.496"/>
	<path fill="#C70000" d="M28.899,8.321c-0.533-1.447-2.007-4.681-5.229-7.285c-0.457-0.371-1.126-0.295-1.493,0.166
		c-0.367,0.46-0.295,1.134,0.163,1.504c0.814,0.656,1.496,1.367,2.073,2.071c-2.156-1.917-5.11-4.05-8.177-4.751
		c-0.396-0.093-0.807,0.054-1.062,0.371c-0.254,0.319-0.307,0.755-0.135,1.123l0.754,1.631c-1.029-0.308-2.259-0.567-3.456-0.567
		c-0.94,0-1.778,0.161-2.49,0.477C7.371,4.165,5.806,5.938,5.443,7.965c-3.351,3.126-5.45,7.594-5.45,12.556
		c0,9.452,7.608,17.115,16.993,17.115c9.385,0,16.994-7.663,16.994-17.115C33.979,15.743,32.033,11.425,28.899,8.321z
		 M16.986,34.783c-7.809,0-14.161-6.399-14.161-14.263c0-3.508,1.268-6.719,3.362-9.204c0.914,1.068,2.56,1.656,4.789,1.656
		c0.656,0,1.117-0.054,1.138-0.057c0.513-0.06,0.909-0.486,0.936-1.007c0.026-0.52-0.323-0.985-0.828-1.099
		c-0.001,0-0.158-0.066-0.234-0.202c-0.115-0.207-0.086-0.601,0.079-1.079c0.176-0.514,0.713-2.072,4.269-2.072
		c3.849,0,8.722,1.839,9.94,2.324c2.979,2.617,4.872,6.456,4.872,10.738C31.148,28.385,24.795,34.783,16.986,34.783z"/>
	<path fill="#C70000" d="M17.078,26.117c-3.086,0-5.559,2.085-6.619,5.023c0,0,3.376-2.658,6.718-2.658
		c3.276,0,6.52,2.658,6.52,2.658C22.637,28.202,20.166,26.117,17.078,26.117z"/>
</g>
</svg>
