<?xml version="1.0" encoding="utf-8"?>
<!-- Generator: Adobe Illustrator 16.0.0, SVG Export Plug-In . SVG Version: 6.00 Build 0)  -->
<!DOCTYPE svg PUBLIC "-//W3C//DTD SVG 1.1//EN" "http://www.w3.org/Graphics/SVG/1.1/DTD/svg11.dtd">
<svg version="1.1" id="Livello_1" xmlns="http://www.w3.org/2000/svg" xmlns:xlink="http://www.w3.org/1999/xlink" x="0px" y="0px"
	 width="9.208px" height="10.458px" viewBox="0 3.333 9.208 10.458" enable-background="new 0 3.333 9.208 10.458"
	 xml:space="preserve">
<path fill="#FFFFFF" d="M3.322,7.395C3.027,6.933,2.618,6.701,2.096,6.701s-0.947,0.2-1.274,0.6c-0.327,0.4-0.49,0.907-0.49,1.522
	c0,0.615,0.154,1.126,0.462,1.535c0.308,0.408,0.734,0.612,1.278,0.612c0.544,0,0.961-0.226,1.25-0.677v0.612h0.635V5.135H3.322
	V7.395z M1.324,7.701c0.222-0.275,0.49-0.412,0.804-0.412c0.313,0,0.591,0.122,0.832,0.367c0.241,0.245,0.362,0.635,0.362,1.171
	c0,0.536-0.117,0.929-0.35,1.179c-0.233,0.25-0.514,0.375-0.844,0.375s-0.602-0.139-0.816-0.416
	C1.098,9.689,0.991,9.311,0.991,8.832S1.102,7.976,1.324,7.701z"/>
<path fill="#FFFFFF" d="M5.162,10.905h1.977c0.525,0,0.931-0.135,1.218-0.404c0.288-0.269,0.43-0.611,0.43-1.024
	S8.682,8.744,8.47,8.518C8.257,8.292,8.002,8.154,7.702,8.105C7.975,8.046,8.199,7.9,8.373,7.669s0.261-0.505,0.261-0.82
	c0-0.441-0.167-0.792-0.502-1.053C7.797,5.534,7.351,5.404,6.793,5.404H5.162V10.905z M6.793,5.967c0.386,0,0.676,0.083,0.872,0.249
	s0.293,0.386,0.293,0.661s-0.104,0.505-0.313,0.69s-0.53,0.278-0.964,0.278H5.813V5.967H6.793z M5.813,8.407h1.109
	c0.38,0,0.674,0.087,0.88,0.261c0.206,0.174,0.309,0.416,0.309,0.727c0,0.31-0.092,0.545-0.277,0.706s-0.449,0.241-0.792,0.241
	h-1.23L5.813,8.407L5.813,8.407z"/>
</svg>
