<?xml version="1.0" encoding="utf-8"?>
<!-- Generator: Adobe Illustrator 17.0.0, SVG Export Plug-In . SVG Version: 6.00 Build 0)  -->
<!DOCTYPE svg PUBLIC "-//W3C//DTD SVG 1.1//EN" "http://www.w3.org/Graphics/SVG/1.1/DTD/svg11.dtd">
<svg version="1.1" id="Livello_1" xmlns="http://www.w3.org/2000/svg" xmlns:xlink="http://www.w3.org/1999/xlink" x="0px" y="0px"
	 width="20px" height="20px" viewBox="0 0 20 20" enable-background="new 0 0 20 20" xml:space="preserve">
<path fill-rule="evenodd" clip-rule="evenodd" fill="#FFFFFF" d="M11.414,10l4.01-4.01c0.195-0.195,0.195-0.512,0-0.707
	l-0.707-0.707c-0.195-0.196-0.512-0.196-0.707,0L10,8.586l-4.01-4.01c-0.195-0.196-0.512-0.196-0.707,0L4.575,5.282
	c-0.195,0.196-0.195,0.512,0,0.707L8.586,10l-4.011,4.01c-0.195,0.195-0.195,0.512,0,0.707l0.707,0.707
	c0.195,0.195,0.512,0.195,0.707,0l4.01-4.01l4.01,4.01c0.195,0.195,0.512,0.195,0.707,0l0.707-0.707
	c0.195-0.195,0.195-0.512,0-0.707L11.414,10z"/>
</svg>
