<?xml version="1.0" encoding="utf-8"?>
<!-- Generator: Adobe Illustrator 17.0.0, SVG Export Plug-In . SVG Version: 6.00 Build 0)  -->
<!DOCTYPE svg PUBLIC "-//W3C//DTD SVG 1.1//EN" "http://www.w3.org/Graphics/SVG/1.1/DTD/svg11.dtd">
<svg version="1.1" id="Livello_1" xmlns="http://www.w3.org/2000/svg" xmlns:xlink="http://www.w3.org/1999/xlink" x="0px" y="0px"
	 width="34px" height="34px" viewBox="0 0 34 34" enable-background="new 0 0 34 34" xml:space="preserve">
<path fill="#D7D6D4" d="M18.414,17l7.793-7.793c0.391-0.391,0.391-1.023,0-1.414c-0.391-0.391-1.023-0.391-1.414,0L17,15.586
	L9.207,7.793c-0.391-0.391-1.023-0.391-1.414,0s-0.391,1.023,0,1.414L15.586,17l-7.793,7.793c-0.391,0.391-0.391,1.023,0,1.414
	C7.988,26.402,8.244,26.5,8.5,26.5c0.256,0,0.512-0.098,0.707-0.293L17,18.414l7.793,7.793c0.195,0.195,0.451,0.293,0.707,0.293
	c0.256,0,0.512-0.098,0.707-0.293c0.391-0.391,0.391-1.023,0-1.414L18.414,17z"/>
</svg>
