<?xml version="1.0" encoding="utf-8"?>
<!-- Generator: Adobe Illustrator 17.0.0, SVG Export Plug-In . SVG Version: 6.00 Build 0)  -->
<!DOCTYPE svg PUBLIC "-//W3C//DTD SVG 1.1//EN" "http://www.w3.org/Graphics/SVG/1.1/DTD/svg11.dtd">
<svg version="1.1" id="Livello_1" xmlns="http://www.w3.org/2000/svg" xmlns:xlink="http://www.w3.org/1999/xlink" x="0px" y="0px"
	 width="34px" height="34px" viewBox="0 0 34 34" enable-background="new 0 0 34 34" xml:space="preserve">
<g>
	<path fill-rule="evenodd" clip-rule="evenodd" fill="#004594" d="M17,0c9.389,0,17,7.611,17,17s-7.611,17-17,17S0,26.389,0,17
		S7.611,0,17,0z"/>
	<path fill="#FFFFFF" d="M21,20h-5v-4h5c1.105,0,2-0.896,2-2c0-1.105-0.895-2-2-2h-5v-1l0,0l0,0c0-1.104-0.895-2-2-2s-2,0.895-2,2
		l0,0l0,0v11c0,1.104,0.895,2,2,2h7c1.105,0,2-0.895,2-2S22.105,20,21,20z"/>
</g>
</svg>
