<?xml version="1.0" encoding="utf-8"?>
<!-- Generator: Adobe Illustrator 17.0.0, SVG Export Plug-In . SVG Version: 6.00 Build 0)  -->
<!DOCTYPE svg PUBLIC "-//W3C//DTD SVG 1.1//EN" "http://www.w3.org/Graphics/SVG/1.1/DTD/svg11.dtd">
<svg version="1.1" id="Livello_1" xmlns="http://www.w3.org/2000/svg" xmlns:xlink="http://www.w3.org/1999/xlink" x="0px" y="0px"
	 width="108.982px" height="121.179px" viewBox="0 0 108.982 121.179" enable-background="new 0 0 108.982 121.179"
	 xml:space="preserve">
<g>
	<path fill="#EEEEEE" d="M76.082,116.288l-0.001-0.012c-0.008,0.004-0.017,0.008-0.025,0.012H76.082z"/>
	<path fill="#EEEEEE" d="M104.491,71.179c0-27.614-22.386-50-50-50s-50,22.386-50,50c0,18.438,9.987,34.533,24.839,43.202
		l5.177-32.539c0,0-5.992-1.254-12.214-4.3c-3.586-1.756,0.269-6.038,3.789-4.421c10.136,4.654,21.519,6.266,21.519,6.266
		l4.092,7.366l3.274-7.366l18.005-8.184c0,0,4.138-1.133,8.819-3.639c2.859-1.53,5.858,3.521,2.763,5.525
		c-5.597,3.623-10.764,5.48-10.764,5.48l2.291,37.707C92.884,108.219,104.491,91.059,104.491,71.179z"/>
</g>
<path fill="#F5AF00" d="M31.233,22.918c0,0-2.085-22.733,0.818-22.915s4.668,9.002,6.547,9.002c0.179,0-0.811-9.312,1.637-8.184
	s3.827,5.5,5.729,5.729c0.04-0.102-1.262-5.402,0.818-4.91c2.08,0.492,4.193,5.852,6.547,6.547
	c2.355,0.695,20.315,3.055,26.189,9.002s8.307,13.492,8.184,22.097C87.311,66.637,69.698,72.84,69.698,72.84L31.233,22.918z"/>
<path fill="#FFE1C9" d="M50.057,91.663c0,0-7.221-12.917-8.184-13.094c-26.477-3.437-22.097-29.462-22.097-29.462
	s-5.071,0.454-4.092-4.91s5.729-3.274,5.729-3.274s0.885-4.623,3.274-9.002c2.518-4.616,6.547-9.002,6.547-9.002l46.649,9.002
	L73.79,52.38c0,0,7.674-3.98,7.366,4.092s-8.184,4.092-8.184,4.092l-1.637,13.094L50.057,91.663z"/>
<ellipse transform="matrix(-0.9398 -0.3418 0.3418 -0.9398 74.4568 98.725)" fill="#402517" cx="45.926" cy="42.803" rx="3.342" ry="5.32"/>
<ellipse transform="matrix(-0.2143 0.9768 -0.9768 -0.2143 72.2026 18.5219)" fill="#402517" cx="28.652" cy="38.301" rx="4.653" ry="3.274"/>
<path fill="#402517" d="M32.87,55.654c4.731,0.676,9.821,0,9.821,0s-0.371,8.664-9.002,8.184s-8.184-10.639-8.184-10.639
	S29.124,55.119,32.87,55.654z"/>
<path fill="#85A4FF" d="M81.791,67.565c-4.682,2.506-8.819,3.639-8.819,3.639l-18.005,8.184l-3.274,7.366l-4.092-7.366
	c0,0-11.382-1.611-21.519-6.266c-3.52-1.616-7.376,2.665-3.789,4.421c6.221,3.046,12.214,4.3,12.214,4.3l-5.177,32.539
	c2.249,1.313,4.609,2.453,7.064,3.407l36.978-0.309c0.916-0.374,1.822-0.766,2.709-1.191l-2.291-37.72c0,0,5.167-1.857,10.764-5.48
	C87.649,71.086,84.65,66.034,81.791,67.565z"/>
<g>
	<circle fill="#FFFFFF" cx="54.149" cy="105.576" r="1.637"/>
	<circle fill="#FFFFFF" cx="54.149" cy="97.392" r="1.637"/>
	<circle fill="#FFFFFF" cx="54.967" cy="89.208" r="1.637"/>
</g>
<g>
	<path fill="#FFE1C9" d="M81.791,67.564c2.859-1.53,5.921-3.572,8.367-6.181c5.788-6.174,7.366-16.368,7.366-16.368
		s-3.676-8.774-2.455-9.821s3.274,4.092,3.274,4.092s-0.717-6.693,0-8.184c0.717-1.491,10.575,4.79,10.639,6.547
		c0.064,1.757-6.547,6.547-6.547,6.547s-1.861,12.709-9.002,21.278c-2.557,3.069-5.783,5.609-8.879,7.613L81.791,67.564z"/>
	<path fill="#FFE1C9" d="M0.134,33.557c0.929-1.505,9.954-2.303,9.821,0s-1.637,6.547-1.637,6.547s3.586-3.581,4.092-1.637
		s-4.092,5.729-4.092,5.729s-0.929,14.751,8.184,22.915c2.691,2.41,6.062,4.391,9.582,6.007l-3.79,4.422
		c-3.587-1.756-7.249-4.105-9.884-7.156c-8.272-9.578-9.002-24.552-9.002-24.552S-0.795,35.062,0.134,33.557z"/>
</g>
<ellipse transform="matrix(-0.9398 -0.3418 0.3418 -0.9398 71.3775 100.7128)" fill="#85A4FF" cx="44.562" cy="44.068" rx="1.671" ry="2.66"/>
<ellipse transform="matrix(-0.2143 0.9768 -0.9768 -0.2143 71.7829 21.3896)" fill="#85A4FF" cx="27.289" cy="39.566" rx="2.327" ry="1.637"/>
<path fill="#284598" d="M54.491,121.179c6.683,0,13.054-1.321,18.882-3.7l-36.978,0.309
	C42.008,119.97,48.106,121.179,54.491,121.179z"/>
</svg>
