<?xml version="1.0" encoding="utf-8"?>
<!-- Generator: Adobe Illustrator 17.0.0, SVG Export Plug-In . SVG Version: 6.00 Build 0)  -->
<!DOCTYPE svg PUBLIC "-//W3C//DTD SVG 1.1//EN" "http://www.w3.org/Graphics/SVG/1.1/DTD/svg11.dtd">
<svg version="1.1" id="Livello_1" xmlns="http://www.w3.org/2000/svg" xmlns:xlink="http://www.w3.org/1999/xlink" x="0px" y="0px"
	 width="104.566px" height="122.717px" viewBox="0 0 104.566 122.717" enable-background="new 0 0 104.566 122.717"
	 xml:space="preserve">
<g>
	<g>
		<path fill-rule="evenodd" clip-rule="evenodd" fill="#EEEEEE" d="M71.736,117.756"/>
		<path fill-rule="evenodd" clip-rule="evenodd" fill="#EEEEEE" d="M50,22.717c27.614,0,50,22.386,50,50
			c0,19.824-11.538,36.952-28.264,45.039l-2.487-31.928c0,0,12.494-4.272,22.62-14.865l-2.487-2.301l-2.399-2.22
			C74.118,78.596,54.821,80.773,54.821,80.773l-3.695,7.661l-1.871-7.553c0,0-22.861-2.816-34.182-18.106l-7.25,6.98
			c7.169,10.879,14.198,12.864,14.198,12.864l-5.384,27.331C6.428,100.795,0,87.509,0,72.717C0,45.103,22.386,22.717,50,22.717z"/>
		<path fill-rule="evenodd" clip-rule="evenodd" fill="#EEEEEE" d="M16.638,109.95"/>
	</g>
	<path fill-rule="evenodd" clip-rule="evenodd" fill="#FFE1C9" d="M6.167,17.079c0,0-2.151-14.067,0.207-15.587
		S20.002-0.97,21.494,1.623c0.837,1.455-2.493,10.558-5.008,14.283c0,0,7.491-2.154,7.142,1.097c-0.35,3.25-10.348,4.13-10.348,4.13
		S7.726,36.695,9.149,47.937c0.741,5.856,3.003,10.842,5.924,14.837l-7.25,6.98C4.513,64.692,1.637,57.84,0.534,48.943
		C-1.233,34.688,6.167,17.079,6.167,17.079z"/>
	<path fill-rule="evenodd" clip-rule="evenodd" fill="#FFE1C9" d="M22.854,38.776c0,0,37.146-19.521,44.986-14.516
		s11.339,15.733,11.339,15.733s4.44-2.397,6.067,2.506s-3.592,5.977-3.592,5.977s6.885,30.056-26.833,32.295
		c2.521,4.304-2.801,15.05-2.801,15.05L31.856,75.687l-10.216-10.96L18.28,47.154L22.854,38.776z"/>
	<path fill-rule="evenodd" clip-rule="evenodd" fill="#402517" d="M76.009,52.53c0,0,1.617,9.615-5.357,10.929
		c-6.974,1.314-10.186-6.115-10.186-6.115s5.326-0.439,8.825-1.596C72.792,54.592,76.009,52.53,76.009,52.53z"/>
	<path fill-rule="evenodd" clip-rule="evenodd" fill="#2D80BD" d="M71.736,117.756c-6.573,3.178-13.946,4.961-21.736,4.961
		c-12.823,0-24.513-4.832-33.363-12.768l5.384-27.331c0,0-7.029-1.985-14.198-12.864l7.25-6.98
		C26.395,78.065,49.255,80.88,49.255,80.88l1.871,7.553l3.695-7.661c0,0,19.297-2.177,32.162-14.329l2.399,2.22l2.487,2.301
		c-10.126,10.593-22.62,14.865-22.62,14.865L71.736,117.756z"/>
	<g>
		<polygon fill="#76ADDD" points="68.322,77.331 60.953,86.927 54.821,80.773 		"/>
		<polygon fill="#76ADDD" points="49.255,80.88 43.642,87.473 34.73,76.919 		"/>
		<circle fill="#76ADDD" cx="52.792" cy="92.179" r="1.339"/>
		<circle fill="#76ADDD" cx="54.959" cy="87.113" r="1.339"/>
	</g>
	<path fill-rule="evenodd" clip-rule="evenodd" d="M34.73,76.919c0,0-17.871-1.808-21.988-28.812
		c-1.295-8.495,0.199-16.305,5.471-23.023s23.538-11.602,25.88-12.623c2.342-1.022,3.801-6.625,5.887-7.407
		c2.086-0.782,1.458,4.646,1.513,4.742c1.937-0.496,2.771-5.017,5.151-6.481s2.619,7.89,2.804,7.864
		c1.945-0.267,2.525-9.603,5.554-9.836C68.032,1.112,67.84,24.26,67.84,24.26L23.358,38.967l5.823,18.037
		c0,0-6.965-0.458-6.038,6.012c0.926,6.47,7.995,3.121,7.995,3.121L34.73,76.919z"/>
	<path d="M51.586,50.044c-0.185,0-0.372-0.041-0.549-0.127c-0.625-0.304-0.887-1.054-0.584-1.68c0.06-0.124,1.498-3.057,4.009-4.376
		c2.66-1.398,5.9-0.107,6.037-0.052c0.644,0.262,0.955,0.998,0.692,1.642c-0.262,0.645-0.998,0.954-1.642,0.692
		c-0.019-0.008-2.3-0.899-3.915-0.052c-1.767,0.928-2.902,3.221-2.913,3.244C52.502,49.783,52.053,50.044,51.586,50.044z"/>
	<path d="M76.507,40.348c0.117-0.12,0.207-0.27,0.259-0.443c0.184-0.612-0.172-1.288-0.798-1.512
		c-0.124-0.045-3.071-1.082-5.575-0.333c-2.652,0.793-3.804,3.775-3.852,3.902c-0.225,0.597,0.09,1.294,0.704,1.557
		c0.614,0.263,1.293-0.009,1.519-0.605c0.007-0.018,0.828-2.105,2.439-2.588c1.762-0.527,4.072,0.277,4.095,0.285
		C75.746,40.77,76.212,40.652,76.507,40.348z"/>
	<path fill-rule="evenodd" clip-rule="evenodd" fill="#FFE1C9" d="M104.154,17.898c1.118,2.404-0.371,11.588-0.579,12.83
		l-5.421,2.101c0,0-8.51-2.303-7.76-4.364c0.75-2.06,5.662,1.498,5.662,1.498c-1.629-2.262-3.728-5.267-4.445-6.702
		C90.377,20.794,102.955,15.318,104.154,17.898z"/>
	<path fill-rule="evenodd" clip-rule="evenodd" fill="#FFE1C9" d="M98.044,35.461c-0.175-1.943-0.411-3.764-0.687-5.494h6.336
		c0.26,1.633,0.48,3.341,0.647,5.13c1.517,16.185-4.797,27.84-12.47,35.867l-4.886-4.52C94.157,59.668,99.332,49.792,98.044,35.461z
		"/>
</g>
</svg>
