<?xml version="1.0" encoding="utf-8"?>
<!-- Generator: Adobe Illustrator 17.0.0, SVG Export Plug-In . SVG Version: 6.00 Build 0)  -->
<!DOCTYPE svg PUBLIC "-//W3C//DTD SVG 1.1//EN" "http://www.w3.org/Graphics/SVG/1.1/DTD/svg11.dtd">
<svg version="1.1" id="Livello_1" xmlns="http://www.w3.org/2000/svg" xmlns:xlink="http://www.w3.org/1999/xlink" x="0px" y="0px"
	 width="104.566px" height="122.717px" viewBox="0 0 104.566 122.717" enable-background="new 0 0 104.566 122.717"
	 xml:space="preserve">
<g>
	<g>
		<path fill-rule="evenodd" clip-rule="evenodd" fill="#EEEEEE" d="M32.83,117.756"/>
		<path fill-rule="evenodd" clip-rule="evenodd" fill="#EEEEEE" d="M54.566,22.717c-27.614,0-50,22.386-50,50
			c0,19.824,11.538,36.952,28.264,45.039l2.487-31.928c0,0-12.494-4.272-22.62-14.865l2.487-2.301l2.399-2.22
			c12.865,12.152,32.162,14.329,32.162,14.329l3.695,7.661l1.871-7.553c0,0,22.861-2.816,34.182-18.106l7.25,6.98
			c-7.169,10.879-14.198,12.864-14.198,12.864l5.384,27.331c10.209-9.154,16.637-22.441,16.637-37.232
			C104.566,45.103,82.18,22.717,54.566,22.717z"/>
		<path fill-rule="evenodd" clip-rule="evenodd" fill="#EEEEEE" d="M87.928,109.95"/>
	</g>
	<path fill-rule="evenodd" clip-rule="evenodd" fill="#FFE1C9" d="M98.4,17.079c0,0,2.151-14.067-0.207-15.587
		S84.564-0.97,83.072,1.623c-0.837,1.455,2.493,10.558,5.008,14.283c0,0-7.491-2.154-7.142,1.097s10.348,4.13,10.348,4.13
		s5.554,15.563,4.131,26.806c-0.741,5.856-3.003,10.842-5.924,14.837l7.25,6.98c3.311-5.062,6.186-11.915,7.289-20.812
		C105.799,34.688,98.4,17.079,98.4,17.079z"/>
	<path fill-rule="evenodd" clip-rule="evenodd" fill="#FFE1C9" d="M81.712,38.776c0,0-37.146-19.521-44.986-14.516
		S25.388,39.994,25.388,39.994s-4.44-2.397-6.067,2.506c-1.626,4.904,3.592,5.977,3.592,5.977s-6.885,30.056,26.833,32.295
		c-2.521,4.304,2.801,15.05,2.801,15.05L72.71,75.687l10.216-10.96l3.361-17.573L81.712,38.776z"/>
	<path fill-rule="evenodd" clip-rule="evenodd" fill="#402517" d="M28.557,52.53c0,0-1.617,9.615,5.357,10.929
		c6.974,1.314,10.186-6.115,10.186-6.115s-5.326-0.439-8.825-1.596C31.774,54.592,28.557,52.53,28.557,52.53z"/>
	<path fill-rule="evenodd" clip-rule="evenodd" fill="#2D80BD" d="M32.83,117.756c6.573,3.178,13.946,4.961,21.736,4.961
		c12.823,0,24.513-4.832,33.363-12.768l-5.384-27.331c0,0,7.029-1.985,14.198-12.864l-7.25-6.98
		C78.171,78.065,55.311,80.88,55.311,80.88l-1.871,7.553l-3.695-7.661c0,0-19.297-2.177-32.162-14.329l-2.399,2.22l-2.487,2.301
		c10.126,10.593,22.62,14.865,22.62,14.865L32.83,117.756z"/>
	<g>
		<polygon fill="#76ADDD" points="36.244,77.331 43.613,86.927 49.745,80.773 		"/>
		<polygon fill="#76ADDD" points="55.311,80.88 60.925,87.473 69.836,76.919 		"/>
		<circle fill="#76ADDD" cx="51.774" cy="92.179" r="1.339"/>
		<circle fill="#76ADDD" cx="49.607" cy="87.113" r="1.339"/>
	</g>
	<path fill-rule="evenodd" clip-rule="evenodd" d="M73.429,66.137c0,0,7.068,3.349,7.995-3.121s-6.038-6.012-6.038-6.012
		l5.823-18.037L36.726,24.26c0,0-0.192-23.149,2.837-22.917s3.609,9.569,5.554,9.836c0.185,0.025,0.424-9.328,2.804-7.864
		s3.214,5.985,5.151,6.481c0.055-0.096-0.573-5.523,1.513-4.742c2.086,0.782,3.545,6.385,5.887,7.407
		c2.342,1.022,20.608,5.906,25.88,12.623s6.766,14.527,5.471,23.023c-4.117,27.004-21.988,28.812-21.988,28.812L73.429,66.137z"/>
	<path d="M52.98,50.044c0.185,0,0.372-0.041,0.549-0.127c0.625-0.304,0.887-1.054,0.584-1.68c-0.06-0.124-1.498-3.057-4.009-4.376
		c-2.66-1.398-5.9-0.107-6.037-0.052c-0.644,0.262-0.955,0.998-0.692,1.642c0.262,0.645,0.998,0.954,1.642,0.692
		c0.019-0.008,2.3-0.899,3.915-0.052c1.767,0.928,2.902,3.221,2.913,3.244C52.064,49.783,52.514,50.044,52.98,50.044z"/>
	<path d="M28.059,40.348c-0.117-0.12-0.207-0.27-0.259-0.443c-0.184-0.612,0.172-1.288,0.798-1.512
		c0.124-0.045,3.071-1.082,5.575-0.333c2.652,0.793,3.804,3.775,3.852,3.902c0.225,0.597-0.09,1.294-0.704,1.557
		c-0.614,0.263-1.293-0.009-1.519-0.605c-0.007-0.018-0.828-2.105-2.439-2.588c-1.762-0.527-4.072,0.277-4.095,0.285
		C28.82,40.77,28.355,40.652,28.059,40.348z"/>
	<path fill-rule="evenodd" clip-rule="evenodd" fill="#FFE1C9" d="M0.412,17.898c-1.118,2.404,0.371,11.588,0.579,12.83l5.421,2.101
		c0,0,8.51-2.303,7.76-4.364c-0.75-2.06-5.662,1.498-5.662,1.498c1.629-2.262,3.728-5.267,4.445-6.702
		C14.189,20.794,1.611,15.318,0.412,17.898z"/>
	<path fill-rule="evenodd" clip-rule="evenodd" fill="#FFE1C9" d="M6.522,35.461c0.175-1.943,0.411-3.764,0.687-5.494H0.874
		c-0.26,1.633-0.48,3.341-0.647,5.13c-1.517,16.185,4.797,27.84,12.47,35.867l4.886-4.52C10.409,59.668,5.235,49.792,6.522,35.461z"
		/>
</g>
</svg>
