<?xml version="1.0" encoding="utf-8"?>
<!-- Generator: Adobe Illustrator 17.0.0, SVG Export Plug-In . SVG Version: 6.00 Build 0)  -->
<!DOCTYPE svg PUBLIC "-//W3C//DTD SVG 1.1//EN" "http://www.w3.org/Graphics/SVG/1.1/DTD/svg11.dtd">
<svg version="1.1" id="Livello_1" xmlns="http://www.w3.org/2000/svg" xmlns:xlink="http://www.w3.org/1999/xlink" x="0px" y="0px"
	 width="56px" height="56px" viewBox="0 0 56 56" enable-background="new 0 0 56 56" xml:space="preserve">
<path fill-rule="evenodd" clip-rule="evenodd" fill="#77BDF4" d="M28,0c15.464,0,28,12.536,28,28S43.464,56,28,56
	C12.536,56,0,43.464,0,28S12.536,0,28,0z"/>
<path fill="#FFFFFF" d="M32,31h-5v-4h5c1.105,0,2-0.896,2-2c0-1.105-0.895-2-2-2h-5v-1l0,0l0,0c0-1.104-0.895-2-2-2s-2,0.895-2,2
	l0,0l0,0v11c0,1.104,0.895,2,2,2h7c1.105,0,2-0.895,2-2C34,31.895,33.105,31,32,31z"/>
</svg>
