<?xml version="1.0" encoding="utf-8"?>

<!-- Generator: Adobe Illustrator 17.0.0, SVG Export Plug-In . SVG Version: 6.00 Build 0)  -->

<!DOCTYPE svg PUBLIC "-//W3C//DTD SVG 1.1//EN" "http://www.w3.org/Graphics/SVG/1.1/DTD/svg11.dtd">

<svg version="1.1" id="Livello_1" xmlns="http://www.w3.org/2000/svg" xmlns:xlink="http://www.w3.org/1999/xlink" x="0px" y="0px"

	 width="22px" height="22px" viewBox="0 0 22 22" enable-background="new 0 0 22 22" xml:space="preserve">

<path fill="#004594" d="M16.964,20.15H4.037c-0.823,0-1.492-0.671-1.492-1.496v-8.062c-0.587-0.208-0.994-0.772-0.994-1.41v-3.49

	c0-0.825,0.669-1.496,1.492-1.496h2.232C5.022,3.861,4.81,3.443,4.794,2.975C4.772,2.349,5.086,1.787,5.727,1.306

	C6.067,1.05,6.446,0.92,6.852,0.92c1.576,0,3.111,2.033,3.778,3.046c0.603-0.915,1.95-2.715,3.375-3.005

	c0.557-0.112,1.077,0.005,1.528,0.344c0.641,0.482,0.955,1.043,0.933,1.67c-0.016,0.467-0.228,0.885-0.48,1.222h1.973

	c0.822,0,1.492,0.671,1.492,1.496v3.49c0,0.638-0.408,1.202-0.994,1.41v8.062C18.456,19.479,17.787,20.15,16.964,20.15z

	 M13.483,19.153h3.481c0.274,0,0.497-0.224,0.497-0.499v-7.977h-3.978V19.153z M8.511,19.153h3.978V5.194H8.511V19.153z

	 M3.539,10.678v7.977c0,0.275,0.223,0.499,0.497,0.499h3.48v-8.475H3.539z M13.483,9.681h4.475c0.274,0,0.497-0.224,0.497-0.499

	v-3.49c0-0.275-0.223-0.498-0.497-0.498h-4.475V9.681z M3.042,5.194c-0.274,0-0.497,0.224-0.497,0.498v3.49

	c0,0.275,0.223,0.499,0.497,0.499h4.475V5.194H3.042z M11.681,4.197h2.898c0.239-0.181,0.875-0.712,0.894-1.257

	c0.009-0.281-0.171-0.562-0.536-0.837c-0.225-0.169-0.463-0.22-0.734-0.164C13.264,2.13,12.219,3.436,11.681,4.197z M6.682,4.197

	h2.902c-0.796-1.125-1.898-2.28-2.732-2.28c-0.192,0-0.36,0.059-0.529,0.186C5.959,2.378,5.779,2.659,5.788,2.94

	C5.806,3.484,6.442,4.016,6.682,4.197z"/>

</svg>

