<?xml version="1.0" encoding="utf-8"?>
<!-- Generator: Adobe Illustrator 17.0.0, SVG Export Plug-In . SVG Version: 6.00 Build 0)  -->
<!DOCTYPE svg PUBLIC "-//W3C//DTD SVG 1.1//EN" "http://www.w3.org/Graphics/SVG/1.1/DTD/svg11.dtd">
<svg version="1.1" id="Livello_1" xmlns="http://www.w3.org/2000/svg" xmlns:xlink="http://www.w3.org/1999/xlink" x="0px" y="0px"
	 width="64px" height="64px" viewBox="0 0 64 64" enable-background="new 0 0 64 64" xml:space="preserve">
<path fill-rule="evenodd" clip-rule="evenodd" fill="#0050a0" d="M32,0c17.673,0,32,14.327,32,32S49.673,64,32,64S0,49.673,0,32
	S14.327,0,32,0z"/>
<path fill-rule="evenodd" clip-rule="evenodd" fill="#FFAE00" d="M32,3c16.016,0,29,12.984,29,29S48.016,61,32,61S3,48.016,3,32
	S15.984,3,32,3z"/>
<path fill="#FFFFFF" d="M28.165,41.368c1.951-1.248,2.928-3.28,2.928-6.096v-0.816h7.44v-5.088h-7.968
	c-0.064-0.896-0.096-1.552-0.096-1.968c0-3.487,1.68-5.232,5.04-5.232c1.855,0,3.52,0.528,4.992,1.584v-6.624
	c-1.664-1.024-3.856-1.536-6.576-1.536c-3.712,0-6.512,1.016-8.4,3.048c-1.889,2.032-2.832,4.856-2.832,8.472
	c0,0.736,0.048,1.488,0.144,2.256h-2.88v5.088h3.552v0.768c0,2.944-1.168,5.024-3.504,6.24v5.808h22.176v-5.904H28.165z"/>
</svg>
