<?xml version="1.0" encoding="utf-8"?>
<!-- Generator: Adobe Illustrator 17.0.0, SVG Export Plug-In . SVG Version: 6.00 Build 0)  -->
<!DOCTYPE svg PUBLIC "-//W3C//DTD SVG 1.1//EN" "http://www.w3.org/Graphics/SVG/1.1/DTD/svg11.dtd">
<svg version="1.1" id="Livello_1" xmlns="http://www.w3.org/2000/svg" xmlns:xlink="http://www.w3.org/1999/xlink" x="0px" y="0px"
	 width="84px" height="84px" viewBox="0 0 84 84" enable-background="new 0 0 84 84" xml:space="preserve">
<path fill-rule="evenodd" clip-rule="evenodd" fill="#0050a0" d="M42,0c23.196,0,42,18.804,42,42S65.196,84,42,84S0,65.196,0,42
	S18.804,0,42,0z"/>
<path fill-rule="evenodd" clip-rule="evenodd" fill="#6AB5AC" d="M42,3c21.539,0,39,17.461,39,39S63.539,81,42,81S3,63.539,3,42
	S20.461,3,42,3z"/>
<path fill="#FFFFFF" d="M68.026,29.209c-0.38-0.45-0.939-0.709-1.528-0.709H58.76c0.153-1.914,0.238-3.882,0.24-5.898
	c0.002-0.034,0.003-0.068,0.003-0.102c0-1.105-0.893-2-1.997-2H57H27c-1.105,0-2,0.895-2,2c0,2.052,0.085,4.053,0.241,6h-7.74
	c-0.589,0-1.148,0.259-1.528,0.709s-0.543,1.044-0.444,1.625c2.144,12.676,10.55,22.386,20.926,24.978
	c0.578,0.4,1.17,0.738,1.775,1.012c-0.987,2.66-2.833,4.523-4.977,4.661c-0.064-0.006-0.133-0.01-0.206-0.01
	c-1.661,0-3.013,1.352-3.013,3.013c0,1.496,1.095,2.743,2.547,2.969C32.716,67.485,32.856,67.5,33,67.5h18c0.008,0,0.016,0,0.024,0
	c0.008,0,0.015,0,0.022,0c1.661,0,3.013-1.352,3.013-3.013c0-1.661-1.352-3.013-3.013-3.013c-0.096,0-0.183,0.006-0.262,0.016
	c-2.122-0.119-3.991-2.01-4.996-4.675c0.6-0.272,1.187-0.608,1.76-1.005c10.374-2.593,18.779-12.301,20.923-24.977
	C68.569,30.253,68.406,29.659,68.026,29.209z M57,22.5c0,18.317-6.716,33.167-15,33.167S27,40.817,27,22.5H57z M17.501,30.5h7.929
	c1.013,9.337,3.769,17.154,7.558,21.969C25.144,48.829,19.208,40.593,17.501,30.5z M50.939,63.496
	c0.037-0.004,0.07-0.022,0.108-0.022c0.559,0,1.013,0.454,1.013,1.013c0,0.559-0.454,1.013-1.013,1.013
	c-0.017,0-0.03-0.009-0.047-0.009V65.5H33v-0.009c-0.536-0.026-0.966-0.461-0.966-1.004c0-0.56,0.454-1.013,1.013-1.013
	c0.03,0,0.055,0.014,0.084,0.017c3.062-0.068,5.695-2.505,6.996-6.031c0.614,0.133,1.239,0.207,1.873,0.207s1.258-0.073,1.873-0.207
	C45.183,61.014,47.847,63.464,50.939,63.496z M51.012,52.469c3.789-4.815,6.545-12.632,7.558-21.969h7.928
	C64.792,40.593,58.856,48.83,51.012,52.469z"/>
</svg>
