<?xml version="1.0" encoding="utf-8"?>
<!-- Generator: Adobe Illustrator 17.0.0, SVG Export Plug-In . SVG Version: 6.00 Build 0)  -->
<!DOCTYPE svg PUBLIC "-//W3C//DTD SVG 1.1//EN" "http://www.w3.org/Graphics/SVG/1.1/DTD/svg11.dtd">
<svg version="1.1" id="Livello_1" xmlns="http://www.w3.org/2000/svg" xmlns:xlink="http://www.w3.org/1999/xlink" x="0px" y="0px"
	 width="12.809px" height="36px" viewBox="101.143 0 12.809 36" enable-background="new 101.143 0 12.809 36" xml:space="preserve">
<path fill="#C70000" d="M104.241,24.698c-0.448-0.323-1.074-0.22-1.397,0.231c-0.323,0.45-0.22,1.078,0.229,1.401l5.012,3.61
	c0.147,0.106,0.314,0.166,0.483,0.183c0.344,0.034,0.696-0.112,0.913-0.414c0.324-0.45,0.222-1.077-0.228-1.401L104.241,24.698z"/>
<path fill="#C70000" d="M104.036,12.039c0.168-0.023,0.333-0.09,0.476-0.202l4.865-3.806c0.435-0.34,0.514-0.972,0.173-1.409
	c-0.342-0.438-0.972-0.517-1.405-0.176l-4.865,3.806c-0.435,0.34-0.513,0.972-0.173,1.409
	C103.336,11.955,103.693,12.087,104.036,12.039z"/>
<path fill="#C70000" d="M112.952,16.877h-6c-0.552,0-1,0.448-1,1s0.448,1,1,1h6c0.552,0,1-0.448,1-1S113.504,16.877,112.952,16.877z
	"/>
</svg>
