<?xml version="1.0" encoding="utf-8"?>
<!-- Generator: Adobe Illustrator 17.0.0, SVG Export Plug-In . SVG Version: 6.00 Build 0)  -->
<!DOCTYPE svg PUBLIC "-//W3C//DTD SVG 1.1//EN" "http://www.w3.org/Graphics/SVG/1.1/DTD/svg11.dtd">
<svg version="1.1" id="Livello_1" xmlns="http://www.w3.org/2000/svg" xmlns:xlink="http://www.w3.org/1999/xlink" x="0px" y="0px"
	 width="40.809px" height="36px" viewBox="0 0 40.809 36" enable-background="new 0 0 40.809 36" xml:space="preserve">
<path fill="#C70000" d="M38.108,30.177l-13.66-3.16l-11.596-2.684c-0.001,0-0.002,0-0.002,0l-5.309-1.228l-0.606-6.366L35.973,3.557
	c0.503-0.229,0.727-0.823,0.499-1.329c-0.228-0.505-0.82-0.73-1.324-0.501L5.458,15.205c-0.39,0.177-0.624,0.583-0.584,1.011
	l0.743,7.801c0.041,0.431,0.352,0.787,0.771,0.884l5.038,1.166l-0.329,1.436c-0.208,0.906-0.052,1.84,0.439,2.63
	c0.492,0.789,1.26,1.338,2.162,1.547l7.216,1.67c0.256,0.059,0.519,0.089,0.781,0.089c1.624,0,3.013-1.111,3.378-2.701l0.33-1.436
	l12.254,2.835c0.076,0.018,0.151,0.026,0.226,0.026c0.455,0,0.867-0.314,0.974-0.779C38.982,30.841,38.646,30.301,38.108,30.177z
	 M23.124,30.285c-0.179,0.783-0.971,1.29-1.76,1.105l-7.216-1.669c-0.382-0.088-0.707-0.321-0.915-0.654
	c-0.208-0.334-0.274-0.73-0.186-1.113l0.329-1.436l5.807,1.344l4.271,0.987L23.124,30.285z"/>
<path fill="#C70000" d="M1.906,15.649c-0.551,0.053-0.954,0.544-0.901,1.096l0.713,7.489c0.05,0.52,0.485,0.909,0.995,0.909
	c0.032,0,0.064-0.001,0.096-0.005c0.55-0.052,0.953-0.542,0.901-1.095l-0.713-7.49C2.943,16.001,2.454,15.593,1.906,15.649z"/>
</svg>
