<?xml version="1.0" encoding="utf-8"?>
<!-- Generator: Adobe Illustrator 17.0.0, SVG Export Plug-In . SVG Version: 6.00 Build 0)  -->
<!DOCTYPE svg PUBLIC "-//W3C//DTD SVG 1.1//EN" "http://www.w3.org/Graphics/SVG/1.1/DTD/svg11.dtd">
<svg version="1.1" id="Livello_1" xmlns="http://www.w3.org/2000/svg" xmlns:xlink="http://www.w3.org/1999/xlink" x="0px" y="0px"
	 width="27.306px" height="22.786px" viewBox="0 0 27.306 22.786" enable-background="new 0 0 27.306 22.786" xml:space="preserve">
<g>
	<path fill-rule="evenodd" clip-rule="evenodd" fill="#BBBBBB" d="M26.806,20.558l-14.144-3.227l-4.68-1.068l-3.78-0.863l-0.44-4.8
		l21.135-9.373c0.325-0.144,0.471-0.524,0.327-0.847c-0.145-0.324-0.525-0.47-0.85-0.326L2.334,9.861l0.823,6.619l4.538,1.035
		l-0.335,1.46c-0.264,1.152,0.458,2.3,1.613,2.563l5.229,1.193c1.155,0.263,2.306-0.457,2.57-1.609l0.335-1.46l9.412,2.147
		c0.346,0.079,0.692-0.137,0.771-0.483C27.369,20.982,27.152,20.637,26.806,20.558z M15.146,20.532
		c-0.106,0.461-0.566,0.749-1.028,0.643l-4.392-1.002c-0.462-0.105-0.751-0.564-0.645-1.025l0.287-1.251l6.066,1.384L15.146,20.532z
		"/>
	<path fill-rule="evenodd" clip-rule="evenodd" fill="#BBBBBB" d="M0.579,9.723c-0.354,0.036-0.611,0.351-0.575,0.703l0.609,5.961
		c0.036,0.353,0.352,0.61,0.706,0.573c0.354-0.036,0.611-0.351,0.575-0.704l-0.609-5.961C1.248,9.944,0.932,9.687,0.579,9.723z"/>
</g>
</svg>
