<?xml version="1.0" encoding="utf-8"?>
<!-- Generator: Adobe Illustrator 17.0.0, SVG Export Plug-In . SVG Version: 6.00 Build 0)  -->
<!DOCTYPE svg PUBLIC "-//W3C//DTD SVG 1.1//EN" "http://www.w3.org/Graphics/SVG/1.1/DTD/svg11.dtd">
<svg version="1.1" id="Livello_1" xmlns="http://www.w3.org/2000/svg" xmlns:xlink="http://www.w3.org/1999/xlink" x="0px" y="0px"
	 width="56px" height="56px" viewBox="0 0 56 56" enable-background="new 0 0 56 56" xml:space="preserve">
<path fill-rule="evenodd" clip-rule="evenodd" fill="#E36F60" d="M28,0c15.464,0,28,12.536,28,28S43.464,56,28,56S0,43.464,0,28
	S12.536,0,28,0z"/>
<g>
	<polygon fill-rule="evenodd" clip-rule="evenodd" fill="#FFFFFF" points="36,27 36,25 34,25 34,27 32,27 32,29 34,29 34,31 36,31 
		36,29 38,29 38,27 	"/>
	<path fill-rule="evenodd" clip-rule="evenodd" fill="#FFFFFF" d="M27.859,27H24v2h3.859c-0.446,1.722-1.997,3-3.859,3
		c-2.209,0-4-1.791-4-4c0-2.209,1.791-4,4-4c1.105,0,2.105,0.448,2.828,1.172l1.414-1.414C27.157,22.671,25.657,22,24,22
		c-3.314,0-6,2.686-6,6c0,3.314,2.686,6,6,6c2.972,0,5.433-2.163,5.91-5v-2H29H27.859z"/>
</g>
</svg>
