<?xml version="1.0" encoding="utf-8"?>
<!-- Generator: Adobe Illustrator 17.0.0, SVG Export Plug-In . SVG Version: 6.00 Build 0)  -->
<!DOCTYPE svg PUBLIC "-//W3C//DTD SVG 1.1//EN" "http://www.w3.org/Graphics/SVG/1.1/DTD/svg11.dtd">
<svg version="1.1" id="Livello_1" xmlns="http://www.w3.org/2000/svg" xmlns:xlink="http://www.w3.org/1999/xlink" x="0px" y="0px"
	 width="82px" height="19px" viewBox="0 0 82 19" enable-background="new 0 0 82 19" xml:space="preserve">
<path d="M4.172,9.084l3.11,5.471h1.766L5.56,8.643c1.722-0.612,2.583-1.788,2.583-3.528c0-1.242-0.376-2.172-1.129-2.79
	C6.261,1.708,5.097,1.399,3.522,1.399h-3.523v13.156h1.493V9.084H4.172z M1.493,2.74h1.941c1.107,0,1.911,0.192,2.411,0.576
	C6.346,3.7,6.596,4.327,6.596,5.197c0,0.858-0.246,1.501-0.738,1.93C5.367,7.556,4.594,7.77,3.539,7.77H1.493V2.74z"/>
<path d="M12.359,4.693h-1.458v9.863h1.458V4.693z M11.024,2.772c0.164,0.165,0.369,0.247,0.615,0.247
	c0.234,0,0.436-0.082,0.606-0.247c0.17-0.165,0.255-0.415,0.255-0.751c0-0.336-0.085-0.585-0.255-0.747
	c-0.17-0.162-0.372-0.243-0.606-0.243c-0.246,0-0.451,0.079-0.615,0.238c-0.164,0.159-0.246,0.41-0.246,0.751
	C10.778,2.356,10.86,2.607,11.024,2.772z"/>
<path d="M21.06,10.236c-0.401-0.432-1.173-0.861-2.315-1.287c-0.832-0.318-1.394-0.561-1.687-0.729
	c-0.293-0.168-0.505-0.345-0.637-0.531c-0.132-0.186-0.198-0.411-0.198-0.675c0-0.39,0.176-0.696,0.527-0.918
	c0.351-0.222,0.873-0.333,1.564-0.333c0.785,0,1.66,0.204,2.626,0.612l0.518-1.215c-0.99-0.432-2.003-0.648-3.039-0.648
	c-1.113,0-1.988,0.233-2.627,0.697c-0.638,0.465-0.957,1.099-0.957,1.903c0,0.45,0.092,0.837,0.277,1.161
	c0.185,0.324,0.466,0.614,0.843,0.868c0.378,0.255,1.015,0.554,1.911,0.895c0.943,0.372,1.577,0.694,1.902,0.967
	c0.325,0.273,0.488,0.602,0.488,0.985c0,0.51-0.205,0.889-0.615,1.138c-0.41,0.249-0.996,0.373-1.757,0.373
	c-0.492,0-1.003-0.069-1.533-0.207c-0.53-0.138-1.026-0.327-1.489-0.567v1.386c0.714,0.414,1.71,0.621,2.987,0.621
	c1.206,0,2.143-0.249,2.811-0.747c0.668-0.498,1.001-1.206,1.001-2.124C21.661,11.211,21.461,10.668,21.06,10.236z"/>
<path d="M31.451,13.39c0.706-0.897,1.058-2.155,1.058-3.775c0-1.614-0.347-2.867-1.041-3.761c-0.694-0.894-1.679-1.341-2.956-1.341
	c-0.644,0-1.215,0.12-1.713,0.36c-0.498,0.24-0.934,0.63-1.309,1.17h-0.07l-0.202-1.35h-1.186v14.29h1.458v-4.058
	c0-0.516-0.035-1.062-0.105-1.638h0.105c0.351,0.492,0.786,0.856,1.304,1.093c0.518,0.237,1.091,0.355,1.717,0.355
	C29.766,14.735,30.746,14.287,31.451,13.39z M30.292,6.767c0.471,0.657,0.707,1.6,0.707,2.83c0,1.212-0.236,2.163-0.707,2.852
	c-0.472,0.69-1.123,1.035-1.955,1.035c-0.996,0-1.719-0.298-2.17-0.895c-0.451-0.597-0.676-1.588-0.676-2.974V9.282
	c0.012-1.218,0.237-2.106,0.676-2.664c0.439-0.558,1.151-0.837,2.135-0.837C29.157,5.782,29.82,6.11,30.292,6.767z"/>
<path d="M42.058,14.555V7.824c0-1.152-0.277-1.989-0.83-2.511c-0.553-0.522-1.404-0.783-2.552-0.783c-0.568,0-1.135,0.075-1.7,0.225
	c-0.565,0.15-1.085,0.357-1.559,0.621l0.448,1.143c1.013-0.504,1.921-0.756,2.723-0.756c0.714,0,1.234,0.185,1.559,0.554
	c0.325,0.369,0.487,0.94,0.487,1.714v0.612l-1.634,0.054c-3.11,0.096-4.664,1.14-4.664,3.132c0,0.93,0.271,1.647,0.812,2.151
	c0.542,0.504,1.29,0.756,2.244,0.756c0.714,0,1.31-0.109,1.788-0.328c0.477-0.219,0.956-0.637,1.436-1.255h0.07l0.29,1.404H42.058z
	 M36.344,13.08c-0.319-0.282-0.479-0.693-0.479-1.233c0-0.69,0.256-1.198,0.769-1.525c0.512-0.327,1.348-0.511,2.508-0.553
	L40.6,9.705v0.891c0,0.918-0.259,1.632-0.778,2.142c-0.518,0.51-1.231,0.765-2.139,0.765C37.11,13.502,36.663,13.362,36.344,13.08z"
	/>
<path d="M47.795,5.035c-0.504,0.348-0.934,0.843-1.291,1.485h-0.07l-0.167-1.827h-1.204v9.863h1.458V9.264
	c0-0.966,0.277-1.773,0.83-2.421c0.553-0.648,1.219-0.972,1.998-0.972c0.304,0,0.656,0.045,1.054,0.135l0.202-1.386
	c-0.34-0.072-0.723-0.108-1.151-0.108C48.852,4.513,48.298,4.687,47.795,5.035z"/>
<path d="M66.136,14.555V8.121c0-1.26-0.271-2.176-0.813-2.749c-0.542-0.573-1.357-0.859-2.446-0.859c-0.697,0-1.318,0.15-1.862,0.45
	c-0.545,0.3-0.96,0.708-1.247,1.224h-0.07c-0.463-1.116-1.447-1.674-2.951-1.674c-0.621,0-1.181,0.135-1.682,0.405
	c-0.501,0.27-0.889,0.645-1.164,1.125h-0.07l-0.237-1.35h-1.186v9.863h1.458V9.381c0-1.278,0.212-2.197,0.637-2.758
	c0.424-0.561,1.094-0.841,2.007-0.841c0.697,0,1.209,0.197,1.537,0.589c0.328,0.393,0.492,0.982,0.492,1.768v6.416h1.458V9.048
	c0-1.11,0.217-1.932,0.65-2.466c0.433-0.534,1.104-0.801,2.012-0.801c0.691,0,1.2,0.197,1.528,0.589
	c0.328,0.393,0.492,0.982,0.492,1.768v6.416H66.136z"/>
<path d="M70.599,4.693H69.14v9.863h1.458V4.693z M69.263,2.772c0.164,0.165,0.369,0.247,0.615,0.247
	c0.234,0,0.436-0.082,0.606-0.247c0.17-0.165,0.255-0.415,0.255-0.751c0-0.336-0.085-0.585-0.255-0.747
	c-0.17-0.162-0.372-0.243-0.606-0.243c-0.246,0-0.451,0.079-0.615,0.238c-0.164,0.159-0.246,0.41-0.246,0.751
	C69.017,2.356,69.099,2.607,69.263,2.772z"/>
<path d="M80.81,5.89c-0.794-0.918-1.864-1.377-3.211-1.377c-1.394,0-2.483,0.448-3.268,1.345c-0.785,0.897-1.177,2.149-1.177,3.757
	c0,1.038,0.182,1.944,0.545,2.718c0.363,0.774,0.878,1.368,1.546,1.782c0.668,0.414,1.432,0.621,2.293,0.621
	c1.394,0,2.486-0.451,3.276-1.354c0.791-0.903,1.186-2.158,1.186-3.766C82.001,8.049,81.604,6.807,80.81,5.89z M75.395,6.744
	c0.486-0.642,1.206-0.963,2.161-0.963c0.966,0,1.697,0.326,2.192,0.976c0.495,0.651,0.742,1.603,0.742,2.857
	c0,1.266-0.247,2.227-0.742,2.884c-0.495,0.657-1.22,0.985-2.174,0.985c-0.955,0-1.678-0.33-2.17-0.99
	c-0.492-0.66-0.738-1.62-0.738-2.88C74.666,8.343,74.909,7.386,75.395,6.744z"/>
</svg>
