<?xml version="1.0" encoding="utf-8"?>
<!-- Generator: Adobe Illustrator 17.0.0, SVG Export Plug-In . SVG Version: 6.00 Build 0)  -->
<!DOCTYPE svg PUBLIC "-//W3C//DTD SVG 1.1//EN" "http://www.w3.org/Graphics/SVG/1.1/DTD/svg11.dtd">
<svg version="1.1" id="Livello_1" xmlns="http://www.w3.org/2000/svg" xmlns:xlink="http://www.w3.org/1999/xlink" x="0px" y="0px"
	 width="25px" height="19px" viewBox="0 0 25 19" enable-background="new 0 0 25 19" xml:space="preserve">
<path d="M7.308,9.114C6.802,8.564,5.877,8.048,4.532,7.567C3.731,7.28,3.136,7.018,2.747,6.78C2.358,6.543,2.082,6.282,1.918,5.998
	C1.755,5.714,1.673,5.349,1.673,4.904c0-0.604,0.222-1.075,0.666-1.415c0.444-0.34,1.061-0.51,1.85-0.51
	c1,0,2.029,0.223,3.087,0.668l0.465-1.301c-1.07-0.469-2.242-0.703-3.517-0.703c-1.222,0-2.204,0.293-2.947,0.879
	C0.535,3.107,0.164,3.896,0.164,4.886c0,0.944,0.256,1.708,0.767,2.294c0.512,0.586,1.364,1.093,2.556,1.521
	c0.854,0.305,1.489,0.577,1.908,0.818c0.418,0.24,0.716,0.503,0.895,0.787c0.178,0.284,0.268,0.649,0.268,1.094
	c0,0.674-0.252,1.2-0.754,1.578c-0.503,0.378-1.251,0.567-2.245,0.567c-0.608,0-1.222-0.064-1.842-0.193
	c-0.62-0.129-1.193-0.305-1.719-0.527v1.442c0.818,0.393,1.988,0.589,3.508,0.589c1.403,0,2.514-0.316,3.333-0.949
	c0.819-0.633,1.228-1.515,1.228-2.646C8.066,10.38,7.813,9.665,7.308,9.114z"/>
<path d="M13.197,5.378c-0.503,0.34-0.933,0.824-1.289,1.451h-0.07l-0.167-1.785h-1.201v9.635h1.456V9.51
	c0-0.944,0.276-1.732,0.829-2.365c0.552-0.633,1.217-0.949,1.995-0.949c0.304,0,0.655,0.044,1.052,0.132l0.202-1.354
	c-0.339-0.07-0.722-0.105-1.149-0.105C14.252,4.868,13.7,5.038,13.197,5.378z"/>
<path d="M19.257,1h-1.456v13.679h1.456V1z"/>
<path d="M22.274,12.587c-0.076,0.539-0.209,1.257-0.399,2.154c-0.19,0.897-0.364,1.65-0.522,2.259h1.096
	c0.31-0.668,0.608-1.391,0.895-2.167c0.286-0.776,0.506-1.458,0.658-2.044l-0.132-0.202H22.274z"/>
</svg>
