<?xml version="1.0" encoding="utf-8"?>
<!-- Generator: Adobe Illustrator 17.0.0, SVG Export Plug-In . SVG Version: 6.00 Build 0)  -->
<!DOCTYPE svg PUBLIC "-//W3C//DTD SVG 1.1//EN" "http://www.w3.org/Graphics/SVG/1.1/DTD/svg11.dtd">
<svg version="1.1" id="Livello_1" xmlns="http://www.w3.org/2000/svg" xmlns:xlink="http://www.w3.org/1999/xlink" x="0px" y="0px"
	 width="33px" height="19px" viewBox="0 0 33 19" enable-background="new 0 0 33 19" xml:space="preserve">
<path d="M6.192,10.375c-0.341,0.95-0.617,1.902-0.829,2.857c-0.2-0.908-0.47-1.843-0.811-2.804L1.59,2.059H0.003l4.62,12.934h1.481
	L10.75,2.059H9.136L6.192,10.375z"/>
<path d="M22.175,14.993L17.106,2.006h-1.261L10.75,14.993h1.516l1.587-4.114h5.166l1.605,4.114H22.175z M14.382,9.526l1.516-4.007
	c0.241-0.678,0.426-1.3,0.555-1.867c0.206,0.737,0.406,1.359,0.6,1.867l1.499,4.007H14.382z"/>
<path d="M27.915,3.395h4.082V2.059h-9.663v1.336h4.082v11.598h1.499V3.395z"/>
</svg>
