<?xml version="1.0" encoding="utf-8"?>
<!-- Generator: Adobe Illustrator 17.0.0, SVG Export Plug-In . SVG Version: 6.00 Build 0)  -->
<!DOCTYPE svg PUBLIC "-//W3C//DTD SVG 1.1//EN" "http://www.w3.org/Graphics/SVG/1.1/DTD/svg11.dtd">
<svg version="1.1" id="Livello_1" xmlns="http://www.w3.org/2000/svg" xmlns:xlink="http://www.w3.org/1999/xlink" x="0px" y="0px"
	 width="66px" height="19px" viewBox="0 0 66 19" enable-background="new 0 0 66 19" xml:space="preserve">
<path d="M8.114,14.817V8.474c0-1.242-0.295-2.145-0.885-2.71c-0.59-0.565-1.469-0.847-2.638-0.847c-0.667,0-1.272,0.132-1.815,0.395
	C2.233,5.575,1.811,5.946,1.51,6.425H1.439L1.2,5.094H0.005v9.723h1.469V9.716c0-1.266,0.236-2.173,0.708-2.723
	c0.472-0.55,1.216-0.825,2.231-0.825c0.767,0,1.331,0.195,1.691,0.585c0.36,0.39,0.54,0.982,0.54,1.774v6.29H8.114z"/>
<path d="M11.026,5.094v6.361c0,1.236,0.293,2.135,0.881,2.697c0.587,0.562,1.471,0.843,2.651,0.843c0.684,0,1.294-0.127,1.828-0.382
	c0.534-0.254,0.952-0.621,1.253-1.1h0.08l0.212,1.304h1.213V5.094h-1.469v5.11c0,1.26-0.235,2.168-0.704,2.724
	c-0.469,0.556-1.211,0.834-2.226,0.834c-0.767,0-1.331-0.195-1.691-0.585c-0.36-0.39-0.54-0.982-0.54-1.774V5.094H11.026z"/>
<path d="M36.096,14.817V8.474c0-1.242-0.273-2.145-0.819-2.71c-0.546-0.565-1.368-0.847-2.465-0.847
	c-0.702,0-1.328,0.148-1.877,0.444c-0.549,0.296-0.968,0.698-1.257,1.207h-0.071c-0.466-1.1-1.458-1.65-2.974-1.65
	c-0.626,0-1.191,0.133-1.695,0.399c-0.505,0.266-0.896,0.636-1.173,1.109h-0.071l-0.239-1.331H22.26v9.723h1.469V9.716
	c0-1.26,0.214-2.166,0.642-2.719c0.428-0.553,1.102-0.83,2.023-0.83c0.702,0,1.219,0.194,1.549,0.581
	c0.33,0.387,0.496,0.969,0.496,1.743v6.325h1.469V9.388c0-1.094,0.218-1.904,0.655-2.431C31,6.431,31.676,6.168,32.591,6.168
	c0.696,0,1.21,0.194,1.54,0.581c0.33,0.387,0.496,0.969,0.496,1.743v6.325H36.096z"/>
<path d="M40.593,6.389h-0.071c0.047-0.597,0.071-1.272,0.071-2.023V1.013h-1.47v13.804h1.053l0.31-1.251h0.106
	c0.354,0.485,0.792,0.844,1.315,1.078c0.522,0.234,1.099,0.35,1.731,0.35c1.263,0,2.25-0.442,2.961-1.326
	c0.711-0.884,1.067-2.125,1.067-3.722s-0.353-2.831-1.058-3.704c-0.705-0.872-1.695-1.309-2.97-1.309
	C42.293,4.934,41.278,5.419,40.593,6.389L40.593,6.389z M45.48,7.099c0.442,0.621,0.664,1.564,0.664,2.83
	c0,1.236-0.221,2.184-0.664,2.843c-0.443,0.66-1.115,0.989-2.018,0.989c-1.003,0-1.732-0.294-2.187-0.883
	c-0.455-0.588-0.682-1.566-0.682-2.932s0.221-2.338,0.664-2.914c0.443-0.577,1.165-0.865,2.169-0.865
	C44.352,6.168,45.037,6.478,45.48,7.099z"/>
<path d="M56.01,14.848c0.463-0.098,0.954-0.259,1.474-0.483v-1.313c-1.021,0.438-2.054,0.656-3.098,0.656
	c-0.992,0-1.76-0.296-2.306-0.887c-0.546-0.591-0.834-1.458-0.863-2.599H57.9V9.29c0-1.313-0.354-2.37-1.062-3.172
	c-0.708-0.801-1.67-1.202-2.886-1.202c-1.298,0-2.333,0.461-3.103,1.384c-0.77,0.923-1.155,2.168-1.155,3.735
	c0,1.556,0.415,2.771,1.244,3.646c0.829,0.875,1.961,1.313,3.395,1.313C54.987,14.995,55.546,14.946,56.01,14.848z M55.704,6.891
	c0.413,0.494,0.62,1.205,0.62,2.134h-5.072c0.083-0.899,0.355-1.603,0.819-2.111c0.463-0.509,1.084-0.763,1.863-0.763
	C54.701,6.15,55.291,6.397,55.704,6.891z"/>
<path d="M63.158,5.431c-0.508,0.343-0.941,0.831-1.301,1.464h-0.071l-0.168-1.801h-1.213v9.723h1.469V9.601
	c0-0.952,0.279-1.748,0.837-2.386c0.558-0.639,1.229-0.958,2.014-0.958c0.307,0,0.661,0.044,1.062,0.133l0.204-1.366
	c-0.342-0.071-0.729-0.106-1.16-0.106C64.223,4.917,63.665,5.088,63.158,5.431z"/>
</svg>
