<?xml version="1.0" encoding="utf-8"?>
<!-- Generator: Adobe Illustrator 17.0.0, SVG Export Plug-In . SVG Version: 6.00 Build 0)  -->
<!DOCTYPE svg PUBLIC "-//W3C//DTD SVG 1.1//EN" "http://www.w3.org/Graphics/SVG/1.1/DTD/svg11.dtd">
<svg version="1.1" id="Livello_1" xmlns="http://www.w3.org/2000/svg" xmlns:xlink="http://www.w3.org/1999/xlink" x="0px" y="0px"
	 width="136px" height="19px" viewBox="0 0 136 19" enable-background="new 0 0 136 19" xml:space="preserve">
<path d="M1.5,14.767V2.174H0.002v12.592H1.5z"/>
<path d="M8.998,3.475h4.079V2.174H3.421v1.301H7.5v11.292h1.498V3.475z"/>
<path d="M18.31,10.693V9.383h-4.326v1.309H18.31z"/>
<path d="M27.38,3.638c-0.726-1.108-1.787-1.662-3.185-1.662c-1.433,0-2.499,0.531-3.198,1.593s-1.048,2.69-1.048,4.884
	c0,2.124,0.361,3.737,1.084,4.836c0.722,1.1,1.777,1.649,3.163,1.649c1.445,0,2.518-0.537,3.22-1.611
	c0.702-1.074,1.053-2.699,1.053-4.875C28.468,6.352,28.105,4.747,27.38,3.638z M22.09,4.461c0.44-0.83,1.142-1.245,2.106-1.245
	c0.975,0,1.681,0.421,2.119,1.262c0.438,0.841,0.656,2.166,0.656,3.975c0,1.809-0.219,3.137-0.656,3.983
	c-0.438,0.847-1.144,1.271-2.119,1.271c-0.963,0-1.665-0.418-2.106-1.253c-0.441-0.835-0.661-2.169-0.661-4.001
	S21.649,5.291,22.09,4.461z"/>
<path d="M37.19,2.833c-0.693-0.56-1.665-0.84-2.916-0.84c-0.764,0-1.491,0.116-2.181,0.349c-0.69,0.233-1.3,0.553-1.828,0.96
	l0.74,0.965c0.64-0.402,1.21-0.677,1.709-0.827c0.499-0.149,1.031-0.224,1.595-0.224c0.74,0,1.326,0.175,1.758,0.526
	c0.432,0.35,0.647,0.832,0.647,1.447c0,0.77-0.294,1.371-0.881,1.804c-0.587,0.434-1.383,0.65-2.388,0.65H32.16v1.232h1.269
	c2.455,0,3.683,0.764,3.683,2.291c0,1.706-1.113,2.558-3.339,2.558c-0.564,0-1.162-0.07-1.793-0.211
	c-0.631-0.141-1.226-0.346-1.784-0.616v1.361c0.534,0.253,1.085,0.429,1.652,0.53c0.567,0.1,1.191,0.151,1.872,0.151
	c1.568,0,2.778-0.323,3.63-0.969c0.852-0.646,1.278-1.569,1.278-2.769c0-0.838-0.25-1.516-0.749-2.033
	c-0.499-0.517-1.266-0.838-2.299-0.965V8.134c0.846-0.172,1.499-0.514,1.96-1.025c0.461-0.511,0.692-1.168,0.692-1.972
	C38.23,4.161,37.883,3.393,37.19,2.833z"/>
<path d="M42.573,7.273l0.326-3.781h5.154V2.174h-6.405l-0.485,5.891l0.758,0.474c0.934-0.167,1.68-0.25,2.238-0.25
	c2.203,0,3.304,0.879,3.304,2.635c0,0.902-0.286,1.591-0.859,2.067c-0.573,0.477-1.376,0.715-2.41,0.715
	c-0.593,0-1.195-0.073-1.806-0.22c-0.611-0.146-1.122-0.349-1.533-0.607v1.378c0.763,0.454,1.871,0.68,3.321,0.68
	c1.492,0,2.662-0.37,3.511-1.111c0.849-0.741,1.273-1.763,1.273-3.066c0-1.143-0.389-2.043-1.167-2.7
	c-0.778-0.658-1.846-0.986-3.202-0.986C43.921,7.075,43.249,7.141,42.573,7.273L42.573,7.273z"/>
<path d="M59.348,13.44h-6.625v-0.069l2.819-2.696c1.257-1.194,2.114-2.182,2.573-2.963c0.458-0.781,0.687-1.57,0.687-2.369
	c0-1.022-0.344-1.836-1.031-2.442c-0.687-0.606-1.636-0.909-2.846-0.909c-1.398,0-2.69,0.482-3.877,1.447l0.775,0.973
	c0.587-0.454,1.12-0.766,1.599-0.939c0.479-0.172,0.985-0.258,1.52-0.258c0.74,0,1.319,0.197,1.736,0.59
	c0.417,0.393,0.626,0.926,0.626,1.598c0,0.477-0.082,0.922-0.247,1.335c-0.164,0.413-0.411,0.839-0.74,1.275
	c-0.329,0.437-1.01,1.166-2.044,2.188l-3.392,3.333v1.232h8.467V13.44z"/>
<path d="M66.617,2.174h-1.233l-3.41,2.575l0.775,0.982c1.245-0.988,1.944-1.547,2.097-1.68c0.153-0.132,0.291-0.258,0.414-0.379
	c-0.047,0.666-0.071,1.372-0.071,2.119v8.975h1.427V2.174z"/>
<path d="M73.008,2.807c-0.69,0.543-1.035,1.27-1.035,2.183c0,0.643,0.176,1.225,0.529,1.744c0.353,0.52,0.934,1.003,1.744,1.451
	c-1.797,0.804-2.696,1.927-2.696,3.368c0,1.08,0.37,1.914,1.11,2.502c0.74,0.589,1.797,0.883,3.172,0.883
	c1.298,0,2.32-0.311,3.066-0.934c0.746-0.623,1.119-1.457,1.119-2.502c0-0.706-0.22-1.328-0.661-1.865
	c-0.44-0.537-1.184-1.049-2.229-1.537c0.863-0.419,1.492-0.884,1.885-1.395c0.393-0.511,0.59-1.077,0.59-1.697
	c0-0.942-0.344-1.68-1.031-2.214c-0.687-0.534-1.618-0.801-2.793-0.801C74.622,1.993,73.699,2.265,73.008,2.807z M73.586,9.991
	c0.393-0.445,1.028-0.851,1.903-1.219c1.139,0.408,1.938,0.828,2.396,1.262c0.458,0.434,0.687,0.929,0.687,1.486
	c0,0.701-0.244,1.252-0.731,1.654c-0.488,0.402-1.169,0.603-2.044,0.603c-0.887,0-1.576-0.192-2.066-0.577
	c-0.491-0.385-0.736-0.922-0.736-1.611C72.995,10.968,73.192,10.436,73.586,9.991z M77.519,3.669
	c0.426,0.342,0.639,0.802,0.639,1.382c0,0.528-0.175,0.99-0.524,1.387c-0.35,0.396-0.944,0.767-1.784,1.111
	c-0.934-0.379-1.574-0.758-1.921-1.137c-0.347-0.379-0.52-0.833-0.52-1.361c0-0.574,0.208-1.034,0.625-1.378
	c0.417-0.345,0.993-0.517,1.727-0.517C76.507,3.156,77.093,3.327,77.519,3.669z"/>
<path d="M89.77,4.573c-0.352-0.841-0.856-1.481-1.511-1.921c-0.655-0.439-1.42-0.659-2.295-0.659c-1.222,0-2.207,0.379-2.956,1.137
	c-0.749,0.758-1.123,1.792-1.123,3.101c0,1.194,0.335,2.125,1.004,2.79c0.67,0.666,1.574,0.999,2.714,0.999
	c0.67,0,1.271-0.125,1.806-0.375c0.534-0.25,0.963-0.613,1.286-1.09h0.106c-0.065,1.763-0.457,3.07-1.176,3.923
	c-0.72,0.853-1.784,1.279-3.194,1.279c-0.599,0-1.134-0.075-1.603-0.224v1.232c0.399,0.115,0.94,0.172,1.621,0.172
	c3.9,0,5.85-2.463,5.85-7.39C90.299,6.406,90.122,5.414,89.77,4.573z M87.448,3.656c0.432,0.293,0.768,0.695,1.009,1.206
	c0.241,0.511,0.361,1.068,0.361,1.671c0,0.402-0.129,0.787-0.388,1.154c-0.259,0.368-0.612,0.658-1.062,0.87
	c-0.449,0.212-0.941,0.319-1.476,0.319c-0.863,0-1.507-0.237-1.93-0.71c-0.423-0.474-0.634-1.124-0.634-1.951
	c0-0.942,0.229-1.676,0.687-2.205c0.458-0.528,1.107-0.792,1.947-0.792C86.522,3.216,87.017,3.363,87.448,3.656z"/>
<path d="M99.598,3.638c-0.726-1.108-1.787-1.662-3.185-1.662c-1.433,0-2.499,0.531-3.198,1.593c-0.699,1.062-1.049,2.69-1.049,4.884
	c0,2.124,0.361,3.737,1.084,4.836c0.723,1.1,1.777,1.649,3.163,1.649c1.445,0,2.518-0.537,3.22-1.611
	c0.702-1.074,1.053-2.699,1.053-4.875C100.686,6.352,100.323,4.747,99.598,3.638z M94.307,4.461c0.441-0.83,1.142-1.245,2.106-1.245
	c0.975,0,1.681,0.421,2.119,1.262c0.437,0.841,0.656,2.166,0.656,3.975c0,1.809-0.219,3.137-0.656,3.983
	c-0.438,0.847-1.144,1.271-2.119,1.271c-0.963,0-1.665-0.418-2.106-1.253c-0.44-0.835-0.661-2.169-0.661-4.001
	S93.867,5.291,94.307,4.461z"/>
<path d="M110.404,4.573c-0.352-0.841-0.856-1.481-1.511-1.921c-0.655-0.439-1.42-0.659-2.295-0.659
	c-1.222,0-2.207,0.379-2.956,1.137c-0.749,0.758-1.123,1.792-1.123,3.101c0,1.194,0.335,2.125,1.004,2.79
	c0.67,0.666,1.574,0.999,2.714,0.999c0.67,0,1.272-0.125,1.806-0.375c0.534-0.25,0.963-0.613,1.286-1.09h0.106
	c-0.065,1.763-0.457,3.07-1.176,3.923c-0.72,0.853-1.784,1.279-3.194,1.279c-0.599,0-1.134-0.075-1.604-0.224v1.232
	c0.399,0.115,0.94,0.172,1.621,0.172c3.9,0,5.85-2.463,5.85-7.39C110.932,6.406,110.756,5.414,110.404,4.573z M108.082,3.656
	c0.432,0.293,0.768,0.695,1.009,1.206c0.241,0.511,0.361,1.068,0.361,1.671c0,0.402-0.129,0.787-0.388,1.154
	c-0.258,0.368-0.612,0.658-1.062,0.87c-0.449,0.212-0.941,0.319-1.476,0.319c-0.864,0-1.507-0.237-1.929-0.71
	c-0.423-0.474-0.634-1.124-0.634-1.951c0-0.942,0.229-1.676,0.687-2.205c0.458-0.528,1.107-0.792,1.947-0.792
	C107.155,3.216,107.65,3.363,108.082,3.656z"/>
<path d="M121.249,13.44h-6.625v-0.069l2.819-2.696c1.257-1.194,2.114-2.182,2.572-2.963c0.458-0.781,0.687-1.57,0.687-2.369
	c0-1.022-0.344-1.836-1.031-2.442c-0.687-0.606-1.636-0.909-2.846-0.909c-1.398,0-2.69,0.482-3.877,1.447l0.775,0.973
	c0.587-0.454,1.12-0.766,1.599-0.939c0.479-0.172,0.985-0.258,1.52-0.258c0.74,0,1.319,0.197,1.736,0.59
	c0.417,0.393,0.625,0.926,0.625,1.598c0,0.477-0.082,0.922-0.247,1.335c-0.164,0.413-0.411,0.839-0.74,1.275
	c-0.329,0.437-1.01,1.166-2.044,2.188l-3.392,3.333v1.232h8.467V13.44z"/>
<path d="M125.108,7.273l0.326-3.781h5.154V2.174h-6.405l-0.485,5.891l0.758,0.474c0.934-0.167,1.68-0.25,2.238-0.25
	c2.203,0,3.304,0.879,3.304,2.635c0,0.902-0.286,1.591-0.859,2.067c-0.573,0.477-1.376,0.715-2.41,0.715
	c-0.593,0-1.195-0.073-1.806-0.22c-0.611-0.146-1.122-0.349-1.533-0.607v1.378c0.763,0.454,1.871,0.68,3.321,0.68
	c1.492,0,2.662-0.37,3.511-1.111c0.849-0.741,1.273-1.763,1.273-3.066c0-1.143-0.389-2.043-1.167-2.7
	c-0.778-0.658-1.846-0.986-3.203-0.986C126.456,7.075,125.783,7.141,125.108,7.273L125.108,7.273z"/>
<path d="M134.169,14.745c0.197,0.181,0.445,0.271,0.745,0.271c0.335,0,0.599-0.1,0.793-0.301c0.194-0.201,0.291-0.488,0.291-0.861
	c0-0.385-0.096-0.676-0.286-0.874c-0.191-0.198-0.457-0.297-0.797-0.297c-0.335,0-0.592,0.099-0.771,0.297
	c-0.179,0.198-0.269,0.49-0.269,0.874C133.874,14.267,133.972,14.564,134.169,14.745z"/>
</svg>
