<?xml version="1.0" encoding="utf-8"?>
<!-- Generator: Adobe Illustrator 17.0.0, SVG Export Plug-In . SVG Version: 6.00 Build 0)  -->
<!DOCTYPE svg PUBLIC "-//W3C//DTD SVG 1.1//EN" "http://www.w3.org/Graphics/SVG/1.1/DTD/svg11.dtd">
<svg version="1.1" id="Livello_1" xmlns="http://www.w3.org/2000/svg" xmlns:xlink="http://www.w3.org/1999/xlink" x="0px" y="0px"
	 width="98px" height="19px" viewBox="0 0 98 19" enable-background="new 0 0 98 19" xml:space="preserve">
<path d="M9.13,3.978l0.635-1.265C8.753,2.227,7.571,1.984,6.217,1.984c-1.271,0-2.376,0.266-3.314,0.797
	C1.964,3.313,1.246,4.07,0.749,5.053C0.252,6.035,0.003,7.179,0.003,8.485c0,2.086,0.516,3.695,1.549,4.828
	c1.033,1.133,2.499,1.699,4.4,1.699c1.312,0,2.415-0.165,3.31-0.494v-1.292c-1.153,0.318-2.18,0.477-3.08,0.477
	c-1.465,0-2.594-0.452-3.385-1.357C2.006,11.442,1.61,10.161,1.61,8.502c0-1.612,0.41-2.882,1.231-3.809
	C3.662,3.766,4.781,3.302,6.2,3.302C7.176,3.302,8.153,3.527,9.13,3.978L9.13,3.978z"/>
<path d="M21.743,14.839L16.668,2.114h-1.262l-5.102,12.724h1.518l1.589-4.031h5.172l1.607,4.031H21.743z M13.94,9.482l1.518-3.927
	c0.241-0.665,0.427-1.274,0.556-1.829c0.206,0.722,0.406,1.332,0.6,1.829l1.5,3.927H13.94z"/>
<path d="M31.514,10.739V9.421H27.18v1.318H31.514z"/>
<path d="M46.316,13.504h-6.638v-0.069l2.824-2.713c1.259-1.202,2.118-2.196,2.577-2.982s0.688-1.58,0.688-2.384
	c0-1.029-0.344-1.848-1.033-2.457c-0.688-0.61-1.639-0.914-2.851-0.914c-1.4,0-2.695,0.485-3.884,1.456l0.777,0.98
	c0.588-0.456,1.122-0.771,1.602-0.945c0.48-0.173,0.987-0.26,1.523-0.26c0.741,0,1.321,0.198,1.739,0.594
	c0.418,0.396,0.627,0.932,0.627,1.608c0,0.48-0.082,0.927-0.247,1.344c-0.165,0.416-0.412,0.844-0.741,1.283
	c-0.33,0.439-1.012,1.173-2.048,2.202l-3.398,3.354v1.24h8.482V13.504z"/>
<path d="M51.426,14.839l5.278-11.52V2.166h-8.588v1.326h7.035l-5.349,11.346H51.426z"/>
<path d="M61.762,14.839l5.278-11.52V2.166h-8.588v1.326h7.035l-5.349,11.346H61.762z"/>
<path d="M76.794,4.58c-0.353-0.846-0.858-1.491-1.514-1.933c-0.656-0.442-1.423-0.663-2.299-0.663c-1.224,0-2.211,0.381-2.961,1.144
	c-0.75,0.763-1.125,1.803-1.125,3.12c0,1.202,0.335,2.138,1.006,2.808c0.671,0.67,1.577,1.005,2.718,1.005
	c0.671,0,1.274-0.126,1.81-0.377c0.535-0.251,0.965-0.617,1.289-1.097h0.106c-0.065,1.774-0.458,3.09-1.178,3.948
	c-0.721,0.858-1.787,1.287-3.2,1.287c-0.6,0-1.136-0.075-1.606-0.225v1.24c0.4,0.115,0.941,0.173,1.624,0.173
	c3.907,0,5.861-2.479,5.861-7.437C77.323,6.425,77.147,5.427,76.794,4.58z M74.468,3.657c0.433,0.295,0.769,0.699,1.011,1.213
	c0.241,0.514,0.362,1.075,0.362,1.682c0,0.405-0.13,0.792-0.388,1.161c-0.259,0.37-0.614,0.662-1.064,0.876
	c-0.45,0.214-0.943,0.321-1.478,0.321c-0.865,0-1.509-0.238-1.933-0.715c-0.424-0.477-0.635-1.131-0.635-1.963
	c0-0.948,0.229-1.687,0.688-2.219c0.459-0.532,1.109-0.797,1.951-0.797C73.54,3.215,74.035,3.362,74.468,3.657z"/>
<path d="M88.268,10.618h-1.915V2.097h-1.553l-6.126,8.573v1.257h6.276v2.912h1.403v-2.912h1.915V10.618z M80.139,10.618l4.034-5.634
	c0.247-0.364,0.512-0.823,0.794-1.378h0.071c-0.059,1.04-0.088,1.974-0.088,2.8v4.213H80.139z"/>
<path d="M97.465,4.58c-0.353-0.846-0.858-1.491-1.514-1.933c-0.656-0.442-1.423-0.663-2.299-0.663c-1.224,0-2.211,0.381-2.961,1.144
	c-0.75,0.763-1.125,1.803-1.125,3.12c0,1.202,0.336,2.138,1.006,2.808c0.671,0.67,1.577,1.005,2.719,1.005
	c0.671,0,1.274-0.126,1.809-0.377c0.535-0.251,0.965-0.617,1.289-1.097h0.106c-0.065,1.774-0.458,3.09-1.178,3.948
	c-0.721,0.858-1.787,1.287-3.2,1.287c-0.6,0-1.136-0.075-1.606-0.225v1.24c0.4,0.115,0.941,0.173,1.624,0.173
	c3.907,0,5.861-2.479,5.861-7.437C97.995,6.425,97.818,5.427,97.465,4.58z M95.14,3.657c0.432,0.295,0.769,0.699,1.011,1.213
	c0.241,0.514,0.362,1.075,0.362,1.682c0,0.405-0.13,0.792-0.388,1.161c-0.259,0.37-0.614,0.662-1.064,0.876
	c-0.45,0.214-0.943,0.321-1.478,0.321c-0.865,0-1.509-0.238-1.933-0.715c-0.424-0.477-0.635-1.131-0.635-1.963
	c0-0.948,0.229-1.687,0.688-2.219c0.459-0.532,1.109-0.797,1.951-0.797C94.211,3.215,94.707,3.362,95.14,3.657z"/>
</svg>
