<?xml version="1.0" encoding="utf-8"?>
<!-- Generator: Adobe Illustrator 17.0.0, SVG Export Plug-In . SVG Version: 6.00 Build 0)  -->
<!DOCTYPE svg PUBLIC "-//W3C//DTD SVG 1.1//EN" "http://www.w3.org/Graphics/SVG/1.1/DTD/svg11.dtd">
<svg version="1.1" id="Livello_1" xmlns="http://www.w3.org/2000/svg" xmlns:xlink="http://www.w3.org/1999/xlink" x="0px" y="0px"
	 width="24px" height="19px" viewBox="0 0 24 19" enable-background="new 0 0 24 19" xml:space="preserve">
<path d="M6.218,10.375c-0.342,0.92-0.619,1.842-0.832,2.768c-0.201-0.88-0.472-1.785-0.814-2.716L1.598,2.32H0.005l4.638,12.528
	h1.487L10.794,2.32h-1.62L6.218,10.375z"/>
<path d="M13.821,5.456h-1.469v9.391h1.469V5.456z M12.476,3.627c0.165,0.157,0.372,0.236,0.62,0.236
	c0.236,0,0.439-0.079,0.611-0.236c0.171-0.157,0.257-0.396,0.257-0.716c0-0.32-0.086-0.557-0.257-0.711
	c-0.171-0.154-0.375-0.231-0.611-0.231c-0.248,0-0.455,0.076-0.62,0.227c-0.165,0.151-0.248,0.39-0.248,0.715
	C12.228,3.231,12.31,3.47,12.476,3.627z"/>
<path d="M23.99,14.848v-6.41c0-1.097-0.279-1.894-0.836-2.391c-0.558-0.497-1.415-0.746-2.571-0.746
	c-0.572,0-1.143,0.072-1.712,0.214c-0.57,0.143-1.093,0.34-1.571,0.591l0.451,1.088c1.021-0.48,1.935-0.72,2.744-0.72
	c0.72,0,1.244,0.176,1.571,0.527c0.327,0.351,0.491,0.895,0.491,1.632v0.583L20.91,9.269c-3.133,0.092-4.7,1.085-4.7,2.982
	c0,0.885,0.273,1.568,0.819,2.048c0.546,0.48,1.3,0.72,2.261,0.72c0.72,0,1.32-0.104,1.801-0.313
	c0.481-0.208,0.963-0.607,1.447-1.195h0.071l0.292,1.337H23.99z M18.233,13.442c-0.322-0.268-0.482-0.66-0.482-1.174
	c0-0.657,0.258-1.141,0.774-1.452c0.516-0.311,1.359-0.487,2.527-0.527l1.469-0.06v0.848c0,0.874-0.261,1.554-0.783,2.039
	c-0.522,0.486-1.241,0.728-2.155,0.728C19.004,13.845,18.555,13.711,18.233,13.442z"/>
</svg>
