<?xml version="1.0" encoding="utf-8"?>
<!-- Generator: Adobe Illustrator 17.0.0, SVG Export Plug-In . SVG Version: 6.00 Build 0)  -->
<!DOCTYPE svg PUBLIC "-//W3C//DTD SVG 1.1//EN" "http://www.w3.org/Graphics/SVG/1.1/DTD/svg11.dtd">
<svg version="1.1" id="Livello_1" xmlns="http://www.w3.org/2000/svg" xmlns:xlink="http://www.w3.org/1999/xlink" x="0px" y="0px"
	 width="78px" height="19px" viewBox="0 0 78 19" enable-background="new 0 0 78 19" xml:space="preserve">
<path d="M1.506,14.723V1.99H0.004v12.733H1.506z"/>
<path d="M12.283,13.595c0.709-0.868,1.064-2.086,1.064-3.653c0-1.562-0.349-2.775-1.046-3.641c-0.698-0.865-1.688-1.298-2.972-1.298
	c-0.648,0-1.222,0.116-1.722,0.348c-0.501,0.232-0.939,0.61-1.316,1.132H6.221L6.018,5.178H4.826v13.831h1.466V15.08
	c0-0.499-0.035-1.028-0.106-1.585h0.106c0.353,0.476,0.79,0.829,1.311,1.058c0.521,0.229,1.096,0.344,1.726,0.344
	C10.589,14.897,11.574,14.464,12.283,13.595z M11.118,7.185c0.474,0.636,0.711,1.549,0.711,2.739c0,1.173-0.237,2.093-0.711,2.761
	c-0.474,0.668-1.129,1.002-1.965,1.002c-1.001,0-1.728-0.289-2.181-0.867c-0.453-0.578-0.68-1.537-0.68-2.878V9.62
	c0.012-1.179,0.238-2.038,0.68-2.578c0.441-0.54,1.157-0.81,2.146-0.81C9.977,6.232,10.644,6.549,11.118,7.185z"/>
<path d="M23.365,13.595c0.709-0.868,1.064-2.086,1.064-3.653c0-1.562-0.349-2.775-1.046-3.641c-0.698-0.865-1.688-1.298-2.971-1.298
	c-0.648,0-1.222,0.116-1.722,0.348c-0.5,0.232-0.939,0.61-1.316,1.132h-0.071L17.1,5.178h-1.192v13.831h1.466V15.08
	c0-0.499-0.035-1.028-0.106-1.585h0.106c0.353,0.476,0.79,0.829,1.311,1.058c0.521,0.229,1.096,0.344,1.726,0.344
	C21.671,14.897,22.656,14.464,23.365,13.595z M22.2,7.185c0.474,0.636,0.711,1.549,0.711,2.739c0,1.173-0.237,2.093-0.711,2.761
	c-0.474,0.668-1.129,1.002-1.965,1.002c-1.001,0-1.728-0.289-2.181-0.867c-0.453-0.578-0.68-1.537-0.68-2.878V9.62
	c0.012-1.179,0.238-2.038,0.68-2.578c0.441-0.54,1.157-0.81,2.146-0.81C21.059,6.232,21.726,6.549,22.2,7.185z"/>
<path d="M34.147,6.336c-0.798-0.888-1.874-1.333-3.227-1.333c-1.401,0-2.496,0.434-3.285,1.302c-0.789,0.868-1.183,2.08-1.183,3.636
	c0,1.004,0.183,1.881,0.548,2.63c0.365,0.749,0.883,1.324,1.554,1.724c0.671,0.401,1.439,0.601,2.305,0.601
	c1.401,0,2.499-0.437,3.294-1.311c0.795-0.874,1.192-2.089,1.192-3.645C35.344,8.426,34.945,7.225,34.147,6.336z M28.703,7.163
	c0.489-0.621,1.213-0.932,2.172-0.932c0.971,0,1.705,0.315,2.203,0.945c0.497,0.63,0.746,1.552,0.746,2.765
	c0,1.225-0.249,2.155-0.746,2.791c-0.498,0.636-1.226,0.954-2.186,0.954c-0.96,0-1.687-0.319-2.181-0.958
	c-0.495-0.639-0.742-1.568-0.742-2.787C27.971,8.711,28.215,7.785,28.703,7.163z"/>
<path d="M44.227,14.401v-1.28c-0.848,0.343-1.675,0.514-2.481,0.514c-0.942,0-1.653-0.314-2.133-0.941
	c-0.48-0.627-0.72-1.527-0.72-2.7c0-2.473,0.983-3.71,2.95-3.71c0.294,0,0.633,0.042,1.015,0.126c0.383,0.084,0.736,0.19,1.06,0.318
	l0.45-1.228c-0.265-0.134-0.63-0.249-1.095-0.348c-0.465-0.099-0.93-0.148-1.395-0.148c-1.442,0-2.553,0.435-3.333,1.306
	c-0.78,0.871-1.17,2.105-1.17,3.702c0,1.556,0.384,2.759,1.152,3.61c0.768,0.851,1.853,1.276,3.254,1.276
	C42.764,14.897,43.58,14.732,44.227,14.401L44.227,14.401z"/>
<path d="M49.27,5.509c-0.507,0.337-0.939,0.816-1.298,1.437h-0.071l-0.168-1.768h-1.21v9.545h1.466V9.602
	c0-0.935,0.278-1.716,0.834-2.343c0.556-0.627,1.226-0.941,2.009-0.941c0.306,0,0.659,0.044,1.06,0.131l0.203-1.341
	c-0.341-0.07-0.727-0.104-1.157-0.104C50.332,5.004,49.776,5.172,49.27,5.509z"/>
<path d="M60.943,14.723V8.209c0-1.115-0.278-1.925-0.835-2.43c-0.556-0.505-1.411-0.758-2.565-0.758
	c-0.571,0-1.141,0.073-1.709,0.218c-0.568,0.145-1.09,0.345-1.567,0.601l0.45,1.106c1.018-0.488,1.931-0.732,2.737-0.732
	c0.718,0,1.241,0.179,1.568,0.536c0.327,0.357,0.49,0.91,0.49,1.659v0.592L57.87,9.054c-3.126,0.093-4.689,1.103-4.689,3.031
	c0,0.9,0.272,1.594,0.817,2.082c0.545,0.488,1.297,0.731,2.256,0.731c0.718,0,1.317-0.106,1.797-0.318
	c0.48-0.212,0.961-0.617,1.444-1.215h0.071l0.292,1.359H60.943z M55.199,13.295c-0.321-0.273-0.481-0.671-0.481-1.193
	c0-0.668,0.257-1.16,0.773-1.476c0.515-0.316,1.355-0.495,2.521-0.536l1.466-0.061v0.862c0,0.888-0.261,1.579-0.781,2.073
	c-0.521,0.494-1.238,0.74-2.15,0.74C55.969,13.704,55.52,13.568,55.199,13.295z"/>
<path d="M65.95,13.243c-0.277-0.308-0.415-0.749-0.415-1.324V6.301h2.808V5.178h-2.808V2.966h-0.848l-0.618,2.038l-1.386,0.601
	v0.697h1.386v5.679c0,1.945,0.936,2.918,2.808,2.918c0.247,0,0.525-0.025,0.834-0.074c0.309-0.049,0.543-0.112,0.702-0.187V13.53
	c-0.141,0.041-0.333,0.08-0.574,0.118c-0.241,0.038-0.492,0.056-0.751,0.056C66.607,13.704,66.227,13.55,65.95,13.243z"/>
<path d="M76.11,14.754c0.462-0.096,0.952-0.254,1.47-0.475V12.99c-1.019,0.43-2.049,0.644-3.091,0.644
	c-0.989,0-1.756-0.29-2.3-0.871c-0.545-0.58-0.832-1.431-0.861-2.552h6.667V9.297c0-1.289-0.353-2.327-1.06-3.114
	c-0.707-0.787-1.666-1.18-2.879-1.18c-1.295,0-2.327,0.453-3.095,1.359c-0.768,0.906-1.152,2.128-1.152,3.667
	c0,1.527,0.414,2.72,1.241,3.58c0.827,0.859,1.956,1.289,3.386,1.289C75.09,14.897,75.647,14.85,76.11,14.754z M75.805,6.941
	c0.412,0.485,0.618,1.183,0.618,2.095h-5.06c0.082-0.883,0.355-1.573,0.817-2.073c0.462-0.499,1.082-0.749,1.859-0.749
	C74.804,6.214,75.393,6.457,75.805,6.941z"/>
</svg>
