<?xml version="1.0" encoding="utf-8"?>
<!-- Generator: Adobe Illustrator 17.0.0, SVG Export Plug-In . SVG Version: 6.00 Build 0)  -->
<!DOCTYPE svg PUBLIC "-//W3C//DTD SVG 1.1//EN" "http://www.w3.org/Graphics/SVG/1.1/DTD/svg11.dtd">
<svg version="1.1" id="Livello_1" xmlns="http://www.w3.org/2000/svg" xmlns:xlink="http://www.w3.org/1999/xlink" x="0px" y="0px"
	 width="47px" height="19px" viewBox="0 0 47 19" enable-background="new 0 0 47 19" xml:space="preserve">
<path d="M7.49,3.654C6.759,2.54,5.69,1.983,4.283,1.983c-1.443,0-2.516,0.534-3.22,1.602C0.36,4.653,0.008,6.289,0.008,8.494
	c0,2.136,0.364,3.756,1.091,4.861c0.727,1.105,1.789,1.658,3.184,1.658c1.455,0,2.535-0.54,3.242-1.619
	c0.706-1.079,1.06-2.713,1.06-4.9C8.585,6.381,8.22,4.768,7.49,3.654z M2.163,4.481c0.444-0.834,1.15-1.251,2.12-1.251
	c0.981,0,1.693,0.423,2.133,1.268c0.44,0.846,0.661,2.177,0.661,3.996s-0.22,3.153-0.661,4.004
	c-0.441,0.852-1.152,1.277-2.133,1.277c-0.97,0-1.676-0.42-2.12-1.26c-0.443-0.84-0.665-2.18-0.665-4.021
	C1.498,6.652,1.72,5.315,2.163,4.481z"/>
<path d="M18.368,4.593c-0.355-0.845-0.862-1.489-1.521-1.931C16.188,2.221,15.417,2,14.536,2c-1.23,0-2.222,0.381-2.976,1.143
	C10.807,3.905,10.43,4.944,10.43,6.26c0,1.201,0.337,2.136,1.011,2.805c0.674,0.67,1.585,1.004,2.732,1.004
	c0.674,0,1.28-0.126,1.818-0.377c0.538-0.251,0.97-0.616,1.295-1.095h0.106c-0.065,1.772-0.46,3.087-1.184,3.944
	c-0.724,0.857-1.796,1.286-3.215,1.286c-0.603,0-1.141-0.075-1.614-0.225v1.238c0.402,0.115,0.946,0.173,1.632,0.173
	c3.926,0,5.889-2.476,5.889-7.428C18.9,6.436,18.723,5.439,18.368,4.593z M16.031,3.671c0.435,0.294,0.773,0.698,1.016,1.212
	c0.242,0.514,0.364,1.074,0.364,1.68c0,0.404-0.13,0.791-0.39,1.16c-0.26,0.369-0.616,0.661-1.069,0.874
	c-0.452,0.214-0.948,0.32-1.486,0.32c-0.869,0-1.517-0.238-1.942-0.714c-0.426-0.476-0.639-1.13-0.639-1.961
	c0-0.946,0.231-1.685,0.692-2.216c0.461-0.531,1.114-0.797,1.96-0.797C15.098,3.23,15.596,3.377,16.031,3.671z"/>
<path d="M26.218,2.182h-1.242l-3.432,2.589l0.78,0.987c1.253-0.993,1.957-1.555,2.111-1.688c0.154-0.133,0.293-0.26,0.417-0.381
	c-0.047,0.67-0.071,1.379-0.071,2.13v9.021h1.437V2.182z"/>
<path d="M39.673,13.506h-6.67v-0.069l2.838-2.71c1.265-1.2,2.129-2.193,2.59-2.978c0.461-0.785,0.692-1.579,0.692-2.381
	c0-1.027-0.346-1.845-1.038-2.455C37.393,2.305,36.438,2,35.22,2c-1.407,0-2.708,0.485-3.903,1.454l0.781,0.978
	c0.591-0.456,1.128-0.771,1.61-0.944c0.482-0.173,0.992-0.26,1.53-0.26c0.745,0,1.327,0.198,1.747,0.593
	c0.42,0.395,0.63,0.931,0.63,1.606c0,0.479-0.083,0.926-0.248,1.342c-0.166,0.416-0.414,0.843-0.745,1.281
	c-0.331,0.439-1.017,1.172-2.058,2.199l-3.415,3.351v1.238h8.524V13.506z"/>
<path d="M46.99,2.182h-1.242l-3.432,2.589l0.78,0.987c1.254-0.993,1.957-1.555,2.111-1.688c0.154-0.133,0.293-0.26,0.417-0.381
	c-0.047,0.67-0.071,1.379-0.071,2.13v9.021h1.437V2.182z"/>
</svg>
