<?xml version="1.0" encoding="utf-8"?>
<!-- Generator: Adobe Illustrator 17.0.0, SVG Export Plug-In . SVG Version: 6.00 Build 0)  -->
<!DOCTYPE svg PUBLIC "-//W3C//DTD SVG 1.1//EN" "http://www.w3.org/Graphics/SVG/1.1/DTD/svg11.dtd">
<svg version="1.1" id="Livello_1" xmlns="http://www.w3.org/2000/svg" xmlns:xlink="http://www.w3.org/1999/xlink" x="0px" y="0px"
	 width="60px" height="19px" viewBox="0 0 60 19" enable-background="new 0 0 60 19" xml:space="preserve">
<path d="M9.132,3.663L9.768,2.38C8.755,1.888,7.573,1.642,6.22,1.642c-1.271,0-2.376,0.27-3.314,0.809
	C1.967,2.989,1.249,3.757,0.752,4.753C0.254,5.749,0.006,6.909,0.006,8.233c0,2.115,0.516,3.747,1.549,4.895
	c1.033,1.149,2.499,1.723,4.4,1.723c1.312,0,2.415-0.167,3.31-0.501v-1.31c-1.153,0.322-2.18,0.483-3.08,0.483
	c-1.465,0-2.593-0.458-3.385-1.375c-0.792-0.917-1.187-2.216-1.187-3.898c0-1.635,0.41-2.922,1.231-3.863
	c0.821-0.94,1.94-1.411,3.358-1.411C7.179,2.977,8.155,3.206,9.132,3.663L9.132,3.663z"/>
<path d="M18.894,14.676V8.101c0-1.125-0.278-1.942-0.834-2.452c-0.556-0.51-1.411-0.765-2.564-0.765c-0.571,0-1.14,0.073-1.708,0.22
	c-0.568,0.147-1.09,0.349-1.567,0.606l0.45,1.116c1.018-0.492,1.93-0.738,2.736-0.738c0.718,0,1.24,0.18,1.567,0.541
	c0.327,0.36,0.49,0.918,0.49,1.674v0.598l-1.642,0.053c-3.125,0.094-4.687,1.113-4.687,3.059c0,0.908,0.272,1.608,0.816,2.101
	c0.544,0.492,1.296,0.738,2.255,0.738c0.718,0,1.316-0.107,1.796-0.321c0.479-0.214,0.961-0.622,1.443-1.226h0.071l0.291,1.371
	H18.894z M13.153,13.234c-0.321-0.275-0.481-0.677-0.481-1.204c0-0.674,0.257-1.17,0.772-1.49c0.515-0.319,1.355-0.499,2.52-0.54
	l1.465-0.062v0.87c0,0.896-0.26,1.594-0.781,2.092c-0.521,0.498-1.237,0.747-2.149,0.747C13.922,13.647,13.473,13.51,13.153,13.234z
	"/>
<path d="M26.484,5.043c-0.406-0.117-0.862-0.176-1.368-0.176c-1.165,0-2.065,0.286-2.701,0.857s-0.953,1.384-0.953,2.439
	c0,0.633,0.157,1.195,0.472,1.688c0.315,0.492,0.722,0.841,1.222,1.046c-0.406,0.246-0.703,0.501-0.891,0.765
	c-0.188,0.264-0.282,0.571-0.282,0.923c0,0.311,0.084,0.583,0.251,0.817c0.168,0.234,0.375,0.407,0.622,0.519
	c-0.683,0.152-1.212,0.443-1.589,0.87c-0.377,0.428-0.565,0.934-0.565,1.52c0,0.855,0.343,1.517,1.028,1.986
	C22.417,18.766,23.392,19,24.657,19c1.647,0,2.901-0.28,3.76-0.839c0.859-0.56,1.289-1.373,1.289-2.439
	c0-0.838-0.281-1.477-0.843-1.916c-0.562-0.439-1.367-0.659-2.414-0.659h-1.712c-0.529,0-0.903-0.063-1.121-0.189
	c-0.218-0.126-0.326-0.321-0.326-0.585c0-0.498,0.312-0.911,0.935-1.239c0.253,0.047,0.524,0.07,0.812,0.07
	c1.13,0,2.018-0.281,2.666-0.844s0.971-1.315,0.971-2.259c0-0.416-0.065-0.789-0.194-1.121c-0.129-0.331-0.277-0.599-0.441-0.804
	l1.792-0.211V5.043H26.484z M22.672,14.931c0.371-0.316,0.888-0.475,1.553-0.475h1.757c0.894,0,1.503,0.101,1.827,0.303
	c0.323,0.202,0.485,0.564,0.485,1.085c0,0.627-0.296,1.124-0.887,1.49s-1.502,0.549-2.732,0.549c-0.824,0-1.456-0.135-1.898-0.404
	c-0.441-0.27-0.662-0.665-0.662-1.187C22.115,15.701,22.301,15.247,22.672,14.931z M23.466,6.484c0.371-0.369,0.9-0.554,1.589-0.554
	c1.448,0,2.171,0.724,2.171,2.171c0,1.383-0.715,2.074-2.145,2.074c-0.683,0-1.215-0.173-1.597-0.519
	c-0.383-0.346-0.574-0.855-0.574-1.529C22.91,7.401,23.095,6.853,23.466,6.484z"/>
<path d="M33.281,1h-1.465v13.676h1.465V1z"/>
<path d="M37.853,5.043h-1.465v9.633h1.465V5.043z M36.511,3.167c0.165,0.161,0.371,0.242,0.618,0.242
	c0.235,0,0.438-0.081,0.609-0.242c0.171-0.161,0.256-0.406,0.256-0.734c0-0.328-0.085-0.571-0.256-0.73s-0.374-0.237-0.609-0.237
	c-0.247,0-0.453,0.078-0.618,0.233c-0.165,0.155-0.247,0.4-0.247,0.734C36.264,2.761,36.346,3.005,36.511,3.167z"/>
<path d="M47.994,14.676V8.101c0-1.125-0.278-1.942-0.834-2.452c-0.556-0.51-1.411-0.765-2.564-0.765c-0.571,0-1.14,0.073-1.708,0.22
	c-0.568,0.147-1.09,0.349-1.567,0.606l0.45,1.116c1.018-0.492,1.93-0.738,2.736-0.738c0.718,0,1.24,0.18,1.567,0.541
	c0.327,0.36,0.49,0.918,0.49,1.674v0.598l-1.642,0.053c-3.125,0.094-4.687,1.113-4.687,3.059c0,0.908,0.272,1.608,0.817,2.101
	c0.544,0.492,1.296,0.738,2.255,0.738c0.718,0,1.316-0.107,1.796-0.321c0.48-0.214,0.961-0.622,1.443-1.226h0.071l0.291,1.371
	H47.994z M42.252,13.234c-0.321-0.275-0.481-0.677-0.481-1.204c0-0.674,0.257-1.17,0.772-1.49c0.515-0.319,1.355-0.499,2.52-0.54
	l1.465-0.062v0.87c0,0.896-0.26,1.594-0.781,2.092c-0.521,0.498-1.237,0.747-2.149,0.747C43.022,13.647,42.573,13.51,42.252,13.234z
	"/>
<path d="M53.757,5.377c-0.506,0.34-0.938,0.823-1.297,1.45h-0.071l-0.168-1.784h-1.209v9.633h1.465V9.508
	c0-0.943,0.278-1.732,0.834-2.364c0.556-0.633,1.225-0.949,2.008-0.949c0.306,0,0.659,0.044,1.059,0.132l0.203-1.353
	c-0.341-0.07-0.727-0.105-1.156-0.105C54.819,4.867,54.263,5.037,53.757,5.377z"/>
<path d="M59.856,5.043h-1.465v9.633h1.465V5.043z M58.515,3.167c0.165,0.161,0.371,0.242,0.618,0.242
	c0.235,0,0.438-0.081,0.609-0.242c0.171-0.161,0.256-0.406,0.256-0.734c0-0.328-0.085-0.571-0.256-0.73
	c-0.171-0.158-0.374-0.237-0.609-0.237c-0.247,0-0.453,0.078-0.618,0.233c-0.165,0.155-0.247,0.4-0.247,0.734
	C58.268,2.761,58.35,3.005,58.515,3.167z"/>
</svg>
