<?xml version="1.0" encoding="utf-8"?>
<!-- Generator: Adobe Illustrator 17.0.0, SVG Export Plug-In . SVG Version: 6.00 Build 0)  -->
<!DOCTYPE svg PUBLIC "-//W3C//DTD SVG 1.1//EN" "http://www.w3.org/Graphics/SVG/1.1/DTD/svg11.dtd">
<svg version="1.1" id="Livello_1" xmlns="http://www.w3.org/2000/svg" xmlns:xlink="http://www.w3.org/1999/xlink" x="0px" y="0px"
	 width="37px" height="19px" viewBox="0 0 37 19" enable-background="new 0 0 37 19" xml:space="preserve">
<path d="M1.514,14.676V1.826H0.008v12.85H1.514z"/>
<path d="M6.838,13.182c-0.278-0.31-0.416-0.756-0.416-1.336V6.177h2.817V5.043H6.421V2.81h-0.85l-0.62,2.057L3.56,5.474v0.703h1.391
	v5.73c0,1.963,0.939,2.944,2.817,2.944c0.248,0,0.527-0.025,0.837-0.075c0.31-0.05,0.545-0.113,0.704-0.189v-1.116
	c-0.142,0.041-0.334,0.081-0.576,0.119c-0.242,0.038-0.493,0.057-0.753,0.057C7.496,13.647,7.115,13.492,6.838,13.182z"/>
<path d="M18.309,14.676V8.101c0-1.125-0.279-1.942-0.837-2.452c-0.558-0.51-1.416-0.765-2.574-0.765
	c-0.573,0-1.144,0.073-1.714,0.22c-0.57,0.147-1.094,0.349-1.573,0.606l0.452,1.116c1.022-0.492,1.937-0.738,2.746-0.738
	c0.721,0,1.245,0.18,1.572,0.541c0.328,0.36,0.492,0.918,0.492,1.674v0.598l-1.648,0.053c-3.136,0.094-4.704,1.113-4.704,3.059
	c0,0.908,0.273,1.608,0.819,2.101c0.546,0.492,1.301,0.738,2.263,0.738c0.72,0,1.321-0.107,1.803-0.321
	c0.481-0.214,0.964-0.622,1.448-1.226h0.071l0.292,1.371H18.309z M12.547,13.234c-0.322-0.275-0.483-0.677-0.483-1.204
	c0-0.674,0.258-1.17,0.775-1.49c0.517-0.319,1.36-0.499,2.529-0.54l1.47-0.062v0.87c0,0.896-0.261,1.594-0.784,2.092
	c-0.523,0.498-1.242,0.747-2.157,0.747C13.319,13.647,12.869,13.51,12.547,13.234z"/>
<path d="M22.809,1h-1.471v13.676h1.471V1z"/>
<path d="M28.302,14.729l-0.54,1.371c-0.431,1.125-1.152,1.688-2.161,1.688c-0.402,0-0.765-0.035-1.09-0.105v1.169
	C24.947,18.95,25.39,19,25.839,19c0.803,0,1.481-0.227,2.033-0.681c0.552-0.454,1.035-1.223,1.448-2.307l4.172-10.969h-1.577
	c-1.358,3.727-2.16,5.952-2.405,6.675c-0.245,0.724-0.406,1.235-0.483,1.534h-0.071c-0.112-0.557-0.402-1.462-0.868-2.716
	l-2.126-5.493h-1.577L28.302,14.729z"/>
<path d="M35.154,14.654c0.198,0.185,0.447,0.277,0.749,0.277c0.337,0,0.602-0.102,0.797-0.308c0.195-0.205,0.292-0.498,0.292-0.879
	c0-0.392-0.096-0.69-0.288-0.892c-0.192-0.202-0.459-0.303-0.802-0.303c-0.337,0-0.595,0.101-0.775,0.303
	c-0.18,0.202-0.27,0.5-0.27,0.892C34.857,14.166,34.956,14.469,35.154,14.654z"/>
</svg>
