<?xml version="1.0" encoding="utf-8"?>
<!-- Generator: Adobe Illustrator 17.0.0, SVG Export Plug-In . SVG Version: 6.00 Build 0)  -->
<!DOCTYPE svg PUBLIC "-//W3C//DTD SVG 1.1//EN" "http://www.w3.org/Graphics/SVG/1.1/DTD/svg11.dtd">
<svg version="1.1" id="Livello_1" xmlns="http://www.w3.org/2000/svg" xmlns:xlink="http://www.w3.org/1999/xlink" x="0px" y="0px"
	 width="44px" height="19px" viewBox="0 0 44 19" enable-background="new 0 0 44 19" xml:space="preserve">
<path d="M10.356,3.701C9.311,2.552,7.858,1.977,5.998,1.977c-1.913,0-3.389,0.565-4.429,1.694C0.53,4.8,0.01,6.39,0.01,8.441
	c0,2.069,0.518,3.67,1.554,4.805c1.036,1.135,2.508,1.702,4.415,1.702c1.866,0,3.323-0.577,4.371-1.732
	c1.048-1.155,1.572-2.741,1.572-4.757C11.923,6.436,11.401,4.85,10.356,3.701z M2.725,4.61c0.747-0.882,1.838-1.323,3.273-1.323
	c1.429,0,2.508,0.438,3.237,1.314c0.729,0.876,1.094,2.162,1.094,3.857c0,1.712-0.366,3.008-1.098,3.887
	c-0.732,0.879-1.816,1.319-3.251,1.319c-1.423,0-2.508-0.441-3.255-1.323c-0.747-0.882-1.12-2.176-1.12-3.882
	C1.605,6.775,1.978,5.492,2.725,4.61z"/>
<path d="M22.069,13.659c0.711-0.859,1.067-2.064,1.067-3.615c0-1.546-0.35-2.746-1.05-3.603c-0.7-0.856-1.693-1.284-2.98-1.284
	c-0.65,0-1.225,0.115-1.727,0.345c-0.502,0.23-0.942,0.603-1.32,1.12h-0.071L15.785,5.33h-1.196v13.686h1.47v-3.887
	c0-0.494-0.035-1.017-0.106-1.569h0.106c0.354,0.471,0.793,0.82,1.315,1.047c0.523,0.227,1.1,0.34,1.732,0.34
	C20.37,14.948,21.358,14.518,22.069,13.659z M20.9,7.316c0.475,0.629,0.713,1.533,0.713,2.711c0,1.161-0.238,2.071-0.713,2.732
	c-0.476,0.661-1.132,0.991-1.971,0.991c-1.004,0-1.733-0.286-2.188-0.858c-0.455-0.572-0.682-1.521-0.682-2.848V9.725
	c0.012-1.166,0.239-2.017,0.682-2.551c0.443-0.534,1.16-0.802,2.152-0.802C19.756,6.372,20.425,6.687,20.9,7.316z"/>
<path d="M31.484,14.806c0.463-0.095,0.955-0.251,1.475-0.47V13.06c-1.022,0.425-2.055,0.638-3.1,0.638
	c-0.992,0-1.761-0.287-2.307-0.862c-0.546-0.574-0.834-1.416-0.864-2.525h6.687V9.406c0-1.276-0.354-2.303-1.063-3.081
	c-0.709-0.779-1.671-1.168-2.888-1.168c-1.299,0-2.334,0.448-3.104,1.345c-0.771,0.896-1.156,2.106-1.156,3.628
	c0,1.511,0.415,2.692,1.244,3.542c0.83,0.85,1.962,1.275,3.397,1.275C30.461,14.948,31.021,14.901,31.484,14.806z M31.179,7.075
	c0.413,0.48,0.62,1.171,0.62,2.073h-5.075c0.083-0.873,0.356-1.557,0.819-2.051c0.463-0.494,1.085-0.741,1.864-0.741
	C30.175,6.355,30.765,6.595,31.179,7.075z"/>
<path d="M43.995,14.776V8.613c0-1.207-0.295-2.084-0.886-2.633c-0.59-0.549-1.47-0.823-2.639-0.823
	c-0.667,0-1.273,0.128-1.816,0.384c-0.543,0.256-0.965,0.616-1.267,1.082h-0.071L37.078,5.33h-1.196v9.446h1.47V9.82
	c0-1.23,0.236-2.112,0.709-2.646c0.472-0.534,1.216-0.802,2.232-0.802c0.767,0,1.331,0.19,1.692,0.569
	c0.36,0.379,0.54,0.954,0.54,1.724v6.111H43.995z"/>
</svg>
