<?xml version="1.0" encoding="utf-8"?>
<!-- Generator: Adobe Illustrator 17.0.0, SVG Export Plug-In . SVG Version: 6.00 Build 0)  -->
<!DOCTYPE svg PUBLIC "-//W3C//DTD SVG 1.1//EN" "http://www.w3.org/Graphics/SVG/1.1/DTD/svg11.dtd">
<svg version="1.1" id="Livello_1" xmlns="http://www.w3.org/2000/svg" xmlns:xlink="http://www.w3.org/1999/xlink" x="0px" y="0px"
	 width="71px" height="19px" viewBox="0 0 71 19" enable-background="new 0 0 71 19" xml:space="preserve">
<path d="M9.105,3.962l0.634-1.259C8.729,2.22,7.549,1.978,6.2,1.978c-1.268,0-2.37,0.265-3.306,0.794
	c-0.936,0.529-1.652,1.283-2.148,2.26C0.25,6.01,0.002,7.148,0.002,8.448c0,2.076,0.515,3.678,1.545,4.805
	c1.03,1.127,2.493,1.691,4.388,1.691c1.309,0,2.409-0.164,3.301-0.492v-1.285c-1.15,0.316-2.174,0.474-3.072,0.474
	c-1.461,0-2.587-0.45-3.376-1.35c-0.79-0.9-1.184-2.175-1.184-3.826c0-1.605,0.409-2.868,1.228-3.791
	c0.819-0.923,1.935-1.385,3.35-1.385C7.156,3.289,8.13,3.514,9.105,3.962L9.105,3.962z"/>
<path d="M18.841,14.771V8.318c0-1.104-0.277-1.906-0.832-2.407c-0.555-0.5-1.407-0.75-2.557-0.75c-0.569,0-1.137,0.072-1.704,0.216
	c-0.566,0.144-1.087,0.342-1.563,0.595l0.449,1.095c1.015-0.483,1.925-0.725,2.729-0.725c0.716,0,1.237,0.177,1.563,0.531
	c0.326,0.354,0.489,0.901,0.489,1.643v0.587l-1.637,0.052c-3.116,0.092-4.675,1.093-4.675,3.002c0,0.892,0.271,1.579,0.814,2.062
	c0.543,0.483,1.293,0.725,2.249,0.725c0.716,0,1.313-0.105,1.791-0.315c0.478-0.21,0.958-0.611,1.439-1.203h0.07l0.29,1.346H18.841z
	 M13.115,13.356c-0.32-0.27-0.48-0.664-0.48-1.182c0-0.661,0.257-1.149,0.77-1.462c0.513-0.313,1.351-0.49,2.513-0.531l1.461-0.061
	v0.854c0,0.88-0.26,1.564-0.779,2.053c-0.519,0.489-1.234,0.733-2.144,0.733C13.882,13.762,13.434,13.627,13.115,13.356z"/>
<path d="M35.611,14.771V8.603c0-1.208-0.272-2.086-0.814-2.635c-0.543-0.549-1.36-0.824-2.452-0.824
	c-0.698,0-1.32,0.144-1.866,0.431c-0.546,0.288-0.962,0.679-1.25,1.173h-0.07c-0.464-1.07-1.45-1.604-2.958-1.604
	c-0.622,0-1.184,0.129-1.686,0.388c-0.502,0.259-0.891,0.618-1.167,1.078h-0.07L23.04,5.317h-1.188v9.455h1.461v-4.96
	c0-1.225,0.213-2.106,0.638-2.644c0.425-0.538,1.096-0.807,2.012-0.807c0.698,0,1.212,0.188,1.541,0.565
	c0.328,0.377,0.493,0.942,0.493,1.695v6.151h1.461V9.492c0-1.064,0.217-1.852,0.651-2.364c0.434-0.512,1.106-0.768,2.016-0.768
	c0.693,0,1.203,0.188,1.532,0.565c0.329,0.377,0.493,0.942,0.493,1.695v6.151H35.611z"/>
<path d="M46.056,13.654c0.707-0.86,1.061-2.066,1.061-3.619c0-1.547-0.348-2.749-1.043-3.606c-0.695-0.857-1.683-1.285-2.962-1.285
	c-0.646,0-1.218,0.115-1.717,0.345c-0.499,0.23-0.936,0.604-1.312,1.121h-0.071L39.81,5.317h-1.188v13.699h1.461v-3.891
	c0-0.494-0.035-1.018-0.106-1.57h0.106c0.352,0.472,0.788,0.821,1.307,1.048c0.519,0.227,1.093,0.341,1.721,0.341
	C44.367,14.944,45.348,14.514,46.056,13.654z M44.894,7.305c0.472,0.63,0.709,1.534,0.709,2.713c0,1.162-0.236,2.073-0.709,2.734
	c-0.473,0.661-1.125,0.992-1.959,0.992c-0.998,0-1.722-0.286-2.174-0.858c-0.452-0.572-0.678-1.523-0.678-2.851V9.716
	c0.012-1.167,0.238-2.019,0.678-2.553c0.44-0.535,1.153-0.802,2.139-0.802C43.757,6.36,44.421,6.675,44.894,7.305z"/>
<path d="M49.564,5.317v6.185c0,1.202,0.292,2.076,0.876,2.622c0.584,0.546,1.463,0.819,2.636,0.819c0.681,0,1.287-0.124,1.818-0.371
	c0.531-0.247,0.946-0.604,1.246-1.07h0.079l0.211,1.268h1.206V5.317h-1.461v4.969c0,1.225-0.233,2.108-0.7,2.648
	c-0.466,0.541-1.205,0.811-2.214,0.811c-0.763,0-1.324-0.19-1.681-0.569c-0.358-0.38-0.537-0.955-0.537-1.725V5.317H49.564z"/>
<path d="M66.355,10.63c-0.402-0.414-1.175-0.825-2.319-1.233c-0.834-0.305-1.397-0.538-1.69-0.699
	c-0.294-0.161-0.506-0.331-0.638-0.509c-0.132-0.178-0.198-0.394-0.198-0.647c0-0.374,0.176-0.667,0.528-0.88
	c0.352-0.213,0.874-0.319,1.567-0.319c0.786,0,1.664,0.196,2.632,0.587l0.519-1.164c-0.992-0.414-2.007-0.621-3.046-0.621
	c-1.115,0-1.993,0.223-2.632,0.668c-0.64,0.446-0.959,1.054-0.959,1.825c0,0.431,0.092,0.802,0.277,1.113
	c0.185,0.311,0.466,0.588,0.845,0.832c0.378,0.245,1.017,0.531,1.915,0.858c0.945,0.357,1.58,0.666,1.906,0.927
	c0.326,0.262,0.489,0.577,0.489,0.945c0,0.489-0.206,0.853-0.616,1.091c-0.411,0.239-0.998,0.358-1.761,0.358
	c-0.493,0-1.005-0.066-1.536-0.198c-0.531-0.132-1.029-0.313-1.492-0.543v1.328c0.716,0.397,1.714,0.595,2.993,0.595
	c1.209,0,2.148-0.238,2.817-0.716c0.669-0.477,1.004-1.156,1.004-2.036C66.959,11.565,66.757,11.045,66.355,10.63z"/>
<path d="M69.265,12.718c-0.076,0.529-0.21,1.234-0.401,2.113c-0.191,0.88-0.365,1.619-0.524,2.217h1.101
	c0.311-0.656,0.61-1.365,0.898-2.126c0.288-0.762,0.507-1.431,0.66-2.006l-0.132-0.198H69.265z"/>
</svg>
