<?xml version="1.0" encoding="utf-8"?>
<!-- Generator: Adobe Illustrator 17.0.0, SVG Export Plug-In . SVG Version: 6.00 Build 0)  -->
<!DOCTYPE svg PUBLIC "-//W3C//DTD SVG 1.1//EN" "http://www.w3.org/Graphics/SVG/1.1/DTD/svg11.dtd">
<svg version="1.1" id="Livello_1" xmlns="http://www.w3.org/2000/svg" xmlns:xlink="http://www.w3.org/1999/xlink" x="0px" y="0px"
	 width="18px" height="19px" viewBox="0 0 18 19" enable-background="new 0 0 18 19" xml:space="preserve">
<path d="M7.341,9.352C6.833,8.809,5.904,8.3,4.554,7.826C3.75,7.543,3.153,7.285,2.763,7.051C2.372,6.817,2.095,6.56,1.931,6.279
	C1.766,5.999,1.684,5.639,1.684,5.2c0-0.595,0.223-1.06,0.669-1.395C2.799,3.47,3.419,3.302,4.211,3.302
	c1.004,0,2.037,0.22,3.099,0.659l0.467-1.283C6.703,2.216,5.526,1.984,4.246,1.984c-1.227,0-2.213,0.289-2.958,0.867
	C0.543,3.429,0.17,4.206,0.17,5.183c0,0.931,0.257,1.685,0.77,2.262c0.513,0.578,1.369,1.078,2.567,1.5
	c0.857,0.3,1.495,0.569,1.915,0.806c0.42,0.237,0.719,0.496,0.898,0.776c0.179,0.28,0.269,0.64,0.269,1.079
	c0,0.665-0.252,1.183-0.757,1.556c-0.505,0.373-1.256,0.559-2.254,0.559c-0.61,0-1.227-0.064-1.849-0.191
	c-0.622-0.127-1.197-0.3-1.726-0.52v1.422c0.822,0.387,1.996,0.581,3.522,0.581c1.409,0,2.524-0.312,3.346-0.936
	s1.233-1.494,1.233-2.609C8.103,10.6,7.849,9.895,7.341,9.352z"/>
<path d="M17.237,9.352C16.73,8.809,15.801,8.3,14.451,7.826c-0.804-0.283-1.401-0.542-1.792-0.776
	c-0.39-0.234-0.668-0.491-0.832-0.771c-0.164-0.28-0.247-0.64-0.247-1.079c0-0.595,0.223-1.06,0.669-1.395
	c0.446-0.335,1.065-0.503,1.858-0.503c1.004,0,2.037,0.22,3.099,0.659l0.467-1.283c-1.074-0.462-2.251-0.693-3.531-0.693
	c-1.227,0-2.213,0.289-2.958,0.867c-0.746,0.578-1.118,1.355-1.118,2.332c0,0.931,0.257,1.685,0.77,2.262
	c0.514,0.578,1.369,1.078,2.566,1.5c0.857,0.3,1.495,0.569,1.915,0.806c0.42,0.237,0.719,0.496,0.898,0.776
	c0.179,0.28,0.268,0.64,0.268,1.079c0,0.665-0.252,1.183-0.757,1.556c-0.505,0.373-1.256,0.559-2.254,0.559
	c-0.61,0-1.227-0.064-1.849-0.191c-0.622-0.127-1.197-0.3-1.726-0.52v1.422c0.822,0.387,1.996,0.581,3.522,0.581
	c1.409,0,2.524-0.312,3.346-0.936s1.233-1.494,1.233-2.609C17.999,10.6,17.745,9.895,17.237,9.352z"/>
</svg>
