<?xml version="1.0" encoding="utf-8"?>
<!-- Generator: Adobe Illustrator 17.0.0, SVG Export Plug-In . SVG Version: 6.00 Build 0)  -->
<!DOCTYPE svg PUBLIC "-//W3C//DTD SVG 1.1//EN" "http://www.w3.org/Graphics/SVG/1.1/DTD/svg11.dtd">
<svg version="1.1" id="Livello_1" xmlns="http://www.w3.org/2000/svg" xmlns:xlink="http://www.w3.org/1999/xlink" x="0px" y="0px"
	 width="26px" height="19px" viewBox="0 0 26 19" enable-background="new 0 0 26 19" xml:space="preserve">
<path d="M1.467,1.006H0.003v13.735h1.464V1.006z"/>
<path d="M11.721,6.241c-0.797-0.9-1.871-1.351-3.224-1.351c-1.399,0-2.493,0.44-3.281,1.32C4.428,7.09,4.034,8.318,4.034,9.896
	c0,1.018,0.182,1.907,0.547,2.666c0.365,0.759,0.882,1.342,1.552,1.748c0.67,0.406,1.438,0.609,2.302,0.609
	c1.399,0,2.496-0.443,3.29-1.328c0.794-0.886,1.191-2.117,1.191-3.694C12.916,8.359,12.518,7.141,11.721,6.241z M6.283,7.08
	c0.488-0.63,1.211-0.944,2.17-0.944c0.97,0,1.704,0.319,2.201,0.958c0.497,0.639,0.745,1.573,0.745,2.803
	c0,1.242-0.248,2.185-0.745,2.829c-0.497,0.644-1.225,0.967-2.183,0.967c-0.959,0-1.685-0.324-2.179-0.971
	c-0.494-0.647-0.741-1.589-0.741-2.825C5.551,8.648,5.795,7.709,6.283,7.08z"/>
<path d="M21.789,14.415v-1.298c-0.847,0.347-1.673,0.521-2.479,0.521c-0.941,0-1.651-0.318-2.13-0.953
	c-0.479-0.635-0.719-1.548-0.719-2.737c0-2.507,0.982-3.76,2.946-3.76c0.294,0,0.632,0.043,1.014,0.128
	c0.382,0.085,0.735,0.193,1.059,0.322l0.45-1.245c-0.265-0.135-0.629-0.253-1.094-0.353c-0.465-0.1-0.929-0.15-1.394-0.15
	c-1.441,0-2.55,0.441-3.33,1.324c-0.779,0.883-1.169,2.133-1.169,3.752c0,1.577,0.384,2.797,1.151,3.659
	c0.767,0.862,1.851,1.293,3.25,1.293C20.328,14.918,21.142,14.75,21.789,14.415L21.789,14.415z"/>
<path d="M24.166,14.72c0.197,0.185,0.445,0.278,0.745,0.278c0.335,0,0.6-0.103,0.794-0.309c0.194-0.206,0.291-0.5,0.291-0.883
	c0-0.394-0.096-0.693-0.287-0.896c-0.191-0.203-0.457-0.304-0.798-0.304c-0.335,0-0.593,0.101-0.772,0.304
	c-0.179,0.203-0.269,0.502-0.269,0.896C23.871,14.23,23.969,14.534,24.166,14.72z"/>
</svg>
