<?xml version="1.0" encoding="utf-8"?>
<!-- Generator: Adobe Illustrator 17.0.0, SVG Export Plug-In . SVG Version: 6.00 Build 0)  -->
<!DOCTYPE svg PUBLIC "-//W3C//DTD SVG 1.1//EN" "http://www.w3.org/Graphics/SVG/1.1/DTD/svg11.dtd">
<svg version="1.1" id="Livello_1" xmlns="http://www.w3.org/2000/svg" xmlns:xlink="http://www.w3.org/1999/xlink" x="0px" y="0px"
	 width="17px" height="19px" viewBox="0 0 17 19" enable-background="new 0 0 17 19" xml:space="preserve">
<path d="M7.117,9.352C6.623,8.809,5.719,8.3,4.406,7.826C3.624,7.543,3.043,7.285,2.664,7.051c-0.38-0.234-0.65-0.491-0.809-0.771
	c-0.16-0.28-0.24-0.64-0.24-1.079c0-0.595,0.217-1.06,0.651-1.395C2.699,3.47,3.302,3.302,4.072,3.302
	c0.976,0,1.981,0.22,3.015,0.659l0.454-1.283c-1.045-0.462-2.19-0.693-3.434-0.693c-1.193,0-2.153,0.289-2.877,0.867
	C0.504,3.429,0.141,4.206,0.141,5.183c0,0.931,0.25,1.685,0.749,2.262c0.5,0.578,1.332,1.078,2.497,1.5
	c0.833,0.3,1.454,0.569,1.863,0.806c0.408,0.237,0.699,0.496,0.874,0.776c0.174,0.28,0.261,0.64,0.261,1.079
	c0,0.665-0.246,1.183-0.737,1.556c-0.491,0.373-1.222,0.559-2.192,0.559c-0.594,0-1.193-0.064-1.798-0.191
	c-0.605-0.127-1.165-0.3-1.678-0.52v1.422c0.799,0.387,1.941,0.581,3.426,0.581c1.37,0,2.455-0.312,3.254-0.936
	c0.799-0.624,1.199-1.494,1.199-2.609C7.858,10.6,7.611,9.895,7.117,9.352z"/>
<path d="M17.03,14.839V8.355c0-1.109-0.27-1.915-0.809-2.418c-0.54-0.503-1.369-0.754-2.488-0.754c-0.554,0-1.106,0.072-1.657,0.217
	c-0.551,0.145-1.058,0.344-1.52,0.598l0.437,1.101c0.988-0.485,1.873-0.728,2.655-0.728c0.696,0,1.203,0.178,1.52,0.533
	c0.317,0.355,0.475,0.906,0.475,1.651v0.589L14.05,9.196c-3.032,0.092-4.548,1.098-4.548,3.016c0,0.896,0.264,1.586,0.792,2.072
	c0.528,0.485,1.257,0.728,2.188,0.728c0.696,0,1.277-0.105,1.743-0.316c0.465-0.211,0.932-0.614,1.4-1.209h0.069l0.283,1.352H17.03z
	 M11.459,13.417c-0.311-0.271-0.467-0.667-0.467-1.188c0-0.664,0.25-1.154,0.75-1.469c0.499-0.315,1.314-0.493,2.445-0.533
	l1.422-0.061v0.858c0,0.884-0.253,1.572-0.758,2.063c-0.505,0.491-1.2,0.737-2.085,0.737C12.205,13.825,11.77,13.689,11.459,13.417z
	"/>
</svg>
