<?xml version="1.0" encoding="utf-8"?>
<!-- Generator: Adobe Illustrator 17.0.0, SVG Export Plug-In . SVG Version: 6.00 Build 0)  -->
<!DOCTYPE svg PUBLIC "-//W3C//DTD SVG 1.1//EN" "http://www.w3.org/Graphics/SVG/1.1/DTD/svg11.dtd">
<svg version="1.1" id="Livello_1" xmlns="http://www.w3.org/2000/svg" xmlns:xlink="http://www.w3.org/1999/xlink" x="0px" y="0px"
	 width="48px" height="19px" viewBox="0 0 48 19" enable-background="new 0 0 48 19" xml:space="preserve">
<path d="M1.478,14.679V1.827h-1.483v12.852H1.478z"/>
<path d="M6.206,1H4.758v13.679h1.448V1z"/>
<path d="M10.724,1H9.276v13.679h1.448V1z"/>
<path d="M19.485,14.71c0.456-0.097,0.94-0.256,1.452-0.479V12.93c-1.006,0.434-2.024,0.651-3.053,0.651
	c-0.977,0-1.734-0.293-2.272-0.879c-0.538-0.586-0.821-1.445-0.85-2.576h6.585V9.202c0-1.301-0.349-2.349-1.047-3.143
	c-0.698-0.794-1.646-1.191-2.843-1.191c-1.279,0-2.298,0.457-3.057,1.371c-0.759,0.914-1.138,2.148-1.138,3.701
	c0,1.542,0.408,2.746,1.226,3.613c0.817,0.867,1.932,1.301,3.345,1.301C18.478,14.855,19.029,14.807,19.485,14.71z M19.184,6.824
	c0.407,0.489,0.611,1.194,0.611,2.114h-4.998c0.081-0.891,0.35-1.588,0.807-2.092C16.06,6.342,16.672,6.09,17.44,6.09
	C18.196,6.09,18.777,6.335,19.184,6.824z"/>
<path d="M25.778,13.185c-0.273-0.311-0.41-0.756-0.41-1.336v-5.67h2.774V5.044h-2.774V2.811h-0.837L23.92,4.868l-1.369,0.606v0.703
	h1.369v5.732c0,1.963,0.924,2.945,2.774,2.945c0.244,0,0.519-0.025,0.824-0.075c0.305-0.05,0.536-0.113,0.693-0.189v-1.116
	c-0.139,0.041-0.329,0.081-0.567,0.119c-0.239,0.038-0.486,0.057-0.741,0.057C26.427,13.651,26.052,13.495,25.778,13.185z"/>
<path d="M32.084,13.185c-0.273-0.311-0.41-0.756-0.41-1.336v-5.67h2.774V5.044h-2.774V2.811h-0.837l-0.611,2.057l-1.369,0.606v0.703
	h1.369v5.732c0,1.963,0.924,2.945,2.774,2.945c0.244,0,0.519-0.025,0.824-0.075c0.305-0.05,0.537-0.113,0.694-0.189v-1.116
	c-0.139,0.041-0.329,0.081-0.567,0.119c-0.239,0.038-0.486,0.057-0.742,0.057C32.733,13.651,32.358,13.495,32.084,13.185z"/>
<path d="M43.38,14.679V8.103c0-1.125-0.275-1.943-0.824-2.453s-1.394-0.765-2.534-0.765c-0.564,0-1.127,0.073-1.688,0.22
	c-0.561,0.147-1.077,0.349-1.548,0.607l0.445,1.116c1.006-0.492,1.907-0.739,2.704-0.739c0.709,0,1.225,0.18,1.548,0.541
	c0.323,0.36,0.484,0.919,0.484,1.675v0.598l-1.622,0.053c-3.088,0.094-4.632,1.114-4.632,3.059c0,0.908,0.269,1.609,0.807,2.101
	c0.538,0.492,1.281,0.738,2.229,0.738c0.709,0,1.301-0.107,1.775-0.321c0.474-0.214,0.949-0.623,1.426-1.226h0.07l0.288,1.371H43.38
	z M37.706,13.237c-0.317-0.275-0.475-0.677-0.475-1.204c0-0.674,0.254-1.17,0.763-1.49c0.509-0.319,1.339-0.5,2.49-0.541
	l1.448-0.062v0.87c0,0.897-0.257,1.594-0.772,2.092c-0.514,0.498-1.222,0.747-2.124,0.747
	C38.466,13.651,38.023,13.513,37.706,13.237z"/>
<path d="M46.293,12.587c-0.076,0.539-0.208,1.257-0.397,2.154c-0.189,0.897-0.362,1.65-0.519,2.259h1.09
	c0.308-0.668,0.605-1.391,0.89-2.167c0.285-0.776,0.503-1.458,0.654-2.044l-0.131-0.202H46.293z"/>
</svg>
