<?xml version="1.0" encoding="utf-8"?>
<!-- Generator: Adobe Illustrator 17.0.0, SVG Export Plug-In . SVG Version: 6.00 Build 0)  -->
<!DOCTYPE svg PUBLIC "-//W3C//DTD SVG 1.1//EN" "http://www.w3.org/Graphics/SVG/1.1/DTD/svg11.dtd">
<svg version="1.1" id="Livello_1" xmlns="http://www.w3.org/2000/svg" xmlns:xlink="http://www.w3.org/1999/xlink" x="0px" y="0px"
	 width="48px" height="19px" viewBox="0 0 48 19" enable-background="new 0 0 48 19" xml:space="preserve">
<path fill="#010202" d="M8.464,13.422H1.843v-0.069l2.818-2.692c1.256-1.193,2.113-2.179,2.571-2.959
	c0.458-0.78,0.687-1.568,0.687-2.365c0-1.021-0.344-1.833-1.03-2.438C6.201,2.294,5.253,1.991,4.044,1.991
	c-1.397,0-2.689,0.482-3.874,1.445l0.775,0.972c0.587-0.453,1.119-0.765,1.598-0.937c0.478-0.172,0.985-0.258,1.519-0.258
	c0.74,0,1.318,0.197,1.734,0.589c0.417,0.393,0.625,0.925,0.625,1.595c0,0.476-0.082,0.92-0.247,1.333
	c-0.164,0.413-0.411,0.837-0.74,1.273c-0.329,0.436-1.01,1.164-2.043,2.185l-3.39,3.329v1.23h8.462V13.422z"/>
<path fill="#010202" d="M10.912,12.7c-0.076,0.528-0.21,1.23-0.401,2.107c-0.191,0.877-0.365,1.614-0.524,2.21h1.101
	c0.311-0.654,0.61-1.36,0.898-2.12c0.287-0.76,0.508-1.426,0.66-2L12.515,12.7H10.912z"/>
<path fill="#010202" d="M21.672,2.83c-0.693-0.559-1.664-0.839-2.914-0.839c-0.763,0-1.49,0.116-2.179,0.348
	c-0.69,0.232-1.299,0.552-1.827,0.959l0.74,0.963c0.64-0.401,1.209-0.676,1.708-0.826c0.499-0.149,1.03-0.224,1.594-0.224
	c0.74,0,1.325,0.175,1.757,0.525c0.432,0.35,0.647,0.831,0.647,1.445c0,0.768-0.294,1.369-0.881,1.802
	c-0.587,0.433-1.382,0.649-2.386,0.649h-1.285v1.23h1.268c2.454,0,3.68,0.763,3.68,2.288c0,1.703-1.112,2.554-3.337,2.554
	c-0.563,0-1.161-0.07-1.792-0.211c-0.631-0.141-1.225-0.345-1.783-0.615v1.359c0.534,0.252,1.084,0.429,1.651,0.529
	c0.566,0.1,1.19,0.15,1.871,0.15c1.567,0,2.777-0.323,3.628-0.967c0.851-0.645,1.277-1.567,1.277-2.765
	c0-0.837-0.25-1.514-0.748-2.03c-0.499-0.516-1.265-0.837-2.298-0.963V8.124c0.845-0.172,1.498-0.513,1.959-1.024
	c0.461-0.51,0.691-1.167,0.691-1.97C22.711,4.156,22.365,3.389,21.672,2.83z"/>
<path fill="#010202" d="M32.489,3.634c-0.725-1.107-1.786-1.66-3.183-1.66c-1.432,0-2.498,0.53-3.196,1.591
	c-0.699,1.061-1.048,2.686-1.048,4.877c0,2.122,0.361,3.731,1.083,4.829c0.722,1.098,1.775,1.647,3.161,1.647
	c1.444,0,2.517-0.536,3.218-1.608c0.701-1.072,1.052-2.695,1.052-4.868C33.576,6.343,33.214,4.741,32.489,3.634z M27.202,4.456
	c0.44-0.829,1.142-1.243,2.104-1.243c0.974,0,1.68,0.42,2.118,1.26c0.437,0.84,0.656,2.163,0.656,3.969
	c0,1.806-0.219,3.132-0.656,3.978c-0.437,0.846-1.143,1.269-2.118,1.269c-0.963,0-1.664-0.417-2.104-1.251
	c-0.44-0.834-0.66-2.166-0.66-3.995S26.761,5.284,27.202,4.456z"/>
<path fill="#010202" d="M42.8,3.634c-0.725-1.107-1.786-1.66-3.183-1.66c-1.432,0-2.498,0.53-3.196,1.591
	c-0.699,1.061-1.048,2.686-1.048,4.877c0,2.122,0.361,3.731,1.083,4.829c0.722,1.098,1.776,1.647,3.161,1.647
	c1.444,0,2.517-0.536,3.218-1.608c0.701-1.072,1.052-2.695,1.052-4.868C43.887,6.343,43.525,4.741,42.8,3.634z M37.512,4.456
	c0.44-0.829,1.142-1.243,2.104-1.243c0.974,0,1.68,0.42,2.118,1.26c0.437,0.84,0.656,2.163,0.656,3.969
	c0,1.806-0.219,3.132-0.656,3.978c-0.437,0.846-1.143,1.269-2.118,1.269c-0.963,0-1.664-0.417-2.104-1.251
	c-0.44-0.834-0.66-2.166-0.66-3.995S37.072,5.284,37.512,4.456z"/>
<path fill="#010202" d="M46.264,12.7c-0.076,0.528-0.21,1.23-0.401,2.107c-0.191,0.877-0.365,1.614-0.524,2.21h1.101
	c0.311-0.654,0.61-1.36,0.898-2.12c0.288-0.76,0.508-1.426,0.66-2L47.867,12.7H46.264z"/>
</svg>
