<?xml version="1.0" encoding="utf-8"?>
<!-- Generator: Adobe Illustrator 17.0.0, SVG Export Plug-In . SVG Version: 6.00 Build 0)  -->
<!DOCTYPE svg PUBLIC "-//W3C//DTD SVG 1.1//EN" "http://www.w3.org/Graphics/SVG/1.1/DTD/svg11.dtd">
<svg version="1.1" id="Livello_1" xmlns="http://www.w3.org/2000/svg" xmlns:xlink="http://www.w3.org/1999/xlink" x="0px" y="0px"
	 width="50px" height="19px" viewBox="0 0 50 19" enable-background="new 0 0 50 19" xml:space="preserve">
<path d="M7.492,3.654c-0.731-1.114-1.8-1.671-3.208-1.671c-1.443,0-2.517,0.534-3.221,1.602C0.359,4.653,0.007,6.289,0.007,8.494
	c0,2.136,0.364,3.756,1.091,4.861c0.727,1.105,1.789,1.658,3.185,1.658c1.455,0,2.536-0.54,3.243-1.619
	c0.707-1.079,1.06-2.713,1.06-4.9C8.587,6.381,8.222,4.768,7.492,3.654z M2.163,4.481C2.607,3.647,3.314,3.23,4.284,3.23
	c0.982,0,1.693,0.423,2.134,1.268c0.441,0.846,0.661,2.177,0.661,3.996s-0.22,3.153-0.661,4.004
	c-0.441,0.852-1.152,1.277-2.134,1.277c-0.97,0-1.677-0.42-2.121-1.26c-0.444-0.84-0.665-2.18-0.665-4.021
	C1.498,6.652,1.72,5.315,2.163,4.481z"/>
<path d="M18.374,4.593c-0.355-0.845-0.862-1.489-1.522-1.931C16.193,2.221,15.422,2,14.541,2c-1.23,0-2.223,0.381-2.977,1.143
	c-0.754,0.762-1.131,1.801-1.131,3.117c0,1.201,0.337,2.136,1.012,2.805c0.674,0.67,1.585,1.004,2.733,1.004
	c0.674,0,1.281-0.126,1.819-0.377c0.538-0.251,0.97-0.616,1.295-1.095h0.106c-0.065,1.772-0.46,3.087-1.185,3.944
	c-0.725,0.857-1.797,1.286-3.216,1.286c-0.603,0-1.142-0.075-1.615-0.225v1.238c0.402,0.115,0.946,0.173,1.633,0.173
	c3.928,0,5.892-2.476,5.892-7.428C18.907,6.436,18.729,5.439,18.374,4.593z M16.036,3.671c0.435,0.294,0.773,0.698,1.016,1.212
	c0.243,0.514,0.364,1.074,0.364,1.68c0,0.404-0.13,0.791-0.39,1.16c-0.26,0.369-0.617,0.661-1.069,0.874
	c-0.452,0.214-0.948,0.32-1.486,0.32c-0.87,0-1.517-0.238-1.943-0.714c-0.426-0.476-0.639-1.13-0.639-1.961
	c0-0.946,0.231-1.685,0.692-2.216c0.461-0.531,1.115-0.797,1.961-0.797C15.103,3.23,15.601,3.377,16.036,3.671z"/>
<path d="M26.227,2.182h-1.242l-3.434,2.589l0.781,0.987c1.254-0.993,1.958-1.555,2.112-1.688c0.154-0.133,0.293-0.26,0.417-0.381
	c-0.047,0.67-0.071,1.379-0.071,2.13v9.021h1.438V2.182z"/>
<path d="M39.687,13.506h-6.673v-0.069l2.839-2.71c1.266-1.2,2.129-2.193,2.591-2.978c0.461-0.785,0.692-1.579,0.692-2.381
	c0-1.027-0.346-1.845-1.038-2.455C37.407,2.305,36.451,2,35.233,2c-1.408,0-2.709,0.485-3.904,1.454l0.781,0.978
	c0.591-0.456,1.128-0.771,1.61-0.944c0.482-0.173,0.992-0.26,1.531-0.26c0.745,0,1.328,0.198,1.748,0.593
	c0.42,0.395,0.63,0.931,0.63,1.606c0,0.479-0.083,0.926-0.248,1.342c-0.166,0.416-0.414,0.843-0.745,1.281
	c-0.331,0.439-1.017,1.172-2.058,2.199l-3.416,3.351v1.238h8.527V13.506z"/>
<path d="M48.542,2.844C47.844,2.282,46.865,2,45.605,2c-0.769,0-1.501,0.117-2.196,0.351c-0.695,0.234-1.309,0.556-1.841,0.965
	l0.745,0.97c0.645-0.404,1.218-0.681,1.721-0.831c0.503-0.15,1.038-0.225,1.606-0.225c0.745,0,1.335,0.176,1.77,0.528
	c0.435,0.352,0.652,0.837,0.652,1.454c0,0.773-0.296,1.378-0.887,1.814c-0.592,0.436-1.393,0.654-2.404,0.654h-1.295v1.238h1.278
	c2.472,0,3.709,0.768,3.709,2.303c0,1.714-1.121,2.571-3.363,2.571c-0.568,0-1.17-0.071-1.806-0.212
	c-0.636-0.141-1.235-0.348-1.797-0.619v1.368c0.538,0.254,1.093,0.431,1.664,0.532c0.571,0.101,1.199,0.151,1.886,0.151
	c1.579,0,2.798-0.325,3.656-0.974c0.858-0.649,1.287-1.577,1.287-2.784c0-0.843-0.252-1.524-0.754-2.043
	c-0.503-0.519-1.275-0.843-2.316-0.97V8.173c0.852-0.173,1.51-0.516,1.974-1.03c0.464-0.514,0.697-1.174,0.697-1.983
	C49.589,4.179,49.24,3.407,48.542,2.844z"/>
</svg>
