<?xml version="1.0" encoding="utf-8"?>
<!-- Generator: Adobe Illustrator 17.0.0, SVG Export Plug-In . SVG Version: 6.00 Build 0)  -->
<!DOCTYPE svg PUBLIC "-//W3C//DTD SVG 1.1//EN" "http://www.w3.org/Graphics/SVG/1.1/DTD/svg11.dtd">
<svg version="1.1" id="Livello_1" xmlns="http://www.w3.org/2000/svg" xmlns:xlink="http://www.w3.org/1999/xlink" x="0px" y="0px"
	 width="34px" height="34px" viewBox="0 0 34 34" enable-background="new 0 0 34 34" xml:space="preserve">
<g>
	<circle fill="#DDDCDA" cx="17" cy="17" r="17"/>
	<circle fill="#FFFFFF" cx="17" cy="17" r="15"/>
	<path fill="#DDDCDA" d="M24.814,9.932l-0.778-0.777c-0.812-0.812-1.893-1.26-3.04-1.26c-1.148,0-2.229,0.447-3.041,1.26
		l-6.878,6.878c-0.258,0.258-0.439,0.585-0.531,0.956c-0.024,0.06-0.042,0.123-0.054,0.188L9.29,23.609
		c-0.061,0.327,0.044,0.663,0.282,0.896c0.189,0.186,0.441,0.287,0.701,0.287c0.066,0,0.134-0.007,0.2-0.021l6.284-1.285
		c0.05-0.01,0.099-0.024,0.146-0.042c0.399-0.083,0.753-0.272,1.032-0.554l6.878-6.878C26.489,14.338,26.489,11.61,24.814,9.932z"/>
	<path fill="#FFFFFF" d="M22.621,10.569l0.778,0.777c0.811,0.812,0.881,2.081,0.223,2.979l-3.979-3.979
		C20.53,9.716,21.836,9.783,22.621,10.569z"/>
	<path fill="#FFFFFF" d="M14.616,18.081l5.674-5.674l1.293,1.293l-5.677,5.677C15.551,18.876,15.114,18.439,14.616,18.081z"/>
	<path fill="#FFFFFF" d="M19.583,11.699l-5.861,5.861c-0.317-0.147-0.65-0.264-0.996-0.349l6.184-6.185L19.583,11.699z"/>
	<path fill="#FFFFFF" d="M12.345,18.146c1.745,0.366,3.121,1.745,3.482,3.491l-4.298,0.879L12.345,18.146z"/>
	<path fill="#FFFFFF" d="M16.747,21.205c-0.081-0.322-0.19-0.634-0.325-0.931l5.868-5.868l0.649,0.65L16.747,21.205z"/>
</g>
</svg>
