<?xml version="1.0" encoding="utf-8"?>
<!-- Generator: Adobe Illustrator 17.0.0, SVG Export Plug-In . SVG Version: 6.00 Build 0)  -->
<!DOCTYPE svg PUBLIC "-//W3C//DTD SVG 1.1//EN" "http://www.w3.org/Graphics/SVG/1.1/DTD/svg11.dtd">
<svg version="1.1" id="Livello_1" xmlns="http://www.w3.org/2000/svg" xmlns:xlink="http://www.w3.org/1999/xlink" x="0px" y="0px"
	 width="362.267px" height="119.058px" viewBox="0 0 362.267 119.058" enable-background="new 0 0 362.267 119.058"
	 xml:space="preserve">
<path fill-rule="evenodd" clip-rule="evenodd" fill="#FFFFFF" d="M327.481,74.694c0,0-5.607,5.881-9.992,2.065
	c-1.372-1.392-2.057-3.67-2.057-6.832V47.766h13.846v-0.31h0.143V34.47h-0.143V33.65h-13.846V17.548H299.09l0.001,16.103h-5.8
	v14.115h4.86v22.387c0,3.238,0.371,6.193,1.117,8.864c0.744,2.673,1.919,4.951,3.527,6.832c1.605,1.883,3.683,3.351,6.231,4.404
	c2.546,1.053,5.623,1.581,9.229,1.581c8.247,0.013,12.721-4.709,13.931-5.057L327.481,74.694z"/>
<path fill-rule="evenodd" clip-rule="evenodd" fill="#FFFFFF" d="M226.182,41.297c-2.775-2.474-5.961-4.367-9.562-5.679
	c-3.601-1.311-7.348-1.968-11.238-1.968c-3.892,0-7.659,0.657-11.301,1.968c-3.644,1.312-6.852,3.205-9.624,5.679
	c-2.774,2.474-4.989,5.53-6.644,9.165c-1.657,3.638-2.484,7.779-2.484,12.427c0,4.649,0.827,8.791,2.484,12.426
	c1.655,3.637,3.869,6.691,6.644,9.165c2.773,2.474,5.98,4.368,9.624,5.679c3.642,1.311,7.408,1.968,11.301,1.968
	c3.89,0,7.637-0.657,11.238-1.968c3.601-1.311,6.787-3.205,9.562-5.679c2.772-2.474,4.987-5.528,6.644-9.165
	c1.655-3.636,2.484-7.777,2.484-12.426c0-4.648-0.829-8.789-2.484-12.427C231.168,46.827,228.954,43.772,226.182,41.297z
	 M213.825,74.472c-1.905,2.85-4.719,4.273-8.444,4.273c-3.809,0-6.644-1.423-8.507-4.273c-1.863-2.848-2.794-6.709-2.794-11.583
	c0-4.873,0.931-8.733,2.794-11.583c1.863-2.848,4.698-4.273,8.507-4.273c3.725,0,6.539,1.425,8.444,4.273
	c1.904,2.85,2.856,6.71,2.856,11.583C216.682,67.763,215.729,71.624,213.825,74.472z"/>
<path fill-rule="evenodd" clip-rule="evenodd" fill="#FFFFFF" d="M273.297,33.65v38.61c-1.737,2.073-3.36,3.59-4.863,4.529
	c-1.541,0.964-3.446,1.445-5.715,1.445c-2.595,0-4.499-0.74-5.714-2.223c-1.216-1.481-1.824-4.223-1.824-8.224V33.65h-17.872v36.249
	c0,6.966,1.478,12.411,4.438,16.338c2.958,3.928,7.72,5.891,14.286,5.891c4.134,0,7.679-0.797,10.638-2.39
	c2.322-1.25,4.529-2.882,6.626-4.885v7.275h17.994v-1.334V33.65h-17.872H273.297z"/>
<path fill-rule="evenodd" clip-rule="evenodd" fill="#FFFFFF" d="M359.268,56.84h-17.994c-1.656,0-2.999,1.354-2.999,3.025
	c0,1.67,1.343,3.025,2.999,3.025h17.994c1.656,0,2.999-1.354,2.999-3.025C362.267,58.194,360.924,56.84,359.268,56.84z"/>
<path fill-rule="evenodd" clip-rule="evenodd" fill="#FFFFFF" d="M334.049,18.016l12.7-12.857c1.169-1.183,1.165-3.099-0.008-4.277
	c-1.173-1.179-3.072-1.176-4.241,0.008l-12.7,12.856c-1.169,1.183-1.165,3.098,0.008,4.278
	C330.981,19.203,332.88,19.199,334.049,18.016z"/>
<path fill-rule="evenodd" clip-rule="evenodd" fill="#FFFFFF" d="M333.614,101.36c-1.151-1.163-3.021-1.166-4.177-0.008
	c-1.155,1.158-1.159,3.039-0.008,4.202l12.507,12.63c1.152,1.162,3.022,1.166,4.177,0.008c1.155-1.158,1.159-3.039,0.008-4.202
	L333.614,101.36z"/>
<path fill-rule="evenodd" clip-rule="evenodd" fill="#FFFFFF" d="M125.018,102.816L59.051,87.595l-21.827-5.036L19.593,78.49
	l-2.049-22.643l98.571-44.211c1.515-0.679,2.197-2.469,1.524-3.997c-0.673-1.528-2.448-2.216-3.963-1.537L10.887,52.356
	l3.836,31.223l21.163,4.883l-1.562,6.888c-1.233,5.434,2.135,10.847,7.523,12.09l24.387,5.627
	c5.387,1.243,10.754-2.154,11.987-7.589l1.562-6.888l43.897,10.129c1.616,0.373,3.226-0.646,3.596-2.277
	C127.644,104.812,126.634,103.189,125.018,102.816z M70.639,102.694c-0.493,2.174-2.64,3.533-4.795,3.035l-20.485-4.727
	c-2.155-0.497-3.502-2.663-3.009-4.836l1.339-5.904l28.289,6.527L70.639,102.694z"/>
<path fill-rule="evenodd" clip-rule="evenodd" fill="#FFFFFF" d="M5.989,54.411c-0.168-1.664-1.641-2.875-3.291-2.706
	c-1.65,0.169-2.85,1.656-2.683,3.319l2.839,28.117c0.168,1.664,1.641,2.875,3.291,2.706c1.649-0.17,2.85-1.656,2.682-3.32
	L5.989,54.411z"/>
<path fill-rule="evenodd" clip-rule="evenodd" fill="#FFFFFF" d="M99.84,78.283c-1.175,0.829-3.056,1.242-5.643,1.242
	c-2.509,0-4.978-0.489-7.406-1.468c-2.43-0.978-4.978-2.446-7.642-4.404L71.39,84.042c2.978,2.334,6.484,4.217,10.521,5.646
	c4.036,1.429,7.974,2.146,11.815,2.146c3.918,0,7.366-0.471,10.345-1.412c2.978-0.941,5.485-2.22,7.524-3.839
	c2.037-1.618,3.565-3.518,4.585-5.702c1.017-2.183,1.528-4.554,1.528-7.114c0-2.558-0.47-4.761-1.411-6.606
	c-0.94-1.844-2.175-3.405-3.703-4.686c-1.529-1.279-3.215-2.352-5.055-3.218c-1.842-0.865-3.703-1.638-5.584-2.315
	c-1.49-0.526-2.921-1.034-4.291-1.524c-1.372-0.489-2.586-0.997-3.644-1.525c-1.058-0.526-1.901-1.11-2.528-1.75
	c-0.628-0.639-0.94-1.411-0.94-2.315c0-2.936,2.193-4.404,6.583-4.404c2.037,0,4.074,0.415,6.113,1.242
	c2.037,0.829,4.115,1.995,6.231,3.5l7.759-9.937c-2.509-1.807-5.448-3.444-8.817-4.912c-3.371-1.468-7.289-2.202-11.756-2.202
	c-3.371,0-6.427,0.434-9.17,1.299c-2.744,0.866-5.095,2.052-7.054,3.557c-1.96,1.507-3.468,3.35-4.526,5.533
	c-1.058,2.184-1.587,4.556-1.587,7.114c0,2.334,0.47,4.386,1.411,6.154c0.941,1.77,2.155,3.313,3.645,4.63
	c1.488,1.318,3.134,2.428,4.937,3.331c1.802,0.904,3.604,1.694,5.408,2.372c1.488,0.603,2.939,1.149,4.35,1.637
	c1.411,0.49,2.684,1.036,3.821,1.637c1.135,0.604,2.037,1.262,2.704,1.976c0.665,0.717,0.999,1.524,0.999,2.428
	C101.604,76.29,101.016,77.456,99.84,78.283z"/>
<path fill-rule="evenodd" clip-rule="evenodd" fill="#FFFFFF" d="M154.336,32.642c-6.661,0.145-13.291,4.544-16.995,7.483V11.469
	h-17.994v80.658h17.994V52.299c2.991-2.343,7.614-5.481,10.996-5.542c7.613-0.097,6.998,7.057,6.998,7.057v38.313h17.994V53.815
	C173.33,53.815,174.694,32.419,154.336,32.642z"/>
</svg>
