<?xml version="1.0" encoding="utf-8"?>
<!-- Generator: Adobe Illustrator 17.0.0, SVG Export Plug-In . SVG Version: 6.00 Build 0)  -->
<!DOCTYPE svg PUBLIC "-//W3C//DTD SVG 1.1//EN" "http://www.w3.org/Graphics/SVG/1.1/DTD/svg11.dtd">
<svg version="1.1" id="Livello_1" xmlns="http://www.w3.org/2000/svg" xmlns:xlink="http://www.w3.org/1999/xlink" x="0px" y="0px"
	 width="251.511px" height="220.709px" viewBox="0 0 251.511 220.709" enable-background="new 0 0 251.511 220.709"
	 xml:space="preserve">
<path fill="#ffffff" fill-opacity="0.10" d="M251.415,157.457c-0.57-3.083-3.597-5.093-6.758-4.486L52.552,189.914L31.979,154.46L161.355,9.408
	c2.124-2.385,1.902-5.984-0.505-8.032c-2.401-2.051-6.077-1.778-8.21,0.612L17.78,153.194l28.696,49.455l41.255-7.932l2.294,12.817
	c0.758,4.251,3.171,7.931,6.782,10.363c3.613,2.435,7.999,3.33,12.355,2.525l45.527-8.45c1.859-0.349,3.634-0.992,5.27-1.918
	c6.091-3.449,9.375-10.291,8.172-17.014l-2.384-13.322l80.987-15.571c0.66-0.128,1.267-0.354,1.818-0.667
	C250.652,162.29,251.873,159.903,251.415,157.457z M154.253,200.219c-0.483,0.273-1.008,0.458-1.566,0.565l-45.53,8.445
	c-2.662,0.494-5.212-1.215-5.676-3.817l-2.054-11.481l55.194-10.246l2.052,11.481C157.033,197.162,156.062,199.194,154.253,200.219z
	"/>
<path fill="#ffffff" fill-opacity="0.10" d="M10.881,161.991c-1.576-2.715-5.12-3.633-7.918-2.05c-2.799,1.585-3.789,5.07-2.213,7.786l24.516,42.251
	c1.576,2.715,5.123,3.637,7.922,2.053c2.797-1.585,3.785-5.072,2.21-7.788L10.881,161.991z"/>
</svg>
