<?xml version="1.0" encoding="utf-8"?>
<!-- Generator: Adobe Illustrator 17.0.0, SVG Export Plug-In . SVG Version: 6.00 Build 0)  -->
<!DOCTYPE svg PUBLIC "-//W3C//DTD SVG 1.1//EN" "http://www.w3.org/Graphics/SVG/1.1/DTD/svg11.dtd">
<svg version="1.1" id="Livello_1" xmlns="http://www.w3.org/2000/svg" xmlns:xlink="http://www.w3.org/1999/xlink" x="0px" y="0px"
	 width="19.713px" height="19.713px" viewBox="0 0 19.713 19.713" enable-background="new 0 0 19.713 19.713" xml:space="preserve">
<path fill-rule="evenodd" clip-rule="evenodd" fill="#FFFFFF" d="M17.185,0.434c-0.123,0.123-7.329,7.329-7.329,7.329
	S2.651,0.557,2.528,0.434c-0.578-0.578-1.516-0.578-2.094,0c-0.578,0.578-0.578,1.516,0,2.094c0.123,0.123,7.329,7.329,7.329,7.329
	s-7.206,7.206-7.329,7.329c-0.578,0.578-0.578,1.516,0,2.094c0.578,0.578,1.516,0.578,2.094,0c0.123-0.123,7.329-7.329,7.329-7.329
	s7.206,7.206,7.329,7.329c0.578,0.578,1.516,0.578,2.094,0c0.578-0.578,0.578-1.516,0-2.094c-0.123-0.123-7.329-7.329-7.329-7.329
	s7.206-7.206,7.329-7.329c0.578-0.578,0.578-1.516,0-2.094C18.701-0.145,17.764-0.145,17.185,0.434z"/>
</svg>
