<?xml version="1.0" encoding="utf-8"?>
<!-- Generator: Adobe Illustrator 17.0.0, SVG Export Plug-In . SVG Version: 6.00 Build 0)  -->
<!DOCTYPE svg PUBLIC "-//W3C//DTD SVG 1.1//EN" "http://www.w3.org/Graphics/SVG/1.1/DTD/svg11.dtd">
<svg version="1.1" id="Livello_1" xmlns="http://www.w3.org/2000/svg" xmlns:xlink="http://www.w3.org/1999/xlink" x="0px" y="0px"
	 width="480px" height="480px" viewBox="0 0 480 480" enable-background="new 0 0 480 480" xml:space="preserve">
<g>
	<g opacity="0.5">
		<path fill-rule="evenodd" clip-rule="evenodd" fill="#99B9D9" d="M480,240C480,372.548,372.548,480,240,480S0,372.548,0,240
			C0,107.451,107.452,0,240,0C372.548,0,480,107.451,480,240z"/>
	</g>
	<path fill="#F4F4F4" d="M339.455,113.819c0,18.939-22.185,34.292-49.551,34.292c0,0-4.05,10.345,10.35,14.767
		c-24.3,1.38-31.155-17.927-31.155-17.927c-16.973-5.441-28.747-17.335-28.747-31.132c0-18.939,22.185-34.292,49.552-34.292
		C317.27,79.527,339.455,94.88,339.455,113.819z"/>
	<path fill-rule="evenodd" clip-rule="evenodd" fill="#FBB100" d="M410.878,71.495c-4.37-0.844-7.593-1.433-8.885-1.814
		c-5.754-1.698-10.916-14.799-16-16s-1.903,11.75-2,12c-4.648-0.559-8.018-11.243-14-14s-3.563,20-4,20c-4.593,0-8.905-22.444-16-22
		s-2,56-2,56l94,122c0,0,20.551-7.243,33.568-33.771C466.375,146.692,443.353,104.425,410.878,71.495z"/>
	<path fill-rule="evenodd" clip-rule="evenodd" fill="#FFE1C9" d="M449.993,197.68c0,0,19.247,9.727,20-10s-18-10-18-10
		l7.138-35.691c-2.505-5.591-5.21-11.074-8.12-16.429L347.993,105.68c0,0-9.846,10.718-16,22c-5.838,10.703-8,22-8,22
		s-11.608-5.109-14,8s10,12,10,12s-10.705,63.6,54,72c2.353,0.435,20,42,20,42l52-44L449.993,197.68z"/>
	
		<ellipse transform="matrix(-0.9398 -0.3418 0.3418 -0.9398 691.9447 430.4769)" fill-rule="evenodd" clip-rule="evenodd" fill="#402517" cx="383.895" cy="154.281" rx="8.168" ry="13"/>
	
		<ellipse transform="matrix(-0.2143 0.9768 -0.9768 -0.2143 554.8574 -159.7787)" fill-rule="evenodd" clip-rule="evenodd" fill="#402517" cx="341.693" cy="143.28" rx="11.371" ry="8"/>
	<path fill-rule="evenodd" clip-rule="evenodd" fill="#402517" d="M351.993,185.68c11.562,1.652,24,0,24,0s-0.907,21.173-22,20
		s-20-26-20-26S342.839,184.373,351.993,185.68z"/>
	<path fill-rule="evenodd" clip-rule="evenodd" fill="#FFE1C9" d="M244.651,316.618c-3.53-2.493-4.121-24.625,1.476-23.955
		c5.596,0.671,15.724,4.976,15.724,4.976s-8.197-9.285-3.378-10.227c4.819-0.942,13.359,10.842,13.359,10.842
		s35.842,4.483,57.124-16.519c2.764-2.727,6.641-10.54,10.499-19.146c4.913-10.961,16.82,0.057,12.243,8.001
		c-5.292,9.185-11.17,18.418-15.372,21.618c-24.605,18.737-61.239,18.269-61.239,18.269S248.182,319.111,244.651,316.618z"/>
	<g>
		<path d="M332.185,420.205h23.347v16.577h-54.219C305.322,416.302,332.185,420.205,332.185,420.205z"/>
		<polygon fill="#FFFFFF" points="355.532,443.981 301.313,443.376 301.313,436.782 355.532,436.782 		"/>
		<polygon points="355.532,445.884 301.233,445.884 301.313,443.376 355.532,443.376 		"/>
	</g>
	<path fill-rule="evenodd" clip-rule="evenodd" d="M140.417,63.526c-7.312-0.458-11.756,22.673-16.489,22.673
		c-0.45,0,2.043-23.453-4.122-20.611s-9.637,13.852-14.428,14.428c-0.1-0.258,3.178-13.605-2.061-12.367
		c-5.239,1.238-10.559,14.739-16.489,16.489c-3.41,1.006-19.813,3.4-35.953,8.1c-22.921,29.295-39.17,64.054-46.497,101.994
		c11.186,42.147,41.227,52.736,41.227,52.736l96.874-125.729C142.479,121.238,147.729,63.984,140.417,63.526z"/>
	<path fill-rule="evenodd" clip-rule="evenodd" fill="#85A4FF" d="M339.455,262.589c4.913-10.961,9.429-22.51,11.934-27.184
		l11.261,15.398c-2.237,3.935-6.375,11.843-10.952,19.787L339.455,262.589z"/>
	<path fill-rule="evenodd" clip-rule="evenodd" fill="#FFE1C9" d="M41.483,249.028L37.36,216.05c0,0-19.835,10.024-20.611-10.306
		c-0.776-20.33,18.55-10.306,18.55-10.306L24.994,143.91l117.485-22.673c0,0,10.147,11.046,16.489,22.673
		c6.016,11.03,8.245,22.673,8.245,22.673s11.963-5.266,14.428,8.245c2.465,13.51-10.306,12.367-10.306,12.367
		s11.032,65.544-55.651,74.201c-2.425,0.448-20.611,32.978-20.611,32.978L41.483,249.028z"/>
	
		<ellipse transform="matrix(0.9398 -0.3418 0.3418 0.9398 -52.2023 46.3662)" fill-rule="evenodd" clip-rule="evenodd" fill="#402517" cx="105.479" cy="171.324" rx="8.417" ry="13.397"/>
	
		<ellipse transform="matrix(0.2143 0.9768 -0.9768 0.2143 273.3235 -19.8031)" fill-rule="evenodd" clip-rule="evenodd" fill="#402517" cx="148.971" cy="159.987" rx="11.719" ry="8.245"/>
	<path fill-rule="evenodd" clip-rule="evenodd" fill="#FA701D" d="M155.45,247.676c-25.528,11.722-54.194,15.78-54.194,15.78
		l-10.306,12.55l-8.245-12.55L37.36,242.845c-10,8.407-17.783,17.149-23.838,25.73l10.296,7.241
		c3.274-4.687,7.074-9.508,11.481-14.421l-5.718,94.103c0.709,1.29,1.422,2.578,2.154,3.853l116.926,0.978l-14.428-90.69
		c0,0,15.092-3.158,30.76-10.829C174.026,254.388,164.316,243.605,155.45,247.676z"/>
	<path fill-rule="evenodd" clip-rule="evenodd" fill="#402517" d="M138.356,203.683c-11.915,1.702-24.734,0-24.734,0
		s0.935,21.82,22.673,20.611c21.738-1.209,20.611-26.795,20.611-26.795S147.79,202.336,138.356,203.683z"/>
	<g>
		<circle fill-rule="evenodd" clip-rule="evenodd" fill="#922B00" cx="88.704" cy="289.093" r="2.308"/>
		<circle fill-rule="evenodd" clip-rule="evenodd" fill="#922B00" cx="83.291" cy="278.899" r="2.308"/>
	</g>
	<path fill-rule="evenodd" clip-rule="evenodd" fill="#FFE1C9" d="M218.652,147.72c-2.341-3.789-22.46-9.832-22.125-4.033
		c0.335,5.799,3.663,31.14,3.663,31.14s2.34,37.151-20.611,57.712c-6.777,6.071-15.267,11.058-24.132,15.129l9.545,11.136
		c9.033-4.423,18.258-10.338,24.893-18.021c20.832-24.122,22.673-61.834,22.673-61.834S220.993,151.509,218.652,147.72z"/>
	<polygon fill-rule="evenodd" clip-rule="evenodd" fill="#922B00" points="70.527,278.439 82.705,263.456 49.241,248.245 	"/>
	<path fill="#FFFFFF" d="M158.77,99.206c0,27.356,32.045,49.533,71.574,49.533c0,0,5.85,14.943-14.95,21.331
		c35.1,1.994,45.001-25.895,45.001-25.895c24.517-7.86,41.523-25.04,41.523-44.968c0-27.356-32.045-49.533-71.574-49.533
		S158.77,71.85,158.77,99.206z"/>
	<polygon fill-rule="evenodd" clip-rule="evenodd" fill="#922B00" points="108.914,278.439 101.256,263.456 129.279,257.201 	"/>
	<path fill-rule="evenodd" clip-rule="evenodd" fill="#FFE1C9" d="M170.253,187.002c0,0-12.467-11.575-8.226-16.807
		c4.241-5.232,15,14.316,15,14.316L170.253,187.002z"/>
	<path fill-rule="evenodd" clip-rule="evenodd" fill="#FFE1C9" d="M4.101,284.322c1.293,6.923,2.877,13.744,4.75,20.444
		c2.965-8.674,7.65-18.475,14.967-28.949l-10.296-7.241C9.746,273.927,6.651,279.214,4.101,284.322z"/>
	<path fill-rule="evenodd" clip-rule="evenodd" fill="#0050A0" d="M31.736,359.352c7.804,13.588,16.902,26.337,27.121,38.085
		c6.093-5.828,14.459-10.166,25.958-11.223c44.069-4.052,49.894,59.164,49.894,59.164h24.061l-10.108-85.048L31.736,359.352z"/>
	<path fill-rule="evenodd" clip-rule="evenodd" d="M158.77,445.378h-24.061v10.339c4.942,2.417,9.981,4.665,15.107,6.745h40.77
		C186.453,441.355,158.77,445.378,158.77,445.378z"/>
	<path fill-rule="evenodd" clip-rule="evenodd" fill="#FFFFFF" d="M149.816,462.461c6.453,2.619,13.042,4.971,19.761,7.03
		l21.009-0.234l0-6.795H149.816z"/>
	<path fill-rule="evenodd" clip-rule="evenodd" d="M168.787,469.257c2.975,0.923,5.982,1.776,9.005,2.585h12.875l-0.082-2.585
		H168.787z"/>
	<path fill-rule="evenodd" clip-rule="evenodd" fill="#85A4FF" d="M478.828,216.212c-1.918-1.938-4.624-2.847-7.282-1.424
		c-11.441,6.124-21.553,8.892-21.553,8.892L407,242.425l-9.007,19.256l-10-18c0,0-10.875,0.218-36.604-8.275l4.604,14.275l-14,88
		l115.774-0.969l-5.774-95.031c0,0,12.627-4.537,26.305-13.391c0.526-0.34,0.973-0.72,1.36-1.124
		C479.463,223.491,479.185,219.84,478.828,216.212z"/>
	<path fill-rule="evenodd" clip-rule="evenodd" fill="#99B9D9" d="M457.767,336.712l-115.774,0.969l-9.808,82.525h23.347
		c0,0,5.652-61.341,48.414-57.409c15.192,1.397,24.754,8.689,30.774,17.51c9.08-12.58,16.972-26.072,23.509-40.317L457.767,336.712z
		"/>
	<path fill-rule="evenodd" clip-rule="evenodd" fill="#FFE1C9" d="M478.235,210.858c-2.238,1.431-4.487,2.749-6.689,3.927
		l6.75,13.499c0.456-0.296,0.916-0.611,1.375-0.916C479.382,221.812,478.895,216.309,478.235,210.858z"/>
</g>
</svg>
