<?xml version="1.0" encoding="utf-8"?>
<!-- Generator: Adobe Illustrator 17.0.0, SVG Export Plug-In . SVG Version: 6.00 Build 0)  -->
<!DOCTYPE svg PUBLIC "-//W3C//DTD SVG 1.1//EN" "http://www.w3.org/Graphics/SVG/1.1/DTD/svg11.dtd">
<svg version="1.1" id="Livello_1" xmlns="http://www.w3.org/2000/svg" xmlns:xlink="http://www.w3.org/1999/xlink" x="0px" y="0px"
	 width="480px" height="480px" viewBox="0 0 480 480" enable-background="new 0 0 480 480" xml:space="preserve">
<g>
	<g opacity="0.5">
		<path fill-rule="evenodd" clip-rule="evenodd" fill="#99B9D9" d="M480,240C480,372.548,372.548,480,240,480S0,372.548,0,240
			C0,107.451,107.452,0,240,0S480,107.451,480,240z"/>
	</g>
	<g>
		<ellipse fill="#DFB220" cx="86.411" cy="46.739" rx="26.203" ry="26.084"/>
		<ellipse fill="#FDC60C" cx="86.582" cy="46.739" rx="24.107" ry="23.998"/>
	</g>
	<g>
		<ellipse fill="#DFB220" cx="398.852" cy="84.978" rx="26.203" ry="26.084"/>
		<ellipse fill="#FDC60C" cx="399.023" cy="84.978" rx="24.107" ry="23.998"/>
	</g>
	<path fill-rule="evenodd" clip-rule="evenodd" fill="#8BC58A" d="M460.836,145.886c-7.873,0.41-17.972,0.557-35.721-0.276
		c-18.985,47.872,19.523,86.63,37.941,91.169c4.806,1.184,10.743,0.409,16.885-1.427
		C479.339,203.644,472.594,173.441,460.836,145.886z"/>
	<g>
		<path fill-rule="evenodd" clip-rule="evenodd" fill="#61AE62" d="M479.788,230.294c-4.969,1.361-9.886,1.859-14.042,0.75
			c-11.807-3.15-26.397-19.313-33.143-32.482c-5.578-10.887-10.722-27.768-3.81-46.639c19.563,1.376,26.383,1.019,33.598,0.641
			c0.382-0.02,0.767-0.04,1.154-0.06c-0.239-0.611-0.487-1.217-0.731-1.825c-0.172,0.009-0.348,0.018-0.52,0.027
			c-7.242,0.379-14.081,0.737-34.063-0.688c-0.315-0.022-0.612,0.116-0.799,0.355c-0.056,0.072-0.103,0.153-0.136,0.242
			c-7.514,19.771-2.161,37.447,3.652,48.795c9.017,17.601,24.531,30.82,34.32,33.432c4.38,1.169,9.471,0.713,14.594-0.637
			C479.84,231.567,479.814,230.931,479.788,230.294z"/>
		<path fill-rule="evenodd" clip-rule="evenodd" fill="#61AE62" d="M474.346,188.059c-0.426-1.933-0.876-3.856-1.349-5.771
			c-3.353-6.228-5.327-12.938-5.898-20.088c-0.65-1.897-1.324-3.783-2.019-5.658C464.815,169.503,468.757,179.866,474.346,188.059z"
			/>
	</g>
	<g>
		<ellipse fill="#DFB220" cx="98.539" cy="302.78" rx="26.203" ry="26.084"/>
		<ellipse fill="#FDC60C" cx="98.71" cy="302.78" rx="24.107" ry="23.998"/>
	</g>
	
		<ellipse transform="matrix(0.3701 0.929 -0.929 0.3701 465.9663 -299.4946)" fill="#61AE62" cx="453.842" cy="193.874" rx="11.539" ry="18.118"/>
	<g>
		<path fill="#8BC58A" d="M38.307,93.039c2.17-2.091,38.678,9.399,45.668,24.989s0.832,64.412-43.675,77.481
			c-14.287-20.172-20.117-26.099-26.688-33.416C55.445,137.192,36.137,95.129,38.307,93.039z"/>
		
			<ellipse transform="matrix(0.5042 -0.8636 0.8636 0.5042 -99.0489 124.1807)" fill="#61AE62" cx="58.63" cy="148.356" rx="10.393" ry="16.319"/>
		<path fill="#61AE62" d="M42.397,191.222c-0.274,0-0.537-0.135-0.695-0.37c-10.068-14.973-14.114-19.63-18.399-24.56
			c-0.761-0.876-1.532-1.762-2.346-2.718c-0.158-0.185-0.228-0.43-0.191-0.671c0.037-0.241,0.177-0.453,0.383-0.583
			c11.857-7.435,19.227-18.065,21.903-31.597c2.207-11.155,0.701-21.796-0.108-27.513c-0.542-3.83-0.671-4.961-0.066-5.575
			c0.327-0.332,0.846-0.486,1.633-0.486c5.262,0,29.838,8.323,35.442,21.491c3.574,8.396,2.793,26.737-4.701,42.897
			c-4.831,10.418-14.41,24.018-32.609,29.647C42.562,191.21,42.479,191.222,42.397,191.222z M22.858,163.219
			c0.584,0.68,1.15,1.33,1.71,1.975c4.269,4.912,8.304,9.555,18.174,24.204c17.227-5.557,26.357-18.569,30.992-28.564
			c5.607-12.091,8.99-31.409,4.679-41.536c-5.236-12.3-29.028-20.471-33.901-20.471c-0.161,0-0.278,0.009-0.361,0.019
			c-0.038,0.663,0.211,2.423,0.453,4.132C46.245,114.575,50.577,145.197,22.858,163.219z"/>
	</g>
	<g>
		<path fill="#8BC58A" d="M440.778,320.807c-1.074,2.815-39.001,7.949-51.96-3.186c-12.959-11.135-28.156-57.939,6.562-88.7
			c21.512,12.177,29.309,15.061,38.369,18.887C406.484,288.14,441.852,317.992,440.778,320.807z"/>
		
			<ellipse transform="matrix(-0.0889 0.996 -0.996 -0.0889 712.6086 -93.0319)" fill="#61AE62" cx="398.852" cy="279.391" rx="10.393" ry="16.319"/>
		<path fill="#61AE62" d="M395.306,233.691c0.248-0.116,0.543-0.107,0.787,0.039c15.482,9.268,21.125,11.76,27.099,14.399
			c1.061,0.469,2.136,0.943,3.279,1.462c0.222,0.1,0.389,0.292,0.458,0.526c0.069,0.234,0.033,0.486-0.099,0.69
			c-7.568,11.773-9.714,24.528-6.38,37.913c2.749,11.034,8.639,20.024,11.803,24.853c2.12,3.235,2.718,4.204,2.432,5.017
			c-0.155,0.439-0.559,0.8-1.271,1.135c-4.762,2.239-30.544,5.161-41.218-4.37c-6.806-6.078-13.902-23.009-13.996-40.821
			c-0.06-11.483,2.823-27.867,16.898-40.704C395.161,233.773,395.232,233.726,395.306,233.691z M424.903,250.722
			c-0.818-0.367-1.606-0.715-2.388-1.06c-5.953-2.63-11.58-5.115-26.744-14.172c-13.226,12.358-15.953,28.018-15.895,39.035
			c0.07,13.327,5.227,32.249,13.436,39.58c9.971,8.904,34.979,6.177,39.389,4.104c0.146-0.068,0.248-0.126,0.318-0.171
			c-0.247-0.616-1.222-2.103-2.168-3.547C424.432,304.694,407.484,278.825,424.903,250.722z"/>
	</g>
	<g>
		<g>
			<path fill="#402517" d="M187.994,85.121c0,0,3.176-63.509,10.716-67.267c7.54-3.759,10.298,26.578,12.94,25.568
				c2.642-1.01,1.393-22.035,6.123-23.921c4.729-1.887,14.182,19.312,15.906,19.017c1.724-0.295-1.134-10.302,2.725-11.665
				s15.757,15.11,22.458,17.596c6.701,2.486,94.09,8.694,90.25,85.4c-3.84,76.705-48.747,97.654-48.747,97.654l21.293-113.518
				L187.994,85.121z"/>
			<path fill="#FCDFC9" d="M189.394,84.978c0,0-29.347,29.36-30.132,46.813c0,0-14.411,0.308-15.808,10.891
				c-1.396,10.583,9.978,17.387,9.978,17.387s-11.04,78.981,76.227,86.944l11.119,18.997l10.758-18.497
				c0,0,34.292-5.699,49.867-20.987l4.897-26.325c0,0,17.959,8.152,23.366-12.355s-18.406-18.928-18.406-18.928l10.04-56.301
				L189.394,84.978z"/>
			
				<ellipse transform="matrix(0.9652 0.2615 -0.2615 0.9652 39.9537 -43.0781)" fill="#402517" cx="181.828" cy="128.573" rx="8.334" ry="13.777"/>
			
				<ellipse transform="matrix(0.9652 0.2615 -0.2615 0.9652 45.6914 -55.0391)" fill="#402517" cx="229.636" cy="144.15" rx="8.334" ry="13.777"/>
			<path fill="#402517" d="M172.885,171.369c0,0,19.793,10.443,45.643,9.279c0,0-11.548,25.031-30.092,18.627
				S172.885,171.369,172.885,171.369z"/>
		</g>
		<path fill="#EC7027" d="M332.22,233.305l-6.877-17.115c-13.72,6.54-25.952,9.124-25.952,9.124l-49.035,21.287l-9.433,18.497
			l-12.444-18.997c0,0-29.806-1.358-58.066-19.375l-10.063,13.034c17.132,11.136,31.557,15.568,31.557,15.568l-15.557,86.202
			l0.684,0.048l132.916,9.257l-4.869-104.851C305.08,245.985,317.567,241.323,332.22,233.305z"/>
		<g>
			<path fill="#FCDFC9" d="M132.88,184.917C104.69,126.748,144.097,62.54,144.097,62.54s22.666-11.606,22.341-16.048
				c-0.326-4.442-11.828,1.405-11.828,1.405s10.14-10.847,9.592-14.379c-0.548-3.532-17.707-14.244-22.42-13.133
				c-4.713,1.111-12.011,35.566-12.011,35.566S96.62,96.874,105.732,158.801c6.078,41.303,32.59,66.643,54.617,80.96l10.063-13.034
				C156.176,217.65,142.324,204.404,132.88,184.917z"/>
			<path fill="#FCDFC9" d="M379.816,113.914c-2.369,1.133-1.776,21.913-1.776,21.913s-3.91-11.246-8.116-9.395
				c-4.206,1.851,3.658,25.578,3.658,25.578s-2.314,20.095-19.833,42.836c-7.425,9.638-18.315,16.533-28.407,21.344l6.877,17.115
				c13.777-7.539,29.461-17.987,38.491-30.372c18.633-25.558,18.55-45.179,18.55-45.179s20.667-22.77,20.344-26.623
				C409.282,127.277,382.185,112.781,379.816,113.914z"/>
		</g>
	</g>
	<path fill="#0050A0" d="M176.349,341.531l133.601,9.305c0,0,27.086,23.863,24.055,62.373s-50.939,61.349-50.939,61.349
		l-13.978-26.361c0,0,29.376-14.325,29.714-36.733c0.338-22.408-33.672-43.072-58.555-44.468
		c-24.882-1.397-50.484,12.154-51.422,27.328c-0.938,15.174,16.513,26.509,16.513,26.509l-11.927,25.851
		c0,0-49.112-18.951-47.089-54.876S176.349,341.531,176.349,341.531z"/>
	<path fill-rule="evenodd" clip-rule="evenodd" fill="#8BC58A" d="M266.23,1.432c-3.556,3.697-7.957,7.231-13.403,10.472
		c6.571,7.318,12.401,13.245,26.688,33.416c19.649-5.769,31.815-18.509,38.683-32.28C301.623,7.331,284.225,3.389,266.23,1.432z"/>
	<path fill-rule="evenodd" clip-rule="evenodd" fill="#61AE62" d="M312.674,11.214c-4.714,9.916-13.81,22.543-30.717,27.996
		c-9.871-14.648-13.905-19.291-18.174-24.203c-0.56-0.644-1.126-1.295-1.71-1.975c4.924-3.202,8.821-6.805,11.917-10.625
		c-0.647-0.092-1.293-0.185-1.942-0.272c-3.224,3.794-7.117,7.136-11.683,9.999c-0.206,0.129-0.346,0.342-0.383,0.583
		c-0.037,0.24,0.033,0.485,0.191,0.67c0.814,0.956,1.585,1.842,2.346,2.718c4.284,4.93,8.331,9.586,18.399,24.56
		c0.159,0.236,0.422,0.37,0.695,0.37c0.083,0,0.166-0.012,0.248-0.037c17.979-5.561,27.536-18.896,32.423-29.262
		C313.746,11.561,313.212,11.384,312.674,11.214z"/>
	<path fill-rule="evenodd" clip-rule="evenodd" fill="#61AE62" d="M289.705,5.167c0.896,0.705,1.861,1.371,2.9,1.978
		c5.331,3.113,11.07,3.935,15.088,2.552C301.788,7.963,295.79,6.448,289.705,5.167z"/>
	<path fill-rule="evenodd" clip-rule="evenodd" d="M191.688,450.417c0,0-6.365,11.01-6.269,23.345
		c6.755,1.571,13.623,2.843,20.584,3.83l21.587-46.41l-22.252-10.35L191.688,450.417z"/>
	<path fill-rule="evenodd" clip-rule="evenodd" fill="#FFFFFF" d="M206.003,477.592c3.169,0.449,6.353,0.854,9.56,1.178
		l20.337-43.723l-8.31-3.865L206.003,477.592z"/>
	<path fill-rule="evenodd" clip-rule="evenodd" d="M215.564,478.77c1.075,0.109,2.157,0.193,3.236,0.287l19.872-42.722l-2.77-1.289
		L215.564,478.77z"/>
	<path fill-rule="evenodd" clip-rule="evenodd" d="M270.254,447.122l-22.252,10.35l10.162,21.847
		c8.613-0.645,17.096-1.751,25.432-3.281L270.254,447.122z"/>
	<path fill-rule="evenodd" clip-rule="evenodd" fill="#FFFFFF" d="M248.299,479.842c3.305-0.112,6.596-0.278,9.865-0.522
		l-10.162-21.847l-8.31,3.865L248.299,479.842z"/>
	<path fill-rule="evenodd" clip-rule="evenodd" d="M248.299,479.842l-8.607-18.504l-2.77,1.288l8.052,17.31
		C246.084,479.915,247.192,479.879,248.299,479.842z"/>
	<g>
		<circle fill-rule="evenodd" clip-rule="evenodd" fill="#922B00" cx="246.042" cy="276.292" r="2.424"/>
		<circle fill-rule="evenodd" clip-rule="evenodd" fill="#922B00" cx="252.411" cy="263.136" r="2.424"/>
	</g>
	<polygon fill-rule="evenodd" clip-rule="evenodd" fill="#922B00" points="263.5,259.833 250.355,246.601 279.332,234.022 	"/>
	<polygon fill-rule="evenodd" clip-rule="evenodd" fill="#922B00" points="220.667,259.833 228.478,246.101 196.355,239.187 	"/>
</g>
</svg>
