<?xml version="1.0" encoding="utf-8"?>
<!-- Generator: Adobe Illustrator 17.0.0, SVG Export Plug-In . SVG Version: 6.00 Build 0)  -->
<!DOCTYPE svg PUBLIC "-//W3C//DTD SVG 1.1//EN" "http://www.w3.org/Graphics/SVG/1.1/DTD/svg11.dtd">
<svg version="1.1" id="Livello_1" xmlns="http://www.w3.org/2000/svg" xmlns:xlink="http://www.w3.org/1999/xlink" x="0px" y="0px"
	 width="626.402px" height="583.2px" viewBox="-0.002 0 626.402 583.2" enable-background="new -0.002 0 626.402 583.2"
	 xml:space="preserve">
<g>
	<g>
		<polygon fill-rule="evenodd" clip-rule="evenodd" fill="#F6CFC3" points="454.089,475.156 454.089,473.4 203.399,473.4 
			203.399,475.156 164.699,475.156 164.699,583.2 303.21,583.2 303.21,519.161 349.379,519.161 349.379,583.2 487.889,583.2 
			487.889,475.156 		"/>
		<path fill-rule="evenodd" clip-rule="evenodd" fill="#CF6E57" d="M454.089,473.4H203.399v1.756l-38.7-15.256v15.256
			c35.506,39.592,83.901,84.652,138.51,93.583v-49.578h46.17v52.444c52.113-1.675,100.031-37.729,138.51-67.888v-28.561h-33.801
			V473.4z"/>
		<path fill="#F6CFC3" d="M571.585,259.066c-16.361-57.508-55.089-105.899-106.418-136.158c-3.279-15.97-6.206-42.441,1.777-60.028
			c1.413-3.117,1.268-6.713-0.388-9.703c-1.658-2.99-4.633-5.015-8.021-5.469c-30.114-4.024-75.335,28.556-93.396,42.786
			c-7.727-0.733-15.529-1.214-23.455-1.214c-120.749,0-220.478,87.097-236.296,200.079c-24.046-10.607-33.272-27.437-36.47-40.76
			c7.604,1.392,14.924,0.517,21.948-2.647c16.501-7.441,25.144-26.979,22.7-36.012c-1.746-6.444-6.37-18.072-17.766-23.493
			c-5.624-2.679-15.016-4.678-27.823,1.007c-8.593,3.818-15.314,13.046-19.045,24.943c-8.137-7.752-17.824-19.327-29.115-36.45
			c-3.285-4.978-9.972-6.354-14.963-3.074c-4.978,3.285-6.354,9.983-3.072,14.961c15.362,23.298,30.043,39.999,43.957,50.05
			c0.047,1.208,0.124,2.421,0.227,3.639c1.349,16.037,9.856,53.042,57.405,70.394c-0.115,2.954-0.231,5.907-0.231,8.888
			c0,127.868,106.801,231.525,238.545,231.525c97.809,0,181.823-57.159,218.639-138.916h35.295V259.066H571.585z M76.744,207.199
			c2.919-1.303,6.998-2.568,9.772-1.25c2.645,1.26,4.617,4.809,5.748,8.153c-0.96,3.206-5.155,11.28-12.843,13.02
			c-2.31,0.533-6.091,0.649-11.412-1.45C69.698,215.388,73.954,208.438,76.744,207.199z"/>
		<g>
			<ellipse fill="#CF6E57" cx="595.619" cy="336.241" rx="30.78" ry="77.174"/>
			<path fill="#CF6E57" d="M487.89,263.698c-5.964,0-10.8,4.836-10.8,10.8c0,19.58-15.868,35.506-35.372,35.506
				s-35.369-15.926-35.369-35.506c0-5.964-4.836-10.8-10.8-10.8s-10.8,4.836-10.8,10.8c0,31.488,25.555,57.106,56.969,57.106
				s56.972-25.618,56.972-57.106C498.69,268.534,493.854,263.698,487.89,263.698z"/>
			<path fill="#CF6E57" d="M372.415,126.937c-10.099-1.429-20.44-2.152-30.731-2.152c-48.761,0-94.893,15.752-133.407,45.552
				c-4.717,3.649-5.582,10.436-1.93,15.151c2.128,2.753,5.321,4.192,8.548,4.192c2.307,0,4.635-0.738,6.602-2.257
				c34.694-26.847,76.254-41.038,120.187-41.038c9.284,0,18.605,0.654,27.704,1.941c5.914,0.854,11.372-3.275,12.208-9.181
				C382.429,133.239,378.318,127.775,372.415,126.937z"/>
		</g>
		<path fill-rule="evenodd" clip-rule="evenodd" fill="#FFB100" d="M263.824,150.888c15.559-6.319,32.032-10.782,49.197-13.163
			c19.673-13.65,32.579-36.368,32.579-62.126c0-41.753-33.848-75.6-75.6-75.6C228.248,0,194.4,33.847,194.4,75.6
			C194.4,115.268,224.968,147.738,263.824,150.888z"/>
	</g>
</g>
</svg>
