<?xml version="1.0" encoding="utf-8"?>
<!-- Generator: Adobe Illustrator 17.0.0, SVG Export Plug-In . SVG Version: 6.00 Build 0)  -->
<!DOCTYPE svg PUBLIC "-//W3C//DTD SVG 1.1//EN" "http://www.w3.org/Graphics/SVG/1.1/DTD/svg11.dtd">
<svg version="1.1" id="Livello_1" xmlns="http://www.w3.org/2000/svg" xmlns:xlink="http://www.w3.org/1999/xlink" x="0px" y="0px"
	 width="480px" height="480px" viewBox="0 0 480 480" enable-background="new 0 0 480 480" xml:space="preserve">
<g>
	<g opacity="0.5">
		<path fill-rule="evenodd" clip-rule="evenodd" fill="#99B9D9" d="M480,240C480,372.548,372.548,480,240,480S0,372.548,0,240
			C0,107.451,107.452,0,240,0S480,107.451,480,240z"/>
	</g>
	<path fill="#99B9D9" d="M56.02,111.391C63.84,48.822,119.736,0,187.573,0c73.191,0,132.525,57.015,132.525,126.628
		c0,0.79-0.047,1.038-0.063,2.938h0.084v220.2H56.02V140.848v-11.281V111.391z"/>
	<path fill-rule="evenodd" clip-rule="evenodd" fill="#99B9D9" d="M320.098,126.628c0-62.294-47.515-114.492-109.953-124.781
		C154.358,8.769,104.517,34.839,67.386,73.273c-5.772,11.838-9.684,24.659-11.366,38.118v18.175v11.281V394.1
		c11.04,13.167,23.464,25.13,37.053,35.667H320.12v-300.2h-0.084C320.051,127.666,320.098,127.418,320.098,126.628z"/>
	<path fill-rule="evenodd" clip-rule="evenodd" d="M118.609,231.447c0,0-42.14-14.841-43.078-80.281
		c-0.295-20.587,5.526-38.639,19.581-52.868s57.025-19.876,62.659-21.539c5.633-1.663,10.687-14.489,15.665-15.665
		c4.977-1.176,1.864,11.504,1.958,11.748c4.551-0.547,7.85-11.008,13.707-13.707c5.857-2.699,3.489,19.581,3.916,19.581
		c4.497,0,8.719-21.974,15.665-21.539s1.958,54.826,1.958,54.826L118.609,231.447z"/>
	<path fill-rule="evenodd" clip-rule="evenodd" fill="#FFE1C9" d="M114.693,233.405l-3.916-31.329c0,0-18.844,9.523-19.581-9.79
		c-0.737-19.313,17.623-9.79,17.623-9.79l-9.79-48.952l111.611-21.539c0,0,9.64,10.494,15.665,21.539
		c5.716,10.479,7.832,21.539,7.832,21.539s11.365-5.002,13.707,7.832c2.341,12.835-9.79,11.748-9.79,11.748
		s10.481,62.267-52.868,70.491c-2.303,0.425-19.581,31.329-19.581,31.329L114.693,233.405z"/>
	<path fill-rule="evenodd" clip-rule="evenodd" fill="#FA701D" d="M103.166,338.193l5.653-93.04
		c-4.187,4.668-7.797,9.248-10.907,13.7l-9.781-6.879c5.752-8.152,13.146-16.457,22.646-24.444l43.078,19.581l7.832,11.923
		l9.79-11.923c0,0,27.233-3.855,51.485-14.991c8.422-3.867,17.647,6.377,9.067,10.578c-14.885,7.288-29.222,10.288-29.222,10.288
		l13.707,86.156L103.166,338.193z"/>
	
		<ellipse transform="matrix(0.9398 -0.3418 0.3418 0.9398 -43.9748 69.587)" fill-rule="evenodd" clip-rule="evenodd" fill="#402517" cx="175.489" cy="159.587" rx="7.997" ry="12.728"/>
	
		<ellipse transform="matrix(0.2143 0.9768 -0.9768 0.2143 315.713 -94.8409)" fill-rule="evenodd" clip-rule="evenodd" fill="#402517" cx="216.806" cy="148.816" rx="11.133" ry="7.832"/>
	<path fill-rule="evenodd" clip-rule="evenodd" fill="#402517" d="M206.723,190.327c-11.32,1.617-23.497,0-23.497,0
		s0.888,20.729,21.539,19.581s19.581-25.455,19.581-25.455S215.685,189.047,206.723,190.327z"/>
	<g>
		<circle fill-rule="evenodd" clip-rule="evenodd" fill="#922B00" cx="159.553" cy="271.467" r="2.193"/>
		<circle fill-rule="evenodd" clip-rule="evenodd" fill="#922B00" cx="154.41" cy="261.782" r="2.193"/>
	</g>
	<path fill-rule="evenodd" clip-rule="evenodd" fill="#FFE1C9" d="M283.004,137.163c-2.224-3.6-21.337-9.341-21.019-3.832
		c0.318,5.509,3.48,29.583,3.48,29.583s2.223,35.294-19.581,54.826c-6.438,5.767-14.503,10.505-22.926,14.373l9.068,10.58
		c8.582-4.201,17.345-9.821,23.648-17.12c19.791-22.916,21.539-58.742,21.539-58.742S285.228,140.762,283.004,137.163z"/>
	<path fill="#0050A0" d="M103.166,338.193l-11.2,78.723l23.8,0.232c0,0-1.772-49.568,40.093-53.417s47.399,56.206,47.399,56.206
		h22.858l-9.602-80.795L103.166,338.193z"/>
	<g>
		<path d="M226.115,419.937h-22.858v16.229h53.083C252.415,416.116,226.115,419.937,226.115,419.937z"/>
		<polygon fill="#FFFFFF" points="203.258,443.215 256.34,442.622 256.34,436.167 203.258,436.167 		"/>
		<polygon points="203.258,445.078 256.418,445.078 256.34,442.622 203.258,442.622 		"/>
	</g>
	<polygon fill-rule="evenodd" clip-rule="evenodd" fill="#922B00" points="142.285,261.346 153.854,247.112 122.063,232.661 	"/>
	<polygon fill-rule="evenodd" clip-rule="evenodd" fill="#922B00" points="178.752,261.346 171.477,247.112 198.099,241.169 	"/>
	<path fill-rule="evenodd" clip-rule="evenodd" fill="#FFE1C9" d="M455.917,135.112c-27.329-8.645-73.841-21.378-84.985-11.906
		c-16.031,13.626-20.573,38.742-20.573,38.742s-10.688-4.008-12.825,7.481s9.886,12.291,9.886,12.291s-6.192,69.469,70.056,64.125
		c-4.328,10.42,10.902,32.864,10.902,32.864l38.997-51.32l10.971-15.566C475.161,184.601,467.43,158.769,455.917,135.112z"/>
	<path fill-rule="evenodd" clip-rule="evenodd" fill="#FFE1C9" d="M265.525,164.98c0,0-11.844-10.996-7.815-15.966
		c4.029-4.97,14.25,13.6,14.25,13.6L265.525,164.98z"/>
	
		<ellipse transform="matrix(-0.3193 0.9476 -0.9476 -0.3193 634.093 -141.3732)" fill-rule="evenodd" clip-rule="evenodd" fill="#402517" cx="367.819" cy="157.039" rx="11.222" ry="6.933"/>
	
		<ellipse transform="matrix(0.2076 -0.9782 0.9782 0.2076 158.2354 528.9821)" fill-rule="evenodd" clip-rule="evenodd" fill="#402517" cx="405.625" cy="166.822" rx="11.967" ry="7.775"/>
	<path fill-rule="evenodd" clip-rule="evenodd" fill="#402517" d="M361.313,189.068c0,0-0.668,22.043,15.363,22.845
		c16.031,0.802,20.946-16.833,20.946-16.833s-13.465-0.134-20.267-0.864C370.553,193.485,361.313,189.068,361.313,189.068z"/>
	<circle fill="#FFFFFF" cx="434.991" cy="287.01" r="3.028"/>
	<circle fill="#FFFFFF" cx="431.81" cy="274.96" r="3.028"/>
	<circle fill="#FFFFFF" cx="443.587" cy="311.712" r="3.028"/>
	<circle fill="#FFFFFF" cx="438.911" cy="298.77" r="3.028"/>
	<circle fill="#FFFFFF" cx="449.645" cy="325.609" r="3.028"/>
	<path fill-rule="evenodd" clip-rule="evenodd" fill="#FFE1C9" d="M374.64,280.393c-8.095,6.72-17.992,12.721-29.343,15.381
		c-25.098,5.881-61.586-14.233-64.332-16.133c-1.368,1.968-29.863-8.154-30.366-13.423c-0.504-5.269,10.632-17.981,13.661-18.227
		c3.029-0.245,9.832,11.115,9.832,11.115s-5.064-10.966,0.481-12.446c5.545-1.48,10.138,21.015,10.138,21.015
		s32.582,21.325,56.817,15.252c8.785-2.201,16.592-7.047,23.147-12.622L374.64,280.393z"/>
	<path fill-rule="evenodd" clip-rule="evenodd" fill="#FFFFFF" d="M398.872,252.303c0,0-8.872,15.339-24.232,28.09l-9.965-10.087
		c13.953-11.865,22.241-27.033,22.241-27.033L398.872,252.303z"/>
	<path fill-rule="evenodd" clip-rule="evenodd" fill="#FFE1C9" d="M97.911,258.854c-17.41,24.921-19.167,45.851-18.716,55.916
		c0,0,10.543,6.07,9.831,9.276c-0.713,3.206-9.091-2.85-9.091-2.85s4.281,18.169,3.213,20.128s-17.278-3.741-18.169-6.947
		c-0.891-3.206,3.206-21.756,3.206-21.756s-2.247-29.193,19.945-60.646L97.911,258.854z"/>
	<path fill-rule="evenodd" clip-rule="evenodd" d="M79.277,418.228c6.501,5.866,13.327,11.377,20.443,16.512h16.005v-17.896
		l-23.76,0.074C91.965,416.917,85.901,416.382,79.277,418.228z"/>
	<path fill-rule="evenodd" clip-rule="evenodd" fill="#FFFFFF" d="M109.477,441.423h6.248v-6.683H99.72
		C102.915,437.044,106.167,439.274,109.477,441.423z"/>
	<path fill-rule="evenodd" clip-rule="evenodd" d="M112.982,443.651h2.743v-2.228h-6.248
		C110.637,442.176,111.807,442.916,112.982,443.651z"/>
	<g>
		<path fill-rule="evenodd" clip-rule="evenodd" fill="#FBB100" d="M422.668,84.349c-19.426-1.119-32.217,5.098-39.713,4.925
			c-7.748-0.178-21.642-6.68-21.909-18.703c-0.117-5.254,4.275-6.413,4.275-6.413s0,7.659,7.214,7.214
			c7.214-0.445,7.036-14.695-6.947-13.894c-6.758,0.387-11.934,6.858-11.756,14.695c0.437,19.233,25.383,25.917,25.383,25.917
			s3.028,4.631-10.955,4.275s-22.8-15.319-22.978-20.573c1.362,2.69,7.659,3.83,7.481-1.603c-0.178-5.433-2.761-8.016-7.481-8.016
			c-4.72,0-7.748,4.096-7.748,10.153c-0.002,13.537,11.373,36.967,33.398,40.88c15.407,2.737,60.768,10.796,86.639,15.393
			C448.381,118.916,436.603,100.687,422.668,84.349z"/>
		<path fill-rule="evenodd" clip-rule="evenodd" fill="#FBB100" d="M477.821,207.642c-5.034,2.612-11.771-1.875-11.771-1.875
			l-5.077,27.075c0,0,8.724-6.218,17.639-18.675C478.379,211.983,478.113,209.809,477.821,207.642z"/>
		<path fill-rule="evenodd" clip-rule="evenodd" fill="#FBB100" d="M473.698,185.158c-1.191-5.094-2.55-10.123-4.059-15.087
			l-3.588,15.39C466.051,185.461,469.748,184.64,473.698,185.158z"/>
	</g>
	<path fill-rule="evenodd" clip-rule="evenodd" fill="#FFFFFF" d="M479.847,248.157l-12.47-20.762l-37.397,16.982l-1.87,17.501
		l-10.635-16.031c0,0-13.25,0.992-30.583-2.577l4.864,104.628l66.838-8.688C471.278,311.305,478.765,280.543,479.847,248.157z"/>
	<path fill-rule="evenodd" clip-rule="evenodd" fill="#FFFFFF" d="M479.311,221.697c-7.358,2.991-11.936,5.693-11.936,5.693
		l5.761,13.529c0,0,2.558-1.543,6.832-3.576C479.909,232.087,479.7,226.867,479.311,221.697z"/>
	<path fill-rule="evenodd" clip-rule="evenodd" fill="#76ADDD" d="M391.724,347.35l-14.458,61.254l23.342,6.243
		c0,0,8.626-45.062,46.862-54.148c4.242-7.277,8.118-14.793,11.59-22.53C425.178,342.675,391.724,347.35,391.724,347.35z"/>
	<path fill-rule="evenodd" clip-rule="evenodd" d="M355.589,409.445c-7.009,4.052-12.125,12.246-12.125,12.246l40.03,10.705
		c5.488-4.1,10.784-8.44,15.895-12.984l1.221-4.565l-30.974-8.284C369.635,406.563,361.586,405.978,355.589,409.445z"/>
	<path fill-rule="evenodd" clip-rule="evenodd" fill="#FFFFFF" d="M343.463,421.69l-1.104,4.13l36.695,9.813
		c1.493-1.063,2.973-2.142,4.439-3.238L343.463,421.69z"/>
	<path fill-rule="evenodd" clip-rule="evenodd" d="M342.359,425.82l-0.552,2.065l34.948,9.346c0.766-0.532,1.539-1.057,2.299-1.598
		L342.359,425.82z"/>
	<circle fill="#FFB100" cx="264.69" cy="247.416" r="15.5"/>
</g>
</svg>
