<?xml version="1.0" encoding="utf-8"?>
<!-- Generator: Adobe Illustrator 17.0.0, SVG Export Plug-In . SVG Version: 6.00 Build 0)  -->
<!DOCTYPE svg PUBLIC "-//W3C//DTD SVG 1.1//EN" "http://www.w3.org/Graphics/SVG/1.1/DTD/svg11.dtd">
<svg version="1.1" id="Livello_1" xmlns="http://www.w3.org/2000/svg" xmlns:xlink="http://www.w3.org/1999/xlink" x="0px" y="0px"
	 width="480px" height="480px" viewBox="0 0 480 480" enable-background="new 0 0 480 480" xml:space="preserve">
<g>
	<path opacity="0.5" fill-rule="evenodd" clip-rule="evenodd" fill="#99B9D9" d="M240,0c132.548,0,240,107.452,240,240
		C480,372.548,372.548,480,240,480S0,372.548,0,240C0,107.451,107.452,0,240,0z"/>
	<path fill-rule="evenodd" clip-rule="evenodd" fill="#FBB100" d="M378.531,182.889c0,0-3.073-33.51,1.206-33.778
		c4.279-0.268,6.881,13.27,9.651,13.27c0.263,0-1.196-13.726,2.413-12.063c3.608,1.663,5.641,8.107,8.444,8.444
		c0.058-0.151-1.86-7.963,1.206-7.238s6.18,8.626,9.651,9.651s29.944,4.503,38.603,13.27c8.659,8.767,12.245,19.888,12.063,32.571
		c-0.578,40.317-26.54,49.46-26.54,49.46L378.531,182.889z"/>
	<path fill-rule="evenodd" clip-rule="evenodd" fill="#FFE1C9" d="M406.277,284.222c0,0-10.644-19.039-12.063-19.302
		c-39.028-5.067-32.571-43.428-32.571-43.428s-7.474,0.669-6.032-7.238c1.443-7.907,8.444-4.825,8.444-4.825
		s1.304-6.814,4.825-13.27c3.712-6.805,9.651-13.27,9.651-13.27l68.762,13.27l-6.032,30.159c0,0,11.311-5.867,10.857,6.032
		c-0.454,11.899-12.063,6.032-12.063,6.032l-2.413,19.302L406.277,284.222z"/>
	<path fill-rule="evenodd" clip-rule="evenodd" fill="#FFFFFF" d="M374.912,322.825l7.969-50.093c0,0-2.714,3.005-6.554,6.846
		l-6.717-4.658c6.661-6.813,12.588-13.691,12.588-13.691l20.46,4.899l6.032,10.857l4.825-10.857l26.54-12.063
		c0,0,6.099-1.67,13-5.364c4.214-2.256,8.634,5.191,4.073,8.144c-8.25,5.34-15.866,8.077-15.866,8.077l3.483,57.32L374.912,322.825z
		"/>
	
		<ellipse transform="matrix(-0.9398 -0.3418 0.3418 -0.9398 703.7496 548.402)" fill-rule="evenodd" clip-rule="evenodd" fill="#402517" cx="400.186" cy="212.204" rx="4.927" ry="7.841"/>
	
		<ellipse transform="matrix(-0.2143 0.9768 -0.9768 -0.2143 655.8159 -116.4154)" fill-rule="evenodd" clip-rule="evenodd" fill="#402517" cx="374.731" cy="205.568" rx="6.859" ry="4.825"/>
	<path fill-rule="evenodd" clip-rule="evenodd" fill="#402517" d="M380.944,231.143c6.974,0.996,14.476,0,14.476,0
		s-0.547,12.771-13.27,12.063c-12.723-0.707-12.063-15.682-12.063-15.682S375.422,230.354,380.944,231.143z"/>
	<path fill-rule="evenodd" clip-rule="evenodd" fill="#FFE1C9" d="M376.327,279.578c-6.121,6.122-15.103,14.368-20.513,15.95
		c-5.971,1.745-20.655-2.425-29.488-5.289c0,0-16.402,1.893-17.841,0.016c-1.439-1.877-0.714-10.735,1.873-12.063
		s17.386,7.032,17.386,7.032c8.672,2.074,21.537,4.597,26.402,2.694c3.517-1.375,9.759-7.162,15.465-12.997L376.327,279.578z"/>
	<g>
		<g>
			<polygon fill-rule="evenodd" clip-rule="evenodd" fill="#F6CFC3" points="333.935,268.086 333.935,267.819 295.751,267.819 
				295.751,268.086 289.856,268.086 289.856,284.543 310.954,284.543 310.954,274.789 317.986,274.789 317.986,284.543 
				339.084,284.543 339.084,268.086 			"/>
			<path fill-rule="evenodd" clip-rule="evenodd" fill="#CF6E57" d="M333.935,267.819h-38.184v0.267l-5.895-2.324v2.324
				c5.408,6.03,12.78,12.894,21.097,14.254v-7.552h7.032v7.988c7.938-0.255,15.236-5.747,21.097-10.34v-4.35h-5.148V267.819z"/>
			<path fill="#F6CFC3" d="M351.832,235.172c-2.492-8.759-8.391-16.13-16.209-20.739c-0.5-2.432-0.945-6.464,0.271-9.143
				c0.215-0.475,0.193-1.023-0.059-1.478c-0.253-0.455-0.706-0.764-1.222-0.833c-4.587-0.613-11.475,4.349-14.226,6.517
				c-1.177-0.112-2.365-0.185-3.573-0.185c-18.392,0-33.582,13.266-35.992,30.475c-3.663-1.616-5.068-4.179-5.555-6.208
				c1.158,0.212,2.273,0.079,3.343-0.403c2.513-1.133,3.83-4.109,3.457-5.485c-0.266-0.982-0.97-2.753-2.706-3.578
				c-0.857-0.408-2.287-0.712-4.238,0.153c-1.309,0.582-2.333,1.987-2.901,3.799c-1.239-1.181-2.715-2.944-4.435-5.552
				c-0.5-0.758-1.519-0.968-2.279-0.468c-0.758,0.5-0.968,1.521-0.468,2.279c2.34,3.549,4.576,6.092,6.695,7.623
				c0.007,0.184,0.019,0.369,0.035,0.554c0.206,2.443,1.501,8.079,8.744,10.722c-0.018,0.45-0.035,0.9-0.035,1.354
				c0,19.476,16.268,35.265,36.334,35.265c14.898,0,27.695-8.706,33.302-21.159h5.376v-23.51H351.832z M276.459,227.272
				c0.445-0.198,1.066-0.391,1.488-0.19c0.403,0.192,0.703,0.733,0.876,1.242c-0.146,0.488-0.785,1.718-1.956,1.983
				c-0.352,0.081-0.928,0.099-1.738-0.221C275.386,228.519,276.034,227.461,276.459,227.272z"/>
			<g>
				<ellipse fill="#CF6E57" cx="355.493" cy="246.927" rx="4.688" ry="11.755"/>
				<path fill="#CF6E57" d="M339.084,235.878c-0.908,0-1.645,0.737-1.645,1.645c0,2.982-2.417,5.408-5.388,5.408
					c-2.971,0-5.387-2.426-5.387-5.408c0-0.908-0.737-1.645-1.645-1.645s-1.645,0.737-1.645,1.645c0,4.796,3.892,8.698,8.677,8.698
					s8.678-3.902,8.678-8.698C340.729,236.614,339.992,235.878,339.084,235.878z"/>
				<path fill="#CF6E57" d="M321.495,215.047c-1.538-0.218-3.113-0.328-4.681-0.328c-7.427,0-14.454,2.399-20.32,6.938
					c-0.719,0.556-0.85,1.59-0.294,2.308c0.324,0.419,0.81,0.639,1.302,0.639c0.351,0,0.706-0.112,1.006-0.344
					c5.284-4.089,11.615-6.251,18.306-6.251c1.414,0,2.834,0.1,4.22,0.296c0.901,0.13,1.732-0.499,1.859-1.398
					C323.02,216.007,322.394,215.174,321.495,215.047z"/>
			</g>
			<path fill-rule="evenodd" clip-rule="evenodd" fill="#FDC60C" d="M304.955,218.695c2.37-0.962,4.879-1.642,7.494-2.005
				c2.996-2.079,4.962-5.539,4.962-9.463c0-6.36-5.156-11.515-11.515-11.515c-6.359,0-11.515,5.155-11.515,11.515
				C294.38,213.269,299.036,218.215,304.955,218.695z"/>
		</g>
	</g>
	<polygon fill="#99B9D9" points="427.254,259.877 420.578,272.338 413.515,266.127 	"/>
	<polygon fill="#99B9D9" points="402.658,266.127 396.75,274.069 384.768,261.844 	"/>
	<g>
		<path d="M367.645,373.293l14.845-0.047l0,11.473h-32.917C352.024,371.865,367.645,373.293,367.645,373.293z"/>
		<polygon fill="#FFFFFF" points="382.49,389.003 349.573,389.003 349.573,384.719 382.49,384.719 		"/>
		<rect x="349.573" y="389.003" width="32.917" height="1.428"/>
	</g>
	<path fill-rule="evenodd" clip-rule="evenodd" fill="#FFE1C9" d="M276.272,247.488c3.048-3.836,1.795-26.91-4.081-24.4
		s-30.858,15.408-30.858,15.408s-37.572,16.281-67.41,0.202c-1.909-1.029-3.795-2.159-5.655-3.377
		c-6.726-4.405-16.007,7.892-9.717,11.765c3.432,2.113,7.005,3.941,10.685,5.353c32.733,12.558,72.445,0.393,72.445,0.393
		S273.224,251.324,276.272,247.488z"/>
	<path fill-rule="evenodd" clip-rule="evenodd" d="M52.561,213.665c0,0-48.794-17.184-49.88-92.957
		C2.34,96.869,9.08,75.968,25.354,59.491s66.029-23.015,72.552-24.94c6.523-1.925,12.375-16.776,18.138-18.138
		c5.763-1.362,2.158,13.32,2.267,13.604c5.27-0.633,9.089-12.746,15.871-15.871c6.782-3.125,4.04,22.673,4.535,22.673
		c5.207,0,10.095-25.444,18.138-24.94c8.043,0.504,2.267,63.483,2.267,63.483L52.561,213.665z"/>
	<path fill-rule="evenodd" clip-rule="evenodd" fill="#FA701D" d="M168.269,235.321c-6.726-4.405-13.113-9.954-19.004-15.951
		l-7.963,14.032c5.141,4.98,10.96,9.811,17.25,13.683L168.269,235.321z"/>
	<path fill-rule="evenodd" clip-rule="evenodd" fill="#FFE1C9" d="M48.026,215.932l-4.535-36.276c0,0-21.819,11.026-22.673-11.336
		c-0.854-22.363,20.405-11.336,20.405-11.336l-11.336-56.681l129.233-24.94c0,0,11.162,12.151,18.138,24.94
		c6.618,12.133,9.069,24.94,9.069,24.94s13.16-5.792,15.871,9.069s-11.336,13.604-11.336,13.604s12.135,72.098-61.216,81.621
		c-2.667,0.493-22.673,36.276-22.673,36.276L48.026,215.932z"/>
	<path fill-rule="evenodd" clip-rule="evenodd" fill="#FA701D" d="M34.679,337.265l6.546-107.73
		c-4.848,5.405-9.028,10.708-12.629,15.863l-11.325-7.966c6.66-9.44,15.222-19.055,26.222-28.303l49.88,22.673l9.069,13.805
		l11.336-13.805l38.626-8.124l-2.35,14.926l15.871,99.759L34.679,337.265z"/>
	
		<ellipse transform="matrix(0.2143 0.9768 -0.9768 0.2143 245.8855 -69.6958)" fill-rule="evenodd" clip-rule="evenodd" fill="#402517" cx="166.263" cy="117.986" rx="12.891" ry="9.069"/>
	<path fill-rule="evenodd" clip-rule="evenodd" fill="#402517" d="M154.587,166.052c-13.107,1.872-27.207,0-27.207,0
		s1.028,24.002,24.94,22.673s22.673-29.474,22.673-29.474S164.965,164.57,154.587,166.052z"/>
	<g>
		<circle fill-rule="evenodd" clip-rule="evenodd" fill="#922B00" cx="99.97" cy="260.003" r="2.539"/>
		<circle fill-rule="evenodd" clip-rule="evenodd" fill="#922B00" cx="94.015" cy="248.789" r="2.539"/>
	</g>
	<g>
		<path d="M177.042,431.916h-26.467v18.792h61.464C207.494,427.491,177.042,431.916,177.042,431.916z"/>
		<polygon fill="#FFFFFF" points="150.575,458.869 212.04,458.183 212.04,450.708 150.575,450.708 		"/>
		<polygon points="150.575,461.026 212.13,461.026 212.04,458.183 150.575,458.183 		"/>
	</g>
	<polygon fill-rule="evenodd" clip-rule="evenodd" fill="#922B00" points="79.976,248.284 93.372,231.803 56.56,215.07 	"/>
	<polygon fill-rule="evenodd" clip-rule="evenodd" fill="#922B00" points="122.201,248.284 113.777,231.803 144.602,224.922 	"/>
	<g>
		<path fill="#F4F4F4" d="M276.597,205.099c0.076,1.005-0.23,1.967-0.436,2.922c-0.896,4.174-1.657,8.375-2.502,12.559
			c-1.088,5.387-2.204,10.77-3.288,16.159c-0.768,3.814-1.481,7.64-2.253,11.453c-0.893,4.42-1.84,8.83-2.736,13.25
			c-0.834,4.119-1.626,8.246-2.447,12.368c-0.439,2.21-0.9,4.415-1.352,6.623c-0.055,0.268-0.098,0.541-0.182,0.801
			c-0.717,2.228-1.632,2.934-3.933,2.569c-3.346-0.531-6.62-1.405-9.938-2.072c-1.778-0.357-3.547-0.744-5.297-1.217
			c-1.562-0.421-2.362-1.629-2.147-3.233c0.268-2,0.757-3.96,1.149-5.936c1.341-6.772,2.696-13.54,4.055-20.308
			c1.434-7.136,2.882-14.269,4.316-21.405c0.816-4.054,1.616-8.112,2.425-12.167c0.88-4.422,1.76-8.845,2.646-13.266
			c0.147-0.737,0.342-1.464,0.483-2.203c0.075-0.394,0.254-0.699,0.566-0.936c2.764,0.452,5.478,1.165,8.244,1.606
			c3.745,0.596,7.471,1.308,11.212,1.93C275.68,204.682,276.212,204.687,276.597,205.099z"/>
		<path fill="#F4F4F4" d="M266.408,170.143c1.111,0.588,2.366,0.593,3.553,0.866c1.99,0.457,4.003,0.815,6.005,1.224
			c0.226,0.046,0.488,0.039,0.632,0.283c-0.845,4.729-1.69,9.458-2.531,14.189c-0.346,1.948-0.679,3.898-1.036,5.843
			c-0.083,0.449-0.028,0.882,0.015,1.323c-0.737,0.231-1.394-0.159-2.081-0.284c-2.507-0.459-4.995-1.009-7.503-1.465
			c-0.329-0.06-0.683-0.071-0.943-0.336c0.759-2.598,1.075-5.283,1.585-7.93c0.528-2.749,1.089-5.493,1.479-8.268
			c0.219-1.554,0.477-3.101,0.805-4.633C266.444,170.68,266.454,170.414,266.408,170.143z"/>
		<path fill="#FFFFFF" d="M262.517,191.785c0.696-0.148,1.345,0.137,2.001,0.256c2.528,0.463,5.044,0.995,7.561,1.514
			c0.33,0.068,0.644,0.207,0.966,0.313c0.545,1.032,0.69,2.194,1.056,3.284c0.819,2.442,1.742,4.85,2.402,7.345
			c0.051,0.194,0.065,0.4,0.095,0.6c-4.499-0.754-9.002-1.484-13.495-2.272c-2.282-0.4-4.544-0.912-6.816-1.365
			c-0.26-0.052-0.431-0.186-0.561-0.401c0.655-1.233,1.503-2.337,2.327-3.459C259.5,195.632,260.94,193.658,262.517,191.785z"/>
		<path fill="#FFFFFF" d="M327.281,117.047c-0.986-6.398-3.31-12.294-6.631-17.795c-3.56-5.898-8.31-10.722-14.063-14.495
			c-10.216-6.7-21.408-9.181-33.522-7.487c-4.275,0.597-8.364,1.836-12.292,3.574c-8.588,3.802-15.493,9.646-20.629,17.509
			c-6.145,9.406-8.564,19.761-7.618,30.933c0.188,2.227,0.67,4.401,1.077,6.588c-0.006,0.577,0.035,1.141,0.2,1.709
			c0.628,2.173,1.398,4.295,2.289,6.374c0.272,0.635,0.599,1.223,1.086,1.716c0.089,0.146,0.189,0.286,0.266,0.437
			c3.458,6.787,8.243,12.447,14.368,16.981c3.766,2.788,7.87,4.925,12.269,6.514c0.191,0.068,0.421,0.215,0.577,0.162
			c0.675-0.23,1.185,0.172,1.749,0.375c0.286,0.42,0.697,0.609,1.189,0.697c1.371,0.248,2.727,0.562,4.099,0.8
			c1.635,0.284,3.235,0.763,4.901,0.873c0.336-0.275,0.711-0.303,1.141-0.283c4.191,0.192,8.338-0.145,12.433-1.074
			c0.498-0.315,1.124-0.074,1.627-0.375c3.384-0.793,6.626-2.011,9.712-3.582c10.452-5.317,18.055-13.372,22.616-24.176
			C327.644,134.698,328.662,126.012,327.281,117.047z M315.314,139.321c-3.648,8.643-9.731,15.087-18.093,19.341
			c-2.469,1.256-5.062,2.231-7.769,2.865c-0.402,0.24-0.903,0.048-1.301,0.3c-3.275,0.744-6.593,1.013-9.946,0.86
			c-0.344-0.016-0.644,0.006-0.913,0.226c-1.332-0.088-2.612-0.471-3.921-0.699c-1.097-0.19-2.183-0.442-3.279-0.64
			c-0.393-0.07-0.722-0.222-0.951-0.558c-0.451-0.162-0.86-0.484-1.4-0.3c-0.125,0.042-0.309-0.075-0.462-0.13
			c-3.519-1.271-6.802-2.981-9.815-5.211c-4.9-3.627-8.728-8.155-11.494-13.585c-0.061-0.12-0.141-0.233-0.212-0.349
			c-0.39-0.394-0.651-0.865-0.868-1.373c-0.713-1.663-1.329-3.36-1.831-5.099c-0.132-0.455-0.165-0.906-0.16-1.367
			c-0.326-1.75-0.712-3.489-0.862-5.27c-0.757-8.937,1.178-17.221,6.095-24.746c4.109-6.29,9.633-10.965,16.503-14.007
			c3.142-1.39,6.414-2.381,9.833-2.859c9.691-1.355,18.644,0.63,26.817,5.99c4.602,3.018,8.402,6.877,11.25,11.596
			c2.657,4.401,4.516,9.118,5.305,14.236C318.944,125.713,318.13,132.662,315.314,139.321z"/>
	</g>
	<path fill-rule="evenodd" clip-rule="evenodd" fill="#FFE1C9" d="M239.107,239.373c0,0,7.327-17.22,14.323-14.782
		c6.996,2.437-9.218,20.863-9.218,20.863L239.107,239.373z"/>
	<path fill-rule="evenodd" clip-rule="evenodd" fill="#0050A0" d="M34.679,337.265l-3.102,21.803
		c7.199,12.575,15.512,24.428,24.79,35.442c6.194-13.226,17.755-25.691,39.325-27.675c48.476-4.458,54.884,65.081,54.884,65.081
		h26.467l-11.118-93.552L34.679,337.265z"/>
	<g>
		<path fill-rule="evenodd" clip-rule="evenodd" fill="#FFE1C9" d="M1.53,267.086c1.217,10.831,3.147,21.445,5.756,31.791
			c1.34-13.076,6.299-31.994,21.309-53.478l-11.325-7.966C9.979,247.766,4.971,257.886,1.53,267.086z"/>
		<path fill-rule="evenodd" clip-rule="evenodd" fill="#FFE1C9" d="M18.307,320.884c0.489-2.198-3.593-5.559-7.004-7.935
			c0.892,2.798,1.831,5.575,2.822,8.327C16.155,322.127,17.97,322.399,18.307,320.884z"/>
	</g>
	<path fill-rule="evenodd" clip-rule="evenodd" fill="#FFE1C9" d="M477.099,202.632c0.139,2.392,0.352,4.384,0.352,4.384
		s-3.025-7.574-4.825-6.032c-1.8,1.543,3.619,14.476,3.619,14.476s-2.325,15.026-10.857,24.127
		c-3.606,3.846-8.119,6.855-12.333,9.111l4.071,8.142c4.562-2.953,9.318-6.698,13.087-11.222c4.412-5.294,7.453-11.657,9.501-17.267
		C479.299,219.649,478.418,211.068,477.099,202.632z"/>
	<path fill-rule="evenodd" clip-rule="evenodd" fill="#99B9D9" d="M444.744,322.241l-70.101,0.584l-6.973,50.663l14.845-0.047
		c0,0-1.107-31.777,25.049-34.245c26.157-2.468,29.614,36.032,29.614,36.032h1.11c3.892-5.696,7.54-11.569,10.94-17.603
		L444.744,322.241z"/>
	<path fill="#402517" d="M129.249,132.67c0.454-0.269,0.854-0.642,1.164-1.112c1.092-1.657,0.642-3.883-1.013-4.98
		c-0.329-0.218-8.138-5.328-16.232-4.907c-8.573,0.445-14.654,8.34-14.909,8.676c-1.201,1.584-0.891,3.843,0.694,5.044
		c1.585,1.202,3.843,0.888,5.044-0.694c0.036-0.047,4.339-5.563,9.545-5.836c5.695-0.296,11.827,3.683,11.888,3.722
		C126.617,133.365,128.101,133.351,129.249,132.67z"/>
	<g>
		<ellipse fill="#DFB220" cx="361.309" cy="113.249" rx="13.102" ry="13.042"/>
		<ellipse fill="#FDC60C" cx="361.395" cy="113.249" rx="12.053" ry="11.999"/>
	</g>
	<g>
		<ellipse fill="#DFB220" cx="449.228" cy="71.369" rx="13.102" ry="13.042"/>
		<ellipse fill="#FDC60C" cx="449.314" cy="71.369" rx="12.053" ry="11.999"/>
	</g>
	<g>
		<ellipse fill="#DFB220" cx="339.084" cy="322.825" rx="13.102" ry="13.042"/>
		<ellipse fill="#FDC60C" cx="339.169" cy="322.825" rx="12.053" ry="11.999"/>
	</g>
	<g>
		<path fill="#8BC58A" d="M337.257,136.399c1.085-1.045,19.339,4.7,22.834,12.494c3.495,7.795,0.416,32.206-21.837,38.74
			c-7.144-10.086-10.059-13.049-13.344-16.708C345.826,158.476,336.172,137.444,337.257,136.399z"/>
		
			<ellipse transform="matrix(0.5042 -0.8636 0.8636 0.5042 30.5628 381.3529)" fill="#61AE62" cx="347.419" cy="164.058" rx="5.197" ry="8.159"/>
		<path fill="#61AE62" d="M339.302,185.491c-0.137,0-0.268-0.067-0.348-0.185c-5.034-7.487-7.057-9.815-9.199-12.28
			c-0.38-0.438-0.766-0.881-1.173-1.359c-0.079-0.093-0.114-0.215-0.095-0.335c0.018-0.12,0.088-0.227,0.192-0.291
			c5.929-3.717,9.613-9.033,10.952-15.798c1.103-5.578,0.35-10.898-0.054-13.757c-0.271-1.915-0.336-2.481-0.033-2.788
			c0.164-0.166,0.423-0.243,0.817-0.243c2.631,0,14.919,4.162,17.721,10.745c1.787,4.198,1.396,13.368-2.35,21.448
			c-2.415,5.209-7.205,12.009-16.305,14.824C339.385,185.485,339.343,185.491,339.302,185.491z M329.532,171.489
			c0.292,0.34,0.575,0.665,0.855,0.987c2.134,2.456,4.152,4.778,9.087,12.102c8.614-2.779,13.178-9.284,15.496-14.282
			c2.803-6.045,4.495-15.704,2.339-20.768c-2.618-6.15-14.514-10.236-16.95-10.236c-0.081,0-0.139,0.004-0.18,0.01
			c-0.019,0.331,0.105,1.212,0.226,2.066C341.226,147.167,343.392,162.478,329.532,171.489z"/>
	</g>
	<g>
		<path fill="#8BC58A" d="M465.983,150.94c-0.537,1.408-19.501,3.974-25.98-1.593c-6.479-5.567-14.078-28.969,3.281-44.35
			c10.756,6.089,14.655,7.53,19.184,9.444C448.836,134.606,466.52,149.532,465.983,150.94z"/>
		
			<ellipse transform="matrix(-0.0889 0.996 -0.996 -0.0889 614.3149 -301.442)" fill="#61AE62" cx="445.02" cy="130.232" rx="5.197" ry="8.159"/>
		<path fill="#61AE62" d="M443.247,107.382c0.124-0.058,0.271-0.053,0.393,0.02c7.741,4.634,10.562,5.88,13.55,7.199
			c0.531,0.234,1.068,0.472,1.64,0.731c0.111,0.05,0.194,0.146,0.229,0.263c0.034,0.117,0.016,0.243-0.049,0.345
			c-3.784,5.886-4.857,12.264-3.19,18.957c1.374,5.517,4.319,10.012,5.901,12.427c1.06,1.618,1.359,2.102,1.216,2.509
			c-0.077,0.22-0.279,0.4-0.636,0.568c-2.381,1.119-15.272,2.581-20.609-2.185c-3.403-3.039-6.951-11.504-6.998-20.41
			c-0.03-5.742,1.411-13.933,8.449-20.352C443.175,107.423,443.21,107.399,443.247,107.382z M458.045,115.897
			c-0.409-0.183-0.803-0.357-1.194-0.53c-2.977-1.315-5.79-2.557-13.372-7.086c-6.613,6.179-7.976,14.009-7.947,19.518
			c0.035,6.664,2.613,16.124,6.718,19.79c4.986,4.452,17.49,3.088,19.694,2.052c0.073-0.034,0.124-0.063,0.159-0.086
			c-0.124-0.308-0.611-1.052-1.084-1.773C457.81,142.883,449.336,129.949,458.045,115.897z"/>
	</g>
	<g>
		<path fill="#8BC58A" d="M291.411,298.412c1.506-0.042,11.133,16.497,8.468,24.613c-2.665,8.116-21.379,24.09-42.231,13.936
			c1.51-12.267,1.351-16.421,1.385-21.338C282.88,320.503,289.905,298.454,291.411,298.412z"/>
		
			<ellipse transform="matrix(0.9543 -0.2989 0.2989 0.9543 -84.5395 98.6726)" fill="#61AE62" cx="280.299" cy="325.702" rx="5.197" ry="8.159"/>
		<path fill="#61AE62" d="M259.866,336.082c-0.101-0.092-0.153-0.23-0.132-0.371c1.32-8.925,1.392-12.008,1.468-15.273
			c0.014-0.58,0.027-1.167,0.048-1.794c0.004-0.122,0.061-0.236,0.155-0.312c0.095-0.077,0.218-0.108,0.338-0.086
			c6.886,1.244,13.189-0.205,18.735-4.305c4.572-3.381,7.598-7.821,9.223-10.207c1.089-1.598,1.422-2.06,1.853-2.083
			c0.233-0.013,0.477,0.105,0.768,0.37c1.945,1.772,8.227,13.123,5.866,19.877c-1.506,4.307-7.97,10.824-16.18,14.274
			c-5.293,2.225-13.413,4.027-22.036-0.02C259.931,336.134,259.896,336.11,259.866,336.082z M262.071,319.152
			c-0.013,0.448-0.023,0.879-0.033,1.306c-0.076,3.253-0.148,6.328-1.431,15.066c8.239,3.746,15.995,2.01,21.073-0.125
			c6.143-2.582,13.898-8.584,15.714-13.778c2.206-6.31-3.838-17.341-5.639-18.981c-0.06-0.054-0.106-0.09-0.14-0.114
			c-0.237,0.232-0.738,0.967-1.224,1.68C287.094,309.045,278.386,321.823,262.071,319.152z"/>
	</g>
</g>
</svg>
