<?xml version="1.0" encoding="utf-8"?>
<!-- Generator: Adobe Illustrator 17.0.0, SVG Export Plug-In . SVG Version: 6.00 Build 0)  -->
<!DOCTYPE svg PUBLIC "-//W3C//DTD SVG 1.1//EN" "http://www.w3.org/Graphics/SVG/1.1/DTD/svg11.dtd">
<svg version="1.1" id="Livello_1" xmlns="http://www.w3.org/2000/svg" xmlns:xlink="http://www.w3.org/1999/xlink" x="0px" y="0px"
	 width="626.398px" height="434.102px" viewBox="0 0 626.398 434.102" enable-background="new 0 0 626.398 434.102"
	 xml:space="preserve">
<g>
	<path fill="#F6CFC3" d="M45.739,237.885c0.048,1.209,0.123,2.421,0.228,3.639c1.35,16.038,9.855,53.043,57.405,70.395
		c-0.114,2.955-0.231,5.907-0.231,8.889c0,41.159,11.08,79.802,30.481,113.294h416.077c3.88-6.697,7.435-13.596,10.627-20.684
		h35.295v-154.35h-24.036c-16.362-57.507-55.089-105.9-106.419-136.158c-3.279-15.969-6.207-42.441,1.776-60.027
		c1.413-3.117,1.269-6.714-0.387-9.702c-1.659-2.991-4.632-5.016-8.022-5.469c-30.114-4.023-75.336,28.557-93.396,42.786
		c-7.728-0.732-15.528-1.215-23.454-1.215c-120.75,0-220.479,87.096-236.295,200.079c-24.045-10.608-33.273-27.438-36.471-40.761
		c7.605,1.392,14.925,0.516,21.948-2.646c16.5-7.44,25.216-21.419,23.701-36.012c-0.781-7.526-7.369-18.072-18.766-23.493
		c-5.625-2.679-15.015-4.677-27.822,1.008c-8.592,3.819-15.315,13.047-19.044,24.942c-8.136-7.752-17.823-19.326-29.115-36.45
		c-3.285-4.977-9.972-6.354-14.964-3.075c-4.977,3.285-6.354,9.984-3.072,14.961C17.146,211.134,31.825,227.835,45.739,237.885z
		 M86.515,205.95c16.483,9.003-4.684,25.836-18.507,19.725C69.7,215.391,77.498,202.453,86.515,205.95z"/>
	<g>
		<ellipse fill="#CF6E57" cx="595.618" cy="336.243" rx="30.78" ry="77.175"/>
		<path fill="#CF6E57" d="M487.891,263.7c-5.964,0-10.8,4.836-10.8,10.8c0,19.581-15.867,35.505-35.373,35.505
			c-19.506,0-35.37-15.927-35.37-35.505c0-5.964-4.836-10.8-10.8-10.8c-5.964,0-10.8,4.836-10.8,10.8
			c0,31.488,25.554,57.105,56.97,57.105c31.413,0,56.973-25.617,56.973-57.105C498.691,268.536,493.855,263.7,487.891,263.7z"/>
		<path fill="#CF6E57" d="M372.415,126.939c-10.098-1.428-20.439-2.151-30.732-2.151c-48.762,0-94.893,15.753-133.407,45.552
			c-4.716,3.648-5.583,10.437-1.929,15.15c2.127,2.754,5.322,4.191,8.547,4.191c2.307,0,4.635-0.738,6.603-2.256
			c34.695-26.847,76.254-41.037,120.186-41.037c9.285,0,18.606,0.654,27.705,1.941c5.913,0.855,11.373-3.276,12.207-9.18
			C382.429,133.242,378.319,127.779,372.415,126.939z"/>
	</g>
	<path fill="#FFB100" d="M263.824,150.891c15.558-6.318,32.031-10.782,49.197-13.164c19.674-13.65,32.58-36.369,32.58-62.127
		c0-41.754-33.849-75.6-75.6-75.6s-75.6,33.846-75.6,75.6C194.401,115.272,224.968,147.741,263.824,150.891z"/>
</g>
</svg>
