<?xml version="1.0" encoding="utf-8"?>
<!-- Generator: Adobe Illustrator 17.0.0, SVG Export Plug-In . SVG Version: 6.00 Build 0)  -->
<!DOCTYPE svg PUBLIC "-//W3C//DTD SVG 1.1//EN" "http://www.w3.org/Graphics/SVG/1.1/DTD/svg11.dtd">
<svg version="1.1" id="Livello_1" xmlns="http://www.w3.org/2000/svg" xmlns:xlink="http://www.w3.org/1999/xlink" x="0px" y="0px"
	 width="480px" height="480px" viewBox="0 0 480 480" enable-background="new 0 0 480 480" xml:space="preserve">
<g>
	<g opacity="0.5">
		<path fill-rule="evenodd" clip-rule="evenodd" fill="#99B9D9" d="M480,240C480,372.548,372.548,480,240,480S0,372.548,0,240
			C0,107.451,107.452,0,240,0S480,107.451,480,240z"/>
	</g>
	<g>
		<g>
			<path fill-rule="evenodd" clip-rule="evenodd" fill="#FCDFC9" d="M375.588,284.447c0,0-25.19-37.871-27.964-38.383
				c-76.277-9.903-59.271-84.217-59.271-84.217s-14.608,1.308-11.789-14.146s16.504-9.431,16.504-9.431s2.549-13.317,9.431-25.935
				c7.254-13.299,18.862-25.935,18.862-25.935l134.389,25.935l8.006,50.036l-5.899,33.427l-24.157,27.247L375.588,284.447z"/>
			
				<ellipse transform="matrix(-0.9398 -0.3418 0.3418 -0.9398 656.3579 403.0315)" fill-rule="evenodd" clip-rule="evenodd" fill="#402517" cx="363.684" cy="143.694" rx="9.629" ry="15.325"/>
			
				<ellipse transform="matrix(-0.2143 0.9768 -0.9768 -0.2143 508.8871 -147.9097)" fill-rule="evenodd" clip-rule="evenodd" fill="#402517" cx="313.934" cy="130.725" rx="13.405" ry="9.431"/>
			<path fill-rule="evenodd" clip-rule="evenodd" fill="#402517" d="M326.076,180.708c13.63,1.947,28.292,0,28.292,0
				s-1.069,24.96-25.935,23.577s-23.577-30.65-23.577-30.65S315.284,179.167,326.076,180.708z"/>
			<path fill-rule="evenodd" clip-rule="evenodd" fill="#FCDFC9" d="M278.775,260.636l-86.456-0.16c0,0-3.992,8.477-16.492,8.408
				s-19.101-11.869-18.973-18.654c0.128-6.786,8.72-18.495,20.447-18.213c11.727,0.282,16.872,8.238,16.872,8.238l85.023-0.027
				L278.775,260.636z"/>
			<path fill="#4881BB" d="M101.531,250.789c0.07,16.189,4.347,32.896,12.713,49.657c6.55,13.123,15.618,26.321,26.952,39.225
				c19.139,21.791,38.046,35.191,38.841,35.751c1.474,1.037,3.167,1.536,4.842,1.536c2.65,0,5.258-1.246,6.899-3.578
				c2.678-3.806,1.764-9.063-2.042-11.741c-0.037-0.026-0.846-0.601-2.261-1.675l0.429-223.814c1.89-1.574,3.004-2.441,3.092-2.508
				c3.69-2.836,4.383-8.126,1.547-11.816c-2.836-3.691-8.126-4.383-11.816-1.547c-0.808,0.621-20.008,15.471-39.393,38.712
				c-11.477,13.76-20.635,27.628-27.218,41.219C105.695,217.593,101.461,234.611,101.531,250.789z M118.384,250.717
				c-0.205-47.581,44.553-92.527,63.892-109.717l-0.411,214.531c-6.973-5.709-17.663-15.163-28.251-27.261
				c-10.316-11.786-18.518-23.74-24.38-35.531C122.093,278.377,118.443,264.238,118.384,250.717z"/>
			<polygon fill="#FFCF44" points="163.18,227.404 130.319,227.404 109.938,247.499 59.242,247.269 59.247,222.517 20,252.445 
				59.247,288.941 59.976,259.717 109.938,259.625 129.99,278.397 165.575,277.343 139.181,251.07 			"/>
			<path fill-rule="evenodd" clip-rule="evenodd" d="M453.088,117.272l-15.513,54.684c0,0,24.73-4.278,20.651,17.287
				c-4.078,21.566-21.862,8.493-21.862,8.493l-4.632,26.432c0,0,41.17-20.977,47.127-82.569s-42.58-94.466-87.956-100.335
				c-26.041-3.368-43.469,4.305-53.316,3.617s-27.136-9.773-26.76-25.053c0.165-6.677,5.821-7.886,5.821-7.886
				s-0.456,9.724,8.748,9.589c9.205-0.135,9.827-18.236-8.01-18.054c-8.621,0.088-15.592,7.994-15.833,17.954
				c-0.59,24.443,30.749,34.419,30.749,34.419s3.577,6.06-14.192,4.773c-17.769-1.287-28.095-20.809-28.008-27.491
				c1.573,3.497,9.517,5.319,9.614-1.588c0.097-6.908-3.035-10.341-9.04-10.623c-6.005-0.282-10.101,4.738-10.463,12.427
				c-0.809,17.186,12.267,47.61,40.055,53.893C348.058,93.525,453.088,117.272,453.088,117.272z"/>
			<path fill-rule="evenodd" clip-rule="evenodd" fill="#FCDFC9" d="M479.469,255.798c-5.381-1.481-10.853-2.427-15.894-3.024
				l0.434-22.09c4.965,0.394,10.366,1.077,15.876,2.185c0.069,2.369,0.114,4.745,0.114,7.131
				C480,245.309,479.809,250.574,479.469,255.798z"/>
			<path fill-rule="evenodd" clip-rule="evenodd" fill="#0050A0" d="M445.541,363.964c-9.181,15.189-19.997,29.278-32.205,42.024
				c-6.805-5.885-15.882-10.187-28.003-11.302c-50.41-4.635-57.073,67.677-57.073,67.677h-27.523l11.562-97.284L445.541,363.964z"/>
			<path fill-rule="evenodd" clip-rule="evenodd" d="M328.26,462.363v0.884c-19.856,7.856-41.01,13.136-63.052,15.437
				c6.808-20.477,35.529-16.321,35.529-16.321H328.26z"/>
			<path fill-rule="evenodd" clip-rule="evenodd" fill="#FA701D" d="M279.197,240.227l47.612-0.015
				c18.691,5.498,39.718,14.055,39.718,14.055l11.789,21.219l9.431-21.219l43.987-30.099c0,0,18.376,5.413,32.277,6.515
				l-0.434,22.09c-12.031-1.424-21.602-0.864-21.602-0.864l6.505,107.06c-0.959,1.678-1.938,3.343-2.937,4.995L312.3,365.079
				l6.343-104.369l-39.868-0.074L279.197,240.227z"/>
		</g>
		<g>
			<circle fill-rule="evenodd" clip-rule="evenodd" fill="#922B00" cx="373.094" cy="284.447" r="2.851"/>
			<circle fill-rule="evenodd" clip-rule="evenodd" fill="#922B00" cx="366.409" cy="271.857" r="2.851"/>
		</g>
		<polygon fill-rule="evenodd" clip-rule="evenodd" fill="#922B00" points="351.007,267.5 366.527,254.267 335.486,243.24 		"/>
		<polygon fill-rule="evenodd" clip-rule="evenodd" fill="#922B00" points="405.5,268.884 387.929,254.453 418.305,233.357 		"/>
	</g>
</g>
</svg>
