<?xml version="1.0" encoding="utf-8"?>
<!-- Generator: Adobe Illustrator 17.0.0, SVG Export Plug-In . SVG Version: 6.00 Build 0)  -->
<!DOCTYPE svg PUBLIC "-//W3C//DTD SVG 1.1//EN" "http://www.w3.org/Graphics/SVG/1.1/DTD/svg11.dtd">
<svg version="1.1" id="Livello_1" xmlns="http://www.w3.org/2000/svg" xmlns:xlink="http://www.w3.org/1999/xlink" x="0px" y="0px"
	 width="480px" height="480px" viewBox="0 0 480 480" enable-background="new 0 0 480 480" xml:space="preserve">
<g>
	<path opacity="0.5" fill-rule="evenodd" clip-rule="evenodd" fill="#99B9D9" d="M240,0c132.548,0,240,107.452,240,240
		C480,372.548,372.548,480,240,480S0,372.548,0,240C0,107.451,107.452,0,240,0z"/>
	<path fill="#FFE1C9" d="M115.261,227.478c0.387-0.048,0.778-0.096,1.395-0.173c-1.984-1.45-3.792-2.771-5.603-4.093
		c-3.939-2.874-7.693-5.984-11.398-9.149c-0.496-0.422-1.142-0.547-1.565-1.037c-0.224-1.155-0.278-2.32-0.23-3.491
		c0.269-6.688-0.528-13.341-0.698-20.013c-0.042-1.696-0.029-3.395,0.125-5.098c0.166-1.83-0.426-2.406-2.282-2.525
		c-1.987-0.125-3.936,0.394-5.958,0.131c-5.258-0.678-9.03-3.373-10.96-8.221c-2.448-6.144-2.362-12.323,1.328-18.019
		c3.357-5.181,10.554-6.925,16.067-4.179c1.866,0.928,2.122,0.848,1.997-1.267c-0.477-8.022,0.019-16.07-0.413-24.077
		c-0.541-10.074-0.627-20.144-0.614-30.221c0.006-3.706,0.877-4.499,4.538-4.643c6.963-0.272,13.923-0.541,20.88-0.973
		c3.037-0.189,6.083-0.224,9.126-0.378c8.829-0.445,17.658-0.95,26.49-1.36c6.374-0.294,12.755-0.573,19.133-0.838
		c6.432-0.269,12.874-0.426,19.299-0.934c2.685-0.211,5.386-0.256,8.074-0.355c8.253-0.304,16.49-0.874,24.739-1.197
		c2.627-0.102,5.267-0.192,7.894-0.397c0.634-0.048,1.296-0.224,1.798,0.368c-0.01,0.746,0.378,1.325,0.771,1.92
		c2.314,3.514,4.893,6.854,6.998,10.506c2.339,4.058,4.467,8.221,6.32,12.528c2.157,5.008,3.802,10.182,5.098,15.462
		c1.04,4.24,2.182,8.477,1.978,12.925c-0.086,1.875,0.365,2.214,2.294,2.211c0.762,0,1.523,0.006,2.285-0.019
		c3.264-0.112,5.437,1.462,6.72,4.371c0.829,1.882,1.248,3.888,1.699,5.882c0.749,3.309,0.09,6.47-0.922,9.622
		c-0.97,3.024-3.178,4.458-6.099,5.136c-1.155,0.269-2.307,0.304-3.478,0.314c-1.616,0.013-2.064,0.442-2.138,2.083
		c-0.061,1.341-0.205,2.672-0.31,4.006c-0.448,5.664-1.59,11.194-3.03,16.662c-1.238,4.698-2.96,9.226-4.982,13.654
		c-1.635,3.584-3.526,6.995-5.782,10.205c-1.376,1.958-2.938,3.773-4.477,5.61c-1.283,1.53-2.694,2.922-4.067,4.358
		c-1.619,1.699-3.43,3.174-5.226,4.672c-0.39,0.326-0.65,0.653-0.717,1.142c-0.106,0.115-0.227,0.205-0.365,0.278
		c-0.352,0.166-0.669,0.384-0.989,0.608c-0.426,0.262-0.81,0.579-1.216,0.87c-7.395,4.438-14.883,8.666-23.165,11.306
		c-6.509,2.074-13.146,3.405-19.962,3.875c-1.232-0.205-1.786,0.406-2.115,1.539c-2.054,7.098-4.806,13.971-6.864,21.069
		c-0.115,0.394-0.218,0.797-0.458,1.136c-0.496,0.707-1.021,0.733-1.526,0.019c-0.314-0.442-0.355-0.986-0.496-1.491
		c-1.994-7.117-4.65-14.026-6.531-21.178c-0.061-0.227-0.173-0.435-0.323-0.618c-0.774-0.787-1.782-0.813-2.778-0.832
		c-10.637-0.211-20.746-2.803-30.32-7.27c-5.766-2.691-11.296-5.904-16.669-9.347C116.873,228.061,115.648,228.656,115.261,227.478z
		"/>
	<path d="M238.419,85.347c-6.954,0.358-13.907,0.717-20.861,1.072c-7.014,0.355-14.026,0.714-21.04,1.053
		c-5.261,0.253-10.525,0.474-15.786,0.71c-5.203,0.234-10.406,0.451-15.61,0.701c-7.072,0.339-14.147,0.707-21.219,1.056
		c-7.13,0.352-14.262,0.714-21.395,1.05c-5.379,0.253-10.762,0.435-16.138,0.733c-2.106,0.115-4.208,0.224-6.314,0.269
		c-0.352,0.006-0.704,0.038-1.05,0.099c-1.45,0.256-1.92,0.726-1.987,2.211c-0.096,2.106-0.141,4.214-0.154,6.323
		c-0.045,7.149,0.189,14.291,0.525,21.427c0.17,3.574,0.192,7.146,0.17,10.717c-0.032,5.568,0.086,11.13,0.518,16.682
		c0.074,0.944-0.003,1.875-0.077,2.806c-0.08,1.024-0.458,1.226-1.36,0.669c-1.2-0.742-2.394-1.472-3.773-1.824
		c-5.494-1.405-11.994,1.693-14.23,7.062c-2.317,5.562-2.25,11.216,0.445,16.662c1.898,3.834,5.146,5.949,9.37,6.595
		c1.517,0.234,3.011,0.272,4.538,0.048c1.034-0.154,2.106-0.147,3.155-0.08c1.094,0.067,1.536,0.56,1.712,1.648
		c0.054,0.346,0.08,0.704,0.045,1.05c-0.528,5.158,0.029,10.294,0.333,15.434c0.25,4.214,0.256,8.432,0.246,12.653
		c0,0.336,0.064,0.726-0.397,0.858c-11.248-8.666-18.979-19.92-24.234-32.982c-2.032-5.05-3.933-10.16-5.331-15.421
		c-1.562-5.888-2.438-11.923-3.194-17.968c-0.154-1.219-0.285-2.445-0.499-3.654c-0.432-2.429-0.602-4.864-0.666-7.331
		c-0.125-4.688-0.157-9.373,0.144-14.054c0.314-4.909,0.87-9.792,1.446-14.678c0.931-7.952,3.68-15.338,6.678-22.64
		c3.565-8.678,7.744-17.046,13.232-24.71c7.626-10.65,17.437-18.678,29.05-24.653c7.68-3.952,15.594-7.174,24.083-8.893
		c4.835-0.979,9.718-1.501,14.643-1.629c4.864-0.128,9.731-0.125,14.576,0.378c4.31,0.448,8.579,1.184,12.848,1.917
		c10.634,1.824,20.906,4.918,31.05,8.56c6.691,2.4,13.629,3.728,20.813,3.638c9.757-0.122,17.03-4.381,21.942-12.755
		c1.907-3.248,3.181-6.765,4.314-10.342c0.394-1.248,0.256-2.435-0.208-3.603c-0.902-2.278-3.338-2.954-5.318-1.459
		c-0.653,0.493-1.251,1.062-1.824,1.648c-1.555,1.587-3.501,1.754-5.53,1.494c-1.27-0.16-2.925-2.25-3.062-3.702
		c-0.253-2.669,0.797-4.829,2.714-6.566c3.066-2.778,6.714-3.856,10.829-3.581c3.904,0.262,7.165,1.722,9.424,4.973
		c1.478,2.125,2.493,4.502,3.072,7.04c0.957,4.192,0.173,8.253-0.893,12.31c-2.214,8.445-7.28,14.822-14.262,19.827
		c-4.013,2.874-8.176,5.453-13.018,6.726c-2.275,0.598-4.582,0.941-6.934,0.934c-0.352,0-0.71-0.051-1.053,0.003
		c-0.595,0.096-0.778,0.576-0.381,1.002c0.237,0.253,0.547,0.435,0.835,0.637c4.442,3.142,9.434,4.97,14.774,5.632
		c6.445,0.8,12.272-0.688,17.126-5.344c5.066-4.858,9.629-10.07,12.736-16.432c0.198-0.406,0.528-0.774,0.483-1.398
		c-0.803,0.048-1.594,0.131-2.387,0.138c-2.906,0.026-4.714-1.866-4.56-4.746c0.186-3.507,2.595-5.984,6.25-6.064
		c3.248-0.07,6.23,0.877,8.634,3.238c1.37,1.347,2.038,2.966,2.083,4.87c0.109,4.57-1.152,8.781-3.302,12.768
		c-4.464,8.278-10.221,15.549-17.053,21.987c-5.488,5.174-11.53,9.587-18.243,13.024C246.275,83.03,242.473,84.56,238.419,85.347z"
		/>
	<path fill="#0050A0" d="M106.829,432.201c0.016-1.686,0-3.37,0.054-5.053c0.029-0.893-0.288-1.222-1.203-1.216
		c-3.194,0.022-6.368,0.518-9.565,0.32c-0.522-0.032-1.046-0.013-1.568-0.016c-0.573-0.317-0.749-0.864-0.851-1.453
		c-0.058-0.346-0.086-0.698-0.077-1.046c0.214-8.227-0.589-16.442-0.358-24.669c0.026-0.918-0.131-1.891,0.608-2.65
		c4.102,0.01,8.205,0.026,12.307,0.029c1.619,0,1.917-0.294,1.626-1.834c-0.31-1.635-0.291-3.248,0-4.877
		c0.051-0.288,0.07-0.586,0.061-0.877c-0.157-4.922,0.355-9.824,0.49-14.739c0.166-6.195,0.518-12.387,0.701-18.586
		c0.058-1.981,0.269-3.965,0.256-5.952c-0.24-0.816,0.346-1.318,0.752-1.853c3.229-4.234,6.07-8.723,8.986-13.171
		c0.65-0.992,0.653-1.443-0.566-1.853c-1.546-0.518-3.024-1.242-4.515-1.917c-0.57-0.256-1.526-0.438-1.405-1.098
		c0.15-0.819,1.146-0.566,1.811-0.621c0.522-0.045,1.05-0.07,1.581-0.096c6.97,0.102,13.936,0.224,20.893,0.614
		c0.234,0.013,0.467,0.045,0.701,0.035c6.563-0.214,13.117,0.262,19.674,0.432c11.424,0.291,22.848,0.419,34.266,0.234
		c7.379-0.122,14.762-0.461,22.134-0.253c8.022,0.224,16.045,0.317,24.07,0.33c0.784,0,1.683-0.15,2.195,0.739
		c0.637,1.053,0.432,2.278,0.598,3.408c0.403,2.714,0.496,5.469,0.842,8.192c0.506,3.974,0.259,7.955,0.294,11.933
		c0.026,2.598-0.608,5.107-1.158,7.613c-1.501,6.829-3.709,13.414-6.906,19.658c-1.907,3.728-4.47,6.998-6.976,10.317
		c-3.744,4.963-8.576,8.758-13.395,12.582c-7.51,5.962-16.173,9.59-25.126,12.669c-7.213,2.48-14.63,4.09-22.141,5.357
		c-4.493,0.758-8.998,1.44-13.523,1.946c-2.202,0.246-4.416,0.397-6.618,0.662c-1.446,0.176-1.533,0.262-1.629,1.683
		c-0.09,1.338-0.208,2.675-0.314,4.013c-0.394,0.544-0.995,0.598-1.574,0.602c-1.526,0.01-3.037,0.317-4.544,0.323
		c-7.194,0.019-14.365,0.659-21.555,0.797c-2.752,0.054-5.472-0.611-8.227-0.227C107.513,432.688,107.129,432.518,106.829,432.201z"
		/>
	<path fill="#FA701D" d="M239.885,331.101c-4.63-0.086-9.264-0.182-13.894-0.259c-8.502-0.144-17.002-0.509-25.504-0.227
		c-9.674,0.32-19.35,0.41-29.027,0.243c-11.61-0.198-23.216-0.493-34.822-0.784c-7.152-0.179-14.301-0.432-21.45-0.653
		c-0.918-0.154-1.843-0.17-2.755,0.006c-0.614,0.118-1.146,0.118-1.552-0.429c-0.189-0.368-0.205-0.758-0.141-1.158
		c0.173-1.306,0.986-1.968,2.16-2.48c2.474-1.082,3.066-4.045,0.851-5.421c-2.077-1.296-2.189-2.928-2.106-4.89
		c0.016-0.349-0.045-0.701-0.051-1.053c0.531-8.112,0.976-16.23,1.27-24.352c0.208-5.728,0.701-11.437,0.896-17.168
		c0.208-6.128,0.755-12.256,1.181-18.381c0.198-2.858,0.486-5.715,0.486-8.582c0-1.824-0.227-2.182-2.026-1.981
		c-4.608,0.522-9.248,0.006-13.846,0.573c-1.104,0.138-2.221,0.125-3.334,0.061c-2.234-0.176-2.522-0.323-2.755-2.522
		c-0.454-4.291-0.182-8.605-0.157-12.909c0.006-1.066,0.554-1.526,1.67-1.482c1.034,0.042,2.09,0.179,3.12-0.112
		c4.381-0.115,8.755-0.029,13.13,0.23c1.338,0.08,2.685,0.07,4.026,0.099c0.426,0.387,0.96,0.253,1.456,0.285
		c0.397,0.022,0.8-0.016,1.05,0.387c3.725,5.984,8.333,11.293,12.912,16.608c4.054,4.704,8.506,9.018,13.174,13.117
		c3.254,2.861,6.493,5.731,9.946,8.355c1.539,1.171,1.75,1.235,2.627-0.451c3.315-6.394,7.29-12.422,10.41-18.918
		c0.224-0.467,0.342-1.018,0.954-1.171c0.963,2.138,1.334,4.461,2.064,6.669c1.171,3.549,2.323,7.101,3.446,10.666
		c0.595,1.888,1.267,3.757,1.6,5.722c0.051,0.301,0.07,0.704,0.48,0.851c0.477-0.122,0.63-0.538,0.707-0.918
		c0.714-3.45,2.086-6.685,3.194-10.003c1.312-3.933,2.602-7.878,3.898-11.818c0.598-1.814,0.595-1.818,2.496-1.728
		c-1.475,0.886-1.123,2.061-0.694,3.405c1.642,5.162,4.269,9.888,6.461,14.806c0.429,0.963,0.899,1.91,1.267,2.896
		c0.384,1.024,0.909,1.206,1.837,0.541c2.243-1.603,4.368-3.357,6.445-5.158c4.602-3.99,9.104-8.096,13.27-12.544
		c5.648-6.029,11.139-12.192,15.632-19.165c0.32-0.496,0.698-0.941,1.149-1.322c0.106-0.013,0.208-0.01,0.314,0.01
		c0.317,0.368,0.752,0.266,1.146,0.256c7.526-0.17,15.066,0.288,22.586-0.352c0.518-0.045,1.046,0.045,1.568,0.074
		c1.139,1.459,0.806,3.248,0.928,4.87c0.256,3.488,0.099,6.995,0.074,10.496c-0.003,0.646-0.074,1.29-0.618,1.757
		c-4.333,0.086-8.666-0.176-13.002,0.038c-3.277,0.16-6.557,0.237-9.837,0.365c-1.098,0.042-1.146,0.064-1.037,1.267
		c0.227,2.563,0.518,5.12,0.758,7.68c0.234,2.502,0.454,5.008,0.65,7.517c0.598,7.638,1.178,15.28,1.779,22.918
		c0.71,9.043,1.328,18.096,2.189,27.123c0.573,6,0.848,12.022,1.517,18.01C240.073,330.771,239.945,330.941,239.885,331.101z"/>
	<path fill="#FFE1C9" d="M111.062,328.803c0.55,0.595,1.29,0.285,1.939,0.397c0.723,0.122,1.485-0.128,2.186,0.218
		c-0.794,0.038-1.587,0.077-2.381,0.118c-0.026,0.086-0.051,0.17-0.077,0.256c2.064,0.877,4.102,1.821,6.202,2.611
		c2.019,0.762,1.61,0.592,0.618,2.157c-3.245,5.12-6.627,10.15-10.243,15.021c-1.318,1.382-2.195,3.139-3.67,4.509
		c-1.645-1.501-3.152-2.966-4.736-4.352c-3.782-3.312-7.504-6.698-11.174-10.134c-2.483-2.323-4.851-4.768-7.235-7.194
		c-0.918-0.934-1.926-1.68-3.123-2.224c-5.542-2.515-11.117-4.973-16.592-7.629c-4.16-2.019-8.128-4.403-11.808-7.229
		c-1.574-1.21-3.197-2.371-4.662-3.702c-1.251-1.133-2.355-2.442-3.446-3.738c-1.354-1.61-2.64-3.274-3.93-4.934
		c-1.805-2.326-3.11-4.928-4.317-7.61c-1.155-2.573-2.214-5.168-2.829-7.917c-0.586-2.614-0.938-5.274-1.347-7.92
		c-0.243-1.574-0.298-3.139-0.298-4.717c-0.006-4.797,1.133-9.366,2.774-13.834c1.882-5.123,4.941-9.504,8.442-13.642
		c3.123-3.693,6.55-7.008,10.666-9.568c2.394-1.488,4.989-2.557,7.603-3.606c4.346-1.744,8.726-3.35,13.309-4.346
		c3.475-0.755,6.982-1.315,10.528-1.661c3.078-0.301,6.157-0.55,9.242-0.762c1.805-0.125,3.594-0.326,5.402-0.224
		c-1.062,0.486-2.189,0.186-3.28,0.237c-0.739,0.035-1.05,0.278-1.027,1.037c0.144,4.611-0.144,9.232,0.262,13.843
		c0.109,1.219,0.093,1.571,1.536,1.398c0.227-0.026,0.464,0.026,0.694,0.042c-0.458,1.123-1.469,0.704-2.266,0.758
		c-8.902,0.614-17.715,1.805-26.4,3.901c-5.674,1.37-10.045,4.771-13.677,9.101c-4.432,5.286-7.002,11.366-7.6,18.365
		c-0.781,9.152,2.118,16.787,8.438,23.309c6.739,6.95,14.835,11.766,23.706,15.434c2.544,1.053,5.168,1.99,7.549,3.357
		c3.04,1.741,6.186,0.915,9.277,0.771c4.618-0.214,9.222-0.739,13.843-0.89c1.539-0.051,2.32-0.419,2.179-2.086
		c-0.045-0.512-0.096-1.238,0.755-1.344c0,0.934,0.064,1.875-0.022,2.8c-0.077,0.816,0.134,1.206,0.941,1.574
		c2.211,1.002,2.982,2.896,2.323,5.008c-0.378,1.213-1.261,1.856-2.355,2.128c-1.101,0.275-1.683,0.861-1.866,1.933
		c-0.374-0.285-0.24-1.302-1.226-0.733c-0.458,0.266-1.107,0.198-1.69,0.33C109.123,327.974,110.275,328.019,111.062,328.803z"/>
	<path fill="#FBB100" d="M337.325,291.872c1.795,1.184,3.933,1.398,5.91,2.058c3.315,1.104,6.685,2.045,10.029,3.069
		c0.378,0.115,0.826,0.147,1.03,0.586c-2.214,7.917-4.429,15.834-6.637,23.754c-0.909,3.261-1.795,6.528-2.723,9.782
		c-0.214,0.752-0.192,1.498-0.192,2.256c-1.293,0.272-2.349-0.499-3.498-0.826c-4.195-1.194-8.342-2.538-12.541-3.725
		c-0.55-0.157-1.152-0.234-1.552-0.726c1.718-4.301,2.698-8.822,4-13.248c1.35-4.595,2.755-9.178,3.875-13.84
		c0.627-2.611,1.322-5.203,2.131-7.76C337.299,292.793,337.36,292.342,337.325,291.872z"/>
	<path fill="#FFE1C9" d="M287.069,228.125c0.589,2.557,0.938,5.162,1.571,7.715c0.803,3.245,1.872,6.397,2.912,9.562
		c-0.272-0.106-0.544-0.307-0.813-0.301c-2.854,0.067-5.715-0.294-8.563,0.198c-0.57,0.099-1.181,0.157-1.744,0.067
		c-2.845-0.454-5.68,0.125-8.522,0.045c-2.803-0.08-5.61-0.013-8.416,0.006c-2.154,0.016-4.314-0.115-6.448,0.291
		c0.25-4.374,0.118-8.746-0.074-13.114c-0.058-1.338-0.205-2.672-0.31-4.01c7.078-0.019,14.157-0.038,21.235-0.054
		c2.515-0.006,5.03,0.006,7.546-0.003C286.006,228.518,286.63,228.681,287.069,228.125z"/>
	<path fill="#F4A300" d="M327.149,328.099c1.21-0.138,2.269,0.454,3.366,0.765c4.23,1.203,8.429,2.522,12.63,3.818
		c0.55,0.17,1.062,0.458,1.594,0.691c0.758,1.846,0.816,3.85,1.261,5.766c0.995,4.294,2.173,8.547,2.886,12.906
		c0.054,0.339,0.045,0.691,0.064,1.037c-7.539-2.022-15.091-4.003-22.614-6.083c-3.821-1.056-7.59-2.298-11.386-3.443
		c-0.435-0.131-0.704-0.387-0.89-0.774c1.318-1.994,2.944-3.734,4.531-5.51C321.379,334.157,324.157,331.03,327.149,328.099z"/>
	<path fill="#A29A92" d="M377.638,297.497c0.893-0.509,1.869-0.397,2.832-0.371C379.577,297.651,378.601,297.536,377.638,297.497z"
		/>
	<path fill="#922B00" d="M167.785,245.689c-1.405,3.613-3.469,6.874-5.408,10.205c-1.382,2.371-2.685,4.787-4.019,7.187
		c-0.653,1.174-1.27,2.368-1.936,3.533c-0.858,1.504-0.915,1.552-2.301,0.442c-3.28-2.621-6.586-5.206-9.658-8.086
		c-3.152-2.954-6.515-5.69-9.456-8.861c-3.091-3.334-6.125-6.723-9.011-10.246c-2.48-3.027-5.021-5.994-7.104-9.318
		c-0.47-0.749-1.117-1.427-1.126-2.397c4.362,2.72,8.864,5.187,13.379,7.635c8.739,4.739,18.09,7.443,27.936,8.582
		c2.269,0.262,4.55,0.269,6.813,0.522C166.547,244.957,167.497,244.643,167.785,245.689z"/>
	<path fill="#922B00" d="M231.043,228.592c-1.264,2.861-3.248,5.251-5.133,7.696c-2.925,3.792-6.022,7.453-9.283,10.95
		c-3.267,3.507-6.576,6.998-10.275,10.083c-1.568,1.309-2.995,2.787-4.541,4.128c-2.726,2.368-5.44,4.755-8.634,6.707
		c-0.925-1.987-1.882-3.862-2.682-5.802c-0.758-1.846-1.68-3.61-2.563-5.392c-1.539-3.101-2.704-6.346-3.773-9.629
		c-0.528-1.616-0.49-1.632,1.229-2.006c0.102-0.022,0.189-0.128,0.282-0.195c5.344-0.605,10.662-1.299,15.856-2.806
		c6.595-1.91,12.989-4.262,18.941-7.734c2.778-1.619,5.594-3.174,8.39-4.755c0.477-0.061,0.88-0.234,1.114-0.688
		C230.272,228.845,230.521,228.454,231.043,228.592z"/>
	<path fill="#422719" d="M183.479,187.213c5.013,0.524,9.897,1.19,14.801,1.514c11.282,0.749,22.501,0.437,33.48-2.704
		c1.24-0.354,2.446-0.815,3.665-1.24c0.445-0.154,0.911-0.291,1.281,0.075c0.32,0.316,0.071,0.695-0.046,1.044
		c-1.772,5.3-4.098,10.346-7.309,14.914c-4.289,6.099-10.271,9.705-17.597,10.774c-4.197,0.612-8.337-0.187-12.114-2.317
		c-5.221-2.945-9.501-6.806-12.089-12.339c-1.319-2.82-2.966-5.487-3.91-8.478C183.525,188.099,183.313,187.766,183.479,187.213z"/>
	<path fill="#422719" d="M187.494,143.459c0.035,2.784-0.47,5.475-1.414,8.083c-1.613,4.451-5.955,5.738-9.734,2.861
		c-2.301-1.75-3.619-4.102-3.99-6.97c-0.458-3.51-0.4-7.018,0.346-10.477c0.554-2.563,1.901-4.646,4.224-5.984
		c2.272-1.309,4.71-0.989,6.589,0.835c1.558,1.51,2.419,3.434,3.101,5.437C187.289,139.251,187.539,141.344,187.494,143.459z"/>
	<path fill="#422719" d="M224.87,141.091c0.07-2.154-0.01-4.33,0.573-6.438c0.445-1.613,1.226-3.027,2.445-4.186
		c2.698-2.57,6.246-2.33,8.576,0.592c1.418,1.779,2.211,3.846,2.653,6.048c0.736,3.683,0.362,7.347-0.406,10.973
		c-0.31,1.462-1.162,2.662-2.246,3.696c-2.4,2.288-5.405,2.368-7.872,0.173c-2.403-2.138-3.597-4.854-3.718-8.051
		C224.841,142.963,224.87,142.025,224.87,141.091z"/>
	<path fill="#DD6737" d="M229.977,229.149c-0.16,0.979-0.227,1.021-1.114,0.688C229.152,229.472,229.529,229.254,229.977,229.149z"
		/>
	<path opacity="0.5" fill="#99B9D9" d="M111.062,328.803c-1.366-0.074-2.515-0.675-3.843-1.514c1.008-0.346,1.814-0.464,2.63-0.627
		c1.085-0.218,1.258,0.317,1.267,1.152C111.097,328.144,111.081,328.473,111.062,328.803z"/>
	<path fill="#F4A300" d="M449.718,211.411c-0.63-11.059-3.622-21.485-8.378-31.398c-5.098-10.63-12.397-19.626-21.578-26.995
		c-16.304-13.088-34.96-19.149-55.872-18.25c-7.379,0.317-14.547,1.757-21.523,4.074c-15.251,5.069-27.971,13.891-38.01,26.442
		c-12.01,15.014-17.827,32.256-18.048,51.44c-0.045,3.824,0.419,7.606,0.755,11.398c-0.106,0.982-0.128,1.949,0.061,2.944
		c0.714,3.805,1.677,7.546,2.854,11.232c0.358,1.126,0.819,2.182,1.568,3.101c0.128,0.262,0.275,0.518,0.381,0.787
		c4.778,12.128,12,22.554,21.69,31.28c5.958,5.366,12.598,9.68,19.83,13.107c0.314,0.147,0.682,0.435,0.957,0.371
		c1.187-0.282,1.99,0.486,2.918,0.925c0.419,0.762,1.088,1.152,1.91,1.382c2.294,0.646,4.554,1.405,6.851,2.035
		c2.739,0.752,5.386,1.83,8.205,2.291c0.618-0.413,1.261-0.4,1.99-0.294c7.107,1.014,14.227,1.12,21.354,0.208
		c0.899-0.454,1.926,0.058,2.832-0.371c5.894-0.797,11.616-2.339,17.13-4.509c18.675-7.344,32.947-19.818,42.486-37.472
		C447.443,241.536,450.601,226.909,449.718,211.411z M430.905,218.957c-0.202,6.195-1.392,12.189-3.261,18.032
		c-1.405,4.384-3.392,8.554-5.824,12.512c-3.584,5.837-7.811,11.098-13.046,15.523c-4.438,3.75-9.232,6.918-14.528,9.392
		c-6.426,3.002-13.139,4.87-20.128,5.814c-4.077,0.55-8.17,0.461-12.275,0.166c-5.347-0.384-10.541-1.504-15.619-3.12
		c-5.798-1.843-10.934-4.982-15.894-8.451c-3.616-2.528-6.915-5.402-9.926-8.618c-1.6-1.709-3.043-3.549-4.486-5.389
		c-0.435-0.659,0.128-0.928,0.534-0.97c3.376-0.323,6.762-0.403,10.106,0.243c0.723,0.141,1.213,0.896,1.744,1.44
		c2.006,2.061,4.157,3.971,6.47,5.677c3.411,2.512,7.085,4.086,11.498,4.224c3.805,0.118,7.61,0.147,11.414,0.237
		c2.867,0.067,5.728,0.627,8.595,0.333c7.114-0.726,14.307,0.23,21.395-1.014c0.634-0.112,1.274-0.186,1.904-0.336
		c5.123-1.216,7.373-4.912,5.99-9.994c-0.39-1.44-0.333-2.512,0.97-3.546c2.912-2.31,3.811-5.354,2.8-8.95
		c-0.736-2.618-0.723-2.666,1.546-4.118c1.411-0.906,2.362-2.192,2.637-3.795c0.419-2.442,0.451-4.886-0.742-7.213
		c-1.123-2.186-1.002-2.304,0.621-4.131c2.509-2.829,4.138-5.987,3.19-9.936c-1.024-4.266-4.528-7.142-9.062-7.168
		c-6.854-0.035-13.699-0.634-20.557-0.384c-0.291,0.01-0.586,0.003-0.88-0.003c-2.499-0.051-2.877-0.499-1.923-2.832
		c2.157-5.28,3.376-10.755,3.12-16.445c-0.192-4.259-0.534-8.531-1.939-12.637c-1.258-3.677-5.219-6.048-8.771-6.381
		c-2.534-0.237-5.597,1.811-6.637,4.157c-1.165,2.624-1.424,5.44-1.635,8.237c-0.666,8.781-4.678,15.718-11.085,21.626
		c-4.816,4.442-10.55,7.61-15.456,11.885c-2.07,1.805-4.266,3.498-6.029,5.632c-1.046,1.267-2.496,1.626-3.962,1.501
		c-5.677-0.49-11.36-0.221-17.04-0.323c-0.534-0.01-1.056-0.074-1.456-0.493c-0.269-1.754-0.067-3.514,0.026-5.258
		c0.294-5.558,0.976-11.078,2.749-16.378c1.933-5.773,4.41-11.296,7.811-16.397c3.536-5.306,7.725-9.994,12.65-14.016
		c7.168-5.856,15.21-10.016,24.192-12.374c6.682-1.754,13.446-2.557,20.33-2.048c4.838,0.358,9.651,1.066,14.288,2.557
		c5.907,1.901,11.555,4.336,16.787,7.77c6.602,4.33,12.208,9.654,16.787,16.035c4.01,5.59,7.104,11.68,9.149,18.278
		C430.195,204.499,431.142,211.625,430.905,218.957z"/>
	<path fill="#FFE1C9" d="M303.267,219.344c4.573,0.013,9.146,0.074,13.718,0.01c1.536-0.022,3.008,0.422,4.538,0.358
		c0.829-0.035,1.619-0.182,2.422-0.326c0.57-0.102,0.963-0.381,1.283-0.829c1.69-2.362,4.106-3.971,6.205-5.904
		c3.626-3.338,8.074-5.581,11.834-8.742c4.627-3.891,9.197-7.891,11.699-13.555c1.526-3.453,2.739-7.037,2.858-10.941
		c0.09-2.893,0.534-5.786,1.696-8.528c1.302-3.075,5.856-5.082,8.973-3.914c1.994,0.746,3.827,1.613,5.379,3.162
		c1.738,1.734,2.406,3.936,2.794,6.134c0.675,3.837,1.373,7.728,1.114,11.645c-0.256,3.882-0.323,7.821-2.019,11.478
		c-0.637,1.373-1.021,2.861-1.53,4.294c-0.368,1.034-0.272,1.229,0.864,1.235c3.341,0.022,6.685-0.022,10.026,0.013
		c4.326,0.045,8.659,0.211,12.973,0.429c7.67,0.384,11.149,8.227,8.339,13.798c-0.845,1.674-1.661,3.318-3.165,4.566
		c-1.126,0.934-1.13,1.258-0.349,2.486c1.558,2.448,1.578,5.155,1.19,7.821c-0.301,2.074-1.456,3.782-3.507,4.749
		c-1.51,0.71-1.626,1.075-1.005,2.608c1.338,3.315,0.611,6.298-1.453,9.037c-0.445,0.589-1.072,1.133-1.731,1.443
		c-0.89,0.413-0.826,0.992-0.637,1.712c0.31,1.181,0.752,2.314,0.73,3.587c-0.045,2.413-0.854,4.435-2.592,6.115
		c-0.739,0.717-1.59,1.194-2.566,1.45c-2.262,0.589-4.573,0.835-6.89,1.139c-3.453,0.451-6.896,0.266-10.342,0.275
		c-3.686,0.01-7.357,0.656-11.04,0.33c-4.733-0.419-9.485-0.074-14.208-0.394c-2.086-0.141-4.218,0.006-6.272-0.483
		c-3.907-0.931-7.152-3.072-10.192-5.613c-1.936-1.619-3.734-3.373-5.504-5.162c-0.442-0.445-0.931-0.63-1.558-0.653
		c-2.454-0.08-4.909,0.115-7.37-0.138c-0.576-0.061-1.715-0.346-2.054,0.781c-3.235-4.23-5.75-8.867-7.789-13.773
		c-2.566-6.179-4.16-12.595-4.65-19.274C303.414,220.963,303.149,220.169,303.267,219.344z"/>
	<path fill-rule="evenodd" clip-rule="evenodd" fill="#FBB100" d="M346.624,351.997c-6.269-1.674-12.499-3.498-18.781-5.126
		c-4.64-1.203-9.146-2.864-13.779-4.086c-0.57,0.352-0.925,0.842-1.117,1.501c-0.362,1.235-0.813,2.442-1.184,3.674
		c-2.234,7.386-4.458,14.774-6.682,22.163c-2.042,6.774-4.07,13.555-6.125,20.326c-3.613,11.92-7.248,23.834-10.861,35.754
		c-3.424,11.306-6.842,22.611-10.237,33.927c-0.992,3.302-2.147,6.56-2.931,9.923c-0.63,2.698,0.534,4.886,3.126,5.859
		c0.688,0.259,1.386,0.487,2.079,0.731c11.699-1.97,23.109-4.785,34.169-8.383c0.038-0.125,0.077-0.249,0.114-0.373
		c2.074-6.886,4.099-13.786,6.195-20.666c2.25-7.382,4.586-14.739,6.832-22.122c1.939-6.368,3.782-12.768,5.715-19.139
		c2.73-9.002,5.514-17.987,8.25-26.986c2.125-6.989,4.109-14.019,6.32-20.982c0.509-1.594,1.187-3.181,1.222-4.906
		C348.361,352.32,347.456,352.224,346.624,351.997z"/>
	<path fill-rule="evenodd" clip-rule="evenodd" fill="#FFFFFF" d="M73.853,395.331c-1.731,0.157-3.453,0.426-5.203,0.336
		c-3.13-0.157-6.285,0.317-9.402-0.323c-0.179-0.035-0.41,0.17-0.614,0.262c0.246,0.675,0.37,1.366,0.433,2.066
		c4.366,5.006,8.942,9.823,13.703,14.45c-0.017-4.694-0.036-9.387-0.046-14.081c-0.003-0.749-0.358-1.654,0.118-2.211
		c0.506-0.592,1.424-0.071,2.157-0.167c0.288-0.038,0.582-0.038,0.874-0.058C75.257,395.094,74.515,395.277,73.853,395.331z"/>
	<path fill-rule="evenodd" clip-rule="evenodd" d="M93.84,406.781c-0.064-3.456,0.016-6.912,0.029-10.368
		c-0.909-0.269-1.843-0.266-2.778-0.301c-5.072-0.16-10.144-0.339-15.216-0.509c-3.632-0.362-3.728-0.275-3.741,3.229
		c0,0.294,0,0.586,0,0.88c0,3.93,0,7.86,0,11.79c7.048,6.899,14.518,13.367,22.37,19.362c0.017-1.543,0.035-3.085,0.043-4.627
		c-0.106-0.634-0.304-1.267-0.301-1.901C94.269,418.48,93.949,412.634,93.84,406.781z"/>
	<path fill-rule="evenodd" clip-rule="evenodd" d="M183.984,449.11c-3.28-5.795-7.901-10.246-13.635-13.558
		c-5.155-2.979-10.621-4.765-16.688-4.454c-3.267,0.167-6.547,0.035-9.821,0.038c-3.219,0.016-6.416,0.493-9.638,0.416
		c-1.053-0.026-2.109,0-3.162,0.058c-5.904,0.323-11.811,0.614-17.725,0.55c-2.163-0.022-4.326-0.186-6.486,0.042
		c-0.266,1.619-0.282,3.251-0.314,4.886c-0.019,0.782-0.043,1.563-0.063,2.344c9.451,6.341,19.375,12.033,29.712,17.001
		c11.887-0.19,23.782-0.064,35.672,0.286c4.275,0.125,8.557,0.083,12.832,0.006c1.187-0.019,2.557-0.086,2.368-1.923
		C186.227,452.793,185.043,450.985,183.984,449.11z"/>
	<path fill-rule="evenodd" clip-rule="evenodd" fill="#FFFFFF" d="M187.328,455.706c0.096-0.371,0.09-0.691-0.291-0.899
		c-0.346,1.27-0.429,1.389-1.754,1.408c-2.163,0.032-4.33-0.01-6.493-0.016c-6.896-0.022-13.789-0.32-20.682-0.32
		c-7.698-0.002-15.397-0.136-23.098-0.011c13.264,6.463,27.214,11.732,41.709,15.685c0.033,0,0.066,0,0.099,0
		c3.046,0.003,6.067-0.525,9.12-0.39c0.531,0.022,1.05-0.102,1.472-0.474c0.01-3.094,0.022-6.189,0.022-9.283
		c0-0.464,0.032-0.954-0.086-1.392C186.957,458.57,186.957,457.142,187.328,455.706z"/>
	<path fill-rule="evenodd" clip-rule="evenodd" d="M184.605,470.739c-3.51,0.032-7.02,0.061-10.53,0.09
		c3.861,1.101,7.761,2.109,11.699,3.019c1.68-0.049,1.672-0.537,1.631-3.157C186.473,470.707,185.539,470.729,184.605,470.739z"/>
	<g>
		<circle fill-rule="evenodd" clip-rule="evenodd" fill="#922B00" cx="171.892" cy="278.784" r="2.77"/>
		<circle fill-rule="evenodd" clip-rule="evenodd" fill="#922B00" cx="165.396" cy="266.551" r="2.77"/>
	</g>
</g>
</svg>
