<?xml version="1.0" encoding="utf-8"?>
<!-- Generator: Adobe Illustrator 17.0.0, SVG Export Plug-In . SVG Version: 6.00 Build 0)  -->
<!DOCTYPE svg PUBLIC "-//W3C//DTD SVG 1.1//EN" "http://www.w3.org/Graphics/SVG/1.1/DTD/svg11.dtd">
<svg version="1.1" id="Livello_1" xmlns="http://www.w3.org/2000/svg" xmlns:xlink="http://www.w3.org/1999/xlink" x="0px" y="0px"
	 width="480px" height="480px" viewBox="0 0 480 480" enable-background="new 0 0 480 480" xml:space="preserve">
<g>
	<path opacity="0.5" fill-rule="evenodd" clip-rule="evenodd" fill="#99B9D9" d="M240,0c132.548,0,240,107.452,240,240
		C480,372.548,372.548,480,240,480S0,372.548,0,240C0,107.451,107.452,0,240,0z"/>
	<path fill="#EC6D3C" d="M331.456,280.141c-7.952,6.85-16.823,12.337-25.978,17.374c-2.033,1.119-2.392,2.439-2.14,4.512
		c0.652,5.365,1.981,10.597,2.952,15.898c2.975,16.255,5.902,32.521,9.109,48.729c1.981,10.005,3.721,20.045,5.307,30.114
		c0.238,1.505,0.452,3.019,0.273,4.55c-1.406,0.969-3.002,1.299-4.672,1.363c-0.589,0.023-1.174,0.055-1.763,0.049
		c-30.801-0.394-61.599,1.627-92.38,0.539c-14.439-0.51-28.919,0.334-43.32-1.256c-1.279-0.142-2.613-0.061-3.599-1.122
		c-0.255-3.164,0.139-6.31,0.464-9.434c1.726-16.539,3.628-33.06,5.345-49.602c0.882-8.503,1.488-17.032,2.247-25.549
		c0.186-2.103,0.4-4.208,0.742-6.287c0.287-1.749-0.133-2.778-1.937-3.46c-8.72-3.289-16.446-8.459-24.392-13.201
		c-0.899-0.536-1.694-1.247-2.535-1.879c-0.763-1.035-0.319-2.045,0.238-2.906c2.967-4.591,5.603-9.384,8.674-13.905
		c0.397-0.586,0.879-1.087,1.638-1.192c1.131,0,2.007,0.632,2.871,1.233c8.575,5.959,17.948,10.234,27.904,13.302
		c1.343,0.415,2.72,0.786,3.863,1.673c5.287,7.624,9.904,15.669,14.607,23.655c1.885,3.199,2.311,3.242,4.443,0.171
		c3.083-4.437,5.829-9.094,8.857-13.566c1.189-1.757,2.172-3.216-0.861-4.008c-0.47-0.122-0.51-0.713-0.171-1.169
		c3.932-1.079,4.727-0.766,6.345,2.656c2.097,4.437,3.724,9.086,6.015,13.436c0.528,1.003,0.766,2.227,2.253,3.074
		c1.691-4.527,2.645-9.193,4.318-13.607c0.444-1.169,0.418-2.587,1.685-3.344c1.714,0.119,2.201,1.63,2.929,2.746
		c3.335,5.116,7.033,9.979,10.35,15.103c0.992,1.531,1.952,2.439,3.303,0.255c5.916-9.579,12.638-18.653,17.98-28.597
		c0.502-0.937,0.954-1.879,1.25-2.9c3.112-3.712,7.662-5.438,11.417-8.262c4.64-2.958,9.057-6.209,13.091-9.961
		c1.024-0.954,1.934-2.044,3.245-2.645c1.03-0.409,2.088-0.768,2.958-1.502c1.491-0.916,2.604-2.645,4.724-2.227
		c3.55,6.171,7.67,11.971,11.545,17.934C331.27,277.885,332.068,278.85,331.456,280.141z"/>
	<path fill="#FBB100" d="M123.387,80.531c-4.828-1.238-9.843-1.557-14.63-2.996c-1.027-1.169-1.038-2.549-0.716-3.941
		c5.24-22.663,8.123-45.803,13.876-68.359c0.429-1.688,0.632-3.529,2.279-4.605c0.629-0.412,1.346-0.287,2.024-0.009
		c28.875,5.699,57.759,11.371,86.629,17.104c27.486,5.458,54.958,10.982,82.435,16.478c1.955,0.391,3.909,0.783,5.864,1.174
		c1.221,1.23,0.624,2.665,0.371,3.999c-4.417,23.212-9.611,46.267-14.111,69.461c-0.226,1.172-0.513,2.305-1.595,3.025
		c-4.443,0.78-8.601-0.902-12.803-1.717c-28.739-5.585-57.461-11.269-86.249-16.591c-1.499-0.278-3.019-0.513-4.402-1.209
		c-1.815-1.653-0.783-3.21,0.284-4.637c1.102-1.473,2.659-1.847,4.417-1.259c1.259,0.421,2.236,1.27,3.228,2.105
		c1.244,1.047,2.633,1.908,4.028,0.441c1.322-1.392,0.551-2.83-0.389-4.141c-4.675-6.522-14.439-5.469-17.884,1.929
		c-0.589,1.264-0.702,2.758-1.83,3.764c-1.534,0.391-3.016-0.023-4.512-0.276c-13.787-2.659-27.475-5.809-41.322-8.152
		C126.617,81.819,125.06,81.024,123.387,80.531z"/>
	<path fill="#FCDFC9" d="M123.387,80.531c6.89,0.525,13.601,2.123,20.355,3.454c8.248,1.627,16.489,3.289,24.731,4.953
		c0.554,0.113,1.076,0.397,1.612,0.6c-4.208,2.201-6.618,6.58-10.797,8.857c-1.963,1.07-3.816,2.598-6.032,2.772
		c-5.475,0.429-8.552,4.19-11.336,8.059c-9.222,12.815-16.217,26.848-19.262,42.34c-3.518,17.899-5.69,36.053-0.418,54.071
		c5.887,20.111,13.595,39.257,29.032,54.369c3.866,3.784,7.499,7.717,12.107,10.634c1.105,0.702,2.569,1.38,2.358,3.173
		c-3.436,5.435-6.882,10.863-10.292,16.315c-0.226,0.363-0.18,0.896-0.261,1.351c-3.697-3.41-7.917-6.168-11.661-9.55
		c-5.58-5.04-11.087-10.115-15.637-16.127c-6.458-8.532-11.878-17.681-16.576-27.298c-4.188-8.572-7.177-17.539-9.819-26.671
		c-2.071-7.151-3.115-14.396-2.799-21.82c0.078-1.807-0.963-3.468-0.647-5.203c0.658-3.599,0.383-7.247,0.769-10.843
		c0.748-6.96,1.717-13.891,3.341-20.723c2.743-11.522,5.977-22.832,11.594-33.385c2.361-4.437,4.228-9.155,6.887-13.447
		c2.462-3.976,4.741-8.082,7.804-11.661c1.087-1.27,1.346-2.401,0.206-4.031c-1.531-2.192-2.706-4.669-3.445-7.293
		C124.877,82.28,124.376,81.256,123.387,80.531z"/>
	<path fill="#FCDFC9" d="M331.456,280.141c-1.464-3.344-3.877-6.084-5.812-9.129c-2.43-3.831-5.322-7.392-6.812-11.765
		c-0.557-2.216,1.235-3.268,2.488-4.237c8.659-6.684,13.685-15.996,18.592-25.381c4.672-8.935,6.078-18.737,6.882-28.608
		c0.374-4.573,1.421-9.051,1.511-13.659c0.307-16.04-4.585-30.807-10.956-45.208c-1.853-4.188-3.581-8.439-5.971-12.383
		c-1.166-1.926-2.604-3.207-4.814-3.782c-3.79-0.98-7.189-2.883-10.57-4.802c-1.473-0.835-2.767-1.81-2.973-3.668
		c0.319-0.969,1.198-0.998,1.987-1.166c9.335-2.01,17.18-6.809,24.044-13.236c5.22-4.887,10.275-9.964,14.5-15.785
		c0.473-0.652,0.957-1.369,1.934-1.319c-0.119,2.685,0.249,5.307,0.603,7.972c0.858,6.49-0.583,12.641-4.309,18.058
		c-1.059,1.537-1.096,2.59-0.247,4.095c4.559,8.068,8.912,16.278,12.018,25.004c2.624,7.375,4.449,15.022,6.197,22.681
		c2.593,11.362,2.346,22.864,1.928,34.321c-0.357,9.805-2.103,19.465-5.197,28.89c-1.752,5.333-3.019,10.843-5.234,16.023
		c-3.712,8.671-8.018,16.968-15.005,23.591C341.394,271.241,336.998,276.316,331.456,280.141z"/>
	<path fill="#EC788F" d="M355.483,86.015c-8.749,11.742-18.441,22.42-32.126,28.626c-3.219,1.459-6.479,2.703-10.089,2.639
		c-3.341,1.032-6.389,0.075-9.37-1.36c-0.861-1.346-0.333-2.717-0.081-4.089c4.054-22.04,8.752-43.952,13.009-65.952
		c0.458-2.366,0.363-4.953,2.123-6.943c4.452,0.316,8.775,1.43,13.149,2.213c6.917,1.235,13.795,2.703,20.686,4.08
		c1.148,0.229,2.311,0.435,3.428,0.774c4.037,1.227,6.102,4.802,5.409,9.016c-1.578,9.593-3.674,19.079-5.785,28.565
		C355.656,84.379,355.599,85.203,355.483,86.015z"/>
	<path fill="#FFEDC8" d="M126.22,0.622c-1.868-0.287-2.433,0.89-2.775,2.404c-1.16,5.15-2.479,10.266-3.506,15.442
		c-3.355,16.919-6.644,33.852-9.863,50.799c-0.519,2.735-1.899,5.353-1.317,8.268c-7.404-5.806-14.851-11.557-22.185-17.449
		c-2.172-1.746-4.202-3.686-6.287-5.542c-1.995-1.778-3.95-3.57-6.18-5.046c2.526-11.588,5.214-23.142,7.679-34.745
		c5.916-2.074,11.838-4.13,17.748-6.226c6.368-2.259,12.716-4.57,19.091-6.818c1.644-0.58,3.349-0.977,5.017-1.488
		C124.579-0.066,125.466-0.199,126.22,0.622z"/>
	<path fill="#DBDCDC" d="M318.945,38.933c-0.638,5.933-1.888,11.768-3.129,17.588c-3.706,17.362-7.061,34.791-10.266,52.252
		c-0.42,2.285-1.499,4.443-1.322,6.841c-1.015,1.32-2.503,1.128-3.88,1.148c-4.301,0.064-8.358-1.163-12.363-2.535
		c-1.198-0.409-2.465-0.995-2.262-2.691c1.389-6.771,2.787-13.54,4.17-20.314c3.686-18.035,7.369-36.07,11.043-54.105
		c0.116-0.571,0.142-1.16,0.209-1.74c2.471-1.499,5.005-0.667,7.45-0.044C312.139,36.236,316.054,36.144,318.945,38.933z"/>
	<path fill="#2F2E2C" d="M81.783,14.753c0.853,0.409,0.655,1.163,0.516,1.815c-2.277,10.591-4.588,21.173-6.85,31.767
		c-0.18,0.844-0.507,1.227-1.349,1.16c-5.754-5.551-12.142-10.359-18.232-15.515c-2.477-2.097-4.921-4.231-7.807-6.714
		C59.688,22.954,70.734,18.854,81.783,14.753z"/>
	<path fill="#FCDFC9" d="M248.154,297.083c-1.958,6.119-3.909,12.238-5.893,18.348c-0.084,0.255-0.481,0.409-0.916,0.757
		c-2.798-4.742-4.75-9.756-6.948-14.645c-0.386-0.855-0.679-1.752-1.059-2.61c-1.702-3.857-1.708-3.854-6.189-3.773
		c-0.751,0.719-1.691,0.768-2.624,0.629c-6.803-1.001-13.291-3.286-19.932-4.933c0.168-0.861-0.235-1.14-1.053-1.456
		c-8.778-3.387-16.405-8.639-23.296-14.941c-8.709-7.966-12.476-18.612-15.376-29.618c-1.752-6.641-1.972-13.447-1.523-20.291
		c0.29-4.408,0.186-4.463-4.028-5.968c-3.59-1.285-4.884-3.002-5.075-6.763c-0.194-3.793,0.017-7.514,1.682-11.037
		c1.54-3.262,4.028-5.493,7.639-5.269c3.146,0.194,3.593-1.369,4.222-3.79c4.075-15.672,12.447-28.745,24.406-39.588
		c3.21-0.113,6.281,0.777,9.399,1.302c34.867,5.884,69.522,12.949,104.371,18.937c0.809,0.139,1.609,0.342,2.413,0.507
		c2.828,0.589,3.871,2.253,3.408,5.113c-1.583,9.735-2.413,19.592-4.585,29.232c-1.212,5.382-1.609,10.869-2.717,16.681
		c4.37-0.841,8.05-0.264,11.31,2.288c4.414,3.457,6.055,9.602,4.069,15.672c-2.152,6.577-5.939,9.573-12.25,9.683
		c-6.574,0.113-6.644,0.102-7.749,6.682c-0.797,4.75-1.493,9.515-2.703,14.184c-0.194,0.713-0.467,1.398-0.763,2.073
		c-0.223,0.481-0.464,0.957-0.65,1.456c-3.837,2.555-7.673,5.107-11.51,7.662c-0.673,0.974-1.427,1.865-2.54,2.364
		c-9.515,4.251-18.888,8.915-29.461,10.072C250.824,296.201,249.548,296.868,248.154,297.083z"/>
	<path fill="#3F2417" d="M295.745,275.951c0.049-0.624,0.099-1.247,0.148-1.871c0.041-0.148,0.078-0.299,0.119-0.447
		c1.563-7.227,2.825-14.509,3.825-21.828c0.252-1.847,1.114-2.108,2.587-1.772c2.071,0.473,4.153,0.774,6.281,0.609
		c4.031-0.31,7.093-1.984,8.92-5.803c1.404-2.932,2.175-5.899,1.955-9.164c-0.554-8.204-7.038-12.772-14.958-10.486
		c-0.316,0.09-0.65,0.11-0.98,0.162c-0.539-0.963-0.081-1.868,0.023-2.775c1.122-9.802,3.753-19.358,4.889-29.151
		c0.623-5.365,1.607-10.666,2.355-16.008c0.394-2.827,0.287-3.077-2.738-3.64c-7.607-1.418-15.228-2.77-22.84-4.147
		c-13.734-2.482-27.501-4.797-41.192-7.494c-16.913-3.332-33.907-6.197-50.895-9.094c-0.455-0.078-0.893-0.244-1.34-0.368
		c-1.894,0.719-3.457-0.267-4.979-1.087c-10.759-5.797-18.606-14.607-25.03-24.754c-2.375-3.753-4.446-7.723-6.006-11.948
		c-1.354-3.663-1.641-7.285-0.829-11.061c0.803-3.735,4.437-6.893,8.242-7.09c3.213-0.165,6.69,2.378,7.099,5.194
		c0.444,3.042-1.549,4.982-5.933,5.774c4.048,12.432,11.986,20.802,23.806,21.054c4.611,0.099,9.077-1.096,13.331-2.92
		c0.583-0.162,1.189-0.267,0.951-0.246c0.087-0.041-0.635,0.11-1.386,0.177c-14.254-1.537-27.965-16.434-28.374-30.865
		c-0.046-1.636,0.16-3.274,1.273-4.626c0.545-2.68,1.65-5.029,3.355-7.238c3.306-4.289,8.395-4.124,12.769-2.497
		c2.369,0.882,4.057,2.781,5.377,4.901c0.931,1.499,0.632,3.61-0.444,4.538c-1.398,1.209-3.187,1.192-4.77-0.101
		c-0.725-0.592-1.337-1.325-2.076-1.9c-2.758-2.143-5.171-1.328-6.046,2.045c-0.142,0.545-0.038,1.157-0.046,1.737
		c1.038,1.641,1.085,3.582,1.592,5.38c3.39,11.997,12.893,17.354,24.612,16.73c7.009-0.371,13.943-1.987,20.903-2.967
		c15.245-2.143,30.781-3.802,45.869,0.16c24.694,6.484,43.61,20.503,53.36,44.97c5.177,12.992,8.741,26.529,8.111,40.525
		c-1.053,23.458-7.502,45.353-21.878,64.415c-0.85,0.951-2.047,1.482-2.923,2.404C306.858,268.062,301.473,272.224,295.745,275.951z
		"/>
	<path fill="#AD4217" d="M248.154,297.083c-0.044-1.354,1.041-1.447,1.914-1.54c12.331-1.296,23.22-6.69,34.168-11.934
		c0.16,0.98-0.18,1.792-0.673,2.645c-3.274,5.675-6.569,11.333-10.246,16.765c-3.019,4.46-5.864,9.042-8.833,13.537
		c-1.366,2.065-1.815,2.082-3.193,0.052C256.885,310.121,252.53,303.596,248.154,297.083z"/>
	<path fill="#AD4217" d="M200.417,290.146c1.322,0.017,2.648,0.035,3.97,0.052c6.612,0.734,12.722,3.634,19.311,4.46
		c1.154,0.145,2.303,0.333,3.451,0.499c1.105,1.122,2.784,0.084,3.921,1.015c0.235,0.67-0.119,1.186-0.426,1.659
		c-3.901,5.991-7.792,11.986-11.751,17.939c-1.444,2.169-2.256,2.224-3.468,0.102c-4.652-8.14-9.448-16.191-14.535-24.067
		C200.591,291.344,200.567,290.703,200.417,290.146z"/>
	<path fill="#B04318" d="M236.783,330.012c0.226-2.83,1.679-4.217,4.17-3.987c2.126,0.197,3.819,2.358,3.706,4.73
		c-0.102,2.068-2.001,3.886-3.863,3.698C238.523,334.22,236.614,332.112,236.783,330.012z"/>
	<path fill="#B04318" d="M239.833,342.253c2.161-0.049,4.048,1.731,4.124,3.886c0.075,2.163-1.691,4.394-3.564,4.501
		c-2.155,0.125-4.092-1.862-4.133-4.24C236.211,343.689,237.4,342.308,239.833,342.253z"/>
	<path fill="#DFC8BA" d="M313.824,261.039c0.249,0.273,0.499,0.545,0.748,0.821c-0.673,0.937-1.644,1.337-2.738,1.517
		C312.261,262.396,312.89,261.59,313.824,261.039z"/>
	<path fill="#402517" d="M181.448,229.826c12.432,6.847,25.659,7.679,39.463,5.904c-1.256,5.356-3.59,9.671-7.723,12.917
		c-3.741,2.938-7.786,5.037-12.656,5.623c-3.729,0.447-7.059-0.281-9.979-2.39c-6.914-4.994-9.811-11.986-9.529-20.396
		C181.039,231.041,181.242,230.606,181.448,229.826z"/>
	<path fill="#3F2417" d="M237.977,200.539c0.07,4.304-1.206,7.807-3.019,11.156c-0.623,1.148-1.459,2.132-2.474,2.958
		c-2.465,2.001-5.385,1.833-7.555-0.508c-2.123-2.291-2.973-5.026-2.578-8.126c0.508-3.993,1.589-7.813,3.387-11.429
		c0.824-1.656,2.03-2.83,3.753-3.532c2.746-1.119,5.084-0.348,6.655,2.149C237.656,195.597,238.062,198.219,237.977,200.539z"/>
	<path fill="#402517" d="M194.64,189.209c-0.223,2.712-0.522,5.632-1.47,8.422c-0.606,1.783-1.427,3.512-3.129,4.541
		c-3.123,1.888-6.554,2.703-8.842-2.381c-0.838-1.859-1.174-3.709-0.887-5.788c0.519-3.738,1.102-7.424,3.109-10.715
		c0.365-0.6,0.713-1.224,1.169-1.752c2.555-2.946,6.084-2.764,8.32,0.397C194.417,184.067,194.533,186.526,194.64,189.209z"/>
	<path fill="#EC6D3C" d="M296.009,273.63c0.026,0.133,0.055,0.267,0.067,0.4c0,0.014-0.122,0.038-0.186,0.049
		c-0.026-0.136-0.058-0.267-0.072-0.4C295.815,273.671,295.943,273.648,296.009,273.63z"/>
	<path fill-rule="evenodd" clip-rule="evenodd" fill="#0050A0" d="M327.822,449.623c-1.87-11.681-2.9-23.47-4.814-35.134
		c-0.719-4.385-0.879-8.854-2.027-13.169c-1.27-0.708-2.529,0.055-3.796,0.055c-16.794,0.009-33.582,0.322-50.373,0.609
		c-18.313,0.313-36.636,0.371-54.964-0.249c-12.192-0.412-24.404-0.38-36.601-0.841c-0.612,1.415-0.922,2.891-0.948,4.44
		c-0.122,6.336-1.299,12.574-1.659,18.899c-0.612,10.736-1.812,21.437-2.52,32.17c-0.288,4.354-0.439,8.717-0.569,13.081
		c9.659,2.962,19.579,5.325,29.715,7.058c0.052-0.31,0.145-0.613,0.313-0.903c0.563-7.714,3.349-14.851,5.765-22.078
		c0.29-0.867,0.925-1.627,1.43-2.419c5.414-8.465,12.966-14.268,21.962-18.661c8.932-4.365,18.134-5.762,27.721-3.883
		c14.164,2.778,26.358,9.135,35.102,21.057c4.127,5.629,7.41,11.554,8.532,18.696c0.202,1.29,0.436,2.584,0.684,3.878
		c9.905-2.585,19.557-5.792,28.919-9.568C329.104,458.309,328.517,453.957,327.822,449.623z"/>
</g>
</svg>
