<?xml version="1.0" encoding="utf-8"?>
<!-- Generator: Adobe Illustrator 17.0.0, SVG Export Plug-In . SVG Version: 6.00 Build 0)  -->
<!DOCTYPE svg PUBLIC "-//W3C//DTD SVG 1.1//EN" "http://www.w3.org/Graphics/SVG/1.1/DTD/svg11.dtd">
<svg version="1.1" id="Livello_1" xmlns="http://www.w3.org/2000/svg" xmlns:xlink="http://www.w3.org/1999/xlink" x="0px" y="0px"
	 width="480px" height="480px" viewBox="0 0 480 480" enable-background="new 0 0 480 480" xml:space="preserve">
<g>
	<g opacity="0.5">
		<path fill-rule="evenodd" clip-rule="evenodd" fill="#99B9D9" d="M480,240C480,372.548,372.548,480,240,480S0,372.548,0,240
			C0,107.451,107.452,0,240,0C372.548,0,480,107.451,480,240z"/>
	</g>
	<rect x="226.421" y="49.812" fill="#FFFFFF" width="177.734" height="224.833"/>
	<rect x="223.488" y="42.636" fill="#ED7219" width="183.578" height="10.283"/>
	<rect x="223.488" y="271.47" fill="#ED7219" width="183.578" height="10.283"/>
	<path d="M386.324,182.393H245.277c-0.966,0-1.75-0.784-1.75-1.75s0.784-1.75,1.75-1.75h141.047c0.966,0,1.75,0.784,1.75,1.75
		S387.291,182.393,386.324,182.393z"/>
	<path d="M386.324,194.643H245.277c-0.966,0-1.75-0.784-1.75-1.75s0.784-1.75,1.75-1.75h141.047c0.966,0,1.75,0.784,1.75,1.75
		S387.291,194.643,386.324,194.643z"/>
	<path d="M386.324,207.943H245.277c-0.966,0-1.75-0.784-1.75-1.75s0.784-1.75,1.75-1.75h141.047c0.966,0,1.75,0.784,1.75,1.75
		S387.291,207.943,386.324,207.943z"/>
	<path d="M386.324,220.193H245.277c-0.966,0-1.75-0.784-1.75-1.75s0.784-1.75,1.75-1.75h141.047c0.966,0,1.75,0.784,1.75,1.75
		S387.291,220.193,386.324,220.193z"/>
	<path d="M386.324,232.443H245.277c-0.966,0-1.75-0.784-1.75-1.75s0.784-1.75,1.75-1.75h141.047c0.966,0,1.75,0.784,1.75,1.75
		S387.291,232.443,386.324,232.443z"/>
	<path d="M386.324,244.693H245.277c-0.966,0-1.75-0.784-1.75-1.75s0.784-1.75,1.75-1.75h141.047c0.966,0,1.75,0.784,1.75,1.75
		S387.291,244.693,386.324,244.693z"/>
	<path fill-rule="evenodd" clip-rule="evenodd" d="M94.896,231.063c0,0-44.358-15.622-45.345-84.507
		c-0.311-21.671,5.817-40.672,20.611-55.651s60.027-20.922,65.956-22.673s11.25-15.251,16.489-16.489
		c5.239-1.238,1.962,12.109,2.061,12.367c4.79-0.576,8.263-11.587,14.428-14.428c6.165-2.841,3.672,20.611,4.122,20.611
		c4.733,0,9.177-23.131,16.489-22.673c7.312,0.458,2.061,57.712,2.061,57.712L94.896,231.063z"/>
	<path fill-rule="evenodd" clip-rule="evenodd" fill="#FFE1C9" d="M90.773,233.124l-4.122-32.978c0,0-19.835,10.024-20.611-10.306
		c-0.776-20.33,18.55-10.306,18.55-10.306l-10.306-51.528l117.485-22.673c0,0,10.147,11.046,16.489,22.673
		c6.016,11.03,8.245,22.673,8.245,22.673s11.963-5.266,14.428,8.245c2.465,13.51-10.306,12.367-10.306,12.367
		s11.032,65.544-55.651,74.201c-2.425,0.448-20.611,32.978-20.611,32.978L90.773,233.124z"/>
	<path fill-rule="evenodd" clip-rule="evenodd" fill="#FA701D" d="M78.64,343.427l5.95-97.936
		c-4.407,4.914-8.207,9.735-11.481,14.421l-10.296-7.241c6.055-8.581,13.838-17.323,23.838-25.73l45.345,20.611l8.245,12.55
		l10.306-12.55c0,0,28.666-4.058,54.194-15.78c8.866-4.071,18.576,6.712,9.544,11.135c-15.668,7.671-30.76,10.829-30.76,10.829
		l14.428,90.69L78.64,343.427z"/>
	
		<ellipse transform="matrix(0.9398 -0.3418 0.3418 0.9398 -43.7983 62.2547)" fill-rule="evenodd" clip-rule="evenodd" fill="#402517" cx="154.769" cy="155.42" rx="8.417" ry="13.397"/>
	
		<ellipse transform="matrix(0.2143 0.9768 -0.9768 0.2143 296.5178 -80.4461)" fill-rule="evenodd" clip-rule="evenodd" fill="#402517" cx="198.261" cy="144.082" rx="11.719" ry="8.245"/>
	<path fill-rule="evenodd" clip-rule="evenodd" fill="#402517" d="M187.647,187.779c-11.915,1.702-24.734,0-24.734,0
		s0.935,21.82,22.673,20.611s20.611-26.795,20.611-26.795S197.081,186.431,187.647,187.779z"/>
	<g>
		<circle fill-rule="evenodd" clip-rule="evenodd" fill="#922B00" cx="137.995" cy="273.188" r="2.308"/>
		<circle fill-rule="evenodd" clip-rule="evenodd" fill="#922B00" cx="132.582" cy="262.994" r="2.308"/>
	</g>
	<path fill-rule="evenodd" clip-rule="evenodd" fill="#FFE1C9" d="M267.943,131.816c-2.341-3.789-22.46-9.832-22.125-4.033
		c0.335,5.799,3.663,31.14,3.663,31.14s2.34,37.151-20.611,57.712c-6.777,6.071-15.267,11.058-24.132,15.129l9.545,11.136
		c9.033-4.423,18.258-10.338,24.893-18.021c20.832-24.122,22.673-61.834,22.673-61.834S270.284,135.605,267.943,131.816z"/>
	<g>
		<path d="M208.06,429.473H184v17.084h55.876C235.744,425.451,208.06,429.473,208.06,429.473z"/>
		<polygon fill="#FFFFFF" points="184,453.976 239.876,453.352 239.876,446.557 184,446.557 		"/>
		<polygon points="184,455.937 239.958,455.937 239.876,453.352 184,453.352 		"/>
	</g>
	<g>
		<path fill="#99B9D9" d="M311.458,115.23c-3.308,0-6,2.692-6,6v12c0,3.308,2.692,6,6,6h20c3.308,0,6-2.692,6-6v-12
			c0-3.308-2.692-6-6-6H311.458z M333.458,121.23v12c0,1.102-0.898,2-2,2h-20c-1.104,0-2-0.898-2-2v-12c0-1.102,0.896-2,2-2h20
			C332.56,119.23,333.458,120.128,333.458,121.23z"/>
		<path fill="#99B9D9" d="M328.752,122.522l-8,8c-0.39,0.39-0.39,1.024,0,1.414c0.194,0.196,0.45,0.294,0.706,0.294
			c0.256,0,0.512-0.098,0.706-0.292l8-8c0.39-0.39,0.39-1.024,0-1.414C329.774,122.132,329.142,122.132,328.752,122.522z"/>
		<path fill="#99B9D9" d="M328.752,128.524l-2,2c-0.39,0.39-0.39,1.024,0,1.414c0.194,0.194,0.45,0.292,0.706,0.292
			c0.256,0,0.512-0.098,0.706-0.292l2-2c0.39-0.39,0.39-1.024,0-1.414C329.774,128.132,329.142,128.132,328.752,128.524z"/>
		<path fill="#99B9D9" d="M335.458,87.23h-1.6h-6.4h-6.4h-6.4h-6.4h-6.4h-6.4h-6.4h-1.6h-1.6l-11.2,16v1.6
			c0,3.278,1.976,6.09,4.8,7.324v2.642v28.434c0,3.308,2.692,6,6,6h4v-28c0-1.102,0.896-2,2-2h6c1.102,0,2,0.898,2,2v28h4h34
			c3.308,0,6-2.692,6-6v-28.434v-2.642c2.824-1.236,4.8-4.046,4.8-7.324v-1.6l-11.2-16H335.458z M322.258,91.23l3.6,12v1.6
			c0,2.652-2.148,4.8-4.8,4.8c-2.652,0-4.8-2.148-4.8-4.8v-1.6l-1.2-12H322.258z M297.058,103.23l3.6-12h7.2l-1.2,12v1.6
			c0,2.652-2.148,4.8-4.8,4.8s-4.8-2.148-4.8-4.8V103.23z M277.858,104.83v-1.6l8.4-12h7.2l-6,12v1.6c0,2.652-2.148,4.8-4.8,4.8
			C280.006,109.63,277.858,107.482,277.858,104.83z M339.458,143.23c0,1.102-0.898,2-2,2h-34v-24c0-3.308-2.692-6-6-6h-6
			c-3.308,0-6,2.692-6,6v24c-1.104,0-2-0.898-2-2v-30.48c1.834-0.188,3.49-0.96,4.746-2.172c0.85,1.35,2.342,2.252,4.054,2.252
			s3.204-0.902,4.054-2.252c1.438,1.388,3.388,2.252,5.546,2.252s4.108-0.864,5.546-2.252c0.85,1.35,2.342,2.252,4.054,2.252
			s3.204-0.902,4.054-2.252c1.438,1.388,3.388,2.252,5.546,2.252c2.158,0,4.108-0.864,5.546-2.252
			c0.85,1.35,2.342,2.252,4.054,2.252c1.712,0,3.204-0.902,4.054-2.252c1.256,1.212,2.912,1.986,4.746,2.172V143.23z
			 M345.058,104.83c0,2.652-2.148,4.8-4.8,4.8s-4.8-2.148-4.8-4.8v-1.6l-6-12h7.2l8.4,12L345.058,104.83z"/>
	</g>
	<polygon fill-rule="evenodd" clip-rule="evenodd" fill="#922B00" points="119.818,262.535 131.996,247.552 98.531,232.34 	"/>
	<polygon fill-rule="evenodd" clip-rule="evenodd" fill="#922B00" points="158.204,262.535 150.547,247.552 178.569,241.296 	"/>
	<g>
		
			<rect x="234.622" y="133.082" transform="matrix(-0.9422 -0.3352 0.3352 -0.9422 451.1065 363.6987)" fill-rule="evenodd" clip-rule="evenodd" fill="#0050A0" width="44.625" height="19.688"/>
		<polygon fill-rule="evenodd" clip-rule="evenodd" fill="#FFF8CF" points="217.894,129.038 224.286,135.849 232.614,144.722 
			239.212,126.173 227.238,127.782 		"/>
		<path fill-rule="evenodd" clip-rule="evenodd" d="M217.894,129.038l6.392,6.811c0,0,2.35-0.616,3.324-3.355
			c0.974-2.738-0.372-4.712-0.372-4.712L217.894,129.038z"/>
		<path fill-rule="evenodd" clip-rule="evenodd" fill="#DF50A0" d="M281.256,141.13l1.06,0.377
			c5.122,1.822,7.797,7.451,5.975,12.574l0,0c-1.822,5.122-7.451,7.797-12.574,5.975l-1.06-0.377L281.256,141.13z"/>
	</g>
	<path fill-rule="evenodd" clip-rule="evenodd" fill="#FFE1C9" d="M249.544,161.097c0,0-12.468-11.575-8.226-16.807
		s15,14.316,15,14.316L249.544,161.097z"/>
	<path fill-rule="evenodd" clip-rule="evenodd" fill="#FFE1C9" d="M73.109,259.912c-18.326,26.233-20.176,48.265-19.701,58.859
		c0,0,11.098,6.389,10.348,9.764s-9.569-3-9.569-3s4.507,19.125,3.382,21.188s-18.188-3.938-19.125-7.312s3.375-22.901,3.375-22.901
		s-2.365-30.729,20.995-63.838L73.109,259.912z"/>
	<path fill-rule="evenodd" clip-rule="evenodd" fill="#0050A0" d="M78.64,343.427l-9.292,65.309
		c6.206,6.276,12.757,12.208,19.62,17.773l2.934,0.029c0,0-1.866-52.176,42.203-56.229C178.175,366.256,184,429.473,184,429.473
		h24.061l-10.108-85.048L78.64,343.427z"/>
	<path fill-rule="evenodd" clip-rule="evenodd" d="M91.86,428.837v-2.621l-3.243,0.01C89.693,427.102,90.769,427.979,91.86,428.837z
		"/>
</g>
</svg>
