<?xml version="1.0" encoding="utf-8"?>
<!-- Generator: Adobe Illustrator 17.0.0, SVG Export Plug-In . SVG Version: 6.00 Build 0)  -->
<!DOCTYPE svg PUBLIC "-//W3C//DTD SVG 1.1//EN" "http://www.w3.org/Graphics/SVG/1.1/DTD/svg11.dtd">
<svg version="1.1" id="Livello_1" xmlns="http://www.w3.org/2000/svg" xmlns:xlink="http://www.w3.org/1999/xlink" x="0px" y="0px"
	 width="480px" height="480px" viewBox="0 0 480 480" enable-background="new 0 0 480 480" xml:space="preserve">
<path opacity="0.5" fill-rule="evenodd" clip-rule="evenodd" fill="#99B9D9" d="M240,0c132.548,0,240,107.452,240,240
	C480,372.548,372.548,480,240,480S0,372.548,0,240C0,107.452,107.452,0,240,0z"/>
<g>
	<path fill-rule="evenodd" clip-rule="evenodd" d="M124.256,223.685c0,0-54.087-19.048-55.291-103.042
		c-0.379-26.424,7.093-49.593,25.132-67.857S167.29,27.274,174.52,25.14c7.231-2.134,13.717-18.596,20.106-20.106
		c6.389-1.509,2.392,14.765,2.513,15.079c5.841-0.702,10.075-14.128,17.593-17.593c7.518-3.464,4.478,25.132,5.026,25.132
		c5.771,0,11.19-28.204,20.106-27.645s2.513,70.37,2.513,70.37L124.256,223.685z"/>
	<path fill-rule="evenodd" clip-rule="evenodd" fill="#FFE1C9" d="M119.229,226.198l-5.026-40.212c0,0-24.186,12.223-25.132-12.566
		s22.619-12.566,22.619-12.566l-12.566-62.83l143.253-27.645c0,0,12.373,13.469,20.106,27.645
		c7.336,13.45,10.053,27.645,10.053,27.645s14.587-6.421,17.593,10.053c3.005,16.473-12.566,15.079-12.566,15.079
		s13.452,79.92-67.857,90.476c-2.956,0.546-25.132,40.212-25.132,40.212L119.229,226.198z"/>
	<path fill-rule="evenodd" clip-rule="evenodd" fill="#FA701D" d="M104.434,360.694l7.256-119.417c0,0-15.867-5.702-33.055-16.827
		c-9.504-6.152-0.295-21.666,8.485-16.966c14.377,7.695,27.083,11.174,27.083,11.174l55.291,25.132l10.053,22.619l12.566-22.619
		l42.624-10.205c0,0,12.349,14.33,26.225,28.523l-13.994,9.704c-8-8.002-13.654-14.262-13.654-14.262l16.603,104.361
		L104.434,360.694z"/>
	
		<ellipse transform="matrix(0.9398 -0.3418 0.3418 0.9398 -33.0476 75.3341)" fill-rule="evenodd" clip-rule="evenodd" fill="#402517" cx="197.262" cy="131.451" rx="10.264" ry="16.336"/>
	
		<ellipse transform="matrix(0.2143 0.9768 -0.9768 0.2143 311.56 -152.0569)" fill-rule="evenodd" clip-rule="evenodd" fill="#402517" cx="250.293" cy="117.626" rx="14.289" ry="10.053"/>
	<path fill-rule="evenodd" clip-rule="evenodd" fill="#402517" d="M237.351,170.907c-14.529,2.075-30.159,0-30.159,0
		s1.14,26.606,27.645,25.132s25.132-32.672,25.132-32.672S248.854,169.264,237.351,170.907z"/>
	<path fill-rule="evenodd" clip-rule="evenodd" fill="#FFE1C9" d="M87.12,207.481c-8.78-4.7-18.182-10.968-25.694-18.982
		c-17.775-18.96-22.619-50.264-22.619-50.264s11.29-26.944,7.54-30.159c-3.75-3.214-10.053,12.566-10.053,12.566
		s2.203-20.555,0-25.132c-2.203-4.577-32.474,14.71-32.672,20.106c-0.198,5.396,20.106,20.106,20.106,20.106
		s5.715,39.028,27.645,65.344c7.853,9.424,17.76,17.226,27.266,23.378L87.12,207.481z"/>
	<path fill-rule="evenodd" clip-rule="evenodd" fill="#FFE1C9" d="M260.962,262.108c11.886,12.157,24.892,24.214,32.218,27.078
		c10.135,3.963,36.938-1.292,55.004-5.613c0,0,30.832-17.417,36.222-14.651c5.39,2.767,6.9,21.221,3.901,25.132
		c-2.999,3.911-37.17-0.033-37.17-0.033c-18.402,5.968-48.995,14.656-61.434,11.02c-11.27-3.295-29.983-20.473-42.735-33.228
		L260.962,262.108z"/>
	<g>
		<g>
			<polygon fill-rule="evenodd" clip-rule="evenodd" fill="#F6CFC3" points="335.285,247.872 335.285,247.315 414.836,247.315 
				414.836,247.872 427.116,247.872 427.116,282.157 383.163,282.157 383.163,261.836 368.512,261.836 368.512,282.157 
				324.56,282.157 324.56,247.872 			"/>
			<path fill-rule="evenodd" clip-rule="evenodd" fill="#CF6E57" d="M335.285,247.315h79.55v0.557l12.28-4.841v4.841
				c-11.267,12.563-26.624,26.862-43.953,29.696v-15.732h-14.651v16.642c-16.537-0.532-31.742-11.972-43.953-21.543v-9.063h10.726
				V247.315z"/>
			<path fill="#F6CFC3" d="M290.374,179.301v48.979h11.2c11.683,25.944,38.343,44.081,69.38,44.081
				c41.806,0,75.697-32.893,75.697-73.469c0-0.946-0.037-1.883-0.073-2.82c15.089-5.506,17.788-17.249,18.216-22.338
				c0.033-0.387,0.057-0.771,0.072-1.155c4.415-3.189,9.074-8.489,13.949-15.882c1.042-1.58,0.605-3.705-0.975-4.747
				c-1.584-1.041-3.706-0.604-4.748,0.976c-3.583,5.434-6.657,9.107-9.239,11.567c-1.184-3.775-3.317-6.704-6.043-7.915
				c-4.064-1.804-7.044-1.17-8.829-0.32c-3.616,1.72-5.084,5.41-5.638,7.455c-0.776,2.867,1.967,9.066,7.203,11.428
				c2.229,1.004,4.552,1.282,6.965,0.84c-1.015,4.228-3.943,9.568-11.573,12.934c-5.019-35.852-36.666-63.49-74.983-63.49
				c-2.515,0-4.991,0.152-7.443,0.385c-5.731-4.516-20.081-14.854-29.637-13.577c-1.075,0.144-2.019,0.786-2.545,1.735
				c-0.525,0.949-0.571,2.09-0.123,3.079c2.533,5.581,1.605,13.981,0.564,19.048c-16.288,9.602-28.577,24.958-33.769,43.206H290.374
				z M457.799,168.704c-1.688,0.666-2.888,0.629-3.621,0.46c-2.44-0.552-3.771-3.114-4.076-4.132
				c0.359-1.061,0.985-2.187,1.824-2.587c0.88-0.418,2.175-0.017,3.101,0.397C455.912,163.236,457.262,165.441,457.799,168.704z"/>
			<g>
				<ellipse fill="#CF6E57" cx="290.374" cy="203.791" rx="9.767" ry="24.489"/>
				<path fill="#CF6E57" d="M324.559,180.771c1.893,0,3.427,1.535,3.427,3.427c0,6.213,5.035,11.267,11.224,11.267
					s11.223-5.054,11.223-11.267c0-1.893,1.535-3.427,3.427-3.427s3.427,1.535,3.427,3.427c0,9.992-8.109,18.121-18.078,18.121
					c-9.968,0-18.079-8.129-18.079-18.121C321.132,182.306,322.667,180.771,324.559,180.771z"/>
				<path fill="#CF6E57" d="M361.203,137.373c3.205-0.453,6.486-0.683,9.752-0.683c15.473,0,30.112,4.998,42.334,14.455
					c1.497,1.158,1.771,3.312,0.612,4.808c-0.675,0.874-1.688,1.33-2.713,1.33c-0.732,0-1.471-0.234-2.095-0.716
					c-11.009-8.519-24.197-13.022-38.138-13.022c-2.946,0-5.904,0.208-8.791,0.616c-1.877,0.271-3.609-1.039-3.874-2.913
					C358.025,139.373,359.329,137.639,361.203,137.373z"/>
			</g>
			<path fill-rule="evenodd" clip-rule="evenodd" fill="#FFB100" d="M395.661,144.974c-4.937-2.005-10.165-3.421-15.612-4.177
				c-6.243-4.331-10.338-11.54-10.338-19.714c0-13.249,10.741-23.99,23.99-23.99c13.249,0,23.99,10.74,23.99,23.99
				C417.691,133.67,407.991,143.974,395.661,144.974z"/>
		</g>
	</g>
	<path fill-rule="evenodd" clip-rule="evenodd" fill="#0050A0" d="M249.917,361.912l-145.483-1.217l-9.907,70.152
		c8.555,6.531,17.57,12.478,26.973,17.829c2.602-18.94,12.595-51.712,50.565-55.203c53.735-4.941,60.838,72.141,60.838,72.141
		h29.338L249.917,361.912z"/>
	<path fill-rule="evenodd" clip-rule="evenodd" d="M232.904,465.613v14.208C235.267,479.89,237.62,480,240,480
		c18.722,0,36.916-2.214,54.404-6.269c-11.385-11.131-32.162-8.118-32.162-8.118H232.904z"/>
</g>
<g>
	<polygon fill="#922B00" points="142.831,231.671 155.195,254.747 169.494,243.79 	"/>
	<polygon fill="#922B00" points="192.113,243.79 205.854,257.953 223.266,236.332 	"/>
	<circle fill="#922B00" cx="174.405" cy="276.992" r="2.833"/>
	<circle fill="#922B00" cx="166.152" cy="261.581" r="2.833"/>
</g>
</svg>
