<?xml version="1.0" encoding="utf-8"?>
<!-- Generator: Adobe Illustrator 17.0.0, SVG Export Plug-In . SVG Version: 6.00 Build 0)  -->
<!DOCTYPE svg PUBLIC "-//W3C//DTD SVG 1.1//EN" "http://www.w3.org/Graphics/SVG/1.1/DTD/svg11.dtd">
<svg version="1.1" id="Livello_1" xmlns="http://www.w3.org/2000/svg" xmlns:xlink="http://www.w3.org/1999/xlink" x="0px" y="0px"
	 width="480px" height="480px" viewBox="0 0 480 480" enable-background="new 0 0 480 480" xml:space="preserve">
<path opacity="0.5" fill-rule="evenodd" clip-rule="evenodd" fill="#99B9D9" d="M240,0c132.548,0,240,107.452,240,240
	C480,372.548,372.548,480,240,480S0,372.548,0,240C0,107.451,107.452,0,240,0z"/>
<path fill-rule="evenodd" clip-rule="evenodd" fill="#FBB100" d="M233.505,277.178c-56.664,0-102.6,46.361-102.6,103.55
	c0,41.868,24.622,77.93,60.048,94.248C206.788,478.265,223.191,480,240,480c9.342,0,18.554-0.552,27.618-1.591
	c39.894-14.191,68.487-52.563,68.487-97.681C336.105,323.539,290.17,277.178,233.505,277.178z"/>
<path fill-rule="evenodd" clip-rule="evenodd" fill="#F3A100" d="M320.905,380.728c0,49.844-39.556,90.25-88.35,90.25
	s-88.35-40.406-88.35-90.25s39.556-90.25,88.35-90.25S320.905,330.885,320.905,380.728z"/>
<path fill-rule="evenodd" clip-rule="evenodd" fill="#FFFFFF" d="M319.005,379.778c0,49.319-38.705,89.3-86.45,89.3
	c-47.745,0-86.45-39.981-86.45-89.3s38.705-89.3,86.45-89.3C280.3,290.478,319.005,330.459,319.005,379.778z"/>
<path fill-rule="evenodd" clip-rule="evenodd" fill="#3F2416" d="M165.105,356.978l17.1-3.8l-4.415,5.886l42.375,17.225
	c2.581-4.714,7.586-7.912,13.339-7.912c8.395,0,15.2,6.805,15.2,15.2c0,8.395-6.805,15.2-15.2,15.2
	c-0.547,0-1.087-0.032-1.619-0.088l-8.01,30.488h5.829l-13.3,13.3l-1.9-17.1l5.693,2.846l7.992-30.421
	c-5.769-2.157-9.885-7.704-9.885-14.226c0-1.295,0.18-2.545,0.484-3.746l-42.284-17.188v7.634L165.105,356.978z"/>
<path fill-rule="evenodd" clip-rule="evenodd" fill="#FFE1C9" d="M229.705,225.878c0,0-16.765-29.987-19-30.4
	c-61.47-7.98-51.3-68.4-51.3-68.4s-11.772,1.054-9.5-11.4s13.3-7.6,13.3-7.6s2.054-10.732,7.6-20.9
	c5.846-10.718,15.2-20.9,15.2-20.9l108.3,20.9l-9.5,47.5c0,0,17.815-9.24,17.1,9.5c-0.715,18.74-19,9.5-19,9.5l-3.8,30.4
	L229.705,225.878z"/>
<path fill-rule="evenodd" clip-rule="evenodd" fill="#FA701D" d="M180.305,286.678c-3.653-6.067,13.3-83.6,13.3-83.6
	s-13.912-2.911-28.355-9.983c-8.326-4.077,0.625-14.017,8.798-10.264c23.532,10.806,49.957,14.547,49.957,14.547l9.5,17.1l7.6-17.1
	l41.8-19c0,0,9.606-2.63,20.475-8.448c6.638-3.553,13.599,8.175,6.414,12.826c-12.994,8.411-24.989,12.721-24.989,12.721
	s10.56,82.015,1.9,100.7C278.045,314.864,183.958,292.745,180.305,286.678z"/>
<g>
	
		<ellipse transform="matrix(-0.9398 -0.3418 0.3418 -0.9398 388.5386 293.3555)" fill-rule="evenodd" clip-rule="evenodd" fill="#402517" cx="220.113" cy="112.449" rx="7.759" ry="12.35"/>
	
		<ellipse transform="matrix(-0.2143 0.9768 -0.9768 -0.2143 318.2213 -51.9877)" fill-rule="evenodd" clip-rule="evenodd" fill="#402517" cx="180.021" cy="101.998" rx="10.803" ry="7.6"/>
	<path fill-rule="evenodd" clip-rule="evenodd" fill="#402517" d="M189.805,142.278c10.984,1.569,22.8,0,22.8,0
		s-0.862,20.114-20.9,19s-19-24.7-19-24.7S181.109,141.036,189.805,142.278z"/>
</g>
<g>
	<path fill-rule="evenodd" clip-rule="evenodd" d="M242.803,331.558l9.348-26.923l17.949,6.232l-15.58,44.872
		c0,0-6.934-5.066-10.072-11.542C241.764,338.656,242.803,331.558,242.803,331.558z"/>
	
		<rect x="243.047" y="333.911" transform="matrix(0.328 -0.9447 0.9447 0.328 -137.0476 477.0661)" fill-rule="evenodd" clip-rule="evenodd" width="47.5" height="1.9"/>
</g>
<path fill-rule="evenodd" clip-rule="evenodd" fill="#FFFFFF" d="M273.69,312.113l-15.58,44.872l-3.59-1.246l15.58-44.872
	L273.69,312.113z"/>
<path fill-rule="evenodd" clip-rule="evenodd" fill="#0050A0" d="M155.605,269.578c19.284-21.733,85.5,19,85.5,19
	s69.741-41.982,89.3-15.2c8.337,11.416-45.545,33.637-80.935,46.707l-0.766,4.593l-9.312-0.931
	c-11.421,4.081-19.188,6.631-19.188,6.631S139.302,287.952,155.605,269.578z"/>
<path fill-rule="evenodd" clip-rule="evenodd" fill="#FFFFFF" d="M200.388,339.704l-19.827-43.164l3.453-1.586l19.827,43.164
	L200.388,339.704z"/>
<g>
	<path fill-rule="evenodd" clip-rule="evenodd" d="M199.273,296.309c5.774,2.139,9.938,7.98,9.938,7.98l11.896,25.898l-17.266,7.931
		l-19.827-43.164C184.014,294.954,192.525,293.809,199.273,296.309z"/>
	
		<rect x="165.862" y="317.569" transform="matrix(-0.4174 -0.9087 0.9087 -0.4174 -20.6888 623.7736)" fill-rule="evenodd" clip-rule="evenodd" width="47.5" height="1.9"/>
</g>
<g>
	<path fill-rule="evenodd" clip-rule="evenodd" fill="#FFE1C9" d="M303.38,169.928c6.638-3.553,13.746-8.292,19.425-14.35
		c13.438-14.334,17.1-38,17.1-38s-8.535-20.37-5.7-22.8c2.835-2.43,7.6,9.5,7.6,9.5s-1.665-15.54,0-19s24.551,11.121,24.7,15.2
		c0.149,4.079-15.2,15.2-15.2,15.2s-4.321,29.505-20.9,49.4c-5.937,7.124-13.427,13.023-20.613,17.674L303.38,169.928z"/>
	<path fill-rule="evenodd" clip-rule="evenodd" fill="#FFE1C9" d="M113.805,90.978c2.158-3.493,23.109-5.346,22.8,0
		c-0.309,5.346-3.8,15.2-3.8,15.2s8.325-8.314,9.5-3.8c1.175,4.514-9.5,13.3-9.5,13.3s-2.157,34.247,19,53.2
		c6.247,5.596,14.073,10.194,22.246,13.947l-8.799,10.266c-8.327-4.077-16.83-9.53-22.947-16.612c-19.204-22.236-20.9-57-20.9-57
		S111.647,94.471,113.805,90.978z"/>
</g>
<path fill-rule="evenodd" clip-rule="evenodd" d="M292.261,87.091l-7.929,48.706c0,0,16.724-8.208,14.396,9.424
	s-16.296,7.714-16.296,7.714l-4.915,27.917c0,0,32.851-24.887,35.179-75.027c2.328-50.141-35.696-74.936-70.358-77.966
	c-19.892-1.739-32.851,5.143-40.352,4.959c-7.501-0.184-20.952-6.887-21.211-19.285c-0.113-5.418,4.139-6.612,4.139-6.612
	s0,7.898,6.984,7.438c6.984-0.459,6.812-15.152-6.725-14.326c-6.543,0.399-11.554,7.071-11.381,15.152
	c0.423,19.831,24.573,26.723,24.573,26.723s2.932,4.775-10.605,4.408c-13.537-0.367-22.073-15.795-22.245-21.213
	c1.319,2.774,7.415,3.949,7.243-1.653c-0.172-5.602-2.673-8.265-7.243-8.265c-4.57,0-7.501,4.224-7.501,10.469
	c-0.002,13.959,11.011,38.116,32.333,42.151S292.261,87.091,292.261,87.091z"/>
<g>
	<polygon fill="#922B00" points="198.017,191.567 215.807,211.978 224.005,197.378 	"/>
	<polygon fill="#922B00" points="241.105,197.378 253.08,210.732 268.369,184.986 	"/>
	<circle fill="#922B00" cx="231.041" cy="227.153" r="2.55"/>
	<circle fill="#922B00" cx="223.612" cy="213.283" r="2.55"/>
</g>
</svg>
