<?xml version="1.0" encoding="utf-8"?>
<!-- Generator: Adobe Illustrator 17.0.0, SVG Export Plug-In . SVG Version: 6.00 Build 0)  -->
<!DOCTYPE svg PUBLIC "-//W3C//DTD SVG 1.1//EN" "http://www.w3.org/Graphics/SVG/1.1/DTD/svg11.dtd">
<svg version="1.1" id="Livello_1" xmlns="http://www.w3.org/2000/svg" xmlns:xlink="http://www.w3.org/1999/xlink" x="0px" y="0px"
	 width="480px" height="480px" viewBox="0 0 480 480" enable-background="new 0 0 480 480" xml:space="preserve">
<g>
	<path opacity="0.5" fill-rule="evenodd" clip-rule="evenodd" fill="#99B9D9" d="M480,240C480,372.548,372.548,480,240,480
		S0,372.548,0,240C0,107.451,107.452,0,240,0C372.548,0,480,107.451,480,240z"/>
	<path fill="#EC6D3C" d="M183.991,273.63c-0.026,0.133-0.055,0.267-0.067,0.4c0,0.014,0.122,0.038,0.186,0.049
		c0.026-0.136,0.058-0.267,0.072-0.4C184.185,273.671,184.057,273.648,183.991,273.63z"/>
	<path fill-rule="evenodd" clip-rule="evenodd" d="M288.701,136.482c0,0-6.114-66.667,2.4-67.2s13.689,26.4,19.2,26.4
		c0.524,0-2.379-27.308,4.8-24s11.222,16.13,16.8,16.8c0.116-0.3-3.701-15.841,2.4-14.4c6.101,1.441,12.295,17.162,19.2,19.2
		c6.905,2.038,59.574,8.959,76.8,26.4c17.226,17.441,24.362,39.566,24,64.8c-1.15,80.21-52.8,98.4-52.8,98.4L288.701,136.482z"/>
	<path fill-rule="evenodd" clip-rule="evenodd" fill="#FFE1C9" d="M343.901,338.082c0,0-21.177-37.878-24-38.4
		c-77.646-10.08-64.8-86.4-64.8-86.4s-14.87,1.331-12-14.4s16.8-9.6,16.8-9.6s2.594-13.556,9.6-26.4
		c7.384-13.538,19.2-26.4,19.2-26.4l136.8,26.4l-12,60c0,0,22.504-11.672,21.6,12s-24,12-24,12l-4.8,38.4L343.901,338.082z"/>
	<path fill-rule="evenodd" clip-rule="evenodd" fill="#402517" d="M293.501,232.482c13.874,1.982,28.8,0,28.8,0
		s-1.089,25.407-26.4,24c-25.311-1.407-24-31.2-24-31.2S282.516,230.912,293.501,232.482z"/>
	<path fill-rule="evenodd" clip-rule="evenodd" fill="#FA701D" d="M413.501,299.682c0,0,15.152-5.445,31.565-16.069
		c9.076-5.875,0.282-20.69-8.102-16.202c-13.729,7.349-25.863,10.671-25.863,10.671l-52.8,24l-9.6,21.6l-12-21.6
		c0,0-18.776-2.658-40.704-9.745l2.304,16.945l-16.8,105.6l123.96-1.037c4.902-4.667,9.595-9.549,14.088-14.612L413.501,299.682z"/>
	<g>
		<circle fill-rule="evenodd" clip-rule="evenodd" fill="#922B00" cx="352.73" cy="339.634" r="3.36"/>
		<circle fill-rule="evenodd" clip-rule="evenodd" fill="#922B00" cx="360.272" cy="324.529" r="3.36"/>
	</g>
	<path fill-rule="evenodd" clip-rule="evenodd" fill="#FFE1C9" d="M157.501,197.682c2.726-4.412,29.19-6.752,28.8,0
		c-0.39,6.752-4.8,19.2-4.8,19.2s10.516-10.502,12-4.8c1.484,5.702-12,16.8-12,16.8s7.276,33.259,34,57.2
		c4.397,3.939,28.891,5.43,49.718,5.979c16.546,0.436,17.229,19.109-1.066,17.834c-24.405-1.701-53.832-4.781-58.248-9.894
		c-24.257-28.087-38.804-66.318-38.804-66.318S154.775,202.094,157.501,197.682z"/>
	<path fill="#402517" d="M342.211,206.003c0.525-0.053,1.044-0.223,1.523-0.519c1.688-1.044,2.216-3.253,1.175-4.944
		c-0.207-0.336-5.143-8.256-12.663-11.279c-7.966-3.202-16.803,1.404-17.176,1.602c-1.756,0.932-2.424,3.112-1.492,4.868
		c0.933,1.757,3.114,2.421,4.868,1.492c0.052-0.027,6.276-3.223,11.114-1.281c5.291,2.126,9.182,8.315,9.221,8.376
		C339.531,205.527,340.883,206.138,342.211,206.003z"/>
	<path fill="#402517" d="M268.566,185.66c-0.366-0.308-0.665-0.707-0.864-1.185c-0.7-1.686,0.116-3.712,1.83-4.53
		c0.34-0.163,8.415-3.965,15.749-2.561c7.768,1.487,11.905,9.629,12.078,9.976c0.812,1.632,0.119,3.705-1.549,4.63
		c-1.669,0.926-3.679,0.35-4.492-1.279c-0.024-0.048-2.965-5.744-7.681-6.65c-5.16-0.988-11.495,1.966-11.558,1.995
		C270.849,186.638,269.493,186.44,268.566,185.66z"/>
	<polygon fill-rule="evenodd" clip-rule="evenodd" fill="#922B00" points="326.237,318.492 336.701,302.082 299.401,293.407 	"/>
	<polygon fill-rule="evenodd" clip-rule="evenodd" fill="#922B00" points="370.445,320.892 358.301,302.082 401.501,282.882 	"/>
	<g>
		<path fill="#FFFFFF" d="M76.357,170.532c0.348,0.08,0.655,0.287,1.02,0.373l58.128,14.242l-1.686,6.816
			c-1.867,7.542,1.646,15.253,8.539,18.738c1.118,0.565,2.297,0.992,3.512,1.296l34.236,8.385c4.28,1.044,8.723,0.357,12.506-1.942
			c3.78-2.31,6.456-5.951,7.517-10.248l1.693-6.812l23.902,5.853c1.991,0.491,4.073-0.358,5.176-2.102l19.931-31.59
			c1.093-1.74,0.975-3.968-0.302-5.555L153.437,46.925C147.755,40.993,113.327,67,93.805,98.41
			C74.742,129.083,66.072,168.177,76.357,170.532z M144.79,187.397l20.26,4.972l27.548,6.745l-1.693,6.812
			c-0.455,1.814-1.582,3.359-3.186,4.334c-1.6,0.968-3.481,1.261-5.291,0.817l-34.232-8.392c-3.745-0.907-6.026-4.761-5.098-8.477
			L144.79,187.397z"/>
	</g>
	<path fill-rule="evenodd" clip-rule="evenodd" fill="#FA701D" d="M267.433,292.082c16.546,0.436,30.778,0.276,30.778,0.276
		l8.575,19.333c0,0-22.124-0.5-40.419-1.775L267.433,292.082z"/>
	<g>
		<path fill="#C70000" d="M101.805,103.41c16.548-26.625,43.806-49.366,55.187-52.064l-3.546-4.421
			C147.764,40.994,113.336,67,93.814,98.41c-19.064,30.673-27.733,69.767-17.448,72.121c0.348,0.08,0.655,0.287,1.02,0.373
			l3.46,0.848C77.12,160.867,85.793,129.173,101.805,103.41z"/>
	</g>
	<path fill-rule="evenodd" clip-rule="evenodd" fill="#0050A0" d="M281.501,414.882l-7.452,62.703
		c13.072-1.857,25.808-4.757,38.113-8.632c8.649-14.25,22.291-25.899,43.683-23.932c2.514,0.231,4.892,0.604,7.155,1.091
		c15.345-9.177,29.587-20.009,42.461-32.267L281.501,414.882z"/>
	<path fill-rule="evenodd" clip-rule="evenodd" fill="#FFE1C9" d="M478.953,217.619c-3.246,9.886-8.707,22.335-17.452,31.662
		c-7.174,7.652-16.152,13.639-24.537,18.126l8.1,16.199c9.077-5.875,18.538-13.326,26.037-22.325
		c3.273-3.927,6.167-8.151,8.722-12.482c0.105-2.922,0.177-5.852,0.177-8.8C480,232.451,479.634,224.99,478.953,217.619z"/>
	<path fill="#FFFFFF" d="M25.066,52.854c-1.632,0-3.156,0.801-4.078,2.143c-1.542,2.245-0.97,5.327,1.275,6.869l35.872,24.641
		c0.826,0.568,1.792,0.868,2.791,0.868c1.632,0,3.156-0.801,4.078-2.143c0.747-1.087,1.025-2.4,0.784-3.698
		s-0.972-2.424-2.059-3.171L27.857,53.722C27.031,53.155,26.065,52.854,25.066,52.854z"/>
	<path fill="#FFFFFF" d="M8.637,141.331L8.637,141.331c-3.141,0-5.748-2.453-5.936-5.584c-0.096-1.583,0.433-3.109,1.488-4.297
		c1.056-1.189,2.511-1.894,4.096-1.986l43.447-2.547c3.274-0.197,6.094,2.326,6.282,5.584c0.096,1.582-0.433,3.108-1.488,4.296
		c-1.056,1.189-2.511,1.894-4.096,1.986L8.989,141.32C8.871,141.327,8.754,141.331,8.637,141.331z"/>
	<path fill="#FFFFFF" d="M90.701,10.079c-0.575,0-1.144,0.101-1.69,0.299c-1.244,0.451-2.237,1.359-2.794,2.555
		c-0.556,1.193-0.613,2.531-0.16,3.769l14.854,40.906c0.707,1.949,2.573,3.259,4.644,3.259h0c0.575,0,1.143-0.101,1.69-0.299
		c1.244-0.451,2.236-1.358,2.794-2.555c0.556-1.193,0.613-2.531,0.16-3.769L95.345,13.338
		C94.638,11.389,92.772,10.079,90.701,10.079z"/>
</g>
</svg>
