<?xml version="1.0" encoding="utf-8"?>
<!-- Generator: Adobe Illustrator 17.0.0, SVG Export Plug-In . SVG Version: 6.00 Build 0)  -->
<!DOCTYPE svg PUBLIC "-//W3C//DTD SVG 1.1//EN" "http://www.w3.org/Graphics/SVG/1.1/DTD/svg11.dtd">
<svg version="1.1" id="Livello_1" xmlns="http://www.w3.org/2000/svg" xmlns:xlink="http://www.w3.org/1999/xlink" x="0px" y="0px"
	 width="480px" height="480px" viewBox="0 0 480 480" enable-background="new 0 0 480 480" xml:space="preserve">
<path opacity="0.5" fill-rule="evenodd" clip-rule="evenodd" fill="#99B9D9" d="M240,0c132.548,0,240,107.452,240,240
	C480,372.548,372.548,480,240,480S0,372.548,0,240C0,107.451,107.452,0,240,0z"/>
<path fill="#DFC8BA" d="M313.824,261.039c0.249,0.273,0.499,0.545,0.748,0.821c-0.673,0.937-1.644,1.337-2.738,1.517
	C312.261,262.396,312.89,261.59,313.824,261.039z"/>
<path fill="#EC6D3C" d="M296.009,273.63c0.026,0.133,0.055,0.267,0.067,0.4c0,0.014-0.122,0.038-0.186,0.049
	c-0.026-0.136-0.058-0.267-0.072-0.4C295.815,273.671,295.943,273.648,296.009,273.63z"/>
<path fill-rule="evenodd" clip-rule="evenodd" d="M111.975,220.138c0,0-53.229-18.746-54.414-101.408
	c-0.373-26.005,6.981-48.807,24.734-66.781s72.032-25.107,79.148-27.207c7.116-2.1,13.5-18.301,19.787-19.787
	c6.287-1.486,2.354,14.531,2.473,14.84c5.749-0.691,9.915-13.904,17.314-17.314s4.407,24.734,4.947,24.734
	c5.68,0,11.013-27.757,19.787-27.207s2.473,69.254,2.473,69.254L111.975,220.138z"/>
<path fill-rule="evenodd" clip-rule="evenodd" fill="#FFE1C9" d="M107.028,222.611l-4.947-39.574c0,0-23.802,12.029-24.734-12.367
	c-0.931-24.396,22.26-12.367,22.26-12.367L87.241,96.469l140.982-27.207c0,0,12.177,13.255,19.787,27.207
	c7.22,13.236,9.893,27.207,9.893,27.207s14.356-6.319,17.314,9.893c2.958,16.212-12.367,14.84-12.367,14.84
	s13.239,78.653-66.781,89.041c-2.909,0.537-24.734,39.574-24.734,39.574L107.028,222.611z"/>
<path fill-rule="evenodd" clip-rule="evenodd" fill="#FA701D" d="M92.467,354.975l7.141-117.524
	c-5.288,5.896-9.848,11.681-13.778,17.306l-12.355-8.69c7.266-10.298,16.605-20.787,28.606-30.876l54.414,24.734l9.893,15.06
	l12.367-15.06l42.129-8.851l14.758,125.099L92.467,354.975z"/>
<ellipse transform="matrix(0.9398 -0.3418 0.3418 0.9398 -33.1444 70.6156)" fill-rule="evenodd" clip-rule="evenodd" fill="#402517" cx="183.823" cy="129.366" rx="10.101" ry="16.077"/>
<ellipse transform="matrix(0.2143 0.9768 -0.9768 0.2143 298.5178 -139.5745)" fill-rule="evenodd" clip-rule="evenodd" fill="#402517" cx="236.014" cy="115.761" rx="14.063" ry="9.893"/>
<path fill-rule="evenodd" clip-rule="evenodd" fill="#402517" d="M223.276,168.197c-14.299,2.043-29.68,0-29.68,0
	s1.122,26.184,27.207,24.734c26.085-1.45,24.734-32.154,24.734-32.154S234.597,166.58,223.276,168.197z"/>
<g>
	<circle fill-rule="evenodd" clip-rule="evenodd" fill="#922B00" cx="163.693" cy="270.688" r="2.77"/>
	<circle fill-rule="evenodd" clip-rule="evenodd" fill="#922B00" cx="157.198" cy="258.455" r="2.77"/>
</g>
<path fill-rule="evenodd" clip-rule="evenodd" fill="#FFE1C9" d="M384.051,266.454c2.896-4.492-0.947-29.406-7.055-26.049
	c-6.109,3.357-31.841,20.047-31.841,20.047s-39.035,21.718-73.158,7.473c-5.747-2.399-18.426-12.025-29.928-21.246
	c-8.664-6.945-16.877,7.868-8.827,14.039c12.799,9.811,27.934,20.65,35.146,22.627c36.886,10.111,78.687-7.368,78.687-7.368
	S381.155,270.946,384.051,266.454z"/>
<polygon fill-rule="evenodd" clip-rule="evenodd" fill="#922B00" points="141.882,257.904 156.495,239.924 116.337,221.671 "/>
<polygon fill-rule="evenodd" clip-rule="evenodd" fill="#922B00" points="187.945,257.904 178.756,239.924 213.576,232.609 "/>
<g>
	
		<rect x="315.385" y="226.652" transform="matrix(-0.1029 -0.9947 0.9947 -0.1029 164.3274 625.1396)" fill-rule="evenodd" clip-rule="evenodd" fill="#FBB100" width="97.386" height="23.625"/>
	<path fill-rule="evenodd" clip-rule="evenodd" fill="#FBB100" d="M380.836,285.684l0.139,1.343
		c0.671,6.489-4.046,12.294-10.535,12.965l0,0c-6.489,0.671-12.294-4.046-12.965-10.535l-0.139-1.343L380.836,285.684z"/>
</g>
<path fill-rule="evenodd" clip-rule="evenodd" fill="#FFE1C9" d="M342.832,261.643c0,0,6.101-19.482,13.958-17.589
	c7.857,1.893-7.763,23.641-7.763,23.641L342.832,261.643z"/>
<path fill-rule="evenodd" clip-rule="evenodd" fill="#FFE1C9" d="M85.83,254.757c-21.992,31.479-24.211,57.917-23.642,70.63
	c0,0,13.318,7.667,12.418,11.717c-0.9,4.05-11.483-3.6-11.483-3.6s5.408,22.95,4.058,25.425s-21.825-4.725-22.95-8.775
	s4.05-27.482,4.05-27.482s-2.838-36.875,25.194-76.605L85.83,254.757z"/>
<path fill-rule="evenodd" clip-rule="evenodd" fill="#FA701D" d="M242.069,246.679c-8.664-6.945-16.66-13.66-20.521-16.883
	l-7.134,16.09c3.651,2.897,10.778,8.661,18.829,14.832L242.069,246.679z"/>
<circle fill-rule="evenodd" clip-rule="evenodd" fill="#FBB100" cx="353.619" cy="111.561" r="84.6"/>
<path fill="#FFFFFF" d="M380.038,149.173l-53.031,6.756c-6.497,0.828-12.459-3.794-13.288-10.299l-5.014-39.357
	c-0.273-2.141,0.062-4.339,0.966-6.359c0.795-2.029,2.346-3.868,4.42-5.134c0.338-0.227,0.816-0.487,1.321-0.727l0.495-0.223
	c1.053-0.446,2.051-0.728,3.08-0.859c4.792-0.898,10.522-4.738,19.558-13.218c2.867-2.693,4.59-5.742,6.253-8.697
	c2.589-4.593,5.269-9.342,11.643-10.665l0.532-0.084c2.663-0.339,6.754,0.277,10.245,3.018c2.884,2.267,4.628,5.458,5.055,9.224
	c0.158,0.894,0.665,3.875-0.471,13.693l12.001-1.529c7.582-0.966,14.536,4.424,15.503,12.017c0.475,3.728-0.57,7.402-2.845,10.291
	c0.193,0.666,0.334,1.339,0.421,2.018c0.475,3.728-0.57,7.402-2.845,10.291c0.193,0.666,0.334,1.339,0.421,2.018
	c0.475,3.728-0.57,7.402-2.845,10.291c0.193,0.666,0.334,1.339,0.421,2.018C393.001,141.247,387.616,148.208,380.038,149.173z
	 M357.974,68.168c-2.656,0.55-3.914,2.59-6.281,6.784c-1.771,3.144-3.98,7.054-7.726,10.577c-8.65,8.12-16.003,13.823-23.756,15.266
	c-0.51,0.069-0.841,0.171-1.268,0.353c-0.29,0.137-0.451,0.221-0.606,0.321c-0.729,0.448-1.13,0.91-1.367,1.519
	c-0.384,0.867-0.497,1.58-0.408,2.283l5.014,39.357c0.277,2.176,2.266,3.719,4.431,3.444l53.031-6.756
	c3.249-0.414,5.555-3.402,5.14-6.659c-0.087-0.68-0.315-1.373-0.681-2.053l-1.53-2.859l2.496-2.062
	c1.597-1.317,2.397-3.311,2.139-5.334c-0.088-0.687-0.309-1.362-0.68-2.049l-1.525-2.856l2.496-2.062
	c1.592-1.321,2.392-3.315,2.134-5.342c-0.088-0.687-0.309-1.362-0.68-2.049l-1.525-2.856l2.496-2.062
	c1.592-1.321,2.392-3.315,2.134-5.342c-0.415-3.26-3.397-5.575-6.646-5.161l-22.234,2.832l0.723-5.138
	c1.621-11.496,1.338-15.444,1.138-16.608c-0.22-1.884-0.896-3.151-2.107-4.099C360.775,68.338,358.831,68.059,357.974,68.168z"/>
<path fill-rule="evenodd" clip-rule="evenodd" fill="#FFFFFF" d="M218.9,479.066c6.955,0.606,13.989,0.934,21.1,0.934
	c8.377,0,16.652-0.432,24.808-1.27H218.9V479.066z"/>
<path fill-rule="evenodd" clip-rule="evenodd" d="M285.172,475.737c-6.907-21.921-37.4-17.507-37.4-17.507H218.9v20.5h45.908
	C271.688,478.024,278.476,477.012,285.172,475.737z"/>
<path fill-rule="evenodd" clip-rule="evenodd" fill="#0050A0" d="M235.643,355.173l-143.176-1.198l-9.469,67.552
	c8.285,7.172,17.071,13.79,26.29,19.788c2.62-18.681,12.555-51.663,49.738-55.082c52.883-4.863,59.873,71.997,59.873,71.997h28.873
	L235.643,355.173z"/>
</svg>
