<?xml version="1.0" encoding="utf-8"?>
<!-- Generator: Adobe Illustrator 17.0.0, SVG Export Plug-In . SVG Version: 6.00 Build 0)  -->
<!DOCTYPE svg PUBLIC "-//W3C//DTD SVG 1.1//EN" "http://www.w3.org/Graphics/SVG/1.1/DTD/svg11.dtd">
<svg version="1.1" id="Livello_1" xmlns="http://www.w3.org/2000/svg" xmlns:xlink="http://www.w3.org/1999/xlink" x="0px" y="0px"
	 width="60px" height="60px" viewBox="0 0 60 60" enable-background="new 0 0 60 60" xml:space="preserve">
<g>
	<path fill-rule="evenodd" clip-rule="evenodd" fill="#0050A0" d="M30,0c16.569,0,30,13.432,30,30S46.569,60,30,60S0,46.569,0,30
		S13.432,0,30,0z"/>
	<path fill-rule="evenodd" clip-rule="evenodd" fill="#5EAAA1" d="M30,2c15.464,0,28,12.536,28,28S45.464,58,30,58S2,45.464,2,30
		S14.536,2,30,2z"/>
	<path fill-rule="evenodd" clip-rule="evenodd" fill="#FFFFFF" d="M27.495,46h-4c-0.551,0-1,0.449-1,1s0.449,1,1,1h4
		c0.551,0,1-0.449,1-1S28.046,46,27.495,46z"/>
	<path fill-rule="evenodd" clip-rule="evenodd" fill="#FFFFFF" d="M47,29.008c0.551,0,1-0.449,1-1v-1C48,25.717,47.637,24,44.495,24
		h-1c-0.551,0-1,0.449-1,1s0.449,1,1,1h0.828l0.17-0.076L44.991,26h0.417l0.296,0.178C46.005,26.481,46,26.711,46,26.898v1.11
		C46,28.56,46.449,29.008,47,29.008z"/>
	<path fill-rule="evenodd" clip-rule="evenodd" fill="#FFFFFF" d="M16.495,48h1c0.551,0,1-0.449,1-1s-0.449-1-1-1h-1
		C15.207,46,14,43.943,14,43.008v-1c0-0.551-0.449-1-1-1s-1,0.449-1,1v1C12,45.341,14.395,48,16.495,48z"/>
	<path fill-rule="evenodd" clip-rule="evenodd" fill="#FFFFFF" d="M43.495,46c-0.551,0-1,0.449-1,1s0.449,1,1,1h1
		C46.561,48,48,45.369,48,43.008v-1c0-0.551-0.449-1-1-1s-1,0.449-1,1l0,1.117c0.005,0.997-0.036,1.938-0.583,2.488
		C45.169,45.862,44.841,46,44.495,46H43.495z"/>
	<path fill-rule="evenodd" clip-rule="evenodd" fill="#FFFFFF" d="M37.495,24h-4c-0.551,0-1,0.449-1,1s0.449,1,1,1h4
		c0.551,0,1-0.449,1-1S38.046,24,37.495,24z"/>
	<path fill-rule="evenodd" clip-rule="evenodd" fill="#FFFFFF" d="M47,37.008c0.551,0,1-0.449,1-1v-2c0-0.551-0.449-1-1-1
		s-1,0.449-1,1v2C46,36.56,46.449,37.008,47,37.008z"/>
	<path fill-rule="evenodd" clip-rule="evenodd" fill="#FFFFFF" d="M37.495,46h-4c-0.551,0-1,0.449-1,1s0.449,1,1,1h4
		c0.551,0,1-0.449,1-1S38.046,46,37.495,46z"/>
	<path fill-rule="evenodd" clip-rule="evenodd" fill="#FFFFFF" d="M22.608,26.409c2.065,2.296,4.354,4.767,6.129,6.484
		c4.241,4.103,8.566,0.008,8.566,0.008l-11.75-8.795l12.134-9.494c0,0-4.28-4.205-8.478,0.008c-1.906,1.913-4.41,4.758-6.58,7.298
		l-3.084-2.308c0.471-0.763,0.757-1.652,0.757-2.613c0-2.757-2.243-5-5-5c-2.757,0-5,2.243-5,5c0,2.757,2.243,5,5,5
		c0.998,0,1.924-0.301,2.705-0.807c0.601,0.695,1.544,1.781,2.661,3.045c-1.036,1.236-1.867,2.243-2.339,2.818
		c-0.843-0.647-1.885-1.047-3.027-1.047c-2.757,0-5,2.241-5,4.996c0,2.755,2.243,4.996,5,4.996c2.757,0,5-2.241,5-4.996
		c0-0.842-0.229-1.623-0.599-2.32L22.608,26.409z M12.303,16.995c0-1.657,1.343-3,3-3c1.657,0,3,1.343,3,3c0,1.657-1.343,3-3,3
		C13.646,19.995,12.303,18.652,12.303,16.995z M15.303,33.996c-1.657,0-3-1.341-3-2.996c0-1.655,1.343-2.996,3-2.996
		c1.657,0,3,1.341,3,2.996C18.303,32.655,16.96,33.996,15.303,33.996z"/>
</g>
</svg>
