<?xml version="1.0" encoding="utf-8"?>
<!-- Generator: Adobe Illustrator 17.0.0, SVG Export Plug-In . SVG Version: 6.00 Build 0)  -->
<!DOCTYPE svg PUBLIC "-//W3C//DTD SVG 1.1//EN" "http://www.w3.org/Graphics/SVG/1.1/DTD/svg11.dtd">
<svg version="1.1" id="Livello_1" xmlns="http://www.w3.org/2000/svg" xmlns:xlink="http://www.w3.org/1999/xlink" x="0px" y="0px"
	 width="20px" height="26px" viewBox="0 0 20 26" enable-background="new 0 0 20 26" xml:space="preserve">
<g>
	<path fill-rule="evenodd" clip-rule="evenodd" fill="#FFFFFF" d="M18,9h-2V6c0-3.314-2.686-6-6-6S4,2.686,4,6v3H2
		c-1.105,0-2,0.896-2,2v13c0,1.105,0.895,2,2,2h16c1.105,0,2-0.896,2-2V11C20,9.896,19.105,9,18,9z M6,6c0-2.209,1.791-4,4-4
		s4,1.791,4,4v3H6V6z M18,23c0,0.553-0.448,1-1,1H3c-0.552,0-1-0.447-1-1V12c0-0.552,0.448-1,1-1h14c0.552,0,1,0.448,1,1V23z"/>
	<path fill-rule="evenodd" clip-rule="evenodd" fill="#FFFFFF" d="M10,14c-1.105,0-2,0.895-2,2c0,0.738,0.405,1.376,1,1.723V20
		c0,0.552,0.448,1,1,1s1-0.448,1-1v-2.277c0.595-0.346,1-0.984,1-1.723C12,14.895,11.105,14,10,14z"/>
</g>
</svg>
