<?xml version="1.0" encoding="utf-8"?>
<!-- Generator: Adobe Illustrator 17.0.0, SVG Export Plug-In . SVG Version: 6.00 Build 0)  -->
<!DOCTYPE svg PUBLIC "-//W3C//DTD SVG 1.1//EN" "http://www.w3.org/Graphics/SVG/1.1/DTD/svg11.dtd">
<svg version="1.1" id="Livello_1" xmlns="http://www.w3.org/2000/svg" xmlns:xlink="http://www.w3.org/1999/xlink" x="0px" y="0px"
	 width="64px" height="64px" viewBox="0 0 64 64" enable-background="new 0 0 64 64" xml:space="preserve">
<g>
	<path fill-rule="evenodd" clip-rule="evenodd" fill="#FFFFFF" d="M58.901,44.389c3.117-4.19,4.758-9.006,4.758-13.985
		c0-14.561-14.054-26.408-31.33-26.408C15.054,3.997,1,15.843,1,30.404c0,14.562,14.054,26.408,31.33,26.408
		c2.958,0,5.925-0.364,8.827-1.083l14.377,4.795c0.479,0.16,0.977,0.241,1.481,0.241c1.18,0,2.307-0.44,3.179-1.244
		c1.246-1.158,1.764-2.899,1.352-4.544L58.901,44.389z M57.678,56.829c-0.258,0.239-0.633,0.323-0.97,0.21l-15.421-5.143
		l-0.535,0.141c-2.765,0.73-5.599,1.1-8.423,1.1c-15.239,0-27.636-10.198-27.636-22.733c0-12.535,12.398-22.732,27.636-22.732
		S59.966,17.87,59.966,30.404c0,4.43-1.562,8.726-4.517,12.426l-0.566,0.708l3.079,12.325
		C58.049,56.216,57.939,56.587,57.678,56.829z"/>
	<path fill-rule="evenodd" clip-rule="evenodd" fill="#FFFFFF" d="M44.2,23.4h-2.8v-4.2c0-4.639-3.761-8.4-8.4-8.4
		s-8.4,3.761-8.4,8.4v4.2h-2.8c-1.547,0-2.8,1.254-2.8,2.8v18.2c0,1.547,1.253,2.8,2.8,2.8h22.4c1.546,0,2.8-1.254,2.8-2.8V26.2
		C47,24.654,45.746,23.4,44.2,23.4z M27.4,19.2c0-3.093,2.507-5.6,5.6-5.6s5.6,2.507,5.6,5.6v4.2H27.4V19.2z M44.2,43
		c0,0.773-0.627,1.4-1.4,1.4H23.2c-0.773,0-1.4-0.627-1.4-1.4V27.6c0-0.773,0.627-1.4,1.4-1.4h19.6c0.773,0,1.4,0.627,1.4,1.4V43z"
		/>
	<path fill-rule="evenodd" clip-rule="evenodd" fill="#FFFFFF" d="M33.685,30.511c-1.58,0-2.86,1.259-2.86,2.811
		c0,1.038,0.579,1.934,1.43,2.421v3.201c0,0.776,0.64,1.406,1.43,1.406c0.79,0,1.43-0.629,1.43-1.406v-3.201
		c0.851-0.487,1.43-1.383,1.43-2.422C36.545,31.77,35.265,30.511,33.685,30.511z"/>
</g>
</svg>
