<?xml version="1.0" encoding="utf-8"?>
<!-- Generator: Adobe Illustrator 17.0.0, SVG Export Plug-In . SVG Version: 6.00 Build 0)  -->
<!DOCTYPE svg PUBLIC "-//W3C//DTD SVG 1.1//EN" "http://www.w3.org/Graphics/SVG/1.1/DTD/svg11.dtd">
<svg version="1.1" id="Livello_1" xmlns="http://www.w3.org/2000/svg" xmlns:xlink="http://www.w3.org/1999/xlink" x="0px" y="0px"
	 width="10.25px" height="12.25px" viewBox="0 0 10.25 12.25" enable-background="new 0 0 10.25 12.25" xml:space="preserve">
<g>
	<path fill="#0050a0" d="M9.125,4H8.25V3.125C8.25,1.402,6.848,0,5.125,0S2,1.402,2,3.125V4H1.125C0.505,4,0,4.505,0,5.125v6
		c0,0.62,0.505,1.125,1.125,1.125h8c0.62,0,1.125-0.505,1.125-1.125v-6C10.25,4.505,9.745,4,9.125,4z M5.125,1.25
		C6.159,1.25,7,2.091,7,3.125V4H3.25V3.125C3.25,2.091,4.091,1.25,5.125,1.25z M9,5.25V11H1.25V5.25H9z"/>
	<path fill="#0050a0" d="M4.5,8.041v1.584c0,0.345,0.28,0.625,0.625,0.625S5.75,9.97,5.75,9.625V8.041
		c0.314-0.212,0.5-0.55,0.5-0.916C6.25,6.505,5.745,6,5.125,6S4,6.505,4,7.125C4,7.491,4.186,7.828,4.5,8.041z"/>
</g>
</svg>
