<?xml version="1.0" encoding="utf-8"?>
<!-- Generator: Adobe Illustrator 17.0.0, SVG Export Plug-In . SVG Version: 6.00 Build 0)  -->
<!DOCTYPE svg PUBLIC "-//W3C//DTD SVG 1.1//EN" "http://www.w3.org/Graphics/SVG/1.1/DTD/svg11.dtd">
<svg version="1.1" id="Livello_1" xmlns="http://www.w3.org/2000/svg" xmlns:xlink="http://www.w3.org/1999/xlink" x="0px" y="0px"
	 width="60px" height="60px" viewBox="0 0 60 60" enable-background="new 0 0 60 60" xml:space="preserve">
<path fill="#BBBBBB" d="M30,0c16.569,0,30,13.432,30,30S46.569,60,30,60S0,46.569,0,30S13.432,0,30,0z"/>
<path fill="#C4C4C2" d="M30,3c14.912,0,27,12.088,27,27S44.912,57,30,57S3,44.912,3,30S15.088,3,30,3z"/>
<path fill="#FFFFFF" d="M40.4,45.429H19.6c-1.323,0-2.4-1.077-2.4-2.4V30.092c-0.944-0.334-1.6-1.239-1.6-2.263v-5.6
	c0-1.323,1.077-2.4,2.4-2.4h3.592c-0.406-0.539-0.747-1.21-0.773-1.961c-0.035-1.005,0.47-1.906,1.501-2.679
	c0.547-0.411,1.156-0.619,1.81-0.619c2.536,0,5.005,3.262,6.079,4.888c0.97-1.468,3.138-4.356,5.43-4.821
	c0.896-0.179,1.733,0.008,2.459,0.552c1.031,0.773,1.536,1.674,1.501,2.679c-0.026,0.75-0.367,1.421-0.773,1.961H42
	c1.323,0,2.4,1.077,2.4,2.4v5.6c0,1.024-0.656,1.928-1.6,2.263V43.03C42.8,44.353,41.723,45.429,40.4,45.429z M34.8,43.829h5.6
	c0.441,0,0.8-0.359,0.8-0.8v-12.8h-6.4C34.8,30.229,34.8,43.829,34.8,43.829z M26.8,43.829h6.4v-22.4h-6.4
	C26.8,21.429,26.8,43.829,26.8,43.829z M18.8,30.229v12.8c0,0.441,0.359,0.8,0.8,0.8h5.6v-13.6C25.2,30.229,18.8,30.229,18.8,30.229
	z M34.8,28.629H42c0.441,0,0.8-0.359,0.8-0.8v-5.6c0-0.441-0.359-0.8-0.8-0.8h-7.2V28.629z M18,21.429c-0.441,0-0.8,0.359-0.8,0.8
	v5.6c0,0.441,0.359,0.8,0.8,0.8h7.2v-7.2H18z M31.899,19.829h4.662c0.385-0.29,1.408-1.142,1.438-2.018
	c0.015-0.45-0.275-0.902-0.862-1.343c-0.362-0.271-0.744-0.353-1.18-0.264C34.447,16.511,32.766,18.608,31.899,19.829z
	 M23.856,19.829h4.67c-1.28-1.805-3.054-3.659-4.395-3.659c-0.309,0-0.579,0.095-0.851,0.298c-0.587,0.441-0.877,0.892-0.862,1.342
	C22.448,18.685,23.471,19.538,23.856,19.829z"/>
</svg>
