<?xml version="1.0" encoding="utf-8"?>
<!-- Generator: Adobe Illustrator 17.0.0, SVG Export Plug-In . SVG Version: 6.00 Build 0)  -->
<!DOCTYPE svg PUBLIC "-//W3C//DTD SVG 1.1//EN" "http://www.w3.org/Graphics/SVG/1.1/DTD/svg11.dtd">
<svg version="1.1" id="Livello_1" xmlns="http://www.w3.org/2000/svg" xmlns:xlink="http://www.w3.org/1999/xlink" x="0px" y="0px"
	 width="84px" height="84px" viewBox="0 0 84 84" enable-background="new 0 0 84 84" xml:space="preserve">
<path fill-rule="evenodd" clip-rule="evenodd" fill="#0050a0" d="M42,0c23.196,0,42,18.804,42,42S65.196,84,42,84S0,65.196,0,42
	S18.804,0,42,0z"/>
<path fill-rule="evenodd" clip-rule="evenodd" fill="#63A8A0" d="M42,3c21.539,0,39,17.461,39,39S63.539,81,42,81S3,63.539,3,42
	S20.461,3,42,3z"/>
<g>
	
		<rect x="42.287" y="26.528" transform="matrix(0.6428 0.766 -0.766 0.6428 37.3164 -22.9696)" fill-rule="evenodd" clip-rule="evenodd" fill="#FFFFFF" width="2" height="4"/>
	
		<rect x="44.172" y="53.665" transform="matrix(-0.6428 -0.766 0.766 -0.6428 31.5656 126.05)" fill-rule="evenodd" clip-rule="evenodd" fill="#FFFFFF" width="2" height="4"/>
	
		<rect x="50.3" y="48.523" transform="matrix(-0.6428 -0.766 0.766 -0.6428 45.5725 122.297)" fill-rule="evenodd" clip-rule="evenodd" fill="#FFFFFF" width="2" height="4"/>
	
		<rect x="36.159" y="31.67" transform="matrix(0.6428 0.766 -0.766 0.6428 39.0655 -16.4382)" fill-rule="evenodd" clip-rule="evenodd" fill="#FFFFFF" width="2" height="4"/>
	<path fill-rule="evenodd" clip-rule="evenodd" fill="#FFFFFF" d="M37.635,60.684c-0.423,0.355-1.054,0.3-1.409-0.123l-1.928-2.298
		l-1.532,1.286l2.571,3.064c0.71,0.846,1.972,0.957,2.818,0.247l3.064-2.571l-1.286-1.532L37.635,60.684z"/>
	<path fill-rule="evenodd" clip-rule="evenodd" fill="#FFFFFF" d="M65.979,36.901l-2.571-3.064l-1.532,1.286l1.928,2.298
		c0.355,0.423,0.3,1.054-0.123,1.409l-2.298,1.928l1.286,1.532l3.064-2.571C66.578,39.009,66.688,37.747,65.979,36.901z"/>
	<path fill-rule="evenodd" clip-rule="evenodd" fill="#FFFFFF" d="M53.123,21.58c-0.71-0.846-1.971-0.957-2.818-0.247l-3.064,2.571
		l1.286,1.532l2.298-1.928c0.423-0.355,1.054-0.3,1.409,0.123l1.928,2.298l1.532-1.286L53.123,21.58z"/>
	
		<rect x="56.429" y="43.381" transform="matrix(-0.6428 -0.766 0.766 -0.6428 59.5791 118.5439)" fill-rule="evenodd" clip-rule="evenodd" fill="#FFFFFF" width="2" height="4"/>
	
		<rect x="56.785" y="28.884" transform="matrix(-0.6428 -0.766 0.766 -0.6428 73.6789 94.1239)" fill-rule="evenodd" clip-rule="evenodd" fill="#FFFFFF" width="4" height="2"/>
	<path fill-rule="evenodd" clip-rule="evenodd" fill="#FFFFFF" d="M35.276,37.836l-0.914,5.895c1.269,0.134,2.497,0.217,3.588,0.216
		c5.641-0.008,6.894-5.785,6.894-5.785L35.276,37.836z"/>
	<path fill-rule="evenodd" clip-rule="evenodd" fill="#FFFFFF" d="M24.11,36.787c-1.775-2.115-4.929-2.391-7.044-0.616
		c-2.115,1.775-2.391,4.929-0.616,7.044s4.929,2.391,7.044,0.616C25.609,42.056,25.885,38.903,24.11,36.787z M21.565,41.533
		c-0.846,0.71-2.108,0.6-2.818-0.247c-0.71-0.846-0.6-2.108,0.247-2.818c0.846-0.71,2.108-0.6,2.818,0.246
		C22.522,39.562,22.411,40.823,21.565,41.533z"/>
	<path fill-rule="evenodd" clip-rule="evenodd" fill="#FFFFFF" d="M31.823,45.98c-0.177-0.211-0.377-0.39-0.579-0.564l3.071-19.803
		c0,0-5.846,0.304-6.894,5.785c-0.758,3.964-0.728,9.948-0.653,12.965c-0.708,0.179-1.391,0.499-1.988,1
		c-2.115,1.775-2.391,4.929-0.616,7.044c1.775,2.115,4.929,2.391,7.044,0.616C33.322,51.249,33.598,48.095,31.823,45.98z
		 M29.279,50.726c-0.846,0.71-2.108,0.6-2.818-0.247c-0.71-0.846-0.6-2.108,0.247-2.818c0.846-0.71,2.108-0.6,2.818,0.246
		C30.235,48.754,30.125,50.016,29.279,50.726z"/>
</g>
</svg>
