<?xml version="1.0" encoding="utf-8"?>
<!-- Generator: Adobe Illustrator 17.0.0, SVG Export Plug-In . SVG Version: 6.00 Build 0)  -->
<!DOCTYPE svg PUBLIC "-//W3C//DTD SVG 1.1//EN" "http://www.w3.org/Graphics/SVG/1.1/DTD/svg11.dtd">
<svg version="1.1" id="Livello_1" xmlns="http://www.w3.org/2000/svg" xmlns:xlink="http://www.w3.org/1999/xlink" x="0px" y="0px"
	 width="60px" height="60px" viewBox="0 0 60 60" enable-background="new 0 0 60 60" xml:space="preserve">
<path fill-rule="evenodd" clip-rule="evenodd" fill="#0050A0" d="M30,0c16.569,0,30,13.432,30,30S46.569,60,30,60S0,46.569,0,30
	S13.432,0,30,0z"/>
<path fill-rule="evenodd" clip-rule="evenodd" fill="#5EAAA1" d="M30,2c15.464,0,28,12.536,28,28S45.464,58,30,58S2,45.464,2,30
	S14.536,2,30,2z"/>
<path fill="#FFFFFF" d="M39,34.001l0.374-0.3C42.95,30.832,45,26.567,45,22c0-8.271-6.729-15-15-15s-15,6.729-15,15
	c0,4.567,2.05,8.832,5.626,11.701l0.374,0.3V44c0,1.068,0.562,2.033,1.503,2.581L23,46.87V48c0,2.757,2.243,5,5,5h4
	c2.757,0,5-2.243,5-5v-1.13l0.497-0.289C38.438,46.033,39,45.068,39,44V34.001z M35,48c0,1.654-1.346,3-3,3h-4c-1.654,0-3-1.346-3-3
	v-1h10V48z M37,45H23v-4h14V45z M37.427,32.66C37.16,32.847,37,33.154,37,33.48V39h-6V26.976l0.835-0.14
	c2.267-0.378,4.322-1.437,5.943-3.059c0.39-0.39,0.389-1.024,0-1.414c-0.378-0.378-1.037-0.378-1.415,0
	c-1.625,1.627-3.944,2.561-6.363,2.561s-4.738-0.934-6.364-2.561c-0.377-0.377-1.037-0.377-1.415,0c-0.39,0.39-0.39,1.024,0,1.415
	c1.622,1.622,3.677,2.68,5.943,3.059L29,26.976V39h-6v-5.52c0-0.327-0.16-0.634-0.428-0.822C19.083,30.223,17,26.238,17,22
	c0-7.168,5.832-13,13-13s13,5.832,13,13C43,26.238,40.917,30.223,37.427,32.66z"/>
</svg>
