<?xml version="1.0" encoding="utf-8"?>
<!-- Generator: Adobe Illustrator 17.0.0, SVG Export Plug-In . SVG Version: 6.00 Build 0)  -->
<!DOCTYPE svg PUBLIC "-//W3C//DTD SVG 1.1//EN" "http://www.w3.org/Graphics/SVG/1.1/DTD/svg11.dtd">
<svg version="1.1" id="Livello_1" xmlns="http://www.w3.org/2000/svg" xmlns:xlink="http://www.w3.org/1999/xlink" x="0px" y="0px"
	 width="60px" height="60px" viewBox="0 0 60 60" enable-background="new 0 0 60 60" xml:space="preserve">
<path fill="#BBBBBB" d="M30,0c16.569,0,30,13.432,30,30S46.569,60,30,60S0,46.569,0,30S13.432,0,30,0z"/>
<path fill="#C4C4C2" d="M30,3c14.912,0,27,12.088,27,27S44.912,57,30,57S3,44.912,3,30S15.088,3,30,3z"/>
<path fill="#FFFFFF" d="M48.219,20.646c-0.266-0.315-0.657-0.496-1.069-0.496h-5.417c0.107-1.34,0.166-2.717,0.168-4.129
	c0.001-0.024,0.002-0.047,0.002-0.071c0-0.773-0.625-1.4-1.398-1.4H40.5h-21c-0.773,0-1.4,0.627-1.4,1.4
	c0,1.436,0.06,2.837,0.169,4.2h-5.418c-0.412,0-0.803,0.182-1.069,0.496c-0.266,0.315-0.38,0.731-0.311,1.137
	c1.501,8.873,7.385,15.67,14.648,17.484c0.404,0.28,0.819,0.517,1.243,0.708c-0.691,1.862-1.983,3.166-3.484,3.263
	c-0.045-0.004-0.093-0.007-0.145-0.007c-1.163,0-2.109,0.946-2.109,2.109c0,1.047,0.766,1.92,1.783,2.078
	c0.095,0.02,0.193,0.031,0.294,0.031h12.6c0.006,0,0.011,0,0.017,0c0.005,0,0.011,0,0.016,0c1.163,0,2.109-0.946,2.109-2.109
	c0-1.163-0.946-2.109-2.109-2.109c-0.067,0-0.128,0.004-0.184,0.011c-1.485-0.084-2.794-1.407-3.498-3.272
	c0.42-0.191,0.831-0.426,1.232-0.703c7.262-1.815,13.145-8.611,14.646-17.484C48.598,21.377,48.485,20.961,48.219,20.646z
	 M40.5,15.95c0,12.822-4.701,23.217-10.5,23.217S19.5,28.772,19.5,15.95H40.5z M12.851,21.55h5.55
	c0.709,6.536,2.638,12.007,5.29,15.378C18.2,34.38,14.046,28.615,12.851,21.55z M36.257,44.647c0.026-0.003,0.049-0.015,0.076-0.015
	c0.392,0,0.709,0.317,0.709,0.709s-0.317,0.709-0.709,0.709c-0.012,0-0.021-0.006-0.033-0.007v0.007H23.7v-0.007
	c-0.376-0.018-0.676-0.322-0.676-0.702c0-0.392,0.317-0.709,0.709-0.709c0.021,0,0.038,0.01,0.059,0.012
	c2.143-0.048,3.987-1.754,4.897-4.222c0.43,0.093,0.867,0.145,1.311,0.145s0.881-0.051,1.311-0.145
	C32.228,42.91,34.093,44.624,36.257,44.647z M36.309,36.929c2.652-3.371,4.582-8.842,5.291-15.379h5.55
	C45.954,28.615,41.799,34.381,36.309,36.929z"/>
</svg>
