<?xml version="1.0" encoding="utf-8"?>
<!-- Generator: Adobe Illustrator 17.0.0, SVG Export Plug-In . SVG Version: 6.00 Build 0)  -->
<!DOCTYPE svg PUBLIC "-//W3C//DTD SVG 1.1//EN" "http://www.w3.org/Graphics/SVG/1.1/DTD/svg11.dtd">
<svg version="1.1" id="Livello_1" xmlns="http://www.w3.org/2000/svg" xmlns:xlink="http://www.w3.org/1999/xlink" x="0px" y="0px"
	 width="34px" height="34px" viewBox="0 0 34 34" enable-background="new 0 0 34 34" xml:space="preserve">
<g>
	<path fill="#DDDCDA" d="M17,0c9.389,0,17,7.611,17,17s-7.611,17-17,17S0,26.389,0,17S7.611,0,17,0z"/>
	<path fill-rule="evenodd" clip-rule="evenodd" fill="#FFFFFF" d="M17,2c8.284,0,15,6.716,15,15s-6.716,15-15,15S2,25.284,2,17
		S8.716,2,17,2z"/>
	<g>
		<circle fill-rule="evenodd" clip-rule="evenodd" fill="#DDDCDA" cx="17" cy="25" r="2"/>
		<path fill-rule="evenodd" clip-rule="evenodd" fill="#DDDCDA" d="M17,7c-1.105,0-2,0.895-2,2c0,0.326,0,0.801,0,1.5
			c0,3,1.438,10.5,2,10.5s2-7.521,2-10.5c0-0.7,0-1.175,0-1.5C19,7.895,18.105,7,17,7z"/>
	</g>
</g>
</svg>
