<?xml version="1.0" encoding="utf-8"?>
<!-- Generator: Adobe Illustrator 17.0.0, SVG Export Plug-In . SVG Version: 6.00 Build 0)  -->
<!DOCTYPE svg PUBLIC "-//W3C//DTD SVG 1.1//EN" "http://www.w3.org/Graphics/SVG/1.1/DTD/svg11.dtd">
<svg version="1.1" id="Livello_1" xmlns="http://www.w3.org/2000/svg" xmlns:xlink="http://www.w3.org/1999/xlink" x="0px" y="0px"
	 width="24px" height="24px" viewBox="0 0 24 24" enable-background="new 0 0 24 24" xml:space="preserve">
<path fill="#004594" d="M23.402,8.5C22.752,6.884,22,5.779,20,5.207V3.934C20,3.437,19.939,3,19.442,3h-8.909
	c-0.239,0-0.468,0.112-0.636,0.281L2.26,10.926c-0.34,0.34-0.527,0.796-0.527,1.277c0,0.481,0.187,0.935,0.527,1.275l7.637,7.638
	c0.34,0.34,0.792,0.528,1.273,0.528s0.933-0.187,1.273-0.527l5.835-5.835c0.121,0.031,0.245,0.077,0.363,0.099
	c0.33,0.061,0.666,0.092,0.997,0.092c1.502,0,2.595-0.641,3.519-1.959C24.132,12.121,24.161,10.388,23.402,8.5z M11.169,19.844
	L3.532,12.29L10.906,5H18v2.429v0.712v1.298c0-0.426-0.523-1.022-0.699-1.713c-0.308-1.206-1.247-2.049-2.479-2.049
	c-0.248,0-0.4,0.025-0.604,0.078c-0.697,0.178-1.25,0.615-1.617,1.233c-0.368,0.62-0.456,1.346-0.279,2.043
	c0.65,2.553,2.349,4.452,4.15,5.502L11.169,19.844z M21.993,12.48c-0.544,0.776-1.38,1.192-2.355,1.192
	c-0.218,0-0.442-0.021-0.671-0.063c-1.879-0.344-4.159-2.181-4.883-5.024c-0.123-0.482,0.169-0.972,0.65-1.094
	c0.48-0.124,0.971,0.168,1.094,0.65c0.512,2.011,2.162,3.459,3.462,3.698c0.561,0.101,0.973-0.03,1.228-0.392
	c0.346-0.494,0.229-1.018-0.007-1.604C20.423,9.621,20,9.419,20,9.239V8.588V8.547v-1.69c1,0.424,1.759,1.261,2.182,2.314
	C22.642,10.317,22.685,11.492,21.993,12.48z"/>
</svg>
