<?xml version="1.0" encoding="utf-8"?>
<!-- Generator: Adobe Illustrator 17.0.0, SVG Export Plug-In . SVG Version: 6.00 Build 0)  -->
<!DOCTYPE svg PUBLIC "-//W3C//DTD SVG 1.1//EN" "http://www.w3.org/Graphics/SVG/1.1/DTD/svg11.dtd">
<svg version="1.1" id="Livello_1" xmlns="http://www.w3.org/2000/svg" xmlns:xlink="http://www.w3.org/1999/xlink" x="0px" y="0px"
	 width="60px" height="60px" viewBox="0 0 60 60" enable-background="new 0 0 60 60" xml:space="preserve">
<path fill-rule="evenodd" clip-rule="evenodd" fill="#04519F" d="M30,0c16.569,0,30,13.432,30,30S46.569,60,30,60S0,46.569,0,30
	S13.432,0,30,0z"/>
<path fill-rule="evenodd" clip-rule="evenodd" fill="#F9B10B" d="M30,2c15.464,0,28,12.536,28,28S45.464,58,30,58S2,45.464,2,30
	S14.536,2,30,2z"/>
<g>
	<path fill-rule="evenodd" clip-rule="evenodd" fill="#FFFFFF" d="M15,30c0-8.284,6.716-15,15-15s15,6.716,15,15h3.98
		c-1.147-0.705-2.019-1.851-2.299-3.276c-0.286-1.455,0.106-2.875,0.936-3.971c-1.361-0.195-2.638-0.928-3.459-2.163
		c-0.821-1.235-1.002-2.697-0.655-4.027c-1.332,0.341-2.793,0.152-4.024-0.674c-1.231-0.827-1.958-2.108-2.146-3.47
		c-1.1,0.825-2.522,1.21-3.976,0.917c-1.454-0.293-2.616-1.198-3.311-2.384c-0.701,1.183-1.867,2.083-3.322,2.368
		c-1.455,0.286-2.875-0.106-3.971-0.936c-0.195,1.361-0.928,2.638-2.163,3.459c-1.235,0.821-2.697,1.002-4.027,0.655
		c0.341,1.332,0.152,2.793-0.674,4.024c-0.827,1.231-2.108,1.958-3.47,2.146c0.825,1.1,1.21,2.522,0.917,3.976
		c-0.293,1.454-1.198,2.616-2.384,3.311c0.024,0.014,0.046,0.031,0.069,0.046H15z"/>
	<path fill-rule="evenodd" clip-rule="evenodd" fill="#FFFFFF" d="M54,32H6c-0.552,0-1,0.448-1,1s0.448,1,1,1h48
		c0.552,0,1-0.448,1-1S54.552,32,54,32z"/>
	<path fill-rule="evenodd" clip-rule="evenodd" fill="#FFFFFF" d="M47,36H13c-0.552,0-1,0.448-1,1s0.448,1,1,1h34
		c0.552,0,1-0.448,1-1S47.552,36,47,36z"/>
	<path fill-rule="evenodd" clip-rule="evenodd" fill="#FFFFFF" d="M40,40H20c-0.552,0-1,0.448-1,1s0.448,1,1,1h20
		c0.552,0,1-0.448,1-1S40.552,40,40,40z"/>
	<path fill-rule="evenodd" clip-rule="evenodd" fill="#FFFFFF" d="M20,30h20c0-5.523-4.477-10-10-10S20,24.477,20,30z"/>
</g>
</svg>
