<?xml version="1.0" encoding="utf-8"?>
<!-- Generator: Adobe Illustrator 17.0.0, SVG Export Plug-In . SVG Version: 6.00 Build 0)  -->
<!DOCTYPE svg PUBLIC "-//W3C//DTD SVG 1.1//EN" "http://www.w3.org/Graphics/SVG/1.1/DTD/svg11.dtd">
<svg version="1.1" id="Livello_1" xmlns="http://www.w3.org/2000/svg" xmlns:xlink="http://www.w3.org/1999/xlink" x="0px" y="0px"
	 width="51.3px" height="122.334px" viewBox="0 0 51.3 122.334" enable-background="new 0 0 51.3 122.334" xml:space="preserve">
<path fill="#FFFFFF" d="M50.728,110.416c0.041-0.062,0.086-0.122,0.122-0.186c0.048-0.084,0.086-0.174,0.127-0.263
	c0.038-0.082,0.08-0.162,0.111-0.247c0.005-0.014,0.013-0.026,0.018-0.04c0.015-0.041,0.018-0.083,0.031-0.124
	c0.048-0.152,0.088-0.307,0.115-0.466c0.014-0.079,0.022-0.157,0.03-0.235c0.013-0.131,0.018-0.263,0.017-0.397
	c-0.001-0.086-0.002-0.171-0.009-0.256c-0.003-0.039,0-0.077-0.004-0.117l-3.142-26.207c-0.23-1.919-1.971-3.287-3.892-3.059
	c-1.919,0.23-3.289,1.973-3.058,3.892l2.411,20.104C34.52,98.316,16.474,87.22,9.698,67.558C3.556,49.736,7.954,28.813,22.769,5.37
	c1.033-1.634,0.545-3.795-1.089-4.828c-1.635-1.034-3.796-0.545-4.829,1.089C0.845,26.959-3.789,49.907,3.08,69.839
	c7.285,21.14,25.516,33.17,35.949,38.541l-17.273,7.224c-1.783,0.746-2.625,2.796-1.879,4.58c0.561,1.342,1.861,2.15,3.23,2.15
	c0.45,0,0.908-0.087,1.349-0.272l24.704-10.332c0.03-0.012,0.055-0.031,0.085-0.044c0.098-0.044,0.193-0.095,0.287-0.149
	c0.068-0.039,0.137-0.075,0.201-0.118c0.089-0.059,0.173-0.125,0.256-0.192c0.059-0.047,0.12-0.092,0.176-0.143
	c0.082-0.075,0.156-0.157,0.231-0.24c0.047-0.052,0.098-0.102,0.142-0.157C50.608,110.602,50.668,110.509,50.728,110.416z"/>
</svg>
