<?xml version="1.0" encoding="utf-8"?>
<!-- Generator: Adobe Illustrator 17.0.0, SVG Export Plug-In . SVG Version: 6.00 Build 0)  -->
<!DOCTYPE svg PUBLIC "-//W3C//DTD SVG 1.1//EN" "http://www.w3.org/Graphics/SVG/1.1/DTD/svg11.dtd">
<svg version="1.1" id="Livello_1" xmlns="http://www.w3.org/2000/svg" xmlns:xlink="http://www.w3.org/1999/xlink" x="0px" y="0px"
	 width="90.982px" height="109.208px" viewBox="0 0 90.982 109.208" enable-background="new 0 0 90.982 109.208"
	 xml:space="preserve">
<g>
	<path fill="#FFFFFF" d="M61.007,17.197c10.555,3.864,19.742,11.182,25.867,20.606c0.242,0.373,0.658,0.595,1.101,0.595
		c0.036,0,0.072-0.001,0.108-0.004c0.482-0.04,0.903-0.339,1.094-0.78c1.024-2.355,1.543-4.85,1.543-7.418
		c0-10.361-8.515-18.791-18.982-18.791c-3.975,0-7.793,1.219-11.04,3.524c-0.393,0.279-0.599,0.751-0.534,1.226
		C60.228,16.63,60.553,17.031,61.007,17.197z M71.738,13.997c9.023,0,16.364,7.267,16.364,16.199c0,1.373-0.172,2.723-0.513,4.034
		c-5.869-8.131-13.971-14.586-23.21-18.493C66.654,14.593,69.158,13.997,71.738,13.997z"/>
	<path fill="#FFFFFF" d="M64.073,51.884c-0.325-0.558-1.046-0.749-1.609-0.427l-16.325,9.331L30.822,34.525
		c-0.325-0.558-1.046-0.749-1.61-0.427l-1.02,0.583c-0.564,0.322-0.757,1.035-0.431,1.593l16.495,28.283
		c0.325,0.558,1.046,0.749,1.609,0.427l18.366-10.497c0.563-0.322,0.757-1.035,0.431-1.593L64.073,51.884z"/>
	<path fill="#FFFFFF" d="M82.14,89.846c5.788-7.774,8.841-16.975,8.841-26.668c0-24.245-19.457-44.066-43.724-44.99v-2.974
		c3.445-0.796,6.022-3.854,6.022-7.503C53.28,3.459,49.786,0,45.491,0c-4.295,0-7.789,3.459-7.789,7.711
		c0,3.649,2.577,6.708,6.022,7.503v2.974C19.457,19.112,0,38.933,0,63.178c0,9.692,3.054,18.894,8.842,26.668l-5.226,8.961
		c-1.823,3.125-0.737,7.136,2.42,8.941l1.02,0.582c1.005,0.575,2.146,0.878,3.301,0.878c2.357,0,4.553-1.254,5.73-3.273l3.388-5.81
		c7.651,5.297,16.614,8.088,26.016,8.088c9.403,0,18.366-2.791,26.017-8.088l3.388,5.81c1.177,2.019,3.373,3.273,5.73,3.273h0
		c1.155,0,2.296-0.304,3.3-0.878l1.02-0.583c3.157-1.804,4.242-5.815,2.42-8.94L82.14,89.846z M40.32,7.711
		c0-2.823,2.32-5.119,5.171-5.119c2.851,0,5.171,2.296,5.171,5.119c0,2.823-2.32,5.119-5.171,5.119
		C42.64,12.83,40.32,10.534,40.32,7.711z M83.638,105.502l-1.02,0.583c-0.607,0.347-1.296,0.531-1.992,0.531h0
		c-1.425,0-2.752-0.758-3.463-1.977l-4.85-8.317l-1.18,0.874c-7.449,5.511-16.316,8.425-25.642,8.425
		c-9.326,0-18.193-2.913-25.641-8.425l-1.18-0.874l-4.85,8.317c-0.712,1.22-2.038,1.977-3.463,1.977
		c-0.696,0-1.385-0.183-1.992-0.531l-1.02-0.583c-1.906-1.09-2.562-3.512-1.462-5.4l6.096-10.452l-0.532-0.687
		c-5.776-7.461-8.829-16.378-8.829-25.785c0-23.403,19.233-42.443,42.873-42.443c23.64,0,42.873,19.039,42.873,42.443
		c0,9.408-3.053,18.324-8.829,25.785l-0.532,0.687l6.096,10.452C86.199,101.991,85.544,104.413,83.638,105.502z"/>
	<path fill="#FFFFFF" d="M2.899,38.394c0.036,0.003,0.072,0.004,0.108,0.004c0.443,0,0.858-0.222,1.101-0.595
		c6.125-9.424,15.312-16.742,25.867-20.606c0.454-0.166,0.779-0.568,0.843-1.042c0.065-0.475-0.141-0.947-0.534-1.226
		c-3.247-2.305-7.065-3.524-11.04-3.524c-10.467,0-18.982,8.43-18.982,18.791c0,2.568,0.519,5.064,1.543,7.419
		C1.996,38.055,2.416,38.355,2.899,38.394z M19.244,13.997c2.58,0,5.084,0.597,7.36,1.741c-9.239,3.907-17.34,10.362-23.21,18.494
		C3.052,32.919,2.88,31.57,2.88,30.196C2.88,21.264,10.221,13.997,19.244,13.997z"/>
</g>
</svg>
