<?xml version="1.0" encoding="utf-8"?>
<!-- Generator: Adobe Illustrator 17.0.0, SVG Export Plug-In . SVG Version: 6.00 Build 0)  -->
<!DOCTYPE svg PUBLIC "-//W3C//DTD SVG 1.1//EN" "http://www.w3.org/Graphics/SVG/1.1/DTD/svg11.dtd">
<svg version="1.1" id="Livello_1" xmlns="http://www.w3.org/2000/svg" xmlns:xlink="http://www.w3.org/1999/xlink" x="0px" y="0px"
	 width="144.907px" height="47.623px" viewBox="0 0 144.907 47.623" enable-background="new 0 0 144.907 47.623"
	 xml:space="preserve">
<g>
	<path fill-rule="evenodd" clip-rule="evenodd" fill="#0050a0" d="M130.992,29.878c0,0-2.243,2.353-3.997,0.826
		c-0.549-0.557-0.823-1.468-0.823-2.733v-8.865h5.538v-0.124h0.057v-5.195h-0.057V13.46h-5.538V7.019h-6.537l0,6.441h-2.32v5.646
		h1.944v8.955c0,1.295,0.148,2.477,0.447,3.546c0.298,1.069,0.768,1.98,1.411,2.733c0.642,0.753,1.473,1.34,2.492,1.762
		c1.018,0.421,2.249,0.632,3.692,0.632c3.298,0.005,5.088-1.884,5.572-2.023L130.992,29.878z"/>
	<path fill-rule="evenodd" clip-rule="evenodd" fill="#0050a0" d="M90.473,16.519c-1.11-0.99-2.384-1.747-3.825-2.272
		c-1.44-0.524-2.939-0.787-4.495-0.787c-1.557,0-3.063,0.263-4.52,0.787c-1.458,0.525-2.74,1.282-3.85,2.272
		c-1.11,0.99-1.995,2.212-2.658,3.666c-0.663,1.455-0.993,3.112-0.993,4.971c0,1.86,0.331,3.516,0.993,4.971
		c0.662,1.455,1.548,2.676,2.658,3.666c1.109,0.99,2.392,1.747,3.85,2.272c1.457,0.524,2.963,0.787,4.52,0.787
		c1.556,0,3.055-0.263,4.495-0.787c1.44-0.524,2.715-1.282,3.825-2.272c1.109-0.99,1.995-2.211,2.657-3.666
		c0.662-1.454,0.993-3.111,0.993-4.971c0-1.859-0.331-3.516-0.993-4.971C92.467,18.731,91.582,17.509,90.473,16.519z M85.53,29.789
		c-0.762,1.14-1.888,1.709-3.378,1.709c-1.524,0-2.658-0.569-3.403-1.709c-0.745-1.139-1.118-2.684-1.118-4.633
		c0-1.949,0.372-3.493,1.118-4.633c0.745-1.139,1.879-1.709,3.403-1.709c1.49,0,2.615,0.57,3.378,1.709
		c0.761,1.14,1.143,2.684,1.143,4.633C86.673,27.105,86.292,28.65,85.53,29.789z"/>
	<path fill-rule="evenodd" clip-rule="evenodd" fill="#0050a0" d="M109.319,13.46v15.444c-0.695,0.829-1.344,1.436-1.945,1.812
		c-0.616,0.386-1.378,0.578-2.286,0.578c-1.038,0-1.799-0.296-2.286-0.889c-0.486-0.592-0.729-1.689-0.729-3.29V13.46h-7.149V27.96
		c0,2.786,0.591,4.965,1.775,6.535c1.183,1.571,3.088,2.356,5.714,2.356c1.654,0,3.071-0.319,4.255-0.956
		c0.929-0.5,1.812-1.153,2.651-1.954v2.91h7.198v-0.533V13.46h-7.149H109.319z"/>
	<path fill-rule="evenodd" clip-rule="evenodd" fill="#0050a0" d="M143.707,22.736h-7.198c-0.662,0-1.2,0.542-1.2,1.21
		c0,0.668,0.537,1.21,1.2,1.21h7.198c0.663,0,1.2-0.542,1.2-1.21C144.907,23.277,144.37,22.736,143.707,22.736z"/>
	<path fill-rule="evenodd" clip-rule="evenodd" fill="#0050a0" d="M133.62,7.207l5.08-5.143c0.468-0.473,0.466-1.24-0.003-1.711
		c-0.469-0.472-1.229-0.47-1.696,0.003l-5.08,5.143c-0.468,0.473-0.466,1.239,0.003,1.711C132.393,7.681,133.152,7.68,133.62,7.207z
		"/>
	<path fill-rule="evenodd" clip-rule="evenodd" fill="#0050a0" d="M133.445,40.544c-0.461-0.465-1.208-0.466-1.671-0.003
		c-0.462,0.463-0.464,1.216-0.003,1.681l5.003,5.052c0.461,0.465,1.209,0.466,1.671,0.003c0.462-0.463,0.464-1.216,0.003-1.681
		L133.445,40.544z"/>
	<path fill-rule="evenodd" clip-rule="evenodd" fill="#0050a0" d="M50.007,41.126L23.62,35.038l-8.731-2.015l-7.052-1.627
		l-0.82-9.057L46.446,4.654c0.606-0.272,0.879-0.988,0.609-1.599c-0.269-0.611-0.979-0.886-1.585-0.615L4.355,20.942l1.534,12.489
		l8.465,1.953l-0.625,2.755c-0.493,2.174,0.854,4.339,3.009,4.836l9.755,2.251c2.155,0.497,4.302-0.862,4.795-3.036l0.625-2.755
		l17.559,4.051c0.646,0.149,1.291-0.258,1.438-0.911C51.058,41.925,50.653,41.275,50.007,41.126z M28.255,41.078
		c-0.197,0.869-1.056,1.413-1.918,1.214l-8.194-1.891c-0.862-0.199-1.401-1.065-1.203-1.934l0.536-2.362l11.315,2.611L28.255,41.078
		z"/>
	<path fill-rule="evenodd" clip-rule="evenodd" fill="#0050a0" d="M1.079,20.682c-0.66,0.068-1.14,0.662-1.073,1.328l1.135,11.247
		c0.067,0.666,0.656,1.15,1.316,1.082c0.66-0.068,1.14-0.662,1.073-1.328L2.396,21.764C2.328,21.099,1.739,20.614,1.079,20.682z"/>
	<path fill-rule="evenodd" clip-rule="evenodd" fill="#0050a0" d="M39.936,31.313c-0.47,0.332-1.223,0.497-2.257,0.497
		c-1.004,0-1.991-0.196-2.962-0.587c-0.972-0.391-1.991-0.978-3.057-1.762l-3.104,4.156c1.191,0.934,2.594,1.687,4.209,2.258
		c1.614,0.572,3.19,0.858,4.726,0.858c1.567,0,2.946-0.188,4.138-0.565c1.191-0.376,2.194-0.888,3.01-1.536
		c0.815-0.647,1.426-1.407,1.834-2.281c0.407-0.873,0.611-1.822,0.611-2.846c0-1.023-0.188-1.904-0.564-2.642
		c-0.376-0.738-0.87-1.362-1.481-1.875c-0.611-0.512-1.286-0.941-2.022-1.287c-0.737-0.346-1.481-0.655-2.234-0.926
		c-0.596-0.21-1.168-0.414-1.716-0.61c-0.549-0.196-1.034-0.399-1.458-0.61c-0.423-0.21-0.76-0.444-1.011-0.7
		c-0.251-0.256-0.376-0.565-0.376-0.926c0-1.174,0.877-1.762,2.633-1.762c0.815,0,1.63,0.166,2.445,0.497
		c0.815,0.332,1.646,0.798,2.492,1.4l3.104-3.975c-1.004-0.723-2.179-1.378-3.527-1.965c-1.348-0.587-2.916-0.881-4.702-0.881
		c-1.348,0-2.571,0.174-3.668,0.519c-1.098,0.346-2.038,0.821-2.821,1.423c-0.784,0.603-1.387,1.34-1.81,2.213
		c-0.423,0.874-0.635,1.822-0.635,2.846c0,0.934,0.188,1.754,0.564,2.462c0.376,0.708,0.862,1.325,1.458,1.852
		c0.595,0.527,1.253,0.971,1.975,1.332c0.721,0.361,1.442,0.678,2.163,0.949c0.595,0.241,1.176,0.459,1.74,0.655
		c0.564,0.196,1.073,0.414,1.528,0.655c0.454,0.241,0.815,0.505,1.082,0.79c0.266,0.287,0.4,0.61,0.4,0.971
		C40.641,30.516,40.406,30.982,39.936,31.313z"/>
	<path fill-rule="evenodd" clip-rule="evenodd" fill="#0050a0" d="M61.734,13.057c-2.664,0.058-5.316,1.818-6.798,2.993V4.588
		h-7.198v32.263h7.198V20.92c1.196-0.937,3.045-2.192,4.399-2.217c3.045-0.039,2.799,2.823,2.799,2.823v15.325h7.198V21.526
		C69.332,21.526,69.877,12.968,61.734,13.057z"/>
</g>
</svg>
