<?xml version="1.0" encoding="utf-8"?>
<!-- Generator: Adobe Illustrator 17.0.0, SVG Export Plug-In . SVG Version: 6.00 Build 0)  -->
<!DOCTYPE svg PUBLIC "-//W3C//DTD SVG 1.1//EN" "http://www.w3.org/Graphics/SVG/1.1/DTD/svg11.dtd">
<svg version="1.1" id="Livello_1" xmlns="http://www.w3.org/2000/svg" xmlns:xlink="http://www.w3.org/1999/xlink" x="0px" y="0px"
	 width="132.87px" height="75.15px" viewBox="0 0 132.87 75.15" enable-background="new 0 0 132.87 75.15" xml:space="preserve">
<path fill-rule="evenodd" clip-rule="evenodd" fill="#FFFFFF" d="M46.949,48.155c9.994,0.41,21.02-7.549,23.218-17.022
	c2.076-8.945-4.612-14.821-13.818-13.945c-8.736,0.831-17.289,7.318-20.111,15.051C33.28,40.346,37.534,47.768,46.949,48.155z
	 M37.709,32.191c2.514-6.999,10.407-12.927,18.222-13.625c8.233-0.735,14.216,4.564,12.282,12.63
	c-2.021,8.432-11.808,15.516-20.736,15.22C38.955,46.135,35.094,39.471,37.709,32.191z"/>
<path fill-rule="evenodd" clip-rule="evenodd" fill="#FFFFFF" d="M47.997,44.701c7.976,0.202,16.45-5.993,18.292-13.442
	c1.776-7.182-3.508-11.905-10.782-11.299c-6.999,0.584-14.087,5.9-16.307,12.182C36.919,38.6,40.382,44.508,47.997,44.701z
	 M44.165,38.326c1.156-0.466,2.032-1.043,2.624-1.729c0.59-0.684,1.088-1.668,1.49-2.942c0.068-0.216,0.163-0.574,0.285-1.07
	l-2.423,0.071l0.5-1.537l2.228-0.081c0.209-1.099,0.379-1.853,0.511-2.271c0.51-1.607,1.364-2.857,2.569-3.767
	c1.206-0.911,2.673-1.426,4.419-1.545c1.056-0.072,1.992,0.06,2.806,0.396l-0.535,1.886c-0.766-0.401-1.626-0.571-2.579-0.513
	c-2.368,0.143-3.853,1.249-4.5,3.346c-0.15,0.485-0.325,1.279-0.525,2.389l4.966-0.179l-0.462,1.6l-4.824,0.141
	c-0.118,0.501-0.208,0.853-0.27,1.055c-0.4,1.303-0.894,2.304-1.479,2.995c-0.587,0.693-1.289,1.249-2.106,1.667l9.058-0.035
	l-0.526,1.876L43.61,40.029L44.165,38.326z"/>
<path fill-rule="evenodd" clip-rule="evenodd" fill="#FFFFFF" d="M132.534,13.356c-0.227-0.21-0.535-0.31-0.842-0.271l-3.616,0.445
	l0.173-3.761c0.014-0.309-0.108-0.608-0.335-0.818c-0.227-0.21-0.535-0.31-0.842-0.272l-3.616,0.445l0.173-3.761
	c0.014-0.309-0.108-0.608-0.335-0.818c-0.227-0.21-0.535-0.31-0.842-0.272l-3.187,0.392l0.165-3.568
	c0.014-0.309-0.108-0.608-0.335-0.818c-0.227-0.21-0.535-0.31-0.842-0.272L18.676,12.254c-0.36,0.044-0.672,0.271-0.824,0.599
	L0.098,51.074c-0.145,0.311-0.128,0.673,0.045,0.969c0.172,0.296,0.479,0.49,0.821,0.518l4.453,0.37L4.297,55.34
	c-0.144,0.311-0.128,0.673,0.045,0.969c0.173,0.296,0.479,0.49,0.821,0.518l4.92,0.408l-1.166,2.51
	c-0.144,0.311-0.128,0.673,0.045,0.969c0.172,0.296,0.479,0.49,0.821,0.518l4.92,0.408l-1.166,2.51
	c-0.144,0.311-0.128,0.673,0.045,0.969c0.172,0.296,0.479,0.49,0.821,0.518l114.566,9.508c0.029,0.002,0.058,0.003,0.087,0.003
	c0.254,0,0.501-0.092,0.693-0.261c0.214-0.188,0.343-0.455,0.356-0.74l2.765-59.975C132.883,13.865,132.76,13.566,132.534,13.356z
	 M7.331,40.485l9.537-20.531c3.125-0.33,6.851-3.193,8.235-6.358l0,0l78.75-9.259c-0.462,4.228,4.38,7.459,11.471,6.826
	l-2.019,35.333c-7.908-0.262-14.541,4.425-15.227,10.705L8.93,50.579c1.816-4.153,0.522-7.518-2.734-7.626L7.331,40.485z
	 M13.13,54.844c0.184-0.421,0.334-0.833,0.455-1.236l88.762,7.367c-0.026,0.163-0.051,0.326-0.069,0.492L13.13,54.844z
	 M18.236,57.912l88.747,7.366c-0.034,0.197-0.062,0.395-0.084,0.596L17.749,59.25C17.949,58.793,18.11,58.346,18.236,57.912z
	 M111.518,70.279l-89.149-6.623c0.2-0.457,0.361-0.904,0.486-1.338l88.747,7.366C111.568,69.88,111.54,70.078,111.518,70.279z
	 M117.506,50.762c-0.122-0.004-0.244-0.004-0.365-0.005l1.626-35.277c0.25-0.013,0.502-0.028,0.758-0.051L117.506,50.762z
	 M122.125,55.168c-0.266-0.009-0.529-0.009-0.791-0.006l1.625-35.259c0.388-0.011,0.782-0.033,1.185-0.069L122.125,55.168z
	 M126.745,59.573c-0.266-0.009-0.529-0.009-0.792-0.006l1.625-35.259c0.388-0.011,0.782-0.032,1.185-0.069L126.745,59.573z"/>
</svg>
