<?xml version="1.0" encoding="utf-8"?>
<!-- Generator: Adobe Illustrator 17.0.0, SVG Export Plug-In . SVG Version: 6.00 Build 0)  -->
<!DOCTYPE svg PUBLIC "-//W3C//DTD SVG 1.1//EN" "http://www.w3.org/Graphics/SVG/1.1/DTD/svg11.dtd">
<svg version="1.1" id="Livello_1" xmlns="http://www.w3.org/2000/svg" xmlns:xlink="http://www.w3.org/1999/xlink" x="0px" y="0px"
	 width="251.985px" height="236.186px" viewBox="0 0 251.985 236.186" enable-background="new 0 0 251.985 236.186"
	 xml:space="preserve">
<path fill="#FFFFFF" d="M37.272,0c11.911,0,40.915,9.272,47.951,23.418c14.709-5.65,30.995-8.789,48.13-8.789
	c51.616,0,95.531,28.488,111.843,68.262c7.193,17.17,6.785,29.731,6.785,34.256c0,32.092-17.067,60.735-43.78,79.532l0.666,29.9
	c0.392,2.187-1.094,4.272-3.319,4.657l-28.199,4.887c-0.239,0.042-0.478,0.062-0.714,0.062c-1.948,0-3.675-1.372-4.025-3.323
	l-5.971-17.295c-10.561,2.665-21.73,4.098-33.285,4.098c-10.461,0-20.602-1.174-30.263-3.372l-5.722,16.569
	c-0.35,1.951-2.076,3.323-4.023,3.323c-0.236,0-0.475-0.02-0.716-0.062l-28.199-4.887c-2.225-0.385-3.71-2.471-3.318-4.657
	l0.616-27.71c-17.263-11.317-30.829-26.624-38.861-44.334h-0.09c-1.363-3.972-5.184-6.834-9.688-6.834c-0.558,0-8.999,0-8.999,0
	c-2.259,0-4.09-1.8-4.09-4.02V91.417c0-2.219,1.831-4.02,4.09-4.02c0,0,8.174,0,8.589,0c4.503,0,8.324-2.862,9.689-6.834h0.138
	c5.775-13.062,14.549-24.842,25.6-34.708C51.715,24.348,26.625,4.579,32.963,0.768C33.825,0.249,35.319,0,37.272,0 M83.039,45.586
	c0.81,0,1.583-0.158,2.292-0.44c0.005,0.013,0.012,0.025,0.015,0.037c15.021-6.254,31.004-9.381,46.984-9.381
	c15.981,0,31.963,3.128,46.984,9.381c0.005-0.013,0.01-0.024,0.01-0.024c0.714,0.269,1.486,0.427,2.297,0.427
	c3.389,0,6.137-2.7,6.137-6.03c0-2.568-1.637-4.757-3.939-5.626c-16.469-6.816-33.979-10.226-51.489-10.226
	c-17.51,0-35.02,3.41-51.489,10.226c-2.301,0.869-3.939,3.058-3.939,5.626C76.902,42.886,79.65,45.586,83.039,45.586 M67.904,84.582
	c5.647,0,10.225-4.499,10.225-10.05c0-5.551-4.578-10.052-10.225-10.052s-10.227,4.501-10.227,10.052
	C57.677,80.083,62.257,84.582,67.904,84.582"/>
</svg>
