<?xml version="1.0" encoding="utf-8"?>
<!-- Generator: Adobe Illustrator 17.0.0, SVG Export Plug-In . SVG Version: 6.00 Build 0)  -->
<!DOCTYPE svg PUBLIC "-//W3C//DTD SVG 1.1//EN" "http://www.w3.org/Graphics/SVG/1.1/DTD/svg11.dtd">
<svg version="1.1" id="Livello_1" xmlns="http://www.w3.org/2000/svg" xmlns:xlink="http://www.w3.org/1999/xlink" x="0px" y="0px"
	 width="91.995px" height="86.353px" viewBox="0 0 91.995 86.353" enable-background="new 0 0 91.995 86.353" xml:space="preserve">
<g>
	<path fill="#6AB5AC" d="M89.495,30.225c-6.132-14.953-22.556-25-40.869-25c-5.814,0-11.444,0.978-16.748,2.907
		C28.594,3.141,18.747,0,14.311,0c-0.915,0-1.587,0.137-2.054,0.417c-0.418,0.251-0.696,0.628-0.804,1.09
		c-0.272,1.168,0.603,2.528,1.927,4.587c1.849,2.876,4.363,6.786,3.864,10.78c-3.917,3.559-6.944,7.673-9.006,12.237
		c-0.085,0.096-0.152,0.209-0.195,0.335c-0.363,1.056-1.374,1.766-2.515,1.766H2.461C1.104,31.213,0,32.306,0,33.649v18.667
		c0,1.343,1.104,2.436,2.461,2.436h3.214c1.141,0,2.152,0.709,2.514,1.766c0.035,0.103,0.088,0.197,0.155,0.281
		c2.861,6.207,7.583,11.641,13.69,15.755l-0.206,9.279c-0.087,0.609,0.059,1.22,0.415,1.728c0.378,0.539,0.945,0.898,1.597,1.011
		l10.074,1.746c1.329,0.228,2.556-0.634,2.828-1.888l1.732-5.014c6.989,1.455,14.448,1.373,21.392-0.239l1.814,5.253
		c0.243,1.12,1.24,1.924,2.405,1.924c0.14,0,0.282-0.012,0.426-0.037l10.07-1.746c0.653-0.113,1.221-0.472,1.599-1.011
		c0.356-0.508,0.502-1.118,0.415-1.727L76.369,71.75c9.937-7.177,15.624-17.686,15.624-28.911l0.001-0.243
		C92.001,40.696,92.019,36.249,89.495,30.225z M89.993,42.839c0,10.729-5.544,20.784-15.211,27.586
		c-0.273,0.192-0.432,0.507-0.424,0.84l0.238,10.679c0.001,0.052,0.006,0.103,0.015,0.154c0.025,0.14-0.024,0.248-0.07,0.313
		c-0.041,0.058-0.134,0.159-0.302,0.188L64.17,84.345c-0.255,0.047-0.497-0.122-0.539-0.356c-0.009-0.051-0.022-0.101-0.039-0.149
		l-2.133-6.177c-0.142-0.411-0.528-0.674-0.945-0.674c-0.081,0-0.163,0.01-0.245,0.03c-7.187,1.813-14.994,1.9-22.229,0.254
		c-0.498-0.114-1,0.166-1.167,0.648l-2.044,5.917c-0.017,0.049-0.03,0.099-0.039,0.15c-0.038,0.211-0.243,0.358-0.537,0.356
		L24.181,82.6c-0.167-0.029-0.26-0.13-0.3-0.188c-0.046-0.066-0.095-0.173-0.07-0.314c0.009-0.051,0.014-0.103,0.015-0.154
		l0.22-9.897c0.008-0.345-0.163-0.669-0.451-0.859c-6.077-3.984-10.751-9.312-13.517-15.41c-0.024-0.053-0.053-0.103-0.086-0.15
		c-0.704-1.731-2.407-2.878-4.316-2.878H2.461C2.207,52.751,2,52.556,2,52.315V33.649c0-0.24,0.207-0.436,0.461-0.436h3.068
		c1.887,0,3.573-1.12,4.292-2.817c0.052-0.066,0.097-0.139,0.132-0.219c1.994-4.51,4.986-8.565,8.894-12.054
		c0.17-0.151,0.282-0.356,0.32-0.581c0.817-4.873-2.028-9.298-4.105-12.529c-0.649-1.01-1.517-2.36-1.643-2.928
		C13.561,2.047,13.834,2,14.311,2c4.226,0,13.987,3.298,16.23,7.81c0.23,0.462,0.774,0.673,1.254,0.488
		c5.307-2.039,10.97-3.073,16.831-3.073c17.51,0,33.191,9.548,39.021,23.766c2.37,5.656,2.353,9.819,2.346,11.597L89.993,42.839z"/>
	<path fill="#6AB5AC" d="M25.251,23.029c-2.565,0-4.653,2.059-4.653,4.59s2.087,4.589,4.653,4.589c2.565,0,4.652-2.059,4.652-4.589
		S27.816,23.029,25.251,23.029z M25.251,30.208c-1.463,0-2.653-1.162-2.653-2.589c0-1.428,1.19-2.59,2.653-2.59
		c1.462,0,2.652,1.162,2.652,2.59C27.903,29.047,26.713,30.208,25.251,30.208z"/>
	<path fill="#6AB5AC" d="M67.032,13.194C61.055,10.72,54.74,9.466,48.261,9.466s-12.795,1.254-18.743,3.717
		c-1.228,0.464-2.053,1.647-2.053,2.945c0,1.739,1.432,3.154,3.192,3.154c0.34,0,0.675-0.053,0.997-0.159
		c0.072-0.013,0.143-0.033,0.211-0.062c5.218-2.172,10.734-3.274,16.396-3.274s11.178,1.102,16.396,3.274
		c0.061,0.025,0.124,0.044,0.188,0.057c0.334,0.109,0.677,0.164,1.02,0.164c1.76,0,3.192-1.415,3.192-3.154
		C69.056,14.83,68.231,13.646,67.032,13.194z"/>
</g>
</svg>
