<?xml version="1.0" encoding="utf-8"?>
<!-- Generator: Adobe Illustrator 17.0.0, SVG Export Plug-In . SVG Version: 6.00 Build 0)  -->
<!DOCTYPE svg PUBLIC "-//W3C//DTD SVG 1.1//EN" "http://www.w3.org/Graphics/SVG/1.1/DTD/svg11.dtd">
<svg version="1.1" id="Livello_1" xmlns="http://www.w3.org/2000/svg" xmlns:xlink="http://www.w3.org/1999/xlink" x="0px" y="0px"
	 width="84px" height="84px" viewBox="0 0 84 84" enable-background="new 0 0 84 84" xml:space="preserve">
<path fill-rule="evenodd" clip-rule="evenodd" fill="#0050a0" d="M42,0c23.196,0,42,18.804,42,42S65.196,84,42,84S0,65.196,0,42
	S18.804,0,42,0z"/>
<path fill-rule="evenodd" clip-rule="evenodd" fill="#0050a0" d="M42,3c21.539,0,39,17.461,39,39S63.539,81,42,81S3,63.539,3,42
	S20.461,3,42,3z"/>
<g>
	<path fill-rule="evenodd" clip-rule="evenodd" fill="#FFFFFF" d="M29.769,50.735c-0.735-0.147-1.333-0.291-1.88-0.452
		c-0.197-0.057-0.406-0.053-0.6,0.011l-9.471,3.178l1.849-7.441c0.08-0.322-0.005-0.662-0.226-0.909
		C17.189,42.61,16,39.658,16,36.583C16,28.542,24.075,22,34,22c4.592,0,8.975,1.419,12.34,3.995
		c0.438,0.336,1.066,0.254,1.402-0.186c0.336-0.438,0.252-1.066-0.186-1.402C43.843,21.565,39.029,20,34,20
		c-11.028,0-20,7.439-20,16.583c0,3.409,1.243,6.672,3.6,9.469l-2.163,8.706c-0.088,0.354,0.024,0.729,0.292,0.976
		C15.917,55.908,16.16,56,16.407,56c0.106,0,0.214-0.017,0.318-0.052l10.905-3.659c0.52,0.144,1.083,0.274,1.746,0.407
		c0.543,0.108,1.068-0.243,1.177-0.784C30.661,51.371,30.31,50.844,29.769,50.735z"/>
	<path fill-rule="evenodd" clip-rule="evenodd" fill="#FFFFFF" d="M66.221,53.163c2.344-2.766,3.579-5.992,3.579-9.363
		c0-9.043-8.927-16.4-19.9-16.4C38.927,27.4,30,34.757,30,43.8s8.927,16.4,19.9,16.4c2.134,0,4.265-0.292,6.337-0.867l10.846,3.615
		C67.187,62.983,67.294,63,67.4,63c0.248,0,0.492-0.092,0.68-0.266c0.268-0.248,0.379-0.623,0.291-0.977L66.221,53.163z
		 M56.577,57.338c-0.103-0.034-0.209-0.051-0.316-0.051c-0.094,0-0.188,0.013-0.28,0.04C53.995,57.906,51.949,58.2,49.9,58.2
		c-9.87,0-17.9-6.46-17.9-14.4c0-7.94,8.03-14.4,17.9-14.4s17.9,6.46,17.9,14.4c0,3.034-1.182,5.949-3.418,8.428
		c-0.223,0.248-0.308,0.589-0.228,0.913l1.833,7.334L56.577,57.338z"/>
	<circle fill-rule="evenodd" clip-rule="evenodd" fill="#FFFFFF" cx="42" cy="44" r="2"/>
	<circle fill-rule="evenodd" clip-rule="evenodd" fill="#FFFFFF" cx="50" cy="44" r="2"/>
	<circle fill-rule="evenodd" clip-rule="evenodd" fill="#FFFFFF" cx="58" cy="44" r="2"/>
</g>
</svg>
