<?xml version="1.0" encoding="utf-8"?>
<!-- Generator: Adobe Illustrator 17.0.0, SVG Export Plug-In . SVG Version: 6.00 Build 0)  -->
<!DOCTYPE svg PUBLIC "-//W3C//DTD SVG 1.1//EN" "http://www.w3.org/Graphics/SVG/1.1/DTD/svg11.dtd">
<svg version="1.1" id="Livello_1" xmlns="http://www.w3.org/2000/svg" xmlns:xlink="http://www.w3.org/1999/xlink" x="0px" y="0px"
	 width="34px" height="34px" viewBox="0 0 34 34" enable-background="new 0 0 34 34" xml:space="preserve">
<g>
	<path fill-rule="evenodd" clip-rule="evenodd" fill="#0050A0" d="M17,0c9.389,0,17,7.611,17,17s-7.611,17-17,17S0,26.389,0,17
		S7.611,0,17,0z"/>
	<path fill-rule="evenodd" clip-rule="evenodd" fill="#0050A0" d="M17,2c8.284,0,15,6.716,15,15s-6.716,15-15,15S2,25.284,2,17
		S8.716,2,17,2z"/>
	<g>
		<path fill="#FFFFFF" d="M26.38,20.168c0.817-1.048,1.246-2.252,1.246-3.51c0-3.569-3.493-6.474-7.786-6.474
			s-7.786,2.904-7.786,6.474c0,3.57,3.493,6.474,7.786,6.474c0.992,0,1.962-0.156,2.888-0.465l2.826,1.082
			c0.116,0.045,0.237,0.066,0.357,0.066c0.233,0,0.465-0.082,0.648-0.238c0.278-0.237,0.405-0.608,0.33-0.966L26.38,20.168z
			 M24.563,19.223c-0.216,0.237-0.306,0.563-0.239,0.878l0.234,1.125l-1.46-0.559c-0.115-0.044-0.236-0.066-0.357-0.066
			s-0.242,0.022-0.357,0.066c-0.807,0.309-1.663,0.465-2.543,0.465c-3.19,0-5.786-2.007-5.786-4.474
			c0-2.467,2.595-4.474,5.786-4.474s5.786,2.007,5.786,4.474C25.626,17.573,25.259,18.46,24.563,19.223z"/>
		<circle fill="#FFFFFF" cx="16.84" cy="17" r="1"/>
		<circle fill="#FFFFFF" cx="19.84" cy="17" r="1"/>
		<circle fill="#FFFFFF" cx="22.84" cy="17" r="1"/>
		<path fill="#FFFFFF" d="M10.291,18.568l-0.818,0.301l0.238-1.095c0.071-0.324-0.024-0.662-0.253-0.902
			c-0.709-0.745-1.084-1.609-1.084-2.499c0-2.42,2.679-4.389,5.972-4.389c0.31,0,0.639,0.024,1.034,0.077
			c0.542,0.075,1.05-0.312,1.123-0.86c0.073-0.548-0.312-1.05-0.86-1.123c-0.485-0.064-0.897-0.094-1.297-0.094
			c-4.396,0-7.972,2.866-7.972,6.389c0,1.245,0.439,2.435,1.276,3.469l-0.519,2.381c-0.078,0.356,0.045,0.728,0.32,0.967
			c0.185,0.161,0.419,0.246,0.657,0.246c0.116,0,0.232-0.021,0.345-0.062l2.528-0.929c0.519-0.19,0.784-0.765,0.594-1.283
			C11.384,18.643,10.809,18.379,10.291,18.568z"/>
	</g>
</g>
</svg>
