<?xml version="1.0" encoding="utf-8"?>
<!-- Generator: Adobe Illustrator 17.0.0, SVG Export Plug-In . SVG Version: 6.00 Build 0)  -->
<!DOCTYPE svg PUBLIC "-//W3C//DTD SVG 1.1//EN" "http://www.w3.org/Graphics/SVG/1.1/DTD/svg11.dtd">
<svg version="1.1" id="Livello_1" xmlns="http://www.w3.org/2000/svg" xmlns:xlink="http://www.w3.org/1999/xlink" x="0px" y="0px"
	 width="60px" height="60px" viewBox="0 0 60 60" enable-background="new 0 0 60 60" xml:space="preserve">
<path fill-rule="evenodd" clip-rule="evenodd" fill="#0050a0" d="M30,0c16.569,0,30,13.432,30,30S46.569,60,30,60S0,46.569,0,30
	S13.432,0,30,0z"/>
<path fill-rule="evenodd" clip-rule="evenodd" fill="#0050a0" d="M30,3c14.912,0,27,12.088,27,27S44.912,57,30,57S3,44.912,3,30
	S15.088,3,30,3z"/>
<path fill-rule="evenodd" clip-rule="evenodd" fill="#FFFFFF" d="M46.437,29.999l-3.813-4.303c0.801-0.963,2.7-3.248,3.629-4.366
	c0.607-0.724-0.275-1.085-0.275-1.085l-10.516-5.822c0,0-0.743-0.522-1.306,0.093c-0.462,0.506-2.892,3.243-3.745,4.204
	l-3.369-4.081c0,0-0.446-0.737-1.373-0.228c-0.927,0.509-10.407,5.612-10.961,5.891c-0.664,0.335-0.16,1.046-0.16,1.046l3.748,4.384
	c-0.841,0.984-2.692,3.15-3.61,4.224c-0.614,0.712,0.259,1.083,0.259,1.083l3.751,2.14c0,1.247,0,5.798,0,6.222
	c0,0.492,0.192,0.524,0.192,0.524s10.537,5.626,11.031,5.901c0.494,0.274,0.917-0.039,0.917-0.039l11.046-5.873
	c0,0,0.37-0.165,0.37-0.513c0-0.292,0-4.681,0-6.1c2.047-1.147,3.813-2.134,4.041-2.254C46.953,30.701,46.437,29.999,46.437,29.999z
	 M34.824,15.785l9.785,5.268l-3.317,3.99l-9.855-5.456L34.824,15.785z M30.475,31.045l-9.604-5.268l9.604-5.087l9.604,5.087
	L30.475,31.045z M26.126,15.785l3.217,3.897L19.6,25.076l-3.44-4.023L26.126,15.785z M19.562,26.456l9.832,5.444l-3.405,3.72
	l-9.671-5.367L19.562,26.456z M19.965,39.059v-5.157l5.372,3.065c0,0,0.733,0.529,1.301-0.076c0.374-0.398,2.027-2.208,3.112-3.396
	v10.799L19.965,39.059z M40.986,38.953l-9.966,5.299v-10.88l3.044,3.557c0,0,0.459,0.729,1.377,0.203
	c0.458-0.262,3.021-1.704,5.545-3.119V38.953z M34.959,35.766l-3.339-3.902l9.78-5.414l3.431,3.872L34.959,35.766z"/>
</svg>
