<?xml version="1.0" encoding="utf-8"?>
<!-- Generator: Adobe Illustrator 17.0.0, SVG Export Plug-In . SVG Version: 6.00 Build 0)  -->
<!DOCTYPE svg PUBLIC "-//W3C//DTD SVG 1.1//EN" "http://www.w3.org/Graphics/SVG/1.1/DTD/svg11.dtd">
<svg version="1.1" id="Livello_1" xmlns="http://www.w3.org/2000/svg" xmlns:xlink="http://www.w3.org/1999/xlink" x="0px" y="0px"
	 width="34px" height="34px" viewBox="0 0 34 34" enable-background="new 0 0 34 34" xml:space="preserve">
<path fill="#AD0000" d="M17,0C7.611,0,0,7.611,0,17s7.611,17,17,17s17-7.611,17-17S26.389,0,17,0z"/>
<path fill-rule="evenodd" clip-rule="evenodd" fill="#FFFFFF" d="M17,3c7.732,0,14,6.268,14,14s-6.268,14-14,14S3,24.732,3,17
	S9.268,3,17,3z"/>
<path fill="#AD0000" d="M10.245,14.487c-0.114,0.281-0.183,0.583-0.183,0.901c0,0.286,0.24,0.519,0.536,0.519
	c0.295,0,0.536-0.233,0.536-0.52c0-0.003,0.001-0.006,0.001-0.01L10.245,14.487z"/>
<rect x="15.5" y="0.542" transform="matrix(0.7071 -0.7071 0.7071 0.7071 -7.0416 17)" fill="#AD0000" width="3" height="32.917"/>
<g>
	<path fill="#AD0000" d="M17.407,13.164l0.29-0.246c1.469-1.245,3.893-1.195,5.286,0.103c0.713,0.664,1.105,1.547,1.105,2.485
		c0,0.938-0.393,1.821-1.105,2.486l-0.387,0.361l1.494,1.494c0.23-0.215,0.38-0.354,0.39-0.363c1.137-1.061,1.763-2.474,1.763-3.978
		c-0.001-1.504-0.627-2.916-1.763-3.976c-1.121-1.046-2.609-1.622-4.19-1.622c-1.344,0-2.64,0.422-3.692,1.196
		c-0.672-0.494-1.448-0.826-2.268-1.015L17.407,13.164z"/>
	<path fill="#AD0000" d="M18.205,22.448l-1.54,1.436h-0.132l-6.318-5.891c-0.712-0.665-1.105-1.547-1.105-2.485
		c0-0.599,0.176-1.167,0.477-1.679l-1.543-1.543c-0.704,0.937-1.088,2.049-1.088,3.22c0,1.505,0.626,2.917,1.762,3.978l6.318,5.892
		c0.42,0.392,0.975,0.607,1.564,0.607c0.589,0,1.144-0.216,1.563-0.607c0,0,0.654-0.61,1.537-1.434L18.205,22.448z"/>
</g>
</svg>
