<?xml version="1.0" encoding="utf-8"?>
<!-- Generator: Adobe Illustrator 16.0.0, SVG Export Plug-In . SVG Version: 6.00 Build 0)  -->
<!DOCTYPE svg PUBLIC "-//W3C//DTD SVG 1.1//EN" "http://www.w3.org/Graphics/SVG/1.1/DTD/svg11.dtd">
<svg version="1.1" id="Livello_1" xmlns="http://www.w3.org/2000/svg" xmlns:xlink="http://www.w3.org/1999/xlink" x="0px" y="0px"
	 width="14px" height="14px" viewBox="0 0 14 14" enable-background="new 0 0 14 14" xml:space="preserve">
<path fill="#DDDCDA" d="M13.589,11.607c0.545,0.547,0.545,1.433,0,1.98c-0.545,0.547-1.429,0.547-1.974,0l-2.961-2.97
	c-0.074-0.075-0.114-0.169-0.168-0.255C7.637,10.884,6.65,11.2,5.582,11.2C2.499,11.2,0,8.693,0,5.6C0,2.508,2.499,0,5.582,0
	s5.583,2.507,5.583,5.6c0,1.049-0.306,2.019-0.806,2.858c0.092,0.056,0.189,0.099,0.269,0.179L13.589,11.607z M5.582,2.8
	c-1.542,0-2.791,1.254-2.791,2.8c0,1.547,1.25,2.8,2.791,2.8c1.542,0,2.791-1.253,2.791-2.8C8.374,4.054,7.124,2.8,5.582,2.8z"/>
</svg>
