<?xml version="1.0" encoding="utf-8"?>
<!-- Generator: Adobe Illustrator 17.0.0, SVG Export Plug-In . SVG Version: 6.00 Build 0)  -->
<!DOCTYPE svg PUBLIC "-//W3C//DTD SVG 1.1//EN" "http://www.w3.org/Graphics/SVG/1.1/DTD/svg11.dtd">
<svg version="1.1" id="Livello_1" xmlns="http://www.w3.org/2000/svg" xmlns:xlink="http://www.w3.org/1999/xlink" x="0px" y="0px"
	 width="6.926px" height="8.962px" viewBox="0 0 6.926 8.962" enable-background="new 0 0 6.926 8.962" xml:space="preserve">
<path fill-rule="evenodd" clip-rule="evenodd" fill="#BBBBBB" d="M6.814,3.26L3.732,0.114c-0.149-0.152-0.39-0.152-0.538,0
	L0.111,3.26c-0.149,0.152-0.149,0.398,0,0.55c0.149,0.152,0.39,0.152,0.538,0l2.313-2.361v7.013c0,0.276,0.224,0.5,0.5,0.5
	s0.5-0.224,0.5-0.5V1.449L6.276,3.81C6.35,3.886,6.448,3.924,6.545,3.924S6.74,3.886,6.814,3.81C6.963,3.658,6.963,3.412,6.814,3.26
	z"/>
</svg>
