<?xml version="1.0" encoding="utf-8"?>
<!-- Generator: Adobe Illustrator 17.0.0, SVG Export Plug-In . SVG Version: 6.00 Build 0)  -->
<!DOCTYPE svg PUBLIC "-//W3C//DTD SVG 1.1//EN" "http://www.w3.org/Graphics/SVG/1.1/DTD/svg11.dtd">
<svg version="1.1" id="Livello_1" xmlns="http://www.w3.org/2000/svg" xmlns:xlink="http://www.w3.org/1999/xlink" x="0px" y="0px"
	 width="16.799px" height="15.198px" viewBox="0 0 16.799 15.198" enable-background="new 0 0 16.799 15.198" xml:space="preserve">
<path fill="#6AB5AC" d="M8.4,0C3.768,0,0,3.154,0,7.033c0,3.878,3.768,7.033,8.4,7.033c0.852,0,1.704-0.111,2.534-0.332l4.244,1.423
	c0.083,0.028,0.169,0.042,0.255,0.042c0.199,0,0.395-0.074,0.547-0.216c0.215-0.2,0.305-0.503,0.234-0.789l-0.815-3.276
	c0.919-1.156,1.401-2.49,1.401-3.884C16.799,3.155,13.031,0,8.4,0z M13.921,10.17c-0.179,0.199-0.247,0.476-0.182,0.737l0.559,2.25
	l-3.087-1.034c-0.082-0.028-0.168-0.042-0.254-0.042c-0.076,0-0.151,0.01-0.225,0.032c-0.763,0.223-1.547,0.336-2.331,0.336
	c-3.745,0-6.792-2.43-6.792-5.416c0-2.986,3.047-5.417,6.792-5.417s6.792,2.43,6.792,5.417C15.192,8.158,14.752,9.242,13.921,10.17z
	"/>
</svg>
