<?xml version="1.0" encoding="utf-8"?>
<!-- Generator: Adobe Illustrator 17.0.0, SVG Export Plug-In . SVG Version: 6.00 Build 0)  -->
<!DOCTYPE svg PUBLIC "-//W3C//DTD SVG 1.1//EN" "http://www.w3.org/Graphics/SVG/1.1/DTD/svg11.dtd">
<svg version="1.1" id="Livello_1" xmlns="http://www.w3.org/2000/svg" xmlns:xlink="http://www.w3.org/1999/xlink" x="0px" y="0px"
	 width="6.926px" height="8.962px" viewBox="0 0 6.926 8.962" enable-background="new 0 0 6.926 8.962" xml:space="preserve">
<path fill-rule="evenodd" clip-rule="evenodd" fill="#BBBBBB" d="M6.814,5.701L3.732,8.848C3.583,9,3.342,9,3.194,8.848L0.111,5.701
	c-0.149-0.152-0.149-0.398,0-0.55C0.26,5,0.501,5,0.65,5.152l2.313,2.361V0.5c0-0.276,0.224-0.5,0.5-0.5s0.5,0.224,0.5,0.5v7.013
	l2.313-2.361C6.35,5.076,6.448,5.038,6.545,5.038S6.74,5.076,6.814,5.152C6.963,5.304,6.963,5.55,6.814,5.701z"/>
</svg>
