<?xml version="1.0" encoding="utf-8"?>
<!-- Generator: Adobe Illustrator 17.0.0, SVG Export Plug-In . SVG Version: 6.00 Build 0)  -->
<!DOCTYPE svg PUBLIC "-//W3C//DTD SVG 1.1//EN" "http://www.w3.org/Graphics/SVG/1.1/DTD/svg11.dtd">
<svg version="1.1" id="Livello_1" xmlns="http://www.w3.org/2000/svg" xmlns:xlink="http://www.w3.org/1999/xlink" x="0px" y="0px"
	 width="16.39px" height="15.62px" viewBox="0 0 16.39 15.62" enable-background="new 0 0 16.39 15.62" xml:space="preserve">
<path fill="#FFFFFF" d="M11.677,6.941c0.562-0.747,0.865-1.646,0.865-2.594C12.542,1.95,10.592,0,8.195,0S3.848,1.95,3.848,4.347
	c0,0.948,0.303,1.847,0.865,2.594C1.867,8.28,0,11.173,0,14.351c0,0.7,0.57,1.27,1.27,1.27s1.27-0.569,1.27-1.27
	c0-3.119,2.537-5.656,5.656-5.656s5.656,2.537,5.656,5.656c0,0.7,0.57,1.27,1.27,1.27s1.27-0.569,1.27-1.27
	C16.39,11.173,14.523,8.28,11.677,6.941z M8.195,2.539c0.997,0,1.809,0.812,1.809,1.809S9.192,6.156,8.195,6.156
	S6.386,5.344,6.386,4.347S7.198,2.539,8.195,2.539z"/>
</svg>
