<?xml version="1.0" encoding="utf-8"?>
<!-- Generator: Adobe Illustrator 17.0.0, SVG Export Plug-In . SVG Version: 6.00 Build 0)  -->
<!DOCTYPE svg PUBLIC "-//W3C//DTD SVG 1.1//EN" "http://www.w3.org/Graphics/SVG/1.1/DTD/svg11.dtd">
<svg version="1.1" id="Livello_1" xmlns="http://www.w3.org/2000/svg" xmlns:xlink="http://www.w3.org/1999/xlink" x="0px" y="0px"
	 width="16px" height="16px" viewBox="0 0 16 16" enable-background="new 0 0 16 16" xml:space="preserve">
<g>
	<path fill-rule="evenodd" clip-rule="evenodd" fill="#DDDCDA" d="M13,1V0h-1v1H4V0H3v1C1.895,1,1,1.895,1,3v11c0,1.104,0.895,2,2,2
		h10c1.105,0,2-0.895,2-2V3C15,1.895,14.105,1,13,1z M14,15H2V5h12V15z"/>
	<rect x="3" y="6" fill-rule="evenodd" clip-rule="evenodd" fill="#DDDCDA" width="2" height="2"/>
	<rect x="7" y="6" fill-rule="evenodd" clip-rule="evenodd" fill="#DDDCDA" width="2" height="2"/>
	<rect x="11" y="6" fill-rule="evenodd" clip-rule="evenodd" fill="#DDDCDA" width="2" height="2"/>
	<rect x="3" y="9" fill-rule="evenodd" clip-rule="evenodd" fill="#DDDCDA" width="2" height="2"/>
	<rect x="7" y="9" fill-rule="evenodd" clip-rule="evenodd" fill="#DDDCDA" width="2" height="2"/>
	<rect x="11" y="9" fill-rule="evenodd" clip-rule="evenodd" fill="#DDDCDA" width="2" height="2"/>
	<rect x="3" y="12" fill-rule="evenodd" clip-rule="evenodd" fill="#DDDCDA" width="2" height="2"/>
	<rect x="7" y="12" fill-rule="evenodd" clip-rule="evenodd" fill="#DDDCDA" width="2" height="2"/>
</g>
</svg>
