<?xml version="1.0" encoding="utf-8"?>
<!-- Generator: Adobe Illustrator 17.0.0, SVG Export Plug-In . SVG Version: 6.00 Build 0)  -->
<!DOCTYPE svg PUBLIC "-//W3C//DTD SVG 1.1//EN" "http://www.w3.org/Graphics/SVG/1.1/DTD/svg11.dtd">
<svg version="1.1" id="Livello_1" xmlns="http://www.w3.org/2000/svg" xmlns:xlink="http://www.w3.org/1999/xlink" x="0px" y="0px"
	 width="41.878px" height="54.813px" viewBox="44.496 58.239 41.878 54.813" enable-background="new 44.496 58.239 41.878 54.813"
	 xml:space="preserve">
<path fill="#FFFFFF" d="M52.58,85.274c0.342,0.031,0.684,0.033,1.019,0.006c3.225-0.255,4.031-0.764,4.031-0.764l12.815,1.231
	c0,0,3.25,0.085,4.395-0.17c0.062-0.014,0.194-0.032,0.194-0.055v2.602c-1.6,0.635-4.989,0.253-4.989,0.253l2.767,12.985
	l-18.497-0.212l2.209-13.635c0,0-0.763,0.607-3.054,0.48c-0.18-0.01-0.389-0.028-0.622-0.057L52.58,85.274z"/>
<path fill="#99B9D9" d="M82.455,72.805c0.099,0.014,0.184-0.624,1.117-1.174c0.636-0.375,1.773-0.499,2.369-0.948
	c0.426-0.32,0.557-0.839,0.304-1.146c-1.119-1.353-2.666-0.163-3.381,0.849C82.15,71.397,82.356,72.79,82.455,72.805z"/>
<path fill="#FFE1C9" d="M71.379,67.84c0,0,3.564,3.055,3.692,9.039c0.127,5.983-3.14,10.184-9.378,10.609
	c-6.238,0.424-10.142-3.904-10.142-3.904l-3.013-5.516l1.485-9.293L71.379,67.84z"/>
<path fill="#99B9D9" d="M84.548,66.312c-0.566-0.472-1.888,0.036-2.49,1.577c-0.601,1.542-0.474,2.532-0.403,2.567
	c0.071,0.036,0.32-0.46,0.694-0.962c0.374-0.502,1.819-1.333,2.012-1.662C84.555,67.504,84.972,66.666,84.548,66.312z"/>
<g>
	<path fill="#FFE1C9" d="M44.518,78.024c0.467-8.402,7.087-12.136,7.087-12.136s2.376-1.74,3.437-0.891s-2.376,6.747-3.055,6.662
		c-0.679-0.085-1.061-2.207-1.061-2.207s-3.734,3.437-4.031,8.572c-0.27,4.668,2.828,7.057,5.816,7.26l0.207,2.663
		C50.209,87.63,44.084,85.832,44.518,78.024z"/>
	<path fill="#FFE1C9" d="M75.035,85.523c1.28-0.397,5.161-2.231,4.559-7.845c-0.636-5.934-7.587-9.838-7.587-9.838l2.508-0.891
		c0,0,6.325,3.055,7.556,10.269s-5.272,10.269-7.015,10.906c-0.001,0-0.02,0.001-0.02,0.001L75.035,85.523L75.035,85.523z"/>
</g>
<g>
	<ellipse fill="#402517" cx="71.899" cy="74.417" rx="1.008" ry="1.655"/>
	<ellipse fill="#402517" cx="65.067" cy="74.672" rx="1.008" ry="1.655"/>
	<path fill="#402517" d="M72.117,70.181c-0.086-0.038-0.125-0.138-0.087-0.224s0.138-0.125,0.224-0.087
		c0.849,0.373,1.301,1.467,1.32,1.513c0.035,0.087-0.006,0.186-0.093,0.221c-0.021,0.009-0.043,0.012-0.064,0.012
		c-0.067,0-0.131-0.04-0.157-0.106C73.255,71.501,72.839,70.498,72.117,70.181z"/>
	<path fill="#402517" d="M63.692,70.694c0.348-0.441,1.145-0.674,1.179-0.684c0.09-0.026,0.184,0.026,0.21,0.116
		c0.026,0.09-0.026,0.184-0.116,0.21c-0.007,0.002-0.726,0.213-1.006,0.568c-0.294,0.373-0.468,0.916-0.47,0.922
		c-0.023,0.072-0.09,0.119-0.162,0.119c-0.017,0-0.034-0.003-0.051-0.008c-0.089-0.028-0.139-0.124-0.111-0.213
		C63.173,71.7,63.359,71.117,63.692,70.694z"/>
	<path fill="#402517" d="M51.541,71.744c1.167-7.596,6.471-10.651,10.959-10.619c3.893,0.028,6.758,1.793,8.943,1.761
		c0.766-0.011,1.05,0.095,1.963-0.626c0.621-0.491,1.051-1.211,1.231-1.761c0.084-0.258,0.068-0.569,0.074-0.636
		c0.021-0.212-0.148-0.371-0.382-0.414c-0.233-0.043-0.435,0.159-0.435,0.159s-0.265,0.318-0.594,0.297
		c-0.329-0.021-0.488-0.191-0.509-0.562c-0.021-0.371,0.361-1.114,1.485-1.103s1.666,1.432,1.623,2.005
		c-0.043,0.573-0.082,1.397-1.019,2.514c-1.432,1.708-3.437,1.666-3.437,1.666c1.74,1.453,3.018,0.833,3.957,0.265
		c0.939-0.568,1.634-2.26,1.634-2.26s-0.159,0.138-0.329,0.127s-0.509-0.17-0.531-0.583c-0.021-0.414,0.456-0.774,0.753-0.764
		c0.297,0.011,1.124,0.064,1.167,0.679c0.048,0.691,0.117,2.154-1.485,4.19s-4.477,2.292-4.477,2.292l-16.709,0.849l0.064,7.182
		c0,0-2.695-0.881-2.483,1.644c0.212,2.525,2.419,1.761,2.419,1.761l0.127,3.777C55.551,83.583,50.374,79.34,51.541,71.744z"/>
	<ellipse fill="#402517" cx="68.96" cy="81.356" rx="1.103" ry="1.846"/>
</g>
<path fill="#2D80BD" d="M78.798,108.861l-3.633,0.013c0,0-1.791-5.814-12.03-5.6c-8.857,0.185-9.797,5.676-9.797,5.676l-3.865-0.006
	c0.264-4.695,4.847-7.793,4.847-7.793l18.502,0.212C72.822,101.364,78.111,102.737,78.798,108.861z"/>
<path d="M83.558,111.452h-8.275l-0.119-2.577l3.633-0.013C78.798,108.861,82.922,108.252,83.558,111.452z"/>
<polygon fill="#FFFFFF" points="75.355,111.452 83.558,111.452 83.675,112.732 75.355,112.732 "/>
<polygon points="75.283,112.732 83.675,112.732 83.675,113.052 75.241,113.052 "/>
<path d="M44.951,111.452h8.275l0.112-2.502l-3.865-0.006C49.473,108.944,45.587,108.252,44.951,111.452z"/>
<polygon fill="#FFFFFF" points="53.275,111.452 44.951,111.452 44.955,112.732 53.275,112.732 "/>
<polygon points="53.225,112.732 44.955,112.732 44.955,113.052 53.268,113.052 "/>
</svg>
