<?xml version="1.0" encoding="utf-8"?>
<!-- Generator: Adobe Illustrator 17.0.0, SVG Export Plug-In . SVG Version: 6.00 Build 0)  -->
<!DOCTYPE svg PUBLIC "-//W3C//DTD SVG 1.1//EN" "http://www.w3.org/Graphics/SVG/1.1/DTD/svg11.dtd">
<svg version="1.1" id="Livello_1" xmlns="http://www.w3.org/2000/svg" xmlns:xlink="http://www.w3.org/1999/xlink" x="0px" y="0px"
	 width="20px" height="20px" viewBox="0 0 24 24" enable-background="new 0 0 24 24" xml:space="preserve">
<path fill-rule="evenodd" clip-rule="evenodd" fill="#0050a0" d="M17.174,5.349C17.087,5.435,12,10.522,12,10.522
	S6.914,5.435,6.827,5.349c-0.408-0.408-1.07-0.408-1.478,0c-0.408,0.408-0.408,1.07,0,1.478C5.436,6.913,10.522,12,10.522,12
	s-5.086,5.087-5.173,5.173c-0.408,0.408-0.408,1.07,0,1.478c0.408,0.408,1.07,0.408,1.478,0C6.914,18.565,12,13.478,12,13.478
	s5.087,5.087,5.173,5.173c0.408,0.408,1.07,0.408,1.478,0c0.408-0.408,0.408-1.07,0-1.478C18.565,17.087,13.479,12,13.479,12
	s5.086-5.087,5.173-5.173c0.408-0.408,0.408-1.07,0-1.478C18.244,4.94,17.582,4.94,17.174,5.349z"/>
</svg>
