<?xml version="1.0" encoding="utf-8"?>
<!-- Generator: Adobe Illustrator 17.0.0, SVG Export Plug-In . SVG Version: 6.00 Build 0)  -->
<!DOCTYPE svg PUBLIC "-//W3C//DTD SVG 1.1//EN" "http://www.w3.org/Graphics/SVG/1.1/DTD/svg11.dtd">
<svg version="1.1" id="Livello_1" xmlns="http://www.w3.org/2000/svg" xmlns:xlink="http://www.w3.org/1999/xlink" x="0px" y="0px"
	 width="173.575px" height="193.522px" viewBox="0 0 173.575 193.522" enable-background="new 0 0 173.575 193.522"
	 xml:space="preserve">
<path fill-rule="evenodd" clip-rule="evenodd" fill="#0050a0" d="M57.423,83.93c5.04,0,9.126,4.086,9.126,9.126
	c0,5.04-4.086,9.126-9.126,9.126c-5.04,0-9.126-4.086-9.126-9.126C48.297,88.016,52.383,83.93,57.423,83.93z"/>
<path fill-rule="evenodd" clip-rule="evenodd" fill="#0050a0" d="M116.423,83.93c5.04,0,9.126,4.086,9.126,9.126
	c0,5.04-4.086,9.126-9.126,9.126c-5.04,0-9.126-4.086-9.126-9.126C107.297,88.016,111.383,83.93,116.423,83.93z"/>
<path fill="#0050a0" d="M50.626,138.52c5.79,15.014,19.293,25.669,36.16,25.669c16.857,0,30.369-10.655,36.162-25.669H50.626z"/>
<path fill="#0050a0" d="M147.623,42.791c-2.722-7.439-10.246-24.065-26.702-37.458c-2.333-1.905-5.748-1.514-7.625,0.854
	c-1.875,2.365-1.505,5.829,0.83,7.731c4.159,3.378,7.638,7.031,10.589,10.65C113.705,14.71,98.621,3.742,82.953,0.14
	c-2.019-0.475-4.122,0.278-5.424,1.91c-1.298,1.638-1.567,3.88-0.691,5.779l3.853,8.385c-5.257-1.581-11.534-2.916-17.653-2.916
	c-4.801,0-9.08,0.827-12.714,2.453c-12.645,5.671-20.642,14.79-22.491,25.21C10.721,57.034,0,80.004,0,105.522
	c0,48.601,38.852,88,86.785,88c47.926,0,86.79-39.399,86.79-88C173.57,80.958,163.628,58.755,147.623,42.791 M86.785,178.851
	c-39.878,0-72.322-32.9-72.322-73.334c0-18.038,6.474-34.543,17.169-47.325c4.668,5.49,13.072,8.516,24.46,8.516
	c3.345,0,5.704-0.279,5.806-0.292c2.623-0.309,4.646-2.495,4.781-5.174c0.135-2.677-1.651-5.065-4.232-5.649
	c-0.007,0-0.808-0.339-1.193-1.037c-0.587-1.064-0.439-3.088,0.399-5.547c0.899-2.64,3.643-10.653,21.802-10.653
	c19.655,0,44.542,9.454,50.766,11.946c15.214,13.454,24.883,33.195,24.883,55.216C159.109,145.955,126.663,178.851,86.785,178.851"
	/>
</svg>
