<?xml version="1.0" encoding="utf-8"?>
<!-- Generator: Adobe Illustrator 17.0.0, SVG Export Plug-In . SVG Version: 6.00 Build 0)  -->
<!DOCTYPE svg PUBLIC "-//W3C//DTD SVG 1.1//EN" "http://www.w3.org/Graphics/SVG/1.1/DTD/svg11.dtd">
<svg version="1.1" id="Livello_1" xmlns="http://www.w3.org/2000/svg" xmlns:xlink="http://www.w3.org/1999/xlink" x="0px" y="0px"
	 width="22px" height="25px" viewBox="0 0 22 25" enable-background="new 0 0 22 25" xml:space="preserve">
<g>
	<path fill-rule="evenodd" clip-rule="evenodd" fill="#FFFFFF" d="M10.95,3C10.705,1.306,9.262,0,7.5,0S4.295,1.306,4.05,3H0v1h4.05
		C4.295,5.694,5.738,7,7.5,7s3.205-1.306,3.45-3H22V3H10.95z M7.5,5C6.672,5,6,4.328,6,3.5S6.672,2,7.5,2C8.328,2,9,2.672,9,3.5
		S8.328,5,7.5,5z"/>
	<path fill-rule="evenodd" clip-rule="evenodd" fill="#FFFFFF" d="M14.5,9c-1.762,0-3.205,1.306-3.45,3H0v1h11.05
		c0.245,1.694,1.688,3,3.45,3s3.205-1.306,3.45-3H22v-1h-4.05C17.705,10.306,16.262,9,14.5,9z M14.5,14c-0.828,0-1.5-0.671-1.5-1.5
		c0-0.828,0.672-1.5,1.5-1.5c0.828,0,1.5,0.672,1.5,1.5C16,13.329,15.328,14,14.5,14z"/>
	<path fill-rule="evenodd" clip-rule="evenodd" fill="#FFFFFF" d="M7.5,18c-1.762,0-3.205,1.306-3.45,3H0v1h4.05
		c0.245,1.694,1.688,3,3.45,3s3.205-1.306,3.45-3H22v-1H10.95C10.705,19.306,9.262,18,7.5,18z M7.5,23C6.672,23,6,22.328,6,21.5
		S6.672,20,7.5,20C8.328,20,9,20.672,9,21.5S8.328,23,7.5,23z"/>
</g>
</svg>
