<?xml version="1.0" encoding="utf-8"?>
<!-- Generator: Adobe Illustrator 17.0.0, SVG Export Plug-In . SVG Version: 6.00 Build 0)  -->
<!DOCTYPE svg PUBLIC "-//W3C//DTD SVG 1.1//EN" "http://www.w3.org/Graphics/SVG/1.1/DTD/svg11.dtd">
<svg version="1.1" id="Livello_1" xmlns="http://www.w3.org/2000/svg" xmlns:xlink="http://www.w3.org/1999/xlink" x="0px" y="0px"
	 width="96.009px" height="27.031px" viewBox="9.472 4.022 96.009 27.031" enable-background="new 9.472 4.022 96.009 27.031"
	 xml:space="preserve">
<g>
	<path fill="#FFFFFF" d="M90.555,22.022c-0.35-0.354-0.525-0.935-0.525-1.74v-5.645h3.538v-0.079h0.037V11.25h-0.037v-0.209h-3.538
		V6.939h-4.175v4.101h-1.482v3.596h1.242v5.703c0,0.824,0.095,1.578,0.286,2.258c0.19,0.682,0.49,1.261,0.902,1.74
		c0.41,0.479,0.941,0.853,1.592,1.122c0.65,0.268,1.437,0.403,2.358,0.403c2.107,0.003,3.25-1.199,3.56-1.289l-1.204-3.079
		C93.107,21.496,91.674,22.994,90.555,22.022z"/>
	<path fill="#FFFFFF" d="M67.224,12.989c-0.709-0.63-1.523-1.113-2.443-1.447c-0.92-0.334-1.878-0.502-2.871-0.502
		c-0.995,0-1.957,0.167-2.887,0.502c-0.931,0.335-1.751,0.816-2.459,1.447c-0.709,0.63-1.275,1.408-1.697,2.334
		c-0.423,0.926-0.634,1.981-0.634,3.165s0.211,2.24,0.634,3.165c0.422,0.927,0.989,1.704,1.697,2.335
		c0.708,0.63,1.528,1.113,2.459,1.446c0.93,0.334,1.893,0.501,2.887,0.501c0.994,0,1.952-0.167,2.871-0.501
		c0.92-0.334,1.734-0.816,2.443-1.446c0.708-0.63,1.274-1.408,1.697-2.335c0.422-0.927,0.634-1.981,0.634-3.165
		c0-1.184-0.212-2.239-0.634-3.165C68.499,14.397,67.933,13.619,67.224,12.989z M64.068,21.44c-0.487,0.726-1.206,1.089-2.157,1.089
		c-0.974,0-1.697-0.363-2.173-1.089s-0.714-1.709-0.714-2.95c0-1.241,0.238-2.225,0.714-2.95c0.476-0.725,1.2-1.089,2.173-1.089
		c0.951,0,1.671,0.363,2.157,1.089c0.486,0.726,0.729,1.709,0.729,2.95C64.797,19.73,64.554,20.714,64.068,21.44z"/>
	<path fill="#FFFFFF" d="M79.262,11.04L79.262,11.04v9.836c-0.444,0.529-0.858,0.915-1.243,1.153
		c-0.394,0.246-0.88,0.368-1.46,0.368c-0.663,0-1.15-0.189-1.46-0.566c-0.31-0.377-0.466-1.076-0.466-2.095v-8.696h-4.566v9.234
		c0,1.774,0.377,3.161,1.135,4.162c0.756,1,1.973,1.5,3.65,1.5c1.057,0,1.962-0.203,2.718-0.609
		c0.593-0.319,1.157-0.734,1.693-1.244v1.854h4.598v-0.34V11.04h-4.566H79.262z"/>
	<path fill="#FFFFFF" d="M34.943,22.41c-0.3,0.211-0.78,0.317-1.442,0.317c-0.641,0-1.272-0.125-1.893-0.374
		c-0.621-0.249-1.272-0.623-1.952-1.122l-1.982,2.647c0.761,0.594,1.657,1.074,2.689,1.439c1.031,0.364,2.037,0.547,3.018,0.547
		c1,0,1.882-0.121,2.643-0.36c0.761-0.24,1.402-0.565,1.923-0.978c0.52-0.412,0.91-0.897,1.172-1.453
		c0.26-0.556,0.39-1.16,0.39-1.812c0-0.651-0.12-1.212-0.36-1.683c-0.241-0.469-0.555-0.867-0.946-1.193
		c-0.39-0.326-0.821-0.599-1.292-0.819c-0.471-0.22-0.946-0.417-1.427-0.59c-0.381-0.134-0.746-0.264-1.096-0.388
		c-0.35-0.125-0.66-0.254-0.931-0.388c-0.27-0.134-0.485-0.282-0.645-0.445c-0.161-0.163-0.241-0.36-0.241-0.59
		c0-0.748,0.56-1.122,1.682-1.122c0.52,0,1.04,0.106,1.562,0.317c0.52,0.211,1.051,0.508,1.592,0.892l1.982-2.531
		c-0.641-0.46-1.392-0.878-2.252-1.251c-0.861-0.374-1.862-0.561-3.003-0.561c-0.861,0-1.642,0.111-2.343,0.331
		c-0.701,0.22-1.302,0.523-1.803,0.906c-0.501,0.384-0.886,0.854-1.157,1.409c-0.27,0.557-0.405,1.16-0.405,1.812
		c0,0.594,0.12,1.118,0.36,1.567c0.241,0.451,0.55,0.844,0.931,1.179c0.38,0.336,0.801,0.618,1.262,0.848
		c0.461,0.23,0.921,0.431,1.382,0.604c0.38,0.154,0.751,0.293,1.111,0.417c0.36,0.125,0.685,0.263,0.976,0.417
		c0.29,0.154,0.52,0.321,0.69,0.504c0.17,0.183,0.255,0.388,0.255,0.618C35.393,21.901,35.243,22.199,34.943,22.41z"/>
	<path fill="#FFFFFF" d="M48.867,10.783c-1.702,0.037-3.397,1.158-4.342,1.907v-7.3h-4.598v20.547h4.598V15.79
		c0.764-0.597,1.946-1.396,2.809-1.411c1.946-0.025,1.788,1.798,1.788,1.798v9.761h4.598v-9.761
		C53.721,16.176,54.068,10.727,48.867,10.783z"/>
	<path fill="#FFFFFF" d="M41.013,28.281l-11.611-2.686l-9.857-2.281c-0.001,0-0.002,0-0.002,0l-4.513-1.044l-0.515-5.411
		L39.198,5.654c0.428-0.195,0.618-0.7,0.424-1.13c-0.194-0.429-0.697-0.621-1.125-0.426L13.261,15.555
		c-0.332,0.15-0.53,0.496-0.496,0.859l0.632,6.631c0.035,0.366,0.299,0.669,0.655,0.751l4.282,0.991l-0.28,1.221
		c-0.177,0.77-0.044,1.564,0.373,2.236c0.418,0.671,1.071,1.137,1.838,1.315l6.134,1.419c0.218,0.05,0.441,0.076,0.664,0.076
		c1.38,0,2.561-0.944,2.871-2.296l0.281-1.221l10.416,2.41c0.065,0.015,0.128,0.022,0.192,0.022c0.387,0,0.737-0.267,0.828-0.662
		C41.756,28.846,41.471,28.387,41.013,28.281z M28.277,28.373c-0.152,0.666-0.825,1.097-1.496,0.939l-6.134-1.419
		c-0.325-0.075-0.601-0.273-0.778-0.556c-0.177-0.284-0.233-0.621-0.158-0.946l0.28-1.221l4.936,1.142l3.63,0.839L28.277,28.373z"/>
	<path fill="#FFFFFF" d="M10.242,15.932c-0.468,0.045-0.811,0.462-0.766,0.932l0.606,6.366c0.042,0.442,0.412,0.773,0.846,0.773
		c0.027,0,0.054-0.001,0.082-0.004c0.467-0.044,0.81-0.461,0.766-0.931l-0.606-6.367C11.123,16.232,10.707,15.885,10.242,15.932z"/>
	<path fill="#FFFFFF" d="M97.226,23.624c-0.381-0.275-0.913-0.187-1.187,0.196c-0.275,0.383-0.187,0.916,0.195,1.191l4.26,3.069
		c0.125,0.09,0.267,0.141,0.411,0.156c0.292,0.029,0.592-0.095,0.776-0.352c0.275-0.382,0.189-0.915-0.194-1.191L97.226,23.624z"/>
	<path fill="#FFFFFF" d="M97.052,12.864c0.143-0.02,0.283-0.076,0.405-0.172l4.135-3.235c0.37-0.289,0.437-0.826,0.147-1.198
		c-0.291-0.372-0.826-0.439-1.194-0.15l-4.135,3.235c-0.37,0.289-0.436,0.826-0.147,1.198C96.457,12.792,96.76,12.905,97.052,12.864
		z"/>
	<path fill="#FFFFFF" d="M104.631,16.976h-5.1c-0.469,0-0.85,0.381-0.85,0.85s0.381,0.85,0.85,0.85h5.1
		c0.469,0,0.85-0.381,0.85-0.85S105.1,16.976,104.631,16.976z"/>
</g>
</svg>
