<?xml version="1.0" encoding="utf-8"?>
<!-- Generator: Adobe Illustrator 17.0.0, SVG Export Plug-In . SVG Version: 6.00 Build 0)  -->
<!DOCTYPE svg PUBLIC "-//W3C//DTD SVG 1.1//EN" "http://www.w3.org/Graphics/SVG/1.1/DTD/svg11.dtd">
<svg version="1.1" id="Livello_1" xmlns="http://www.w3.org/2000/svg" xmlns:xlink="http://www.w3.org/1999/xlink" x="0px" y="0px"
	 width="130.869px" height="171.291px" viewBox="0 0 130.869 171.291" enable-background="new 0 0 130.869 171.291"
	 xml:space="preserve">
<g>
	<path fill="#FFFFFF" d="M39.441,121.694l1.872-18.864l0.72-4.5l-5.481-0.242c3.269-8.564,7.241-18.082,10.413-23.194l39.672,3.096
		c0,0,10.841,3.057,15.228,2.916l0.432,6.516c-4.968,0.432-14.256-1.476-14.256-1.476l3.384,36.36L39.441,121.694z"/>
	<path fill="#FFE1C9" d="M87.396,28.278c0,0,10.023,8.591,10.381,25.416s-8.83,28.638-26.371,29.831S42.888,72.548,42.888,72.548
		l-8.472-15.512l4.176-26.132L87.396,28.278z"/>
	<g>
		<path d="M71.385,166.291h23.649l-0.405-8h-10.26C84.369,158.291,73.146,157.291,71.385,166.291z"/>
		<polygon fill="#FFFFFF" points="95.435,166.291 71.385,166.291 71.061,169.291 95.435,169.291 		"/>
		<rect x="70.435" y="169.291" width="25" height="1"/>
	</g>
	<path fill="#FFFFFF" d="M92.343,51.476c-0.45,0-2.07,3.834-2.16,5.85c-0.061,1.37,0.162,2.754,1.944,2.772
		c1.782,0.018,2.232-1.512,2.34-3.042C94.575,55.526,92.793,51.476,92.343,51.476z"/>
	<g>
		<path fill="#402517" d="M106.279,11.543c-0.119-1.73-2.446-1.879-3.281-1.909c-0.835-0.03-2.178,0.984-2.118,2.148
			s1.014,1.611,1.492,1.641c0.477,0.03,0.925-0.358,0.925-0.358s-1.954,4.758-4.594,6.354c-2.64,1.596-6.235,3.341-11.127-0.746
			c0,0,5.638,0.119,9.665-4.683c2.634-3.142,2.744-5.459,2.864-7.07c0.119-1.611-1.402-5.608-4.564-5.638
			c-3.162-0.03-4.236,2.058-4.176,3.102s0.507,1.521,1.432,1.581c0.925,0.06,1.671-0.835,1.671-0.835s0.567-0.567,1.223-0.447
			c0.656,0.119,1.134,0.567,1.074,1.163c-0.019,0.191,0.028,1.064-0.209,1.79c-0.506,1.547-1.714,3.571-3.46,4.952
			c-2.565,2.029-3.364,1.729-5.519,1.76c-6.145,0.089-14.2-4.874-25.148-4.952c-12.619-0.089-27.534,8.502-30.816,29.861
			c-3.281,21.359,11.276,33.291,11.276,33.291l-0.358-10.62c0,0-6.205,2.148-6.801-4.952c-0.597-7.1,6.98-4.624,6.98-4.624
			L42.53,32.156l46.984-2.386c0,0,8.084-0.716,12.589-6.444C106.607,17.599,106.413,13.486,106.279,11.543z"/>
		<path fill="#402517" d="M72.546,42.583c-0.225-0.132-0.512-0.084-0.682,0.113l-5.916,6.857c-0.088,0.102-0.135,0.233-0.131,0.368
			c0.004,0.146,0.068,0.287,0.176,0.386c0.108,0.099,0.254,0.15,0.4,0.141c0.253-0.016,0.253-0.016,1.475-1.306
			c0.119-0.125,0.25-0.264,0.379-0.4c0.471,2.33,1.908,3.958,3.545,3.856c1.888-0.118,3.225-2.487,3.044-5.394
			C74.708,45.137,73.809,43.323,72.546,42.583z"/>
		<path fill="#402517" d="M93.722,47.813l-6.071-4.946c-0.114-0.093-0.262-0.135-0.408-0.117c-0.146,0.018-0.279,0.095-0.367,0.214
			c-0.637,0.857-1.081,2.009-1.25,3.243c-0.394,2.886,0.766,5.346,2.64,5.602c1.663,0.227,3.278-1.408,3.879-3.818
			c0.038,0.028,0.075,0.058,0.11,0.084c0.412,0.308,0.833,0.479,0.969,0.572l0.211,0.017v0.003c0,0.101-0.215,0.624-0.136,0.624
			c0.001,0,0.001,0,0.002,0c0.239,0,0.475-0.36,0.572-0.581C93.969,48.487,93.91,47.966,93.722,47.813z"/>
		<path fill="#402517" d="M82.047,63.662c-5.598,0.288-6.426,5.832-6.426,5.832c5.436-1.764,12.06-1.008,13.176-0.54
			C88.797,68.954,87.645,63.374,82.047,63.662z"/>
	</g>
	<path fill="#FFE1C9" d="M41.421,102.83c0,0-5.832,16.416-5.94,17.424c-0.108,1.008,5.292,4.824,3.888,6.732
		s-3.672-1.368-3.672-1.368l-1.332,6.768c0,0-0.27,0.522-1.008,0.54c-0.738,0.018-0.792-0.576-0.792-0.576s-0.36,0.432-0.972,0.324
		c-0.612-0.108-0.648-0.576-0.648-0.576s-0.54,0.504-1.188,0.324c-0.648-0.18-0.864-0.684-0.864-0.684s-0.27,0.648-1.152,0.396
		s-0.54-1.296-0.54-1.296s2.43-12.402,3.276-15.336c0.42-1.456,2.96-8.972,6.183-17.414l5.373,0.242L41.421,102.83z"/>
	<path fill="#FFE1C9" d="M101.865,80.906c4.387-0.141,20.736,1.548,21.168-16.488c0.305-12.744-10.368-14.76-10.368-14.76
		s-8.064,3.564-8.568,1.116c-0.504-2.448,3.924-3.348,3.924-3.348l-6.804-3.564c0,0-0.9-0.253-0.612-1.116
		c0.288-0.864,1.044-0.792,1.044-0.792s-0.468-0.18-0.252-0.936c0.216-0.756,1.008-0.972,1.008-0.972s-0.216-0.396,0.036-1.08
		c0.252-0.684,1.008-0.792,1.008-0.792s-0.54-0.396-0.18-1.08c0.36-0.684,1.332-0.54,1.332-0.54l11.448,6.084
		c0,0,14.876,8.699,13.608,21.276c-2.304,22.86-22.392,23.076-27.36,23.508L101.865,80.906z"/>
	<path fill="#2D80BD" d="M91.425,122.154l3.204,36.137h-10.26c0,0-2.484-26.957-21.276-25.229s-17.982,23.89-17.982,23.89
		l-8.802-0.07l3.132-35.283L91.425,122.154z"/>
	<g>
		<path d="M59.839,164.291H36.012l0.297-7.277l8.802,0.155C45.111,157.169,58.077,155.291,59.839,164.291z"/>
		<polygon fill="#FFFFFF" points="35.435,164.291 59.839,164.291 59.874,167.652 35.435,167.45 		"/>
		<polygon points="35.435,167.18 60.435,167.558 60.435,168.291 35.435,168.291 		"/>
	</g>
</g>
</svg>
