<?xml version="1.0" encoding="utf-8"?>
<!-- Generator: Adobe Illustrator 17.0.0, SVG Export Plug-In . SVG Version: 6.00 Build 0)  -->
<!DOCTYPE svg PUBLIC "-//W3C//DTD SVG 1.1//EN" "http://www.w3.org/Graphics/SVG/1.1/DTD/svg11.dtd">
<svg version="1.1" id="Livello_1" xmlns="http://www.w3.org/2000/svg" xmlns:xlink="http://www.w3.org/1999/xlink" x="0px" y="0px"
	 width="174.036px" height="194.036px" viewBox="0 0 174.036 194.036" enable-background="new 0 0 174.036 194.036"
	 xml:space="preserve">
<g>
	<path fill="#DDDCDA" d="M68.885,89.255c0-7.104-5.679-12.865-12.691-12.865c-7.005,0-12.686,5.76-12.686,12.865
		c0,7.105,5.681,12.868,12.686,12.868C63.206,102.123,68.885,96.36,68.885,89.255z"/>
	<path fill="#DDDCDA" d="M117.833,76.391c-7.007,0-12.689,5.76-12.689,12.865c0,7.105,5.683,12.868,12.689,12.868
		c7.012,0,12.692-5.763,12.692-12.868C130.524,82.151,124.845,76.391,117.833,76.391z"/>
	<path fill="#DDDCDA" d="M148.015,42.905c-2.729-7.458-10.273-24.129-26.773-37.557c-2.339-1.91-5.763-1.517-7.645,0.857
		c-1.88,2.37-1.509,5.843,0.832,7.752c4.17,3.386,7.658,7.049,10.617,10.678C114.007,14.749,98.883,3.752,83.174,0.141
		c-2.025-0.477-4.134,0.278-5.438,1.915c-1.302,1.642-1.571,3.89-0.693,5.794l3.863,8.408c-5.271-1.585-11.565-2.923-17.7-2.923
		c-4.814,0-9.104,0.83-12.748,2.46C37.78,21.479,29.761,30.623,27.907,41.07C10.749,57.186,0,80.217,0,105.801
		c0,48.731,38.955,88.234,87.016,88.234c48.053,0,87.02-39.504,87.02-88.234C174.031,81.173,164.062,58.911,148.015,42.905z
		 M87.016,179.326c-39.984,0-72.514-32.988-72.514-73.53c0-18.086,6.491-34.635,17.214-47.45c4.681,5.503,13.107,8.539,24.525,8.539
		c3.354,0,5.719-0.279,5.822-0.293c2.63-0.31,4.658-2.503,4.794-5.188c0.135-2.685-1.655-5.078-4.244-5.664
		c-0.007,0-0.81-0.34-1.196-1.041c-0.589-1.067-0.441-3.095,0.401-5.561c0.901-2.647,3.653-10.682,21.86-10.682
		c19.708,0,44.66,9.479,50.901,11.978c15.254,13.49,24.949,33.283,24.949,55.363C159.532,146.343,126.999,179.326,87.016,179.326z"
		/>
	<path fill="#DDDCDA" d="M87.191,112.657c-14.011,0-25.372,11.521-25.372,25.731c0,14.208,11.361,25.735,25.372,25.735
		c14.024,0,25.383-11.527,25.383-25.735C112.574,124.178,101.215,112.657,87.191,112.657z M87.626,156.785c-9.941,0-18-8.059-18-18
		c0-9.941,8.059-18,18-18s18,8.059,18,18C105.626,148.727,97.567,156.785,87.626,156.785z"/>
</g>
</svg>
