<?xml version="1.0" encoding="utf-8"?>
<!-- Generator: Adobe Illustrator 16.0.0, SVG Export Plug-In . SVG Version: 6.00 Build 0)  -->
<!DOCTYPE svg PUBLIC "-//W3C//DTD SVG 1.1//EN" "http://www.w3.org/Graphics/SVG/1.1/DTD/svg11.dtd">
<svg version="1.1" id="Livello_1" xmlns="http://www.w3.org/2000/svg" xmlns:xlink="http://www.w3.org/1999/xlink" x="0px" y="0px"
	 width="191px" height="194.036px" viewBox="156.189 0 191 194.036" enable-background="new 156.189 0 191 194.036"
	 xml:space="preserve">
<g>
	<path fill="#F4F4F4" d="M236.377,89.255c0-7.104-5.68-12.865-12.691-12.865c-7.005,0-12.686,5.76-12.686,12.865
		s5.681,12.869,12.686,12.869C230.698,102.124,236.377,96.36,236.377,89.255z"/>
	<path fill="#F4F4F4" d="M285.325,76.39c-7.008,0-12.69,5.76-12.69,12.865s5.683,12.869,12.69,12.869
		c7.013,0,12.691-5.764,12.691-12.869C298.016,82.151,292.337,76.39,285.325,76.39z"/>
	<path fill="#F4F4F4" d="M288.734,5.348c-2.339-1.91-5.763-1.518-7.645,0.856c-1.88,2.371-1.509,5.843,0.832,7.752
		c4.17,3.386,7.658,7.049,10.617,10.678c-11.039-9.885-26.163-20.882-41.872-24.493c-2.025-0.477-4.134,0.278-5.438,1.915
		c-1.302,1.642-1.57,3.89-0.692,5.794l3.862,8.408c-5.271-1.585-11.564-2.924-17.698-2.924c-4.814,0-9.104,0.83-12.748,2.46
		C205.273,21.48,197.254,30.623,195.4,41.07c-17.157,16.115-27.906,39.146-27.906,64.731c0,48.73,38.955,88.234,87.016,88.234
		c48.053,0,87.02-39.504,87.02-88.234c-0.005-24.628-9.974-46.891-26.021-62.897C312.778,35.447,305.233,18.776,288.734,5.348z
		 M254.508,179.327c-39.984,0-72.514-32.988-72.514-73.531c0-18.085,6.49-34.634,17.214-47.45
		c4.681,5.504,13.106,8.539,24.524,8.539c3.354,0,5.72-0.28,5.822-0.293c2.63-0.31,4.658-2.503,4.794-5.188
		c0.135-2.685-1.655-5.078-4.244-5.664c-0.007,0-0.81-0.34-1.195-1.041c-0.59-1.067-0.441-3.095,0.4-5.561
		c0.901-2.647,3.653-10.682,21.86-10.682c19.708,0,44.66,9.479,50.9,11.978c15.254,13.49,24.949,33.283,24.949,55.362
		C327.024,146.342,294.491,179.327,254.508,179.327z"/>
	<path fill="#F4F4F4" d="M254.683,112.657c-14.011,0-25.372,11.521-25.372,25.731c0,14.208,11.361,25.735,25.372,25.735
		c14.024,0,25.382-11.527,25.382-25.735C280.066,124.178,268.707,112.657,254.683,112.657z M255.118,156.786c-9.941,0-18-8.06-18-18
		c0-9.941,8.059-18,18-18c9.94,0,18,8.059,18,18C273.118,148.726,265.059,156.786,255.118,156.786z"/>
</g>
</svg>
