<?xml version="1.0" encoding="utf-8"?>
<!-- Generator: Adobe Illustrator 17.0.0, SVG Export Plug-In . SVG Version: 6.00 Build 0)  -->
<!DOCTYPE svg PUBLIC "-//W3C//DTD SVG 1.1//EN" "http://www.w3.org/Graphics/SVG/1.1/DTD/svg11.dtd">
<svg version="1.1" id="Livello_1" xmlns="http://www.w3.org/2000/svg" xmlns:xlink="http://www.w3.org/1999/xlink" x="0px" y="0px"
	 width="700px" height="46px" viewBox="0 0 700 46" enable-background="new 0 0 700 46" xml:space="preserve">
<path fill-rule="evenodd" clip-rule="evenodd" fill="#FAFAFA" d="M0,0h700v46H0V0z"/>
<path fill-rule="evenodd" clip-rule="evenodd" fill="#EEEEEE" d="M700,9V8h-5V0h-1v8h-9V0h-1v8h-9V0h-1v8h-9V0h-1v8h-9V0h-1v8h-9V0
	h-1v8h-9V0h-1v8h-9V0h-1v8h-9V0h-1v8h-9V0h-1v8h-9V0h-1v8h-9V0h-1v8h-9V0h-1v8h-9V0h-1v8h-9V0h-1v8h-9V0h-1v8h-9V0h-1v8h-9V0h-1v8
	h-9V0h-1v8h-9V0h-1v8h-9V0h-1v8h-9V0h-1v8h-9V0h-1v8h-9V0h-1v8h-9V0h-1v8h-9V0h-1v8h-9V0h-1v8h-9V0h-1v8h-9V0h-1v8h-9V0h-1v8h-9V0
	h-1v8h-9V0h-1v8h-9V0h-1v8h-9V0h-1v8h-9V0h-1v8h-9V0h-1v8h-9V0h-1v8h-9V0h-1v8h-9V0h-1v8h-9V0h-1v8h-9V0h-1v8h-9V0h-1v8h-9V0h-1v8
	h-9V0h-1v8h-9V0h-1v8h-9V0h-1v8h-9V0h-1v8h-9V0h-1v8h-9V0h-1v8h-9V0h-1v8h-9V0h-1v8h-9V0h-1v8h-9V0h-1v8h-9V0h-1v8h-9V0h-1v8h-9V0
	h-1v8h-9V0h-1v8h-9V0h-1v8h-9V0h-1v8h-9V0h-1v8h-9V0h-1v8h-9V0h-1v8h-9V0h-1v8h-9V0h-1v8h-9V0h-1v8h-9V0h-1v8h-9V0h-1v8h-9V0h-1v8
	h-9V0h-1v8H5V0H4v8H0v1h4v9H0v1h4v9H0v1h4v9H0v1h4v7h1v-7h9v7h1v-7h9v7h1v-7h9v7h1v-7h9v7h1v-7h9v7h1v-7h9v7h1v-7h9v7h1v-7h9v7h1v-7
	h9v7h1v-7h9v7h1v-7h9v7h1v-7h9v7h1v-7h9v7h1v-7h9v7h1v-7h9v7h1v-7h9v7h1v-7h9v7h1v-7h9v7h1v-7h9v7h1v-7h9v7h1v-7h9v7h1v-7h9v7h1v-7
	h9v7h1v-7h9v7h1v-7h9v7h1v-7h9v7h1v-7h9v7h1v-7h9v7h1v-7h9v7h1v-7h9v7h1v-7h9v7h1v-7h9v7h1v-7h9v7h1v-7h9v7h1v-7h9v7h1v-7h9v7h1v-7
	h9v7h1v-7h9v7h1v-7h9v7h1v-7h9v7h1v-7h9v7h1v-7h9v7h1v-7h9v7h1v-7h9v7h1v-7h9v7h1v-7h9v7h1v-7h9v7h1v-7h9v7h1v-7h9v7h1v-7h9v7h1v-7
	h9v7h1v-7h9v7h1v-7h9v7h1v-7h9v7h1v-7h9v7h1v-7h9v7h1v-7h9v7h1v-7h9v7h1v-7h9v7h1v-7h9v7h1v-7h9v7h1v-7h9v7h1v-7h9v7h1v-7h9v7h1v-7
	h9v7h1v-7h9v7h1v-7h9v7h1v-7h9v7h1v-7h9v7h1v-7h5v-1h-5v-9h5v-1h-5v-9h5v-1h-5V9H700z M14,38H5v-9h9V38z M14,28H5v-9h9V28z M14,18H5
	V9h9V18z M24,38h-9v-9h9V38z M24,28h-9v-9h9V28z M24,18h-9V9h9V18z M34,38h-9v-9h9V38z M34,28h-9v-9h9V28z M34,18h-9V9h9V18z M44,38
	h-9v-9h9V38z M44,28h-9v-9h9V28z M44,18h-9V9h9V18z M54,38h-9v-9h9V38z M54,28h-9v-9h9V28z M54,18h-9V9h9V18z M64,38h-9v-9h9V38z
	 M64,28h-9v-9h9V28z M64,18h-9V9h9V18z M74,38h-9v-9h9V38z M74,28h-9v-9h9V28z M74,18h-9V9h9V18z M84,38h-9v-9h9V38z M84,28h-9v-9h9
	V28z M84,18h-9V9h9V18z M94,38h-9v-9h9V38z M94,28h-9v-9h9V28z M94,18h-9V9h9V18z M104,38h-9v-9h9V38z M104,28h-9v-9h9V28z M104,18
	h-9V9h9V18z M114,38h-9v-9h9V38z M114,28h-9v-9h9V28z M114,18h-9V9h9V18z M124,38h-9v-9h9V38z M124,28h-9v-9h9V28z M124,18h-9V9h9
	V18z M134,38h-9v-9h9V38z M134,28h-9v-9h9V28z M134,18h-9V9h9V18z M144,38h-9v-9h9V38z M144,28h-9v-9h9V28z M144,18h-9V9h9V18z
	 M154,38h-9v-9h9V38z M154,28h-9v-9h9V28z M154,18h-9V9h9V18z M164,38h-9v-9h9V38z M164,28h-9v-9h9V28z M164,18h-9V9h9V18z M174,38
	h-9v-9h9V38z M174,28h-9v-9h9V28z M174,18h-9V9h9V18z M184,38h-9v-9h9V38z M184,28h-9v-9h9V28z M184,18h-9V9h9V18z M194,38h-9v-9h9
	V38z M194,28h-9v-9h9V28z M194,18h-9V9h9V18z M204,38h-9v-9h9V38z M204,28h-9v-9h9V28z M204,18h-9V9h9V18z M214,38h-9v-9h9V38z
	 M214,28h-9v-9h9V28z M214,18h-9V9h9V18z M224,38h-9v-9h9V38z M224,28h-9v-9h9V28z M224,18h-9V9h9V18z M234,38h-9v-9h9V38z M234,28
	h-9v-9h9V28z M234,18h-9V9h9V18z M244,38h-9v-9h9V38z M244,28h-9v-9h9V28z M244,18h-9V9h9V18z M254,38h-9v-9h9V38z M254,28h-9v-9h9
	V28z M254,18h-9V9h9V18z M264,38h-9v-9h9V38z M264,28h-9v-9h9V28z M264,18h-9V9h9V18z M274,38h-9v-9h9V38z M274,28h-9v-9h9V28z
	 M274,18h-9V9h9V18z M284,38h-9v-9h9V38z M284,28h-9v-9h9V28z M284,18h-9V9h9V18z M294,38h-9v-9h9V38z M294,28h-9v-9h9V28z M294,18
	h-9V9h9V18z M304,38h-9v-9h9V38z M304,28h-9v-9h9V28z M304,18h-9V9h9V18z M314,38h-9v-9h9V38z M314,28h-9v-9h9V28z M314,18h-9V9h9
	V18z M324,38h-9v-9h9V38z M324,28h-9v-9h9V28z M324,18h-9V9h9V18z M334,38h-9v-9h9V38z M334,28h-9v-9h9V28z M334,18h-9V9h9V18z
	 M344,38h-9v-9h9V38z M344,28h-9v-9h9V28z M344,18h-9V9h9V18z M354,38h-9v-9h9V38z M354,28h-9v-9h9V28z M354,18h-9V9h9V18z M364,38
	h-9v-9h9V38z M364,28h-9v-9h9V28z M364,18h-9V9h9V18z M374,38h-9v-9h9V38z M374,28h-9v-9h9V28z M374,18h-9V9h9V18z M384,38h-9v-9h9
	V38z M384,28h-9v-9h9V28z M384,18h-9V9h9V18z M394,38h-9v-9h9V38z M394,28h-9v-9h9V28z M394,18h-9V9h9V18z M404,38h-9v-9h9V38z
	 M404,28h-9v-9h9V28z M404,18h-9V9h9V18z M414,38h-9v-9h9V38z M414,28h-9v-9h9V28z M414,18h-9V9h9V18z M424,38h-9v-9h9V38z M424,28
	h-9v-9h9V28z M424,18h-9V9h9V18z M434,38h-9v-9h9V38z M434,28h-9v-9h9V28z M434,18h-9V9h9V18z M444,38h-9v-9h9V38z M444,28h-9v-9h9
	V28z M444,18h-9V9h9V18z M454,38h-9v-9h9V38z M454,28h-9v-9h9V28z M454,18h-9V9h9V18z M464,38h-9v-9h9V38z M464,28h-9v-9h9V28z
	 M464,18h-9V9h9V18z M474,38h-9v-9h9V38z M474,28h-9v-9h9V28z M474,18h-9V9h9V18z M484,38h-9v-9h9V38z M484,28h-9v-9h9V28z M484,18
	h-9V9h9V18z M494,38h-9v-9h9V38z M494,28h-9v-9h9V28z M494,18h-9V9h9V18z M504,38h-9v-9h9V38z M504,28h-9v-9h9V28z M504,18h-9V9h9
	V18z M514,38h-9v-9h9V38z M514,28h-9v-9h9V28z M514,18h-9V9h9V18z M524,38h-9v-9h9V38z M524,28h-9v-9h9V28z M524,18h-9V9h9V18z
	 M534,38h-9v-9h9V38z M534,28h-9v-9h9V28z M534,18h-9V9h9V18z M544,38h-9v-9h9V38z M544,28h-9v-9h9V28z M544,18h-9V9h9V18z M554,38
	h-9v-9h9V38z M554,28h-9v-9h9V28z M554,18h-9V9h9V18z M564,38h-9v-9h9V38z M564,28h-9v-9h9V28z M564,18h-9V9h9V18z M574,38h-9v-9h9
	V38z M574,28h-9v-9h9V28z M574,18h-9V9h9V18z M584,38h-9v-9h9V38z M584,28h-9v-9h9V28z M584,18h-9V9h9V18z M594,38h-9v-9h9V38z
	 M594,28h-9v-9h9V28z M594,18h-9V9h9V18z M604,38h-9v-9h9V38z M604,28h-9v-9h9V28z M604,18h-9V9h9V18z M614,38h-9v-9h9V38z M614,28
	h-9v-9h9V28z M614,18h-9V9h9V18z M624,38h-9v-9h9V38z M624,28h-9v-9h9V28z M624,18h-9V9h9V18z M634,38h-9v-9h9V38z M634,28h-9v-9h9
	V28z M634,18h-9V9h9V18z M644,38h-9v-9h9V38z M644,28h-9v-9h9V28z M644,18h-9V9h9V18z M654,38h-9v-9h9V38z M654,28h-9v-9h9V28z
	 M654,18h-9V9h9V18z M664,38h-9v-9h9V38z M664,28h-9v-9h9V28z M664,18h-9V9h9V18z M674,38h-9v-9h9V38z M674,28h-9v-9h9V28z M674,18
	h-9V9h9V18z M684,38h-9v-9h9V38z M684,28h-9v-9h9V28z M684,18h-9V9h9V18z M694,38h-9v-9h9V38z M694,28h-9v-9h9V28z M694,18h-9V9h9
	V18z"/>
<path fill="#FFAE00" d="M692.731,31c-9.015-1.266-21.362-3-25.731-3c-2.735,0-5.796,1.131-8.757,2.225
	c-3.581,1.323-7.282,2.691-9.932,1.824c-2.041-0.667-4.36-2.77-6.604-4.804c-3.3-2.993-6.714-6.091-9.967-5.21
	c-2.793,0.753-5.258,2.861-7.238,4.555c-1.37,1.172-2.787,2.384-3.538,2.411c-2.468,0.088-6.662-1.073-10.727-2.196
	c-6.049-1.672-9.85-2.648-11.697-1.692c-4.934,2.555-14.167,5.885-18.312,4.915c-1.562-0.365-6.715-3.535-12.171-6.89
	c-13.086-8.049-23.406-14.126-27.31-13.104c-6.409,1.678-13.917,5.968-20.542,9.752c-6.084,3.476-11.832,6.76-15.336,7.224
	c-2.627,0.346-5.516-1.344-8.569-3.135C493.056,21.969,489.701,20,486,20c-6.371,0-11.624,3.842-15.845,6.93
	c-0.598,0.438-1.176,0.86-1.732,1.254c-1.663,1.175-3.139,2.573-4.566,3.925c-2.162,2.046-4.222,3.976-5.802,3.893
	c-1.056-0.057-2.359-0.477-3.74-0.921c-2.579-0.83-5.503-1.772-8.544-1.053c-0.782,0.184-1.842,0.461-3.087,0.786
	c-5.372,1.402-15.366,4.013-19.492,3.206c-1.911-0.373-4.101-1.959-6.419-3.639c-3.7-2.68-7.897-5.719-12.841-5.377
	c-3.125,0.215-6.299,1.312-9.659,2.474c-5.276,1.824-11.255,3.895-19.226,3.524c-7.637-0.352-20.844-8.987-31.456-15.926
	C334.725,13.279,329.583,10,327,10c-2.327,0-4.228,0.315-5.755,0.569c-2.41,0.4-4.003,0.666-5.71-0.414
	c-0.773-0.489-1.562-1.099-2.398-1.745C310.463,6.343,307.434,4,303,4c-1.509,0-3.829,0.635-7.34,1.597
	c-9.653,2.643-27.623,7.562-51.529,4.412c-3.808-0.5-6.231,1.297-8.796,3.202c-2.101,1.559-4.272,3.17-7.527,3.808
	c-2.008,0.394-4.103,0.876-6.32,1.387c-6.068,1.397-12.338,2.846-17.439,2.596c-7.572-0.368-12.144-5.012-16.177-9.109
	c-2.983-3.03-5.559-5.646-8.797-5.889c-3.616-0.275-8.793,2.627-14.269,5.696c-5.701,3.196-11.601,6.512-15.759,6.302
	c-8.217-0.389-10.179-2.926-12.256-5.613c-4.438-5.739-9.754-8.357-14.977-7.371c-1.785,0.337-4.687,1.253-8.361,2.412
	c-10.396,3.281-26.105,8.24-34.143,5.62c-4.7-1.532-7.326-3.344-9.643-4.943c-3.071-2.12-5.497-3.793-10.797-3.098
	c-4.916,0.646-8.921,4.921-12.456,8.694c-2.747,2.932-5.34,5.701-7.213,5.318c-4.91-1.006-7.065-3.414-9.325-7.504
	C27.28,6.819,4.613,4.435,0.095,4.004C0.062,4.001,0.032,4.014,0,4.015v1.99c10.795,1.035,26.6,3.719,28.125,6.478
	c2.489,4.506,5.034,7.34,10.675,8.496c2.968,0.609,5.797-2.412,9.074-5.91c3.305-3.528,7.051-7.526,11.257-8.079
	c4.539-0.593,6.472,0.74,9.401,2.761c2.309,1.593,5.182,3.577,10.159,5.199c8.649,2.82,24.726-2.256,35.365-5.613
	c3.468-1.095,6.463-2.04,8.13-2.355c5.694-1.075,10.226,3.012,13.023,6.629c2.158,2.791,4.604,5.955,13.744,6.387
	c4.729,0.225,10.885-3.222,16.831-6.556c4.977-2.789,10.125-5.67,13.142-5.446c2.489,0.187,4.821,2.555,7.521,5.298
	c4.078,4.143,9.153,9.298,17.505,9.704c5.371,0.255,11.783-1.216,17.984-2.645c2.202-0.507,4.281-0.986,6.256-1.373
	c3.698-0.725,6.161-2.553,8.334-4.165c2.424-1.799,4.34-3.218,7.343-2.825c24.311,3.205,42.53-1.785,52.318-4.465
	C299.301,6.673,301.76,6,303,6c3.75,0,6.375,2.029,8.913,3.992c0.874,0.676,1.7,1.314,2.553,1.854
	c2.351,1.486,4.555,1.12,7.106,0.697C323.103,12.288,324.837,12,327,12c2.114,0,8.614,4.25,15.495,8.75
	c10.815,7.071,24.276,15.872,32.459,16.25c8.355,0.384,14.526-1.75,19.971-3.632c3.372-1.166,6.283-2.173,9.144-2.37
	c4.218-0.294,7.938,2.4,11.53,5.001c2.502,1.812,4.866,3.525,7.21,3.982c0.646,0.126,1.397,0.183,2.229,0.183
	c5.056,0,13.073-2.091,18.15-3.416c1.227-0.32,2.271-0.593,3.042-0.775c2.5-0.59,5.141,0.26,7.472,1.011
	c1.507,0.485,2.93,0.943,4.244,1.015c2.47,0.131,4.696-1.986,7.286-4.438c1.376-1.304,2.8-2.651,4.346-3.744
	c0.565-0.399,1.151-0.828,1.759-1.272C475.322,25.628,480.283,22,486,22c3.157,0,6.273,1.829,9.288,3.598
	c3.357,1.971,6.525,3.833,9.844,3.393c3.893-0.515,9.534-3.738,16.065-7.469c6.517-3.724,13.903-7.943,20.057-9.555
	c3.383-0.888,16.847,7.393,25.755,12.873c6.749,4.151,10.976,6.716,12.764,7.134c5.136,1.202,15.481-2.908,19.688-5.085
	c1.242-0.645,6.234,0.735,10.244,1.844c4.211,1.164,8.569,2.373,11.332,2.268c1.448-0.053,2.912-1.305,4.766-2.891
	c1.922-1.644,4.101-3.508,6.458-4.144c2.197-0.59,5.2,2.129,8.103,4.761c2.399,2.175,4.88,4.425,7.326,5.224
	c3.313,1.081,7.346-0.409,11.246-1.85C661.731,31.068,664.623,30,667,30c4.229,0,17.001,1.793,25.453,2.98
	c3.154,0.443,5.878,0.826,7.427,1.013c0.042,0.005,0.079-0.01,0.12-0.01v-1.991C698.452,31.803,695.8,31.43,692.731,31z"/>
</svg>
