<?xml version="1.0" encoding="utf-8"?>
<!-- Generator: Adobe Illustrator 17.0.0, SVG Export Plug-In . SVG Version: 6.00 Build 0)  -->
<!DOCTYPE svg PUBLIC "-//W3C//DTD SVG 1.1//EN" "http://www.w3.org/Graphics/SVG/1.1/DTD/svg11.dtd">
<svg version="1.1" id="Livello_1" xmlns="http://www.w3.org/2000/svg" xmlns:xlink="http://www.w3.org/1999/xlink" x="0px" y="0px"
	 width="113.952px" height="36px" viewBox="0 0 113.952 36" enable-background="new 0 0 113.952 36" xml:space="preserve">
<g>
	<path fill="#0050A0" d="M96.392,22.813c-0.412-0.417-0.618-1.1-0.618-2.047v-6.641h4.162v-0.093h0.043V10.14h-0.043V9.894h-4.162
		V5.068h-4.912v4.825h-1.744v4.231h1.461v6.71c0,0.97,0.112,1.856,0.336,2.657c0.223,0.802,0.577,1.484,1.061,2.047
		c0.482,0.564,1.107,1.004,1.873,1.32c0.765,0.315,1.69,0.474,2.774,0.474c2.479,0.004,3.824-1.411,4.188-1.516l-1.416-3.622
		C99.395,22.194,97.709,23.957,96.392,22.813z"/>
	<path fill="#0050A0" d="M68.944,12.186c-0.834-0.741-1.792-1.309-2.874-1.702c-1.082-0.393-2.209-0.59-3.378-0.59
		c-1.171,0-2.302,0.197-3.397,0.59c-1.095,0.394-2.06,0.96-2.893,1.702c-0.834,0.741-1.5,1.657-1.997,2.746
		c-0.498,1.09-0.746,2.331-0.746,3.724s0.248,2.635,0.746,3.724c0.497,1.09,1.163,2.005,1.997,2.747
		c0.833,0.741,1.798,1.309,2.893,1.701c1.094,0.393,2.227,0.59,3.397,0.59c1.169,0,2.296-0.197,3.378-0.59
		c1.082-0.393,2.04-0.96,2.874-1.701c0.833-0.741,1.499-1.656,1.997-2.747c0.497-1.09,0.746-2.33,0.746-3.724
		c0-1.393-0.249-2.634-0.746-3.724C70.444,13.843,69.778,12.927,68.944,12.186z M65.231,22.128
		c-0.573,0.854-1.419,1.281-2.538,1.281c-1.146,0-1.997-0.427-2.557-1.281s-0.84-2.011-0.84-3.471c0-1.46,0.28-2.618,0.84-3.471
		c0.56-0.853,1.412-1.281,2.557-1.281c1.119,0,1.966,0.427,2.538,1.281c0.572,0.854,0.858,2.011,0.858,3.471
		C66.089,20.117,65.803,21.274,65.231,22.128z"/>
	<path fill="#0050A0" d="M83.107,9.893v0.001v11.571c-0.522,0.622-1.01,1.076-1.462,1.357c-0.463,0.289-1.035,0.433-1.718,0.433
		c-0.78,0-1.353-0.222-1.718-0.666c-0.365-0.444-0.548-1.266-0.548-2.465V9.894h-5.372v10.863c0,2.087,0.444,3.719,1.335,4.897
		c0.889,1.177,2.321,1.765,4.294,1.765c1.243,0,2.308-0.239,3.198-0.716c0.698-0.375,1.361-0.864,1.992-1.464v2.181h5.409v-0.4
		V9.893h-5.372H83.107z"/>
	<path fill="#0050A0" d="M30.966,23.27c-0.353,0.248-0.918,0.373-1.696,0.373c-0.754,0-1.497-0.147-2.227-0.44
		c-0.73-0.293-1.497-0.733-2.297-1.32l-2.332,3.114c0.895,0.699,1.949,1.264,3.163,1.693c1.213,0.428,2.397,0.643,3.551,0.643
		c1.177,0,2.214-0.142,3.109-0.423c0.895-0.282,1.649-0.665,2.262-1.151c0.612-0.485,1.071-1.055,1.379-1.709
		c0.306-0.654,0.459-1.365,0.459-2.132c0-0.766-0.141-1.426-0.424-1.98c-0.283-0.552-0.653-1.02-1.113-1.404
		c-0.459-0.384-0.966-0.705-1.52-0.964c-0.554-0.259-1.113-0.491-1.679-0.694c-0.448-0.158-0.878-0.31-1.289-0.457
		c-0.412-0.147-0.777-0.299-1.095-0.457c-0.318-0.158-0.571-0.332-0.759-0.524c-0.189-0.192-0.283-0.423-0.283-0.694
		c0-0.88,0.659-1.32,1.979-1.32c0.612,0,1.224,0.125,1.838,0.373c0.612,0.248,1.236,0.598,1.873,1.049l2.332-2.978
		c-0.754-0.541-1.638-1.033-2.65-1.472c-1.013-0.44-2.191-0.66-3.533-0.66c-1.013,0-1.932,0.131-2.756,0.389
		c-0.825,0.259-1.532,0.615-2.121,1.066c-0.589,0.452-1.042,1.005-1.361,1.658c-0.318,0.655-0.477,1.365-0.477,2.132
		c0,0.699,0.141,1.315,0.424,1.844c0.283,0.53,0.647,0.993,1.095,1.387c0.447,0.395,0.942,0.727,1.485,0.998
		c0.542,0.271,1.083,0.507,1.626,0.711c0.447,0.181,0.883,0.345,1.307,0.491c0.424,0.147,0.806,0.31,1.148,0.491
		c0.341,0.181,0.612,0.378,0.812,0.593c0.2,0.215,0.3,0.457,0.3,0.727C31.496,22.671,31.32,23.022,30.966,23.27z"/>
	<path fill="#0050A0" d="M47.348,9.591c-2.002,0.043-3.996,1.362-5.108,2.243V3.246h-5.409v24.173h5.409V15.481
		c0.899-0.702,2.289-1.642,3.305-1.66c2.289-0.029,2.104,2.115,2.104,2.115v11.483h5.409V15.936
		C53.058,15.936,53.467,9.525,47.348,9.591z"/>
	<path fill="#0050A0" d="M38.108,30.177l-13.66-3.16l-11.596-2.684c-0.001,0-0.002,0-0.002,0l-5.309-1.228l-0.606-6.366
		L35.973,3.557c0.503-0.229,0.727-0.823,0.499-1.329c-0.228-0.505-0.82-0.73-1.324-0.501L5.458,15.205
		c-0.39,0.177-0.624,0.583-0.584,1.011l0.743,7.801c0.041,0.431,0.352,0.787,0.771,0.884l5.038,1.166l-0.329,1.436
		c-0.208,0.906-0.052,1.84,0.439,2.63c0.492,0.789,1.26,1.338,2.162,1.547l7.216,1.67c0.256,0.059,0.519,0.089,0.781,0.089
		c1.624,0,3.013-1.111,3.378-2.701l0.33-1.436l12.254,2.835c0.076,0.018,0.151,0.026,0.226,0.026c0.455,0,0.867-0.314,0.974-0.779
		C38.982,30.841,38.646,30.301,38.108,30.177z M23.124,30.285c-0.179,0.783-0.971,1.29-1.76,1.105l-7.216-1.669
		c-0.382-0.088-0.707-0.321-0.915-0.654c-0.208-0.334-0.274-0.73-0.186-1.113l0.329-1.436l5.807,1.344l4.271,0.987L23.124,30.285z"
		/>
	<path fill="#0050A0" d="M1.906,15.649c-0.551,0.053-0.954,0.544-0.901,1.096l0.713,7.489c0.05,0.52,0.485,0.909,0.995,0.909
		c0.032,0,0.064-0.001,0.096-0.005c0.55-0.052,0.953-0.542,0.901-1.095l-0.713-7.49C2.943,16.001,2.454,15.593,1.906,15.649z"/>
	<path fill="#0050A0" d="M104.241,24.698c-0.448-0.323-1.074-0.22-1.397,0.231c-0.323,0.45-0.22,1.078,0.229,1.401l5.012,3.61
		c0.147,0.106,0.314,0.166,0.483,0.183c0.344,0.034,0.696-0.112,0.913-0.414c0.324-0.45,0.222-1.077-0.228-1.401L104.241,24.698z"/>
	<path fill="#0050A0" d="M104.036,12.039c0.168-0.023,0.333-0.09,0.476-0.202l4.865-3.806c0.435-0.34,0.514-0.972,0.173-1.409
		c-0.342-0.438-0.972-0.517-1.405-0.176l-4.865,3.806c-0.435,0.34-0.513,0.972-0.173,1.409
		C103.336,11.955,103.693,12.087,104.036,12.039z"/>
	<path fill="#0050A0" d="M112.952,16.877h-6c-0.552,0-1,0.448-1,1s0.448,1,1,1h6c0.552,0,1-0.448,1-1S113.504,16.877,112.952,16.877
		z"/>
</g>
</svg>
