<?xml version="1.0" encoding="utf-8"?>
<!-- Generator: Adobe Illustrator 17.0.0, SVG Export Plug-In . SVG Version: 6.00 Build 0)  -->
<!DOCTYPE svg PUBLIC "-//W3C//DTD SVG 1.1//EN" "http://www.w3.org/Graphics/SVG/1.1/DTD/svg11.dtd">
<svg version="1.1" id="Livello_1" xmlns="http://www.w3.org/2000/svg" xmlns:xlink="http://www.w3.org/1999/xlink" x="0px" y="0px"
	 width="114px" height="36px" viewBox="0 0 114 36" enable-background="new 0 0 114 36" xml:space="preserve">
<g>
	<path fill="#FFFFFF" d="M84.826,31.38c-0.176-0.234-0.402-0.422-0.679-0.561c-0.277-0.14-0.609-0.21-0.996-0.21
		c-0.365,0-0.702,0.068-1.013,0.203s-0.569,0.344-0.774,0.627v-2.983h-0.806v5.967c0,0.02-0.001,0.054-0.002,0.103
		c-0.002,0.049-0.003,0.106-0.005,0.171c-0.002,0.065-0.003,0.136-0.005,0.212c-0.002,0.077-0.004,0.154-0.007,0.232
		c-0.007,0.179-0.012,0.379-0.015,0.601h0.82l0.02-0.669c0.205,0.257,0.449,0.452,0.732,0.583s0.602,0.198,0.957,0.198
		c0.378,0,0.71-0.071,0.996-0.212c0.286-0.142,0.525-0.334,0.715-0.579c0.191-0.244,0.334-0.528,0.43-0.852
		c0.096-0.324,0.144-0.668,0.144-1.033c0.001-0.343-0.041-0.67-0.124-0.98C85.131,31.887,85.002,31.615,84.826,31.38z
		 M84.443,33.804c-0.054,0.243-0.142,0.458-0.264,0.647c-0.122,0.189-0.284,0.341-0.486,0.457c-0.202,0.116-0.449,0.173-0.742,0.173
		c-0.296,0-0.545-0.044-0.747-0.132c-0.202-0.088-0.365-0.212-0.491-0.374c-0.125-0.161-0.215-0.356-0.269-0.583
		c-0.054-0.228-0.081-0.483-0.081-0.767c0-0.26,0.033-0.509,0.1-0.747c0.067-0.237,0.168-0.447,0.303-0.627
		c0.135-0.181,0.303-0.324,0.503-0.43c0.2-0.106,0.432-0.159,0.696-0.159c0.241,0,0.457,0.047,0.649,0.142
		c0.192,0.094,0.356,0.222,0.491,0.383c0.135,0.161,0.238,0.351,0.31,0.569c0.072,0.218,0.107,0.451,0.107,0.698
		C84.523,33.312,84.497,33.562,84.443,33.804z"/>
	<path fill="#FFFFFF" d="M90.568,31.313c-0.182-0.22-0.415-0.392-0.698-0.518c-0.283-0.125-0.617-0.188-1.001-0.188
		c-0.391,0-0.738,0.07-1.042,0.21c-0.305,0.14-0.562,0.33-0.774,0.571c-0.212,0.241-0.373,0.521-0.483,0.84
		c-0.111,0.319-0.166,0.659-0.166,1.021c0,0.381,0.056,0.731,0.168,1.05c0.112,0.319,0.275,0.593,0.488,0.823
		c0.213,0.229,0.474,0.408,0.784,0.537c0.309,0.129,0.661,0.193,1.055,0.193c0.417,0,0.789-0.054,1.118-0.161
		c0.329-0.107,0.628-0.278,0.898-0.513l-0.249-0.669c-0.228,0.225-0.484,0.397-0.77,0.518c-0.286,0.12-0.601,0.181-0.946,0.181
		c-0.257,0-0.485-0.04-0.685-0.12c-0.2-0.08-0.37-0.193-0.51-0.339s-0.25-0.32-0.329-0.522c-0.08-0.202-0.129-0.425-0.149-0.669
		l-0.015-0.22H91.1c0.003-0.039,0.006-0.082,0.007-0.129c0.002-0.047,0.003-0.089,0.003-0.125c0-0.355-0.044-0.684-0.134-0.987
		C90.886,31.794,90.751,31.533,90.568,31.313z M87.298,32.764c0.029-0.204,0.084-0.398,0.165-0.579
		c0.081-0.182,0.188-0.342,0.319-0.479c0.132-0.137,0.288-0.245,0.47-0.325c0.182-0.08,0.387-0.12,0.614-0.12
		c0.211,0,0.401,0.035,0.568,0.105c0.167,0.07,0.31,0.168,0.427,0.295s0.209,0.278,0.275,0.454c0.067,0.176,0.108,0.37,0.124,0.581
		l0.005,0.068H87.298z"/>
	<path fill="#FFFFFF" d="M94.143,35.228c-0.143,0-0.254-0.03-0.332-0.09S93.675,35,93.638,34.904s-0.059-0.202-0.066-0.317
		c-0.007-0.115-0.01-0.229-0.01-0.339v-2.993h1.25V30.73h-1.25v-1.558l-0.781,0.23l-0.024,1.328h-0.991v0.522h0.991v2.882h-0.001
		c0,0.231,0.015,0.451,0.044,0.659c0.029,0.208,0.089,0.391,0.178,0.547c0.09,0.156,0.217,0.281,0.381,0.374
		s0.383,0.139,0.657,0.139c0.169,0,0.321-0.014,0.454-0.042c0.133-0.028,0.257-0.074,0.371-0.139l0.005-0.601
		c-0.137,0.049-0.262,0.087-0.376,0.115C94.356,35.214,94.247,35.228,94.143,35.228z"/>
	<path fill="#FFFFFF" d="M99.763,30.73l-0.029,0.688c-0.104-0.127-0.216-0.241-0.337-0.342c-0.12-0.101-0.252-0.186-0.396-0.254
		c-0.143-0.068-0.3-0.121-0.469-0.159c-0.169-0.037-0.356-0.056-0.562-0.056c-0.404,0-0.756,0.073-1.057,0.22
		c-0.301,0.146-0.552,0.34-0.752,0.581c-0.2,0.241-0.35,0.516-0.449,0.825c-0.099,0.309-0.149,0.625-0.149,0.947
		c0,0.208,0.021,0.419,0.064,0.632c0.042,0.213,0.106,0.419,0.19,0.618c0.085,0.198,0.193,0.384,0.325,0.557
		c0.132,0.173,0.287,0.323,0.466,0.452c0.179,0.129,0.383,0.229,0.61,0.303c0.228,0.073,0.482,0.11,0.762,0.11
		c0.198,0,0.388-0.023,0.569-0.068c0.181-0.046,0.346-0.106,0.496-0.181c0.15-0.075,0.284-0.162,0.403-0.261
		c0.119-0.099,0.217-0.201,0.295-0.305l-0.01,0.703h0.806v-3.774l0.019-1.235h-0.795V30.73z M99.594,33.985
		c-0.089,0.268-0.21,0.493-0.361,0.674c-0.151,0.181-0.327,0.317-0.527,0.41c-0.2,0.093-0.414,0.139-0.642,0.139
		c-0.231,0-0.434-0.028-0.608-0.085s-0.324-0.134-0.449-0.229c-0.125-0.096-0.23-0.209-0.315-0.339
		c-0.085-0.13-0.151-0.268-0.2-0.415c-0.049-0.146-0.084-0.299-0.105-0.457c-0.021-0.158-0.032-0.312-0.032-0.461
		c0-0.153,0.014-0.308,0.042-0.464c0.028-0.156,0.071-0.307,0.129-0.452c0.059-0.145,0.133-0.281,0.225-0.408
		c0.091-0.127,0.198-0.238,0.322-0.332s0.265-0.168,0.425-0.222c0.159-0.054,0.339-0.081,0.537-0.081
		c0.26,0,0.496,0.044,0.706,0.132c0.21,0.088,0.388,0.212,0.535,0.371c0.146,0.16,0.26,0.348,0.339,0.566
		c0.08,0.218,0.12,0.459,0.12,0.723C99.73,33.406,99.684,33.716,99.594,33.985z"/>
	<path fill="#FFFFFF" d="M96.44,22.788c-0.412-0.417-0.618-1.1-0.618-2.047V14.1h4.162v-0.093h0.043v-3.892h-0.043V9.869h-4.162
		V5.043H90.91v4.825h-1.744v4.231h1.461v6.71c0,0.97,0.112,1.856,0.336,2.657c0.223,0.802,0.577,1.484,1.061,2.047
		c0.482,0.564,1.107,1.004,1.873,1.32c0.765,0.315,1.69,0.474,2.774,0.474c2.479,0.004,3.824-1.411,4.188-1.516l-1.416-3.622
		C99.443,22.169,97.757,23.932,96.44,22.788z"/>
	<path fill="#FFFFFF" d="M68.992,12.161c-0.834-0.741-1.792-1.309-2.874-1.702c-1.082-0.393-2.209-0.59-3.378-0.59
		c-1.171,0-2.302,0.197-3.397,0.59c-1.095,0.394-2.06,0.96-2.893,1.702c-0.834,0.741-1.5,1.657-1.997,2.746
		c-0.498,1.09-0.746,2.331-0.746,3.724s0.248,2.635,0.746,3.724c0.497,1.09,1.163,2.005,1.997,2.747
		c0.833,0.741,1.798,1.309,2.893,1.701c1.094,0.393,2.227,0.59,3.397,0.59c1.169,0,2.296-0.197,3.378-0.59
		c1.082-0.393,2.04-0.96,2.874-1.701c0.833-0.741,1.499-1.656,1.997-2.747c0.497-1.09,0.746-2.33,0.746-3.724
		c0-1.393-0.249-2.634-0.746-3.724C70.492,13.818,69.826,12.902,68.992,12.161z M65.279,22.103
		c-0.573,0.854-1.419,1.281-2.538,1.281c-1.146,0-1.997-0.427-2.557-1.281s-0.84-2.011-0.84-3.471c0-1.46,0.28-2.618,0.84-3.471
		c0.56-0.853,1.412-1.281,2.557-1.281c1.119,0,1.966,0.427,2.538,1.281s0.858,2.011,0.858,3.471
		C66.137,20.092,65.851,21.249,65.279,22.103z"/>
	<path fill="#FFFFFF" d="M83.156,25.214v2.181h5.409v-0.4V9.868h-5.372h-0.038v0.001V21.44c-0.522,0.622-1.01,1.076-1.462,1.357
		c-0.463,0.289-1.035,0.433-1.718,0.433c-0.78,0-1.353-0.222-1.718-0.666c-0.365-0.444-0.548-1.266-0.548-2.465V9.869h-5.372v10.863
		c0,2.087,0.444,3.719,1.335,4.897c0.889,1.177,2.321,1.765,4.294,1.765c1.243,0,2.308-0.239,3.198-0.716
		C81.862,26.303,82.525,25.814,83.156,25.214z"/>
	<path fill="#FFFFFF" d="M31.014,23.245c-0.353,0.248-0.918,0.373-1.696,0.373c-0.754,0-1.497-0.147-2.227-0.44
		c-0.73-0.293-1.497-0.733-2.297-1.32l-2.332,3.114c0.895,0.699,1.949,1.264,3.163,1.693c1.213,0.428,2.397,0.643,3.551,0.643
		c1.177,0,2.214-0.142,3.109-0.423c0.895-0.282,1.649-0.665,2.262-1.151c0.612-0.485,1.071-1.055,1.379-1.709
		c0.306-0.654,0.459-1.365,0.459-2.132c0-0.766-0.141-1.426-0.424-1.98c-0.283-0.552-0.653-1.02-1.113-1.404
		c-0.459-0.384-0.966-0.705-1.52-0.964c-0.554-0.259-1.113-0.491-1.679-0.694c-0.448-0.158-0.878-0.31-1.289-0.457
		c-0.412-0.147-0.777-0.299-1.095-0.457c-0.318-0.158-0.571-0.332-0.759-0.524c-0.189-0.192-0.283-0.423-0.283-0.694
		c0-0.88,0.659-1.32,1.979-1.32c0.612,0,1.224,0.125,1.838,0.373c0.612,0.248,1.236,0.598,1.873,1.049l2.332-2.978
		c-0.754-0.541-1.638-1.033-2.65-1.472c-1.013-0.44-2.191-0.66-3.533-0.66c-1.013,0-1.932,0.131-2.756,0.389
		c-0.825,0.259-1.532,0.615-2.121,1.066c-0.589,0.452-1.042,1.005-1.361,1.658c-0.318,0.655-0.477,1.365-0.477,2.132
		c0,0.699,0.141,1.315,0.424,1.844c0.283,0.53,0.647,0.993,1.095,1.387c0.447,0.395,0.942,0.727,1.485,0.998
		c0.542,0.271,1.083,0.507,1.626,0.711c0.447,0.181,0.883,0.345,1.307,0.491c0.424,0.147,0.806,0.31,1.148,0.491
		c0.341,0.181,0.612,0.378,0.812,0.593c0.2,0.215,0.3,0.457,0.3,0.727C31.544,22.646,31.368,22.997,31.014,23.245z"/>
	<path fill="#FFFFFF" d="M47.396,9.566c-2.002,0.043-3.996,1.362-5.108,2.243V3.221h-5.409v24.173h5.409V15.456
		c0.899-0.702,2.289-1.642,3.305-1.66c2.289-0.029,2.104,2.115,2.104,2.115v11.483h5.409V15.911
		C53.106,15.911,53.515,9.5,47.396,9.566z"/>
	<path fill="#FFFFFF" d="M38.156,30.152l-13.66-3.16L12.9,24.308c-0.001,0-0.002,0-0.002,0L7.589,23.08l-0.606-6.366L36.021,3.532
		c0.503-0.229,0.727-0.823,0.499-1.329c-0.228-0.505-0.82-0.73-1.324-0.501L5.506,15.18c-0.39,0.177-0.624,0.583-0.584,1.011
		l0.743,7.801c0.041,0.431,0.352,0.787,0.771,0.884l5.038,1.166l-0.329,1.436c-0.208,0.906-0.052,1.84,0.439,2.63
		c0.492,0.789,1.26,1.338,2.162,1.547l7.216,1.67c0.256,0.059,0.519,0.089,0.781,0.089c1.624,0,3.013-1.111,3.378-2.701l0.33-1.436
		l12.254,2.835c0.076,0.018,0.151,0.026,0.226,0.026c0.455,0,0.867-0.314,0.974-0.779C39.03,30.816,38.694,30.276,38.156,30.152z
		 M23.172,30.26c-0.179,0.783-0.971,1.29-1.76,1.105l-7.216-1.669c-0.382-0.088-0.707-0.321-0.915-0.654
		c-0.208-0.334-0.274-0.73-0.186-1.113l0.329-1.436l5.807,1.344l4.271,0.987L23.172,30.26z"/>
	<path fill="#FFFFFF" d="M1.954,15.624C1.403,15.677,1,16.168,1.053,16.72l0.713,7.489c0.05,0.52,0.485,0.909,0.995,0.909
		c0.032,0,0.064-0.001,0.096-0.005c0.55-0.052,0.953-0.542,0.901-1.095l-0.713-7.49C2.991,15.976,2.502,15.568,1.954,15.624z"/>
	<path fill="#FFFFFF" d="M104.289,24.673c-0.448-0.323-1.074-0.22-1.397,0.231c-0.323,0.45-0.22,1.078,0.229,1.401l5.012,3.61
		c0.147,0.106,0.314,0.166,0.483,0.183c0.344,0.034,0.696-0.112,0.913-0.414c0.324-0.45,0.222-1.077-0.228-1.401L104.289,24.673z"/>
	<path fill="#FFFFFF" d="M104.084,12.014c0.168-0.023,0.333-0.09,0.476-0.202l4.865-3.806c0.435-0.34,0.514-0.972,0.173-1.409
		c-0.342-0.438-0.972-0.517-1.405-0.176l-4.865,3.806c-0.435,0.34-0.513,0.972-0.173,1.409
		C103.384,11.93,103.741,12.062,104.084,12.014z"/>
	<path fill="#FFFFFF" d="M113,16.852h-6c-0.552,0-1,0.448-1,1s0.448,1,1,1h6c0.552,0,1-0.448,1-1S113.552,16.852,113,16.852z"/>
</g>
</svg>
