<?xml version="1.0" encoding="utf-8"?>
<!-- Generator: Adobe Illustrator 17.0.0, SVG Export Plug-In . SVG Version: 6.00 Build 0)  -->
<!DOCTYPE svg PUBLIC "-//W3C//DTD SVG 1.1//EN" "http://www.w3.org/Graphics/SVG/1.1/DTD/svg11.dtd">
<svg version="1.1" id="Livello_1" xmlns="http://www.w3.org/2000/svg" xmlns:xlink="http://www.w3.org/1999/xlink" x="0px" y="0px"
	 width="13px" height="11.709px" viewBox="0 0 13 11.709" enable-background="new 0 0 13 11.709" xml:space="preserve">
<path fill="#FFFFFF" d="M12.693,6.74C12.881,6.544,13,6.273,13,5.97c0-0.336-0.152-0.624-0.377-0.82L7.446,0.267
	C7.031-0.124,6.399-0.08,6.035,0.365C5.671,0.812,5.712,1.491,6.127,1.882l3.302,3.114H1c-0.552,0-1,0.459-1,1.024
	s0.448,1.024,1,1.024h8.322L6.127,9.915c-0.415,0.373-0.457,1.02-0.092,1.445c0.364,0.425,0.996,0.467,1.411,0.094L12.693,6.74z"/>
</svg>
