<?xml version="1.0" encoding="utf-8"?>
<!-- Generator: Adobe Illustrator 17.0.0, SVG Export Plug-In . SVG Version: 6.00 Build 0)  -->
<!DOCTYPE svg PUBLIC "-//W3C//DTD SVG 1.1//EN" "http://www.w3.org/Graphics/SVG/1.1/DTD/svg11.dtd">
<svg version="1.1" id="Livello_1" xmlns="http://www.w3.org/2000/svg" xmlns:xlink="http://www.w3.org/1999/xlink" x="0px" y="0px"
	 width="84px" height="84px" viewBox="0 0 84 84" enable-background="new 0 0 84 84" xml:space="preserve">
<path fill-rule="evenodd" clip-rule="evenodd" fill="#0050a0" d="M42,0c23.196,0,42,18.804,42,42S65.196,84,42,84S0,65.196,0,42
	S18.804,0,42,0z"/>
<path fill-rule="evenodd" clip-rule="evenodd" fill="#63A8A0" d="M42,3c21.539,0,39,17.461,39,39S63.539,81,42,81S3,63.539,3,42
	S20.461,3,42,3z"/>
<g>
	<path fill-rule="evenodd" clip-rule="evenodd" fill="#FFFFFF" d="M41,41c-1.105,0-2,0.895-2,2v10c0,1.105,0.895,2,2,2h15
		c1.105,0,2-0.895,2-2V43c0-1.105-0.895-2-2-2H41z M56,52c0,0.552-0.448,1-1,1H42c-0.552,0-1-0.448-1-1v-8c0-0.552,0.448-1,1-1h13
		c0.552,0,1,0.448,1,1V52z"/>
	<path fill-rule="evenodd" clip-rule="evenodd" fill="#FFFFFF" d="M53.293,48.293l-2,2C51.098,50.488,51,50.744,51,51
		s0.098,0.512,0.293,0.707S51.744,52,52,52s0.512-0.098,0.707-0.293l2-2C54.902,49.512,55,49.256,55,49s-0.098-0.512-0.293-0.707
		C54.316,47.902,53.684,47.902,53.293,48.293z"/>
	<path fill-rule="evenodd" clip-rule="evenodd" fill="#FFFFFF" d="M53.293,44.293l-6,6C47.098,50.488,47,50.744,47,51
		s0.098,0.512,0.293,0.707S47.744,52,48,52s0.512-0.098,0.707-0.293l6-6C54.902,45.512,55,45.256,55,45s-0.098-0.512-0.293-0.707
		C54.316,43.902,53.684,43.902,53.293,44.293z"/>
	<path fill-rule="evenodd" clip-rule="evenodd" fill="#FFFFFF" d="M58,23h-2h-4h-4h-4h-4h-4h-4h-4h-2l-7,10v1
		c0,2.049,1.236,3.806,3,4.578V59c0,1.105,0.895,2,2,2h4V44c0-0.552,0.448-1,1-1h5c0.552,0,1,0.448,1,1v17h25c1.105,0,2-0.895,2-2
		V38.578c1.764-0.772,3-2.529,3-4.578v-1L58,23z M48.6,25l2.4,8v1c0,1.657-1.343,3-3,3s-3-1.343-3-3v-1l-0.8-8H48.6z M33,33l2.4-8
		h4.4L39,33v1c0,1.657-1.343,3-3,3s-3-1.343-3-3V33z M21,34v-1l5.6-8H31l-4,8v1c0,1.657-1.343,3-3,3S21,35.657,21,34z M60,58
		c0,0.552-0.448,1-1,1H37V43c0-1.105-0.895-2-2-2h-7c-1.105,0-2,0.895-2,2v16h-1c-0.552,0-1-0.448-1-1V39
		c1.348,0,2.567-0.54,3.466-1.407C27.997,38.436,28.93,39,30,39s2.003-0.564,2.534-1.407C33.433,38.46,34.652,39,36,39
		s2.567-0.54,3.466-1.407C39.997,38.436,40.93,39,42,39s2.003-0.564,2.534-1.407C45.433,38.46,46.652,39,48,39
		s2.567-0.54,3.466-1.407C51.997,38.436,52.93,39,54,39s2.003-0.564,2.534-1.407C57.433,38.46,58.652,39,60,39V58z M63,34
		c0,1.657-1.343,3-3,3s-3-1.343-3-3v-1l-4-8h4.4l5.6,8V34z"/>
</g>
</svg>
