<?xml version="1.0" encoding="utf-8"?>
<!-- Generator: Adobe Illustrator 17.0.0, SVG Export Plug-In . SVG Version: 6.00 Build 0)  -->
<!DOCTYPE svg PUBLIC "-//W3C//DTD SVG 1.1//EN" "http://www.w3.org/Graphics/SVG/1.1/DTD/svg11.dtd">
<svg version="1.1" id="Livello_1" xmlns="http://www.w3.org/2000/svg" xmlns:xlink="http://www.w3.org/1999/xlink" x="0px" y="0px"
	 width="60px" height="60px" viewBox="0 0 60 60" enable-background="new 0 0 60 60" xml:space="preserve">
<path fill-rule="evenodd" clip-rule="evenodd" fill="#0050a0" d="M30,0c16.569,0,30,13.432,30,30S46.569,60,30,60S0,46.569,0,30
	S13.432,0,30,0z"/>
<path fill-rule="evenodd" clip-rule="evenodd" fill="#0050a0" d="M30,3c14.912,0,27,12.088,27,27S44.912,57,30,57S3,44.912,3,30
	S15.088,3,30,3z"/>
<g>
	<path fill="#FFFFFF" d="M30,19.364c-0.386,0-0.7,0.314-0.7,0.702v19.646c0,0.388,0.314,0.702,0.7,0.702s0.7-0.314,0.7-0.702V20.066
		C30.7,19.679,30.386,19.364,30,19.364z"/>
	<path fill="#FFFFFF" d="M47.358,16.674c-0.143-0.062-3.553-1.521-8.653-1.521c-0.107,0-0.214,0.001-0.322,0.002
		c-4.121,0.05-7.177,0.915-8.364,1.311c-1.164-0.418-4.121-1.312-8.114-1.312c-0.107,0-0.214,0.001-0.322,0.002
		c-5.237,0.063-8.754,1.444-8.901,1.503L11.8,17.01v0.952v23.856v2.032l1.896-0.72c0.033-0.012,3.53-1.31,7.905-1.312
		c4.379,0,7.869,1.299,7.904,1.312l0.495,0.187l0.497-0.187c0.033-0.012,3.53-1.31,7.905-1.312c4.379,0,7.869,1.299,7.904,1.312
		l1.894,0.716l0.002-2.028V17.961v-0.92L47.358,16.674z M46.8,41.817c0,0-3.684-1.403-8.388-1.403c-0.004,0-0.008,0-0.011,0
		c-4.71,0.002-8.4,1.403-8.4,1.403s-3.684-1.403-8.388-1.403c-0.004,0-0.008,0-0.012,0c-4.71,0.002-8.4,1.403-8.4,1.403V17.961
		c0,0,3.362-1.343,8.4-1.403c0.103-0.001,0.204-0.002,0.305-0.002c4.868,0,8.095,1.405,8.095,1.405s3.362-1.343,8.4-1.403
		c0.103-0.001,0.204-0.002,0.305-0.002c4.867,0,8.095,1.405,8.095,1.405V41.817z"/>
</g>
</svg>
