<?xml version="1.0" encoding="utf-8"?>
<!-- Generator: Adobe Illustrator 17.0.0, SVG Export Plug-In . SVG Version: 6.00 Build 0)  -->
<!DOCTYPE svg PUBLIC "-//W3C//DTD SVG 1.1//EN" "http://www.w3.org/Graphics/SVG/1.1/DTD/svg11.dtd">
<svg version="1.1" id="Livello_1" xmlns="http://www.w3.org/2000/svg" xmlns:xlink="http://www.w3.org/1999/xlink" x="0px" y="0px"
	 width="9.037px" height="18.915px" viewBox="0 0 9.037 18.915" enable-background="new 0 0 9.037 18.915" xml:space="preserve">
<g>
	<path fill="#4881BB" d="M1.268,14.616c-0.358-0.256-0.859-0.174-1.117,0.183c-0.258,0.356-0.176,0.853,0.183,1.109l4.01,2.858
		c0.118,0.084,0.251,0.131,0.386,0.145c0.275,0.027,0.557-0.089,0.73-0.328c0.259-0.356,0.177-0.852-0.182-1.109L1.268,14.616z"/>
	<path fill="#4881BB" d="M1.104,4.595c0.134-0.018,0.266-0.071,0.381-0.16l3.892-3.013c0.348-0.269,0.411-0.769,0.138-1.115
		C5.242-0.04,4.738-0.102,4.391,0.168L0.499,3.181C0.151,3.45,0.089,3.95,0.361,4.296C0.544,4.529,0.83,4.633,1.104,4.595z"/>
	<path fill="#4881BB" d="M8.237,8.144h-4.8c-0.442,0-0.8,0.563-0.8,1c0,0.437,0.359,1,0.8,1h4.8c0.442,0,0.8-0.563,0.8-1
		C9.037,8.707,8.679,8.144,8.237,8.144z"/>
</g>
</svg>
