<?xml version="1.0" encoding="utf-8"?>
<!-- Generator: Adobe Illustrator 17.0.0, SVG Export Plug-In . SVG Version: 6.00 Build 0)  -->
<!DOCTYPE svg PUBLIC "-//W3C//DTD SVG 1.1//EN" "http://www.w3.org/Graphics/SVG/1.1/DTD/svg11.dtd">
<svg version="1.1" id="Livello_1" xmlns="http://www.w3.org/2000/svg" xmlns:xlink="http://www.w3.org/1999/xlink" x="0px" y="0px"
	 width="34px" height="34px" viewBox="0 0 34 34" enable-background="new 0 0 34 34" xml:space="preserve">
<g>
	<path fill-rule="evenodd" clip-rule="evenodd" fill="#0050A0" d="M17,0c9.389,0,17,7.611,17,17s-7.611,17-17,17S0,26.389,0,17
		S7.611,0,17,0z"/>
	<path fill-rule="evenodd" clip-rule="evenodd" fill="#6AB5AC" d="M17,2c8.284,0,15,6.716,15,15s-6.716,15-15,15S2,25.284,2,17
		S8.716,2,17,2z"/>
	<path fill="#FFFFFF" d="M28.095,18.035l-2.261-2.261l2.261-2.261c0.218-0.218,0.323-0.523,0.285-0.829
		c-0.037-0.306-0.214-0.577-0.478-0.735l-7.42-4.452c-0.395-0.235-0.896-0.175-1.222,0.15L17,9.908l-2.261-2.261
		c-0.284-0.284-0.709-0.37-1.078-0.222l-7.42,2.968c-0.312,0.125-0.541,0.398-0.608,0.728s0.034,0.67,0.272,0.908l2.153,2.153
		l-2.045,1.534c-0.257,0.192-0.405,0.496-0.4,0.816c0.006,0.32,0.374,0.619,0.637,0.803L9,19.114v3.338
		c0,0.326-0.051,0.632,0.217,0.819l7.315,5.194c0.007,0.005-0.036,0.007-0.029,0.012c0.009,0.006-0.011,0.014-0.002,0.02
		c0.048,0.03,0.087,0.046,0.138,0.067c0.03,0.012,0.052,0.03,0.083,0.039c0.093,0.028,0.185,0.043,0.281,0.043
		c0.153,0,0.304-0.035,0.446-0.105l7.209-3.71C24.997,24.661,25,24.315,25,23.936v-3.092l2.625-1.208
		c0.287-0.144,0.593-0.417,0.645-0.734S28.322,18.262,28.095,18.035z"/>
	<polygon fill="#6AB5AC" points="17.085,18.323 11.668,14.531 16.91,12.434 22.343,15.694 	"/>
	<polygon fill="#6AB5AC" points="20.123,9.613 25.775,13.005 24.265,14.515 18.612,11.123 	"/>
	<polygon fill="#6AB5AC" points="13.791,9.527 15.221,10.957 9.821,13.117 8.392,11.687 	"/>
	<polygon fill="#6AB5AC" points="9.601,15.525 15.296,19.512 14.012,20.475 8.316,16.488 	"/>
	<path fill="#6AB5AC" d="M11,20.514l2.669,2.015c0.172,0.121,0.268,0.181,0.468,0.181c0.211,0,0.37-0.067,0.547-0.2L16,21.484v4.242
		l-5-3.794V20.514z"/>
	<path fill="#6AB5AC" d="M23,23.318l-5,2.71v-4.13l1.261,1.261c0.191,0.192,0.448,0.293,0.707,0.293
		c0.152,0,0.095-0.035,0.237-0.105L23,21.844V23.318z"/>
	<polygon fill="#6AB5AC" points="20.165,21.235 18.688,19.758 24.223,16.991 25.699,18.468 	"/>
</g>
</svg>
