<?xml version="1.0" encoding="utf-8"?>
<!-- Generator: Adobe Illustrator 17.0.0, SVG Export Plug-In . SVG Version: 6.00 Build 0)  -->
<!DOCTYPE svg PUBLIC "-//W3C//DTD SVG 1.1//EN" "http://www.w3.org/Graphics/SVG/1.1/DTD/svg11.dtd">
<svg version="1.1" id="Livello_1" xmlns="http://www.w3.org/2000/svg" xmlns:xlink="http://www.w3.org/1999/xlink" x="0px" y="0px"
	 width="60px" height="60px" viewBox="0 0 60 60" enable-background="new 0 0 60 60" xml:space="preserve">
<path fill="#A1A1A1" d="M30,0c16.569,0,30,13.432,30,30S46.568,60,30,60S0,46.569,0,30S13.431,0,30,0z"/>
<path fill="#E4E3E1" d="M30,2c15.464,0,28,12.536,28,28S45.464,58,30,58S2,45.464,2,30S14.536,2,30,2z"/>
<g>
	<path fill="#FFFFFF" d="M44.77,25.993l4.635-4.635c0.218-0.218,0.323-0.523,0.286-0.829s-0.214-0.577-0.478-0.735L35.857,11.78
		c-0.394-0.236-0.897-0.173-1.222,0.15L30,16.565l-4.635-4.635c-0.283-0.283-0.707-0.369-1.079-0.222L10.93,17.051
		c-0.312,0.125-0.541,0.398-0.608,0.728c-0.068,0.33,0.035,0.67,0.272,0.908l4.527,4.527l-4.42,3.315
		c-0.256,0.192-0.405,0.496-0.4,0.816s0.164,0.619,0.427,0.803l4.916,3.441v6.425c0,0.326,0.159,0.632,0.427,0.819l13.356,9.349
		c0.007,0.005,0.015,0.006,0.022,0.011c0.009,0.006,0.016,0.014,0.025,0.02c0.048,0.03,0.101,0.046,0.153,0.067
		c0.03,0.012,0.058,0.03,0.089,0.039c0.093,0.028,0.188,0.043,0.284,0.043c0.153,0,0.306-0.035,0.447-0.105l0.015-0.007
		l13.341-6.671c0.339-0.169,0.553-0.516,0.553-0.895v-6.06l4.79-2.395c0.288-0.144,0.488-0.417,0.54-0.734
		c0.051-0.317-0.053-0.64-0.28-0.867L44.77,25.993z M35.497,13.896l11.588,6.953l-3.884,3.884L31.613,17.78L35.497,13.896z
		 M13.081,18.345l11.336-4.534l3.804,3.804l-11.336,4.534L13.081,18.345z M13.005,27.301l3.659-2.744L28.296,32.7l-3.659,2.744
		L13.005,27.301z M29,45.442l-11.356-7.949v-4.504l6.44,4.508c0.172,0.121,0.373,0.181,0.573,0.181c0.211,0,0.422-0.067,0.6-0.2
		L29,34.671V45.442z M30.085,31.51l-11.352-7.947l11.178-4.471l11.368,6.821L30.085,31.51z M42.356,40.066L31,45.745v-10.66
		l3.635,3.635c0.192,0.192,0.448,0.293,0.708,0.293c0.151,0,0.305-0.035,0.447-0.105l6.566-3.283
		C42.356,35.625,42.356,40.066,42.356,40.066z M35.54,36.797l-3.852-3.852l11.471-5.735l3.852,3.852L35.54,36.797z"/>
</g>
</svg>
