<?xml version="1.0" encoding="utf-8"?>

<!-- Generator: Adobe Illustrator 17.0.0, SVG Export Plug-In . SVG Version: 6.00 Build 0)  -->

<!DOCTYPE svg PUBLIC "-//W3C//DTD SVG 1.1//EN" "http://www.w3.org/Graphics/SVG/1.1/DTD/svg11.dtd">

<svg version="1.1" id="Livello_1" xmlns="http://www.w3.org/2000/svg" xmlns:xlink="http://www.w3.org/1999/xlink" x="0px" y="0px"

	 width="22px" height="22px" viewBox="0 0 22 22" enable-background="new 0 0 22 22" xml:space="preserve">

<path fill="#0050a0" d="M7.311,14.051C7.06,14,6.856,13.952,6.67,13.897c-0.097-0.028-0.202-0.026-0.298,0.006l-3.033,1.014

	l0.576-2.312c0.04-0.16-0.002-0.329-0.113-0.452c-0.757-0.842-1.157-1.83-1.157-2.858c0-2.703,2.74-4.903,6.107-4.903

	c1.564,0,3.055,0.481,4.198,1.353c0.088,0.067,0.193,0.103,0.303,0.103c0.156,0,0.301-0.071,0.395-0.195

	c0.081-0.105,0.116-0.236,0.098-0.367c-0.017-0.132-0.085-0.249-0.191-0.329c-1.317-1.005-3.023-1.558-4.804-1.558

	c-3.917,0-7.103,2.645-7.103,5.896c0,1.19,0.427,2.336,1.237,3.319l-0.734,2.943c-0.044,0.176,0.012,0.362,0.146,0.485

	c0.092,0.085,0.212,0.132,0.338,0.132c0.054,0,0.107-0.009,0.158-0.026l3.748-1.253c0.171,0.046,0.354,0.088,0.573,0.131

	c0.032,0.006,0.063,0.013,0.098,0.01c0.236,0,0.441-0.168,0.488-0.399c0.026-0.13,0-0.262-0.074-0.373

	C7.554,14.152,7.442,14.077,7.311,14.051z"/>

<path fill="#0050a0" d="M20.119,15.077c0.805-0.972,1.23-2.105,1.23-3.282c0-3.216-3.171-5.833-7.069-5.833

	c-3.898,0-7.069,2.617-7.069,5.833s3.171,5.833,7.069,5.833c0.74,0,1.479-0.099,2.199-0.294l3.727,1.238

	c0.051,0.017,0.104,0.026,0.158,0.026c0.126,0,0.246-0.047,0.338-0.132c0.133-0.123,0.189-0.309,0.145-0.485L20.119,15.077z

	 M19.09,15.068l0.571,2.276l-3.012-1c-0.051-0.017-0.104-0.025-0.158-0.025c-0.047,0-0.094,0.007-0.139,0.02

	c-0.677,0.197-1.374,0.296-2.072,0.296c-3.348,0-6.072-2.171-6.072-4.839s2.724-4.839,6.072-4.839c3.348,0,6.073,2.171,6.073,4.839

	c0,1.013-0.398,1.988-1.15,2.819C19.092,14.738,19.05,14.907,19.09,15.068z"/>

<path fill="#0050a0" d="M11.534,11.021c-0.466,0-0.846,0.378-0.846,0.843c0,0.465,0.379,0.843,0.846,0.843

	c0.466,0,0.846-0.378,0.846-0.843C12.38,11.399,12,11.021,11.534,11.021z"/>

<path fill="#0050a0" d="M14.315,11.021c-0.466,0-0.846,0.378-0.846,0.843c0,0.465,0.379,0.843,0.846,0.843s0.846-0.378,0.846-0.843

	C15.161,11.399,14.781,11.021,14.315,11.021z"/>

<path fill="#0050a0" d="M17.096,11.021c-0.466,0-0.846,0.378-0.846,0.843c0,0.465,0.379,0.843,0.846,0.843

	c0.466,0,0.846-0.378,0.846-0.843C17.942,11.399,17.563,11.021,17.096,11.021z"/>

</svg>

