<?xml version="1.0" encoding="utf-8"?>
<!-- Generator: Adobe Illustrator 17.0.0, SVG Export Plug-In . SVG Version: 6.00 Build 0)  -->
<!DOCTYPE svg PUBLIC "-//W3C//DTD SVG 1.1//EN" "http://www.w3.org/Graphics/SVG/1.1/DTD/svg11.dtd">
<svg version="1.1" id="Livello_1" xmlns="http://www.w3.org/2000/svg" xmlns:xlink="http://www.w3.org/1999/xlink" x="0px" y="0px"
	 width="60px" height="60px" viewBox="0 0 60 60" enable-background="new 0 0 60 60" xml:space="preserve">
<path fill="#0050a0" d="M30,0c16.569,0,30,13.432,30,30S46.569,60,30,60S0,46.569,0,30S13.432,0,30,0z"/>
<path fill="#6AB5AC" d="M30,3c14.912,0,27,12.088,27,27S44.912,57,30,57S3,44.912,3,30S15.088,3,30,3z"/>
<g>
	<path fill="#FFFFFF" d="M30,19.887c-0.387,0-0.7,0.313-0.7,0.7v19.6c0,0.387,0.313,0.7,0.7,0.7s0.7-0.313,0.7-0.7v-19.6
		C30.7,20.201,30.387,19.887,30,19.887z"/>
	<path fill="#FFFFFF" d="M47.358,17.203c-0.143-0.062-3.553-1.518-8.653-1.518c-0.107,0-0.214,0.001-0.322,0.002
		c-4.121,0.05-7.177,0.913-8.364,1.308c-1.164-0.417-4.121-1.309-8.114-1.31c-0.107,0-0.214,0.001-0.322,0.002
		c-5.237,0.063-8.754,1.441-8.901,1.499L11.8,17.538v0.949v23.8v2.027l1.896-0.718c0.033-0.012,3.53-1.307,7.905-1.309
		c4.379,0,7.869,1.296,7.904,1.309l0.495,0.187l0.497-0.187c0.033-0.012,3.53-1.307,7.905-1.309c4.379,0,7.869,1.296,7.904,1.309
		l1.894,0.714l0.002-2.023v-23.8v-0.918L47.358,17.203z M46.8,42.287c0,0-3.684-1.4-8.388-1.4c-0.004,0-0.008,0-0.012,0
		c-4.71,0.002-8.4,1.4-8.4,1.4s-3.684-1.4-8.388-1.4c-0.004,0-0.008,0-0.012,0c-4.71,0.002-8.4,1.4-8.4,1.4v-23.8
		c0,0,3.362-1.339,8.4-1.4c0.103-0.001,0.204-0.002,0.305-0.002c4.868,0,8.095,1.402,8.095,1.402s3.362-1.339,8.4-1.4
		c0.103-0.001,0.204-0.002,0.305-0.002c4.867,0,8.095,1.402,8.095,1.402V42.287z"/>
</g>
</svg>
