<?xml version="1.0" encoding="utf-8"?>
<!-- Generator: Adobe Illustrator 17.0.0, SVG Export Plug-In . SVG Version: 6.00 Build 0)  -->
<!DOCTYPE svg PUBLIC "-//W3C//DTD SVG 1.1//EN" "http://www.w3.org/Graphics/SVG/1.1/DTD/svg11.dtd">
<svg version="1.1" id="Livello_1" xmlns="http://www.w3.org/2000/svg" xmlns:xlink="http://www.w3.org/1999/xlink" x="0px" y="0px"
	 width="24px" height="24px" viewBox="0 0 24 24" enable-background="new 0 0 24 24" xml:space="preserve">
<g>
	<path fill="#1A62AA" d="M21.52,14.79L7.241,16.986l-1.016-1.982L16.451,4.48c0.385-0.396,0.375-1.029-0.021-1.414
		c-0.396-0.384-1.029-0.376-1.414,0.021L4.29,14.124c-0.299,0.308-0.368,0.771-0.173,1.153L5.79,18.54
		c0.173,0.337,0.519,0.544,0.89,0.544c0.051,0,0.102-0.004,0.152-0.012l1.744-0.268c0.002,0.015-0.005,0.029-0.002,0.044
		l0.173,1.146c0.085,0.57,0.389,1.072,0.853,1.414c0.375,0.276,0.82,0.421,1.278,0.421c0.111,0,0.224-0.008,0.335-0.026l3.459-0.532
		c1.18-0.181,1.996-1.285,1.818-2.461l-0.173-1.147c-0.003-0.017-0.014-0.03-0.017-0.047l5.523-0.849
		c0.546-0.084,0.92-0.594,0.836-1.14C22.576,15.08,22.06,14.707,21.52,14.79z M14.513,19.108c0.013,0.088-0.051,0.172-0.144,0.186
		l-3.46,0.532c-0.06,0.007-0.1-0.011-0.124-0.03c-0.034-0.025-0.055-0.059-0.061-0.101l-0.173-1.146
		c-0.003-0.017-0.013-0.03-0.017-0.047l3.808-0.586c0.002,0.015-0.004,0.029-0.002,0.044L14.513,19.108z"/>
	<path fill="#1A62AA" d="M3.485,15.79c-0.252-0.492-0.854-0.687-1.346-0.434c-0.492,0.252-0.686,0.854-0.434,1.346l1.605,3.133
		c0.177,0.346,0.528,0.544,0.891,0.544c0.153,0,0.309-0.035,0.455-0.11c0.492-0.252,0.686-0.854,0.434-1.346L3.485,15.79z"/>
</g>
</svg>
