<?xml version="1.0" encoding="utf-8"?>
<!-- Generator: Adobe Illustrator 17.0.0, SVG Export Plug-In . SVG Version: 6.00 Build 0)  -->
<!DOCTYPE svg PUBLIC "-//W3C//DTD SVG 1.1//EN" "http://www.w3.org/Graphics/SVG/1.1/DTD/svg11.dtd">
<svg version="1.1" id="Livello_1" xmlns="http://www.w3.org/2000/svg" xmlns:xlink="http://www.w3.org/1999/xlink" x="0px" y="0px"
	 width="34px" height="34px" viewBox="0 0 34 34" enable-background="new 0 0 34 34" xml:space="preserve">
<path fill="#004594" d="M17,0C7.611,0,0,7.611,0,17s7.611,17,17,17s17-7.611,17-17S26.389,0,17,0z"/>
<g>
	<rect x="13" y="12" fill-rule="evenodd" clip-rule="evenodd" fill="#FFFFFF" width="6" height="1"/>
	<polygon fill-rule="evenodd" clip-rule="evenodd" fill="#FFFFFF" points="13,16 17,16 18,15 13,15 	"/>
	<path fill-rule="evenodd" clip-rule="evenodd" fill="#FFFFFF" d="M21,23c0,0.552-0.448,1-1,1h-8c-0.552,0-1-0.448-1-1V11
		c0-0.552,0.448-1,1-1h8c0.552,0,1,0.448,1,1v0.69l1.972-1.971C22.834,8.749,22.008,8,21,8H11c-1.105,0-2,0.895-2,2v14
		c0,1.105,0.895,2,2,2h10c1.105,0,2-0.895,2-2v-3.69l-2,2V23z"/>
	<path fill-rule="evenodd" clip-rule="evenodd" fill="#FFFFFF" d="M26.543,13.112l-1.655-1.655c-0.457-0.457-1.198-0.457-1.655,0
		l-5.793,5.792l3.31,3.31l5.792-5.792C27,14.31,27,13.569,26.543,13.112z"/>
	<polygon fill-rule="evenodd" clip-rule="evenodd" fill="#FFFFFF" points="16.2,21.8 19.924,21.386 16.614,18.076 	"/>
</g>
</svg>
