<?xml version="1.0" encoding="utf-8"?>
<!-- Generator: Adobe Illustrator 17.0.0, SVG Export Plug-In . SVG Version: 6.00 Build 0)  -->
<!DOCTYPE svg PUBLIC "-//W3C//DTD SVG 1.1//EN" "http://www.w3.org/Graphics/SVG/1.1/DTD/svg11.dtd">
<svg version="1.1" id="Livello_1" xmlns="http://www.w3.org/2000/svg" xmlns:xlink="http://www.w3.org/1999/xlink" x="0px" y="0px"
	 width="60px" height="60px" viewBox="0 0 60 60" enable-background="new 0 0 60 60" xml:space="preserve">
<path fill="#0050A0" d="M30,0c16.569,0,30,13.432,30,30S46.568,60,30,60S0,46.569,0,30S13.431,0,30,0z"/>
<path fill="#3E74B1" d="M30,2c15.464,0,28,12.536,28,28S45.464,58,30,58S2,45.464,2,30S14.536,2,30,2z"/>
<g>
	<path fill="#FFFFFF" d="M46.097,25.233c-2.418-6.575-8.643-10.64-15.309-10.696l-0.162-2.28c0.545-0.356,0.907-0.969,0.907-1.669
		c0-1.101-0.893-1.994-1.994-1.994s-1.994,0.893-1.994,1.994c0,0.8,0.474,1.485,1.154,1.803l0.16,2.245
		c-1.326,0.145-2.657,0.432-3.966,0.913c-8.584,3.156-13.007,12.61-9.879,21.115c0.821,2.231,2.087,4.166,3.653,5.764
		c-0.566,1.5-1.684,4.648-1.213,4.952c0.464,0.298,2.272-2.047,3.159-3.256c4.324,3.2,10.146,4.233,15.606,2.225
		c2.082-0.766,3.914-1.908,5.458-3.311c0.938,1.257,2.514,3.238,2.942,2.962c0.461-0.297-0.6-3.32-1.177-4.855
		C46.935,36.794,48.15,30.815,46.097,25.233z M35.132,43.834c-7.403,2.723-15.54-0.88-18.175-8.046
		c-2.635-7.166,1.229-15.183,8.632-17.905c7.403-2.722,15.54,0.88,18.175,8.047C46.399,33.096,42.534,41.112,35.132,43.834z"/>
	<path fill="#FFFFFF" d="M32.37,28.984c-0.08-0.035-0.161-0.065-0.243-0.091l0.783-4.98l0.854,0.374l-1.095-2.801l-1.375,2.383
		l1.017-0.052l-0.781,4.969c-0.984-0.054-1.942,0.494-2.361,1.45c-0.083,0.19-0.137,0.384-0.169,0.58l-7.297-0.195l0.49-1.118
		l-2.524,1.217l2.261,1.654l-0.269-1.146l7.313,0.195c0.076,0.856,0.604,1.646,1.446,2.015c1.23,0.539,2.663-0.022,3.202-1.251
		C34.161,30.956,33.6,29.523,32.37,28.984z"/>
	<path fill="#FFFFFF" d="M46.079,21.425c0.4-0.725,0.63-1.561,0.63-2.453c0-2.763-2.193-5.003-4.899-5.003
		c-1.053,0-2.027,0.34-2.825,0.917C41.851,16.357,44.328,18.587,46.079,21.425z"/>
	<path fill="#FFFFFF" d="M20.236,15.945c-0.718-0.422-1.55-0.664-2.438-0.664c-2.706,0-4.899,2.24-4.899,5.003
		c0,1.173,0.397,2.251,1.058,3.104C15.313,20.437,17.459,17.842,20.236,15.945z"/>
</g>
</svg>
