<?xml version="1.0" encoding="utf-8"?>
<!-- Generator: Adobe Illustrator 17.0.0, SVG Export Plug-In . SVG Version: 6.00 Build 0)  -->
<!DOCTYPE svg PUBLIC "-//W3C//DTD SVG 1.1//EN" "http://www.w3.org/Graphics/SVG/1.1/DTD/svg11.dtd">
<svg version="1.1" id="Livello_1" xmlns="http://www.w3.org/2000/svg" xmlns:xlink="http://www.w3.org/1999/xlink" x="0px" y="0px"
	 width="60px" height="60px" viewBox="0 0 60 60" enable-background="new 0 0 60 60" xml:space="preserve">
<path fill="#FFFFFF" d="M39,34.001l0.374-0.3C42.95,30.832,45,26.567,45,22c0-8.271-6.729-15-15-15s-15,6.729-15,15
	c0,4.567,2.05,8.832,5.626,11.701l0.374,0.3V44c0,1.068,0.562,2.033,1.503,2.581L23,46.87V48c0,2.757,2.243,5,5,5h4
	c2.757,0,5-2.243,5-5v-1.13l0.497-0.289C38.438,46.033,39,45.068,39,44V34.001z M35,48c0,1.654-1.346,3-3,3h-4c-1.654,0-3-1.346-3-3
	v-1h10V48z M37,45H23v-4h14V45z M37.427,32.66C37.16,32.847,37,33.154,37,33.48V39h-6V26.976l0.835-0.14
	c2.267-0.378,4.322-1.437,5.943-3.059c0.39-0.39,0.389-1.024,0-1.414c-0.378-0.378-1.037-0.378-1.415,0
	c-1.625,1.627-3.944,2.561-6.363,2.561s-4.738-0.934-6.364-2.561c-0.377-0.377-1.037-0.377-1.415,0c-0.39,0.39-0.39,1.024,0,1.415
	c1.622,1.622,3.677,2.68,5.943,3.059L29,26.976V39h-6v-5.52c0-0.327-0.16-0.634-0.428-0.822C19.083,30.223,17,26.238,17,22
	c0-7.168,5.832-13,13-13s13,5.832,13,13C43,26.238,40.917,30.223,37.427,32.66z"/>
<g>
	<path fill-rule="evenodd" clip-rule="evenodd" fill="#0050A0" d="M30,0c16.569,0,30,13.432,30,30S46.568,60,30,60S0,46.569,0,30
		S13.431,0,30,0z"/>
	<path fill-rule="evenodd" clip-rule="evenodd" fill="#88C4BD" d="M30,2c15.464,0,28,12.536,28,28S45.464,58,30,58S2,45.464,2,30
		S14.536,2,30,2z"/>
	<path fill="#FFFFFF" d="M47.687,38.287l0.285-0.366c1.492-1.913,2.281-4.127,2.281-6.405c0-6.588-6.537-11.947-14.572-11.947
		c-8.035,0-14.571,5.359-14.571,11.947c0,6.588,6.537,11.948,14.571,11.948c1.874,0,3.71-0.295,5.459-0.878l0.34-0.113l5.986,2.292
		c0.34,0.132,0.732,0.062,1.006-0.171c0.278-0.237,0.405-0.607,0.33-0.964L47.687,38.287z M45.625,38.195l0.843,4.044l-4.63-1.771
		c-0.231-0.089-0.482-0.089-0.716,0c-1.726,0.66-3.558,0.995-5.442,0.995c-6.932,0-12.571-4.463-12.571-9.948
		c0-5.485,5.64-9.947,12.571-9.947c6.932,0,12.572,4.462,12.572,9.947c0,2.085-0.826,4.093-2.388,5.804
		C45.649,37.556,45.56,37.883,45.625,38.195z"/>
	<circle fill="#FFFFFF" cx="29.68" cy="32.2" r="2"/>
	<circle fill="#FFFFFF" cx="35.68" cy="32.2" r="2"/>
	<circle fill="#FFFFFF" cx="41.68" cy="32.2" r="2"/>
	<path fill="#FFFFFF" d="M28.014,16.472c0.035-0.266-0.035-0.528-0.197-0.74c-0.163-0.212-0.397-0.348-0.662-0.383
		c-0.923-0.123-1.706-0.18-2.463-0.18c-8.24,0-14.944,5.283-14.944,11.777c0,2.243,0.806,4.424,2.329,6.309l0.302,0.373l-1.14,5.23
		c-0.078,0.357,0.044,0.727,0.319,0.966c0.272,0.237,0.657,0.312,1.004,0.185l5.054-1.856c0.251-0.092,0.451-0.276,0.562-0.519
		c0.112-0.242,0.123-0.514,0.031-0.765c-0.184-0.502-0.774-0.781-1.285-0.593l-3.344,1.229l0.864-3.97
		c0.071-0.325-0.023-0.662-0.252-0.902c-1.6-1.68-2.445-3.647-2.445-5.688c0-5.391,5.807-9.777,12.944-9.777
		c0.664,0,1.363,0.051,2.199,0.162c0.051,0.007,0.095,0.01,0.139,0.01C27.526,17.341,27.949,16.967,28.014,16.472z"/>
</g>
</svg>
