<?xml version="1.0" encoding="utf-8"?>
<!-- Generator: Adobe Illustrator 17.0.0, SVG Export Plug-In . SVG Version: 6.00 Build 0)  -->
<!DOCTYPE svg PUBLIC "-//W3C//DTD SVG 1.1//EN" "http://www.w3.org/Graphics/SVG/1.1/DTD/svg11.dtd">
<svg version="1.1" id="Livello_1" xmlns="http://www.w3.org/2000/svg" xmlns:xlink="http://www.w3.org/1999/xlink" x="0px" y="0px"
	 width="60px" height="60px" viewBox="0 0 60 60" enable-background="new 0 0 60 60" xml:space="preserve">
<path fill-rule="evenodd" clip-rule="evenodd" fill="#0050a0" d="M30,0c16.569,0,30,13.432,30,30S46.569,60,30,60S0,46.569,0,30
	S13.432,0,30,0z"/>
<path fill-rule="evenodd" clip-rule="evenodd" fill="#63A8A0" d="M30,3c14.912,0,27,12.088,27,27S44.912,57,30,57S3,44.912,3,30
	S15.088,3,30,3z"/>
<g>
	<path fill="#FFFFFF" d="M30,13.2c-6.176,0-11.2,5.024-11.2,11.2c0,4.017,2.135,7.693,5.6,9.696V38.4v0.7v3.5
		c0,1.158,0.942,2.1,2.1,2.1c0,1.158,0.942,2.1,2.1,2.1h2.8c1.158,0,2.1-0.942,2.1-2.1c1.158,0,2.1-0.942,2.1-2.1v-3.5v-0.7v-4.304
		c3.465-2.002,5.6-5.679,5.6-9.696C41.2,18.224,36.176,13.2,30,13.2z M31.4,45.4h-2.8c-0.386,0-0.7-0.314-0.7-0.7h4.2
		C32.1,45.086,31.786,45.4,31.4,45.4z M34.2,42.6c0,0.386-0.314,0.7-0.7,0.7h-7c-0.386,0-0.7-0.314-0.7-0.7v-2.8h8.4V42.6z
		 M34.573,33.065c-0.229,0.121-0.372,0.359-0.372,0.619V38.4h-8.4v-4.717c0-0.259-0.144-0.498-0.372-0.619
		C22.203,31.359,20.2,28.039,20.2,24.4c0-5.404,4.396-9.8,9.8-9.8s9.8,4.396,9.8,9.8C39.8,28.039,37.797,31.359,34.573,33.065z"/>
	<path fill="#FFFFFF" d="M35.134,23.043c-0.363-0.129-0.761,0.061-0.893,0.422C34.206,23.561,33.349,25.8,30,25.8
		s-4.206-2.239-4.239-2.329c-0.127-0.365-0.524-0.56-0.89-0.432c-0.365,0.127-0.559,0.525-0.432,0.89
		c0.044,0.126,1.063,2.927,4.861,3.24V36.3c0,0.387,0.313,0.7,0.7,0.7s0.7-0.313,0.7-0.7v-9.131c3.798-0.313,4.818-3.113,4.861-3.24
		C35.687,23.566,35.496,23.172,35.134,23.043z"/>
</g>
</svg>
