<?xml version="1.0" encoding="utf-8"?>
<!-- Generator: Adobe Illustrator 17.0.0, SVG Export Plug-In . SVG Version: 6.00 Build 0)  -->
<!DOCTYPE svg PUBLIC "-//W3C//DTD SVG 1.1//EN" "http://www.w3.org/Graphics/SVG/1.1/DTD/svg11.dtd">
<svg version="1.1" id="Livello_1" xmlns="http://www.w3.org/2000/svg" xmlns:xlink="http://www.w3.org/1999/xlink" x="0px" y="0px"
	 width="22px" height="19px" viewBox="0 0 22 19" enable-background="new 0 0 22 19" xml:space="preserve">
<path fill="#FFF000" d="M21.862,17.493l-10-17c-0.359-0.611-1.364-0.611-1.724,0l-10,17c-0.182,0.309-0.184,0.692-0.006,1.003
	C0.31,18.808,0.641,19,1,19h20c0.359,0,0.69-0.192,0.868-0.503C22.046,18.185,22.044,17.802,21.862,17.493z"/>
<g>
	<circle fill-rule="evenodd" clip-rule="evenodd" cx="11" cy="15" r="1"/>
	<path fill-rule="evenodd" clip-rule="evenodd" d="M11.25,6h-0.5C10.336,6,10,6.336,10,6.75c0,0.115,0,0.385,0,1
		c0,1.5,0.719,5.25,1,5.25s1-3.76,1-5.25c0-0.62,0-0.888,0-1C12,6.336,11.664,6,11.25,6z"/>
</g>
</svg>
