<?xml version="1.0" encoding="utf-8"?>
<!-- Generator: Adobe Illustrator 17.0.0, SVG Export Plug-In . SVG Version: 6.00 Build 0)  -->
<!DOCTYPE svg PUBLIC "-//W3C//DTD SVG 1.1//EN" "http://www.w3.org/Graphics/SVG/1.1/DTD/svg11.dtd">
<svg version="1.1" id="Livello_1" xmlns="http://www.w3.org/2000/svg" xmlns:xlink="http://www.w3.org/1999/xlink" x="0px" y="0px"
	 width="34px" height="34px" viewBox="0 0 34 34" enable-background="new 0 0 34 34" xml:space="preserve">
<g>
	<path fill-rule="evenodd" clip-rule="evenodd" fill="#C70000" d="M17,0c9.389,0,17,7.611,17,17s-7.611,17-17,17
		C7.611,34,0,26.389,0,17S7.611,0,17,0z"/>
	<circle fill-rule="evenodd" clip-rule="evenodd" fill="#FFFFFF" cx="17" cy="17" r="9"/>
	<path fill-rule="evenodd" clip-rule="evenodd" fill="#C70000" d="M10,17c0-1.572,0.525-3.018,1.399-4.186l9.787,9.787
		C20.018,23.475,18.572,24,17,24C13.134,24,10,20.866,10,17z"/>
	<path fill-rule="evenodd" clip-rule="evenodd" fill="#C70000" d="M22.601,21.186l-9.787-9.787C13.982,10.525,15.428,10,17,10
		c3.866,0,7,3.134,7,7C24,18.572,23.475,20.018,22.601,21.186z"/>
</g>
</svg>
