<?xml version="1.0" encoding="utf-8"?>
<!-- Generator: Adobe Illustrator 17.0.0, SVG Export Plug-In . SVG Version: 6.00 Build 0)  -->
<!DOCTYPE svg PUBLIC "-//W3C//DTD SVG 1.1//EN" "http://www.w3.org/Graphics/SVG/1.1/DTD/svg11.dtd">
<svg version="1.1" id="Livello_1" xmlns="http://www.w3.org/2000/svg" xmlns:xlink="http://www.w3.org/1999/xlink" x="0px" y="0px"
	 width="34px" height="34px" viewBox="0 0 34 34" enable-background="new 0 0 34 34" xml:space="preserve">
<path fill-rule="evenodd" clip-rule="evenodd" fill="#AD0000" d="M17,0c9.389,0,17,7.611,17,17c0,9.389-7.611,17-17,17
	C7.611,34,0,26.389,0,17C0,7.611,7.611,0,17,0z"/>
<path fill-rule="evenodd" clip-rule="evenodd" fill="#FFFFFF" d="M17,3c7.732,0,14,6.268,14,14c0,7.732-6.268,14-14,14
	S3,24.732,3,17C3,9.268,9.268,3,17,3z"/>
<path fill-rule="evenodd" clip-rule="evenodd" fill="#AD0000" d="M25.77,8.361C25.58,8.132,25.297,8,25,8H9
	C8.703,8,8.42,8.132,8.23,8.361S7.962,8.892,8.017,9.184l3,16C11.106,25.657,11.519,26,12,26h10c0.481,0,0.894-0.343,0.983-0.816
	l3-16C26.038,8.892,25.959,8.59,25.77,8.361z M14.127,10l2.172,2.172l-2.828,2.828l-2.828-2.828L12.815,10H14.127z M21.198,10
	l2.172,2.172l-2.828,2.828l-2.828-2.828L19.886,10H21.198z M19.835,15.708l-2.828,2.828l-2.828-2.828l2.828-2.828L19.835,15.708z
	 M17.007,11.465L15.542,10h2.93L17.007,11.465z M12.742,15.73l-1.232,1.232l-0.568-3.032L12.742,15.73z M13.449,16.437l2.828,2.828
	l-2.828,2.828l-1.202-1.202l-0.514-2.74L13.449,16.437z M12.742,22.801l-0.115,0.115l-0.053-0.283L12.742,22.801z M13.493,23.464
	L14.029,24h-1.072L13.493,23.464z M14.223,22.735l2.828-2.828l2.828,2.828L18.614,24h-3.126L14.223,22.735z M21.294,22.735
	l0.14-0.14l-0.044,0.235L21.294,22.735z M20.586,22.028l-2.828-2.828l2.828-2.828l1.696,1.696l-0.523,2.788L20.586,22.028z
	 M21.145,24h-1.117l0.558-0.558L21.145,24z M21.294,15.664l1.772-1.772l-0.559,2.984L21.294,15.664z M23.608,10.996L22.613,10h1.182
	L23.608,10.996z M11.401,10l-1.007,1.007L10.205,10H11.401z"/>
</svg>
