<?xml version="1.0" encoding="utf-8"?>
<!-- Generator: Adobe Illustrator 17.0.0, SVG Export Plug-In . SVG Version: 6.00 Build 0)  -->
<!DOCTYPE svg PUBLIC "-//W3C//DTD SVG 1.1//EN" "http://www.w3.org/Graphics/SVG/1.1/DTD/svg11.dtd">
<svg version="1.1" id="Livello_1" xmlns="http://www.w3.org/2000/svg" xmlns:xlink="http://www.w3.org/1999/xlink" x="0px" y="0px"
	 width="19.773px" height="19.805px" viewBox="0 0 19.773 19.805" enable-background="new 0 0 19.773 19.805" xml:space="preserve">
<path fill="#FFFFFF" d="M17.818,1.997C16.513,0.672,15.109,0,13.645,0c-1.284,0-2.286,0.528-2.861,0.929
	c-0.116,0.048-0.225,0.12-0.319,0.215L1.988,9.621c-0.14,0.14-0.235,0.317-0.273,0.511L0.02,18.608
	c-0.066,0.328,0.037,0.667,0.273,0.903C0.482,19.701,0.737,19.805,1,19.805c0.065,0,0.131-0.006,0.196-0.02l8.477-1.695
	c0.193-0.039,0.371-0.134,0.511-0.273l8.477-8.477c0.086-0.086,0.153-0.189,0.201-0.301C20.068,7.314,20.399,4.617,17.818,1.997z
	 M7.297,12.555c-0.351-0.35-0.686-0.652-1.006-0.917l6.268-6.241l1.835,1.836l-6.258,6.232C7.89,13.173,7.614,12.87,7.297,12.555z
	 M5.487,11.026c-0.5-0.345-0.942-0.584-1.322-0.754L10.8,3.638l1.052,1.052L5.487,11.026z M3.56,11.104
	c0.681,0.271,1.725,0.854,3.031,2.158c1.273,1.271,1.859,2.295,2.139,2.976L2.275,17.53L3.56,11.104z M9.552,15.619
	c-0.18-0.391-0.437-0.847-0.798-1.358l6.348-6.321l1.065,1.065L9.552,15.619z M17.14,8.004c-0.021,0.028-0.041,0.057-0.059,0.086
	l-0.208,0.208L11.507,2.93l0.208-0.208c0.03-0.019,0.06-0.039,0.088-0.061C12.123,2.415,12.787,2,13.645,2
	c0.909,0,1.833,0.471,2.749,1.4C18.486,5.525,17.759,7.197,17.14,8.004z"/>
</svg>
