<?xml version="1.0" encoding="utf-8"?>
<!-- Generator: Adobe Illustrator 17.0.0, SVG Export Plug-In . SVG Version: 6.00 Build 0)  -->
<!DOCTYPE svg PUBLIC "-//W3C//DTD SVG 1.1//EN" "http://www.w3.org/Graphics/SVG/1.1/DTD/svg11.dtd">
<svg version="1.1" id="Livello_1" xmlns="http://www.w3.org/2000/svg" xmlns:xlink="http://www.w3.org/1999/xlink" x="0px" y="0px"
	 width="24.297px" height="17.1px" viewBox="0 0 24.297 17.1" enable-background="new 0 0 24.297 17.1" xml:space="preserve">
<path fill="#FFFFFF" d="M21.507,0H2.79C1.252,0,0,1.292,0,2.88v10.493l0.004,0.903c0.03,1.557,1.28,2.824,2.786,2.824h18.717
	c1.507,0,2.756-1.267,2.786-2.831L24.297,2.88C24.297,1.292,23.046,0,21.507,0z M5.411,8.528l-3.643,2.429V5.602L5.411,8.528z
	 M12.149,11.34c-0.191,0-0.79-0.334-1.278-0.711L1.768,3.356V2.88c0-0.595,0.459-1.08,1.022-1.08h18.717
	c0.564,0,1.022,0.485,1.022,1.08v0.476l-9.098,7.269C12.995,10.963,12.361,11.34,12.149,11.34z M1.768,13.126l5.115-3.4l2.912,2.331
	c0.637,0.494,1.563,1.083,2.354,1.083c0.789,0,1.721-0.593,2.37-1.095l2.896-2.319l5.115,3.4v1.094c0,0.595-0.459,1.08-1.022,1.08
	H2.79c-0.564,0-1.022-0.485-1.022-1.08V13.126z M22.53,5.602v5.354l-3.643-2.429L22.53,5.602z"/>
</svg>
