<?xml version="1.0" encoding="utf-8"?>
<!-- Generator: Adobe Illustrator 17.0.0, SVG Export Plug-In . SVG Version: 6.00 Build 0)  -->
<!DOCTYPE svg PUBLIC "-//W3C//DTD SVG 1.1//EN" "http://www.w3.org/Graphics/SVG/1.1/DTD/svg11.dtd">
<svg version="1.1" id="Livello_1" xmlns="http://www.w3.org/2000/svg" xmlns:xlink="http://www.w3.org/1999/xlink" x="0px" y="0px"
	 width="24.295px" height="25.187px" viewBox="0 0 24.295 25.187" enable-background="new 0 0 24.295 25.187" xml:space="preserve">
<path fill="#6AB5AC" d="M24.119,8.71l-1.683-1.3V4.573c0-0.73-0.591-1.324-1.318-1.324h-4.066l-3.075-2.376
	C13.703,0.668,12.764,0,12.148,0s-1.556,0.668-1.835,0.877l-3.07,2.372H3.177c-0.727,0-1.318,0.594-1.318,1.324v2.836l-1.683,1.3
	C0.065,8.796,0,8.928,0,9.069v13.315c0,1.545,1.252,2.803,2.79,2.803h18.714c1.538,0,2.79-1.258,2.79-2.803V9.069
	C24.295,8.928,24.23,8.796,24.119,8.71z M11.554,2.162c0.18-0.139,0.481-0.37,0.588-0.379c0.114,0.008,0.418,0.241,0.6,0.381
	l1.409,1.086h-4.006L11.554,2.162z M3.628,5.026h17.039v8.24l-7.23,5.621c-0.438,0.328-1.076,0.693-1.29,0.693
	s-0.851-0.365-1.283-0.688l-7.236-5.626C3.628,13.266,3.628,5.026,3.628,5.026z M1.769,9.721l0.09-0.069v2.24l-0.09-0.07V9.721z
	 M1.769,14.066l3.62,2.812l-3.62,2.334V14.066z M22.526,22.384c0,0.566-0.458,1.026-1.021,1.026H2.79
	c-0.563,0-1.021-0.46-1.021-1.026v-1.043l5.114-3.287L9.8,20.312c0.636,0.477,1.56,1.045,2.347,1.045
	c0.786,0,1.716-0.573,2.363-1.058l2.902-2.246l5.114,3.287C22.526,21.34,22.526,22.384,22.526,22.384z M22.526,19.212l-3.62-2.334
	l3.62-2.812C22.526,14.066,22.526,19.212,22.526,19.212z M22.526,11.821l-0.09,0.07v-2.24l0.09,0.069V11.821z"/>
<path fill="#6AB5AC" d="M5.648,7.635h13v1h-13C5.648,8.635,5.648,7.635,5.648,7.635z"/>
<path fill="#6AB5AC" d="M5.648,10.634h13v1h-13C5.648,11.634,5.648,10.634,5.648,10.634z"/>
<path fill="#6AB5AC" d="M7.648,13.635h9v1h-9C7.648,14.635,7.648,13.635,7.648,13.635z"/>
</svg>
