<?xml version="1.0" encoding="utf-8"?>
<!-- Generator: Adobe Illustrator 17.0.0, SVG Export Plug-In . SVG Version: 6.00 Build 0)  -->
<!DOCTYPE svg PUBLIC "-//W3C//DTD SVG 1.1//EN" "http://www.w3.org/Graphics/SVG/1.1/DTD/svg11.dtd">
<svg version="1.1" id="Livello_1" xmlns="http://www.w3.org/2000/svg" xmlns:xlink="http://www.w3.org/1999/xlink" x="0px" y="0px"
	 width="30px" height="20px" viewBox="0 0 30 20" enable-background="new 0 0 30 20" xml:space="preserve">
<g>
	<path fill-rule="evenodd" clip-rule="evenodd" fill="#FFFFFF" d="M13.348,11.46c0.836,0.605,2.411,0.606,3.245,0.004l13.2-9.54
		C29.36,0.801,28.277,0,27,0H3C1.695,0,0.596,0.839,0.183,2.002L13.348,11.46z"/>
	<polygon fill-rule="evenodd" clip-rule="evenodd" fill="#FFFFFF" points="22.06,9.981 30,15.719 30,4.243 	"/>
	<polygon fill-rule="evenodd" clip-rule="evenodd" fill="#FFFFFF" points="7.862,9.981 0,4.333 0,15.629 	"/>
	<path fill-rule="evenodd" clip-rule="evenodd" fill="#FFFFFF" d="M20.353,11.215l-2.588,1.87c-0.757,0.546-1.773,0.819-2.79,0.819
		c-1.02,0-2.039-0.274-2.796-0.823l-2.602-1.87l-9.402,6.755C0.577,19.147,1.683,20,3,20h24c1.288,0,2.377-0.816,2.803-1.956
		L20.353,11.215z"/>
</g>
</svg>
