<?xml version="1.0" encoding="utf-8"?>
<!-- Generator: Adobe Illustrator 17.0.0, SVG Export Plug-In . SVG Version: 6.00 Build 0)  -->
<!DOCTYPE svg PUBLIC "-//W3C//DTD SVG 1.1//EN" "http://www.w3.org/Graphics/SVG/1.1/DTD/svg11.dtd">
<svg version="1.1" id="Livello_1" xmlns="http://www.w3.org/2000/svg" xmlns:xlink="http://www.w3.org/1999/xlink" x="0px" y="0px"
	 width="24px" height="16.005px" viewBox="0 0 24 16.005" enable-background="new 0 0 24 16.005" xml:space="preserve">
<path fill-rule="evenodd" clip-rule="evenodd" fill="#A2A0AB" d="M24,9l-4-3v2h-1l0.001-5.257c0.006-0.796,0.013-1.619-0.576-2.212
	C18.076,0.179,17.596,0,17,0H6C4.346,0,3,1.346,3,3l0,0C1.346,3,0,4.346,0,6v7c0,1.654,1.346,3,2.999,3l10.55,0.005l2.379-0.001
	c0.042,0,0.078,0,0.121,0c0.298,0,0.631-0.001,0.958-0.004c0.002,0,0.003,0,0.005,0V16C19,15.978,19,13.967,19,13l0-3h1v2L24,9z
	 M6,2h10.983c0.023,0.189,0.02,0.503,0.019,0.728L17.001,8H16V6c0-1.654-1.346-3-3-3H5C5,2.448,5.448,2,6,2z M13.549,14.005L3,14
	c-0.552,0-1-0.448-1-1V6c0-0.552,0.448-1,1-1h10c0.552,0,1,0.448,1,1v7c0,0.348,0.068,0.687,0.19,1.005
	C13.984,14.005,13.77,14.005,13.549,14.005z M17,13c0,0.255-0.001,0.74-0.051,0.985C16.507,13.942,16,13.509,16,13v-3h1L17,13z"/>
</svg>
