<?xml version="1.0" encoding="utf-8"?>
<!-- Generator: Adobe Illustrator 16.0.0, SVG Export Plug-In . SVG Version: 6.00 Build 0)  -->
<!DOCTYPE svg PUBLIC "-//W3C//DTD SVG 1.1//EN" "http://www.w3.org/Graphics/SVG/1.1/DTD/svg11.dtd">
<svg version="1.1" id="Livello_1" xmlns="http://www.w3.org/2000/svg" xmlns:xlink="http://www.w3.org/1999/xlink" x="0px" y="0px"
	 width="34px" height="34px" viewBox="0 0 34 34" enable-background="new 0 0 34 34" xml:space="preserve">
<g>
	<defs>
		<rect id="SVGID_1_" width="34" height="34"/>
	</defs>
	<clipPath id="SVGID_2_">
		<use xlink:href="#SVGID_1_"  overflow="visible"/>
	</clipPath>
	<path clip-path="url(#SVGID_2_)" fill-rule="evenodd" clip-rule="evenodd" fill="#0050a0" d="M17,0C7.611,0,0,7.611,0,17
		c0,9.389,7.611,17,17,17c9.389,0,17-7.611,17-17C34,7.611,26.389,0,17,0"/>
	<path clip-path="url(#SVGID_2_)" fill-rule="evenodd" clip-rule="evenodd" fill="#FFFFFF" d="M17,3c7.732,0,14,6.268,14,14
		c0,7.732-6.268,14-14,14C9.268,31,3,24.732,3,17C3,9.268,9.268,3,17,3"/>
	<path clip-path="url(#SVGID_2_)" fill-rule="evenodd" clip-rule="evenodd" fill="#0050a0" d="M17,23c1.105,0,2,0.895,2,2
		s-0.895,2-2,2s-2-0.895-2-2S15.895,23,17,23"/>
	<path clip-path="url(#SVGID_2_)" fill-rule="evenodd" clip-rule="evenodd" fill="#0050a0" d="M16.5,7h1C18.328,7,19,7.672,19,8.5v2
		c0,2.979-1.438,10.5-2,10.5c-0.563,0-2-7.5-2-10.5v-2C15,7.672,15.672,7,16.5,7"/>
</g>
</svg>
