<?xml version="1.0" encoding="utf-8"?>
<!-- Generator: Adobe Illustrator 17.0.0, SVG Export Plug-In . SVG Version: 6.00 Build 0)  -->
<!DOCTYPE svg PUBLIC "-//W3C//DTD SVG 1.1//EN" "http://www.w3.org/Graphics/SVG/1.1/DTD/svg11.dtd">
<svg version="1.1" id="Livello_1" xmlns="http://www.w3.org/2000/svg" xmlns:xlink="http://www.w3.org/1999/xlink" x="0px" y="0px"
	 width="17.933px" height="21px" viewBox="0 0 17.933 21" enable-background="new 0 0 17.933 21" xml:space="preserve">
<path fill="#6AB5AC" d="M17.703,3.361C17.514,3.132,17.233,3,16.936,3h-3.242c0.168,0.294,0.273,0.635,0.273,1
	c0,0.506-0.194,0.963-0.504,1.315l1.85,1.857L12.495,10l-0.584-0.587c-0.075,0.355-0.248,0.671-0.483,0.93l0.363,0.364l-2.818,2.828
	l-2.818-2.828l0.355-0.356c-0.236-0.257-0.409-0.573-0.485-0.927L5.451,10L2.633,7.172l1.851-1.858
	C4.343,5.153,4.222,4.972,4.137,4.766C3.894,4.178,3.954,3.531,4.263,3H0.996C0.7,3,0.419,3.132,0.23,3.361
	C0.04,3.59-0.037,3.892,0.017,4.184l2.989,16C3.094,20.657,3.505,21,3.985,21h9.962c0.48,0,0.891-0.343,0.979-0.816l2.989-16
	C17.97,3.892,17.892,3.59,17.703,3.361z M2.197,5h1.191L2.385,6.007L2.197,5z M2.931,8.93l1.793,1.8l-1.227,1.232L2.931,8.93z
	 M3.72,13.152l1.709-1.715l2.818,2.828l-2.818,2.828l-1.197-1.202L3.72,13.152z M4.609,17.916l-0.053-0.283l0.168,0.168
	L4.609,17.916z M4.939,19l0.534-0.536L6.007,19H4.939z M10.574,19H7.46l-1.261-1.265l2.818-2.828l2.818,2.828L10.574,19z M11.983,19
	l0.556-0.558L13.096,19H11.983z M13.339,17.83l-0.095-0.096l0.139-0.14L13.339,17.83z M13.708,15.854l-1.169,1.173l-2.818-2.828
	l2.818-2.828l1.689,1.696L13.708,15.854z M14.451,11.876l-1.208-1.212l1.765-1.771L14.451,11.876z M15.55,5.996L14.558,5h1.178
	L15.55,5.996z"/>
<path fill="#6AB5AC" d="M12.66,3.293l-2.989-3C9.476,0.098,9.221,0,8.966,0s-0.51,0.098-0.704,0.293l-2.989,3
	c-0.285,0.286-0.37,0.716-0.216,1.09C5.211,4.756,5.575,5,5.978,5h0.996v4c0,0.552,0.446,1,0.996,1h1.992
	c0.55,0,0.996-0.448,0.996-1V5h0.996c0.403,0,0.766-0.244,0.92-0.617C13.03,4.009,12.944,3.579,12.66,3.293z"/>
</svg>
