<?xml version="1.0" encoding="utf-8"?>
<!-- Generator: Adobe Illustrator 17.0.0, SVG Export Plug-In . SVG Version: 6.00 Build 0)  -->
<!DOCTYPE svg PUBLIC "-//W3C//DTD SVG 1.1//EN" "http://www.w3.org/Graphics/SVG/1.1/DTD/svg11.dtd">
<svg version="1.1" id="Livello_1" xmlns="http://www.w3.org/2000/svg" xmlns:xlink="http://www.w3.org/1999/xlink" x="0px" y="0px"
	 width="34px" height="34px" viewBox="0 0 34 34" enable-background="new 0 0 34 34" xml:space="preserve">
<g>
	<path fill-rule="evenodd" clip-rule="evenodd" fill="#004594" d="M17,0c9.389,0,17,7.611,17,17s-7.611,17-17,17
		C7.611,34,0,26.389,0,17S7.611,0,17,0z"/>
	<path fill="#FFFFFF" d="M21,26h-8c-0.477,0-0.887-0.336-0.98-0.804l-3-15C8.911,9.655,9.262,9.128,9.804,9.02
		c0.543-0.108,1.069,0.243,1.177,0.784L13.82,24h6.36L23.02,9.804c0.108-0.542,0.633-0.893,1.177-0.784
		c0.542,0.108,0.893,0.635,0.784,1.177l-3,15C21.887,25.664,21.477,26,21,26z"/>
	<path fill="#FFFFFF" d="M21.707,9.293l-4-4c-0.391-0.391-1.023-0.391-1.414,0l-4,4c-0.391,0.391-0.391,1.023,0,1.414
		s1.023,0.391,1.414,0L16,8.414V14c0,0.552,0.448,1,1,1s1-0.448,1-1V8.414l2.293,2.293C20.488,10.902,20.744,11,21,11
		s0.512-0.098,0.707-0.293C22.098,10.316,22.098,9.684,21.707,9.293z"/>
	<path fill="#FFFFFF" d="M23.051,12.051c-0.506,0.506-1.167,0.79-1.875,0.832L21.293,13l-1.437,1.437
		c-0.191,1.247-1.171,2.228-2.419,2.419L17,17.293l-0.437-0.437c-1.247-0.191-2.228-1.171-2.419-2.419L12.707,13l0.117-0.117
		c-0.708-0.043-1.369-0.327-1.875-0.832l-0.303,0.303L11.293,13l-0.646,0.646l0.707,0.707L12,13.707l1.793,1.793L12,17.293
		l-0.646-0.646l-0.707,0.707l3.146,3.146l-2.146,2.146l0.707,0.707l2.146-2.146L16.293,23l-1.646,1.646l0.707,0.707L17,23.707
		l1.646,1.646l0.707-0.707L17.707,23l1.793-1.793l2.146,2.146l0.707-0.707L20.207,20.5l3.146-3.146l-0.707-0.707L22,17.293
		L20.207,15.5L22,13.707l0.646,0.646l0.707-0.707L22.707,13l0.646-0.646L23.051,12.051z M12.707,18l1.793-1.793L16.293,18
		L14.5,19.793L12.707,18z M17,22.293L15.207,20.5L17,18.707l1.793,1.793L17,22.293z M21.293,18L19.5,19.793L17.707,18l1.793-1.793
		L21.293,18z"/>
</g>
</svg>
