<?xml version="1.0" encoding="utf-8"?>
<!-- Generator: Adobe Illustrator 17.0.0, SVG Export Plug-In . SVG Version: 6.00 Build 0)  -->
<!DOCTYPE svg PUBLIC "-//W3C//DTD SVG 1.1//EN" "http://www.w3.org/Graphics/SVG/1.1/DTD/svg11.dtd">
<svg version="1.1" id="Livello_1" xmlns="http://www.w3.org/2000/svg" xmlns:xlink="http://www.w3.org/1999/xlink" x="0px" y="0px"
	 width="34px" height="34px" viewBox="0 0 34 34" enable-background="new 0 0 34 34" xml:space="preserve">
<g>
	<circle fill="#0050A0" cx="17" cy="17" r="17"/>
	<circle fill-rule="evenodd" clip-rule="evenodd" fill="#FFFFFF" cx="17" cy="17" r="15"/>
	<path fill="#0050A0" d="M24,25H10c-1.654,0-3-1.346-3-3v-8c0-1.654,1.346-3,3-3h2.171C12.584,9.836,13.696,9,15,9h4
		c1.304,0,2.416,0.836,2.829,2H24c1.654,0,3,1.346,3,3v8C27,23.654,25.654,25,24,25z"/>
	<path fill="#FFFFFF" d="M10,13c-0.551,0-1,0.449-1,1v8c0,0.551,0.449,1,1,1h14c0.551,0,1-0.449,1-1v-8c0-0.551-0.449-1-1-1h-3
		c-0.552,0-1-0.448-1-1c0-0.551-0.449-1-1-1h-4c-0.551,0-1,0.449-1,1c0,0.552-0.448,1-1,1H10z"/>
	<circle fill-rule="evenodd" clip-rule="evenodd" fill="#0050A0" cx="17" cy="18" r="4"/>
	<circle fill-rule="evenodd" clip-rule="evenodd" fill="#FFFFFF" cx="17" cy="18" r="3"/>
	<circle fill-rule="evenodd" clip-rule="evenodd" fill="#0050A0" cx="23" cy="15" r="1"/>
</g>
</svg>
