<?xml version="1.0" encoding="utf-8"?>
<!-- Generator: Adobe Illustrator 17.0.0, SVG Export Plug-In . SVG Version: 6.00 Build 0)  -->
<!DOCTYPE svg PUBLIC "-//W3C//DTD SVG 1.1//EN" "http://www.w3.org/Graphics/SVG/1.1/DTD/svg11.dtd">
<svg version="1.1" id="Livello_1" xmlns="http://www.w3.org/2000/svg" xmlns:xlink="http://www.w3.org/1999/xlink" x="0px" y="0px"
	 width="196px" height="196px" viewBox="0 0 196 196" enable-background="new 0 0 196 196" xml:space="preserve">
<path fill-rule="evenodd" clip-rule="evenodd" fill="#DDDCDA" d="M0,0h196v196H0V0z"/>
<path fill-rule="evenodd" clip-rule="evenodd" fill="#FFFFFF" d="M110.862,91.945C119.283,87.375,125,78.455,125,68.2
	c0-14.912-12.088-27-27-27s-27,12.088-27,27c0,10.255,5.717,19.175,14.138,23.745C61.525,97.716,44,119.009,44,144.4
	c0,1.325,1.075,2.4,2.4,2.4c1.325,0,2.4-1.075,2.4-2.4c0-27.172,22.028-49.2,49.2-49.2s49.2,22.028,49.2,49.2
	c0,1.325,1.075,2.4,2.4,2.4c1.325,0,2.4-1.075,2.4-2.4C152,119.009,134.475,97.716,110.862,91.945z M75.8,68.2
	C75.8,55.939,85.739,46,98,46s22.2,9.939,22.2,22.2S110.261,90.4,98,90.4S75.8,80.461,75.8,68.2z"/>
</svg>
