<?xml version="1.0" encoding="utf-8"?>
<!-- Generator: Adobe Illustrator 17.0.0, SVG Export Plug-In . SVG Version: 6.00 Build 0)  -->
<!DOCTYPE svg PUBLIC "-//W3C//DTD SVG 1.1//EN" "http://www.w3.org/Graphics/SVG/1.1/DTD/svg11.dtd">
<svg version="1.1" id="Livello_1" xmlns="http://www.w3.org/2000/svg" xmlns:xlink="http://www.w3.org/1999/xlink" x="0px" y="0px"
	 width="27px" height="18px" viewBox="0 0 27 18" enable-background="new 0 0 27 18" xml:space="preserve">
<path fill-rule="evenodd" clip-rule="evenodd" fill="#FFFFFF" d="M13.5,12.6c0.593,0,1.8-0.9,1.8-0.9l11.7-9
	C27,1.209,25.791,0,24.3,0H2.7C1.209,0,0,1.209,0,2.7l11.7,9C11.7,11.7,12.907,12.6,13.5,12.6z"/>
<path fill-rule="evenodd" clip-rule="evenodd" fill="#FFFFFF" d="M0,4.5v8.1l5.684-3.553L0,4.5z"/>
<path fill-rule="evenodd" clip-rule="evenodd" fill="#FFFFFF" d="M18,11.7c0,0-2.898,2.833-4.501,2.7C11.896,14.267,9,11.7,9,11.7
	l-2.053-1.642L0,14.4v0.9C0,16.791,1.209,18,2.7,18h21.6c1.491,0,2.7-1.209,2.7-2.7v-0.9l-6.948-4.342L18,11.7z"/>
<path fill-rule="evenodd" clip-rule="evenodd" fill="#FFFFFF" d="M27,12.6V4.5l-5.684,4.547L27,12.6z"/>
</svg>
