<?xml version="1.0" encoding="utf-8"?>
<!-- Generator: Adobe Illustrator 17.0.0, SVG Export Plug-In . SVG Version: 6.00 Build 0)  -->
<!DOCTYPE svg PUBLIC "-//W3C//DTD SVG 1.1//EN" "http://www.w3.org/Graphics/SVG/1.1/DTD/svg11.dtd">
<svg version="1.1" id="Livello_1" xmlns="http://www.w3.org/2000/svg" xmlns:xlink="http://www.w3.org/1999/xlink" x="0px" y="0px"
	 width="24px" height="24px" viewBox="0 0 24 24" enable-background="new 0 0 24 24" xml:space="preserve">
<path fill="#88C4BD" d="M16.5,24H3c-1.654,0-3-1.348-3-3.004V10.977c0-0.545,0.154-1.085,0.445-1.562
	c0.264-0.483,0.711-0.894,1.271-1.145c0.092-0.046,0.22-0.096,0.354-0.14l0.131-0.04C2.479,8.012,2.738,7.973,3,7.973
	c1.229-0.072,2.787-0.851,5.321-2.687c0.804-0.583,1.333-1.292,1.844-1.979c0.795-1.068,1.618-2.172,3.257-2.3l0.136-0.004
	c0.678,0,1.683,0.285,2.47,1.083C16.678,2.746,17.013,3.601,17,4.558c0.011,0.229,0.043,0.992-0.555,3.415H19.5
	c1.93,0,3.5,1.572,3.5,3.505c0,0.949-0.379,1.836-1.041,2.487C21.986,14.138,22,14.311,22,14.484c0,0.949-0.379,1.836-1.041,2.487
	C20.986,17.144,21,17.317,21,17.49c0,0.949-0.379,1.836-1.041,2.487C19.986,20.15,20,20.323,20,20.496C20,22.428,18.429,24,16.5,24z
	"/>
</svg>
