<?xml version="1.0" encoding="utf-8"?>

<!-- Generator: Adobe Illustrator 17.0.0, SVG Export Plug-In . SVG Version: 6.00 Build 0)  -->

<!DOCTYPE svg PUBLIC "-//W3C//DTD SVG 1.1//EN" "http://www.w3.org/Graphics/SVG/1.1/DTD/svg11.dtd">

<svg version="1.1" id="Livello_1" xmlns="http://www.w3.org/2000/svg" xmlns:xlink="http://www.w3.org/1999/xlink" x="0px" y="0px"

	 width="22px" height="22px" viewBox="0 0 22 22" enable-background="new 0 0 22 22" xml:space="preserve">

<path fill="#1a62aa" d="M21.384,5.084c-0.152-0.18-0.375-0.284-0.61-0.284h-3.088c0.061-0.766,0.095-1.553,0.096-2.359

	c0.001-0.013,0.001-0.027,0.001-0.041c0-0.442-0.356-0.8-0.797-0.8h-0.002H5.016c-0.441,0-0.798,0.358-0.798,0.8

	c0,0.821,0.034,1.621,0.096,2.4H1.226c-0.235,0-0.458,0.104-0.61,0.284C0.465,5.264,0.4,5.501,0.439,5.733

	c0.856,5.071,4.209,8.954,8.349,9.991c0.23,0.16,0.467,0.295,0.708,0.405c-0.394,1.064-1.13,1.809-1.986,1.864

	c-0.025-0.003-0.053-0.004-0.082-0.004c-0.663,0-1.202,0.541-1.202,1.205c0,0.599,0.437,1.097,1.016,1.187

	c0.054,0.012,0.11,0.018,0.167,0.018h7.181c0.003,0,0.006,0,0.01,0c0.003,0,0.006,0,0.009,0c0.663,0,1.202-0.541,1.202-1.205

	s-0.539-1.205-1.202-1.205c-0.038,0-0.073,0.003-0.105,0.006c-0.847-0.048-1.592-0.804-1.993-1.87

	c0.239-0.109,0.474-0.243,0.702-0.402c4.139-1.037,7.492-4.92,8.348-9.991C21.6,5.501,21.535,5.264,21.384,5.084z M16.984,2.4

	c0,7.327-2.679,13.267-5.984,13.267S5.016,9.727,5.016,2.4H16.984z M1.226,5.6h3.163c0.404,3.735,1.504,6.861,3.015,8.788

	C4.275,12.932,1.907,9.637,1.226,5.6z M14.566,18.798c0.015-0.002,0.028-0.009,0.043-0.009c0.223,0,0.404,0.181,0.404,0.405

	s-0.181,0.405-0.404,0.405c-0.007,0-0.012-0.003-0.019-0.004V19.6H7.409v-0.004c-0.214-0.01-0.385-0.184-0.385-0.401

	c0-0.224,0.181-0.405,0.404-0.405c0.012,0,0.022,0.006,0.034,0.007c1.221-0.027,2.272-1.002,2.791-2.412

	c0.245,0.053,0.494,0.083,0.747,0.083c0.253,0,0.502-0.029,0.747-0.083C12.27,17.806,13.333,18.785,14.566,18.798z M14.596,14.388

	c1.512-1.926,2.611-5.053,3.015-8.788h3.163C20.093,9.637,17.725,12.932,14.596,14.388z"/>

</svg>

