<?xml version="1.0" encoding="utf-8"?>
<!-- Generator: Adobe Illustrator 17.0.0, SVG Export Plug-In . SVG Version: 6.00 Build 0)  -->
<!DOCTYPE svg PUBLIC "-//W3C//DTD SVG 1.1//EN" "http://www.w3.org/Graphics/SVG/1.1/DTD/svg11.dtd">
<svg version="1.1" id="Livello_1" xmlns="http://www.w3.org/2000/svg" xmlns:xlink="http://www.w3.org/1999/xlink" x="0px" y="0px"
	 width="60px" height="60px" viewBox="0 0 60 60" enable-background="new 0 0 60 60" xml:space="preserve">
<path fill-rule="evenodd" clip-rule="evenodd" fill="#0050a0" d="M30,0c16.569,0,30,13.432,30,30S46.569,60,30,60S0,46.569,0,30
	S13.432,0,30,0z"/>
<path fill-rule="evenodd" clip-rule="evenodd" fill="#6AB5AC" d="M30,3c14.912,0,27,12.088,27,27S44.912,57,30,57S3,44.912,3,30
	S15.088,3,30,3z"/>
<path fill-rule="evenodd" clip-rule="evenodd" fill="#FFFFFF" d="M32.346,20.627l-0.9-1.074l-2.144,1.802l0.9,1.074L32.346,20.627z"
	/>
<path fill-rule="evenodd" clip-rule="evenodd" fill="#FFFFFF" d="M30.621,40.374l0.9,1.074l2.144-1.802l-0.9-1.074L30.621,40.374z"
	/>
<path fill-rule="evenodd" clip-rule="evenodd" fill="#FFFFFF" d="M34.909,36.77l0.9,1.074l2.144-1.802l-0.9-1.074L34.909,36.77z"/>
<path fill-rule="evenodd" clip-rule="evenodd" fill="#FFFFFF" d="M28.057,24.231l-0.9-1.074l-2.144,1.802l0.9,1.074L28.057,24.231z"
	/>
<path fill-rule="evenodd" clip-rule="evenodd" fill="#FFFFFF" d="M26.868,43.528c-0.296,0.249-0.738,0.21-0.986-0.086l-1.349-1.611
	l-1.072,0.901l1.799,2.147c0.497,0.593,1.38,0.67,1.972,0.173l2.144-1.802l-0.9-1.074L26.868,43.528z"/>
<path fill-rule="evenodd" clip-rule="evenodd" fill="#FFFFFF" d="M46.703,26.859l-1.799-2.147l-1.072,0.901l1.35,1.611
	c0.248,0.296,0.21,0.739-0.086,0.987l-1.608,1.351l0.9,1.074l2.144-1.802C47.123,28.337,47.2,27.452,46.703,26.859z"/>
<path fill-rule="evenodd" clip-rule="evenodd" fill="#FFFFFF" d="M37.707,16.122c-0.497-0.593-1.38-0.67-1.972-0.173l-2.144,1.802
	l0.9,1.074l1.608-1.351c0.296-0.249,0.737-0.21,0.986,0.086l1.349,1.611l1.072-0.901L37.707,16.122z"/>
<path fill-rule="evenodd" clip-rule="evenodd" fill="#FFFFFF" d="M39.198,33.167l0.9,1.074l2.144-1.802l-0.9-1.074L39.198,33.167z"
	/>
<path fill-rule="evenodd" clip-rule="evenodd" fill="#FFFFFF" d="M40.233,21.318l1.799,2.148l1.072-0.901l-1.799-2.147
	L40.233,21.318z"/>
<path fill-rule="evenodd" clip-rule="evenodd" fill="#FFFFFF" d="M25.217,27.514l-0.64,4.131c0.888,0.094,1.748,0.152,2.511,0.151
	c3.948-0.005,4.825-4.055,4.825-4.055L25.217,27.514z"/>
<path fill-rule="evenodd" clip-rule="evenodd" fill="#FFFFFF" d="M17.403,26.779c-1.242-1.482-3.449-1.676-4.93-0.432
	c-1.48,1.244-1.673,3.454-0.431,4.937c1.242,1.483,3.449,1.676,4.93,0.432S18.645,28.262,17.403,26.779z M15.622,30.106
	c-0.592,0.498-1.475,0.42-1.972-0.173c-0.497-0.593-0.42-1.477,0.172-1.975c0.592-0.498,1.475-0.42,1.972,0.173
	C16.292,28.724,16.214,29.608,15.622,30.106z"/>
<path fill-rule="evenodd" clip-rule="evenodd" fill="#FFFFFF" d="M22.801,33.222c-0.124-0.148-0.264-0.273-0.405-0.395l2.149-13.879
	c0,0-4.091,0.213-4.825,4.055c-0.531,2.778-0.51,6.972-0.457,9.087c-0.496,0.125-0.973,0.349-1.391,0.701
	c-1.48,1.244-1.673,3.454-0.431,4.937c1.242,1.483,3.449,1.676,4.93,0.432C23.85,36.915,24.043,34.705,22.801,33.222z M21.02,36.548
	c-0.592,0.498-1.475,0.42-1.972-0.173c-0.497-0.593-0.42-1.477,0.173-1.975c0.592-0.498,1.475-0.42,1.972,0.173
	C21.69,35.167,21.612,36.051,21.02,36.548z"/>
</svg>
