<?xml version="1.0" encoding="utf-8"?>
<!-- Generator: Adobe Illustrator 17.0.0, SVG Export Plug-In . SVG Version: 6.00 Build 0)  -->
<!DOCTYPE svg PUBLIC "-//W3C//DTD SVG 1.1//EN" "http://www.w3.org/Graphics/SVG/1.1/DTD/svg11.dtd">
<svg version="1.1" id="Livello_1" xmlns="http://www.w3.org/2000/svg" xmlns:xlink="http://www.w3.org/1999/xlink" x="0px" y="0px"
	 width="214.894px" height="205.76px" viewBox="0 0 214.894 205.76" enable-background="new 0 0 214.894 205.76"
	 xml:space="preserve">
<g>
	<path fill="#0050a0" d="M78.056,132.35c13.486,0,24.295-8.524,28.929-20.535H49.129C53.76,123.826,64.563,132.35,78.056,132.35z"/>
	<path fill="#0050a0" d="M147.117,92.712c5.601-11.034,2.442-23.814,2.442-23.814l4.003-1.602V56.084c0,0-4.911-3.704-15.521-6.075
		c-3.124-5.425-6.926-10.4-11.314-14.778c-2.177-5.951-8.197-19.252-21.361-29.966c-1.867-1.524-4.598-1.211-6.1,0.683
		c-1.5,1.892-1.204,4.663,0.664,6.185c3.327,2.702,6.111,5.625,8.471,8.52c-8.809-7.886-20.877-16.66-33.41-19.541
		c-1.616-0.38-3.298,0.222-4.339,1.528c-1.039,1.31-1.253,3.104-0.553,4.623l3.082,6.708c-4.206-1.265-9.227-2.333-14.122-2.333
		c-3.841,0-7.264,0.662-10.171,1.962c-10.116,4.537-16.514,11.832-17.993,20.168c-5.021,4.716-9.345,10.179-12.82,16.208
		C7.875,52.347,3.14,55.909,3.14,55.909v11.2l4,1.6c0,0-2.874,11.621,1.723,22.26c2.795,36.282,32.692,64.847,69.193,64.847
		C113.967,155.817,143.516,128.165,147.117,92.712z M57.951,40.204c0.719-2.112,2.914-8.522,17.442-8.522
		c15.724,0,35.634,7.563,40.613,9.557c2.387,2.111,4.596,4.421,6.617,6.895c-0.877-0.03-1.767-0.052-2.684-0.059
		c-20.08-0.144-26.976,5.944-28.476,7.596c-8.271-4.178-18.062-4.298-26.41-0.33c-0.609-0.635-1.85-1.728-4.002-2.885
		c0.531-0.691,0.874-1.536,0.921-2.465c0.108-2.142-1.32-4.052-3.386-4.52c-0.006,0-0.647-0.271-0.954-0.83
		C57.162,43.791,57.28,42.172,57.951,40.204z M109.54,57.509c0,0-6.435,7.884-9.652,15.726c-3.182,7.758-3.148,15.474-3.148,15.474
		s-2.744,0.755-4-16S109.54,57.509,109.54,57.509z M33.934,47.552c0.119,0.139,0.249,0.271,0.373,0.406
		c-0.243,0.008-0.481,0.019-0.721,0.028C33.703,47.843,33.815,47.694,33.934,47.552z M16.74,88.709c0,0-2.744,0.755-4-16
		s16.8-15.2,16.8-15.2s-6.435,7.884-9.652,15.726C16.706,80.993,16.74,88.709,16.74,88.709z M78.056,144.079
		c-25.137,0-46.571-16.346-54.536-39.1c3.439,1.412,7.535,2.44,12.419,2.93c37.576,3.762,34.4-41.6,34.4-41.6l-2.075-4.496
		c6.349-2.979,13.782-2.847,20.047,0.361l-1.994,4.322c0,0-3.178,45.413,34.422,41.646c4.537-0.454,8.393-1.374,11.676-2.634
		C124.308,127.99,103,144.079,78.056,144.079z"/>
	<path fill="#0050a0" d="M172.444,150.07h-14.902c-17.292,0-31.309,14.017-31.309,31.309v1c0,8.069,6.541,14.611,14.611,14.611
		h48.298c8.069,0,14.611-6.542,14.611-14.611v-1C203.754,164.087,189.736,150.07,172.444,150.07z"/>
	<path fill="#0050a0" d="M154.224,131.195l-4.396,7.614c-7.646,1.957-14.164,6.727-18.386,13.145l0.003,0.003
		c-0.218,0.3-0.348,0.663-0.348,1.058c0,1.02,0.857,1.846,1.913,1.846c0.616,0,1.158-0.286,1.508-0.722
		c5.559-5.059,12.939-8.149,21.048-8.149h18.982c8.101,0,15.475,3.085,21.032,8.135c0.349,0.444,0.897,0.736,1.52,0.736
		c1.057,0,1.913-0.827,1.913-1.846c0-0.393-0.13-0.756-0.347-1.056l0.005-0.005c-4.249-6.458-10.823-11.244-18.53-13.178
		l-4.377-7.581c0.915-1.07,1.47-2.455,1.47-3.973c0-3.38-2.74-6.12-6.12-6.12c-3.38,0-6.12,2.74-6.12,6.12
		c0,3.38,2.74,6.12,6.12,6.12c0.382,0,0.754-0.04,1.116-0.107l2.712,4.698c-0.805-0.062-1.615-0.104-2.435-0.104h-14.902
		c-0.866,0-1.72,0.047-2.568,0.116l2.72-4.711c0.362,0.067,0.735,0.107,1.116,0.107c3.38,0,6.12-2.74,6.12-6.12
		s-2.74-6.12-6.12-6.12c-3.38,0-6.12,2.74-6.12,6.12C152.754,128.74,153.309,130.126,154.224,131.195z"/>
</g>
</svg>
