<?xml version="1.0" encoding="utf-8"?>
<!-- Generator: Adobe Illustrator 17.0.0, SVG Export Plug-In . SVG Version: 6.00 Build 0)  -->
<!DOCTYPE svg PUBLIC "-//W3C//DTD SVG 1.1//EN" "http://www.w3.org/Graphics/SVG/1.1/DTD/svg11.dtd">
<svg version="1.1" id="Livello_1" xmlns="http://www.w3.org/2000/svg" xmlns:xlink="http://www.w3.org/1999/xlink" x="0px" y="0px"
	 width="60px" height="60px" viewBox="0 0 60 60" enable-background="new 0 0 60 60" xml:space="preserve">
<path fill-rule="evenodd" clip-rule="evenodd" fill="#0050A0" d="M30,0C13.432,0,0,13.432,0,30s13.432,30,30,30s30-13.432,30-30
	S46.568,0,30,0z M30,58C14.536,58,2,45.464,2,30S14.536,2,30,2s28,12.536,28,28S45.464,58,30,58z"/>
<path fill="#0050A0" d="M47.925,27.341l-0.573-0.274l0.401-0.493c0.622-0.764,0.965-1.731,0.965-2.723
	c0-2.35-1.865-4.261-4.158-4.261c-2.292,0-4.157,1.912-4.157,4.261c0,0.993,0.343,1.96,0.964,2.723l0.4,0.492l-0.571,0.274
	c-0.848,0.406-1.632,0.99-2.333,1.735l-0.327,0.348l-0.362-0.311c-1.155-0.99-2.439-1.753-3.817-2.269l-0.777-0.291l0.62-0.551
	c1.416-1.259,2.229-3.077,2.229-4.986c0-3.643-2.895-6.607-6.453-6.607s-6.453,2.964-6.453,6.607c0,1.909,0.812,3.727,2.229,4.986
	l0.62,0.551l-0.777,0.291c-1.377,0.515-2.662,1.278-3.818,2.269l-0.362,0.31l-0.327-0.347c-0.702-0.744-1.487-1.328-2.334-1.735
	l-0.571-0.274l0.4-0.492c0.622-0.765,0.964-1.732,0.964-2.724c0-2.35-1.865-4.261-4.158-4.261c-2.293,0-4.158,1.912-4.158,4.261
	c0,0.992,0.343,1.958,0.965,2.724l0.4,0.492l-0.572,0.274c-2.786,1.336-4.585,4.227-4.585,7.364c0,0.356,0.029,0.726,0.09,1.162
	l-0.08,0.038l0.066,0.114l0.036-0.005l0.048,0.151c0.12,0.275,0.386,0.454,0.678,0.454c0.417,0,0.728-0.346,0.74-0.825
	c-0.005-0.003-0.09-0.718-0.09-1.09c0-3.636,2.898-6.593,6.461-6.593c1.787,0,3.452,0.735,4.688,2.069l0.293,0.316L20.1,30.833
	c-1.869,2.326-2.898,5.263-2.898,8.271c0,0.446,0.029,0.911,0.091,1.438h0.046l0.022,0.485c0.012,0.434,0.346,0.772,0.76,0.772
	c0.414,0,0.749-0.34,0.763-0.774l-0.058-0.48c-0.027-0.213-0.046-0.441-0.061-0.67c-0.021-0.273-0.037-0.555-0.037-0.771
	c0-0.356,0.021-0.709,0.052-1.057l0.031-0.281c0.033-0.283,0.07-0.529,0.115-0.774l0.062-0.326c0.062-0.29,0.133-0.575,0.216-0.856
	l0.036-0.137c0.097-0.313,0.208-0.619,0.33-0.919l0.107-0.251c0.122-0.278,0.213-0.475,0.312-0.667
	c0.055-0.11,0.114-0.226,0.176-0.338c0.115-0.209,0.238-0.414,0.365-0.615c0.566-0.896,1.256-1.709,2.052-2.419
	c0.231-0.207,0.471-0.4,0.718-0.587l0.085-0.064c0.227-0.168,0.462-0.327,0.703-0.479l0.168-0.104
	c0.22-0.134,0.447-0.261,0.68-0.381l0.26-0.128c0.213-0.102,0.427-0.2,0.648-0.289c0.088-0.037,0.182-0.071,0.276-0.104
	c0.28-0.102,0.479-0.174,0.684-0.236c0.134-0.04,0.271-0.074,0.407-0.108l0.182-0.046c0.14-0.036,0.281-0.072,0.424-0.1
	c0.18-0.036,0.363-0.062,0.548-0.087l0.22-0.032c0.095-0.015,0.19-0.03,0.287-0.04c0.364-0.036,0.73-0.057,1.101-0.057
	s0.736,0.021,1.098,0.056c0.098,0.009,0.194,0.024,0.29,0.04l0.135,0.021c0.254,0.035,0.444,0.062,0.633,0.099
	c0.146,0.028,0.289,0.065,0.432,0.102l0.106,0.027c0.197,0.049,0.338,0.083,0.475,0.125c0.2,0.06,0.396,0.13,0.593,0.202
	c0.172,0.062,0.271,0.098,0.369,0.138c0.221,0.089,0.436,0.187,0.649,0.29l0.26,0.128c0.23,0.118,0.458,0.245,0.68,0.38l0.119,0.074
	c0.289,0.182,0.524,0.341,0.753,0.511l0.089,0.068c0.239,0.18,0.479,0.375,0.711,0.582c0.793,0.707,1.483,1.52,2.052,2.417
	c0.127,0.201,0.251,0.407,0.366,0.619c0.062,0.108,0.119,0.225,0.178,0.341c0.096,0.187,0.188,0.383,0.274,0.582
	c0.073,0.165,0.109,0.249,0.144,0.334c0.12,0.298,0.231,0.603,0.328,0.916l0.026,0.098c0.093,0.319,0.164,0.605,0.226,0.895
	l0.047,0.24c0.06,0.332,0.097,0.577,0.126,0.827c0.013,0.102,0.026,0.208,0.035,0.316c0.031,0.347,0.052,0.697,0.052,1.055
	c0,0.229-0.017,0.529-0.041,0.826c-0.013,0.187-0.027,0.376-0.05,0.564l-0.062,0.604c0.017,0.362,0.352,0.703,0.766,0.703
	s0.749-0.34,0.763-0.773l0.055-0.484c0.042-0.42,0.1-1.054,0.1-1.438c0-3.009-1.029-5.946-2.898-8.271l-0.271-0.337l0.294-0.316
	c1.236-1.334,2.901-2.069,4.688-2.069c3.563,0,6.462,2.958,6.462,6.593c0,0.277-0.051,0.797-0.082,1.116l-0.011,0.111
	c0.016,0.356,0.343,0.687,0.746,0.687c0.396,0,0.728-0.317,0.741-0.708c0.027-0.239,0.095-0.876,0.095-1.207
	C52.51,31.565,50.71,28.675,47.925,27.341z M15.386,26.567c-1.472,0-2.669-1.218-2.669-2.716s1.197-2.716,2.669-2.716
	c1.472,0,2.669,1.219,2.669,2.716C18.054,25.349,16.856,26.567,15.386,26.567z M29.973,26.037c-2.716,0-4.925-2.253-4.925-5.022
	s2.209-5.022,4.925-5.022c2.715,0,4.925,2.253,4.925,5.022C34.897,23.784,32.688,26.037,29.973,26.037z M44.559,26.567
	c-1.472,0-2.669-1.218-2.669-2.716s1.197-2.716,2.669-2.716s2.669,1.219,2.669,2.716S46.03,26.567,44.559,26.567z"/>
</svg>
