<?xml version="1.0" encoding="utf-8"?>
<!-- Generator: Adobe Illustrator 17.0.0, SVG Export Plug-In . SVG Version: 6.00 Build 0)  -->
<!DOCTYPE svg PUBLIC "-//W3C//DTD SVG 1.1//EN" "http://www.w3.org/Graphics/SVG/1.1/DTD/svg11.dtd">
<svg version="1.1" id="Livello_1" xmlns="http://www.w3.org/2000/svg" xmlns:xlink="http://www.w3.org/1999/xlink" x="0px" y="0px"
	 width="60px" height="60px" viewBox="0 0 60 60" enable-background="new 0 0 60 60" xml:space="preserve">
<path fill="#0050a0" d="M47.053,22.298c0.093-0.304,0.062-0.627-0.088-0.908c-0.3-0.561-1.05-0.79-1.611-0.492l-3.661,1.949
	c-0.28,0.15-0.486,0.4-0.579,0.704c-0.093,0.304-0.062,0.627,0.088,0.907c0.207,0.39,0.609,0.632,1.052,0.632
	c0.194,0,0.388-0.048,0.56-0.14l3.661-1.949C46.754,22.852,46.96,22.602,47.053,22.298z"/>
<path fill="#0050a0" d="M35.281,17.18c0.113,0.034,0.229,0.051,0.347,0.051c0.527,0,0.985-0.339,1.14-0.846l1.203-3.969
	c0.19-0.628-0.166-1.295-0.795-1.485c-0.622-0.188-1.297,0.177-1.485,0.794l-1.203,3.97C34.298,16.323,34.653,16.989,35.281,17.18z"
	/>
<path fill="#0050a0" d="M49.893,34.388c-0.147-0.277-0.395-0.482-0.695-0.573l-3.9-1.192c-0.615-0.19-1.286,0.17-1.476,0.781
	c-0.093,0.302-0.062,0.621,0.085,0.9c0.148,0.277,0.396,0.481,0.696,0.573l3.9,1.192c0.112,0.035,0.23,0.053,0.347,0.053
	c0.521,0,0.975-0.335,1.128-0.834C50.07,34.986,50.04,34.667,49.893,34.388z"/>
<path fill="#0050a0" d="M30,0C13.431,0,0,13.431,0,30c0,16.569,13.431,30,30,30c16.569,0,30-13.431,30-30C60,13.431,46.569,0,30,0z
	 M30,57C15.088,57,3,44.912,3,30C3,15.088,15.088,3,30,3s27,12.088,27,27C57,44.912,44.912,57,30,57z"/>
<path fill="#0050a0" d="M41.254,35.621l-24.179,4.325l-2.118-3.942L31.669,18.08c0.447-0.48,0.421-1.236-0.059-1.685
	c-0.463-0.431-1.252-0.405-1.684,0.059L12.004,35.721l3.966,6.844l4.778-0.854l0.196,1.098c0.24,1.34,1.4,2.312,2.759,2.312h0
	c0.164,0,0.33-0.014,0.497-0.044l5.677-1.015c1.524-0.273,2.54-1.735,2.268-3.257l-0.196-1.098l9.725-1.739
	c0.648-0.116,1.079-0.736,0.963-1.383C42.522,35.947,41.909,35.504,41.254,35.621z M29.235,41.393
	c-0.064,0.093-0.161,0.155-0.272,0.175l-4.843,0.859c-0.204,0-0.378-0.146-0.415-0.348l-0.156-0.87l5.599-1.002l0.156,0.87
	C29.324,41.189,29.299,41.301,29.235,41.393z"/>
<path fill="#0050a0" d="M10.893,37.048c-0.305-0.557-1.061-0.779-1.62-0.469c-0.575,0.318-0.785,1.044-0.468,1.619l3.115,5.657
	c0.21,0.381,0.61,0.617,1.045,0.617c0.2,0,0.399-0.051,0.574-0.148c0.575-0.316,0.786-1.043,0.469-1.619L10.893,37.048z"/>
</svg>
