<?xml version="1.0" encoding="utf-8"?>
<!-- Generator: Adobe Illustrator 17.0.0, SVG Export Plug-In . SVG Version: 6.00 Build 0)  -->
<!DOCTYPE svg PUBLIC "-//W3C//DTD SVG 1.1//EN" "http://www.w3.org/Graphics/SVG/1.1/DTD/svg11.dtd">
<svg version="1.1" id="Livello_1" xmlns="http://www.w3.org/2000/svg" xmlns:xlink="http://www.w3.org/1999/xlink" x="0px" y="0px"
	 width="60px" height="60px" viewBox="0 0 60 60" enable-background="new 0 0 60 60" xml:space="preserve">
<path fill-rule="evenodd" clip-rule="evenodd" fill="#0050A0" d="M30,0C13.432,0,0,13.432,0,30s13.432,30,30,30s30-13.432,30-30
	S46.568,0,30,0z M30,58C14.536,58,2,45.464,2,30S14.536,2,30,2s28,12.536,28,28S45.464,58,30,58z"/>
<path fill="#0050A0" d="M49.971,32.775c-0.034-0.137-3.384-13.66-4.003-16.014c-0.667-2.534-3.507-2.917-5.078-2.739
	c-0.549,0.061-0.944,0.555-0.883,1.104s0.557,0.949,1.104,0.883c0.022-0.002,2.526-0.246,2.922,1.261
	c0.505,1.918,2.842,11.33,3.689,14.746h-0.788C46.447,28.063,43.084,25,39,25c-4.079,0-7.438,3.055-7.931,7h-2.138
	c-0.493-3.945-3.852-7-7.931-7s-7.438,3.055-7.931,7h-0.791c0.847-3.416,3.184-12.828,3.689-14.746
	c0.396-1.506,2.9-1.263,2.922-1.261c0.547,0.065,1.043-0.334,1.104-0.883s-0.334-1.043-0.883-1.104
	c-1.57-0.178-4.411,0.206-5.078,2.739c-0.62,2.354-3.97,15.877-4.003,16.014c-0.074,0.298-0.006,0.614,0.183,0.856S10.692,34,11,34
	h2.069c0.493,3.945,3.852,7,7.931,7s7.438-3.055,7.931-7h2.138c0.493,3.945,3.852,7,7.931,7c4.073,0,7.428-3.047,7.929-6.984H49
	c0.308,0,0.598-0.142,0.788-0.384S50.044,33.074,49.971,32.775z M21,39c-3.314,0-6-2.686-6-6s2.686-6,6-6s6,2.686,6,6
	S24.314,39,21,39z M39,39c-3.314,0-6-2.686-6-6s2.686-6,6-6s6,2.686,6,6S42.314,39,39,39z"/>
</svg>
