<?xml version="1.0" encoding="utf-8"?>
<!-- Generator: Adobe Illustrator 17.0.0, SVG Export Plug-In . SVG Version: 6.00 Build 0)  -->
<!DOCTYPE svg PUBLIC "-//W3C//DTD SVG 1.1//EN" "http://www.w3.org/Graphics/SVG/1.1/DTD/svg11.dtd">
<svg version="1.1" id="Livello_1" xmlns="http://www.w3.org/2000/svg" xmlns:xlink="http://www.w3.org/1999/xlink" x="0px" y="0px"
	 width="60px" height="60px" viewBox="0 0 60 60" enable-background="new 0 0 60 60" xml:space="preserve">
<path fill="#0050A0" d="M30,0C13.432,0,0,13.432,0,30s13.432,30,30,30s30-13.432,30-30S46.568,0,30,0z M30,58
	C14.536,58,2,45.464,2,30S14.536,2,30,2s28,12.536,28,28S45.464,58,30,58z"/>
<path fill="#0050A0" d="M45,15.706h-3.968c0.508-0.679,0.934-1.524,0.966-2.468c0.044-1.265-0.587-2.401-1.876-3.373
	c-0.906-0.685-1.953-0.921-3.073-0.695c-2.864,0.586-5.574,4.221-6.787,6.069c-1.341-2.047-4.428-6.153-7.598-6.153
	c-0.818,0-1.58,0.262-2.263,0.779c-1.29,0.972-1.921,2.107-1.877,3.372c0.032,0.945,0.459,1.789,0.966,2.468H15
	c-1.654,0-3,1.355-3,3.021v7.049c0,1.289,0.82,2.427,2,2.848v16.285c0,1.666,1.346,3.021,3,3.021h26c1.654,0,3-1.355,3-3.02V28.624
	c1.18-0.421,2-1.559,2-2.848v-7.049C48,17.061,46.654,15.706,45,15.706z M37.445,11.143c0.546-0.112,1.024-0.009,1.476,0.332
	c0.734,0.555,1.097,1.123,1.078,1.69c-0.037,1.102-1.316,2.175-1.797,2.54h-5.828C33.458,14.168,35.559,11.528,37.445,11.143z
	 M21.6,11.476c0.339-0.256,0.677-0.376,1.063-0.376c1.677,0,3.894,2.332,5.494,4.605H22.32c-0.482-0.367-1.76-1.441-1.797-2.54
	C20.504,12.599,20.867,12.031,21.6,11.476z M24,45.915h-7c-0.551,0-1-0.452-1-1.007V28.796h8V45.915z M24,26.782h-9
	c-0.551,0-1-0.452-1-1.007v-7.049c0-0.555,0.449-1.007,1-1.007h9V26.782z M34,45.915h-8V17.719h8V45.915z M44,44.908
	c0,0.555-0.449,1.007-1,1.007h-7V28.796h8V44.908z M46,25.775c0,0.555-0.449,1.007-1,1.007h-9v-9.063h9c0.551,0,1,0.452,1,1.007
	V25.775z"/>
</svg>
