<?xml version="1.0" encoding="utf-8"?>
<!-- Generator: Adobe Illustrator 17.0.0, SVG Export Plug-In . SVG Version: 6.00 Build 0)  -->
<!DOCTYPE svg PUBLIC "-//W3C//DTD SVG 1.1//EN" "http://www.w3.org/Graphics/SVG/1.1/DTD/svg11.dtd">
<svg version="1.1" id="Livello_1" xmlns="http://www.w3.org/2000/svg" xmlns:xlink="http://www.w3.org/1999/xlink" x="0px" y="0px"
	 width="214.894px" height="205.76px" viewBox="0 0 214.894 205.76" enable-background="new 0 0 214.894 205.76"
	 xml:space="preserve">
<g>
	<path fill-rule="evenodd" clip-rule="evenodd" fill="#0050a0" d="M160.467,171.839c-0.739-0.542-1.649-0.728-2.73-0.557
		l-2.411,0.425l1.2,6.807l2.524-0.445c1.045-0.262,1.81-0.767,2.292-1.516c0.482-0.748,0.642-1.585,0.478-2.511
		C161.657,173.115,161.205,172.381,160.467,171.839z"/>
	<circle fill-rule="evenodd" clip-rule="evenodd" fill="#0050a0" cx="165.796" cy="122.127" r="7.2"/>
	<path fill-rule="evenodd" clip-rule="evenodd" fill="#0050a0" d="M134.22,157.828l7.483-1.32l21.689-25.098
		c-1.633-0.422-3.099-1.256-4.273-2.395L134.22,157.828z"/>
	<path fill-rule="evenodd" clip-rule="evenodd" fill="#0050a0" d="M143.643,175.609c-1.133-1.009-2.508-1.371-4.125-1.086
		c-1.617,0.285-2.785,1.096-3.505,2.431c-0.72,1.336-0.902,3.01-0.547,5.024c0.355,2.014,1.108,3.524,2.261,4.529
		c1.152,1.006,2.527,1.367,4.125,1.085c1.598-0.281,2.757-1.085,3.479-2.412c0.721-1.326,0.904-3.001,0.547-5.024
		C145.522,178.134,144.777,176.618,143.643,175.609z"/>
	<path fill-rule="evenodd" clip-rule="evenodd" fill="#0050a0" d="M210.84,183.286l-5.001-28.362
		c-0.691-3.916-4.425-6.531-8.341-5.84l-70.906,12.503c-3.916,0.691-6.531,4.425-5.84,8.341l5.001,28.363
		c0.69,3.916,4.425,6.531,8.341,5.84L205,191.627C208.916,190.937,211.531,187.202,210.84,183.286z M148.509,187.033
		c-1.319,2.085-3.349,3.369-6.091,3.852c-2.742,0.483-5.094-0.028-7.055-1.534c-1.962-1.506-3.203-3.739-3.725-6.698
		c-0.522-2.959-0.123-5.481,1.196-7.566c1.318-2.084,3.358-3.37,6.119-3.857c2.761-0.487,5.111,0.02,7.053,1.52
		c1.941,1.5,3.173,3.735,3.697,6.703C150.226,182.422,149.828,184.949,148.509,187.033z M164.264,178.363
		c-1.131,1.379-2.709,2.247-4.732,2.604l-2.496,0.44l1.145,6.495l-3.574,0.63l-3.371-19.116l5.985-1.055
		c2.155-0.38,3.984-0.098,5.486,0.846c1.502,0.944,2.42,2.362,2.753,4.252C165.794,175.349,165.395,176.984,164.264,178.363z
		 M170.377,185.751l-3.371-19.116l11.288-1.99l0.515,2.921l-7.686,1.355l0.915,5.19l6.835-1.205l0.51,2.893l-6.835,1.205l0.915,5.19
		l7.8-1.375l0.515,2.921L170.377,185.751z M196.839,181.085l-6.052-7.121c-1.915-2.236-3.51-4.313-4.784-6.234
		c0.525,1.76,1.031,4.02,1.517,6.78l1.405,7.97l-3.574,0.63l-3.371-19.116l4.056-0.715c5.041,6.032,7.944,9.537,8.711,10.513
		c0.767,0.976,1.441,1.9,2.024,2.772c-0.428-1.543-0.9-3.779-1.417-6.71l-1.405-7.97l3.602-0.635l3.371,19.116L196.839,181.085z"/>
	<path fill-rule="evenodd" clip-rule="evenodd" fill="#0050a0" d="M77.259,132.871c13.486,0,24.295-8.524,28.929-20.535H48.331
		C52.963,124.346,63.766,132.871,77.259,132.871z"/>
	<path fill-rule="evenodd" clip-rule="evenodd" fill="#0050a0" d="M145.426,99.295c3.305-0.983,5.717-4.041,5.717-7.665v-24
		c0-4.418-3.582-8-8-8h-1.495c-3.6-9.037-8.978-17.154-15.719-23.877c-2.177-5.951-8.197-19.252-21.362-29.966
		c-1.866-1.524-4.598-1.211-6.1,0.683c-1.5,1.892-1.204,4.663,0.664,6.185c3.327,2.702,6.11,5.625,8.471,8.52
		C98.794,13.288,86.727,4.514,74.193,1.632c-1.615-0.38-3.298,0.222-4.339,1.528c-1.039,1.31-1.253,3.104-0.553,4.623l3.082,6.708
		c-4.206-1.265-9.227-2.333-14.122-2.333c-3.841,0-7.264,0.662-10.171,1.962c-10.116,4.537-16.514,11.832-17.993,20.168
		c-7.45,6.997-13.368,15.637-17.231,25.341h-0.923c-4.418,0-8,3.582-8,8v24c0,3.4,2.124,6.297,5.115,7.455
		c6.075,32.594,34.288,57.252,68.201,57.252C111.094,156.337,139.268,131.785,145.426,99.295z M142.343,64.43c2.209,0,4,1.791,4,4
		v22.4c0,2.209-1.791,4-4,4h-44.8c-2.209,0-4-1.791-4-4v-22.4c0-2.209,1.791-4,4-4H142.343z M33.136,48.072
		c3.735,4.392,10.458,6.813,19.568,6.813c2.676,0,4.563-0.223,4.645-0.234c2.098-0.247,3.717-1.996,3.825-4.14
		c0.108-2.142-1.32-4.052-3.386-4.519c-0.006,0-0.647-0.271-0.954-0.83c-0.47-0.851-0.352-2.47,0.32-4.438
		c0.719-2.112,2.914-8.522,17.442-8.522c15.724,0,35.634,7.563,40.613,9.557c5.633,4.982,10.3,11.051,13.706,17.87H96.743
		c-4.418,0-8,3.582-8,8v2.732c-6.858-4.089-15.542-4.088-22.4,0V67.63c0-4.418-3.582-8-8-8H25.585
		C27.657,55.474,30.19,51.593,33.136,48.072z M8.743,90.83v-22.4c0-2.209,1.791-4,4-4h44.8c2.209,0,4,1.791,4,4v22.4
		c0,2.209-1.791,4-4,4h-44.8C10.533,94.83,8.743,93.039,8.743,90.83z M77.259,144.6c-27.25,0-50.147-19.21-56.249-44.97h37.333
		c4.418,0,8-3.582,8-8V75.773c6.573-4.986,15.827-4.986,22.4,0V91.63c0,4.418,3.582,8,8,8h36.765
		C127.407,125.393,104.51,144.6,77.259,144.6z"/>
	<circle fill-rule="evenodd" clip-rule="evenodd" fill="#0050a0" cx="50.569" cy="75.965" r="7.301"/>
	<circle fill-rule="evenodd" clip-rule="evenodd" fill="#0050a0" cx="104.169" cy="75.965" r="7.301"/>
	<path fill-rule="evenodd" clip-rule="evenodd" fill="#0050a0" d="M169.124,131.122l17.845,17.406l5.821-1.026l-19.665-19.181
		C172.066,129.572,170.69,130.542,169.124,131.122z"/>
</g>
</svg>
