<?xml version="1.0" encoding="utf-8"?>
<!-- Generator: Adobe Illustrator 17.0.0, SVG Export Plug-In . SVG Version: 6.00 Build 0)  -->
<!DOCTYPE svg PUBLIC "-//W3C//DTD SVG 1.1//EN" "http://www.w3.org/Graphics/SVG/1.1/DTD/svg11.dtd">
<svg version="1.1" id="Livello_1" xmlns="http://www.w3.org/2000/svg" xmlns:xlink="http://www.w3.org/1999/xlink" x="0px" y="0px"
	 width="60px" height="60px" viewBox="0 0 60 60" enable-background="new 0 0 60 60" xml:space="preserve">
<g>
	<path fill-rule="evenodd" clip-rule="evenodd" fill="#0050A0" d="M30,0C13.432,0,0,13.432,0,30s13.432,30,30,30s30-13.432,30-30
		S46.568,0,30,0z M30,58C14.536,58,2,45.464,2,30S14.536,2,30,2s28,12.536,28,28S45.464,58,30,58z"/>
	<path fill-rule="evenodd" clip-rule="evenodd" fill="#0050A0" d="M41.012,42.081v0.934c0,0.553-0.448,1.001-1.001,1.001H19.989
		c-0.553,0-1.001-0.448-1.001-1.001V16.986c0-0.553,0.448-1.001,1.001-1.001h20.022c0.553,0,1.001,0.448,1.001,1.001v2.132
		l0.8-0.806c0.098-0.099,0.211-0.174,0.332-0.225c0.224-0.158,0.529-0.328,0.87-0.487v-0.613c0-1.659-1.345-3.003-3.003-3.003
		H19.989c-1.659,0-3.003,1.345-3.003,3.003v26.029c0,1.659,1.345,3.003,3.003,3.003h20.022c1.659,0,3.003-1.345,3.003-3.003v-2.719
		l-1.495,1.507C41.38,41.943,41.204,42.037,41.012,42.081z"/>
	<path fill-rule="evenodd" clip-rule="evenodd" fill="#0050A0" d="M37.008,21.991c0-0.553-0.448-1.001-1.001-1.001H23.993
		c-0.553,0-1.001,0.448-1.001,1.001c0,0.553,0.448,1.001,1.001,1.001h12.013C36.559,22.992,37.008,22.544,37.008,21.991z"/>
	<path fill-rule="evenodd" clip-rule="evenodd" fill="#0050A0" d="M22.992,34.004c0,0.553,0.448,1.001,1.001,1.001h4.864
		l0.397-2.002h-5.262C23.441,33.003,22.992,33.452,22.992,34.004z"/>
	<path fill-rule="evenodd" clip-rule="evenodd" fill="#0050A0" d="M49.464,22.209c-1.358-1.39-2.819-2.094-4.343-2.094
		c-1.336,0-2.378,0.554-2.977,0.974c-0.121,0.051-0.234,0.126-0.332,0.225l-8.82,8.89c-0.146,0.146-0.244,0.333-0.284,0.536
		l-1.764,8.891c-0.068,0.344,0.039,0.699,0.284,0.947c0.197,0.199,0.463,0.307,0.736,0.307c0.068,0,0.136-0.007,0.204-0.02
		l8.82-1.778c0.201-0.04,0.386-0.141,0.531-0.287l8.821-8.89c0.09-0.091,0.16-0.198,0.209-0.315
		C51.805,27.785,52.149,24.956,49.464,22.209z M42.161,23.93l1.095,1.103l-6.622,6.646c-0.52-0.362-0.98-0.612-1.376-0.791
		L42.161,23.93z M43.991,25.774l1.91,1.925l-6.512,6.536c-0.256-0.305-0.544-0.623-0.873-0.954
		c-0.365-0.367-0.714-0.684-1.047-0.961L43.991,25.774z M33.29,38.499l1.337-6.739c0.709,0.284,1.795,0.896,3.154,2.263
		c1.325,1.333,1.934,2.406,2.225,3.121L33.29,38.499z M40.863,36.495c-0.188-0.41-0.454-0.888-0.831-1.424l6.605-6.629l1.108,1.117
		L40.863,36.495z M48.758,28.509c-0.023,0.03-0.043,0.06-0.061,0.091l-0.216,0.218l-5.585-5.629l0.216-0.219
		c0.032-0.02,0.062-0.04,0.092-0.063c0.332-0.259,1.024-0.694,1.917-0.694c0.946,0,1.908,0.494,2.86,1.469
		C50.159,25.909,49.402,27.662,48.758,28.509z"/>
	<path fill-rule="evenodd" clip-rule="evenodd" fill="#0050A0" d="M33.171,26.997h-9.178c-0.553,0-1.001,0.448-1.001,1.001
		c0,0.553,0.448,1.001,1.001,1.001h7.191L33.171,26.997z"/>
</g>
</svg>
