<?xml version="1.0" encoding="utf-8"?>
<!-- Generator: Adobe Illustrator 17.0.0, SVG Export Plug-In . SVG Version: 6.00 Build 0)  -->
<!DOCTYPE svg PUBLIC "-//W3C//DTD SVG 1.1//EN" "http://www.w3.org/Graphics/SVG/1.1/DTD/svg11.dtd">
<svg version="1.1" id="Livello_1" xmlns="http://www.w3.org/2000/svg" xmlns:xlink="http://www.w3.org/1999/xlink" x="0px" y="0px"
	 width="60px" height="60px" viewBox="0 0 60 60" enable-background="new 0 0 60 60" xml:space="preserve">
<g>
	<path fill="#0050A0" d="M30,0C13.432,0,0,13.432,0,30s13.432,30,30,30s30-13.432,30-30S46.568,0,30,0z M30,58
		C14.536,58,2,45.464,2,30S14.536,2,30,2s28,12.536,28,28S45.464,58,30,58z"/>
	<path fill="#0050A0" d="M53.391,20.085c-0.333-0.219-0.779-0.127-0.998,0.205c-0.753,1.141-1.399,1.913-1.942,2.43
		c-0.249-0.793-0.697-1.408-1.27-1.663c-0.854-0.379-1.481-0.246-1.856-0.067c-0.76,0.361-1.068,1.137-1.185,1.566
		c-0.163,0.602,0.413,1.905,1.514,2.401c0.469,0.211,0.957,0.269,1.464,0.177c-0.206,0.855-0.793,1.924-2.267,2.633
		c-0.634-4.793-3.28-8.951-7.053-11.624c0.366-0.777,0.576-1.638,0.576-2.542c0-3.331-2.71-6.04-6.042-6.04
		c-3.165,0-5.765,2.446-6.017,5.546c-0.187,0.02-0.367,0.034-0.562,0.06c-1.775-1.278-4.239-2.667-6.129-2.417
		c-0.536,0.072-1.013,0.397-1.278,0.872c-0.261,0.473-0.284,1.05-0.061,1.544c0.271,0.597,0.325,1.622,0.152,2.793
		c-3.197,2.18-5.538,5.355-6.669,9.042H12c-0.022,0-0.041,0.011-0.063,0.013C11.904,25.009,11.871,25,11.838,25
		c-1.315,0-2.381,2.683-2.381,5.993s1.066,5.993,2.381,5.993c0.019,0,0.038-0.006,0.058-0.007C11.931,36.983,11.963,37,12,37h2.515
		c1.034,2.283,2.571,4.322,4.485,5.95V47c0,0.552,0.448,1,1,1h9c0.552,0,1-0.448,1-1c0.324,0,0.653-0.011,1-0.035V47
		c0,0.552,0.448,1,1,1h9c0.552,0,1-0.448,1-1v-4.979c3.228-3.216,5-7.468,5-12.021c0-0.238-0.014-0.473-0.024-0.709
		c3.029-1.18,3.585-3.578,3.673-4.629c0.007-0.081,0.012-0.162,0.015-0.243c0.928-0.67,1.907-1.784,2.932-3.337
		C53.815,20.75,53.723,20.304,53.391,20.085z M34.332,9.56c2.229,0,4.042,1.812,4.042,4.04c0,1.878-1.326,3.481-3.107,3.909
		c-1.176-0.484-2.41-0.813-3.682-0.983c-0.808-0.759-1.295-1.805-1.295-2.925C30.289,11.373,32.103,9.56,34.332,9.56z
		 M40.312,40.873C40.113,41.062,40,41.324,40,41.599V46h-7v-0.138c0-0.287-0.123-0.56-0.338-0.75
		c-0.214-0.19-0.498-0.279-0.786-0.243c-1.006,0.126-1.782,0.152-2.571,0.098l-0.244-0.016c-0.273-0.019-0.545,0.081-0.747,0.27
		S28,45.674,28,45.95V46h-7v-3.521c0-0.303-0.138-0.59-0.374-0.78c-2.001-1.604-3.565-3.705-4.525-6.074
		C15.948,35.247,15.581,35,15.174,35h-1.569c0.38-1.062,0.614-2.464,0.614-4.007c0-1.536-0.232-2.932-0.609-3.993h0.915
		c0.456,0,0.854-0.309,0.968-0.75c0.944-3.66,3.217-6.806,6.4-8.857c0.231-0.149,0.391-0.386,0.441-0.657
		c0.176-0.941,0.379-2.642-0.078-4.013c1.086,0.069,2.763,0.896,4.639,2.295c0.216,0.161,0.486,0.229,0.754,0.186
		c0.293-0.046,0.561-0.073,0.833-0.104c0.116,0.452,0.282,0.888,0.497,1.299c-0.52,0.019-1.039,0.056-1.55,0.128
		c-0.666,0.095-1.13,0.714-1.037,1.379c0.093,0.656,0.727,1.132,1.379,1.037c0.587-0.083,1.185-0.125,1.778-0.125
		c2.818,0,5.484,0.91,7.71,2.631c0.215,0.167,0.474,0.255,0.746,0.255c0.381,0,0.733-0.173,0.965-0.473
		c0.2-0.257,0.287-0.578,0.246-0.901c-0.041-0.324-0.206-0.612-0.464-0.811c-0.387-0.299-0.788-0.572-1.196-0.829
		c0.406-0.259,0.777-0.565,1.11-0.91C42.493,20.501,45,24.959,45,30C45,34.144,43.335,38.005,40.312,40.873z M48.418,23.701
		c-0.513-0.116-0.793-0.654-0.857-0.868c0.075-0.223,0.207-0.459,0.383-0.543c0.185-0.088,0.457-0.004,0.652,0.083
		c0.186,0.083,0.47,0.546,0.583,1.232C48.824,23.745,48.572,23.737,48.418,23.701z"/>
	<path fill="#0050A0" d="M25.957,26.14c-0.398,0-0.72,0.322-0.72,0.72c0,1.305-1.058,2.367-2.359,2.367
		c-1.301,0-2.359-1.062-2.359-2.367c0-0.398-0.323-0.72-0.72-0.72c-0.398,0-0.72,0.322-0.72,0.72c0,2.099,1.705,3.807,3.8,3.807
		s3.8-1.708,3.8-3.807C26.678,26.462,26.355,26.14,25.957,26.14z"/>
</g>
</svg>
