<?xml version="1.0" encoding="utf-8"?>
<!-- Generator: Adobe Illustrator 17.0.0, SVG Export Plug-In . SVG Version: 6.00 Build 0)  -->
<!DOCTYPE svg PUBLIC "-//W3C//DTD SVG 1.1//EN" "http://www.w3.org/Graphics/SVG/1.1/DTD/svg11.dtd">
<svg version="1.1" id="Livello_1" xmlns="http://www.w3.org/2000/svg" xmlns:xlink="http://www.w3.org/1999/xlink" x="0px" y="0px"
	 width="60px" height="60px" viewBox="0 0 60 60" enable-background="new 0 0 60 60" xml:space="preserve">
<path fill-rule="evenodd" clip-rule="evenodd" fill="#0050A0" d="M30,0C13.432,0,0,13.432,0,30s13.432,30,30,30s30-13.432,30-30
	S46.568,0,30,0z M30,58C14.536,58,2,45.464,2,30S14.536,2,30,2s28,12.536,28,28S45.464,58,30,58z"/>
<path fill-rule="evenodd" clip-rule="evenodd" fill="#0050A0" d="M19.091,31.097l2.162,1.582l-0.257-1.096l6.993,0.187
	c0.072,0.819,0.577,1.574,1.383,1.927c1.176,0.515,2.547-0.021,3.062-1.197c0.515-1.177-0.021-2.548-1.197-3.063
	c-0.077-0.034-0.154-0.062-0.232-0.087l0.749-4.764l0.817,0.358l-1.047-2.68l-1.315,2.28l0.972-0.049l-0.747,4.754
	c-0.941-0.052-1.857,0.473-2.257,1.387c-0.08,0.181-0.131,0.368-0.162,0.555l-6.978-0.187l0.468-1.07L19.091,31.097z"/>
<g>
	<path fill-rule="evenodd" clip-rule="evenodd" fill="#0050A0" d="M41.136,15.073c-1.006,0-1.938,0.325-2.702,0.877
		c2.742,1.406,5.11,3.541,6.784,6.255c0.383-0.694,0.602-1.494,0.602-2.347C45.82,17.216,43.723,15.073,41.136,15.073z"/>
	<path fill-rule="evenodd" clip-rule="evenodd" fill="#0050A0" d="M13.49,21.113c0,1.122,0.379,2.153,1.012,2.969
		c1.297-2.822,3.348-5.304,6.004-7.12c-0.687-0.404-1.482-0.635-2.331-0.635C15.587,16.327,13.49,18.47,13.49,21.113z"/>
</g>
<path fill-rule="evenodd" clip-rule="evenodd" fill="#0050A0" d="M44.864,25.849c-2.312-6.29-8.265-10.179-14.639-10.232
	l-0.155-2.181c0.521-0.341,0.867-0.927,0.867-1.596c0-1.054-0.854-1.908-1.907-1.908s-1.907,0.854-1.907,1.908
	c0,0.765,0.453,1.421,1.103,1.725l0.153,2.147c-1.268,0.138-2.541,0.413-3.793,0.874c-8.208,3.02-12.438,12.064-9.447,20.2
	c0.785,2.135,1.996,3.986,3.493,5.514c-0.542,1.435-1.611,4.446-1.16,4.737c0.443,0.286,2.172-1.958,3.021-3.115
	c4.135,3.061,9.702,4.049,14.923,2.128c1.991-0.733,3.743-1.825,5.219-3.168c0.896,1.202,2.404,3.098,2.813,2.834
	c0.441-0.284-0.574-3.176-1.125-4.645C45.665,36.908,46.827,31.188,44.864,25.849z M34.615,43.867
	c-7.154,2.632-15.041-0.914-17.617-7.921c-2.575-7.006,1.136-14.82,8.29-17.452c7.154-2.632,15.041,0.914,17.617,7.92
	C45.48,33.421,41.769,41.235,34.615,43.867z"/>
</svg>
