<?xml version="1.0" encoding="utf-8"?>
<!-- Generator: Adobe Illustrator 17.0.0, SVG Export Plug-In . SVG Version: 6.00 Build 0)  -->
<!DOCTYPE svg PUBLIC "-//W3C//DTD SVG 1.1//EN" "http://www.w3.org/Graphics/SVG/1.1/DTD/svg11.dtd">
<svg version="1.1" id="Livello_1" xmlns="http://www.w3.org/2000/svg" xmlns:xlink="http://www.w3.org/1999/xlink" x="0px" y="0px"
	 width="22.909px" height="22.909px" viewBox="0 0 22.909 22.909" enable-background="new 0 0 22.909 22.909" xml:space="preserve">
<path fill="#FFFFFF" d="M22.617,20.502l-6.337-6.336c1.046-1.467,1.667-3.257,1.667-5.195C17.947,4.017,13.93,0,8.973,0
	S0,4.016,0,8.971c0,4.955,4.017,8.971,8.973,8.971c1.936,0,3.725-0.619,5.191-1.662l6.337,6.336c0.39,0.39,1.021,0.39,1.41,0
	l0.705-0.705C23.006,21.523,23.006,20.892,22.617,20.502z M2.991,8.972c0-3.303,2.678-5.981,5.982-5.981s5.982,2.678,5.982,5.981
	s-2.678,5.981-5.982,5.981S2.991,12.276,2.991,8.972z"/>
</svg>
