<?xml version="1.0" encoding="utf-8"?>
<!-- Generator: Adobe Illustrator 17.0.0, SVG Export Plug-In . SVG Version: 6.00 Build 0)  -->
<!DOCTYPE svg PUBLIC "-//W3C//DTD SVG 1.1//EN" "http://www.w3.org/Graphics/SVG/1.1/DTD/svg11.dtd">
<svg version="1.1" id="Livello_1" xmlns="http://www.w3.org/2000/svg" xmlns:xlink="http://www.w3.org/1999/xlink" x="0px" y="0px"
	 width="60px" height="60px" viewBox="0 0 60 60" enable-background="new 0 0 60 60" xml:space="preserve">
<path fill="#0050A0" d="M30,0C13.432,0,0,13.432,0,30s13.432,30,30,30s30-13.432,30-30S46.568,0,30,0z M30,58
	C14.536,58,2,45.464,2,30S14.536,2,30,2s28,12.536,28,28S45.464,58,30,58z"/>
<g>
	<path fill="#0050A0" d="M48.748,37.698l-14.016,0.354l-11.899,0.299c-0.001,0-0.002,0-0.002,0l-5.447,0.138l-2.178-6.013
		l24.823-20.02c0.43-0.347,0.498-0.979,0.151-1.412c-0.347-0.432-0.976-0.502-1.407-0.154l-25.38,20.47
		c-0.333,0.269-0.458,0.72-0.313,1.125l2.669,7.368c0.147,0.407,0.537,0.674,0.967,0.663l5.17-0.13l0.04,1.473
		c0.025,0.929,0.409,1.795,1.082,2.437c0.674,0.641,1.554,0.981,2.48,0.958l7.404-0.186c0.263-0.007,0.525-0.044,0.778-0.109
		c1.573-0.406,2.64-1.829,2.596-3.459l-0.039-1.473l12.574-0.317c0.078-0.002,0.153-0.013,0.225-0.031
		c0.441-0.114,0.761-0.521,0.748-0.998C49.76,38.123,49.3,37.684,48.748,37.698z M34.267,41.547c0.022,0.803-0.618,1.492-1.428,1.51
		l-7.404,0.187c-0.392,0.01-0.765-0.134-1.049-0.405c-0.285-0.271-0.448-0.638-0.458-1.031l-0.04-1.473l5.959-0.15l4.382-0.112
		L34.267,41.547z"/>
	<path fill="#0050A0" d="M10.064,32.678c-0.52,0.189-0.788,0.765-0.599,1.286l2.562,7.073c0.178,0.491,0.697,0.759,1.191,0.632
		c0.031-0.008,0.062-0.017,0.092-0.029c0.52-0.188,0.787-0.763,0.599-1.285l-2.562-7.074C11.156,32.759,10.581,32.487,10.064,32.678
		z"/>
</g>
</svg>
