<?xml version="1.0" encoding="utf-8"?>
<!-- Generator: Adobe Illustrator 17.0.0, SVG Export Plug-In . SVG Version: 6.00 Build 0)  -->
<!DOCTYPE svg PUBLIC "-//W3C//DTD SVG 1.1//EN" "http://www.w3.org/Graphics/SVG/1.1/DTD/svg11.dtd">
<svg version="1.1" id="Livello_1" xmlns="http://www.w3.org/2000/svg" xmlns:xlink="http://www.w3.org/1999/xlink" x="0px" y="0px"
	 width="60px" height="60px" viewBox="0 0 60 60" enable-background="new 0 0 60 60" xml:space="preserve">
<g>
	<path fill="#0050A0" d="M30,29c-1.654,0-3,1.346-3,3v6c0,1.654,1.346,3,3,3h10c1.654,0,3-1.346,3-3v-6c0-1.654-1.346-3-3-3H30z
		 M41,32v6c0,0.551-0.448,1-1,1H30c-0.552,0-1-0.449-1-1v-6c0-0.551,0.448-1,1-1h10C40.552,31,41,31.449,41,32z"/>
	<path fill="#0050A0" d="M38.646,32.646l-4,4c-0.195,0.195-0.195,0.512,0,0.707C34.744,37.451,34.872,37.5,35,37.5
		s0.256-0.049,0.354-0.146l4-4c0.195-0.195,0.195-0.512,0-0.707C39.158,32.451,38.842,32.451,38.646,32.646z"/>
	<path fill="#0050A0" d="M38.646,35.646l-1,1c-0.195,0.195-0.195,0.512,0,0.707C37.744,37.451,37.872,37.5,38,37.5
		s0.256-0.049,0.354-0.146l1-1c0.195-0.195,0.195-0.512,0-0.707C39.158,35.451,38.842,35.451,38.646,35.646z"/>
	<path fill="#0050A0" d="M42.8,15H42h-0.8H38h-3.2h-3.2h-3.2h-3.2H22h-3.2H18h-0.8l-5.6,8v0.8c0,1.639,0.988,3.045,2.4,3.662v1.321
		V43c0,1.654,1.346,3,3,3h2V32c0-0.551,0.448-1,1-1h3c0.552,0,1,0.449,1,1v14h2h17c1.654,0,3-1.346,3-3V28.783v-1.321
		c1.412-0.618,2.4-2.023,2.4-3.662V23L42.8,15z M35.4,17l1.8,6v0.8c0,1.326-1.074,2.4-2.4,2.4s-2.4-1.074-2.4-2.4V23l-0.6-6H35.4z
		 M22.8,23l1.8-6h3.6l-0.6,6v0.8c0,1.326-1.074,2.4-2.4,2.4s-2.4-1.074-2.4-2.4V23z M13.2,23.8V23l4.2-6H21l-3,6v0.8
		c0,1.326-1.074,2.4-2.4,2.4S13.2,25.126,13.2,23.8z M44,43c0,0.551-0.448,1-1,1H26V32c0-1.654-1.346-3-3-3h-3c-1.654,0-3,1.346-3,3
		v12c-0.552,0-1-0.449-1-1V27.76c0.917-0.093,1.745-0.48,2.373-1.086c0.425,0.675,1.171,1.126,2.027,1.126s1.602-0.451,2.027-1.126
		c0.719,0.694,1.694,1.126,2.773,1.126s2.054-0.432,2.773-1.126C28.398,27.349,29.144,27.8,30,27.8s1.602-0.451,2.027-1.126
		c0.719,0.694,1.694,1.126,2.773,1.126s2.054-0.432,2.773-1.126c0.425,0.675,1.171,1.126,2.027,1.126s1.602-0.451,2.027-1.126
		c0.628,0.606,1.456,0.993,2.373,1.086V43z M46.8,23.8c0,1.326-1.074,2.4-2.4,2.4S42,25.126,42,23.8V23l-3-6h3.6l4.2,6
		C46.8,23,46.8,23.8,46.8,23.8z"/>
</g>
<path fill="#0050A0" d="M30,0C13.432,0,0,13.432,0,30s13.432,30,30,30s30-13.432,30-30S46.568,0,30,0z M30,58
	C14.536,58,2,45.464,2,30S14.536,2,30,2s28,12.536,28,28S45.464,58,30,58z"/>
</svg>
