<?xml version="1.0" encoding="utf-8"?>
<!-- Generator: Adobe Illustrator 17.0.0, SVG Export Plug-In . SVG Version: 6.00 Build 0)  -->
<!DOCTYPE svg PUBLIC "-//W3C//DTD SVG 1.1//EN" "http://www.w3.org/Graphics/SVG/1.1/DTD/svg11.dtd">
<svg version="1.1" id="Livello_1" xmlns="http://www.w3.org/2000/svg" xmlns:xlink="http://www.w3.org/1999/xlink" x="0px" y="0px"
	 width="60px" height="60px" viewBox="0 0 60 60" enable-background="new 0 0 60 60" xml:space="preserve">
<path fill="#0050A0" d="M40,32H20c-0.552,0-1,0.448-1,1s0.448,1,1,1h20c0.552,0,1-0.448,1-1S40.552,32,40,32z"/>
<path fill="#0050A0" d="M40,36H20c-0.552,0-1,0.448-1,1s0.448,1,1,1h20c0.552,0,1-0.448,1-1S40.552,36,40,36z"/>
<path fill="#0050A0" d="M40,40H20c-0.552,0-1,0.448-1,1s0.448,1,1,1h20c0.552,0,1-0.448,1-1S40.552,40,40,40z"/>
<path fill="#0050A0" d="M22.755,25.501c0.277,0,0.502-0.227,0.502-0.507c0-1.809,1.456-3.28,3.245-3.28s3.245,1.471,3.245,3.28
	c0,0.28,0.225,0.507,0.502,0.507s0.502-0.227,0.502-0.507c0-1.783-1.08-3.314-2.613-3.963c0.424-0.426,0.688-1.015,0.688-1.666
	c0-1.295-1.042-2.349-2.323-2.349s-2.323,1.054-2.323,2.349c0,0.651,0.264,1.24,0.688,1.666c-1.533,0.649-2.613,2.181-2.613,3.963
	C22.253,25.274,22.478,25.501,22.755,25.501z M26.501,18.03c0.728,0,1.32,0.599,1.32,1.334c0,0.736-0.592,1.334-1.32,1.334
	s-1.32-0.599-1.32-1.334C25.182,18.629,25.774,18.03,26.501,18.03z"/>
<path fill="#0050A0" d="M40,10H20c-2.757,0-5,2.243-5,5v30c0,2.757,2.243,5,5,5h20c2.757,0,5-2.243,5-5V15
	C45,12.243,42.757,10,40,10z M43,45c0,1.654-1.346,3-3,3H20c-1.654,0-3-1.346-3-3V15c0-1.654,1.346-3,3-3h20c1.654,0,3,1.346,3,3V45
	z"/>
<path fill="#0050A0" d="M22,29h9c1.654,0,3-1.346,3-3v-9c0-1.654-1.346-3-3-3h-9c-1.654,0-3,1.346-3,3v9C19,27.654,20.346,29,22,29z
	 M21,17c0-0.551,0.449-1,1-1h9c0.551,0,1,0.449,1,1v9c0,0.551-0.449,1-1,1h-9c-0.551,0-1-0.449-1-1V17z"/>
<path fill="#0050A0" d="M30,0C13.432,0,0,13.432,0,30s13.432,30,30,30s30-13.432,30-30S46.568,0,30,0z M30,58
	C14.536,58,2,45.464,2,30S14.536,2,30,2s28,12.536,28,28S45.464,58,30,58z"/>
</svg>
