<?xml version="1.0" encoding="utf-8"?>
<!-- Generator: Adobe Illustrator 17.0.0, SVG Export Plug-In . SVG Version: 6.00 Build 0)  -->
<!DOCTYPE svg PUBLIC "-//W3C//DTD SVG 1.1//EN" "http://www.w3.org/Graphics/SVG/1.1/DTD/svg11.dtd">
<svg version="1.1" id="Livello_1" xmlns="http://www.w3.org/2000/svg" xmlns:xlink="http://www.w3.org/1999/xlink" x="0px" y="0px"
	 width="60px" height="60px" viewBox="0 0 60 60" enable-background="new 0 0 60 60" xml:space="preserve">
<path fill="#0050A0" d="M30,0C13.432,0,0,13.432,0,30s13.432,30,30,30s30-13.432,30-30S46.568,0,30,0z M30,58
	C14.536,58,2,45.464,2,30S14.536,2,30,2s28,12.536,28,28S45.464,58,30,58z"/>
<path fill="#0050A0" d="M44.75,35.482c0-0.233-0.02-0.468-0.056-0.702l-0.039-0.253l0.183-0.18c0.91-0.896,1.412-2.094,1.412-3.374
	c0-0.234-0.02-0.468-0.056-0.702l-0.039-0.253l0.183-0.18c0.91-0.896,1.412-2.094,1.412-3.374c0-2.624-2.131-4.758-4.75-4.758
	h-5.221l0.153-0.62c0.587-2.381,0.862-4.056,0.818-4.979c0.017-1.332-0.438-2.49-1.315-3.381c-1.072-1.087-2.433-1.475-3.349-1.475
	l-0.189,0.006c-2.209,0.173-3.321,1.667-4.499,3.249c-0.787,1.058-1.6,2.151-2.874,3.075c-3.884,2.814-6.273,4.009-8.246,4.125
	c-0.369,0.001-0.716,0.052-1.093,0.158l-0.185,0.057c-0.166,0.055-0.333,0.119-0.454,0.179c-0.747,0.335-1.341,0.868-1.691,1.51
	c-0.401,0.658-0.606,1.378-0.606,2.104v15.029c0,2.209,1.794,4.006,4,4.006H38.5c2.619,0,4.75-2.134,4.75-4.756
	c0-0.234-0.02-0.469-0.056-0.703l-0.039-0.253l0.183-0.18C44.248,37.961,44.75,36.763,44.75,35.482z M42.961,33.301l-0.692,0.438
	l0.291,0.765c0.128,0.33,0.19,0.651,0.19,0.979c0,0.944-0.482,1.813-1.291,2.325l-0.691,0.437l0.292,0.765
	c0.126,0.33,0.19,0.661,0.19,0.983c0,1.52-1.233,2.756-2.75,2.756H18.25c-1.103,0-2-0.899-2-2.006V25.713
	c0-0.371,0.106-0.72,0.335-1.098c0.161-0.298,0.421-0.527,0.808-0.702c0.071-0.034,0.15-0.064,0.293-0.111
	c0.214-0.061,0.387-0.095,0.645-0.097c2.837-0.163,5.8-1.918,9.368-4.503c1.517-1.102,2.507-2.431,3.302-3.499
	c1.054-1.414,1.75-2.348,3.048-2.448l0.038-0.001c0.426,0,1.29,0.234,1.924,0.88c0.513,0.518,0.748,1.153,0.739,1.997
	c0.024,0.553-0.103,2.148-1.24,6.312l-0.345,1.264H43c1.517,0,2.75,1.237,2.75,2.758c0,0.944-0.482,1.814-1.289,2.327l-0.692,0.438
	l0.291,0.764c0.128,0.331,0.19,0.652,0.19,0.98C44.25,31.918,43.768,32.788,42.961,33.301z"/>
</svg>
