<?xml version="1.0" encoding="utf-8"?>
<!-- Generator: Adobe Illustrator 17.0.0, SVG Export Plug-In . SVG Version: 6.00 Build 0)  -->
<!DOCTYPE svg PUBLIC "-//W3C//DTD SVG 1.1//EN" "http://www.w3.org/Graphics/SVG/1.1/DTD/svg11.dtd">
<svg version="1.1" id="Livello_1" xmlns="http://www.w3.org/2000/svg" xmlns:xlink="http://www.w3.org/1999/xlink" x="0px" y="0px"
	 width="24px" height="24px" viewBox="0 0 24 24" enable-background="new 0 0 24 24" xml:space="preserve">
<path fill="#C70000" d="M10.441,22.956c-0.679,0-1.684-0.285-2.471-1.083C7.322,21.214,6.987,20.361,7,19.406
	C6.989,19.178,6.957,18.417,7.555,16H4.5C2.57,16,1,14.43,1,12.5c0-0.948,0.379-1.834,1.041-2.484C2.014,9.844,2,9.672,2,9.5
	c0-0.948,0.379-1.834,1.041-2.484C3.014,6.844,3,6.672,3,6.5c0-0.948,0.379-1.834,1.041-2.484C4.014,3.844,4,3.672,4,3.5
	C4,1.57,5.57,0,7.5,0H21c1.654,0,3,1.346,3,3v10c0,1.654-1.346,3-3,3c-1.243,0.083-2.803,0.86-5.322,2.682
	c-0.804,0.582-1.333,1.29-1.843,1.974c-0.796,1.066-1.619,2.168-3.257,2.296L10.441,22.956z M7.5,2C6.673,2,6,2.673,6,3.5
	c0,0.174,0.034,0.348,0.104,0.531l0.294,0.766L5.705,5.235C5.263,5.514,5,5.986,5,6.5c0,0.174,0.034,0.348,0.104,0.531l0.294,0.766
	L4.705,8.235C4.263,8.514,4,8.986,4,9.5c0,0.174,0.034,0.348,0.104,0.531l0.294,0.766l-0.694,0.438C3.263,11.514,3,11.986,3,12.5
	C3,13.327,3.673,14,4.5,14h5.66l-0.346,1.264C9.041,18.087,8.987,19.082,9,19.378c-0.005,0.477,0.124,0.815,0.395,1.09
	c0.35,0.355,0.828,0.487,1.047,0.487v1l0.019-1c0.665-0.053,1.046-0.523,1.772-1.496c0.544-0.729,1.222-1.637,2.274-2.398
	c2.085-1.507,4.306-2.921,6.43-3.059C21.551,14,22,13.551,22,13V3c0-0.551-0.449-1-1-1H7.5z"/>
</svg>
