<?xml version="1.0" encoding="utf-8"?>
<!-- Generator: Adobe Illustrator 17.0.0, SVG Export Plug-In . SVG Version: 6.00 Build 0)  -->
<!DOCTYPE svg PUBLIC "-//W3C//DTD SVG 1.1//EN" "http://www.w3.org/Graphics/SVG/1.1/DTD/svg11.dtd">
<svg version="1.1" id="Livello_1" xmlns="http://www.w3.org/2000/svg" xmlns:xlink="http://www.w3.org/1999/xlink" x="0px" y="0px"
	 width="84px" height="84px" viewBox="0 0 84 84" enable-background="new 0 0 84 84" xml:space="preserve">
<path fill-rule="evenodd" clip-rule="evenodd" fill="#0050a0" d="M42,0c23.196,0,42,18.804,42,42S65.196,84,42,84S0,65.196,0,42
	S18.804,0,42,0z"/>
<path fill-rule="evenodd" clip-rule="evenodd" fill="#63A8A0" d="M42,3c21.539,0,39,17.461,39,39S63.539,81,42,81S3,63.539,3,42
	S20.461,3,42,3z"/>
<g>
	<path fill-rule="evenodd" clip-rule="evenodd" fill="#FFFFFF" d="M64.461,50.058l-22.455,3.805l-7.43,1.259l-6.002,1.017
		l-3.535-6.725L50.023,23.06c0.384-0.405,0.367-1.045-0.038-1.43c-0.405-0.385-1.045-0.369-1.429,0.036L22.523,49.193l5.189,9.144
		l7.204-1.221l0.396,2.328c0.312,1.836,2.052,3.073,3.886,2.763l8.301-1.406c1.834-0.311,3.067-2.051,2.755-3.888l-0.396-2.327
		l14.943-2.532c0.55-0.093,0.92-0.615,0.826-1.166C65.533,50.336,65.011,49.965,64.461,50.058z M46.439,58.585l-6.973,1.181
		c-0.733,0.124-1.43-0.37-1.555-1.105l-0.339-1.995l9.63-1.631l0.339,1.995C47.666,57.764,47.172,58.461,46.439,58.585z"/>
	<path fill-rule="evenodd" clip-rule="evenodd" fill="#FFFFFF" d="M21.263,50.459c-0.265-0.492-0.878-0.676-1.369-0.411
		c-0.491,0.265-0.674,0.879-0.409,1.37l4.481,8.314c0.265,0.492,0.878,0.676,1.369,0.411c0.491-0.265,0.674-0.879,0.409-1.37
		L21.263,50.459z"/>
</g>
</svg>
