<?xml version="1.0" encoding="utf-8"?>
<!-- Generator: Adobe Illustrator 17.0.0, SVG Export Plug-In . SVG Version: 6.00 Build 0)  -->
<!DOCTYPE svg PUBLIC "-//W3C//DTD SVG 1.1//EN" "http://www.w3.org/Graphics/SVG/1.1/DTD/svg11.dtd">
<svg version="1.1" id="Livello_1" xmlns="http://www.w3.org/2000/svg" xmlns:xlink="http://www.w3.org/1999/xlink" x="0px" y="0px"
	 width="84px" height="84px" viewBox="0 0 84 84" enable-background="new 0 0 84 84" xml:space="preserve">
<path fill-rule="evenodd" clip-rule="evenodd" fill="#0050a0" d="M42,0c23.196,0,42,18.804,42,42S65.196,84,42,84S0,65.196,0,42
	S18.804,0,42,0z"/>
<path fill-rule="evenodd" clip-rule="evenodd" fill="#72C2B9" d="M42,3c21.539,0,39,17.461,39,39S63.539,81,42,81S3,63.539,3,42
	S20.461,3,42,3z"/>
<g>
	<path fill="#FFFFFF" d="M42,27.553c-0.552,0-1,0.448-1,1v28c0,0.552,0.448,1,1,1s1-0.448,1-1v-28
		C43,28.001,42.552,27.553,42,27.553z"/>
	<path fill="#FFFFFF" d="M66.797,23.719c-0.204-0.089-5.075-2.168-12.361-2.168c-0.153,0-0.305,0.001-0.46,0.003
		c-5.887,0.071-10.253,1.305-11.949,1.868c-1.663-0.596-5.887-1.871-11.591-1.871c-0.153,0-0.305,0.001-0.46,0.003
		c-7.482,0.09-12.506,2.058-12.716,2.142L16,24.197v1.356v34v2.896l2.708-1.026c0.047-0.018,5.042-1.867,11.293-1.87
		c6.256,0,11.241,1.852,11.291,1.87l0.707,0.267l0.709-0.267c0.047-0.018,5.042-1.867,11.293-1.87c6.256,0,11.241,1.852,11.291,1.87
		l2.705,1.02L68,59.553v-34v-1.312L66.797,23.719z M66,59.553c0,0-5.263-2-11.983-2c-0.005,0-0.011,0-0.017,0
		c-6.729,0.003-12,2-12,2s-5.263-2-11.983-2c-0.005,0-0.011,0-0.017,0c-6.729,0.003-12,2-12,2v-34c0,0,4.803-1.913,12-2
		c0.147-0.002,0.291-0.003,0.436-0.003C37.39,23.551,42,25.553,42,25.553s4.803-1.913,12-2c0.147-0.002,0.291-0.003,0.436-0.003
		C61.39,23.551,66,25.553,66,25.553V59.553z"/>
</g>
</svg>
