<?xml version="1.0" encoding="utf-8"?>
<!-- Generator: Adobe Illustrator 17.0.0, SVG Export Plug-In . SVG Version: 6.00 Build 0)  -->
<!DOCTYPE svg PUBLIC "-//W3C//DTD SVG 1.1//EN" "http://www.w3.org/Graphics/SVG/1.1/DTD/svg11.dtd">
<svg version="1.1" id="Livello_1" xmlns="http://www.w3.org/2000/svg" xmlns:xlink="http://www.w3.org/1999/xlink" x="0px" y="0px"
	 width="34px" height="34px" viewBox="0 0 34 34" enable-background="new 0 0 34 34" xml:space="preserve">
<path fill="#E00000" d="M17,0c9.389,0,17,7.612,17,17c0,9.389-7.611,17-17,17S0,26.389,0,17S7.611,0,17,0z"/>
<path fill="#E00000" d="M17,3c7.732,0,14,6.268,14,14s-6.268,14-14,14S3,24.732,3,17S9.268,3,17,3z"/>
<path fill="#FFFFFF" d="M17,7C11.477,7,7,11.477,7,17s4.477,10,10,10s10-4.477,10-10S22.523,7,17,7z M24,17
	c0,1.39-0.41,2.681-1.108,3.77l-9.662-9.662C14.319,10.41,15.61,10,17,10C20.866,10,24,13.134,24,17z M10,17
	c0-1.39,0.41-2.681,1.108-3.77l9.662,9.662C19.681,23.59,18.39,24,17,24C13.134,24,10,20.866,10,17z"/>
</svg>
