<?xml version="1.0" encoding="utf-8"?>
<!-- Generator: Adobe Illustrator 17.0.0, SVG Export Plug-In . SVG Version: 6.00 Build 0)  -->
<!DOCTYPE svg PUBLIC "-//W3C//DTD SVG 1.1//EN" "http://www.w3.org/Graphics/SVG/1.1/DTD/svg11.dtd">
<svg version="1.1" id="Livello_1" xmlns="http://www.w3.org/2000/svg" xmlns:xlink="http://www.w3.org/1999/xlink" x="0px" y="0px"
	 width="32px" height="32px" viewBox="0 0 32 32" enable-background="new 0 0 32 32" xml:space="preserve">
<g>
	<g>
		<path fill="#FFE1C9" d="M25.218,8.289c0,0,4.28,3.668,4.433,10.853S25.88,31.37,18.39,31.879
			c-7.49,0.509-10.877-4.687-10.877-4.687l-3.618-6.624L5.679,9.41L25.218,8.289z"/>
		<path fill="#402517" d="M22.434,23.398c-2.39,0.123-2.744,2.49-2.744,2.49c2.321-0.753,5.15-0.43,5.626-0.231
			C25.316,25.658,24.824,23.275,22.434,23.398z"/>
		<path d="M7.513,27.192c0,0-6.237-6.43-5.007-14.548C3.061,8.98,4.804,5.998,7.875,3.965s9.911-1.548,11.008-1.648
			s2.456-2.195,3.416-2.231c0.96-0.036-0.035,2.1-0.025,2.146c0.86,0.06,1.816-1.677,2.989-1.952c1.173-0.275,0,3.585,0.079,3.6
			c0.832,0.155,2.339-3.587,3.61-3.27c1.271,0.317-1.983,9.768-1.983,9.768L8.093,10.346l0.238,8.274c0,0-3.096-1.235-3.596,1.539
			s2.848,2.364,2.848,2.364L7.513,27.192z"/>
	</g>
	<g>
		<path fill="#402517" d="M20.09,14.589c-0.098-0.098-0.256-0.098-0.354,0l-1.578,1.578l-1.578-1.578
			c-0.098-0.098-0.256-0.098-0.354,0c-0.098,0.098-0.098,0.256,0,0.354l1.578,1.578l-1.578,1.578c-0.098,0.098-0.098,0.256,0,0.354
			c0.049,0.049,0.113,0.073,0.177,0.073s0.128-0.024,0.177-0.073l1.578-1.578l1.578,1.578c0.049,0.049,0.113,0.073,0.177,0.073
			c0.064,0,0.128-0.024,0.177-0.073c0.098-0.098,0.098-0.256,0-0.354l-1.578-1.578l1.578-1.578
			C20.188,14.845,20.188,14.686,20.09,14.589z"/>
		<path fill="#402517" d="M26.17,16.77l1.578-1.578c0.098-0.098,0.098-0.256,0-0.354c-0.098-0.098-0.256-0.098-0.354,0l-1.578,1.578
			l-1.578-1.578c-0.098-0.098-0.256-0.098-0.354,0c-0.098,0.098-0.098,0.256,0,0.354l1.578,1.578l-1.578,1.578
			c-0.098,0.098-0.098,0.256,0,0.354c0.049,0.049,0.113,0.073,0.177,0.073s0.128-0.024,0.177-0.073l1.578-1.578l1.578,1.578
			c0.049,0.049,0.113,0.073,0.177,0.073c0.064,0,0.128-0.024,0.177-0.073c0.098-0.098,0.098-0.256,0-0.354L26.17,16.77z"/>
	</g>
</g>
</svg>
