<?xml version="1.0" encoding="utf-8"?>
<!-- Generator: Adobe Illustrator 17.0.0, SVG Export Plug-In . SVG Version: 6.00 Build 0)  -->
<!DOCTYPE svg PUBLIC "-//W3C//DTD SVG 1.1//EN" "http://www.w3.org/Graphics/SVG/1.1/DTD/svg11.dtd">
<svg version="1.1" id="Livello_1" xmlns="http://www.w3.org/2000/svg" xmlns:xlink="http://www.w3.org/1999/xlink" x="0px" y="0px"
	 width="32px" height="32px" viewBox="0 0 32 32" enable-background="new 0 0 32 32" xml:space="preserve">
<g>
	<g>
		<path fill="#FFE1C9" d="M25.218,8.289c0,0,4.28,3.668,4.433,10.853c0.153,7.184-3.77,12.228-11.26,12.738
			c-7.49,0.509-10.877-4.687-10.877-4.687l-3.618-6.624L5.679,9.41L25.218,8.289z"/>
		<path fill="#402517" d="M22.134,23.398c-2.39,0.123-2.744,2.49-2.744,2.49c2.321-0.753,5.15-0.43,5.626-0.231
			C25.016,25.657,24.524,23.275,22.134,23.398z"/>
		<path fill-rule="evenodd" clip-rule="evenodd" d="M7.513,27.192c0,0-6.237-6.429-5.007-14.548C3.061,8.98,4.804,5.998,7.875,3.965
			s9.911-1.548,11.008-1.648c1.098-0.1,2.456-2.195,3.416-2.231c0.96-0.036-0.035,2.1-0.025,2.146
			c0.86,0.06,1.816-1.677,2.989-1.952s-0.001,3.585,0.079,3.6c0.832,0.155,2.339-3.587,3.61-3.27
			c1.271,0.317-1.984,9.768-1.984,9.768L8.093,10.346l0.238,8.274c0,0-3.096-1.235-3.596,1.539s2.848,2.364,2.848,2.364
			L7.513,27.192z"/>
	</g>
	<path fill="#402517" d="M15.427,16.52c0,0.138,0.112,0.25,0.25,0.25l4.964,0c0.138,0,0.25-0.112,0.25-0.25
		c0-0.069-0.028-0.132-0.073-0.177c-0.045-0.045-0.108-0.073-0.177-0.073l-4.964,0C15.539,16.27,15.427,16.382,15.427,16.52z"/>
	<path fill="#402517" d="M23.027,16.52c0,0.138,0.112,0.25,0.25,0.25l4.964,0c0.138,0,0.25-0.112,0.25-0.25
		c0-0.069-0.028-0.132-0.073-0.177c-0.045-0.045-0.108-0.073-0.177-0.073l-4.964,0C23.139,16.27,23.027,16.382,23.027,16.52z"/>
</g>
</svg>
