<?xml version="1.0" encoding="utf-8"?>
<!-- Generator: Adobe Illustrator 17.0.0, SVG Export Plug-In . SVG Version: 6.00 Build 0)  -->
<!DOCTYPE svg PUBLIC "-//W3C//DTD SVG 1.1//EN" "http://www.w3.org/Graphics/SVG/1.1/DTD/svg11.dtd">
<svg version="1.1" id="Livello_1" xmlns="http://www.w3.org/2000/svg" xmlns:xlink="http://www.w3.org/1999/xlink" x="0px" y="0px"
	 width="72.223px" height="79.6px" viewBox="0 0 72.223 79.6" enable-background="new 0 0 72.223 79.6" xml:space="preserve">
<path fill="#F9F9F9" d="M62.06,17.625c-1.444-3.636-4.592-9.709-10.79-14.754c-1.065-0.869-2.408-1.348-3.78-1.348
	c-1.573,0-3.053,0.605-4.166,1.684c-2.637-1.457-5.214-2.476-7.713-3.05c-2.23-0.526-4.614,0.303-6.059,2.114
	c-0.632,0.798-1.041,1.716-1.217,2.672c-2.749-0.136-5.22,0.279-7.352,1.232c-5.318,2.385-9.006,6.317-10.312,10.926
	C3.875,23.94,0,33.322,0,43.04C0,63.199,16.199,79.6,36.111,79.6s36.112-16.401,36.112-36.561
	C72.221,33.471,68.619,24.482,62.06,17.625z"/>
<path fill="#FFAE00" d="M58.62,19.83c-1.007-2.753-3.791-8.904-9.88-13.86c-0.863-0.705-2.127-0.56-2.821,0.316
	c-0.694,0.875-0.557,2.157,0.307,2.861c1.539,1.249,2.826,2.601,3.918,3.94c-4.074-3.648-9.655-7.706-15.452-9.038
	c-0.747-0.176-1.525,0.103-2.007,0.707c-0.48,0.606-0.58,1.436-0.256,2.138l1.425,3.103c-1.945-0.585-4.268-1.079-6.532-1.079
	c-1.776,0-3.36,0.306-4.704,0.908c-4.679,2.098-7.638,5.472-8.322,9.327C7.967,25.099,4,33.598,4,43.04
	C4,61.022,18.375,75.6,36.111,75.6c17.733,0,32.112-14.578,32.112-32.56C68.221,33.951,64.542,25.736,58.62,19.83"/>
<path fill="#F9F9F9" d="M36.111,70.172c-14.755,0-26.759-12.173-26.759-27.134c0-6.674,2.395-12.781,6.352-17.51
	c1.727,2.031,4.837,3.151,9.05,3.151c1.238,0,2.111-0.103,2.148-0.108c0.97-0.115,1.719-0.924,1.769-1.915
	c0.05-0.991-0.611-1.874-1.566-2.09c-0.003,0-0.299-0.125-0.441-0.384c-0.217-0.394-0.163-1.143,0.148-2.053
	c0.333-0.977,1.348-3.942,8.067-3.942c7.272,0,16.48,3.498,18.783,4.42c5.629,4.978,9.207,12.282,9.207,20.43
	C62.87,58,50.865,70.172,36.111,70.172"/>
<path fill="#FFAE00" d="M22.732,55.249c2.142,5.555,7.139,9.497,13.379,9.497c6.237,0,11.236-3.943,13.38-9.497H22.732z"/>
<path fill="#FFAE00" d="M55.211,37.785c-4.18-4.322-10.956-4.322-15.136,0c0.002,0.003-0.503,0.47-0.503,1.339
	c0,1.091,0.861,1.976,1.924,1.976c1.002,0.002,1.289-0.512,1.291-0.51c2.682-2.774,7.031-2.774,9.714,0
	c0.003-0.003,0.495,0.642,1.428,0.644c1.062,0,1.924-0.885,1.924-1.976C55.852,38.332,55.209,37.787,55.211,37.785z"/>
<path fill="#FFAE00" d="M31.531,37.785c-4.18-4.322-10.956-4.322-15.136,0c0.003,0.003-0.503,0.47-0.503,1.339
	c0,1.091,0.861,1.976,1.924,1.976c1.003,0.002,1.289-0.512,1.291-0.51c2.682-2.774,7.031-2.774,9.713,0
	c0.003-0.003,0.495,0.642,1.428,0.644c1.062,0,1.924-0.885,1.924-1.976C32.172,38.332,31.529,37.787,31.531,37.785z"/>
</svg>
