<?xml version="1.0" encoding="utf-8"?>
<!-- Generator: Adobe Illustrator 17.0.0, SVG Export Plug-In . SVG Version: 6.00 Build 0)  -->
<!DOCTYPE svg PUBLIC "-//W3C//DTD SVG 1.1//EN" "http://www.w3.org/Graphics/SVG/1.1/DTD/svg11.dtd">
<svg version="1.1" id="Livello_1" xmlns="http://www.w3.org/2000/svg" xmlns:xlink="http://www.w3.org/1999/xlink" x="0px" y="0px"
	 width="64px" height="64px" viewBox="0 0 64 64" enable-background="new 0 0 64 64" xml:space="preserve">
<g>
	<path fill-rule="evenodd" clip-rule="evenodd" fill="#FFFFFF" d="M32,0C14.327,0,0,14.327,0,32s14.327,32,32,32s32-14.327,32-32
		S49.673,0,32,0z M32,61C15.984,61,3,48.016,3,32S15.984,3,32,3s29,12.984,29,29S48.016,61,32,61z"/>
	<path fill-rule="evenodd" clip-rule="evenodd" fill="#FFFFFF" d="M49.781,36.498l-18.157,3.023l-6.008,1l-4.853,0.808l-2.859-5.345
		l20.202-20.943c0.311-0.322,0.297-0.831-0.031-1.137c-0.327-0.306-0.845-0.293-1.155,0.029l-21.05,21.877l4.195,7.267l5.825-0.97
		l0.32,1.85c0.253,1.46,1.659,2.442,3.142,2.195l6.712-1.118c1.483-0.247,2.48-1.63,2.228-3.09l-0.32-1.85l12.082-2.012
		c0.445-0.074,0.744-0.489,0.668-0.927C50.648,36.719,50.226,36.424,49.781,36.498z M35.209,43.275l-5.638,0.939
		c-0.593,0.099-1.156-0.294-1.257-0.878l-0.274-1.586l7.786-1.297l0.274,1.585C36.201,42.623,35.802,43.176,35.209,43.275z"/>
	<path fill-rule="evenodd" clip-rule="evenodd" fill="#FFFFFF" d="M14.852,36.817c-0.214-0.391-0.71-0.537-1.107-0.326
		c-0.397,0.211-0.545,0.698-0.331,1.089l3.623,6.607c0.214,0.391,0.71,0.537,1.107,0.327c0.397-0.211,0.545-0.698,0.331-1.089
		L14.852,36.817z"/>
</g>
</svg>
