<?xml version="1.0" encoding="utf-8"?>
<!-- Generator: Adobe Illustrator 17.0.0, SVG Export Plug-In . SVG Version: 6.00 Build 0)  -->
<!DOCTYPE svg PUBLIC "-//W3C//DTD SVG 1.1//EN" "http://www.w3.org/Graphics/SVG/1.1/DTD/svg11.dtd">
<svg version="1.1" id="Livello_1" xmlns="http://www.w3.org/2000/svg" xmlns:xlink="http://www.w3.org/1999/xlink" x="0px" y="0px"
	 width="762px" height="65px" viewBox="0 0 762 65" enable-background="new 0 0 762 65" xml:space="preserve">
<g>
	<g>
		<g>
			<g>
				<path fill="#FFFFFF" d="M705.975,11.161c0.096,0.145,0.21,0.269,0.327,0.375c0.116,0.094,0.172,0.225,0.18,0.366
					c0.405-0.281,0.948-0.385,1.408-0.385c0.835,0,1.646,0.152,2.427,0.445c-1.073-0.787-2.361-1.406-3.744-1.377
					C706.429,10.851,706.232,11.086,705.975,11.161 M703.745,11.183c-0.294-0.046-0.527-0.298-0.69-0.598
					c-1.384-0.03-2.669,0.59-3.742,1.377c0.777-0.293,1.588-0.445,2.423-0.445c0.498,0,1.094,0.123,1.503,0.455
					c-0.005-0.166,0.047-0.327,0.18-0.435C703.529,11.434,703.65,11.316,703.745,11.183 M703.782,44.105l-0.142,0.043
					c-0.484,0.138-0.969-0.266-0.971-0.738c-0.008-0.475,0.362-0.601,0.695-0.552l-0.102-0.14c-0.206-0.257-0.571-0.581-1.199-0.859
					c-2.158-0.946-4.066-1.677-5.846-3.294c-1.352-1.22-2.794-3.107-3.607-4.736c-0.911-1.839-1.582-3.806-1.948-5.834
					c-0.34-0.044-5.894-1.031-4.078-8.858c1.853-7.959,7.002-9.038,7.04-9.045c1.234-0.414,2.72-0.23,3.495,0.958
					c0.086,0.138,0.147,0.266,0.18,0.385c0.81-0.68,1.504-1.561,1.633-2.551c0.009-0.09,0.032-0.353-0.014-0.484
					c0.035-0.007,0.123,0.012,0.183,0.017c0.843,0.082,0.858,0.888,0.711,1.484c1.15-1.087,0.93-2.17,0.641-2.664
					c-0.203-0.351-0.505-0.317-0.657-0.273c0.205,1.147-1.727,1.091-1.416-0.298c0.271-1.215,2.374-1.181,3.14,0.07
					c0.616,1,0.287,2.188-0.238,3.115c0.525-0.293,0.987-0.448,1.399-0.494c-0.375-0.409-0.599-0.917-0.427-1.508
					c0.048-0.133,0.09-0.217,0.09-0.217c0.37-0.223,0.809-0.044,1.115,0.123l0.22,0.126c-0.595-1.994,0.766-2.089,0.996-3.628
					l0.046-0.28c0.03-0.189,0.245-0.198,0.277-0.003l0.047,0.278c0,0,0.035,0.206,0.148,0.508c0.115,0.307,0.311,0.709,0.648,1.111
					c0.47,0.555,0.393,1.37,0.205,2.014l0.22-0.126c0.3-0.167,0.741-0.346,1.06-0.177c0.052,0.054,0.101,0.138,0.143,0.271
					c0.177,0.591-0.037,1.109-0.415,1.515c0.384,0.068,0.816,0.216,1.295,0.487c-0.521-0.927-0.85-2.115-0.241-3.115
					c0.762-1.251,2.877-1.285,3.142-0.07c0.305,1.389-1.616,1.445-1.413,0.298c-0.155-0.044-0.457-0.077-0.663,0.273
					c-0.287,0.494-0.502,1.577,0.644,2.664c-0.142-0.595-0.131-1.402,0.715-1.484c0.058-0.005,0.141-0.024,0.183-0.017
					c-0.048,0.131-0.026,0.394-0.018,0.484c0.13,0.99,0.826,1.87,1.636,2.551c0.034-0.119,0.091-0.247,0.177-0.385
					c0.773-1.188,2.26-1.372,3.492-0.958c0.037,0.007,5.192,1.086,7.042,9.045c1.823,7.827-3.735,8.814-4.075,8.858
					c-0.367,2.028-1.034,3.995-1.955,5.834c-0.805,1.629-2.249,3.516-3.602,4.736c-1.777,1.616-3.692,2.348-5.844,3.294
					c-0.633,0.278-0.992,0.602-1.196,0.859l-0.109,0.14c0.335-0.048,0.7,0.077,0.698,0.552c-0.004,0.472-0.491,0.876-0.977,0.738
					l-0.119-0.041c-0.095,0.138-0.245,0.358-0.388,0.602c-0.25,0.414-0.478,0.852-0.484,1.065c-0.006,0.068-0.075,0.128-0.142,0.128
					c-0.135,0-0.198-0.06-0.208-0.128C704.631,45.423,704.074,44.537,703.782,44.105"/>
				<path fill="#D20A11" d="M704.149,37.105c0.191-0.104,0.427-0.181,0.663-0.181c0.245,0,0.48,0.077,0.669,0.189
					c0.073-0.431,0.181-0.837,0.362-1.111c-0.377-0.487-0.787-1.021-1.032-1.59c-0.247,0.569-0.654,1.103-1.03,1.59
					C703.957,36.276,704.074,36.682,704.149,37.105 M703.55,12.513c0,0,0.296,0.216,0.514,0.225c0.46,0.012,0.597-0.859,0.79-0.859
					c0.249,0,0.26,0.791,0.687,0.878c0.214,0.048,0.566-0.062,0.566-0.062v9.827h9.523c0,0,0.053,0.75,0.062,1.234
					c0.015,0.508-0.024,1.309-0.024,1.309h-9.582v12.163c0,0-0.213,0.16-0.412,0.134c-0.266-0.046-0.559-0.291-0.838-0.286
					c-0.312,0-0.646,0.295-0.926,0.351c-0.166,0.034-0.36-0.177-0.36-0.177V25.066h-9.576l-0.031-1.295l0.07-1.248h9.536V12.513z
					 M704.461,13.313c0.106,0,0.195-0.083,0.195-0.184c0-0.109-0.088-0.194-0.195-0.194c-0.103,0-0.185,0.085-0.185,0.194
					C704.276,13.23,704.364,13.313,704.461,13.313 M705.23,13.313c0.1,0,0.188-0.083,0.188-0.184c0-0.109-0.088-0.194-0.188-0.194
					c-0.106,0-0.193,0.085-0.193,0.194C705.037,13.23,705.125,13.313,705.23,13.313"/>
				<path d="M693.408,11.812c-0.546,0.348-2.637,1.839-3.891,4.586c-1.217,2.67-1.752,4.581-1.477,6.776
					c0.455,1.684,1.316,2.345,1.727,2.57c-0.75-1.109-0.391-2.78,0.03-3.64c-1.032-2.715,0.763-4.155,1.179-4.438
					c-0.42-2.795,1.305-3.756,1.703-3.938C692.78,13.029,693.049,12.359,693.408,11.812 M693.245,19.205c0,0-0.695,0-0.898-0.048
					c-0.192-0.046-0.94-0.227-1.14,0.632c-0.163,0.704-0.08,1.336,0.032,1.628c0.416,0.284,1.12,0.09,1.58-0.102
					c0.032-0.188,0.166-1.002,0.227-1.288C693.121,19.667,693.245,19.205,693.245,19.205 M693.865,17.496
					c0.134-0.271,0.491-1.009,0.675-1.359c0,0-1.419-1.254-2.058-0.121c-0.288,0.512-0.155,0.984,0.079,1.341
					C692.942,17.586,693.489,17.559,693.865,17.496 M694.907,12.339c-0.809,0.77-0.763,1.373-0.648,1.697
					c0.246,0.472,0.798,0.69,1.176,0.787c1.045-1.353,2.534-2.283,3.01-2.559c1.373-1.185,3.006-2.079,4.665-2.047
					c0.216,0.005,0.385,1.052,1.058,0.569c0.217-0.152,0.202-0.666-0.401-0.988c-0.543-0.291-1.533-0.332-2.939,0.68
					c-0.327,0.257-0.663,0.291-0.663,0.291c0.166-0.116,0.361-0.315,0.522-0.518c0,0,0.093-0.126,0.215-0.324
					c0.55-0.871,0.973-2.073,0.376-3.034c-0.645-1.065-2.412-1.087-2.619-0.17c-0.139,0.639,1.164,1.336,0.833,0.191
					c-0.081-0.264,0.815-0.504,1.209,0.174c0.384,0.666,0.595,2.073-1.149,3.395l-1.083,0.925c0.202-0.184,0.617-0.581,0.93-1.133
					c0,0,0.041-0.092,0.087-0.24c0.11-0.389,0.269-1.13-0.256-1.302l-0.017,0.181c-0.15,1.14-0.959,2.118-1.894,2.866
					c-0.018,0.17-0.096,0.309-0.204,0.43c-0.205,0.317-0.597,0.705-1.18,0.736C695.159,12.98,694.907,12.339,694.907,12.339
					 M719.913,25.666c0.48-0.32,1.312-1.102,1.695-2.904c0.157-2.021-0.379-3.858-1.52-6.365c-1.22-2.67-3.234-4.148-3.841-4.555
					c0.348,0.542,0.605,1.201,0.706,1.885c0.396,0.182,2.121,1.142,1.704,3.938c0.412,0.284,2.209,1.723,1.173,4.438
					C720.239,22.946,720.594,24.553,719.913,25.666 M716.314,19.188c0,0,0.124,0.462,0.202,0.823
					c0.059,0.283,0.189,1.057,0.224,1.275c0.424,0.179,1.105,0.394,1.548,0.187c0.126-0.252,0.245-0.932,0.063-1.702
					c-0.198-0.864-0.944-0.673-1.144-0.624C717.009,19.188,716.314,19.188,716.314,19.188 M714.736,12.4
					c0,0-0.248,0.631-1.029,0.602c-0.646-0.034-1.062-0.516-1.239-0.842c-0.08-0.109-0.14-0.232-0.155-0.38
					c-0.929-0.748-1.751-1.726-1.896-2.866l-0.02-0.181c-0.518,0.172-0.368,0.913-0.251,1.302c0.044,0.148,0.086,0.24,0.086,0.24
					c0.308,0.552,0.727,0.948,0.932,1.133l-1.083-0.925c-1.745-1.321-1.536-2.729-1.153-3.395c0.395-0.678,1.295-0.438,1.218-0.174
					c-0.34,1.145,0.965,0.448,0.828-0.191c-0.206-0.917-1.976-0.896-2.625,0.17c-0.591,0.961-0.172,2.163,0.377,3.034
					c0.123,0.198,0.221,0.324,0.221,0.324c0.156,0.203,0.349,0.402,0.519,0.518c0,0-0.339-0.034-0.664-0.291
					c-1.409-1.012-2.398-0.97-2.941-0.68c-0.599,0.322-0.616,0.835-0.395,0.988c0.667,0.484,0.837-0.564,1.054-0.569
					c1.571-0.032,3.123,0.77,4.445,1.861c0.196,0.111,2.031,1.14,3.234,2.741c0.338-0.089,0.807-0.273,1.08-0.641
					C715.442,13.905,715.651,13.264,714.736,12.4 M706.09,36.924V36.14c-0.11,0.262-0.193,0.281-0.362,1.159
					C705.791,37.2,706.003,36.992,706.09,36.924 M705.23,13.509c-0.213,0-0.378-0.175-0.378-0.38c0-0.212,0.165-0.384,0.378-0.384
					c-0.116-0.129-0.257-0.363-0.37-0.724c-0.1,0.361-0.242,0.593-0.392,0.724c0.209,0,0.384,0.172,0.384,0.384
					c0,0.205-0.175,0.38-0.384,0.38c-0.209,0-0.384-0.175-0.384-0.38c0-0.097,0.037-0.181,0.083-0.24
					c-0.16,0.027-0.33-0.029-0.473-0.126c0.02,0.126,0.02,0.257,0.006,0.399c-0.07,0.632-0.794,0.912-1.289,0.591
					c-0.391-0.252-0.537-0.68-0.3-1.028l-0.119-0.005c-4.148,0-7.951,4.32-7.951,11.386c0,0.322,0.008,0.639,0.027,0.961h9.482
					v0.327h-9.46c0.462,6.493,4.32,12.652,8.112,12.932c-0.045-0.126-0.052-0.268-0.052-0.37c0-0.223,0.036-0.414,0.036-0.414
					c0.059-0.278,0.242-0.516,0.507-0.627c0.438-0.202,0.957,0,1.175,0.411c-0.04-0.513-0.174-0.98-0.373-1.239
					c-0.032-0.046-0.032-0.133,0-0.179c0,0,0.278-0.351,0.563-0.765c0.297-0.43,0.558-0.891,0.575-1.109
					c0.009-0.065,0.073-0.13,0.143-0.13c0.139,0,0.205,0.066,0.215,0.13c0.022,0.344,0.745,1.329,1.099,1.796V25.066h9.47
					c0.018-0.308,0.027-0.654,0.027-0.961c0-7.066-3.805-11.386-7.946-11.386l-0.123,0.005c0.241,0.348,0.093,0.777-0.302,1.028
					c-0.243,0.162-0.547,0.174-0.792,0.07v8.707H706.1V13.58c-0.093-0.118-0.15-0.254-0.169-0.419
					c-0.011-0.123-0.003-0.232,0.009-0.343c-0.132,0.065-0.28,0.097-0.422,0.058c0.059,0.06,0.093,0.152,0.093,0.252
					C705.61,13.334,705.439,13.509,705.23,13.509 M715.543,25.362h-9.114v11.483c0.213-0.024,0.293-0.024,0.505,0.07
					c0.264,0.111,0.454,0.348,0.507,0.627c0,0,0.04,0.191,0.04,0.414c0,0.102-0.007,0.244-0.049,0.37
					C711.226,38.045,715.089,31.866,715.543,25.362 M705.211,37.585c-0.107-0.066-0.235-0.088-0.37-0.088
					c-0.148,0-0.285,0.029-0.408,0.088c0.123,0.051,0.346,0.234,0.394,0.9C704.876,37.846,705.086,37.645,705.211,37.585
					 M703.647,38.72c-0.213,0.191-0.359,0.262-0.509,0.324c0.347,0.012,0.663,0.174,0.884,0.443
					c0.105,0.116,0.152,0.184,0.207,0.136c0-0.059-0.046-0.09-0.097-0.123c-0.088-0.075-0.176-0.15-0.254-0.254
					C703.758,39.087,703.681,38.911,703.647,38.72 M702.513,39.195c-0.091,0.012-0.18,0.019-0.267,0.019
					c-0.111,0-0.226-0.007-0.338-0.012l-0.233,1.575l0.267,0.116l0.193,0.084c-0.149-0.201-0.24-0.455-0.24-0.719
					C701.895,39.804,702.144,39.402,702.513,39.195 M701.556,39.155c-0.12-0.013-0.244-0.039-0.364-0.068l-0.419,1.28l0.523,0.237
					L701.556,39.155z M698.658,37.786l-0.31-0.259l-0.94,0.895c0.138,0.109,0.282,0.218,0.427,0.327L698.658,37.786z
					 M698.304,39.056c0.705,0.455,1.451,0.842,2.216,1.198l0.35-1.188c0,0-0.892-0.21-1.871-0.856L698.304,39.056z M696.163,34.971
					l-0.219-0.331l-1.316,0.714l0.321,0.452L696.163,34.971z M695.325,36.305c0.535,0.673,1.124,1.297,1.751,1.839l0.125,0.106
					l0.816-0.803c0,0-0.83-0.697-1.691-1.841l-0.981,0.682L695.325,36.305z M694.289,31.271l-0.134-0.358l-1.593,0.457l0.206,0.508
					L694.289,31.271z M703.098,41.466c0.181,0.102,0.353,0.201,0.528,0.327c0.027-0.152,0.088-0.302,0.174-0.43
					c0.061-0.099,0.134-0.184,0.217-0.254l0.157-0.131c-0.167,0.08-0.241,0.165-0.34,0.238
					C703.626,41.384,703.371,41.466,703.098,41.466 M704.475,42.955c0.097,0.046,0.219,0.07,0.342,0.07
					c0.134,0,0.253-0.027,0.37-0.063c-0.127-0.075-0.319-0.288-0.359-0.89C704.785,42.667,704.605,42.88,704.475,42.955
					 M704.443,43.151c-0.027,0.302-0.174,0.6-0.421,0.798c0.301,0.441,0.596,0.912,0.795,1.409c0.207-0.489,0.506-0.955,0.802-1.394
					c-0.248-0.201-0.4-0.503-0.433-0.809c-0.116,0.037-0.238,0.053-0.37,0.053C704.688,43.209,704.561,43.192,704.443,43.151
					 M706.014,41.784c0.167-0.116,0.342-0.216,0.516-0.307c-0.312-0.01-0.635-0.145-0.842-0.373
					c-0.029-0.041-0.155-0.235-0.221-0.17C705.768,41.2,705.952,41.477,706.014,41.784 M712.411,38.27l0.145-0.126
					c0.283-0.244,0.561-0.51,0.836-0.791c0.371-0.467,0.842-1.077,0.842-1.077l-0.95-0.644c-0.57,0.779-1.683,1.844-1.683,1.844
					L712.411,38.27z M706.507,39.049c-0.156-0.061-0.305-0.138-0.427-0.245c-0.086,0.099-0.14,0.237-0.219,0.358
					c-0.06,0.094-0.13,0.182-0.213,0.254l-0.162,0.131c0.168-0.085,0.245-0.17,0.344-0.242
					C706.025,39.153,706.265,39.061,706.507,39.049 M705.526,37.5c-0.092-0.135-0.34-0.302-0.672-0.305
					c-0.475-0.01-0.81,0.295-0.837,0.441c0.223-0.213,0.534-0.339,0.863-0.337C705.114,37.306,705.339,37.379,705.526,37.5
					 M704.149,37.105c0.191-0.104,0.427-0.181,0.663-0.181c0.245,0,0.48,0.077,0.669,0.189c0.073-0.431,0.181-0.837,0.362-1.111
					c-0.377-0.487-0.787-1.021-1.032-1.59c-0.247,0.569-0.654,1.103-1.03,1.59C703.957,36.276,704.074,36.682,704.149,37.105
					 M714.077,11.577c-0.064-0.487-0.263-0.791-0.263-0.791s0.291,0.133,0.548,0.305c0.732,0.479,1.29,1.372,1.393,2.214
					c0.13,1.036-0.679,1.598-1.539,1.812c0.117,0.17,0.225,0.334,0.337,0.509c0.171-0.022,0.305-0.084,0.455-0.17
					c0.334-0.189,0.644-0.384,1.005-0.525c1.052-0.392,2.109,0.556,1.739,1.948c-0.262,0.976-1.338,1.024-2.136,0.884
					c0.092,0.227,0.178,0.467,0.255,0.709c0.527,0.048,1.073,0.06,1.59-0.022c0.92-0.145,1.733,0.348,1.561,2.275
					c-0.123,1.476-1.523,1.191-2.478,0.781c0.036,0.3,0.068,0.602,0.095,0.913c0.582,0.28,1.186,0.087,1.801,0.07
					c0.67-0.002,1.034,0.334,0.871,1.638c-0.201,1.585-1.284,2.042-2.699,1.66c-0.023,0.245-0.048,0.491-0.079,0.738
					c4.206,0.413,3.75-2.948,3.016-4.466c0.57-1.471,0.383-2.923-0.792-3.959c-0.187-0.167-0.328-0.247-0.328-0.247
					c-0.298-0.189,0.622-2.507-1.347-3.739c-0.183-0.112-0.309-0.157-0.309-0.157c-0.26-0.099-0.298-1.936-1.529-2.853
					c-0.541-0.407-1.138-0.588-1.138-0.588c0.406-0.063,0.934,0.092,1.001,0.116c0.141,0.053,0.331,0.123,0.555,0.227
					c3.268,1.493,5.209,4.798,6.028,8.204c0.865,3.62-0.015,5.612-1.144,6.696c-0.63,0.6-1.499,1.052-2.358,1.202
					c0.011,0.412,0.494,0.646,0.818,0.756c0.091-0.02,0.397-0.083,0.805-0.238c3.443-1.338,3.713-5.036,2.96-8.279
					c-0.791-3.407-2.656-7.088-6.023-8.555c-0.491-0.212-0.798-0.283-0.824-0.288c-1.09-0.392-2.491-0.213-3.175,0.849
					C712.039,12.303,714.229,12.819,714.077,11.577 M713.741,14.941c-1.574-2.033-3.663-3.141-5.851-3.141
					c-0.888,0-1.776,0.389-1.679,1.33c0.047,0.402,0.513,0.608,0.85,0.385c0.357-0.233,0.381-0.579,0.033-0.811
					c-0.073-0.046-0.122-0.087-0.256-0.15c0.126-0.092,0.248-0.106,0.335-0.114l0.459-0.007c4.374,0,8.241,4.53,8.241,11.672
					c0,6.977-4.168,14.259-8.484,14.508l-0.231,0.009c-0.38-0.034-0.451-0.201-0.451-0.201c0.133,0.063,0.243,0.034,0.324-0.021
					c0.236-0.162,0.141-0.753,0.13-0.806c-0.041-0.194-0.167-0.344-0.344-0.419c-0.291-0.141-0.652,0-0.801,0.28
					c-0.087,0.163-0.112,0.352-0.079,0.535c0.013,0.109,0.046,0.218,0.099,0.312c0.052,0.111,0.128,0.206,0.22,0.28
					c0.28,0.232,0.741,0.344,1.129,0.344c3.909,0,7.959-5.745,8.844-12.32c0.052-0.487,0.092-0.716,0.128-1.212
					c0.033-0.462,0.054-0.939,0.054-1.406c0-0.481-0.021-0.924-0.066-1.469l-0.152-1.433c-0.577-2.575-0.73-2.829-1.017-3.632
					c-0.24-0.55-0.512-1.07-0.783-1.539C714.165,15.555,714.112,15.524,713.741,14.941 M715.748,17.496
					c0.357,0.063,0.875,0.09,1.261-0.111c0.253-0.356,0.404-0.845,0.112-1.384c-0.636-1.13-2.046,0.119-2.046,0.119
					C715.267,16.48,715.621,17.227,715.748,17.496 M716.923,25.577c0.401,0.09,0.952,0.134,1.393-0.148
					c0.127-0.13,0.34-0.457,0.439-1.207c0.143-1.089-0.208-1.097-0.652-1.022c-0.438,0.077-1.159,0.041-1.159,0.041
					C716.991,23.682,716.934,25.248,716.923,25.577 M718.36,27.719c-0.349,2.033-1.022,4.012-1.962,5.839
					c-0.902,1.755-2.152,3.499-3.659,4.804c-1.443,1.248-3.207,2.028-4.938,2.785c-0.37,0.172-0.734,0.361-1.094,0.552
					c-0.235,0.128-0.475,0.263-0.679,0.42c-0.041,0.387-0.255,0.716-0.562,0.905c-0.017,0.361,0.221,0.75,0.598,0.854
					c0.297,0.085,0.613-0.174,0.619-0.472c0.001-0.268-0.295-0.387-0.623-0.191c-0.08,0.048-0.22,0.145-0.241,0.152
					c-0.007-0.073,0.024-0.238,0.058-0.353c0.108-0.348,0.595-0.983,1.58-1.413c2.113-0.93,4.026-1.658,5.77-3.245
					c1.316-1.195,2.741-3.054,3.534-4.654c0.919-1.832,1.566-3.79,1.924-5.805C718.559,27.84,718.451,27.779,718.36,27.719
					 M695.556,11.577c-0.15,1.241,2.038,0.726,1.326-0.368c-0.686-1.063-2.089-1.241-3.182-0.849
					c-0.02,0.005-0.331,0.075-0.82,0.288c-3.363,1.466-5.232,5.148-6.02,8.555c-0.756,3.243-0.483,6.941,2.962,8.279
					c0.403,0.155,0.708,0.218,0.806,0.238c0.319-0.109,0.805-0.344,0.816-0.756c-0.859-0.15-1.733-0.602-2.361-1.202
					c-1.131-1.084-2.007-3.076-1.138-6.696c0.807-3.405,2.759-6.711,6.021-8.204c0.227-0.104,0.419-0.174,0.559-0.227
					c0.062-0.024,0.589-0.18,0.997-0.116c0,0-0.595,0.181-1.138,0.588c-1.228,0.917-1.264,2.754-1.528,2.853
					c0,0-0.127,0.045-0.307,0.157c-1.975,1.232-1.051,3.55-1.347,3.739c0,0-0.141,0.08-0.332,0.247
					c-1.173,1.035-1.367,2.488-0.785,3.959c-0.737,1.518-1.191,4.879,3.013,4.466c-0.032-0.247-0.061-0.494-0.083-0.738
					c-1.416,0.382-2.495-0.075-2.695-1.66c-0.165-1.305,0.201-1.641,0.871-1.638c0.606,0.016,1.222,0.21,1.804-0.07
					c0.02-0.31,0.052-0.613,0.09-0.913c-0.955,0.409-2.356,0.695-2.48-0.781c-0.161-1.927,0.643-2.42,1.558-2.275
					c0.515,0.082,1.068,0.07,1.597,0.022c0.08-0.242,0.167-0.482,0.253-0.709c-0.8,0.141-1.872,0.092-2.136-0.884
					c-0.37-1.391,0.692-2.34,1.745-1.948c0.362,0.141,0.666,0.336,0.996,0.525c0.152,0.085,0.289,0.148,0.46,0.17
					c0.105-0.174,0.221-0.339,0.336-0.509c-0.862-0.215-1.669-0.777-1.544-1.812c0.106-0.842,0.658-1.735,1.398-2.214
					c0.262-0.172,0.548-0.305,0.548-0.305S695.611,11.091,695.556,11.577 M703.745,11.183c-0.294-0.046-0.527-0.298-0.69-0.598
					c-1.384-0.03-2.669,0.59-3.742,1.377c0.777-0.293,1.588-0.445,2.423-0.445c0.498,0,1.094,0.123,1.503,0.455
					c-0.005-0.166,0.047-0.327,0.18-0.435C703.529,11.432,703.65,11.316,703.745,11.183 M695.897,14.941
					c-0.381,0.584-0.438,0.615-0.661,0.976c-0.273,0.47-0.543,0.989-0.782,1.539c-0.291,0.803-0.44,1.057-1.022,3.632l-0.152,1.433
					c-0.048,0.545-0.062,0.988-0.062,1.469c0,0.467,0.021,0.944,0.056,1.406c0.035,0.496,0.075,0.726,0.121,1.212
					c0.891,6.575,4.939,12.32,8.851,12.32c0.38,0,0.848-0.112,1.126-0.344c0.323-0.264,0.429-0.765,0.245-1.128
					c-0.154-0.28-0.511-0.421-0.806-0.28c-0.18,0.075-0.302,0.225-0.345,0.419c-0.011,0.053-0.1,0.644,0.128,0.806
					c0.085,0.055,0.194,0.084,0.327,0.021c0,0-0.071,0.167-0.451,0.201l-0.227-0.009c-4.316-0.249-8.484-7.531-8.484-14.508
					c0-7.141,3.863-11.672,8.238-11.672l0.459,0.007c0.092,0.008,0.209,0.022,0.335,0.114c-0.13,0.063-0.181,0.104-0.256,0.15
					c-0.352,0.232-0.324,0.578,0.034,0.811c0.332,0.223,0.804,0.016,0.844-0.385c0.109-0.941-0.785-1.33-1.675-1.33
					C699.555,11.8,697.458,12.908,695.897,14.941 M691.188,25.345c0.448,0.351,1.045,0.331,1.478,0.242
					c-0.012-0.344-0.064-1.893-0.018-2.33c0,0-0.725,0.038-1.166-0.039c-0.438-0.077-0.787-0.07-0.648,1.016
					C690.912,24.841,691.067,25.17,691.188,25.345 M704.468,13.313c0.099,0,0.188-0.083,0.188-0.184
					c0-0.109-0.088-0.194-0.188-0.194c-0.11,0-0.192,0.085-0.192,0.194C704.276,13.23,704.364,13.313,704.468,13.313
					 M691.271,27.719c-0.089,0.06-0.202,0.121-0.327,0.179c0.357,2.016,1.011,3.973,1.918,5.805c0.796,1.6,2.222,3.459,3.542,4.654
					c1.738,1.588,3.652,2.316,5.768,3.245c1.03,0.452,1.522,1.134,1.595,1.464c0.026,0.097,0.055,0.269,0.07,0.302l-0.27-0.152
					c-0.325-0.196-0.62-0.077-0.616,0.191c0,0.298,0.318,0.557,0.613,0.472c0.384-0.104,0.62-0.498,0.604-0.859
					c-0.299-0.194-0.515-0.513-0.551-0.884c-0.208-0.17-0.454-0.307-0.696-0.437c-0.356-0.191-0.719-0.38-1.089-0.552
					c-1.731-0.757-3.493-1.537-4.937-2.785c-1.504-1.305-2.759-3.049-3.662-4.804C692.286,31.73,691.62,29.752,691.271,27.719
					 M705.975,11.161c0.096,0.145,0.21,0.269,0.327,0.375c0.116,0.094,0.172,0.225,0.18,0.366c0.405-0.281,0.948-0.385,1.408-0.385
					c0.835,0,1.646,0.152,2.427,0.445c-1.073-0.787-2.361-1.406-3.744-1.377C706.429,10.851,706.225,11.086,705.975,11.161
					 M706.7,9.338c0.408-0.355,0.672-0.84,0.495-1.41l-0.04-0.121c-0.351-0.123-1.065,0.373-1.305,0.547
					c-0.241,0.169-0.39,0.138-0.39,0.138c0.056-0.044,0.119-0.17,0.174-0.307l0.052-0.126c0.135-0.348,0.461-1.394-0.059-2.011
					c-0.437-0.518-0.661-1.041-0.767-1.385c-0.109,0.344-0.329,0.866-0.763,1.385c-0.538,0.629-0.182,1.711-0.054,2.035l0.049,0.121
					c0.045,0.104,0.114,0.263,0.18,0.319c0,0-0.216,0.039-0.549-0.276c-0.273-0.188-0.853-0.541-1.153-0.44l-0.044,0.121
					c-0.176,0.57,0.114,1.052,0.534,1.403c1.341,0.046,1.894,1.254,1.273,1.691c-0.081,0.056-0.161,0.097-0.236,0.126
					c-0.118,0.23-0.302,0.431-0.494,0.595c-0.216,0.191,0.545,1.891,1.009,0.114l0.134-0.518c0.016-0.07,0.07-0.191,0.113-0.234
					c0,0,0.066,0.104,0.115,0.217l0.128,0.535c0.469,1.777,1.232,0.077,1.013-0.114c-0.187-0.157-0.37-0.36-0.485-0.588
					c-0.176-0.037-0.255-0.077-0.337-0.134c-0.618-0.438-0.027-1.645,1.319-1.691L706.7,9.338z M703.782,44.105l-0.142,0.043
					c-0.484,0.138-0.969-0.266-0.971-0.738c-0.008-0.475,0.362-0.601,0.693-0.552l-0.1-0.14c-0.206-0.257-0.571-0.581-1.199-0.859
					c-2.158-0.946-4.066-1.677-5.846-3.294c-1.352-1.22-2.794-3.107-3.607-4.736c-0.911-1.839-1.582-3.806-1.948-5.834
					c-0.34-0.044-5.894-1.031-4.078-8.858c1.853-7.959,7.002-9.038,7.04-9.045c1.234-0.414,2.72-0.23,3.495,0.958
					c0.086,0.136,0.147,0.266,0.18,0.385c0.81-0.68,1.504-1.561,1.633-2.555c0.009-0.085,0.032-0.348-0.014-0.477
					c0.035-0.01,0.123,0.009,0.183,0.014c0.843,0.082,0.858,0.888,0.711,1.484c1.15-1.087,0.934-2.17,0.641-2.664
					c-0.203-0.351-0.505-0.317-0.657-0.273c0.205,1.147-1.727,1.091-1.418-0.298c0.273-1.215,2.377-1.181,3.142,0.07
					c0.616,1,0.287,2.188-0.238,3.115c0.525-0.293,0.987-0.448,1.399-0.494c-0.375-0.409-0.599-0.917-0.427-1.508
					c0.048-0.133,0.09-0.217,0.09-0.217c0.37-0.223,0.809-0.044,1.115,0.123l0.22,0.126c-0.595-1.994,0.766-2.089,0.996-3.628
					l0.046-0.28c0.03-0.189,0.245-0.198,0.277-0.003l0.047,0.278c0,0,0.035,0.206,0.148,0.508c0.115,0.307,0.311,0.709,0.648,1.111
					c0.47,0.555,0.393,1.37,0.205,2.014l0.22-0.126c0.3-0.167,0.741-0.346,1.06-0.177c0.052,0.054,0.101,0.138,0.143,0.271
					c0.177,0.591-0.03,1.109-0.415,1.515c0.384,0.063,0.816,0.216,1.295,0.487c-0.521-0.927-0.85-2.115-0.241-3.115
					c0.762-1.251,2.877-1.285,3.142-0.07c0.305,1.389-1.616,1.445-1.413,0.298c-0.155-0.044-0.457-0.077-0.663,0.273
					c-0.287,0.494-0.502,1.577,0.644,2.664c-0.142-0.595-0.131-1.402,0.715-1.484c0.058-0.005,0.141-0.024,0.18-0.014
					c-0.046,0.128-0.023,0.391-0.016,0.477c0.13,0.994,0.826,1.875,1.636,2.555c0.034-0.119,0.091-0.249,0.177-0.385
					c0.773-1.188,2.26-1.372,3.492-0.958c0.037,0.007,5.192,1.086,7.042,9.045c1.823,7.827-3.735,8.814-4.075,8.858
					c-0.367,2.028-1.034,3.995-1.955,5.834c-0.805,1.629-2.249,3.516-3.602,4.736c-1.777,1.616-3.692,2.348-5.844,3.294
					c-0.633,0.278-0.992,0.602-1.196,0.859l-0.109,0.14c0.335-0.048,0.7,0.077,0.698,0.552c-0.004,0.472-0.491,0.876-0.977,0.738
					l-0.119-0.041c-0.095,0.138-0.245,0.358-0.388,0.602c-0.25,0.414-0.478,0.852-0.484,1.065c-0.006,0.068-0.075,0.128-0.142,0.128
					c-0.135,0-0.198-0.06-0.208-0.128C704.631,45.423,704.074,44.537,703.782,44.105 M705.23,13.313
					c0.102,0,0.188-0.083,0.188-0.184c0-0.109-0.086-0.194-0.188-0.194c-0.106,0-0.193,0.085-0.193,0.194
					C705.037,13.23,705.125,13.313,705.23,13.313 M702.932,41.254c-0.013-0.075-0.011-0.37,0.813-0.641c0,0-0.838,0.341-0.727,0.67
					c0.449,0,0.692-0.16,0.916-0.431c0.023-0.031,0.073-0.084,0.13-0.113c0.099-0.024,0.143-0.015,0.179,0
					c0.08,0.067,0.097,0.092,0.112,0.121c0.018,0.198-0.064,0.268-0.141,0.322c-0.149,0.121-0.206,0.203-0.259,0.276
					c-0.103,0.167-0.159,0.356-0.159,0.554c0.337,0.218,0.679-0.641,0.679-0.641c-0.307,0.954-0.674,0.811-0.674,0.811
					c0.056,0.305,0.244,0.556,0.505,0.706c0.379-0.007,0.484-0.748,0.512-1.112l0.016-0.129l0.008,0.129
					c0.027,0.358,0.132,1.084,0.498,1.112c0.251-0.15,0.439-0.402,0.494-0.694c-0.096,0.003-0.384-0.041-0.64-0.823
					c0,0,0.324,0.804,0.651,0.734c0.003-0.438-0.169-0.741-0.43-0.927c-0.037-0.034-0.095-0.084-0.122-0.142
					c-0.027-0.094-0.019-0.136,0-0.182c0.203-0.205,0.356-0.089,0.468,0.037c0.247,0.291,0.54,0.406,0.803,0.406
					c0.206-0.341-0.636-0.682-0.636-0.682c0.87,0.285,0.837,0.602,0.823,0.662c0.301-0.06,0.552-0.241,0.693-0.498
					c0-0.384-0.735-0.488-1.107-0.523l-0.141-0.005l0.147-0.014c0.358-0.027,1.059-0.134,1.101-0.487
					c-0.146-0.254-0.4-0.443-0.698-0.498c0.009,0.095-0.031,0.382-0.818,0.648c0,0,0.808-0.331,0.73-0.653
					c-0.453-0.012-0.716,0.152-0.926,0.423c-0.033,0.034-0.077,0.091-0.136,0.121c-0.094,0.019-0.139,0.016-0.177-0.008
					c-0.254-0.242-0.038-0.387,0.108-0.503c0.21-0.191,0.347-0.47,0.342-0.816c-0.327-0.121-0.676,0.721-0.676,0.721
					c0.274-0.827,0.585-0.832,0.669-0.818c-0.042-0.285-0.207-0.534-0.437-0.687c-0.436-0.089-0.557,0.722-0.584,1.106l-0.008,0.128
					l-0.016-0.13c-0.032-0.373-0.14-1.147-0.548-1.113c-0.236,0.159-0.401,0.412-0.445,0.704c0.076-0.016,0.384-0.009,0.651,0.811
					c0,0-0.331-0.82-0.658-0.728c0,0.433,0.168,0.68,0.437,0.895c0.388,0.317-0.019,0.668-0.302,0.336
					c-0.266-0.324-0.543-0.457-0.854-0.457c-0.177,0.331,0.647,0.668,0.647,0.668c-0.813-0.269-0.827-0.571-0.813-0.653
					c-0.301,0.048-0.552,0.227-0.705,0.481c0.02,0.37,0.737,0.477,1.105,0.509l0.132,0.014l-0.132,0.005
					c-0.367,0.034-1.118,0.143-1.105,0.533C702.371,41.034,702.639,41.2,702.932,41.254 M707.581,40.264
					c0-0.136-0.022-0.255-0.068-0.376c-0.075,0.131-0.291,0.315-0.878,0.361c0.614,0.039,0.816,0.237,0.885,0.366
					C707.559,40.503,707.581,40.39,707.581,40.264 M702.082,40.259c0,0.131,0.018,0.252,0.062,0.366
					c0.066-0.128,0.264-0.331,0.893-0.375c-0.615-0.046-0.818-0.24-0.884-0.373C702.1,40,702.082,40.123,702.082,40.259
					 M692.167,27.157c0,0,0.034,0.489-0.298,0.741c0,0,0.442,2.439,0.785,3.168l1.113-0.339c0,0-0.783-2.437-0.887-3.516
					L692.167,27.157z M693.19,32.486c0.269,0.774,1.347,2.589,1.347,2.589l1.037-0.559c-0.743-1.171-1.288-2.48-1.288-2.48
					L693.19,32.486z M707.899,40.796l-0.214-1.592l-0.298,0.009c-0.08,0-0.165-0.005-0.247-0.009
					c0.377,0.203,0.626,0.602,0.626,1.06c0,0.254-0.081,0.496-0.209,0.689l0.128-0.06L707.899,40.796z M716.729,27.184
					c-0.171,1.36-0.903,3.548-0.903,3.548l1.104,0.334c0.437-1.053,0.766-3.168,0.766-3.168c-0.38-0.39-0.282-0.748-0.282-0.748
					C717.309,27.174,716.729,27.184,716.729,27.184 M711.276,37.531l-0.331,0.277l0.819,0.955c0.141-0.099,0.28-0.203,0.419-0.312
					L711.276,37.531z M711.825,36.665l-0.646,0.61L711.825,36.665z M714.99,35.37l-1.303-0.73l-0.227,0.341l1.208,0.845
					L714.99,35.37z M715.332,31.295l1.521,0.612l0.202-0.516l-1.581-0.479L715.332,31.295z M715.322,32.055
					c-0.216,0.576-1.286,2.478-1.286,2.478l1.012,0.552c0.605-0.906,1.343-2.609,1.343-2.609L715.322,32.055z M708.794,40.397
					l-0.366-1.309c-0.134,0.034-0.27,0.063-0.406,0.077l0.265,1.467L708.794,40.397z M710.601,38.231
					c-1.102,0.733-1.876,0.878-1.876,0.878l0.351,1.164c0.761-0.363,1.515-0.741,2.22-1.198L710.601,38.231z M698.177,29.65
					c0.038-0.037,0.21-0.216,0.378-0.394c0.081,0.043,0.418,0.223,0.869,0.389c0.48,0.187,1.122,0.378,1.768,0.434
					c-0.117,0.186-0.25,0.358-0.382,0.505c-0.136,0.145-0.202,0.363-0.202,0.564c0,0.099,0.017,0.198,0.061,0.28
					c0.027,0.046,0.06,0.077,0.096,0.123l0.116,0.123c0.062,0.099,0.089,0.213,0.102,0.322c0.027,0.48-0.22,0.571-0.541,0.586
					c-0.15,0.007-0.322-0.002-0.498,0.007c-0.173,0.007-0.342,0.037-0.498,0.106c-0.312,0.167-0.555,0.325-0.731,0.419
					c-0.172,0.085-0.322,0.131-0.423-0.014c-0.094-0.143,0.139-0.504,0.366-0.811c0.247-0.312,0.516-0.634,0.591-0.73
					c0.089-0.126,0.018-0.252-0.031-0.313c-0.241,0.259-0.555,0.245-0.682,0.073c-0.068-0.092-0.046-0.201-0.022-0.269
					c0.046-0.111,0.025-0.133-0.004-0.138c-0.154-0.068-0.166-0.109-0.168-0.148l0.086-0.126c-0.084-0.021-0.104-0.031-0.12-0.045
					c-0.04-0.034-0.134-0.158,0.057-0.271c0.066-0.039,0.103-0.095,0.115-0.134l-0.162-0.102c-0.103-0.024-0.251-0.065-0.266-0.196
					C698.04,29.785,698.109,29.698,698.177,29.65 M702.246,31.201c0-0.143-0.041-0.655-0.505-0.805
					C701.732,30.523,701.75,31.017,702.246,31.201 M701.732,30.727c-0.041-0.133-0.053-0.273-0.04-0.409
					c0.289,0.084,0.461,0.259,0.554,0.534c0.044,0.133,0.062,0.278,0.059,0.419C702.011,31.181,701.82,31.017,701.732,30.727
					 M701.497,30.277c0.074-0.002,0.136-0.066,0.136-0.143c-0.009-0.184-0.291-0.172-0.28,0.005
					C701.353,30.216,701.419,30.284,701.497,30.277 M701.5,30.332c-0.108,0.005-0.2-0.08-0.204-0.184
					c-0.007-0.257,0.383-0.273,0.39-0.015C701.69,30.24,701.604,30.332,701.5,30.332 M701.472,28.63
					c0.145,0.451,0.024,0.908-0.198,1.309c-0.188-0.188-0.336-0.341-0.53-0.498c-0.393-0.317-0.969-0.709-1.691-0.988
					c0.13-0.271,0.406-0.578,0.946-0.694c0.146-0.031,0.315-0.041,0.472-0.034C701,27.755,701.321,28.169,701.472,28.63
					 M701.818,29.909c0.278-0.242,0.605-0.309,0.959-0.121c-0.263,0.3-0.676,0.375-1.062,0.225L701.818,29.909z M701.809,29.991
					c0.543,0.172,0.881-0.188,0.881-0.188C702.168,29.567,701.809,29.991,701.809,29.991 M701.82,18.571
					c0.543,0.172,0.882-0.184,0.882-0.184C702.175,18.148,701.82,18.571,701.82,18.571 M701.832,18.494
					c0.28-0.252,0.602-0.315,0.956-0.121c-0.26,0.295-0.672,0.365-1.065,0.22L701.832,18.494z M701.483,17.209
					c0.149,0.457,0.026,0.909-0.195,1.312c-0.188-0.194-0.34-0.339-0.536-0.502c-0.392-0.316-0.967-0.709-1.691-0.98
					c0.126-0.278,0.405-0.588,0.948-0.699c0.152-0.03,0.315-0.046,0.47-0.037C701.009,16.335,701.331,16.751,701.483,17.209
					 M701.509,18.907c-0.105,0.008-0.197-0.08-0.197-0.184c-0.016-0.252,0.378-0.269,0.386-0.01
					C701.699,18.818,701.617,18.907,701.509,18.907 M701.509,18.859c0.077-0.005,0.137-0.067,0.134-0.145
					c-0.007-0.188-0.286-0.174-0.278,0.01C701.365,18.798,701.434,18.861,701.509,18.859 M701.74,19.302
					c-0.041-0.126-0.05-0.269-0.035-0.402c0.288,0.08,0.462,0.256,0.548,0.532c0.052,0.136,0.065,0.279,0.059,0.423
					C702.025,19.759,701.832,19.592,701.74,19.302 M702.257,19.78c-0.004-0.142-0.044-0.658-0.507-0.81
					C701.743,19.103,701.762,19.592,702.257,19.78 M698.189,18.225c0.04-0.032,0.211-0.206,0.377-0.388
					c0.084,0.041,0.417,0.216,0.87,0.382c0.488,0.189,1.122,0.385,1.767,0.441c-0.116,0.184-0.248,0.351-0.379,0.504
					c-0.134,0.142-0.205,0.367-0.205,0.563c-0.002,0.102,0.02,0.194,0.064,0.276c0.023,0.048,0.062,0.092,0.097,0.123l0.112,0.136
					c0.062,0.092,0.093,0.203,0.099,0.317c0.031,0.472-0.219,0.571-0.535,0.585c-0.155,0.002-0.327-0.007-0.499,0.002
					c-0.178,0.01-0.344,0.034-0.491,0.107c-0.322,0.166-0.56,0.327-0.743,0.419c-0.167,0.084-0.32,0.13-0.415-0.012
					c-0.103-0.145,0.138-0.503,0.367-0.811c0.238-0.314,0.514-0.629,0.587-0.733c0.088-0.126,0.016-0.254-0.031-0.308
					c-0.237,0.252-0.555,0.244-0.679,0.07c-0.07-0.095-0.051-0.198-0.025-0.271c0.047-0.109,0.025-0.13-0.005-0.142
					c-0.155-0.063-0.163-0.109-0.163-0.138l0.083-0.133c-0.083-0.022-0.105-0.022-0.115-0.039c-0.038-0.039-0.136-0.159,0.052-0.271
					c0.066-0.044,0.099-0.092,0.116-0.135l-0.166-0.102c-0.098-0.027-0.245-0.07-0.264-0.196
					C698.052,18.365,698.122,18.283,698.189,18.225 M712.371,18.571c0.545,0.172,0.88-0.184,0.88-0.184
					C712.729,18.148,712.371,18.571,712.371,18.571 M712.381,18.494c0.284-0.252,0.606-0.315,0.959-0.121
					c-0.259,0.295-0.673,0.365-1.059,0.22L712.381,18.494z M712.039,17.209c0.144,0.457,0.02,0.909-0.204,1.312
					c-0.181-0.194-0.335-0.339-0.528-0.502c-0.394-0.316-0.966-0.709-1.684-0.98c0.12-0.278,0.4-0.588,0.94-0.699
					c0.152-0.03,0.317-0.046,0.469-0.037C711.564,16.335,711.887,16.751,712.039,17.209 M712.063,18.907
					c-0.105,0.008-0.198-0.08-0.198-0.184c-0.012-0.252,0.377-0.269,0.383-0.01C712.256,18.818,712.167,18.907,712.063,18.907
					 M712.059,18.859c0.08-0.005,0.141-0.067,0.133-0.145c0-0.188-0.283-0.174-0.28,0.01
					C711.918,18.798,711.986,18.861,712.059,18.859 M712.293,19.302c-0.037-0.126-0.051-0.269-0.033-0.402
					c0.284,0.08,0.458,0.256,0.549,0.532c0.041,0.136,0.063,0.279,0.059,0.423C712.575,19.759,712.381,19.592,712.293,19.302
					 M712.809,19.78c0-0.142-0.041-0.658-0.503-0.81C712.295,19.103,712.313,19.592,712.809,19.78 M708.741,18.225
					c0.044-0.032,0.209-0.206,0.377-0.388c0.081,0.041,0.418,0.216,0.873,0.382c0.483,0.189,1.12,0.385,1.763,0.441
					c-0.116,0.184-0.247,0.351-0.385,0.504c-0.128,0.142-0.198,0.367-0.198,0.563c0,0.102,0.018,0.194,0.07,0.276
					c0.018,0.048,0.055,0.092,0.088,0.123l0.116,0.136c0.062,0.092,0.095,0.203,0.098,0.317c0.03,0.472-0.215,0.571-0.534,0.585
					c-0.153,0.002-0.326-0.007-0.498,0.002c-0.177,0.01-0.347,0.034-0.497,0.107c-0.317,0.166-0.555,0.327-0.733,0.419
					c-0.179,0.084-0.329,0.13-0.426-0.012c-0.093-0.145,0.145-0.503,0.368-0.811c0.242-0.314,0.518-0.629,0.586-0.733
					c0.089-0.126,0.018-0.254-0.024-0.308c-0.244,0.252-0.557,0.244-0.683,0.07c-0.069-0.095-0.054-0.198-0.023-0.271
					c0.047-0.109,0.023-0.13-0.004-0.142c-0.161-0.063-0.162-0.109-0.169-0.138l0.087-0.133c-0.08-0.022-0.11-0.022-0.123-0.039
					c-0.031-0.039-0.13-0.159,0.064-0.271c0.059-0.044,0.091-0.092,0.114-0.135l-0.167-0.102c-0.103-0.027-0.251-0.07-0.26-0.196
					C708.606,18.365,708.675,18.283,708.741,18.225 M712.357,29.991c0.541,0.172,0.882-0.188,0.882-0.188
					C712.718,29.567,712.357,29.991,712.357,29.991 M712.368,29.909c0.277-0.242,0.606-0.309,0.961-0.121
					c-0.268,0.3-0.677,0.375-1.067,0.225L712.368,29.909z M712.021,28.63c0.144,0.451,0.023,0.908-0.196,1.309
					c-0.188-0.188-0.34-0.341-0.532-0.498c-0.396-0.317-0.967-0.709-1.686-0.988c0.123-0.271,0.402-0.578,0.943-0.694
					c0.148-0.031,0.314-0.041,0.47-0.034C711.552,27.755,711.869,28.169,712.021,28.63 M712.044,30.332
					c-0.104,0.005-0.191-0.08-0.197-0.184c-0.013-0.257,0.38-0.273,0.39-0.015C712.237,30.24,712.151,30.332,712.044,30.332
					 M712.044,30.277c0.078-0.002,0.138-0.066,0.138-0.143c-0.004-0.184-0.287-0.172-0.278,0.005
					C711.904,30.216,711.967,30.284,712.044,30.277 M712.28,30.727c-0.043-0.133-0.056-0.273-0.038-0.409
					c0.285,0.084,0.462,0.259,0.551,0.534c0.047,0.133,0.058,0.278,0.058,0.419C712.557,31.181,712.368,31.017,712.28,30.727
					 M712.796,31.201c0-0.143-0.041-0.655-0.503-0.805C712.284,30.523,712.295,31.017,712.796,31.201 M708.725,29.65
					c0.044-0.037,0.214-0.216,0.377-0.394c0.083,0.043,0.423,0.223,0.869,0.389c0.487,0.187,1.124,0.378,1.77,0.434
					c-0.115,0.186-0.252,0.358-0.385,0.505c-0.13,0.145-0.195,0.363-0.195,0.564c-0.005,0.099,0.014,0.198,0.06,0.28
					c0.027,0.046,0.055,0.077,0.093,0.123l0.114,0.123c0.068,0.099,0.095,0.213,0.099,0.322c0.034,0.48-0.219,0.571-0.535,0.586
					c-0.148,0.007-0.325-0.002-0.497,0.007c-0.176,0.007-0.346,0.037-0.498,0.106c-0.318,0.167-0.552,0.325-0.73,0.419
					c-0.177,0.085-0.328,0.131-0.426-0.014c-0.101-0.143,0.14-0.504,0.368-0.811c0.241-0.312,0.521-0.634,0.589-0.73
					c0.087-0.126,0.02-0.252-0.033-0.313c-0.238,0.259-0.549,0.245-0.683,0.073c-0.069-0.092-0.049-0.201-0.02-0.269
					c0.046-0.111,0.024-0.133,0-0.138c-0.156-0.068-0.17-0.109-0.17-0.148l0.088-0.126c-0.083-0.021-0.11-0.031-0.125-0.045
					c-0.036-0.034-0.13-0.158,0.059-0.271c0.066-0.039,0.099-0.095,0.112-0.134l-0.164-0.102c-0.097-0.024-0.242-0.065-0.264-0.196
					C708.591,29.785,708.661,29.698,708.725,29.65 M718.845,25.734c-0.081,0.062-0.149,0.106-0.198,0.133
					c0.632-0.53,0.829-1.299,0.86-1.919c0.013-0.306-0.016-0.577-0.051-0.775c-0.035-0.196-0.069-0.322-0.069-0.322l-0.047-0.152
					l0.091,0.141c0.515,1.06,0.304,1.83-0.045,2.338C719.215,25.429,719.006,25.613,718.845,25.734 M719.479,20.677
					c-0.111,0.556-0.405,0.944-0.405,0.944c0.294-1.021,0.23-1.737,0.088-2.2c-0.067-0.227-0.155-0.404-0.232-0.513
					c-0.034-0.053-0.068-0.094-0.092-0.123l-0.19-0.223l0.177,0.158C719.537,19.389,719.602,20.117,719.479,20.677 M718.137,16.536
					c-0.08,0.479-0.352,0.83-0.352,0.83c0.557-1.631-0.307-2.355-0.422-2.445l-0.254-0.208l0.279,0.177
					C718.124,15.425,718.223,16.052,718.137,16.536 M690.734,25.722c-0.163-0.123-0.37-0.307-0.544-0.562
					c-0.349-0.508-0.554-1.277-0.037-2.333l0.088-0.142l-0.05,0.155c0,0-0.034,0.121-0.066,0.32
					c-0.038,0.198-0.067,0.467-0.052,0.779c0.031,0.615,0.232,1.384,0.962,1.934C690.885,25.828,690.813,25.78,690.734,25.722
					 M690.104,20.655c-0.117-0.559-0.052-1.288,0.655-1.96l0.188-0.155l-0.158,0.184c-0.062,0.068-0.094,0.104-0.127,0.164
					c-0.077,0.112-0.167,0.279-0.24,0.513c-0.14,0.458-0.197,1.179,0.131,2.18l0.045,0.123
					C690.522,21.601,690.225,21.211,690.104,20.655 M691.432,16.528c-0.085-0.484,0.016-1.108,0.748-1.643l0.28-0.177l-0.253,0.21
					c-0.113,0.085-0.979,0.806-0.38,2.42l0.044,0.123C691.79,17.356,691.521,17.008,691.432,16.528 M705.356,9.607
					c0,0,0.38-1.106,1.557-1.491C706.913,8.116,706.624,8.952,705.356,9.607 M704.841,5.764c0,0,0.711,1.781-0.078,2.853
					C704.763,8.617,704.128,7.705,704.841,5.764 M704.35,9.658c-1.273-0.655-1.563-1.495-1.563-1.495
					C703.965,8.555,704.35,9.658,704.35,9.658 M704.807,40.82c-0.291,0-0.52-0.232-0.52-0.52c0-0.288,0.23-0.518,0.52-0.518
					c0.283,0,0.52,0.23,0.52,0.518C705.328,40.588,705.09,40.82,704.807,40.82 M704.807,40.637c0.184,0,0.327-0.15,0.327-0.337
					c0-0.184-0.143-0.331-0.327-0.331c-0.189,0-0.337,0.148-0.337,0.331C704.47,40.487,704.618,40.637,704.807,40.637"/>
				<text transform="matrix(1 0 0 1 660.0635 54.9463)"><tspan x="0" y="0" font-family="'FuturaStd-Bold'" font-size="4.7684">REGIONE AUTÒNOMA DE SARDIGNA</tspan><tspan x="-4.69" y="5.549" font-family="'FuturaStd-Bold'" font-size="4.7684">REGIONE AUTONOMA DELLA SARDEGNA</tspan></text>
			</g>
			<g>
				<text transform="matrix(1 0 0 1 593.8204 54.8448)" font-family="'MyriadPro-Bold'" font-size="5.914">REPUBBLICA ITALIANA</text>
				<g>
					<path fill="#7E631D" d="M636.907,28.33c0-0.278-0.461-0.428-0.461-0.428c-0.841,0-0.583-0.663-0.583-0.663
						s0.109-0.513,0.265-0.663c0,0-0.216-0.816,0.486-0.848c0,0,0.26,0.015,0.394-0.036c0,0,0.172-0.159,0.338-0.159
						c0.059,0,0.059-0.039,0.059-0.039s0.115-0.712,0.712-0.685c0,0,0.355-0.005,0.578,0.305l0.75,0.51l0.501,1.07L638.7,27.44
						l-0.167,0.944l-0.634-0.322L636.907,28.33z"/>
					<path fill="#B7A842" d="M637.085,35.714c-0.519,0.337-1.087,0.295-1.087,0.295c-1.253-0.186-1.39,0.523-1.39,0.523
						l-0.683-0.283l0.915-1.675c0,0-0.195-0.135,0.006-0.445l1.784-2.316l0.341,0.862c0,0-0.327,0.155-0.348,0.545
						c0,0,0.02,0.629,0.16,0.847c0,0-0.091,0.109-0.2,0.392c0,0-0.132,0.402,0.062,0.75
						C636.644,35.209,636.759,35.579,637.085,35.714z"/>
					<path fill="#BBA695" d="M608.932,32.016c-1.989-4.523-1.734-5.455-1.734-5.455c-1.827-7.277,2.792-11.34,2.792-11.34
						l1.979-2.389l-0.711,1.924c-5.605,8.341-2.326,15.711-2.326,15.711V32.016z"/>
					<path fill="#D1D6E9" d="M637.686,25.1v-1.631l-1.298-0.249c-0.051-0.69-0.161-1.363-0.312-2.016l1.362-0.753l-0.503-1.546
						l-1.552,0.191c-0.258-0.617-0.556-1.213-0.896-1.777l1.057-1.132l-0.963-1.331l-1.413,0.675
						c-0.429-0.51-0.898-0.983-1.403-1.416l0.553-1.181l-1.32-0.96l-0.946,0.885c-0.614-0.377-1.261-0.716-1.934-0.99l0.163-1.277
						l-1.561-0.511l-0.622,1.138c-0.652-0.145-1.327-0.259-2.019-0.315l-0.248-1.299H622.2l-0.242,1.299
						c-0.694,0.056-1.367,0.17-2.022,0.315l-0.633-1.138l-1.556,0.498l0.159,1.293c-0.664,0.28-1.307,0.614-1.913,0.987
						l-0.951-0.885l-1.313,0.962l0.545,1.186c-0.501,0.434-0.969,0.898-1.405,1.402l-1.43-0.673l-0.962,1.319l1.08,1.154
						c-0.348,0.559-0.645,1.155-0.906,1.759l-1.559-0.188l-0.502,1.548l1.372,0.76c-0.15,0.648-0.254,1.305-0.313,1.982l-1.42,0.271
						v1.628l1.42,0.281c0.063,0.673,0.163,1.334,0.313,1.98l-1.379,0.764l0.509,1.549l1.559-0.196
						c0.255,0.598,0.547,1.184,0.878,1.733l-0.941,1.002l0.963,1.329l1.234-0.584c0.475,0.55,0.975,1.063,1.524,1.53l-0.523,1.13
						l1.286,0.995l0.943-0.884c0.62,0.377,1.266,0.709,1.944,0.995l-0.164,1.261l1.559,0.511l0.627-1.135
						c0.637,0.15,1.291,0.249,1.962,0.302l0.254,1.305h1.629l0.25-1.305c0.703-0.053,1.396-0.164,2.066-0.322l0.638,1.155
						l1.551-0.504l-0.164-1.312c0.627-0.263,1.233-0.566,1.812-0.909l0.952,0.893l1.326-0.961l-0.562-1.188
						c0.557-0.465,1.07-0.973,1.534-1.527l1.186,0.559l0.963-1.319l-0.895-0.961c0.336-0.571,0.645-1.154,0.911-1.773l1.531,0.188
						l0.516-1.556l-1.362-0.75c0.152-0.655,0.262-1.321,0.316-2.009L637.686,25.1z M625.053,13.6
						c3.231,0.602,5.955,2.621,7.499,5.406h-0.005l-7.159,1.83l-0.336-7.234V13.6z M621.001,13.6l0.009,0.002l-0.341,7.234
						l-7.162-1.83h-0.005C615.041,16.221,617.773,14.202,621.001,13.6z M615.193,31.67L615.193,31.67
						c-2.249-2.401-3.252-5.644-2.853-8.797h0.011l6.85,2.759L615.193,31.67z M618.494,34.184v-0.007l4.563-5.624l4.672,5.726h0.003
						C624.841,35.605,621.453,35.605,618.494,34.184z M630.949,31.661L630.949,31.661l-4.01-6.029l6.859-2.763v-0.005
						C634.2,26.02,633.196,29.263,630.949,31.661z"/>
					<path fill="#EFF0F9" stroke="#E41715" stroke-width="0.5696" stroke-linecap="square" stroke-miterlimit="28" d="
						M625.389,20.841h7.898l-6.367,4.784l2.418,7.575l-6.282-4.671l-6.284,4.671l2.439-7.575l-6.427-4.784h7.882l2.362-7.378
						L625.389,20.841z"/>
					<path fill="#B7A842" d="M639.764,23.689c0,0-0.452,0.259-0.209,0.547c0,0,0.203,0.191,0,0.496
						c-0.202,0.317-0.468,0.402-0.468,0.402l-0.097,0.48c-0.022-0.293-0.28-0.487-0.28-0.487c-0.139-0.348-0.441-0.472-0.441-0.472
						c-1.089-0.728-1.603-2.088-1.603-2.088l0.603-0.02l0.454-0.312l0.105-0.588l-0.155-0.402l-0.405-0.076l-0.169-0.152
						l0.159-0.777l0.163-0.344l0.595,0.443l0.554,0.313l-0.177,0.307l-0.053,0.351l0.512,0.627l0.812,0.647l0.141,0.616
						L639.764,23.689z"/>
					<path fill="#AC1917" d="M627.984,38.945l0.271-0.152c0.782-0.496,1.433-0.571,1.433-0.571c0.454-0.082,0.831,0.162,0.831,0.162
						l0.137,0.102l0.11,1.275c0,0-1.863,0.707-3.316,0.823L627.984,38.945z"/>
					<path fill="#B7A842" d="M630.118,10.553c-0.362-0.012-0.423-0.331-0.423-0.331c-0.472-0.099-0.28-0.516-0.28-0.516
						c-0.077-0.198-0.866-0.007-0.866-0.007c-0.479,0.022-0.915-0.416-0.915-0.416c-0.502-0.099-0.483-0.399-0.483-0.399
						c0.114-0.266-0.241-0.262-0.241-0.262c-0.339,0.08-0.698-0.184-0.698-0.184c-0.723-0.138-0.624-0.622-0.624-0.622
						c0.061-0.261-0.18-0.419-0.18-0.419c-0.62-0.459-0.438-0.883-0.438-0.883s0.234-0.542,1.135-0.399c0,0,0.065-0.639,0.627-0.521
						c0,0,0.654,0.019,1.184,0.561c0,0,0.154,0.136,0.361,0.024c0,0,0.338-0.366,1.081,0.334c0,0,0.282-0.02,0.421,0.205
						c0,0,0.298,0.3,0.34,0.457c0,0,0.195,0.502,0.374,0.68c0,0,0.224,0.148,0.192,0.387v0.165"/>
					<path fill="#A38E1E" d="M631.883,11.63c-0.313,0.038-0.595-0.017-0.595-0.017c-1.281-0.194-1.184-1.217-1.184-1.217
						c-0.028-0.218,0.249-0.455,0.249-0.455c0.066-0.121-0.104-0.494-0.104-0.494c-0.173-0.455,0.094-0.818,0.094-0.818
						c0.302-0.458,0.796-0.099,0.796-0.099c0.127,0.191,0.346,0.172,0.346,0.172c0.11,0,0.153-0.24,0.153-0.24
						c0.044-0.291,0.412-0.263,0.412-0.263s0.387,0.048,0.387,0.27l0.034,0.099"/>
					<polygon fill="#7C5D1B" points="631.179,9.622 632.184,10.302 632.43,9.815 					"/>
					<path fill="#BBA615" d="M636.395,12.463c-0.148-0.322-0.058-0.738-0.058-0.738c-0.023-0.332-0.343-1.091-0.343-1.091
						c-0.223-0.663-0.573-0.654-0.573-0.654c-0.284-0.024-0.254,0.377-0.254,0.377c-0.03,0.068-0.091,0.068-0.091,0.068
						c-0.07-0.009-0.13-0.322-0.13-0.322c-0.137-0.666-0.387-1.012-0.387-1.012c-0.515-0.675-0.856-0.38-0.856-0.38
						c-0.211,0-0.279-0.06-0.279-0.06c-0.491-0.31-0.995-0.083-0.995-0.083c-0.413,0.07-0.472,1.099-0.472,1.099
						c-0.07,0.208,0.051,0.435,0.051,0.435c0.216,0.288-0.141,0.383-0.141,0.383c-0.348,0.058-0.297,0.484-0.297,0.484
						c-0.011,0.677,0.644,0.82,0.644,0.82c0.35,0.119,0.549,0.305,0.549,0.305s0.127,0.129,0.127,0.182c0,0-0.042,0.157-0.269,0.056
						c0,0-0.454-0.138-0.454,0.184c0,0-0.17,0.758,0.538,1.084c0,0,1.077,0.535,1.794,0.668c0,0,0.295-0.031,0.359,0.123
						c0,0,0.202,0.334,0.542,0.351c0,0,0.266,0.029,0.484-0.051"/>
					<path fill="#7C5D1B" d="M637.191,22.67c0.538-0.024,0.645-0.818,0.645-0.818c0.148-0.552-0.366-0.646-0.366-0.646
						c-0.505,0.172-0.398-0.377-0.398-0.377c0.255-0.617,0.255-1.14,0.255-1.14c0.127-0.463-0.38-0.513-0.38-0.513
						c0.292-0.3,0.37-1.016,0.37-1.016c0.155-0.545,0-0.794,0-0.794c0.106-0.095,0.07-0.245,0.07-0.245
						c0.087-0.52-0.345-0.54-0.345-0.54c-0.318-0.111-0.995,0.743-0.995,0.743c-0.386,0.269-0.009-0.203-0.009-0.203
						c0.438-0.467,0.473-0.951,0.473-0.951c-0.174-1.285-0.83-1.191-0.83-1.191c-0.273,0.007-0.474,0.748-0.474,0.748
						c-0.113-0.015-0.057-0.181-0.057-0.181c0.05-0.102,0.074-0.373,0.074-0.373c-0.064-0.731-1.37-1.041-1.37-1.041
						s-0.483-0.077-0.483,0.752c0,0-0.144,0.426-0.118,0.719c0,0,0.033,0.334,0.107,0.467c0,0,0.011,0.116-0.094,0.034
						c0,0-0.657-0.166-0.514,0.402c0,0,0.182,0.625,0.466,0.949c0,0,0.152,0.152,0.152,0.239c0,0-0.337,0.109-0.294,0.523
						c0,0,0.026,0.48,0.43,0.721c0,0,1.395,0.533,1.784,1.082c0,0,0.465,0.52,0.692,0.995c0,0,0.191,0.762,0.436,1.053
						C636.418,22.068,636.642,22.67,637.191,22.67z"/>
					<path fill="#9C8A20" d="M639.868,23.689c0.109-0.516,0.463-1.295,0.463-1.295c0.123-0.523,0.798-1.914,0.798-1.914
						c0.162-0.538-0.487-0.359-0.487-0.359c-0.077-0.027,0.196-0.344,0.196-0.344c0.261-0.402,0.301-0.92,0.301-0.92
						c-0.067-0.898-0.592-1.036-0.592-1.036c-0.315-0.038-0.487,0.579-0.487,0.579c0.091-0.13,0.117-0.448,0.117-0.448
						c0.154-0.37,0.179-0.925,0.179-0.925c0.012-0.404-0.193-0.694-0.193-0.694c0.014-0.448-0.141-1.099-0.141-1.099
						c-0.08-0.423-0.653-0.295-0.653-0.295c0.045-0.113,0.021-0.283,0.021-0.283c-0.045-0.322-0.272-0.654-0.272-0.654
						c-0.044-0.534-0.216-0.745-0.216-0.745c-0.18-0.341-0.77-0.142-0.77-0.142l-0.093-0.177l-0.417-0.453
						c-0.44-0.537-0.676-0.448-0.676-0.448s-0.561,0.431-0.756,0.924c0,0-0.157,0.218-0.138,0.545c0,0,0.066,0.239,0.121,0.387
						c0,0-0.037,0.201-0.317,0.302c0,0-0.152,0.383,0.216,0.855l0.404,0.711c0,0-0.091,0.862,0.572,0.797c0,0,0.39-0.061,0.39,0.462
						c0,0-0.029,0.187,0,0.474c0,0-0.283,0.605,0.366,1.075c0,0,0.02,0.234-0.23,0.082c0,0-0.447,0.242-0.284,0.605
						c0,0,0.084,0.753,0.842,1.145c0,0,0.761,0.319,0.407,0.426c0,0-0.3,0.186-0.228,0.426c0,0,0.137,0.375,0.48,0.641l0.763,0.612
						c0,0,0.256,0.254,0.306,1.18"/>
					<path fill="#7E631D" d="M634.419,31.959c-0.243-0.601-0.865-0.901-0.865-0.901c-0.535-0.312-0.528-1.074-0.528-1.074
						c-0.081-0.286-0.459-0.433-0.459-0.433c-0.203-0.158-0.122-0.47-0.122-0.47c0.122-0.269,0.373-0.348,0.373-0.348
						c-0.266-0.557,0.349-0.709,0.349-0.709v-0.298c-0.041-0.331,0.349-0.249,0.349-0.249c0.037-0.121,0-0.223,0-0.223
						c-0.252-0.392-0.266-0.809-0.266-0.809c-0.19-0.188,0.014-0.406,0.014-0.406c-0.245-0.474,0.252-0.743,0.252-0.743
						c0.263-0.17,0.325-0.412,0.325-0.412c0-0.614,0.555-0.723,0.555-0.723s0.502,0.109,0.602,0.359c0,0,0.576,0.099,0.641,0.47
						c0,0,0.406,0.249,0.387,0.74c0,0-0.164,0.615-0.104,0.823c0,0,0.085,0.287-0.207,0.733c0,0-0.143,0.315-0.06,0.644
						c0,0-0.039,0.436,0.371,0.269c0,0,0.741-0.266,0.76,0.366c0,0,0.285,0.314,0.135,0.765c0,0-0.107,0.244-0.031,0.47
						c0,0,0.141,0.336-0.209,0.721l-1.872,2.042L634.419,31.959z"/>
					<path fill="#7E631D" d="M640.732,28.26c0.15,0.284,0.462,0.284,0.462,0.284c0.464-0.037,0.589-0.675,0.589-0.675
						c0.245-0.474-0.079-0.494-0.079-0.494c-0.622,0.102-0.102-0.211-0.102-0.211c0.426-0.341,0.455-0.82,0.455-0.82
						c0.058-0.348-0.154-0.472-0.154-0.472c-0.198-0.084-0.161-0.307-0.161-0.307c0.147-0.513,0.081-0.823,0.081-0.823
						c0.145-0.637-0.801-0.581-0.801-0.581h-0.39c-0.803-0.055-1.03,0.663-1.03,0.663s-0.12,0.276-0.134,0.629
						c0,0-0.064,0.402-0.017,0.566c0,0,0.077,0.501,0.48,0.535l0.172,0.116"/>
					<path fill="#A38E1E" d="M636.911,35.545l-0.219-0.399c-0.262-0.612,0.067-0.878,0.067-0.878
						c0.152-0.209,0.023-0.354,0.023-0.354c-0.171-0.222-0.101-0.428-0.101-0.428c-0.059-0.547,0.287-0.662,0.287-0.662
						c0.252-0.16,0.012-0.33,0.012-0.33c-0.198-0.208-0.13-0.598-0.13-0.598c0-0.309,0.388-0.184,0.388-0.184
						c0.283,0.084-0.084-0.373-0.084-0.373c-0.297-0.533-0.248-0.925-0.248-0.925c0.062-0.77,0.332-0.634,0.332-0.634
						c0.223,0.14,0.223-0.061,0.223-0.061c0-0.102-0.223-0.373-0.223-0.373c-0.434-0.982,0.06-1.273,0.06-1.273
						c0.288-0.247,0.888,0.102,0.888,0.102c0.327,0.373,0.346,0.208,0.346,0.208c0.105-0.038,0-0.416,0-0.416
						c-0.079-0.262,0.167-0.528,0.167-0.528c0.202-0.276,0.612-0.355,0.612-0.355c0.373-0.162,0.99-0.409,0.99-0.409
						s0.105,0.474,0.206,0.74c0,0,0.239,0.528,0.239,0.813c0,0,0.066,0.324,0.351,0.564c0,0,0.165,0.331,0.075,0.617
						c0,0,0.008,0.832-0.562,1.484c0,0-0.243,0.384-0.448,0.646c0,0-0.12,0.225-0.059,0.534c0,0,0.179,0.712-0.67,1.481
						c0,0-0.511,0.225-0.732,0.523c0,0-0.187,0.252-0.187,0.409c0,0,0.085,0.373-0.298,0.622l-0.977,0.477l-0.166,0.116
						L636.911,35.545z"/>
					<path fill="#AC1917" d="M625.939,40.602c0,0,0.703-1.13,1.191-1.352c0,0,0.72-0.443,1.087-0.063c0,0,0.27,0.886,0.023,1.082
						c0,0-0.483,0.307-1.598,0.363L625.939,40.602z"/>
					<path fill="#BBA695" d="M628.402,39.441c0.278-0.58,1.391-0.409,1.391-0.409c0.23-0.327,0.882-0.552,0.882-0.552l0.961-0.811
						c0.161-0.508,0.681-1.077,0.681-1.077c0.459-0.494,0.531-0.802,0.531-0.802c0.062-0.174-0.004-0.479-0.004-0.479
						c-0.081-0.639,0.066-0.893,0.066-0.893l0.185,0.014c0.342,0.048,0.598-0.305,0.598-0.305c0.167-0.239,0.452-0.859,0.452-0.859
						l2.596-2.808l0.159,0.465l0.037,0.291l-2.16,2.824c0,0-0.15,0.196-0.15,0.445c0,0-0.007,0.232-0.374,0.668l-0.492,0.784
						c0,0-0.12,0.329-0.427,0.639l-0.596,0.801c0,0-0.191,0.198-0.116,0.257c0,0,0.062,0.031,0.219-0.198
						c0,0,0.545-0.845,1.084-1.07l0.653,0.173c0,0-0.086,0.427-0.62,0.848c0,0-0.623,0.45-0.719,0.772c0,0-0.072,0.523-0.533,0.552
						c0,0-0.245,0.039-0.316-0.106c0,0-0.104-0.107-0.25,0.044l-1.375,1.11c0,0-0.54,0.271-0.805-0.062c0,0-0.256,0.723-0.951,0.736
						c0,0-0.582,0.002-0.639-0.465C628.371,39.969,628.311,39.734,628.402,39.441z"/>
					<path fill="#7C5D1B" d="M629.43,7.373c0.258,0.373,0.141,0.751,0.141,0.751l-1.287-0.569c-0.238-0.47-0.341-0.646-0.341-0.646
						c0.083,0.198-0.066,0.399-0.066,0.399c-0.992-0.407-1.777-0.445-1.777-0.445s1.001,0.292,1.566,0.682
						c0,0-0.62,0.494-1.441,0.348c0,0,0.258,0.339,1.767-0.106c0,0,0.739,0.261,1.383,0.527c0,0-0.452,0.535-1.12,0.615
						c0,0,0.884-0.024,1.563-0.348l0.438,0.223l0.187-0.298l-0.35-0.198C629.935,7.816,629.43,7.373,629.43,7.373z"/>
					<path fill="#7C5D1B" d="M635.791,13.823c0,0,0.284,0.165,0.383,0.31l-0.017-0.69l-0.426-0.615
						c0.156-0.92-0.091-1.583-0.091-1.583c0.151,0.648-0.131,1.268-0.131,1.268l-1.164-1.434c0.019-0.366-0.205-1.259-0.205-1.259
						c0.05,0.423-0.097,0.97-0.097,0.97l-1.304-1.428l1.606,2.22l-1.326-0.162c0,0,1.245,0.284,1.581,0.652l0.925,1.118l0.155,0.292
						c0,0-1.398-0.609-2.821-0.609C632.86,12.872,635.307,13.363,635.791,13.823z"/>
					<path fill="#7E631D" d="M637.781,14.856l0.406,1.12c0,0-0.756-0.329-0.957-0.441c0,0,0.974,0.569,1.081,0.925
						c0,0,0.44,1.028,0.619,1.72c0,0-0.569-0.278-0.979-0.474c0,0,1.009,0.68,1.116,1.138c0,0,0.128,0.109,0.302,1.212
						c0,0-0.74-0.455-1.417-0.789c0,0,1.36,0.709,1.453,1.292c0,0,0.468,1.275,0.425,2.333l0.056,0.348c0,0,0.125-1.263,0.125-1.658
						c0,0,0.38-0.583,0.443-0.948c0,0-0.356,0.382-0.568,0.554c0,0-0.201-0.88-0.216-1.081c0,0,0.455-0.617,0.678-1.212
						c0,0-0.361,0.547-0.709,0.832c0,0-0.249-1.105-0.409-1.58l-0.049-0.552c0,0,0.474-0.561,0.427-1.396c0,0-0.189,0.58-0.54,1.055
						c0,0-0.547-1.227-0.595-1.341l-0.097-0.409c0,0,0.302-0.929,0.196-1.484c0,0-0.099,0.586-0.35,1.126
						c0,0-0.282-0.709-0.991-2.019c0,0,0.22,0.695,0.291,0.973c0,0-0.366-0.15-0.691-0.201
						C636.831,13.9,637.561,14.147,637.781,14.856z"/>
					<path fill="#7C5D1B" d="M639.529,22.927c0,0-0.412,0.487-0.786,0.249c0,0-0.105-0.043-0.173-0.484
						c-0.417-1.142-0.997-2.263-0.997-2.263c0.377,0.697,0.627,2.185,0.627,2.185c0.041,0.162-0.073,0.291-0.073,0.291
						c-0.262,0.22-0.819-0.048-0.819-0.048s0.101,0.515,0.863,0.343c0,0-0.209,0.494,0.166,1.058c0,0,0.406,0.348,0.531,0.699
						c0,0,0.121-0.351-0.077-0.92c0,0-0.174-0.208-0.059-0.58C638.732,23.457,639.296,23.769,639.529,22.927z"/>
					<path fill="#9C8A20" d="M640.257,26.891l0.098-0.467c0.126-0.898,0.641-1.466,0.641-1.466s-0.549-0.036-0.981,1.44l-0.07,0.298
						l0.402,0.506c0.766-0.24,0.984-0.787,0.984-0.787C640.95,26.83,640.257,26.891,640.257,26.891z"/>
					<path fill="#A38E1E" d="M634.921,27.426c0-0.031,0-0.066,0-0.102c0.526-0.743,0.536-1.285,0.536-1.285
						c0-0.344-0.11-0.651-0.11-0.651c0,0.508-0.287,1.147-0.458,1.478c-0.111-1.132-0.426-2.016-0.426-2.016
						s0.077,0.637,0.134,1.292c-0.184-0.022-0.517-0.077-0.703-0.22c0.151,0.165,0.444,0.445,0.717,0.448
						c0.044,0.465,0.066,0.895,0.05,1.082c0,0,0.031,0.6,0.156,1.297c-0.238-0.053-0.737-0.208-1.218-0.709
						c0,0,0.739,0.856,1.31,1.154c0.08,0.344,0.185,0.688,0.32,0.966c0,0,0.066,0.423,0.103,0.888
						c-0.522-0.252-0.987-0.688-0.987-0.688c-0.397-0.641-0.852-0.823-0.852-0.823s0.481,0.484,0.728,0.99
						c0,0,0.514,0.702,1.138,0.977c0,0.187-0.012,0.356-0.038,0.48l0.334-0.344c0.049-0.441,0.025-0.845,0-1.138
						c0.259-0.595,0.838-1.638,0.838-1.638s-0.637,0.752-0.888,1.268C635.076,28.955,634.921,27.426,634.921,27.426z"/>
					<path fill="#1F1C1F" d="M633.894,25.923c-0.077-0.084-0.114-0.143-0.114-0.143C633.798,25.838,633.842,25.879,633.894,25.923z"
						/>
					<path fill="#9C8A20" d="M638.311,25.79c0,0-1.304,0.066-1.389,1.866l-0.012,0.477l0.381-0.206
						C637.268,26.414,638.311,25.79,638.311,25.79z"/>
					<path fill="#7E631D" d="M639.73,28.023c-0.045,0.348-0.105,0.685-0.176,1.026c-0.267-0.237-0.359-0.53-0.387-0.648
						c0.062,0.339,0.29,0.729,0.352,0.828c-0.151,0.673-0.349,1.309-0.573,1.899c-0.295-1.365-1.042-2.299-1.042-2.299
						s0.84,1.651,0.822,2.873c-0.237,0.573-0.484,1.094-0.712,1.532c-0.293-0.498-0.43-1.012-0.43-1.012
						c-0.022,0.579,0.162,1.027,0.291,1.271c-0.5,0.924-0.906,1.476-0.906,1.476l-0.03,0.307l0.166,0.259l0.116-0.223
						c0.524-0.791,0.934-1.563,1.265-2.295c0.288-0.111,0.791-0.334,1.13-0.723c0,0-0.413,0.273-1.007,0.431
						c0.373-0.886,0.62-1.702,0.79-2.394c0.802-0.23,1.1-0.922,1.1-0.922s-0.661,0.481-1.03,0.627
						C639.73,28.813,639.73,28.023,639.73,28.023z"/>
					<path fill="#1F1C1F" d="M639.167,28.401c-0.005-0.022-0.016-0.046-0.016-0.07C639.151,28.33,639.161,28.36,639.167,28.401z"/>
					<path fill="#A38E1E" d="M635.841,19.667c0.13-0.525,0.454-1.784,0.693-2.159c-0.185,0.247-0.716,0.953-0.894,1.716
						c-0.066-0.128-0.101-0.208-0.101-0.208c-0.261-0.562-0.459-1.109-0.58-1.472c0.057-0.276,0.207-0.864,0.381-1.22
						c-0.155,0.23-0.371,0.576-0.48,0.908c-0.027-0.083-0.044-0.136-0.044-0.136c-0.517-0.958-0.525-1.899-0.525-1.899
						s-0.168,0.658,0.244,1.916c-0.659-0.121-0.998-0.407-0.998-0.407c0.352,0.502,0.923,0.775,1.155,0.866
						c0.042,0.083,0.069,0.16,0.104,0.24c0,0,0.064,0.271,0.192,0.624c-0.715-0.116-1.292-0.419-1.292-0.419
						c0.394,0.559,1.239,0.835,1.486,0.903c0.062,0.135,0.125,0.283,0.201,0.421l0.442,0.92l0.584,1.35l0.245,0.504l-0.178-0.787
						c-0.015-0.097-0.058-0.235-0.106-0.392c0.036-0.242,0.11-0.595,0.244-0.791c-0.096,0.116-0.228,0.317-0.33,0.564
						C636.157,20.371,635.982,19.982,635.841,19.667z"/>
					<path fill="#1F1C1F" d="M635.341,16.325c0.103-0.155,0.184-0.254,0.184-0.254C635.457,16.117,635.399,16.206,635.341,16.325z"
						/>
					<path fill="#1F1C1F" d="M636.534,17.509c0.055-0.053,0.08-0.095,0.08-0.095C636.593,17.434,636.566,17.467,636.534,17.509z"/>
					<path fill="#1F1C1F" d="M636.614,20.146c0.062-0.08,0.113-0.119,0.113-0.119C636.682,20.052,636.644,20.095,636.614,20.146z"/>
					<path fill="#7E631D" d="M635.664,33.302c0.066,1.087,0.689,1.74,0.689,1.74l0.158-0.288
						C635.971,34.107,635.664,33.302,635.664,33.302z"/>
					<path fill="#9C8A20" d="M638.471,26.748c-0.22,0.862-0.82,1.285-0.82,1.285l-0.081-0.256
						C638.105,27.355,638.471,26.748,638.471,26.748z"/>
					<path fill="#7E631D" d="M634.093,35.339c0.624,0.637,1.365,0.702,1.365,0.702l-0.059-0.263
						C634.725,35.678,634.093,35.339,634.093,35.339z"/>
					<path fill="#7E631D" d="M635.121,34.001c0.048,1.171,0.92,2.112,0.92,2.112l0.174-0.309
						C635.64,35.109,635.121,34.001,635.121,34.001z"/>
					<path fill="none" stroke="#1F1C1F" stroke-width="0.2798" stroke-linecap="round" stroke-linejoin="round" d="M634.889,36.063"
						/>
					<path fill="#BBA695" d="M615.852,47.746c-0.817-0.445-0.548-0.77-0.548-0.77c-0.024-0.51,0.747-0.571,0.747-0.571
						c0.759-0.448,2.07-1.454,2.07-1.454l0.357-0.201l3.21-0.998l0.783,0.571l-0.12,0.141l-0.359,0.256
						c-0.126,0.141-0.819,0.511-0.819,0.511c-0.258,0.866-0.855,0.891-0.855,0.891c-0.504,0.225-0.912,0.728-0.912,0.728
						c0.08,0.429-0.084,0.429-0.084,0.429c-0.404,0.341-0.688,0.365-0.688,0.365c-0.284,0.066-0.388,0.569-0.388,0.569
						c-0.649,0.78-1.641,0.227-1.641,0.227S616.013,48.141,615.852,47.746z"/>
					<polygon fill="#AC1917" points="630.936,39.613 631.661,41.556 627.432,40.823 628.649,40.62 					"/>
					<path fill="#CB1817" d="M636.406,37.684c-0.069-0.518-0.179-0.743-0.179-0.743c-0.132-0.661,0.883-0.646,0.883-0.646
						s0.045,0.68,0.198,1.016L636.406,37.684z"/>
					<path fill="#CB1817" d="M610.011,37.568c0-0.9-1.013-0.838-1.013-0.838v0.877L610.011,37.568z"/>
					<path fill="#AC1917" d="M614.819,41.663l1.323-3.175c0,0,0.102-0.397,0.718-0.112c0,0,1.677,0.659,2.512,0.848
						c0,0,0.484,0.027,0.906,0.709l0.497,0.775"/>
					<path fill="#CB1817" d="M625.136,40.659c0,0,0.527-0.269,4.162,0.583c0,0,2.019,0.489,3.745,0.53c0,0,0.626,0.121,1.264-0.341
						c0,0,3.044-2.551,4.448-3.159l0.878-0.506c0,0,0.425-0.387,0.463,0.39c0,0,0.136,1.273,0.729,2.296
						c0,0,0.412,0.244-0.015,0.687c0,0-0.552,0.794-3.684,2.805c0,0-1.032,0.816-1.849,1.384c0,0-0.282,0.329-1.02,0.266
						c0,0-2.705,0.099-5.488-0.552c0,0-2.169-0.45-3.106-0.692l-1.047-0.244"/>
					<path fill="#AC1917" d="M636.386,39.823c0,0,0.132-1.491,0.002-2.273c0,0-0.002-0.237,0.344-0.234c0,0,3.348-0.121,3.327,0.53
						L636.386,39.823z"/>
					<path fill="#AC1917" d="M606.436,37.813c0.097-0.145,0.667-0.134,0.667-0.134l2.907-0.111v0.009c0,0-0.26,1.166-0.021,2.469
						l0.005,0.133l-3.123-1.698l-0.49-0.46L606.436,37.813z"/>
					<path fill="#AC1917" d="M621.631,44.051l0.543,0.284c0.444,0.387,1.316,0.547,1.316,0.547c0.319,0.017,0.99-0.588,0.99-0.588
						c0.223-0.443,0.633-0.505,0.633-0.505c0.858,0.138,0.914-0.651,0.914-0.651c0-0.409-0.182-0.934-0.182-0.934
						c-0.407-1.041-1.628-1.934-1.628-1.934c-0.466-0.452-0.85-0.187-0.85-0.187s-0.319,0.131-0.523,0.259L621.631,44.051z"/>
					<path fill="#CB1817" d="M606.436,37.81c-0.336,0.166-0.289,1.101-0.289,1.101c-0.057,0.518-0.616,1.748-0.616,1.748
						c-0.206,0.549,0.042,0.781,0.042,0.781c0.516,0.675,1.852,1.682,1.852,1.682c1.246,0.953,4.327,2.594,4.327,2.594
						c0.613,0.36,1.464,0.096,1.464,0.096c3.745-0.307,9.88-2.199,9.88-2.199c0.545-0.187,0.45-0.702,0.45-0.702
						c0.095-0.825-0.514-2.238-0.514-2.238c-0.211-0.583-0.759-0.336-0.759-0.336l-0.641,0.225c-1.926,0.399-8.4,1.343-8.4,1.343
						c-0.975,0.123-1.234-0.284-1.234-0.284c-0.842-0.695-2.165-1.652-2.165-1.652c-1.04-0.702-2.957-1.738-2.957-1.738
						C606.474,38.025,606.386,37.887,606.436,37.81L606.436,37.81z"/>
					<path fill="#BBA695" d="M614.036,37.437l-0.778-0.976c-0.497-0.563-0.327-1.023-0.327-1.023
						c0.128-0.384-0.248-0.699-0.248-0.699c-0.352-0.218-0.507-0.584-0.507-0.584l-1.727-2.906l-0.591,0.83v0.067
						c0,0,0.516,1.123,0.878,1.491c0,0,0.263,0.315,0.388,0.615c0,0,0.179,0.455,0.432,0.699c0,0,0.219,0.191,0.265,0.392
						c0,0,0.084,0.434,0.366,0.584c0,0,0.15,0.45,0.298,0.598c0,0,0.048,0.532,0.687,0.948L614.036,37.437z"/>
					<path fill="#A7A76B" d="M612.589,11.73l1.138-1.605c3.082-4.106,6.081-4.184,6.081-4.184c0.816,0,0.769,0.419,0.769,0.419
						s0.047,0.625-0.791,0.901c0,0-1.552,0.353-4.564,2.884C615.222,10.145,614.16,10.041,612.589,11.73z"/>
					<path fill="#CBC9B5" d="M614.83,11.715c2.005-0.878,4.978-2.723,4.978-2.723c1.461-0.854,1.308-1.584,1.308-1.584
						C621.098,6.991,620.3,7.11,620.3,7.11s-2.525,0.545-5.138,3.22C615.162,10.33,615.162,11.127,614.83,11.715z"/>
					<path fill="#7C5D1B" d="M612.728,11.591c3.816-4.423,6.496-4.884,6.496-4.884s-2.414,0.923-4.823,3.369l-0.976,0.879
						L612.728,11.591z"/>
					<path fill="#7E631D" d="M614.387,11.95c3.566-3.797,5.784-4.07,5.784-4.07s-2.425,0.924-4.83,3.366l-0.972,0.879L614.387,11.95
						z"/>
					<path fill="#CBC9B5" d="M608.396,16.86l0.616-2.677c1.774-4.497,3.973-5.958,3.973-5.958c0.569-0.632,0.818-0.134,0.818-0.134
						s-0.128,1.846-1.695,4.397c0,0-1.197,2.132-3.826,4.934L608.396,16.86z"/>
					<path fill="#B9AB91" d="M610.373,17.339c0.475-2.696,1.778-4.893,1.778-4.893s1.066-1.883,2.968-2.28
						c0,0,0.264,1.021-1.547,4.54L610.373,17.339z"/>
					<path fill="#BBA615" d="M608.045,23.839c0.641-6.534,5.227-9.503,5.227-9.503s1.392,1.755-2.591,6.612
						c0,0-1.467,1.485-1.787,2.137c0,0-0.498,0.728-0.748,1.464L608.045,23.839z"/>
					<path fill="#9F9320" d="M606.914,25.296c-0.612-0.629-1.102-2.231-1.102-2.231c-1.616-5.673,1.797-9.644,1.797-9.644
						c0.438-0.491,0.879-1.164,0.879-1.164s0.195-0.232,0.402-0.211c0,0,0.269,0.107,0.202,0.545c0,0,0.093,0.568,0.005,1.142
						c0,0-0.611,2.993-1.005,4.276c0,0-0.887,3.814-1.159,4.813C606.932,22.823,606.464,24.258,606.914,25.296z"/>
					<path fill="#7C5D1B" d="M608.325,32.263c0.161-3.134,2.784-6.224,2.784-6.224l-0.346,4.225c0,0-1.129,2.575-1.956,3.476
						L608.325,32.263z"/>
					<path fill="#BBA695" d="M611.364,35.842l0.441,0.63c0.949,1.135,1.525,0.951,1.525,0.951c0.137-0.133,0.419-0.116,0.419-0.116
						c0.181,0,0.437,0.315,0.437,0.315c2.633,2.348,2.824,2.079,2.824,2.079c-0.02-0.167,0.261-0.284,0.261-0.284
						c0.275,0,0.438,0.18,0.438,0.18c0.555,0.651,1.581,1.316,1.581,1.316l-2.12,0.377l-2.674-1.999
						c-0.605-0.486-1.545-0.561-1.545-0.561c-1.138-0.753-2.301-2.037-2.301-2.037l-0.408-0.475l-1.195-2.773l0.601-0.952
						c0.663,1.663,1.263,2.401,1.263,2.401c0.467,0.119,0.482,0.363,0.482,0.363S611.527,35.496,611.364,35.842z"/>
					<path fill="#7E631D" d="M608.537,16.32c2.02-4.961,3.838-6.725,3.838-6.725s-2.002,3.059-3.081,5.706
						C609.295,15.302,609.025,15.855,608.537,16.32z"/>
					<path fill="#7C5D1B" d="M606.486,24.05c-1.366-4.519,1.175-9.07,1.175-9.07s-2.094,6.185-1.102,9.433L606.486,24.05z"/>
					<path fill="#7C5D1B" d="M610.541,16.964c1.932-4.191,3.846-5.915,3.846-5.915s-3.065,4.158-3.477,5.692L610.541,16.964z"/>
					<path fill="#7C5D1B" d="M608.311,23.394l1.512-2.152c1.271-1.623,2.517-4.884,2.517-4.884
						c-0.302,0.773-2.234,3.862-2.234,3.862c-0.297,0.441-0.593,0.855-0.593,0.855S608.932,21.787,608.311,23.394z"/>
					<path fill="#B7A842" d="M610.568,28.241c0,0-1.382,2.124-1.658,4.355c0,0,0.784-2.734,1.658-3.78V28.241z"/>
					<path fill="#A09020" d="M610.541,36.598c-4.239-2.844-5.745-7.108-5.745-7.108c-0.766-1.923-0.255-4.17-0.255-4.17
						s0.151-0.687,0.727-0.097c0,0,1.081,1.213,2.119,3.606c0,0,0.94,2.067,1.555,4.458
						C608.94,33.287,609.629,35.586,610.541,36.598z"/>
					<path fill="#7C5D1B" d="M605.12,26.67c0,0,2.28,7.028,4.619,9.121C609.739,35.791,606.382,33.541,605.12,26.67z"/>
					<path fill="#9F9320" d="M611.527,33.558c-2.841-3.48,0.138-9.157,0.138-9.157s0.166-0.416,0.51-0.416
						c0,0,0.247,0.143,0.341,0.697c0,0,0.905,4.407-0.459,8.441c0,0-0.189,0.576,0.117,1.006
						C612.175,34.129,611.805,33.787,611.527,33.558z"/>
					<path fill="#7C5D1B" d="M611.75,25.814c0,0-1.116,4.346-0.079,7.609C611.671,33.423,611.47,27.929,611.75,25.814z"/>
					<path fill="#BBA695" d="M624.134,44.387c0,0,2.104,1.118,3.02,2.161c0,0-0.044,0.506,0.509,0.569l0.749,0.673
						c0,0-0.011,0.402,0.766,0.402c0,0,0.578,0.048,1.116-0.488c0,0,0.659-0.073,0.827-0.685c0,0,0.146-0.203-0.573-0.54
						c0,0-1.727-0.45-2.181-1.667l-3.21-0.706l-0.759-0.059L624.134,44.387z"/>
					<g>
						<g>
							<path fill="#FFFFFF" d="M607.165,39.932c0.169-0.249,0.18-0.288,0.084-0.37l-0.062-0.051
								c-0.016-0.031,0.027-0.097,0.066-0.087c0.197,0.109,0.398,0.227,0.635,0.389c0.21,0.143,0.375,0.303,0.437,0.419
								c0.079,0.187,0.07,0.359-0.037,0.516c-0.145,0.223-0.355,0.218-0.511,0.198c-0.035-0.005-0.045,0.015-0.051,0.051
								c-0.062,0.45-0.081,0.702-0.031,0.884c0.031,0.095,0.086,0.155,0.126,0.186c0.011,0.024-0.017,0.066-0.037,0.07
								c-0.051-0.012-0.132-0.053-0.214-0.109c-0.231-0.158-0.316-0.337-0.312-0.588c0.013-0.189,0.034-0.353,0.064-0.516
								c0.017-0.091-0.005-0.138-0.067-0.181c-0.088-0.058-0.101-0.055-0.134-0.007l-0.205,0.307
								c-0.151,0.235-0.151,0.259-0.05,0.358l0.058,0.056c0.011,0.024-0.027,0.084-0.058,0.092c-0.13-0.102-0.247-0.182-0.362-0.259
								c-0.128-0.082-0.238-0.152-0.369-0.24c-0.011-0.029,0.03-0.084,0.056-0.084l0.079,0.031c0.126,0.053,0.152,0.051,0.302-0.181
								L607.165,39.932z M607.291,40.479c-0.05,0.083-0.05,0.097,0.102,0.194c0.084,0.063,0.152,0.073,0.226,0.061
								c0.077-0.015,0.173-0.063,0.277-0.211c0.152-0.227,0.116-0.463-0.08-0.591c-0.104-0.07-0.112-0.062-0.196,0.051
								L607.291,40.479z"/>
							<path fill="#FFFFFF" d="M608.896,41.44c-0.041,0.073-0.041,0.077,0.022,0.123l0.172,0.114
								c0.13,0.089,0.172,0.091,0.277-0.015l0.052-0.051c0.032-0.015,0.096,0.031,0.095,0.066c-0.063,0.075-0.12,0.164-0.185,0.256
								c-0.061,0.099-0.123,0.186-0.169,0.273c-0.027,0.013-0.093-0.027-0.093-0.055l0.027-0.077
								c0.055-0.141,0.04-0.174-0.092-0.259l-0.172-0.116c-0.065-0.046-0.07-0.046-0.121,0.029l-0.201,0.3
								c-0.075,0.113-0.12,0.201-0.116,0.263c0,0.063,0.036,0.114,0.213,0.238c0.225,0.148,0.315,0.198,0.641,0.007
								c0.041-0.014,0.098,0.037,0.084,0.07c-0.095,0.128-0.294,0.288-0.369,0.329c-0.136-0.087-0.372-0.252-0.579-0.389
								l-0.327-0.216c-0.12-0.08-0.243-0.162-0.436-0.286c-0.009-0.016,0.033-0.082,0.059-0.082l0.13,0.066
								c0.125,0.055,0.155,0.046,0.302-0.182l0.628-0.938c0.152-0.223,0.141-0.249,0.046-0.352l-0.053-0.053
								c-0.015-0.029,0.027-0.084,0.063-0.082c0.116,0.082,0.24,0.167,0.359,0.249l0.527,0.351c0.156,0.109,0.307,0.196,0.341,0.22
								c-0.026,0.041-0.128,0.23-0.227,0.412c-0.027,0.014-0.084-0.022-0.099-0.056c0.035-0.106,0.045-0.205,0.04-0.266
								c-0.015-0.075-0.07-0.152-0.192-0.233l-0.207-0.138c-0.079-0.053-0.084-0.048-0.149,0.041L608.896,41.44z"/>
							<path fill="#FFFFFF" d="M610.063,41.863c0.174-0.252,0.19-0.283,0.086-0.368l-0.068-0.058
								c-0.014-0.029,0.026-0.087,0.066-0.087c0.166,0.096,0.373,0.22,0.589,0.365c0.211,0.143,0.34,0.259,0.418,0.37
								c0.111,0.165,0.179,0.399,0.016,0.641c-0.276,0.412-0.73,0.194-0.86,0.102c-0.034-0.02-0.055-0.034-0.079-0.06
								c-0.013-0.017,0.01-0.061,0.038-0.068c0.251,0.068,0.392-0.044,0.516-0.225c0.123-0.189,0.162-0.448-0.066-0.606
								c-0.094-0.058-0.116-0.034-0.184,0.063l-0.702,1.058c-0.157,0.232-0.152,0.263-0.053,0.353l0.069,0.07
								c0.024,0.029-0.016,0.089-0.054,0.084c-0.138-0.097-0.262-0.186-0.377-0.264c-0.12-0.08-0.242-0.155-0.382-0.244
								c-0.017-0.03,0.016-0.092,0.051-0.092l0.082,0.036c0.117,0.061,0.148,0.048,0.307-0.184L610.063,41.863z"/>
							<path fill="#FFFFFF" d="M611.872,43.979c-0.332,0.217-0.533,0.37-0.68,0.477c-0.031,0-0.066-0.015-0.099-0.041
								c-0.031-0.02-0.051-0.041-0.055-0.066c0.019-0.082,0.062-0.252,0.085-0.358l0.274-1.29c0.062-0.3,0.056-0.315-0.008-0.388
								l-0.088-0.094c0-0.044,0.036-0.083,0.066-0.083c0.129,0.092,0.208,0.15,0.338,0.235c0.114,0.082,0.22,0.15,0.38,0.247
								c0.009,0.029-0.023,0.07-0.055,0.082l-0.084-0.031c-0.055-0.017-0.079-0.017-0.094,0.007
								c-0.014,0.022-0.046,0.152-0.084,0.344l-0.159,0.706c-0.02,0.121-0.038,0.194-0.046,0.249
								c0.046-0.031,0.125-0.084,0.206-0.135l0.244-0.172c0.171-0.114,0.459-0.324,0.552-0.395c0.041-0.034,0.071-0.053,0.081-0.073
								c0.01-0.014,0.01-0.031-0.04-0.087l-0.062-0.063c-0.003-0.034,0.027-0.087,0.066-0.082c0.116,0.087,0.216,0.15,0.309,0.218
								c0.086,0.053,0.163,0.104,0.236,0.148c0.012,0.027-0.022,0.08-0.051,0.084l-0.073-0.029c-0.083-0.029-0.127-0.037-0.198,0
								c-0.107,0.041-0.268,0.128-0.491,0.278L611.872,43.979z"/>
						</g>
					</g>
					<g>
						<g>
							<path fill="#FFFFFF" d="M613.507,43.684c-0.06-0.293-0.081-0.322-0.203-0.315l-0.086,0.002
								c-0.028-0.009-0.055-0.097-0.013-0.106c0.221-0.063,0.435-0.126,0.73-0.189c0.28-0.068,0.476-0.077,0.621-0.024
								c0.144,0.048,0.252,0.15,0.29,0.327c0.055,0.242-0.134,0.388-0.223,0.434c-0.023,0.009-0.051,0.029-0.048,0.044
								c0,0.009,0.02,0.019,0.045,0.019c0.245-0.005,0.477,0.102,0.542,0.392c0.065,0.269-0.061,0.465-0.231,0.566
								c-0.17,0.106-0.392,0.167-0.571,0.205c-0.103,0.02-0.219,0.034-0.302,0.051c-0.148,0.034-0.29,0.073-0.46,0.121
								c-0.025-0.017-0.037-0.097-0.023-0.106l0.081-0.037c0.132-0.058,0.143-0.082,0.084-0.346L613.507,43.684z M613.976,43.874
								c0.02,0.075,0.023,0.083,0.174,0.048c0.254-0.058,0.312-0.239,0.272-0.419c-0.056-0.249-0.243-0.341-0.451-0.298
								c-0.134,0.034-0.131,0.059-0.102,0.189L613.976,43.874z M614.13,44.552c0.049,0.23,0.112,0.367,0.338,0.316
								c0.22-0.051,0.3-0.239,0.244-0.481c-0.059-0.252-0.244-0.397-0.527-0.337c-0.16,0.039-0.16,0.039-0.132,0.158L614.13,44.552z
								"/>
							<path fill="#FFFFFF" d="M615.227,43.296c-0.065-0.298-0.082-0.327-0.206-0.317l-0.08,0.01
								c-0.03-0.01-0.057-0.095-0.016-0.107c0.219-0.065,0.435-0.13,0.73-0.194c0.279-0.062,0.472-0.07,0.623-0.021
								c0.145,0.043,0.246,0.152,0.284,0.322c0.059,0.252-0.133,0.391-0.219,0.437c-0.028,0.015-0.053,0.029-0.051,0.044
								c0,0.009,0.02,0.02,0.044,0.012c0.246,0,0.473,0.112,0.545,0.392c0.063,0.273-0.064,0.47-0.234,0.573
								c-0.17,0.105-0.391,0.162-0.571,0.206c-0.102,0.027-0.22,0.036-0.302,0.053c-0.144,0.034-0.288,0.07-0.455,0.111
								c-0.028-0.012-0.043-0.084-0.023-0.099l0.08-0.038c0.126-0.059,0.141-0.08,0.08-0.341L615.227,43.296z M615.696,43.49
								c0.016,0.075,0.025,0.084,0.175,0.051c0.251-0.059,0.31-0.24,0.271-0.419c-0.059-0.256-0.244-0.353-0.448-0.302
								c-0.134,0.034-0.134,0.055-0.109,0.184L615.696,43.49z M615.846,44.17c0.052,0.235,0.117,0.368,0.344,0.32
								c0.22-0.053,0.298-0.245,0.241-0.484c-0.056-0.252-0.241-0.4-0.529-0.346c-0.159,0.045-0.159,0.045-0.13,0.162L615.846,44.17
								z"/>
							<path fill="#FFFFFF" d="M617.582,43.79c0.035,0.138,0.07,0.23,0.116,0.269c0.048,0.038,0.106,0.048,0.323,0.007
								c0.267-0.06,0.347-0.09,0.448-0.472c0.016-0.034,0.083-0.039,0.117-0.002c0.017,0.152,0.002,0.414-0.02,0.498
								c-0.161,0.034-0.445,0.095-0.684,0.145l-0.397,0.089c-0.138,0.027-0.282,0.063-0.461,0.112
								c-0.035-0.013-0.053-0.077-0.035-0.097l0.112-0.044c0.127-0.048,0.138-0.07,0.077-0.346l-0.247-1.096
								c-0.059-0.273-0.081-0.295-0.218-0.285l-0.088,0.009c-0.034-0.009-0.049-0.075-0.011-0.102
								c0.151-0.031,0.298-0.061,0.438-0.09c0.142-0.036,0.288-0.073,0.434-0.109c0.028,0.012,0.047,0.077,0.024,0.102l-0.077,0.027
								c-0.129,0.053-0.14,0.084-0.078,0.353L617.582,43.79z"/>
							<path fill="#FFFFFF" d="M619.175,43.497c0.06,0.276,0.077,0.293,0.217,0.291l0.092-0.01c0.024,0.012,0.035,0.08,0.016,0.105
								c-0.159,0.027-0.307,0.058-0.441,0.094c-0.139,0.03-0.289,0.063-0.444,0.107c-0.025-0.015-0.045-0.077-0.023-0.107
								l0.077-0.031c0.134-0.055,0.147-0.08,0.085-0.353l-0.246-1.084c-0.057-0.276-0.086-0.293-0.219-0.28h-0.091
								c-0.027-0.012-0.043-0.082-0.022-0.107c0.161-0.029,0.309-0.056,0.446-0.087c0.143-0.031,0.287-0.066,0.443-0.112
								c0.026,0.012,0.046,0.08,0.026,0.107l-0.08,0.036c-0.129,0.051-0.142,0.073-0.081,0.351L619.175,43.497z"/>
							<path fill="#FFFFFF" d="M620.917,41.552c0.014,0.045,0.076,0.285,0.141,0.45c-0.007,0.034-0.08,0.065-0.109,0.043
								c-0.134-0.254-0.359-0.358-0.649-0.297c-0.323,0.072-0.606,0.433-0.48,1.016c0.13,0.581,0.541,0.828,0.891,0.748
								c0.353-0.08,0.467-0.373,0.501-0.591c0.016-0.029,0.092-0.034,0.116-0.005c0.025,0.223,0.015,0.406-0.009,0.486
								c-0.153,0.077-0.344,0.191-0.573,0.24c-0.288,0.068-0.595,0.062-0.844-0.041c-0.244-0.119-0.462-0.327-0.545-0.69
								c-0.077-0.36,0.013-0.644,0.185-0.859c0.165-0.216,0.446-0.375,0.752-0.445C620.598,41.541,620.835,41.563,620.917,41.552z"
								/>
							<path fill="#FFFFFF" d="M621.806,42.657c-0.069,0.013-0.076,0.024-0.08,0.085l-0.035,0.362c-0.006,0.063,0,0.09,0.005,0.112
								c0,0.016,0.03,0.024,0.114,0.024l0.092-0.005c0.025,0.02,0.041,0.085,0.02,0.105c-0.108,0.022-0.227,0.046-0.345,0.067
								c-0.104,0.024-0.171,0.046-0.306,0.075c-0.033-0.007-0.046-0.067-0.033-0.096l0.081-0.024
								c0.067-0.027,0.117-0.066,0.144-0.191c0.024-0.126,0.046-0.278,0.077-0.513l0.105-0.774c0.025-0.198,0.06-0.315,0.034-0.402
								c0.13-0.061,0.212-0.233,0.216-0.233c0.033-0.007,0.062,0.002,0.081,0.041c0.038,0.082,0.099,0.181,0.22,0.373l0.657,1.067
								c0.101,0.165,0.142,0.22,0.258,0.22l0.116-0.015c0.018,0.015,0.044,0.085,0.018,0.109c-0.14,0.027-0.302,0.055-0.455,0.095
								c-0.144,0.029-0.262,0.055-0.396,0.094c-0.037-0.012-0.054-0.07-0.03-0.096l0.091-0.037c0.063-0.029,0.073-0.048,0.07-0.075
								c-0.006-0.022-0.04-0.084-0.103-0.187l-0.13-0.232c-0.028-0.048-0.05-0.048-0.156-0.02L621.806,42.657z M622.087,42.434
								c0.072-0.016,0.077-0.029,0.041-0.095l-0.133-0.225c-0.068-0.118-0.13-0.232-0.173-0.285
								c-0.016,0.07-0.034,0.206-0.046,0.346l-0.027,0.239c-0.006,0.088,0.013,0.092,0.081,0.075L622.087,42.434z"/>
						</g>
					</g>
					<g>
						<g>
							<path fill="#FFFFFF" d="M627.357,43.327c-0.044,0.281-0.033,0.305,0.098,0.353l0.081,0.03
								c0.021,0.016,0.009,0.084-0.02,0.102c-0.159-0.034-0.304-0.059-0.441-0.085c-0.143-0.022-0.294-0.043-0.456-0.067
								c-0.016-0.017-0.003-0.085,0.023-0.099l0.081-0.005c0.142,0,0.159-0.014,0.212-0.295l0.177-1.087
								c0.048-0.281,0.036-0.303-0.095-0.351l-0.082-0.03c-0.023-0.024-0.016-0.091,0.016-0.106c0.16,0.034,0.306,0.066,0.445,0.084
								c0.139,0.024,0.289,0.048,0.45,0.066c0.026,0.022,0.013,0.092-0.016,0.104l-0.086,0.006c-0.139,0-0.162,0.016-0.209,0.297
								L627.357,43.327z"/>
							<path fill="#FFFFFF" d="M628.668,42.214c0.013-0.073,0.016-0.089-0.059-0.099l-0.18-0.029c-0.22-0.041-0.3,0.07-0.425,0.269
								c-0.036,0.017-0.095-0.005-0.106-0.041c0.099-0.198,0.148-0.38,0.186-0.484c0.011-0.01,0.03-0.015,0.041-0.01
								c0.015,0,0.031,0.01,0.039,0.017c0.007,0.048,0.016,0.068,0.238,0.104l1.105,0.179c0.19,0.037,0.24,0.041,0.273-0.016
								c0.013,0,0.022-0.007,0.044,0c0.015,0,0.031,0.012,0.039,0.029c-0.048,0.094-0.11,0.327-0.134,0.498
								c-0.016,0.027-0.095,0.017-0.106-0.009c-0.02-0.201-0.036-0.344-0.262-0.378l-0.174-0.036c-0.073-0.005-0.086,0-0.095,0.075
								l-0.216,1.309c-0.052,0.273-0.031,0.298,0.097,0.344l0.115,0.029c0.022,0.027,0.009,0.095-0.015,0.104
								c-0.193-0.036-0.338-0.062-0.47-0.082c-0.141-0.027-0.3-0.046-0.509-0.08c-0.02-0.022-0.011-0.085,0.02-0.102l0.134,0.008
								c0.134,0.009,0.159-0.022,0.203-0.293L628.668,42.214z"/>
							<path fill="#FFFFFF" d="M630.043,43.538c-0.071-0.02-0.081-0.015-0.108,0.041l-0.165,0.327
								c-0.027,0.053-0.034,0.08-0.04,0.099c-0.003,0.019,0.017,0.045,0.097,0.07l0.088,0.03c0.013,0.024,0.008,0.091-0.022,0.099
								c-0.106-0.017-0.223-0.039-0.346-0.068c-0.098-0.013-0.173-0.013-0.308-0.039c-0.028-0.022-0.017-0.082,0.016-0.104
								l0.08,0.005c0.069,0.008,0.13-0.007,0.203-0.119c0.066-0.106,0.146-0.244,0.262-0.438l0.388-0.683
								c0.097-0.172,0.17-0.269,0.173-0.358c0.147-0.01,0.286-0.134,0.291-0.134c0.039,0.008,0.055,0.022,0.055,0.073
								c0.013,0.088,0.023,0.196,0.068,0.423l0.212,1.23c0.031,0.187,0.046,0.259,0.154,0.298l0.104,0.034
								c0.023,0.02,0.014,0.092-0.015,0.105c-0.145-0.024-0.301-0.056-0.455-0.085c-0.15-0.02-0.267-0.038-0.405-0.053
								c-0.025-0.024-0.023-0.087,0.015-0.106h0.093c0.079,0,0.088-0.02,0.093-0.041c0-0.02-0.005-0.092-0.025-0.203l-0.038-0.28
								c-0.004-0.039-0.03-0.051-0.133-0.068L630.043,43.538z M630.389,43.431c0.065,0.01,0.079,0.002,0.07-0.077l-0.035-0.249
								c-0.02-0.135-0.04-0.266-0.055-0.336c-0.041,0.06-0.111,0.181-0.177,0.312l-0.11,0.211c-0.04,0.07-0.031,0.087,0.044,0.099
								L630.389,43.431z"/>
							<path fill="#FFFFFF" d="M631.996,44.039c-0.024,0.141-0.028,0.24,0.002,0.295c0.03,0.053,0.078,0.084,0.298,0.126
								c0.269,0.046,0.351,0.048,0.584-0.271c0.027-0.024,0.092,0,0.11,0.041c-0.041,0.152-0.155,0.382-0.213,0.457
								c-0.155-0.034-0.437-0.084-0.677-0.123l-0.398-0.066c-0.137-0.024-0.282-0.043-0.467-0.07
								c-0.03-0.022-0.016-0.09,0.005-0.105l0.115,0.003c0.141,0.007,0.156-0.012,0.206-0.288l0.18-1.104
								c0.046-0.278,0.036-0.305-0.101-0.346l-0.08-0.024c-0.027-0.029-0.016-0.089,0.019-0.104
								c0.157,0.029,0.304,0.061,0.448,0.085c0.141,0.022,0.29,0.041,0.441,0.06c0.013,0.024,0.004,0.092-0.02,0.104h-0.082
								c-0.132-0.002-0.152,0.024-0.198,0.293L631.996,44.039z"/>
							<path fill="#FFFFFF" d="M633.65,44.308c0,0.28,0.019,0.295,0.162,0.324l0.081,0.014c0.022,0.017,0.022,0.087-0.004,0.105
								c-0.162-0.005-0.309-0.005-0.452-0.005c-0.141,0-0.293,0-0.454,0.005c-0.022-0.017-0.022-0.088,0-0.105l0.084-0.014
								c0.134-0.029,0.159-0.044,0.159-0.324v-1.106c0-0.28-0.025-0.307-0.159-0.331l-0.084-0.012c-0.022-0.02-0.022-0.089,0-0.106
								c0.161,0.007,0.312,0.009,0.454,0.009c0.144,0,0.294-0.002,0.456-0.009c0.022,0.017,0.022,0.087,0,0.106l-0.081,0.012
								c-0.144,0.024-0.162,0.051-0.162,0.331V44.308z"/>
						</g>
					</g>
					<g>
						<g>
							<path fill="#FFFFFF" d="M634.836,43.635c-0.062,0.034-0.066,0.048-0.051,0.104l0.101,0.351
								c0.016,0.066,0.027,0.084,0.038,0.099c0.011,0.02,0.041,0.02,0.12-0.009l0.084-0.044c0.029,0.012,0.067,0.068,0.051,0.097
								c-0.09,0.048-0.191,0.116-0.301,0.184c-0.085,0.056-0.134,0.102-0.25,0.172c-0.044,0.005-0.069-0.044-0.066-0.08l0.061-0.048
								c0.053-0.053,0.093-0.106,0.069-0.227c-0.02-0.128-0.058-0.276-0.108-0.506l-0.172-0.757
								c-0.042-0.201-0.055-0.317-0.11-0.383c0.105-0.111,0.116-0.29,0.12-0.295c0.037-0.024,0.058-0.016,0.089,0.015
								c0.069,0.058,0.16,0.135,0.343,0.266l0.986,0.762c0.146,0.118,0.212,0.159,0.312,0.109l0.103-0.041
								c0.024,0.005,0.069,0.061,0.058,0.092c-0.123,0.066-0.261,0.157-0.391,0.24c-0.127,0.087-0.223,0.15-0.335,0.234
								c-0.038,0-0.079-0.048-0.062-0.087l0.07-0.061c0.05-0.048,0.05-0.077,0.039-0.095c-0.011-0.014-0.068-0.067-0.154-0.135
								l-0.207-0.177c-0.045-0.024-0.066-0.02-0.152,0.029L634.836,43.635z M635.017,43.325c0.063-0.034,0.068-0.053,0.004-0.104
								l-0.2-0.159c-0.104-0.085-0.199-0.167-0.258-0.204c0.008,0.073,0.034,0.201,0.072,0.344l0.069,0.23
								c0.013,0.08,0.036,0.08,0.093,0.039L635.017,43.325z"/>
							<path fill="#FFFFFF" d="M637.605,42.03c0.103,0.165,0.208,0.32,0.265,0.402c0,0.044-0.049,0.114-0.111,0.155
								c0,0-0.171-0.075-0.38-0.142l-1.054-0.341c-0.262-0.075-0.41-0.13-0.484-0.136c0.002,0.03,0.034,0.068,0.097,0.165
								l0.318,0.489c0.132,0.205,0.265,0.382,0.337,0.435c0.056,0.037,0.123,0.015,0.199-0.016l0.075-0.037
								c0.037,0.005,0.068,0.063,0.055,0.09c-0.135,0.082-0.241,0.148-0.34,0.213c-0.089,0.056-0.183,0.126-0.276,0.189
								c-0.027-0.005-0.066-0.053-0.055-0.088l0.034-0.036c0.062-0.058,0.102-0.106,0.084-0.177
								c-0.014-0.082-0.135-0.273-0.263-0.477l-0.416-0.644c-0.091-0.141-0.118-0.174-0.163-0.201
								c-0.045-0.022-0.098-0.037-0.196,0.009l-0.072,0.036c-0.031-0.007-0.07-0.067-0.052-0.096c0.121-0.07,0.252-0.151,0.351-0.22
								c0.086-0.051,0.162-0.107,0.207-0.143c0.097,0.097,0.391,0.181,0.792,0.302l0.374,0.112c0.195,0.06,0.327,0.099,0.419,0.123
								c-0.009-0.034-0.032-0.078-0.061-0.127l-0.228-0.343c-0.13-0.206-0.268-0.388-0.335-0.441
								c-0.062-0.037-0.131-0.015-0.202,0.017l-0.073,0.036c-0.034-0.002-0.064-0.063-0.057-0.09
								c0.134-0.084,0.235-0.142,0.337-0.215c0.095-0.056,0.188-0.119,0.279-0.187c0.023,0.005,0.07,0.055,0.059,0.088l-0.042,0.038
								c-0.059,0.053-0.092,0.102-0.08,0.167c0.019,0.092,0.134,0.278,0.259,0.489L637.605,42.03z"/>
							<path fill="#FFFFFF" d="M638.282,41.384c-0.059,0.036-0.066,0.046-0.05,0.102l0.101,0.355
								c0.016,0.059,0.025,0.08,0.042,0.099c0.009,0.015,0.038,0.022,0.114-0.014l0.086-0.041c0.027,0.012,0.064,0.068,0.054,0.097
								c-0.095,0.053-0.196,0.121-0.304,0.184c-0.085,0.054-0.134,0.102-0.25,0.174c-0.04,0.006-0.074-0.048-0.062-0.082
								l0.058-0.051c0.057-0.051,0.091-0.102,0.07-0.225c-0.02-0.13-0.055-0.28-0.106-0.506l-0.173-0.76
								c-0.044-0.194-0.058-0.32-0.115-0.387c0.108-0.102,0.119-0.285,0.123-0.288c0.029-0.022,0.053-0.022,0.091,0.012
								c0.068,0.063,0.16,0.128,0.339,0.271l0.985,0.758c0.153,0.116,0.214,0.164,0.314,0.116l0.107-0.043
								c0.024,0,0.066,0.058,0.052,0.087c-0.123,0.077-0.259,0.159-0.389,0.24c-0.123,0.087-0.22,0.15-0.337,0.23
								c-0.033,0.005-0.077-0.044-0.064-0.08l0.077-0.068c0.051-0.046,0.051-0.073,0.039-0.087c-0.013-0.017-0.07-0.066-0.163-0.138
								l-0.205-0.17c-0.042-0.031-0.066-0.029-0.149,0.029L638.282,41.384z M638.463,41.077c0.057-0.038,0.07-0.055,0.005-0.106
								l-0.199-0.165c-0.107-0.082-0.207-0.159-0.258-0.203c0.006,0.07,0.035,0.203,0.076,0.344l0.055,0.233
								c0.029,0.082,0.04,0.082,0.106,0.036L638.463,41.077z"/>
						</g>
					</g>
				</g>
			</g>
			<g>
				<text transform="matrix(1 0 0 1 520.4678 54.8575)" font-family="'MyriadPro-Bold'" font-size="5.8608">UNIONE EUROPEA</text>
				<g>
					<rect x="520.085" y="15.152" fill="#164194" stroke="#FFFFFF" stroke-width="0.5574" width="47.398" height="31.595"/>
					<g>
						<polygon fill="#FFED00" points="543.742,18 544.135,19.229 545.432,19.227 544.384,19.987 544.783,21.211 543.742,20.451 
							542.698,21.211 543.098,19.987 542.049,19.227 543.343,19.229 						"/>
						<polygon fill="#FFED00" points="538.134,19.551 538.526,20.78 539.822,20.78 538.773,21.535 539.179,22.767 538.134,22.005 
							537.088,22.767 537.488,21.535 536.443,20.78 537.737,20.78 						"/>
						<polygon fill="#FFED00" points="532.564,24.805 533.857,24.824 534.272,23.599 534.65,24.838 535.942,24.853 534.886,25.594 
							535.267,26.828 534.233,26.051 533.182,26.802 533.6,25.581 						"/>
						<polygon fill="#FFED00" points="530.798,30.409 532.088,30.414 532.487,29.185 532.886,30.414 534.176,30.409 533.131,31.17 
							533.532,32.401 532.487,31.634 531.44,32.394 531.845,31.17 						"/>
						<polygon fill="#FFED00" points="533.23,37.923 533.631,36.702 532.586,35.941 533.875,35.941 534.272,34.713 534.666,35.941 
							535.966,35.941 534.912,36.702 535.316,37.923 534.272,37.164 						"/>
						<polygon fill="#FFED00" points="537.088,41.953 537.488,40.721 536.443,39.964 537.737,39.966 538.134,38.737 538.526,39.966 
							539.822,39.964 538.773,40.721 539.179,41.953 538.134,41.186 						"/>
						<polygon fill="#FFED00" points="544.829,43.427 543.786,42.667 542.742,43.427 543.143,42.192 542.095,41.43 543.389,41.44 
							543.786,40.213 544.186,41.44 545.475,41.43 544.43,42.192 						"/>
						<polygon fill="#FFED00" points="550.427,41.898 549.38,41.147 548.335,41.914 548.729,40.685 547.676,39.93 548.968,39.923 
							549.357,38.691 549.764,39.92 551.057,39.91 550.014,40.673 						"/>
						<polygon fill="#FFED00" points="554.288,37.887 553.239,37.132 552.198,37.887 552.597,36.66 551.548,35.905 552.846,35.908 
							553.239,34.678 553.64,35.908 554.934,35.901 553.882,36.66 						"/>
						<polygon fill="#FFED00" points="554.934,24.771 553.882,25.526 554.288,26.751 553.239,25.988 552.198,26.755 552.597,25.526 
							551.548,24.771 552.846,24.771 553.239,23.539 553.64,24.771 						"/>
						<polygon fill="#FFED00" points="553.371,30.409 554.667,30.414 555.067,29.185 555.457,30.414 556.755,30.409 555.704,31.17 
							556.105,32.401 555.058,31.634 554.018,32.394 554.418,31.17 						"/>
						<polygon fill="#FFED00" points="549.357,19.507 549.757,20.741 551.05,20.739 549.998,21.491 550.401,22.726 549.357,21.963 
							548.314,22.726 548.718,21.491 547.669,20.739 548.963,20.741 						"/>
					</g>
				</g>
			</g>
		</g>
	</g>
	<g>
		<g>
			<g>
				<path fill="#E32829" d="M354.66,31.481c0,3.081,1.898,4.162,4.405,4.162h1.527v-3.248h-1.188c-0.845,0-1.288-0.409-1.288-1.193
					V11.526h-3.456V31.481"/>
				<polyline fill="#E32829" points="363.501,17.489 366.954,14.976 366.954,11.526 363.501,11.526 363.501,17.489 				"/>
				<polyline fill="#E32829" points="371.831,35.643 387.244,35.643 387.244,32.19 375.487,32.19 375.487,25.112 385.516,25.112 
					385.516,21.857 375.487,21.857 375.487,14.976 387.244,14.976 387.244,11.526 371.831,11.526 371.831,35.643 				"/>
				<path fill="#E32829" d="M390.353,29.889c0,3.896,3.052,5.958,5.767,5.958c1.793,0,3.349-0.68,4.434-2.033h0.072v1.829h3.448
					V18.469h-3.448v10.234c0,2.333-1.464,3.693-3.39,3.693c-1.963,0-3.42-1.36-3.42-3.693V18.469h-3.463V29.889"/>
				<path fill="#E32829" d="M408.545,35.643h3.458V25.312c0-2.505,1.656-3.594,3.357-3.594c0.876,0,1.454,0.235,2.265,0.852
					l2.512-2.984c-1.055-0.813-2.212-1.316-3.598-1.316c-1.827,0-3.385,0.673-4.47,2.028h-0.066v-1.829h-3.458V35.643"/>
				<path fill-rule="evenodd" clip-rule="evenodd" fill="#E32829" d="M431.578,27.069c0,2.473-0.206,3.151-0.852,4.065
					c-0.505,0.712-1.587,1.261-2.778,1.261c-1.181,0-2.267-0.549-2.77-1.261c-0.652-0.914-0.85-1.592-0.85-4.092
					c0-2.475,0.198-3.151,0.85-4.068c0.503-0.714,1.59-1.256,2.77-1.256c1.191,0,2.273,0.542,2.778,1.256
					C431.373,23.892,431.578,24.567,431.578,27.069 M420.867,27.042c0,3.722,0.547,5.148,1.866,6.6
					c0.948,1.057,2.538,2.205,5.215,2.205c2.68,0,4.272-1.147,5.225-2.205c1.314-1.452,1.859-2.877,1.859-6.6
					c0-3.693-0.545-5.121-1.859-6.577c-0.953-1.048-2.545-2.195-5.225-2.195c-2.677,0-4.266,1.147-5.215,2.195
					C421.414,21.922,420.867,23.35,420.867,27.042z"/>
				<path fill-rule="evenodd" clip-rule="evenodd" fill="#E32829" d="M445.5,32.396c-3.216,0-3.38-2.853-3.38-5.326
					c0-2.502,0.165-5.351,3.38-5.351c3.255,0,3.423,2.679,3.423,5.351C448.923,29.719,448.756,32.396,445.5,32.396 M438.662,42.591
					h3.458v-8.777c1.283,1.22,2.67,2.033,4.438,2.033c2.096,0,3.62-0.949,4.603-2.239c0.948-1.213,1.22-2.338,1.22-6.539
					c0-4.233-0.271-5.351-1.22-6.568c-0.983-1.288-2.507-2.231-4.603-2.231c-1.769,0-3.354,0.808-4.438,1.996v-1.798h-3.458V42.591z
					"/>
				<path fill-rule="evenodd" clip-rule="evenodd" fill="#E32829" d="M465.248,29.608c0,2.677-0.985,2.986-3.865,2.986
					c-2.333,0-3.252-1.014-3.252-2.166c0-1.254,0.946-2.069,2.984-2.069h4.134V29.608 M465.248,35.643h3.448v-11.72
					c0-4.235-2.909-5.653-7.144-5.653c-2.575,0-4.472,0.673-5.794,2.497l2.716,2.069c0.602-0.98,1.452-1.316,3.252-1.316
					c2.468,0,3.521,0.571,3.521,2.202v1.8h-4.775c-3.702,0-5.59,2.333-5.59,5.072c0,2.977,2.227,5.252,6.065,5.252
					c2.337,0,3.523-0.538,4.232-1.728h0.068V35.643z"/>
			</g>
			<g>
				<path fill="#F29829" d="M203.354,30.494c-0.847,1.053-2.07,1.791-3.488,1.791c-2.814,0-4.473-1.59-4.473-5.317
					c0-3.758,1.659-5.348,4.473-5.348c1.418,0,2.641,0.745,3.488,1.793l2.537-2.268c-1.486-1.728-3.555-2.984-6.166-2.984
					c-3.961,0-7.787,2.509-7.787,8.806c0,6.266,3.826,8.775,7.787,8.775c2.611,0,4.68-1.248,6.166-2.977L203.354,30.494"/>
				<path fill="#F29829" d="M208.296,35.544h3.456V25.208c0-2.502,1.659-3.589,3.354-3.589c0.885,0,1.454,0.232,2.272,0.85
					l2.502-2.986c-1.048-0.813-2.2-1.321-3.592-1.321c-1.827,0-3.387,0.68-4.471,2.03h-0.065v-1.825h-3.456V35.544"/>
				<path fill-rule="evenodd" clip-rule="evenodd" fill="#F29829" d="M224.078,25.416c0.068-2.609,1.591-3.998,3.625-3.998
					c2.03,0,3.523,1.389,3.625,3.998H224.078 M234.782,28.26v-2.844c0-4.441-3.283-7.255-7.079-7.255
					c-3.321,0-7.072,2.171-7.072,8.84c0,7.052,4.093,8.741,7.616,8.741c2.307,0,4.507-0.811,6.201-2.776l-2.509-2.134
					c-1.018,1.055-2.434,1.66-3.763,1.66c-2.37,0-4.097-1.42-4.097-4.232H234.782z"/>
				<path fill="#F29829" d="M236.511,32.662c2.202,2.066,4.777,3.08,7.555,3.08c4,0,7.12-1.928,7.12-5.288
					c0-2.739-1.423-4.91-4.983-5.143l-2.844-0.201c-1.727-0.136-2.274-0.884-2.274-1.631c0-1.183,0.75-2.062,2.952-2.062
					c1.862,0,3.248,0.639,4.603,1.585l2.134-2.502c-1.689-1.423-3.727-2.34-6.738-2.34c-3.625,0-6.405,1.8-6.405,5.285
					c0,2.952,2.098,4.642,4.944,4.877l3.052,0.273c1.191,0.102,2.098,0.479,2.098,1.694c0,1.457-1.418,2.202-3.387,2.202
					c-2.304,0-3.926-0.745-5.421-2.202L236.511,32.662"/>
				<path fill="#F29829" d="M264.772,30.494c-0.849,1.053-2.072,1.791-3.494,1.791c-2.812,0-4.467-1.59-4.467-5.317
					c0-3.758,1.655-5.348,4.467-5.348c1.423,0,2.645,0.745,3.494,1.793l2.536-2.268c-1.486-1.728-3.552-2.984-6.166-2.984
					c-3.963,0-7.79,2.509-7.79,8.806c0,6.266,3.827,8.775,7.79,8.775c2.614,0,4.68-1.248,6.166-2.977L264.772,30.494"/>
				<path fill-rule="evenodd" clip-rule="evenodd" fill="#F29829" d="M272.315,25.416c0.075-2.609,1.6-3.998,3.63-3.998
					c2.03,0,3.527,1.389,3.626,3.998H272.315 M283.021,28.26v-2.844c0-4.441-3.284-7.255-7.077-7.255
					c-3.322,0-7.078,2.171-7.078,8.84c0,7.052,4.095,8.741,7.618,8.741c2.306,0,4.511-0.811,6.2-2.776l-2.507-2.134
					c-1.016,1.055-2.437,1.66-3.761,1.66c-2.371,0-4.102-1.42-4.102-4.232H283.021z"/>
				<path fill="#596E27" d="M304.876,30.494c-0.847,1.053-2.071,1.791-3.494,1.791c-2.808,0-4.468-1.59-4.468-5.317
					c0-3.758,1.66-5.348,4.468-5.348c1.423,0,2.647,0.745,3.494,1.793l2.541-2.268c-1.491-1.728-3.562-2.984-6.166-2.984
					c-3.964,0-7.792,2.509-7.792,8.806c0,6.266,3.828,8.775,7.792,8.775c2.604,0,4.676-1.248,6.166-2.977L304.876,30.494"/>
				<path fill-rule="evenodd" clip-rule="evenodd" fill="#596E27" d="M319.674,26.968c0,2.476-0.201,3.154-0.845,4.068
					c-0.508,0.712-1.592,1.249-2.78,1.249c-1.184,0-2.267-0.537-2.776-1.249c-0.639-0.914-0.849-1.592-0.849-4.094
					c0-2.48,0.21-3.158,0.849-4.073c0.509-0.712,1.592-1.249,2.776-1.249c1.188,0,2.273,0.537,2.78,1.249
					C319.474,23.783,319.674,24.46,319.674,26.968 M308.971,26.941c0,3.722,0.544,5.145,1.863,6.6
					c0.951,1.055,2.541,2.202,5.215,2.202c2.679,0,4.271-1.147,5.22-2.202c1.321-1.455,1.861-2.878,1.861-6.6
					c0-3.698-0.54-5.118-1.861-6.58c-0.949-1.048-2.541-2.2-5.22-2.2c-2.674,0-4.264,1.152-5.215,2.2
					C309.515,21.823,308.971,23.243,308.971,26.941z"/>
				<path fill="#596E27" d="M326.756,35.544h3.458V25.312c0-2.338,1.457-3.693,3.417-3.693c1.936,0,3.391,1.355,3.391,3.693v10.232
					h3.458V24.126c0-3.896-3.054-5.965-5.725-5.965c-1.83,0-3.391,0.68-4.473,2.03h-0.068v-1.825h-3.458V35.544"/>
			</g>
			<g>
				<polyline fill="#596E27" points="5.855,35.643 21.272,35.643 21.272,32.19 9.517,32.19 9.517,11.526 5.855,11.526 5.855,35.643 
									"/>
				<path fill-rule="evenodd" clip-rule="evenodd" fill="#596E27" d="M33.397,29.608c0,2.677-0.982,2.986-3.861,2.986
					c-2.344,0-3.254-1.014-3.254-2.166c0-1.254,0.946-2.069,2.983-2.069h4.132V29.608 M33.397,35.643h3.451v-11.72
					c0-4.235-2.91-5.653-7.146-5.653c-2.574,0-4.472,0.673-5.792,2.497l2.709,2.069c0.61-0.98,1.459-1.316,3.254-1.316
					c2.472,0,3.525,0.571,3.525,2.2v1.793h-4.781c-3.691,0-5.588,2.343-5.588,5.082c0,2.977,2.232,5.252,6.066,5.252
					c2.337,0,3.523-0.538,4.234-1.728h0.069V35.643z"/>
				<path fill="#229AD1" d="M47.656,32.526c2.545,2.236,5.662,3.32,9.218,3.32c5.179,0,8.469-2.575,8.469-7.013
					c0-3.289-2.102-6.401-6.607-6.941c-1.149-0.138-2.066-0.273-2.709-0.373c-2.439-0.375-3.424-1.733-3.424-3.086
					c0-2.304,1.792-3.458,4.033-3.458c2.133,0,4.202,0.748,5.961,1.863l2.036-3.018c-2.205-1.454-4.848-2.502-7.832-2.502
					c-4.977,0-7.852,2.914-7.852,7.047c0,3.489,2.235,6.2,6.401,6.773c1.252,0.172,2.097,0.307,3.181,0.44
					c2.173,0.276,3.154,1.556,3.154,3.253c0,1.999-1.795,3.357-4.781,3.357c-2.571,0-5.011-0.954-6.84-2.408L47.656,32.526"/>
				<path fill-rule="evenodd" clip-rule="evenodd" fill="#229AD1" d="M77.904,29.608c0,2.677-0.975,2.986-3.859,2.986
					c-2.336,0-3.254-1.014-3.254-2.166c0-1.254,0.95-2.069,2.99-2.069h4.122V29.608 M77.904,35.643h3.463v-11.72
					c0-4.235-2.915-5.653-7.154-5.653c-2.569,0-4.472,0.673-5.788,2.497l2.71,2.069c0.605-0.98,1.455-1.316,3.246-1.316
					c2.475,0,3.521,0.571,3.521,2.2v1.793h-4.772c-3.694,0-5.589,2.343-5.589,5.082c0,2.977,2.234,5.252,6.064,5.252
					c2.343,0,3.526-0.538,4.235-1.728h0.063V35.643z"/>
				<path fill="#229AD1" d="M85.84,35.643h3.456V25.312c0-2.505,1.657-3.594,3.353-3.594c0.883,0,1.458,0.235,2.268,0.852
					l2.511-2.984c-1.051-0.813-2.204-1.316-3.593-1.316c-1.832,0-3.387,0.673-4.472,2.028h-0.067v-1.829H85.84V35.643"/>
				<path fill-rule="evenodd" clip-rule="evenodd" fill="#229AD1" d="M105.89,21.719c3.216,0,3.387,2.848,3.387,5.324
					c0,2.5-0.17,5.353-3.387,5.353c-3.254,0-3.421-2.677-3.421-5.353C102.469,24.398,102.636,21.719,105.89,21.719 M109.277,35.643
					h3.457V11.526h-3.457v8.772c-1.286-1.22-2.675-2.028-4.442-2.028c-2.096,0-3.62,0.944-4.607,2.231
					c-0.943,1.217-1.218,2.335-1.218,6.541c0,4.228,0.276,5.353,1.218,6.566c0.986,1.29,2.511,2.239,4.607,2.239
					c1.766,0,3.358-0.813,4.442-1.999V35.643z"/>
				<path fill-rule="evenodd" clip-rule="evenodd" fill="#229AD1" d="M119.196,25.513c0.067-2.606,1.591-3.993,3.627-3.993
					c2.032,0,3.521,1.387,3.62,3.993H119.196 M129.901,28.359v-2.846c0-4.438-3.285-7.243-7.079-7.243
					c-3.324,0-7.081,2.154-7.081,8.838c0,7.042,4.1,8.739,7.619,8.739c2.304,0,4.509-0.813,6.2-2.779l-2.505-2.139
					c-1.018,1.057-2.443,1.665-3.761,1.665c-2.371,0-4.1-1.423-4.1-4.235H129.901z"/>
				<path fill-rule="evenodd" clip-rule="evenodd" fill="#229AD1" d="M136.376,27.069c0-2.773,0.066-3.248,0.675-4.027
					c0.477-0.61,1.355-1.324,2.743-1.324c1.357,0,2.241,0.714,2.714,1.324c0.61,0.779,0.676,1.254,0.676,4.027
					c0,2.749-0.066,3.221-0.676,4.003c-0.473,0.605-1.357,1.323-2.714,1.323c-1.388,0-2.266-0.719-2.743-1.323
					C136.442,30.29,136.376,29.818,136.376,27.069 M143.184,35.605c0,2.413-1.63,3.732-3.932,3.732c-1.32,0-2.506-0.714-3.353-1.556
					l-2.677,2.137c1.528,1.721,3.758,2.873,5.966,2.873c3.929,0,7.451-2.367,7.451-7.553V18.469h-3.456v1.829
					c-1.29-1.355-2.677-2.028-4.439-2.028c-2.234,0-3.762,1.113-4.541,2.091c-0.981,1.29-1.284,1.936-1.284,6.708
					c0,4.743,0.302,5.384,1.284,6.674c0.779,0.985,2.307,2.103,4.541,2.103c1.762,0,3.353-0.813,4.439-1.999V35.605z"/>
				<path fill="#229AD1" d="M151.104,35.643h3.452V25.416c0-2.338,1.454-3.698,3.422-3.698c1.93,0,3.39,1.36,3.39,3.698v10.227
					h3.455V24.228c0-3.896-3.049-5.958-5.725-5.958c-1.83,0-3.39,0.673-4.473,2.028h-0.069v-1.829h-3.452V35.643"/>
				<path fill-rule="evenodd" clip-rule="evenodd" fill="#229AD1" d="M178.3,29.608c0,2.677-0.979,2.986-3.862,2.986
					c-2.336,0-3.255-1.014-3.255-2.166c0-1.254,0.954-2.069,2.986-2.069h4.131V29.608 M178.3,35.643h3.458v-11.72
					c0-4.235-2.916-5.653-7.151-5.653c-2.576,0-4.473,0.673-5.796,2.497l2.709,2.069c0.616-0.98,1.463-1.316,3.256-1.316
					c2.472,0,3.523,0.571,3.523,2.2v1.793h-4.775c-3.693,0-5.593,2.343-5.593,5.082c0,2.977,2.237,5.252,6.066,5.252
					c2.335,0,3.522-0.538,4.238-1.728h0.064V35.643z"/>
			</g>
		</g>
		<text transform="matrix(1 0 0 1 47.3395 52.7149)" fill="#1B181C" font-family="'MyriadPro-Regular'" font-size="10.3869">Progetto cofinanziato dall’Unione Europea, FESR - Fondo Europeo di Sviluppo Regionale</text>
	</g>
</g>
</svg>
