<?xml version="1.0" encoding="utf-8"?>
<!-- Generator: Adobe Illustrator 17.0.0, SVG Export Plug-In . SVG Version: 6.00 Build 0)  -->
<!DOCTYPE svg PUBLIC "-//W3C//DTD SVG 1.1//EN" "http://www.w3.org/Graphics/SVG/1.1/DTD/svg11.dtd">
<svg version="1.1" id="Livello_1" xmlns="http://www.w3.org/2000/svg" xmlns:xlink="http://www.w3.org/1999/xlink" x="0px" y="0px"
	 width="218.16px" height="112.56px" viewBox="0 0 218.16 112.56" enable-background="new 0 0 218.16 112.56" xml:space="preserve">
<g>
	<rect x="22.269" y="51.903" fill="#DFE24E" width="40.051" height="30.531"/>
	<text transform="matrix(1 0 0 1 9.3012 35.8793)" fill="#4B532B" font-family="'DINAlternate-Bold'" font-size="14.494">La</text>
	<text transform="matrix(1 0 0 1 24.6092 35.8793)" fill="#010101" font-family="'DINAlternate-Bold'" font-size="14.494"> </text>
	<text transform="matrix(1 0 0 1 28.0842 35.8793)" fill="#2762A9" font-family="'DINAlternate-Bold'" font-size="14.494">Sardegna</text>
	<text transform="matrix(1 0 0 1 86.6122 35.8793)" fill="#010101" font-family="'DINAlternate-Bold'" font-size="14.494"> </text>
	<text transform="matrix(1 0 0 1 90.0872 35.8793)" fill="#DE8F3D" font-family="'DINAlternate-Bold'" font-size="14.494">cresce</text>
	<text transform="matrix(1 0 0 1 130.0442 35.8793)" fill="#010101" font-family="'DINAlternate-Bold'" font-size="14.494"> </text>
	<text transform="matrix(1 0 0 1 133.5192 35.8793)" fill="#4B532B" font-family="'DINAlternate-Bold'" font-size="14.494">con</text>
	<text transform="matrix(1 0 0 1 154.9842 35.8793)" fill="#010101" font-family="'DINAlternate-Bold'" font-size="14.494"> </text>
	<text transform="matrix(1 0 0 1 158.4592 35.8793)" fill="#B0202D" font-family="'DINAlternate-Bold'" font-size="14.494">l’Europa</text>
	<text transform="matrix(1 0 0 1 78.8979 57.768)" fill="#010101" font-family="'ArialMT'" font-size="13.2956">Progetto cofinanziato</text>
	<text transform="matrix(1 0 0 1 78.8979 71.556)" fill="#010101" font-family="'ArialMT'" font-size="13.2956">dall’Unione Europea</text>
	<text transform="matrix(1 0 0 1 78.8979 85.836)" fill="#010101" font-family="'Arial-BoldMT'" font-size="6.894">FESR</text>
	<text transform="matrix(1 0 0 1 96.7879 85.836)" fill="#010101" font-family="'ArialMT'" font-size="6.894"> </text>
	<text transform="matrix(1 0 0 1 98.5789 85.836)" fill="#010101" font-family="'Arial-BoldMT'" font-size="6.4016">F</text>
	<text transform="matrix(1 0 0 1 102.5019 85.836)" fill="#010101" font-family="'ArialMT'" font-size="6.4016">ondo </text>
	<text transform="matrix(1 0 0 1 118.5859 85.836)" fill="#010101" font-family="'Arial-BoldMT'" font-size="6.4016">E</text>
	<text transform="matrix(1 0 0 1 122.8689 85.836)" fill="#010101" font-family="'ArialMT'" font-size="6.4016">uropeo di </text>
	<text transform="matrix(1 0 0 1 151.4689 85.836)" fill="#010101" font-family="'Arial-BoldMT'" font-size="6.4016">S</text>
	<text transform="matrix(1 0 0 1 155.7519 85.836)" fill="#010101" font-family="'ArialMT'" font-size="6.4016">viluppo </text>
	<text transform="matrix(1 0 0 1 177.9189 85.836)" fill="#010101" font-family="'Arial-BoldMT'" font-size="6.4016">R</text>
	<text transform="matrix(1 0 0 1 182.5549 85.836)" fill="#010101" font-family="'ArialMT'" font-size="6.4016">egionale</text>
	<path fill="#2A2B6D" d="M41.054,47.401c9.556,0,19.112,0,28.668,0c0.276,0,0.554,0.015,0.829-0.003
		c0.424-0.027,0.695,0.079,0.633,0.581c-0.024,0.194-0.003,0.394-0.003,0.591c0,12.415,0.001,24.83-0.001,37.245
		c0,1.296,0.142,1.161-1.107,1.161c-19.349,0.002-38.697,0.002-58.046,0.002c-0.237,0-0.474-0.008-0.711-0.004
		c-0.356,0.007-0.486-0.178-0.473-0.514c0.011-0.275-0.001-0.552-0.001-0.828c0-12.297-0.002-24.594,0.003-36.89
		c0.001-1.481-0.208-1.338,1.305-1.338C21.785,47.399,31.42,47.401,41.054,47.401z M28.302,62.408
		c0.016,0.057,0.036,0.132,0.056,0.207c0.099-0.061,0.212-0.107,0.295-0.186c0.593-0.563,1.183-0.689,1.8-0.032
		c0.069,0.074,0.261,0.141,0.311,0.102c0.132-0.103,0.121-0.287,0.05-0.429c-0.336-0.671-0.229-1.187,0.487-1.524
		c0.135-0.063,0.272-0.163,0.249-0.353c-0.027-0.231-0.228-0.209-0.358-0.189c-0.795,0.123-1.282-0.153-1.394-0.988
		c-0.014-0.102-0.12-0.266-0.193-0.271c-0.176-0.014-0.245,0.169-0.265,0.307c-0.113,0.766-0.548,1.068-1.303,0.945
		c-0.076-0.012-0.159-0.009-0.234,0.009c-0.107,0.025-0.253,0.041-0.303,0.114c-0.077,0.114,0.031,0.226,0.138,0.273
		c0.895,0.393,1.055,1.038,0.666,1.881C28.29,62.307,28.302,62.352,28.302,62.408z M54.407,60.159
		c-0.026-0.103-0.075-0.18-0.27-0.149c-0.894,0.142-1.411-0.203-1.564-1.102c-0.015-0.086-0.167-0.149-0.255-0.222
		c-0.055,0.103-0.144,0.202-0.16,0.31c-0.128,0.906-0.698,1.13-1.512,1.01c-0.111-0.016-0.311-0.002-0.334,0.054
		c-0.064,0.155,0.06,0.298,0.193,0.361c0.822,0.39,1.071,0.959,0.606,1.783c-0.027,0.047,0.006,0.165,0.051,0.208
		c0.094,0.089,0.223,0.074,0.305-0.019c0.604-0.676,1.194-0.604,1.797,0.005c0.069,0.07,0.23,0.125,0.309,0.092
		c0.191-0.079,0.129-0.261,0.058-0.392c-0.43-0.79-0.226-1.339,0.609-1.664C54.362,60.387,54.421,60.292,54.407,60.159z
		 M47.595,53.953c-0.059,0.064-0.148,0.114-0.156,0.175c-0.148,1.062-0.856,1.249-1.768,1.167c-0.173-0.015-0.279,0.152-0.106,0.308
		s0.362,0.303,0.566,0.412c0.428,0.228,0.519,0.539,0.314,0.966c-0.067,0.14-0.124,0.292-0.146,0.445
		c-0.015,0.105,0.04,0.221,0.063,0.331c0.107-0.026,0.247-0.019,0.316-0.085c0.613-0.588,1.206-0.629,1.801,0.023
		c0.081,0.089,0.223,0.135,0.299,0.048c0.06-0.069,0.084-0.24,0.04-0.319c-0.4-0.723-0.213-1.257,0.491-1.648
		c0.13-0.072,0.3-0.136,0.237-0.342c-0.062-0.202-0.255-0.181-0.386-0.156c-0.843,0.162-1.222-0.274-1.388-1.022
		C47.747,54.15,47.656,54.056,47.595,53.953z M49.604,77.959c0.041-0.26-0.117-0.262-0.206-0.252
		c-0.877,0.1-1.549-0.075-1.641-1.124c-0.007-0.076-0.144-0.188-0.232-0.2c-0.134-0.018-0.198,0.128-0.215,0.238
		c-0.128,0.826-0.553,1.237-1.431,1.076c-0.127-0.023-0.355-0.052-0.372,0.125c-0.01,0.102,0.159,0.263,0.284,0.329
		c0.709,0.378,0.925,0.891,0.519,1.624c-0.047,0.085-0.036,0.259,0.023,0.333c0.143,0.179,0.292-0.009,0.368-0.085
		c0.585-0.579,1.143-0.588,1.699,0.029c0.026,0.028,0.059,0.057,0.095,0.068c0.108,0.035,0.238,0.115,0.323,0.083
		c0.229-0.087,0.054-0.281,0.01-0.363c-0.417-0.773-0.242-1.334,0.552-1.712C49.482,78.082,49.563,77.991,49.604,77.959z
		 M34.341,57.105c0.384,0.125,0.648,0.355,0.924,0.57c0.085,0.066,0.229,0.139,0.31,0.11c0.212-0.078,0.093-0.269,0.043-0.382
		c-0.309-0.695-0.343-1.281,0.529-1.578c0.07-0.024,0.136-0.084,0.184-0.144c0.045-0.057,0.08-0.132,0.09-0.204
		c0.023-0.173-0.126-0.179-0.232-0.19c-0.195-0.021-0.396-0.042-0.588-0.018c-0.477,0.061-0.734-0.144-0.833-0.6
		c-0.033-0.151-0.093-0.303-0.173-0.435c-0.056-0.092-0.167-0.151-0.254-0.225c-0.053,0.092-0.142,0.18-0.155,0.278
		c-0.107,0.817-0.558,1.134-1.367,0.988c-0.134-0.024-0.377,0.017-0.413,0.097c-0.097,0.219,0.108,0.367,0.271,0.452
		c0.555,0.291,0.846,0.663,0.563,1.314c-0.084,0.193-0.334,0.46-0.068,0.616c0.192,0.113,0.417-0.139,0.606-0.279
		C33.963,57.34,34.163,57.221,34.341,57.105z M31.675,73.072c-0.141-0.046-0.251-0.122-0.344-0.105
		c-0.891,0.158-1.42-0.179-1.573-1.085c-0.014-0.08-0.141-0.14-0.216-0.21c-0.062,0.098-0.166,0.191-0.18,0.296
		c-0.121,0.907-0.702,1.105-1.496,0.993c-0.038-0.005-0.079,0-0.118,0.005c-0.105,0.013-0.262-0.001-0.262,0.125
		c0,0.084,0.117,0.196,0.208,0.247c0.689,0.382,1.117,0.846,0.624,1.671c-0.08,0.133-0.069,0.328,0.073,0.415
		c0.063,0.039,0.244-0.034,0.319-0.109c0.556-0.554,1.101-0.691,1.672-0.022c0.097,0.114,0.248,0.228,0.39,0.089
		c0.066-0.065,0.102-0.245,0.06-0.323c-0.426-0.795-0.136-1.319,0.6-1.703C31.524,73.308,31.578,73.188,31.675,73.072z
		 M33.253,80.201c0.103-0.05,0.24-0.075,0.309-0.157c0.56-0.671,1.113-0.577,1.678-0.014c0.055,0.055,0.124,0.1,0.195,0.131
		c0.069,0.031,0.167,0.075,0.218,0.048c0.125-0.064,0.09-0.189,0.057-0.302c-0.055-0.188-0.072-0.398-0.169-0.561
		c-0.269-0.45-0.098-0.726,0.31-0.942c0.103-0.055,0.197-0.129,0.291-0.2c0.153-0.115,0.36-0.229,0.296-0.443
		c-0.019-0.064-0.289-0.081-0.441-0.071c-0.631,0.041-1.188-0.008-1.314-0.799c-0.029-0.182-0.04-0.461-0.281-0.454
		c-0.302,0.008-0.28,0.35-0.317,0.539c-0.111,0.559-0.387,0.813-0.965,0.711c-0.114-0.02-0.236-0.009-0.353,0.003
		c-0.139,0.014-0.338-0.066-0.393,0.114c-0.057,0.185,0.148,0.283,0.264,0.343c0.705,0.362,0.902,0.879,0.56,1.599
		c-0.05,0.104-0.087,0.219-0.1,0.333C33.095,80.112,33.194,80.157,33.253,80.201z M42.05,81.857c0.17,0.012,0.211-0.133,0.172-0.222
		c-0.347-0.791-0.179-1.382,0.584-1.844c0.227-0.137,0.053-0.364-0.195-0.328c-0.809,0.119-1.268-0.181-1.37-1.013
		c-0.016-0.132-0.153-0.327-0.266-0.352c-0.154-0.034-0.243,0.172-0.26,0.31c-0.098,0.786-0.462,1.212-1.318,1.048
		c-0.097-0.019-0.265,0.02-0.307,0.088c-0.102,0.168,0.04,0.326,0.167,0.38c0.857,0.363,0.733,0.97,0.45,1.64
		c-0.039,0.092,0.011,0.221,0.019,0.333c0.103-0.039,0.223-0.055,0.306-0.12c0.603-0.476,1.198-0.76,1.808-0.008
		C41.882,81.82,41.979,81.829,42.05,81.857z M39.808,56.062c0.068-0.034,0.109-0.045,0.138-0.07
		c0.668-0.594,1.333-0.741,2.003-0.002c0.081,0.09,0.195,0.129,0.284,0.012c0.072-0.095,0.091-0.198,0.019-0.322
		c-0.356-0.622-0.396-1.179,0.353-1.557c0.172-0.087,0.447-0.192,0.374-0.386c-0.091-0.244-0.406-0.145-0.611-0.124
		c-0.612,0.062-0.977-0.157-1.059-0.788c-0.015-0.115-0.048-0.236-0.106-0.335c-0.055-0.094-0.153-0.162-0.232-0.241
		c-0.075,0.083-0.207,0.161-0.216,0.251c-0.084,0.868-0.525,1.258-1.41,1.117c-0.095-0.015-0.205,0.06-0.309,0.093
		c0.045,0.101,0.063,0.259,0.139,0.293c0.852,0.388,0.866,1.002,0.518,1.743C39.654,55.832,39.595,56.043,39.808,56.062z
		 M54.432,73.17c-0.097-0.29-0.333-0.226-0.483-0.202c-0.751,0.119-1.202-0.138-1.281-0.927c-0.004-0.039-0.008-0.083-0.03-0.113
		c-0.065-0.091-0.121-0.219-0.212-0.255c-0.246-0.097-0.246,0.151-0.263,0.267c-0.131,0.892-0.678,1.144-1.5,1.028
		c-0.126-0.018-0.355-0.056-0.359,0.134c-0.002,0.103,0.185,0.238,0.314,0.311c0.649,0.366,1.021,0.812,0.545,1.569
		c-0.053,0.084-0.125,0.218,0.006,0.316c0.156,0.117,0.305,0.047,0.416-0.063c0.512-0.507,1.014-0.516,1.535-0.013
		c0.108,0.105,0.277,0.204,0.413,0.103c0.133-0.099,0.124-0.293,0.041-0.433c-0.406-0.688-0.024-1.074,0.517-1.416
		C54.218,73.396,54.318,73.274,54.432,73.17z M26.623,68.363c-0.059,0.264-0.071,0.472,0.068,0.527
		c0.1,0.039,0.306-0.066,0.405-0.165c0.523-0.524,1.003-0.473,1.484,0.053c0.105,0.115,0.267,0.216,0.418,0.124
		c0.233-0.141,0.104-0.34,0.014-0.504c-0.327-0.593-0.207-1.031,0.425-1.313c0.07-0.031,0.137-0.083,0.186-0.142
		c0.071-0.085,0.125-0.185,0.186-0.279c-0.106-0.031-0.217-0.101-0.316-0.086c-0.77,0.114-1.289-0.116-1.419-0.955
		c-0.021-0.138-0.12-0.365-0.2-0.373c-0.242-0.022-0.293,0.206-0.33,0.399c-0.143,0.743-0.591,1.034-1.334,0.928
		c-0.121-0.017-0.338-0.063-0.352,0.153c-0.005,0.082,0.117,0.206,0.211,0.255C26.709,67.32,27.078,67.74,26.623,68.363z
		 M54.166,65.047c-0.116,0.163-0.26,0.275-0.273,0.4c-0.091,0.911-0.569,1.285-1.475,1.131c-0.105-0.018-0.314,0.029-0.321,0.07
		c-0.028,0.185,0.162,0.233,0.28,0.322c0.779,0.588,0.776,0.586,0.519,1.494c-0.038,0.133-0.21,0.295-0.026,0.418
		c0.2,0.133,0.388-0.015,0.512-0.148c0.495-0.534,0.968-0.529,1.476-0.018c0.124,0.125,0.322,0.306,0.505,0.171
		c0.204-0.15,0.032-0.375-0.05-0.525c-0.335-0.61-0.155-1.025,0.435-1.32c0.069-0.035,0.125-0.094,0.192-0.134
		c0.102-0.061,0.23-0.146,0.179-0.253c-0.031-0.064-0.213-0.1-0.315-0.081c-0.944,0.182-1.355-0.298-1.484-1.155
		C54.306,65.315,54.239,65.218,54.166,65.047z"/>
</g>
</svg>
