<?xml version="1.0" encoding="utf-8"?>
<!-- Generator: Adobe Illustrator 17.0.0, SVG Export Plug-In . SVG Version: 6.00 Build 0)  -->
<!DOCTYPE svg PUBLIC "-//W3C//DTD SVG 1.1//EN" "http://www.w3.org/Graphics/SVG/1.1/DTD/svg11.dtd">
<svg version="1.1" id="Livello_1" xmlns="http://www.w3.org/2000/svg" xmlns:xlink="http://www.w3.org/1999/xlink" x="0px" y="0px"
	 width="34px" height="34px" viewBox="0 0 34 34" enable-background="new 0 0 34 34" xml:space="preserve">
<g>
	<path fill-rule="evenodd" clip-rule="evenodd" fill="#FFFFFF" d="M17,0c9.389,0,17,7.611,17,17s-7.611,17-17,17
		C7.611,34,0,26.389,0,17S7.611,0,17,0z"/>
	<path fill-rule="evenodd" clip-rule="evenodd" fill="#0050A0" d="M17,2c8.284,0,15,6.716,15,15s-6.716,15-15,15
		C8.716,32,2,25.284,2,17S8.716,2,17,2z"/>
	<path fill-rule="evenodd" clip-rule="evenodd" fill="#FFFFFF" d="M21.455,18l0.182-4H18v-2.5c0-0.828,0.672-1.5,1.5-1.5h2.318L22,6
		h-4c-2.209,0-4,1.791-4,4v4h-3v4h3v10h4V18H21.455z"/>
</g>
</svg>
