<?xml version="1.0" encoding="utf-8"?>
<!-- Generator: Adobe Illustrator 17.0.0, SVG Export Plug-In . SVG Version: 6.00 Build 0)  -->
<!DOCTYPE svg PUBLIC "-//W3C//DTD SVG 1.1//EN" "http://www.w3.org/Graphics/SVG/1.1/DTD/svg11.dtd">
<svg version="1.1" id="Livello_1" xmlns="http://www.w3.org/2000/svg" xmlns:xlink="http://www.w3.org/1999/xlink" x="0px" y="0px"
	 width="34px" height="34px" viewBox="0 0 34 34" enable-background="new 0 0 34 34" xml:space="preserve">
<g>
	<path fill-rule="evenodd" clip-rule="evenodd" fill="#FFFFFF" d="M17,0c9.389,0,17,7.611,17,17s-7.611,17-17,17S0,26.389,0,17
		S7.611,0,17,0z"/>
	<path fill-rule="evenodd" clip-rule="evenodd" fill="#004594" d="M17,2c8.284,0,15,6.716,15,15s-6.716,15-15,15
		C8.716,32,2,25.284,2,17S8.716,2,17,2z"/>
	<g>
		<polygon fill-rule="evenodd" clip-rule="evenodd" fill="#FFFFFF" points="25,16 25,14 23,14 23,16 21,16 21,18 23,18 23,20 25,20 
			25,18 27,18 27,16 		"/>
		<path fill-rule="evenodd" clip-rule="evenodd" fill="#FFFFFF" d="M16.859,16H13v2h3.859c-0.446,1.722-1.997,3-3.859,3
			c-2.209,0-4-1.791-4-4s1.791-4,4-4c1.105,0,2.105,0.448,2.828,1.172l1.414-1.414C16.157,11.671,14.657,11,13,11
			c-3.314,0-6,2.686-6,6s2.686,6,6,6c2.972,0,5.433-2.163,5.91-5v-2H18H16.859z"/>
	</g>
</g>
</svg>
