<?xml version="1.0" encoding="utf-8"?>
<!-- Generator: Adobe Illustrator 17.0.0, SVG Export Plug-In . SVG Version: 6.00 Build 0)  -->
<!DOCTYPE svg PUBLIC "-//W3C//DTD SVG 1.1//EN" "http://www.w3.org/Graphics/SVG/1.1/DTD/svg11.dtd">
<svg version="1.1" id="Livello_1" xmlns="http://www.w3.org/2000/svg" xmlns:xlink="http://www.w3.org/1999/xlink" x="0px" y="0px"
	 width="64px" height="64px" viewBox="0 0 64 64" enable-background="new 0 0 64 64" xml:space="preserve">
<g>
	<path fill-rule="evenodd" clip-rule="evenodd" fill="#FFFFFF" d="M32,0C14.327,0,0,14.327,0,32s14.327,32,32,32s32-14.327,32-32
		S49.673,0,32,0z M32,61C15.984,61,3,48.016,3,32S15.984,3,32,3s29,12.984,29,29S48.016,61,32,61z"/>
	<path fill-rule="evenodd" clip-rule="evenodd" fill="#FFFFFF" d="M45.853,27.08c0.915-1.101,3.085-3.712,4.147-4.99
		c0.694-0.827-0.314-1.24-0.314-1.24l-12.015-6.654c0,0-0.849-0.597-1.492,0.107c-0.528,0.578-3.304,3.706-4.279,4.805l-3.849-4.664
		c0,0-0.51-0.842-1.569-0.26c-1.059,0.582-11.891,6.413-12.523,6.732c-0.758,0.383-0.183,1.196-0.183,1.196l4.283,5.01
		c-0.961,1.124-3.076,3.6-4.124,4.828c-0.702,0.813,0.296,1.237,0.296,1.237l4.285,2.445c0,1.425,0,6.626,0,7.111
		c0,0.562,0.22,0.598,0.22,0.598s12.039,6.43,12.604,6.744c0.565,0.314,1.048-0.044,1.048-0.044l12.621-6.711
		c0,0,0.422-0.189,0.422-0.587c0-0.333,0-5.35,0-6.971c2.339-1.311,4.356-2.438,4.617-2.576c0.752-0.396,0.162-1.199,0.162-1.199
		L45.853,27.08z M36.942,15.755l11.18,6.021l-3.79,4.56L33.073,20.1L36.942,15.755z M15.617,21.775l11.387-6.021l3.675,4.453
		l-11.133,6.165L15.617,21.775z M15.799,32.289l3.706-4.338l11.234,6.221l-3.89,4.251L15.799,32.289z M31.145,48.335l-11.18-5.982
		V36.46l6.138,3.502c0,0,0.838,0.604,1.486-0.086c0.428-0.455,2.316-2.523,3.555-3.881V48.335z M31.973,33.194L21,27.173
		l10.973-5.813l10.973,5.813L31.973,33.194z M43.982,42.232l-11.387,6.055V35.853l3.478,4.066c0,0,0.525,0.833,1.573,0.233
		c0.523-0.299,3.452-1.947,6.336-3.565V42.232z M37.096,38.59l-3.815-4.459l11.174-6.188l3.92,4.425L37.096,38.59z"/>
</g>
</svg>
