<?xml version="1.0" encoding="utf-8"?>
<!-- Generator: Adobe Illustrator 17.0.0, SVG Export Plug-In . SVG Version: 6.00 Build 0)  -->
<!DOCTYPE svg PUBLIC "-//W3C//DTD SVG 1.1//EN" "http://www.w3.org/Graphics/SVG/1.1/DTD/svg11.dtd">
<svg version="1.1" id="Livello_1" xmlns="http://www.w3.org/2000/svg" xmlns:xlink="http://www.w3.org/1999/xlink" x="0px" y="0px"
	 width="218.16px" height="112.56px" viewBox="0 0 218.16 112.56" enable-background="new 0 0 218.16 112.56" xml:space="preserve">
<g>
	<path fill="#FFFFFF" d="M99.034,61.583l-0.45-0.378L97.225,62.5c0.202,0.16,0.409,0.315,0.617,0.465L99.034,61.583z"/>
	<path fill="#FFFFFF" d="M102.231,63.43c0,0-1.295-0.308-2.705-1.235l-1.011,1.223c1.021,0.657,2.103,1.212,3.204,1.727
		L102.231,63.43z"/>
	<path fill="#FFFFFF" d="M103.222,63.567c-0.178-0.026-0.353-0.062-0.529-0.104l-0.604,1.854l0.755,0.34L103.222,63.567z"/>
	<path fill="#FFFFFF" d="M88.269,35.571c-0.235,1.022-0.116,1.938,0.041,2.359c0.607,0.41,1.616,0.126,2.285-0.145
		c0.045-0.275,0.237-1.449,0.324-1.864c0.112-0.524,0.286-1.192,0.286-1.192s-1,0-1.286-0.064
		C89.633,34.602,88.554,34.332,88.269,35.571"/>
	<path fill="#FFFFFF" d="M103.447,50.355l0.148-0.153c0.408-0.357,0.878-0.443,1.387-0.176
		C104.604,50.458,104.012,50.565,103.447,50.355 M103.471,51.378c-0.06-0.192-0.076-0.388-0.056-0.586
		c0.417,0.119,0.669,0.37,0.799,0.77c0.063,0.2,0.092,0.406,0.079,0.614C103.876,52.038,103.601,51.795,103.471,51.378
		 M103.135,50.814c-0.154,0.005-0.285-0.118-0.288-0.273c-0.017-0.364,0.549-0.389,0.561-0.017
		C103.411,50.679,103.29,50.806,103.135,50.814 M102.042,49.529c-0.567-0.467-1.394-1.03-2.436-1.426
		c0.178-0.396,0.582-0.844,1.364-1.004c0.216-0.043,0.453-0.067,0.678-0.055c0.767,0.045,1.233,0.644,1.449,1.314
		c0.211,0.647,0.037,1.308-0.284,1.89C102.545,49.969,102.325,49.761,102.042,49.529 M101.939,52.394
		c0.037,0.066,0.085,0.122,0.139,0.179l0.162,0.187c0.097,0.141,0.138,0.302,0.148,0.464c0.038,0.684-0.319,0.819-0.776,0.842
		c-0.22,0.011-0.471-0.006-0.723,0.007c-0.251,0.012-0.495,0.05-0.714,0.16c-0.461,0.236-0.805,0.465-1.06,0.595
		c-0.25,0.129-0.469,0.192-0.613-0.014c-0.141-0.207,0.206-0.726,0.533-1.163c0.347-0.461,0.747-0.92,0.848-1.066
		c0.128-0.179,0.024-0.362-0.044-0.45c-0.345,0.374-0.8,0.357-0.985,0.108c-0.099-0.138-0.074-0.286-0.032-0.393
		c0.068-0.159,0.036-0.184-0.003-0.199c-0.224-0.097-0.24-0.164-0.243-0.203l0.119-0.194c-0.115-0.028-0.15-0.041-0.173-0.062
		c-0.05-0.053-0.188-0.227,0.088-0.389c0.094-0.058,0.139-0.133,0.164-0.196l-0.236-0.146c-0.146-0.034-0.358-0.101-0.382-0.282
		c-0.017-0.153,0.083-0.277,0.179-0.352c0.058-0.047,0.304-0.308,0.546-0.569c0.115,0.062,0.607,0.316,1.256,0.563
		c0.701,0.269,1.622,0.551,2.553,0.63c-0.166,0.266-0.359,0.511-0.555,0.725c-0.189,0.212-0.287,0.529-0.289,0.817
		C101.848,52.133,101.873,52.272,101.939,52.394 M92.428,43.674c0.67,9.379,6.245,18.281,11.72,18.691
		c-0.06-0.185-0.073-0.387-0.072-0.54c0-0.318,0.057-0.599,0.057-0.599c0.083-0.408,0.35-0.74,0.733-0.907
		c0.413-0.182,0.873-0.122,1.23,0.104v-1.172c-0.027-0.04-0.05-0.092-0.078-0.129c-0.045-0.06-0.043-0.193,0.002-0.252
		c0,0,0.029-0.037,0.076-0.097V43.674H92.428z"/>
	<path fill="#FFFFFF" d="M96.745,62.105l0.174,0.147l1.186-1.153c0,0-1.202-1.012-2.446-2.664l-1.41,0.981l-0.032,0.022
		C94.99,60.413,95.836,61.317,96.745,62.105"/>
	<path fill="#FFFFFF" d="M89.221,47.29c0,0,0.644,3.529,1.139,4.58l1.609-0.495c0,0-1.138-3.51-1.287-5.077l-1.028-0.077
		C89.654,46.223,89.702,46.928,89.221,47.29"/>
	<path fill="#FFFFFF" d="M90.11,30.123c-0.42,0.747-0.227,1.425,0.111,1.941c0.555,0.329,1.342,0.291,1.887,0.204
		c0.191-0.4,0.705-1.461,0.973-1.97C93.081,30.299,91.031,28.488,90.11,30.123"/>
</g>
<polygon fill="#FFFFFF" points="92.716,52.168 92.526,51.649 90.227,52.315 90.515,53.048 "/>
<polygon fill="#FFFFFF" points="95.423,57.517 95.11,57.032 93.208,58.068 93.672,58.725 "/>
<g>
	<path fill="#FFFFFF" d="M94.574,56.856c-1.075-1.685-1.863-3.583-1.863-3.583l-1.581,0.653c0.391,1.109,1.948,3.741,1.948,3.741
		L94.574,56.856z"/>
	<path fill="#FFFFFF" d="M105.814,22.843c-0.168-0.153-0.31-0.351-0.427-0.565C105.504,22.492,105.647,22.689,105.814,22.843"/>
	<path fill="#FFFFFF" d="M103.484,50.894c-0.007,0.19,0.015,0.903,0.735,1.172C104.216,51.862,104.156,51.122,103.484,50.894"/>
	<path fill="#FFFFFF" d="M123.42,21.381c-1.62-0.331-3.391,0.065-4.37,1.572C120.029,21.447,121.8,21.05,123.42,21.381"/>
	<path fill="#FFFFFF" d="M104.772,17.87c0.071-0.009,0.142-0.01,0.214-0.006C104.914,17.86,104.844,17.861,104.772,17.87"/>
	<path fill="#FFFFFF" d="M102.925,50.537c0.002,0.114,0.098,0.201,0.207,0.198c0.111-0.005,0.199-0.097,0.196-0.209
		C103.32,50.258,102.914,50.276,102.925,50.537"/>
	<path fill="#FFFFFF" d="M103.584,50.322c0.785,0.248,1.271-0.272,1.271-0.272C104.101,49.709,103.584,50.322,103.584,50.322"/>
	<path fill="#FFFFFF" d="M115.166,17.333c-0.003-0.091,0.004-0.187,0.021-0.291C115.17,17.146,115.163,17.242,115.166,17.333"/>
	<path fill="#FFFFFF" d="M105.648,24.276c-0.587-0.474-1.446-0.655-2.168-0.655c-1.201,0-2.378,0.221-3.501,0.648
		c1.123-0.427,2.299-0.646,3.501-0.646C104.202,23.623,105.062,23.802,105.648,24.276"/>
	<path fill="#FFFFFF" d="M89.714,28.538c-0.166,0.125-1.417,1.168-0.556,3.497l0.069,0.184c-0.122-0.156-0.51-0.657-0.633-1.354
		c-0.124-0.699,0.021-1.594,1.084-2.375l0.402-0.255L89.714,28.538z M87.66,34.041c-0.085,0.095-0.133,0.153-0.187,0.234
		c-0.106,0.159-0.237,0.402-0.338,0.737c-0.206,0.669-0.292,1.703,0.188,3.159l0.057,0.175c-0.112-0.148-0.537-0.711-0.706-1.518
		c-0.168-0.807-0.082-1.859,0.942-2.833l0.269-0.218L87.66,34.041z M88.016,44.372c-0.213-0.07-0.316-0.136-0.435-0.223
		c-0.235-0.178-0.534-0.443-0.784-0.811c-0.501-0.732-0.804-1.844-0.058-3.373l0.125-0.201l-0.067,0.223c0,0-0.047,0.176-0.097,0.46
		c-0.051,0.284-0.094,0.68-0.073,1.127C86.67,42.465,86.962,43.573,88.016,44.372 M88.605,45.947
		c-1.242-0.218-2.499-0.868-3.405-1.739c-1.636-1.563-2.902-4.443-1.652-9.679c1.175-4.915,3.987-9.698,8.705-11.851
		c0.329-0.149,0.604-0.256,0.809-0.328c0.091-0.036,0.85-0.267,1.443-0.165c0,0-0.861,0.261-1.645,0.845
		c-1.776,1.328-1.83,3.982-2.21,4.122c0,0-0.182,0.068-0.446,0.232c-2.849,1.777-1.516,5.137-1.95,5.396c0,0-0.199,0.119-0.474,0.36
		c-1.696,1.492-1.976,3.596-1.139,5.72c-1.059,2.193-1.721,7.049,4.357,6.454c-0.045-0.357-0.084-0.714-0.118-1.075
		c-2.048,0.555-3.61-0.097-3.896-2.389c-0.235-1.885,0.283-2.375,1.261-2.361c0.879,0.013,1.759,0.291,2.6-0.107
		c0.034-0.449,0.079-0.889,0.135-1.323c-1.378,0.591-3.405,1-3.584-1.126c-0.237-2.786,0.928-3.503,2.251-3.291
		c0.75,0.12,1.542,0.099,2.305,0.036c0.116-0.355,0.239-0.698,0.369-1.033c-1.158,0.212-2.707,0.141-3.086-1.269
		c-0.538-2.007,0.997-3.389,2.515-2.816c0.524,0.199,0.964,0.484,1.446,0.76c0.216,0.123,0.413,0.212,0.658,0.243
		c0.158-0.249,0.319-0.493,0.485-0.73c-1.242-0.318-2.411-1.121-2.221-2.63c0.153-1.217,0.949-2.504,2.011-3.194
		c0.377-0.247,0.797-0.44,0.797-0.44s-0.299,0.433-0.382,1.137c-0.218,1.801,2.946,1.058,1.917-0.532
		c-0.991-1.528-3.017-1.789-4.6-1.215c-0.026,0.007-0.471,0.099-1.177,0.409c-4.867,2.128-7.562,7.441-8.705,12.358
		c-1.091,4.694-0.699,10.033,4.274,11.964c0.588,0.228,1.032,0.316,1.168,0.338C87.889,46.88,88.594,46.542,88.605,45.947"/>
	<path fill="#FFFFFF" d="M116.187,19.141c0.088-0.009,0.214-0.036,0.266-0.019C116.401,19.105,116.275,19.132,116.187,19.141
		c-0.607,0.062-0.916,0.383-1.047,0.797C115.271,19.524,115.579,19.203,116.187,19.141"/>
	<path fill="#FFFFFF" d="M115.157,21.294v-0.002c-1.244-1.181-1.374-2.359-1.189-3.176
		C113.782,18.934,113.913,20.112,115.157,21.294"/>
	<path fill="#FFFFFF" d="M116.509,15.638c-1.072-0.641-2.994-0.278-3.824,1.079c-0.33,0.541-0.471,1.119-0.476,1.704
		c0.005-0.585,0.146-1.163,0.476-1.702C113.515,15.361,115.437,14.997,116.509,15.638"/>
	<path fill="#FFFFFF" d="M105.841,62.738c0.465-0.383,0.626-1.109,0.35-1.632c-0.216-0.412-0.732-0.599-1.16-0.411
		c-0.258,0.113-0.437,0.332-0.495,0.611c-0.015,0.079-0.149,0.931,0.183,1.163c0.124,0.08,0.284,0.122,0.471,0.028
		c0,0-0.103,0.252-0.65,0.295l-0.329-0.01c-6.238-0.364-12.262-10.887-12.262-20.972c0-10.318,5.585-16.862,11.906-16.862
		l0.667,0.017c0.125,0.004,0.299,0.022,0.485,0.162c-0.194,0.085-0.27,0.148-0.374,0.215c-0.509,0.334-0.471,0.832,0.048,1.172
		c0.483,0.313,1.162,0.02,1.225-0.554c0.149-1.37-1.145-1.926-2.427-1.926c-3.152,0-6.181,1.603-8.444,4.539
		c-0.546,0.842-0.626,0.886-0.951,1.406c-0.393,0.683-0.784,1.428-1.124,2.225c-0.422,1.165-0.64,1.528-1.479,5.25l-0.22,2.071
		c-0.067,0.788-0.091,1.43-0.091,2.124c0,0.679,0.026,1.36,0.074,2.033c0.056,0.711,0.113,1.052,0.183,1.749
		c1.28,9.5,7.138,17.802,12.787,17.803C104.769,63.233,105.442,63.068,105.841,62.738"/>
	<path fill="#FFFFFF" d="M125.55,32.11c0.36-0.523,0.591-1.225,0.154-2.005c-0.914-1.635-2.949,0.175-2.949,0.175
		c0.269,0.517,0.786,1.598,0.973,1.986C124.246,32.349,124.996,32.393,125.55,32.11"/>
	<path fill="#FFFFFF" d="M120.821,28.572c-2.262-2.936-5.293-4.539-8.444-4.539c-1.281,0-2.576,0.556-2.428,1.926
		c0.065,0.575,0.744,0.867,1.227,0.554c0.519-0.339,0.556-0.837,0.049-1.172c-0.105-0.067-0.18-0.13-0.374-0.215
		c0.187-0.14,0.358-0.158,0.484-0.162l0.667-0.017c6.321,0,11.906,6.544,11.906,16.862c0,10.085-6.025,20.608-12.259,20.972
		l-0.331,0.01c-0.549-0.043-0.65-0.295-0.65-0.295c0.188,0.095,0.345,0.053,0.471-0.028c0.332-0.232,0.199-1.084,0.183-1.163
		c-0.058-0.279-0.237-0.498-0.495-0.611c-0.429-0.188-0.944-0.001-1.161,0.411c-0.125,0.232-0.16,0.51-0.121,0.776
		c0.025,0.157,0.075,0.313,0.147,0.454c0.079,0.153,0.19,0.291,0.324,0.401c0.398,0.33,1.071,0.495,1.625,0.495
		c5.649-0.001,11.506-8.303,12.787-17.803c0.068-0.697,0.126-1.037,0.181-1.749c0.05-0.673,0.077-1.354,0.077-2.033
		c0-0.694-0.025-1.335-0.091-2.124l-0.221-2.071c-0.836-3.722-1.055-4.086-1.479-5.25c-0.339-0.797-0.73-1.542-1.124-2.225
		C121.443,29.458,121.365,29.414,120.821,28.572"/>
	<path fill="#FFFFFF" d="M117.294,63.453l-1.006-1.229c-1.589,1.061-2.714,1.271-2.714,1.271l0.509,1.674
		C115.188,64.657,116.273,64.103,117.294,63.453"/>
	<path fill="#FFFFFF" d="M125.139,46.262c-0.241,1.968-1.296,5.132-1.296,5.132l1.59,0.477c0.632-1.518,1.11-4.58,1.11-4.58
		c-0.548-0.563-0.407-1.07-0.407-1.07C125.981,46.248,125.139,46.262,125.139,46.262"/>
	<path fill="#FFFFFF" d="M112.568,63.576l0.371,2.114l0.747-0.337l-0.539-1.887C112.955,63.513,112.762,63.548,112.568,63.576"/>
	<path fill="#FFFFFF" d="M109.439,21.144c-0.863,0.464-0.889,1.206-0.576,1.431c0.975,0.689,1.214-0.826,1.529-0.832
		c2.27-0.041,4.511,1.115,6.423,2.699c0.281,0.153,2.937,1.636,4.68,3.956c0.483-0.127,1.165-0.392,1.554-0.93
		c0.236-0.392,0.54-1.324-0.776-2.574c0,0-0.363,0.926-1.492,0.873c-0.931-0.045-1.538-0.737-1.785-1.213
		c-0.125-0.154-0.209-0.337-0.239-0.546c-1.34-1.077-2.52-2.494-2.732-4.139L116,19.6c-0.759,0.25-0.536,1.318-0.367,1.879
		c0.065,0.213,0.124,0.354,0.124,0.354c0.443,0.791,1.049,1.372,1.344,1.634l-1.565-1.339c-2.521-1.904-2.216-3.949-1.662-4.903
		c0.566-0.977,1.864-0.634,1.752-0.251c-0.486,1.651,1.398,0.643,1.196-0.273c-0.295-1.331-2.851-1.299-3.787,0.232
		c-0.858,1.398-0.246,3.139,0.541,4.392c0.181,0.29,0.316,0.461,0.316,0.461c0.234,0.296,0.509,0.587,0.758,0.758
		c0,0-0.491-0.055-0.961-0.421C111.654,20.666,110.228,20.72,109.439,21.144"/>
	<path fill="#FFFFFF" d="M99.405,19.121L99.405,19.121c0.063,0.194,0.035,0.568,0.02,0.694
		C99.441,19.689,99.467,19.315,99.405,19.121"/>
	<path fill="#FFFFFF" d="M103.171,16.719c0.883,1.438,0.408,3.157-0.347,4.499C103.579,19.877,104.053,18.157,103.171,16.719
		c-1.105-1.81-4.156-1.852-4.541-0.104C99.016,14.866,102.066,14.908,103.171,16.719"/>
	<path fill="#FFFFFF" d="M106.803,71.281c0.408,0.649,0.864,1.464,0.885,1.841c0.004,0.04,0.032,0.074,0.063,0.107
		c-0.031-0.032-0.06-0.067-0.061-0.107C107.667,72.745,107.211,71.93,106.803,71.281"/>
	<path fill="#FFFFFF" d="M81.586,34.633c1.546-6.648,4.685-9.968,7.068-11.592C86.27,24.665,83.132,27.985,81.586,34.633
		c-2.63,11.318,5.399,12.738,5.89,12.796C86.986,47.371,78.956,45.951,81.586,34.633"/>
	<path fill="#FFFFFF" d="M96.805,22.953c-0.919-1.419-2.542-1.841-4.081-1.611C94.264,21.112,95.886,21.536,96.805,22.953"/>
</g>
<polygon fill="#FFFFFF" points="122.633,58.093 120.746,57.033 120.423,57.534 122.163,58.753 "/>
<g>
	<path fill="#FFFFFF" d="M118.575,62.546l-1.307-1.335l-0.486,0.402l1.19,1.381C118.177,62.85,118.376,62.701,118.575,62.546"/>
	<path fill="#FFFFFF" d="M107.915,65.967c-0.415,0-0.75-0.337-0.75-0.748c0-0.416,0.335-0.751,0.75-0.751
		c0.413,0,0.749,0.336,0.749,0.751C108.664,65.63,108.328,65.967,107.915,65.967 M111.731,65.906
		c-0.003-0.552-1.07-0.712-1.603-0.757l-0.21-0.014l0.214-0.012c0.52-0.042,1.535-0.193,1.595-0.707
		c-0.213-0.37-0.581-0.637-1.011-0.715c0.016,0.134-0.04,0.552-1.18,0.927c0,0,1.167-0.473,1.058-0.944
		c-0.658-0.006-1.031,0.23-1.339,0.616c-0.043,0.053-0.113,0.13-0.197,0.174c-0.139,0.037-0.203,0.025-0.258-0.005
		c-0.369-0.351-0.053-0.568,0.155-0.727c0.308-0.276,0.499-0.684,0.496-1.181c-0.479-0.17-0.974,1.047-0.974,1.047
		c0.395-1.202,0.852-1.203,0.961-1.184c-0.061-0.416-0.296-0.773-0.628-1c-0.632-0.122-0.803,1.047-0.849,1.605l-0.01,0.183
		l-0.013-0.184c-0.047-0.545-0.209-1.664-0.798-1.613c-0.34,0.229-0.582,0.593-0.642,1.016c0.112-0.02,0.553-0.014,0.943,1.176
		c0,0-0.481-1.188-0.955-1.053c-0.003,0.618,0.241,0.976,0.631,1.29c0.565,0.453-0.02,0.964-0.435,0.483
		c-0.383-0.459-0.78-0.659-1.229-0.659c-0.256,0.48,0.931,0.959,0.931,0.959c-1.17-0.384-1.197-0.816-1.178-0.938
		c-0.43,0.073-0.799,0.336-1.016,0.7c0.031,0.534,1.069,0.688,1.597,0.733l0.191,0.015l-0.186,0.012
		c-0.54,0.045-1.62,0.207-1.603,0.774c0.213,0.355,0.596,0.598,1.018,0.676c-0.02-0.114-0.01-0.545,1.177-0.933
		c0,0-1.21,0.49-1.049,0.969c0.647,0.005,1.001-0.232,1.319-0.617c0.042-0.05,0.11-0.129,0.196-0.171
		c0.139-0.037,0.201-0.026,0.257,0.004c0.113,0.093,0.141,0.131,0.161,0.172c0.024,0.281-0.095,0.386-0.202,0.468
		c-0.216,0.176-0.304,0.28-0.378,0.397c-0.154,0.238-0.235,0.511-0.235,0.793c0.489,0.319,0.987-0.917,0.987-0.917
		c-0.451,1.377-0.97,1.169-0.97,1.169c0.077,0.437,0.349,0.809,0.721,1.024c0.548-0.016,0.702-1.084,0.747-1.609l0.013-0.186
		l0.01,0.182c0.043,0.52,0.194,1.568,0.725,1.61c0.368-0.212,0.636-0.581,0.712-1.011c-0.139,0.012-0.553-0.058-0.922-1.18
		c0,0,0.47,1.162,0.94,1.061c0.005-0.635-0.248-1.075-0.619-1.346c-0.053-0.042-0.139-0.119-0.181-0.204
		c-0.038-0.139-0.027-0.201,0.002-0.256c0.289-0.306,0.518-0.133,0.672,0.049c0.36,0.417,0.782,0.581,1.166,0.581
		c0.293-0.492-0.92-0.982-0.92-0.982c1.256,0.413,1.21,0.88,1.19,0.958C111.155,66.545,111.517,66.276,111.731,65.906"/>
	<path fill="#FFFFFF" d="M107.947,67.78c-0.06,0.852-0.322,1.161-0.506,1.272c0.139,0.07,0.315,0.103,0.496,0.103
		c0.186,0,0.365-0.036,0.529-0.097C108.282,68.952,108.008,68.649,107.947,67.78"/>
	<path fill="#FFFFFF" d="M107.915,64.735c-0.267,0-0.481,0.216-0.481,0.484c0,0.266,0.214,0.481,0.481,0.481
		c0.265,0,0.48-0.216,0.48-0.481C108.395,64.95,108.18,64.735,107.915,64.735"/>
	<path fill="#FFFFFF" d="M108.866,66.129c0.438,0.389,0.706,0.782,0.791,1.233c0.243-0.169,0.5-0.314,0.747-0.447
		c-0.445-0.013-0.916-0.209-1.21-0.545C109.15,66.316,108.964,66.032,108.866,66.129"/>
	<path fill="#FFFFFF" d="M111.185,17.836c-0.392-0.016-0.833,0.174-1.16,0.348l-0.32,0.184l0.322-0.184
		C110.354,18.011,110.793,17.82,111.185,17.836"/>
	<path fill="#FFFFFF" d="M107.004,66.189c-0.246,0.118-0.353,0.247-0.495,0.356c-0.302,0.232-0.674,0.363-1.059,0.363
		c0.258,0.138,0.511,0.289,0.762,0.463c0.041-0.221,0.126-0.435,0.251-0.625c0.084-0.138,0.19-0.261,0.31-0.369L107.004,66.189z"/>
	<path fill="#FFFFFF" d="M119.112,62.105c0.416-0.36,0.82-0.746,1.21-1.151c0.538-0.672,1.218-1.556,1.218-1.556l-1.372-0.927
		c-0.829,1.125-2.431,2.67-2.431,2.67l1.166,1.143L119.112,62.105z"/>
	<path fill="#FFFFFF" d="M125.156,37.74c0.615,0.262,1.596,0.574,2.245,0.272c0.176-0.358,0.345-1.346,0.086-2.465
		c-0.286-1.238-1.364-0.967-1.65-0.904c-0.287,0.063-1.288,0.063-1.288,0.063s0.174,0.668,0.286,1.192
		C124.921,36.305,125.107,37.431,125.156,37.74"/>
</g>
<polygon fill="#FFFFFF" points="125.62,52.34 123.329,51.653 123.128,52.206 125.326,53.081 "/>
<g>
	<path fill="#FFFFFF" d="M124.659,53.909l-1.547-0.604c-0.309,0.829-1.856,3.577-1.856,3.577l1.463,0.801
		C123.591,56.375,124.659,53.909,124.659,53.909"/>
	<path fill="#FFFFFF" d="M107.7,25.949c0-0.154-0.121-0.276-0.274-0.276s-0.276,0.123-0.276,0.276c0,0.151,0.124,0.276,0.276,0.276
		C107.577,26.224,107.7,26.102,107.7,25.949"/>
	<path fill="#FFFFFF" d="M120.1,50.05c-0.753-0.341-1.273,0.272-1.273,0.272C119.613,50.57,120.1,50.05,120.1,50.05"/>
	<path fill="#FFFFFF" d="M107.376,61.286c0.181,0.078,0.505,0.346,0.571,1.305c0.067-0.926,0.374-1.212,0.556-1.299
		c-0.156-0.091-0.34-0.127-0.535-0.127C107.758,61.165,107.557,61.208,107.376,61.286"/>
	<path fill="#FFFFFF" d="M108.895,60.603c0.105-0.617,0.26-1.199,0.519-1.6c-0.544-0.703-1.135-1.476-1.492-2.296
		c-0.353,0.819-0.942,1.593-1.488,2.296c0.257,0.401,0.425,0.982,0.532,1.599c0.278-0.16,0.617-0.266,0.963-0.266
		C108.276,60.336,108.617,60.442,108.895,60.603"/>
	<path fill="#FFFFFF" d="M129.627,38.923c0.596,1.211,1.103,3.538,0.119,5.142c0.697-0.455,1.892-1.584,2.445-4.191
		c0.227-2.925-0.546-5.58-2.195-9.196c-1.763-3.855-4.667-5.997-5.55-6.581c0.502,0.784,0.875,1.731,1.017,2.723
		c0.578,0.264,3.067,1.65,2.467,5.687C128.521,32.921,131.122,34.997,129.627,38.923"/>
	<polygon fill="#FFFFFF" points="109.771,59.21 109.766,59.221 109.766,60.339 109.77,60.334 	"/>
	<path fill="#FFFFFF" d="M107.985,60.728c-0.692-0.012-1.168,0.432-1.208,0.636c0.322-0.304,0.765-0.488,1.245-0.479
		c0.343,0.006,0.667,0.111,0.934,0.289C108.828,60.97,108.465,60.735,107.985,60.728"/>
	<path fill="#FFFFFF" d="M119.462,52.066c-0.002-0.204-0.061-0.944-0.734-1.172C118.721,51.085,118.744,51.797,119.462,52.066"/>
	<path fill="#FFFFFF" d="M113.582,49.825c0.06-0.047,0.304-0.308,0.546-0.569c0.116,0.062,0.607,0.316,1.257,0.563
		c0.7,0.269,1.621,0.551,2.554,0.63c-0.168,0.266-0.36,0.511-0.557,0.725c-0.189,0.212-0.287,0.529-0.287,0.817
		c-0.003,0.143,0.023,0.281,0.088,0.404c0.036,0.066,0.084,0.122,0.139,0.179l0.164,0.187c0.095,0.141,0.136,0.302,0.146,0.464
		c0.038,0.684-0.317,0.819-0.777,0.842c-0.218,0.01-0.47-0.006-0.721,0.007c-0.252,0.012-0.496,0.049-0.715,0.16
		c-0.461,0.236-0.805,0.465-1.058,0.595c-0.252,0.129-0.472,0.192-0.614-0.014c-0.141-0.207,0.206-0.726,0.532-1.163
		c0.348-0.461,0.747-0.92,0.85-1.066c0.126-0.18,0.023-0.362-0.045-0.45c-0.346,0.373-0.8,0.357-0.986,0.108
		c-0.098-0.138-0.073-0.286-0.031-0.393c0.068-0.159,0.035-0.185-0.002-0.199c-0.224-0.097-0.241-0.164-0.244-0.202l0.119-0.194
		c-0.116-0.028-0.149-0.04-0.172-0.062c-0.053-0.053-0.189-0.227,0.086-0.389c0.095-0.058,0.143-0.133,0.165-0.197l-0.238-0.146
		c-0.144-0.033-0.357-0.1-0.38-0.281C113.384,50.024,113.485,49.9,113.582,49.825 M116.215,47.099
		c0.216-0.043,0.453-0.067,0.676-0.055c0.77,0.044,1.235,0.643,1.451,1.314c0.21,0.647,0.038,1.308-0.284,1.89
		c-0.268-0.279-0.488-0.486-0.771-0.718c-0.564-0.468-1.394-1.03-2.435-1.427C115.029,47.707,115.432,47.259,116.215,47.099
		 M118.651,50.524c0.003,0.154-0.117,0.281-0.27,0.289c-0.156,0.005-0.287-0.117-0.29-0.273
		C118.076,50.177,118.639,50.152,118.651,50.524 M118.66,50.792c0.415,0.119,0.667,0.37,0.797,0.77
		c0.066,0.2,0.092,0.406,0.079,0.613c-0.415-0.138-0.692-0.381-0.819-0.798C118.654,51.187,118.637,50.99,118.66,50.792
		 M118.839,50.202c0.41-0.357,0.88-0.443,1.388-0.176c-0.38,0.432-0.971,0.539-1.536,0.329L118.839,50.202z M123.431,43.631h-13.174
		v16.587c0.314-0.035,0.427-0.035,0.734,0.101c0.382,0.166,0.65,0.498,0.734,0.906c0,0,0.056,0.281,0.056,0.599
		c0,0.153-0.013,0.356-0.073,0.54C117.191,61.955,122.776,53.025,123.431,43.631"/>
	<path fill="#FFFFFF" d="M118.171,50.537c0.001,0.114,0.094,0.201,0.205,0.198c0.111-0.005,0.201-0.097,0.199-0.209
		C118.565,50.258,118.159,50.276,118.171,50.537"/>
	<path fill="#FFFFFF" d="M126.096,28.5c1.064,0.781,1.209,1.676,1.085,2.376c-0.123,0.696-0.51,1.197-0.511,1.199
		c0.806-2.359-0.447-3.4-0.611-3.526l-0.365-0.304L126.096,28.5z M128.179,34.028c1.026,0.973,1.113,2.025,0.944,2.832
		c-0.169,0.806-0.593,1.369-0.593,1.369c0.425-1.483,0.339-2.517,0.133-3.185c-0.101-0.335-0.233-0.577-0.339-0.737
		c-0.055-0.08-0.1-0.14-0.132-0.179l-0.281-0.319L128.179,34.028z M128.989,43.36c-0.252,0.367-0.548,0.634-0.785,0.81
		c-0.118,0.088-0.221,0.153-0.294,0.198c0.913-0.773,1.205-1.881,1.25-2.772c0.021-0.446-0.025-0.842-0.073-1.127
		c-0.05-0.284-0.099-0.461-0.099-0.461l-0.066-0.222l0.124,0.201C129.792,41.514,129.49,42.627,128.989,43.36 M133.875,34.726
		c-1.143-4.918-3.839-10.231-8.704-12.359c-0.705-0.31-1.15-0.402-1.18-0.408c-1.581-0.574-3.608-0.313-4.599,1.214
		c-1.027,1.591,2.136,2.334,1.917,0.533c-0.083-0.704-0.382-1.137-0.382-1.137s0.422,0.193,0.797,0.44
		c1.063,0.69,1.859,1.976,2.012,3.194c0.189,1.509-0.981,2.312-2.221,2.63c0.166,0.237,0.329,0.481,0.485,0.73
		c0.246-0.03,0.442-0.12,0.659-0.243c0.481-0.276,0.923-0.56,1.447-0.76c1.515-0.574,3.052,0.808,2.514,2.816
		c-0.378,1.41-1.928,1.481-3.086,1.269c0.132,0.335,0.253,0.678,0.369,1.033c0.762,0.062,1.555,0.084,2.305-0.036
		c1.323-0.211,2.49,0.505,2.254,3.291c-0.181,2.126-2.209,1.716-3.586,1.126c0.057,0.433,0.101,0.873,0.135,1.322
		c0.841,0.398,1.724,0.12,2.604,0.107c0.976-0.015,1.493,0.475,1.258,2.36c-0.287,2.293-1.847,2.945-3.895,2.39
		c-0.033,0.36-0.071,0.717-0.118,1.075c6.077,0.595,5.415-4.261,4.355-6.454c0.838-2.124,0.559-4.228-1.139-5.72
		c-0.271-0.241-0.471-0.361-0.471-0.361c-0.437-0.259,0.9-3.619-1.95-5.396c-0.266-0.164-0.447-0.232-0.447-0.232
		c-0.38-0.139-0.435-2.794-2.21-4.122c-0.783-0.584-1.643-0.845-1.643-0.845c0.59-0.101,1.349,0.129,1.44,0.165
		c0.206,0.071,0.479,0.178,0.808,0.328c4.718,2.153,7.531,6.937,8.706,11.851c1.251,5.236-0.017,8.115-1.65,9.678
		c-0.907,0.871-2.164,1.522-3.409,1.74c0.014,0.595,0.719,0.933,1.184,1.08c0.134-0.021,0.578-0.11,1.166-0.338
		C134.574,44.759,134.967,39.42,133.875,34.726"/>
	<path fill="#FFFFFF" d="M95.102,25.688c-1.128,0.054-1.493-0.871-1.493-0.871c-1.167,1.11-1.102,1.983-0.927,2.445
		c0.35,0.68,1.146,0.997,1.687,1.136c1.524-1.954,3.666-3.287,4.359-3.69c1.98-1.719,4.341-3.01,6.739-2.966
		c0.314,0.005,0.553,1.521,1.527,0.832c0.315-0.225,0.289-0.966-0.576-1.431c-0.788-0.425-2.214-0.478-4.25,0.979
		c-0.47,0.367-0.961,0.421-0.961,0.421c0.248-0.171,0.524-0.463,0.756-0.759c0,0,0.136-0.17,0.317-0.46
		c0.787-1.254,1.397-2.995,0.539-4.392c-0.936-1.531-3.491-1.563-3.786-0.232c-0.2,0.916,1.683,1.924,1.199,0.273
		c-0.113-0.382,1.183-0.726,1.749,0.251c0.556,0.954,0.861,2.999-1.66,4.903l-1.566,1.339c0.296-0.262,0.901-0.843,1.347-1.634
		c0,0,0.057-0.141,0.122-0.354c0.168-0.561,0.39-1.628-0.367-1.879l-0.024,0.269c-0.213,1.644-1.391,3.062-2.734,4.139
		c-0.032,0.241-0.14,0.446-0.299,0.618C96.512,25.086,95.939,25.648,95.102,25.688"/>
	<path fill="#FFFFFF" d="M111.925,65.162c0-0.188-0.033-0.37-0.098-0.537c-0.11,0.183-0.413,0.45-1.268,0.511
		c0.886,0.062,1.182,0.348,1.281,0.532C111.897,65.511,111.925,65.341,111.925,65.162"/>
	<path fill="#FFFFFF" d="M110.34,24.178c0.579-0.4,1.367-0.555,2.036-0.555c1.202,0,2.379,0.219,3.499,0.646
		c-1.12-0.427-2.297-0.648-3.499-0.648C111.708,23.621,110.919,23.778,110.34,24.178"/>
	<path fill="#FFFFFF" d="M112.385,65.936l-0.31-2.305l-0.433,0.013c-0.113,0-0.231-0.006-0.352-0.017
		c0.539,0.298,0.905,0.873,0.905,1.534c0,0.37-0.113,0.714-0.309,0.996l0.196-0.089L112.385,65.936z"/>
	<path fill="#FFFFFF" d="M107.251,20.939c-1.834-0.947-2.247-2.156-2.247-2.156C106.7,19.344,107.251,20.939,107.251,20.939
		 M107.963,15.312c0,0,1.027,2.571-0.109,4.127C107.854,19.44,106.936,18.111,107.963,15.312 M110.958,18.708
		c0,0-0.411,1.209-2.249,2.155C108.709,20.863,109.26,19.27,110.958,18.708 M105.398,20.472c1.938,0.063,2.732,1.802,1.835,2.439
		c-0.118,0.082-0.233,0.141-0.342,0.182c-0.17,0.33-0.439,0.624-0.71,0.858c-0.317,0.275,0.785,2.733,1.457,0.167l0.186-0.756
		c0.037-0.098,0.107-0.27,0.175-0.332c0,0,0.096,0.148,0.166,0.316l0.187,0.772c0.673,2.566,1.776,0.108,1.458-0.167
		c-0.268-0.231-0.531-0.52-0.702-0.844c-0.252-0.055-0.365-0.114-0.483-0.196c-0.896-0.637-0.04-2.376,1.901-2.439l0.126,0.007
		c0.595-0.516,0.968-1.211,0.72-2.036l-0.065-0.176c-0.505-0.178-1.539,0.534-1.881,0.785c-0.348,0.248-0.564,0.206-0.564,0.206
		c0.08-0.067,0.169-0.25,0.253-0.451l0.071-0.175c0.196-0.513,0.667-2.018-0.086-2.91c-0.631-0.746-0.951-1.507-1.105-1.997
		c-0.156,0.491-0.478,1.253-1.105,1.996c-0.772,0.913-0.258,2.47-0.074,2.943l0.07,0.172c0.065,0.16,0.166,0.382,0.254,0.458
		c0,0-0.308,0.064-0.786-0.395c-0.395-0.27-1.232-0.787-1.67-0.632l-0.064,0.176C104.37,19.265,104.792,19.956,105.398,20.472"/>
	<path fill="#FFFFFF" d="M127.439,43.73c0.179-0.187,0.489-0.659,0.632-1.749c0.206-1.573-0.3-1.587-0.938-1.477
		c-0.635,0.114-1.684,0.064-1.684,0.064c0.073,0.638-0.007,2.895-0.029,3.373C125.998,44.069,126.799,44.129,127.439,43.73"/>
	<path fill="#FFFFFF" d="M105.358,65.137c-0.882-0.063-1.179-0.345-1.28-0.528c-0.066,0.169-0.101,0.354-0.101,0.547
		c0,0.186,0.031,0.363,0.095,0.528C104.161,65.498,104.452,65.201,105.358,65.137"/>
	<path fill="#FFFFFF" d="M108.901,64.13c0.246-0.122,0.352-0.248,0.493-0.356c0.282-0.218,0.628-0.345,0.985-0.362
		c-0.231-0.089-0.445-0.206-0.626-0.356c-0.114,0.142-0.196,0.338-0.31,0.516c-0.087,0.137-0.191,0.262-0.311,0.37L108.901,64.13z"
		/>
	<path fill="#FFFFFF" d="M104.05,66.195c-0.214-0.29-0.339-0.65-0.339-1.04c0-0.659,0.361-1.234,0.896-1.532
		c-0.136,0.014-0.268,0.021-0.392,0.021c-0.162,0-0.326-0.007-0.49-0.019l-0.332,2.276l0.383,0.169L104.05,66.195z"/>
	<path fill="#FFFFFF" d="M106.785,64.036c0.146,0.174,0.218,0.276,0.292,0.2c0.003-0.085-0.067-0.133-0.129-0.182
		c-0.128-0.106-0.261-0.216-0.372-0.361c-0.173-0.224-0.288-0.488-0.336-0.763c-0.31,0.268-0.517,0.384-0.74,0.473
		C106.01,63.417,106.463,63.649,106.785,64.036"/>
	<path fill="#FFFFFF" d="M108.251,25.949c0,0.153,0.124,0.276,0.277,0.276c0.151,0,0.276-0.125,0.276-0.276
		c0-0.153-0.125-0.276-0.276-0.276C108.374,25.673,108.251,25.795,108.251,25.949"/>
	<path fill="#FFFFFF" d="M103.601,33.819c0.783,0.247,1.271-0.271,1.271-0.271C104.118,33.207,103.601,33.819,103.601,33.819"/>
	<path fill="#FFFFFF" d="M100.669,17.042c0.019,0.104,0.025,0.2,0.021,0.291C100.694,17.242,100.688,17.146,100.669,17.042"/>
	<path fill="#FFFFFF" d="M106.194,67.865c-0.297-0.241-0.648-0.439-1.004-0.629c-0.519-0.276-1.039-0.555-1.578-0.794
		c-2.498-1.101-5.044-2.223-7.134-4.03c-2.172-1.882-3.982-4.403-5.289-6.937c-1.363-2.641-2.33-5.508-2.832-8.442
		c-0.133,0.091-0.289,0.18-0.475,0.259c0.516,2.912,1.46,5.743,2.775,8.392c1.151,2.311,3.207,4.996,5.118,6.722
		c2.519,2.29,5.279,3.348,8.336,4.689c1.485,0.653,2.194,1.639,2.305,2.119c0.033,0.136,0.074,0.384,0.1,0.436l-0.389-0.221
		c-0.472-0.283-0.901-0.102-0.896,0.277c0.006,0.431,0.463,0.801,0.893,0.682c0.548-0.153,0.888-0.72,0.866-1.242
		C106.554,68.867,106.252,68.404,106.194,67.865"/>
	<path fill="#FFFFFF" d="M103.502,34.392c-0.009,0.19,0.013,0.903,0.734,1.171C104.231,35.36,104.174,34.617,103.502,34.392"/>
	<path fill="#FFFFFF" d="M113.603,33.321c0.06-0.047,0.304-0.307,0.546-0.568c0.115,0.063,0.606,0.316,1.255,0.564
		c0.703,0.269,1.622,0.549,2.554,0.629c-0.165,0.265-0.358,0.51-0.555,0.727c-0.189,0.21-0.287,0.529-0.289,0.814
		c-0.001,0.144,0.025,0.283,0.092,0.405c0.035,0.066,0.084,0.122,0.138,0.178l0.164,0.187c0.094,0.141,0.136,0.301,0.146,0.464
		c0.038,0.682-0.319,0.82-0.776,0.841c-0.219,0.01-0.47-0.005-0.723,0.007c-0.249,0.011-0.494,0.048-0.712,0.16
		c-0.461,0.233-0.806,0.464-1.062,0.596c-0.25,0.128-0.47,0.19-0.612-0.017c-0.141-0.209,0.207-0.725,0.534-1.163
		c0.346-0.461,0.745-0.919,0.848-1.065c0.129-0.179,0.023-0.361-0.043-0.449c-0.347,0.374-0.801,0.356-0.986,0.106
		c-0.099-0.136-0.073-0.286-0.031-0.39c0.068-0.16,0.033-0.185-0.002-0.2c-0.226-0.098-0.243-0.163-0.246-0.204l0.12-0.192
		c-0.116-0.027-0.149-0.04-0.172-0.063c-0.051-0.051-0.189-0.225,0.086-0.388c0.095-0.058,0.141-0.134,0.165-0.196l-0.236-0.146
		c-0.148-0.035-0.36-0.1-0.38-0.284C113.407,33.52,113.507,33.399,113.603,33.321 M116.235,30.597
		c0.218-0.046,0.453-0.07,0.679-0.057c0.767,0.044,1.233,0.643,1.451,1.313c0.21,0.648,0.036,1.31-0.284,1.889
		c-0.269-0.278-0.49-0.486-0.773-0.717c-0.567-0.465-1.394-1.029-2.433-1.426C115.05,31.204,115.454,30.755,116.235,30.597
		 M118.675,34.023c0.002,0.153-0.119,0.281-0.274,0.287c-0.154,0.006-0.286-0.116-0.288-0.272
		C118.097,33.672,118.66,33.649,118.675,34.023 M118.68,34.289c0.417,0.12,0.671,0.37,0.798,0.771
		c0.067,0.2,0.091,0.407,0.081,0.612c-0.416-0.138-0.693-0.379-0.823-0.795C118.678,34.684,118.66,34.487,118.68,34.289
		 M118.86,33.699c0.41-0.357,0.882-0.442,1.389-0.173c-0.379,0.43-0.97,0.538-1.537,0.328L118.86,33.699z M111.399,26.859
		c-0.353,0.23-0.788,0.246-1.148,0.092v12.578h13.137c-0.755-8.844-5.851-14.168-11.378-14.168l-0.176,0.007
		C112.179,25.872,111.967,26.492,111.399,26.859"/>
	<path fill="#FFFFFF" d="M103.464,33.853l0.148-0.155c0.408-0.357,0.88-0.443,1.389-0.173
		C104.62,33.956,104.028,34.064,103.464,33.853 M103.487,34.877c-0.059-0.193-0.078-0.39-0.054-0.588
		c0.414,0.12,0.667,0.371,0.796,0.771c0.066,0.2,0.091,0.408,0.081,0.613C103.894,35.534,103.617,35.293,103.487,34.877
		 M103.153,34.31c-0.155,0.006-0.284-0.116-0.289-0.272c-0.016-0.365,0.548-0.389,0.561-0.015
		C103.428,34.175,103.306,34.304,103.153,34.31 M102.058,33.026c-0.565-0.465-1.394-1.029-2.434-1.426
		c0.179-0.396,0.582-0.845,1.363-1.002c0.217-0.046,0.454-0.07,0.678-0.057c0.767,0.043,1.233,0.642,1.45,1.313
		c0.211,0.649,0.035,1.31-0.285,1.89C102.561,33.465,102.342,33.257,102.058,33.026 M101.957,35.892
		c0.033,0.066,0.083,0.122,0.138,0.178l0.163,0.187c0.097,0.141,0.138,0.301,0.148,0.464c0.038,0.682-0.317,0.82-0.775,0.841
		c-0.219,0.011-0.471-0.005-0.723,0.007c-0.25,0.011-0.496,0.048-0.715,0.16c-0.462,0.234-0.804,0.464-1.061,0.596
		c-0.249,0.128-0.469,0.19-0.612-0.017c-0.139-0.209,0.206-0.726,0.533-1.163c0.348-0.461,0.747-0.919,0.849-1.066
		c0.129-0.179,0.025-0.361-0.044-0.449c-0.345,0.374-0.799,0.357-0.984,0.106c-0.099-0.136-0.075-0.286-0.032-0.39
		c0.067-0.16,0.034-0.185-0.003-0.2c-0.224-0.099-0.24-0.163-0.244-0.204l0.12-0.192c-0.117-0.028-0.151-0.04-0.172-0.063
		c-0.052-0.051-0.189-0.225,0.086-0.389c0.094-0.057,0.14-0.133,0.164-0.196l-0.235-0.146c-0.145-0.035-0.358-0.1-0.382-0.284
		c-0.016-0.153,0.083-0.274,0.18-0.352c0.058-0.047,0.302-0.307,0.544-0.568c0.118,0.063,0.61,0.316,1.257,0.564
		c0.701,0.268,1.623,0.549,2.554,0.629c-0.167,0.265-0.36,0.51-0.555,0.727c-0.189,0.209-0.287,0.529-0.287,0.813
		C101.864,35.631,101.889,35.77,101.957,35.892 M106.096,26.567c-0.366,0.493-1.096,0.644-1.638,0.292
		c-0.566-0.368-0.78-0.987-0.435-1.492l-0.176-0.007c-5.526,0-10.625,5.324-11.38,14.168h13.629V26.567z"/>
	<path fill="#FFFFFF" d="M102.941,34.035c0.004,0.113,0.098,0.202,0.207,0.197c0.111-0.004,0.2-0.097,0.199-0.207
		C103.336,33.754,102.931,33.773,102.941,34.035"/>
	<path fill="#FFFFFF" d="M93.487,60.599c-1.26-1.488-2.424-3.187-3.194-4.733C91.061,57.412,92.226,59.111,93.487,60.599"/>
	<path fill="#FFFFFF" d="M88.665,40.527c-0.637-0.113-1.144-0.096-0.937,1.477c0.113,0.873,0.337,1.349,0.512,1.601
		c0.646,0.518,1.511,0.48,2.136,0.347c-0.019-0.496-0.098-2.728-0.028-3.361C90.348,40.59,89.299,40.638,88.665,40.527"/>
	<path fill="#FFFFFF" d="M90.394,26.82c0.144-1.012,0.529-1.976,1.048-2.772c-0.785,0.51-3.808,2.663-5.62,6.63
		c-1.762,3.857-2.525,6.622-2.135,9.787c0.662,2.439,1.908,3.393,2.503,3.721c-1.091-1.605-0.572-4.021,0.04-5.263
		c-1.495-3.926,1.104-6.003,1.7-6.416C87.328,28.47,89.817,27.084,90.394,26.82"/>
	<polygon fill="#FFFFFF" points="109.766,58.752 109.771,58.759 109.771,43.209 123.46,43.209 123.46,43.198 109.764,43.198 	"/>
	<rect x="92.399" y="43.198" fill="#FFFFFF" width="13.698" height="0.011"/>
	<path fill="#FFFFFF" d="M108.466,69.34c-0.168,0.05-0.346,0.081-0.529,0.081c-0.19,0-0.373-0.031-0.546-0.088
		c-0.039,0.435-0.256,0.866-0.602,1.153c0.431,0.641,0.858,1.324,1.148,2.039c0.29-0.708,0.724-1.385,1.154-2.018
		C108.73,70.22,108.506,69.784,108.466,69.34"/>
	<path fill="#FFFFFF" d="M118.19,34.035c0.003,0.113,0.098,0.202,0.207,0.197c0.113-0.004,0.199-0.097,0.198-0.207
		C118.587,33.754,118.18,33.773,118.19,34.035"/>
	<path fill="#FFFFFF" d="M119.486,35.563c-0.005-0.203-0.063-0.945-0.737-1.171C118.744,34.582,118.765,35.294,119.486,35.563"/>
	<path fill="#FFFFFF" d="M120.122,33.548c-0.755-0.341-1.273,0.271-1.273,0.271C119.634,34.066,120.122,33.548,120.122,33.548"/>
	<path fill="#FFFFFF" d="M124.668,55.475c-1.306,2.534-3.115,5.056-5.291,6.937c-2.086,1.806-4.633,2.929-7.133,4.03
		c-0.538,0.239-1.057,0.519-1.577,0.794c-0.348,0.186-0.692,0.38-0.988,0.616c-0.052,0.549-0.367,1.026-0.813,1.304
		c-0.018,0.519,0.322,1.078,0.866,1.232c0.429,0.119,0.888-0.25,0.892-0.682c0.007-0.379-0.421-0.559-0.895-0.277
		c-0.116,0.069-0.322,0.209-0.353,0.222c-0.004-0.108,0.038-0.349,0.087-0.513c0.158-0.498,0.859-1.418,2.283-2.042
		c3.057-1.342,5.816-2.399,8.336-4.689c1.911-1.726,3.968-4.41,5.117-6.722c1.315-2.649,2.26-5.48,2.777-8.392
		c-0.187-0.079-0.345-0.168-0.476-0.259C126.998,49.967,126.032,52.834,124.668,55.475"/>
	<path fill="#D61F2C" d="M108.528,25.398c-0.167-0.188-0.374-0.521-0.528-1.045c-0.155,0.518-0.35,0.852-0.575,1.045
		c0.304,0,0.551,0.246,0.551,0.551C107.977,25.643,108.223,25.398,108.528,25.398"/>
	<path fill="#D61F2C" d="M109.25,60.879c0.09-0.139,0.385-0.437,0.516-0.54v-1.117C109.613,59.578,109.489,59.631,109.25,60.879"/>
	<path fill="#D61F2C" d="M110.251,39.536h-0.467V26.602c-0.131-0.162-0.219-0.365-0.244-0.601c-0.02-0.177-0.009-0.342,0.01-0.497
		c-0.191,0.097-0.4,0.137-0.606,0.085c0.083,0.096,0.135,0.22,0.135,0.36c0,0.303-0.249,0.55-0.551,0.55
		c-0.306,0-0.551-0.247-0.551-0.55c0,0.303-0.246,0.55-0.551,0.55c-0.302,0-0.551-0.247-0.551-0.55c0-0.131,0.044-0.251,0.121-0.346
		c-0.238,0.04-0.475-0.032-0.684-0.174c0.025,0.174,0.029,0.366,0.005,0.572c-0.023,0.221-0.105,0.411-0.221,0.567V39.53H92.467
		c-0.063,0.739-0.107,1.493-0.107,2.28c0,0.464,0.014,0.927,0.038,1.388h13.698v0.011v0.465v15.1
		c0.134-0.174,0.435-0.566,0.74-1.012c0.425-0.625,0.807-1.279,0.828-1.597c0.008-0.096,0.105-0.187,0.204-0.187
		c0.206,0,0.304,0.091,0.312,0.187c0.035,0.492,1.071,1.906,1.585,2.587l-0.002-15.554h13.696c0.023-0.448,0.035-0.939,0.035-1.388
		c0-0.787-0.043-1.542-0.107-2.28H110.25L110.251,39.536L110.251,39.536z"/>
	<path fill="#D61F2C" d="M106.434,59.003c0.546-0.703,1.135-1.476,1.488-2.296C107.569,57.527,106.977,58.3,106.434,59.003"/>
	<path fill="#D61F2C" d="M106.556,60.912c-0.047-0.668-0.213-1.271-0.46-1.662v1.172C106.285,60.543,106.447,60.706,106.556,60.912"
		/>
	<path fill="#010101" d="M113.782,50.458l0.238,0.146c-0.022,0.063-0.07,0.139-0.165,0.197c-0.275,0.163-0.139,0.337-0.086,0.389
		c0.023,0.022,0.057,0.035,0.173,0.062l-0.119,0.194c0.003,0.038,0.02,0.105,0.244,0.202c0.037,0.014,0.07,0.04,0.002,0.199
		c-0.042,0.106-0.067,0.255,0.032,0.393c0.186,0.249,0.64,0.266,0.986-0.108c0.068,0.089,0.171,0.271,0.045,0.45
		c-0.103,0.146-0.503,0.605-0.851,1.066c-0.326,0.437-0.673,0.956-0.532,1.163c0.142,0.206,0.362,0.144,0.615,0.014
		s0.597-0.359,1.058-0.596c0.219-0.11,0.463-0.147,0.715-0.159c0.25-0.013,0.503,0.003,0.72-0.007
		c0.459-0.023,0.815-0.158,0.777-0.842c-0.01-0.162-0.052-0.322-0.146-0.464l-0.164-0.187c-0.055-0.056-0.103-0.113-0.139-0.179
		c-0.065-0.122-0.091-0.261-0.088-0.404c0-0.288,0.098-0.605,0.287-0.817c0.196-0.213,0.388-0.459,0.556-0.725
		c-0.933-0.079-1.853-0.36-2.554-0.63c-0.649-0.247-1.14-0.5-1.256-0.563c-0.242,0.261-0.486,0.522-0.546,0.569
		c-0.097,0.076-0.198,0.199-0.179,0.352C113.425,50.358,113.638,50.425,113.782,50.458"/>
	<path fill="#010101" d="M120.1,50.05c0,0-0.488,0.52-1.273,0.272C118.827,50.322,119.347,49.708,120.1,50.05 M120.227,50.026
		c-0.508-0.267-0.977-0.181-1.388,0.176l-0.148,0.153C119.256,50.565,119.846,50.458,120.227,50.026"/>
	<path fill="#010101" d="M107.963,15.313c-1.027,2.799-0.109,4.127-0.109,4.127C108.99,17.883,107.963,15.313,107.963,15.313"/>
	<path fill="#010101" d="M110.958,18.708c-1.698,0.562-2.249,2.155-2.249,2.155C110.546,19.917,110.958,18.708,110.958,18.708"/>
	<path fill="#010101" d="M118.575,50.525c0.001,0.113-0.088,0.205-0.199,0.21c-0.111,0.003-0.204-0.084-0.206-0.198
		C118.159,50.276,118.565,50.258,118.575,50.525 M118.091,50.541c0.003,0.156,0.134,0.278,0.29,0.273
		c0.153-0.009,0.274-0.136,0.271-0.29C118.638,50.152,118.076,50.177,118.091,50.541"/>
	<path fill="#010101" d="M119.462,52.066c-0.717-0.268-0.741-0.981-0.734-1.171C119.4,51.122,119.46,51.862,119.462,52.066
		 M119.536,52.176c0.013-0.207-0.013-0.413-0.079-0.613c-0.13-0.4-0.383-0.652-0.797-0.77c-0.023,0.198-0.006,0.394,0.057,0.586
		C118.844,51.795,119.121,52.038,119.536,52.176"/>
	<path fill="#010101" d="M118.081,33.743c0.32-0.58,0.494-1.241,0.284-1.89c-0.217-0.67-0.684-1.269-1.451-1.313
		c-0.226-0.013-0.461,0.011-0.679,0.057c-0.781,0.158-1.185,0.606-1.361,1.002c1.039,0.397,1.867,0.961,2.433,1.426
		C117.591,33.257,117.812,33.465,118.081,33.743"/>
	<path fill="#010101" d="M113.806,33.956l0.236,0.146c-0.023,0.062-0.07,0.138-0.165,0.196c-0.276,0.164-0.138,0.338-0.086,0.389
		c0.023,0.023,0.056,0.036,0.172,0.063l-0.12,0.192c0.004,0.041,0.02,0.106,0.246,0.204c0.035,0.015,0.07,0.04,0.002,0.2
		c-0.042,0.105-0.068,0.254,0.031,0.39c0.185,0.25,0.639,0.268,0.986-0.106c0.067,0.088,0.171,0.269,0.043,0.449
		c-0.103,0.147-0.503,0.604-0.848,1.065c-0.327,0.438-0.675,0.955-0.534,1.163c0.143,0.207,0.362,0.144,0.612,0.017
		c0.256-0.132,0.601-0.362,1.063-0.596c0.217-0.112,0.463-0.149,0.711-0.16c0.253-0.012,0.505,0.004,0.724-0.007
		c0.457-0.021,0.813-0.159,0.776-0.841c-0.01-0.163-0.051-0.323-0.146-0.464l-0.164-0.187c-0.053-0.056-0.103-0.112-0.138-0.178
		c-0.067-0.122-0.093-0.261-0.092-0.406c0.002-0.284,0.1-0.604,0.289-0.813c0.196-0.217,0.39-0.462,0.555-0.727
		c-0.932-0.08-1.851-0.361-2.554-0.629c-0.649-0.248-1.141-0.501-1.255-0.564c-0.242,0.261-0.486,0.521-0.547,0.568
		c-0.096,0.078-0.195,0.199-0.177,0.352C113.446,33.856,113.658,33.922,113.806,33.956"/>
	<path fill="#010101" d="M107.251,20.939c0,0-0.551-1.594-2.247-2.156C105.004,18.783,105.417,19.992,107.251,20.939"/>
	<path fill="#010101" d="M128.922,39.785l0.067,0.222c0,0,0.049,0.177,0.098,0.461c0.048,0.285,0.095,0.682,0.073,1.127
		c-0.045,0.891-0.337,1.999-1.25,2.772c0.073-0.044,0.176-0.11,0.294-0.198c0.237-0.176,0.532-0.443,0.785-0.81
		c0.501-0.733,0.803-1.846,0.058-3.373L128.922,39.785z"/>
	<path fill="#010101" d="M128.323,34.307c0.106,0.159,0.238,0.401,0.339,0.737c0.206,0.668,0.292,1.703-0.133,3.187
		c0-0.002,0.425-0.564,0.593-1.37c0.169-0.807,0.083-1.86-0.943-2.832l-0.269-0.219l0.281,0.319
		C128.224,34.167,128.269,34.227,128.323,34.307"/>
	<path fill="#010101" d="M125.449,40.568c0,0,1.049,0.05,1.684-0.064c0.638-0.11,1.144-0.096,0.938,1.477
		c-0.142,1.09-0.453,1.562-0.632,1.749c-0.641,0.399-1.441,0.339-2.019,0.211C125.443,43.463,125.522,41.206,125.449,40.568
		 M125.462,26.82c-0.142-0.992-0.514-1.94-1.017-2.723c0.883,0.584,3.787,2.727,5.55,6.581c1.649,3.616,2.422,6.271,2.196,9.196
		c-0.553,2.607-1.748,3.736-2.445,4.191c0.984-1.604,0.477-3.931-0.12-5.142c1.495-3.926-1.105-6.003-1.698-6.416
		C128.53,28.47,126.04,27.084,125.462,26.82 M129.6,46.69c-0.588,0.228-1.033,0.316-1.166,0.338c-0.465-0.147-1.17-0.485-1.184-1.08
		c1.245-0.218,2.502-0.868,3.409-1.739c1.632-1.563,2.901-4.443,1.65-9.679c-1.176-4.915-3.988-9.698-8.707-11.851
		c-0.329-0.15-0.603-0.256-0.808-0.328c-0.091-0.036-0.85-0.267-1.44-0.165c0,0,0.86,0.261,1.643,0.845
		c1.776,1.328,1.831,3.982,2.21,4.121c0,0,0.181,0.068,0.447,0.232c2.849,1.777,1.513,5.137,1.95,5.396c0,0,0.199,0.12,0.47,0.361
		c1.698,1.492,1.977,3.596,1.139,5.72c1.06,2.193,1.722,7.049-4.355,6.454c0.046-0.357,0.085-0.714,0.118-1.075
		c2.048,0.555,3.608-0.097,3.895-2.389c0.235-1.886-0.282-2.376-1.258-2.361c-0.88,0.013-1.763,0.291-2.604-0.107
		c-0.033-0.449-0.078-0.889-0.135-1.323c1.378,0.59,3.405,1,3.586-1.126c0.236-2.786-0.931-3.503-2.254-3.291
		c-0.75,0.12-1.543,0.099-2.305,0.036c-0.116-0.355-0.237-0.698-0.369-1.033c1.158,0.212,2.708,0.141,3.086-1.269
		c0.538-2.007-0.999-3.389-2.514-2.816c-0.525,0.199-0.966,0.484-1.447,0.76c-0.217,0.123-0.414,0.212-0.659,0.243
		c-0.156-0.249-0.319-0.493-0.484-0.73c1.24-0.318,2.409-1.121,2.22-2.63c-0.153-1.218-0.949-2.504-2.011-3.194
		c-0.375-0.247-0.797-0.44-0.797-0.44s0.299,0.433,0.382,1.137c0.219,1.801-2.944,1.058-1.917-0.532
		c0.991-1.528,3.017-1.789,4.599-1.215c0.03,0.007,0.475,0.099,1.181,0.408c4.866,2.128,7.561,7.441,8.704,12.359
		C134.967,39.42,134.574,44.759,129.6,46.69 M125.2,55.685c-1.15,2.311-3.206,4.995-5.117,6.721c-2.52,2.29-5.28,3.348-8.336,4.689
		c-1.424,0.624-2.125,1.544-2.283,2.042c-0.05,0.164-0.091,0.405-0.087,0.513c0.031-0.012,0.237-0.153,0.353-0.222
		c0.473-0.282,0.901-0.101,0.895,0.277c-0.003,0.431-0.463,0.801-0.892,0.681c-0.544-0.153-0.884-0.713-0.866-1.231
		c0.446-0.278,0.76-0.755,0.813-1.304c0.297-0.236,0.64-0.43,0.988-0.616c0.519-0.276,1.039-0.555,1.577-0.795
		c2.499-1.101,5.047-2.223,7.133-4.029c2.176-1.882,3.984-4.403,5.291-6.938c1.364-2.641,2.33-5.507,2.833-8.441
		c0.131,0.091,0.289,0.179,0.476,0.259C127.459,50.205,126.515,53.035,125.2,55.685 M107.937,72.525
		c-0.29-0.715-0.717-1.398-1.148-2.039c0.346-0.286,0.564-0.717,0.602-1.152c0.173,0.056,0.356,0.087,0.547,0.087
		c0.184,0,0.361-0.031,0.529-0.081c0.04,0.443,0.263,0.879,0.624,1.167C108.66,71.141,108.227,71.817,107.937,72.525
		 M106.125,70.387c-0.43,0.12-0.887-0.25-0.893-0.681c-0.005-0.378,0.424-0.559,0.896-0.277l0.389,0.222
		c-0.025-0.051-0.067-0.299-0.1-0.436c-0.111-0.48-0.82-1.466-2.305-2.119c-3.057-1.342-5.817-2.399-8.336-4.689
		c-1.911-1.726-3.968-4.41-5.118-6.721c-1.315-2.65-2.259-5.48-2.775-8.392c0.186-0.079,0.342-0.168,0.475-0.259
		c0.502,2.934,1.47,5.8,2.832,8.441c1.307,2.534,3.116,5.056,5.289,6.938c2.09,1.806,4.636,2.928,7.134,4.029
		c0.539,0.24,1.059,0.519,1.578,0.795c0.355,0.189,0.707,0.388,1.004,0.628c0.058,0.539,0.36,1.003,0.797,1.281
		C107.013,69.667,106.673,70.234,106.125,70.387 M87.93,32.507c-0.596,0.413-3.195,2.49-1.7,6.416
		c-0.612,1.242-1.131,3.658-0.04,5.263c-0.596-0.328-1.842-1.282-2.504-3.72c-0.389-3.166,0.373-5.931,2.135-9.788
		c1.812-3.968,4.836-6.12,5.62-6.63c-0.518,0.796-0.904,1.76-1.048,2.772C89.817,27.084,87.328,28.47,87.93,32.507 M90.376,43.952
		c-0.626,0.133-1.49,0.171-2.136-0.347c-0.175-0.252-0.398-0.727-0.512-1.601c-0.206-1.573,0.301-1.59,0.937-1.477
		c0.634,0.111,1.682,0.063,1.682,0.063C90.277,41.223,90.357,43.456,90.376,43.952 M87.425,47.028
		c-0.136-0.021-0.58-0.11-1.168-0.338c-4.974-1.931-5.366-7.27-4.274-11.964c1.143-4.918,3.838-10.231,8.705-12.359
		c0.707-0.31,1.151-0.402,1.177-0.408c1.583-0.574,3.609-0.313,4.6,1.215c1.028,1.591-2.135,2.333-1.917,0.532
		c0.082-0.704,0.382-1.137,0.382-1.137s-0.42,0.194-0.797,0.44c-1.061,0.69-1.857,1.976-2.011,3.194
		c-0.189,1.509,0.98,2.312,2.221,2.63c-0.166,0.237-0.327,0.481-0.485,0.73c-0.246-0.03-0.442-0.12-0.658-0.243
		c-0.482-0.276-0.923-0.561-1.446-0.76c-1.518-0.574-3.053,0.808-2.515,2.816c0.379,1.411,1.928,1.481,3.086,1.269
		c-0.13,0.335-0.254,0.678-0.369,1.033c-0.763,0.062-1.555,0.084-2.305-0.036c-1.323-0.211-2.489,0.505-2.251,3.291
		c0.179,2.126,2.206,1.716,3.584,1.126c-0.056,0.433-0.101,0.873-0.135,1.323c-0.842,0.398-1.722,0.119-2.601,0.107
		c-0.978-0.015-1.496,0.475-1.261,2.361c0.286,2.292,1.848,2.944,3.896,2.389c0.034,0.36,0.073,0.717,0.118,1.075
		c-6.078,0.595-5.416-4.26-4.357-6.454c-0.837-2.124-0.557-4.228,1.139-5.72c0.276-0.241,0.474-0.361,0.474-0.361
		c0.434-0.259-0.899-3.618,1.95-5.396c0.264-0.164,0.446-0.232,0.446-0.232c0.38-0.139,0.434-2.794,2.21-4.121
		c0.784-0.584,1.645-0.845,1.645-0.845c-0.592-0.101-1.351,0.129-1.443,0.165c-0.206,0.071-0.48,0.178-0.809,0.328
		c-4.718,2.153-7.53,6.937-8.705,11.851c-1.25,5.236,0.016,8.115,1.652,9.679c0.906,0.871,2.163,1.521,3.405,1.739
		C88.594,46.542,87.889,46.88,87.425,47.028 M97.099,24.009c1.344-1.077,2.521-2.494,2.734-4.139l0.024-0.269
		c0.757,0.25,0.535,1.318,0.367,1.879c-0.065,0.213-0.122,0.354-0.122,0.354c-0.447,0.791-1.051,1.372-1.347,1.634l1.566-1.339
		c2.521-1.904,2.215-3.949,1.66-4.903c-0.566-0.977-1.863-0.633-1.75-0.251c0.485,1.651-1.399,0.643-1.198-0.273
		c0.295-1.331,2.85-1.299,3.786,0.232c0.858,1.398,0.247,3.139-0.539,4.392c-0.181,0.29-0.317,0.461-0.317,0.461
		c-0.232,0.296-0.508,0.587-0.757,0.759c0,0,0.491-0.055,0.961-0.422c2.036-1.457,3.462-1.404,4.25-0.979
		c0.865,0.464,0.891,1.206,0.576,1.431c-0.975,0.688-1.214-0.826-1.527-0.832c-2.397-0.045-4.758,1.246-6.739,2.966
		c-0.692,0.402-2.835,1.736-4.359,3.689c-0.541-0.14-1.337-0.456-1.687-1.136c-0.174-0.462-0.24-1.336,0.927-2.446
		c0,0,0.365,0.925,1.493,0.871c0.837-0.04,1.41-0.602,1.698-1.06C96.959,24.455,97.067,24.25,97.099,24.009 M104.62,18.442
		l0.064-0.176c0.438-0.155,1.275,0.361,1.67,0.632c0.478,0.458,0.786,0.395,0.786,0.395c-0.088-0.076-0.189-0.299-0.254-0.458
		l-0.07-0.173c-0.184-0.472-0.698-2.03,0.074-2.943c0.627-0.743,0.949-1.504,1.105-1.995c0.154,0.489,0.475,1.251,1.105,1.997
		c0.753,0.892,0.281,2.397,0.086,2.909l-0.071,0.176c-0.084,0.2-0.174,0.385-0.253,0.451c0,0,0.216,0.042,0.564-0.205
		c0.341-0.251,1.376-0.963,1.881-0.785l0.065,0.176c0.249,0.826-0.125,1.52-0.72,2.037l-0.126-0.007
		c-1.941,0.063-2.797,1.802-1.901,2.439c0.118,0.082,0.23,0.141,0.483,0.197c0.171,0.323,0.435,0.613,0.702,0.843
		c0.319,0.276-0.785,2.733-1.458,0.167l-0.187-0.771c-0.07-0.169-0.166-0.316-0.166-0.316c-0.068,0.062-0.138,0.235-0.175,0.332
		l-0.186,0.755c-0.672,2.566-1.774,0.109-1.457-0.167c0.271-0.234,0.54-0.527,0.71-0.857c0.11-0.041,0.224-0.1,0.342-0.182
		c0.896-0.637,0.103-2.376-1.835-2.439C104.792,19.956,104.37,19.265,104.62,18.442 M110.47,22.278
		c1.499-0.032,2.92,0.463,4.189,1.193c0.424,0.244,0.83,0.512,1.217,0.798c-1.121-0.427-2.298-0.647-3.499-0.647
		c-0.669,0-1.457,0.155-2.036,0.555c-0.015-0.203-0.096-0.39-0.263-0.535c-0.165-0.144-0.331-0.32-0.47-0.529
		C109.972,23,110.261,22.664,110.47,22.278 M112.194,65.162c0-0.661-0.365-1.236-0.905-1.534c0.121,0.011,0.239,0.017,0.351,0.017
		l0.434-0.013l0.31,2.305l-0.304,0.134l-0.196,0.089C112.081,65.876,112.194,65.533,112.194,65.162 M110.559,65.137
		c0.855-0.061,1.158-0.328,1.268-0.512c0.065,0.167,0.098,0.348,0.098,0.537c0,0.179-0.028,0.349-0.085,0.507
		C111.741,65.485,111.445,65.199,110.559,65.137 M109.753,63.057c0.181,0.15,0.395,0.267,0.626,0.356
		c-0.357,0.017-0.703,0.143-0.985,0.361c-0.141,0.108-0.247,0.234-0.493,0.356l0.23-0.187c0.12-0.108,0.224-0.234,0.311-0.37
		C109.557,63.395,109.639,63.199,109.753,63.057 M103.977,65.155c0-0.193,0.035-0.377,0.1-0.546c0.101,0.183,0.398,0.465,1.28,0.528
		c-0.906,0.063-1.197,0.36-1.286,0.546C104.008,65.518,103.977,65.341,103.977,65.155 M103.725,63.625
		c0.164,0.012,0.328,0.02,0.491,0.02c0.124,0,0.256-0.007,0.392-0.022c-0.536,0.299-0.897,0.873-0.897,1.532
		c0,0.389,0.125,0.75,0.338,1.04l-0.274-0.125l-0.383-0.169L103.725,63.625z M106.576,63.694c0.111,0.145,0.244,0.255,0.372,0.36
		c0.063,0.049,0.132,0.097,0.129,0.182c-0.075,0.076-0.147-0.026-0.292-0.2c-0.322-0.387-0.775-0.619-1.285-0.632
		c0.223-0.089,0.43-0.205,0.74-0.473C106.289,63.206,106.403,63.47,106.576,63.694 M108.803,25.949c0,0.151-0.125,0.276-0.276,0.276
		c-0.153,0-0.277-0.123-0.277-0.276c0-0.154,0.124-0.276,0.277-0.276C108.679,25.673,108.803,25.796,108.803,25.949 M107.151,25.949
		c0-0.153,0.122-0.276,0.276-0.276c0.152,0,0.273,0.122,0.273,0.276c0,0.153-0.122,0.276-0.273,0.276
		C107.274,26.224,107.151,26.1,107.151,25.949 M109.766,60.339c-0.132,0.103-0.427,0.401-0.517,0.54
		c0.239-1.248,0.364-1.301,0.517-1.658c0.001-0.004,0.003-0.007,0.005-0.011v1.124C109.771,60.334,109.767,60.336,109.766,60.339
		 M106.434,59.003c0.544-0.703,1.135-1.476,1.488-2.296c0.357,0.819,0.948,1.592,1.492,2.296c-0.259,0.401-0.415,0.984-0.519,1.6
		c-0.277-0.161-0.618-0.267-0.966-0.267c-0.346,0-0.685,0.106-0.963,0.266C106.858,59.985,106.691,59.404,106.434,59.003
		 M108.503,61.292c-0.182,0.088-0.489,0.374-0.556,1.3c-0.067-0.959-0.39-1.228-0.571-1.305c0.181-0.078,0.382-0.121,0.593-0.121
		C108.163,61.165,108.347,61.201,108.503,61.292 M108.022,60.885c-0.479-0.009-0.923,0.175-1.245,0.479
		c0.04-0.204,0.516-0.648,1.208-0.636c0.48,0.007,0.844,0.242,0.971,0.446C108.689,60.996,108.365,60.891,108.022,60.885
		 M111.724,61.225c-0.083-0.408-0.351-0.74-0.734-0.906c-0.307-0.136-0.42-0.136-0.734-0.101V43.631h13.174
		c-0.655,9.395-6.24,18.324-11.723,18.734c0.06-0.184,0.073-0.387,0.073-0.54C111.78,61.506,111.724,61.225,111.724,61.225
		 M111.834,25.368l0.176-0.007c5.527,0,10.623,5.324,11.379,14.168c0.063,0.739,0.106,1.494,0.106,2.281
		c0,0.449-0.011,0.94-0.034,1.388v0.01h-13.689v15.55c-0.002-0.002-0.004-0.005-0.005-0.007c-0.515-0.68-1.55-2.095-1.585-2.587
		c-0.008-0.096-0.106-0.187-0.312-0.187c-0.1,0-0.196,0.091-0.204,0.187c-0.021,0.318-0.403,0.972-0.827,1.597
		c-0.306,0.446-0.606,0.838-0.74,1.012c-0.048,0.06-0.076,0.097-0.076,0.097c-0.045,0.059-0.047,0.191-0.002,0.251
		c0.028,0.037,0.051,0.089,0.078,0.129c0.247,0.39,0.413,0.993,0.46,1.662c-0.109-0.206-0.271-0.37-0.46-0.49
		c-0.358-0.227-0.817-0.287-1.23-0.104c-0.383,0.166-0.65,0.498-0.733,0.906c0,0-0.057,0.281-0.057,0.599
		c-0.001,0.153,0.012,0.356,0.072,0.54c-5.475-0.409-11.05-9.311-11.72-18.69h13.668v-0.465h-13.7c0-0.003,0-0.007,0-0.01
		c-0.024-0.461-0.038-0.925-0.038-1.388c0-0.787,0.043-1.542,0.106-2.281c0.756-8.844,5.854-14.168,11.381-14.168l0.176,0.007
		c-0.345,0.504-0.131,1.124,0.435,1.491c0.541,0.352,1.272,0.201,1.638-0.292c0.116-0.156,0.198-0.345,0.221-0.567
		c0.023-0.206,0.02-0.398-0.005-0.572c0.209,0.142,0.446,0.215,0.684,0.174c-0.077,0.095-0.121,0.215-0.121,0.346
		c0,0.304,0.249,0.55,0.551,0.55c0.305,0,0.551-0.247,0.551-0.55c0-0.306-0.248-0.551-0.551-0.551
		c0.224-0.193,0.419-0.527,0.574-1.046c0.154,0.524,0.361,0.858,0.527,1.046c-0.305,0-0.551,0.245-0.551,0.551
		c0,0.304,0.246,0.55,0.551,0.55c0.302,0,0.551-0.247,0.551-0.55c0-0.14-0.052-0.264-0.135-0.36
		c0.206,0.052,0.414,0.012,0.606-0.085c-0.019,0.155-0.03,0.32-0.01,0.497c0.025,0.237,0.113,0.439,0.244,0.601v12.934h0.468v-0.007
		V26.951c0.36,0.154,0.795,0.138,1.148-0.092C111.967,26.492,112.179,25.872,111.834,25.368 M105.388,22.278L105.388,22.278
		c0.116,0.214,0.259,0.411,0.426,0.565c0.083,0.076,0.173,0.142,0.267,0.193c0.095,0.051,0.196,0.088,0.303,0.107
		c-0.138,0.19-0.308,0.361-0.47,0.5c-0.193,0.168-0.27,0.393-0.266,0.632c-0.587-0.474-1.446-0.653-2.168-0.653
		c-1.201,0-2.378,0.219-3.501,0.647C101.529,23.129,103.389,22.236,105.388,22.278 M92.108,32.268
		c-0.545,0.086-1.332,0.125-1.887-0.204c-0.338-0.516-0.532-1.194-0.111-1.941c0.921-1.634,2.971,0.176,2.971,0.176
		C92.813,30.808,92.3,31.868,92.108,32.268 M90.919,35.921c-0.087,0.416-0.279,1.589-0.324,1.864
		c-0.668,0.27-1.677,0.555-2.285,0.145c-0.158-0.421-0.277-1.337-0.041-2.359c0.285-1.239,1.364-0.969,1.651-0.906
		c0.286,0.064,1.286,0.064,1.286,0.064S91.031,35.397,90.919,35.921 M91.429,45.43c-0.07-0.697-0.127-1.037-0.182-1.749
		c-0.048-0.673-0.074-1.354-0.074-2.033c0-0.694,0.024-1.335,0.091-2.124l0.22-2.071c0.838-3.722,1.057-4.086,1.479-5.25
		c0.34-0.797,0.73-1.542,1.124-2.225c0.326-0.52,0.406-0.564,0.951-1.406c2.262-2.935,5.292-4.539,8.444-4.539
		c1.281,0,2.575,0.557,2.426,1.926c-0.063,0.575-0.742,0.867-1.225,0.554c-0.519-0.339-0.558-0.837-0.048-1.172
		c0.103-0.067,0.179-0.13,0.374-0.215c-0.186-0.139-0.36-0.158-0.485-0.162l-0.667-0.017c-6.321,0-11.906,6.544-11.906,16.862
		c0,10.085,6.023,20.608,12.262,20.972l0.328,0.01c0.548-0.043,0.65-0.295,0.65-0.295c-0.187,0.095-0.347,0.053-0.471-0.028
		c-0.331-0.232-0.198-1.084-0.182-1.163c0.058-0.279,0.237-0.498,0.495-0.611c0.428-0.188,0.945-0.001,1.16,0.411
		c0.275,0.522,0.114,1.248-0.35,1.632c-0.398,0.33-1.072,0.495-1.625,0.495C98.567,63.232,92.709,54.93,91.429,45.43
		 M102.693,63.463c0.176,0.042,0.351,0.078,0.529,0.104l-0.378,2.09l-0.756-0.34L102.693,63.463z M99.525,62.195
		c1.411,0.927,2.706,1.235,2.706,1.235l-0.513,1.715c-1.1-0.515-2.183-1.07-3.204-1.727L99.525,62.195z M98.585,61.206l0.45,0.378
		l-1.192,1.382c-0.208-0.149-0.415-0.304-0.617-0.465L98.585,61.206z M94.249,59.416l1.411-0.981
		c1.244,1.652,2.446,2.664,2.446,2.664l-1.186,1.154l-0.174-0.147c-0.908-0.788-1.755-1.693-2.528-2.667L94.249,59.416z
		 M95.11,57.032l0.313,0.485l-1.751,1.208l-0.464-0.657L95.11,57.032z M92.711,53.273c0,0,0.789,1.897,1.863,3.583l-1.496,0.811
		c0,0-1.557-2.631-1.948-3.741L92.711,53.273z M92.527,51.649l0.189,0.519l-2.201,0.88l-0.288-0.733L92.527,51.649z M89.654,46.223
		l1.028,0.077c0.149,1.566,1.287,5.076,1.287,5.076L90.36,51.87c-0.495-1.052-1.139-4.58-1.139-4.58
		C89.702,46.928,89.654,46.223,89.654,46.223 M106.213,67.371c-0.25-0.175-0.504-0.326-0.762-0.464c0.385,0,0.757-0.13,1.059-0.363
		c0.141-0.109,0.249-0.239,0.495-0.356l-0.23,0.188c-0.12,0.108-0.226,0.231-0.31,0.369
		C106.339,66.937,106.254,67.149,106.213,67.371 M108.466,69.058c-0.164,0.061-0.344,0.097-0.529,0.097
		c-0.181,0-0.357-0.033-0.496-0.103c0.184-0.111,0.446-0.42,0.506-1.272C108.008,68.649,108.282,68.952,108.466,69.058
		 M110.405,66.915c-0.247,0.133-0.504,0.278-0.747,0.447c-0.086-0.45-0.353-0.844-0.791-1.233c0.098-0.097,0.284,0.187,0.329,0.24
		C109.489,66.705,109.96,66.902,110.405,66.915 M109.535,65.665c0,0,1.213,0.49,0.92,0.982c-0.384,0-0.806-0.164-1.166-0.581
		c-0.154-0.182-0.383-0.355-0.672-0.049c-0.028,0.055-0.04,0.117-0.002,0.256c0.042,0.085,0.128,0.162,0.181,0.204
		c0.372,0.271,0.625,0.711,0.619,1.346c-0.47,0.1-0.94-1.061-0.94-1.061c0.369,1.122,0.782,1.192,0.922,1.18
		c-0.077,0.43-0.344,0.799-0.712,1.011c-0.531-0.042-0.682-1.09-0.725-1.61l-0.01-0.182l-0.013,0.186
		c-0.045,0.524-0.199,1.593-0.747,1.609c-0.371-0.215-0.644-0.587-0.72-1.025c0,0,0.518,0.209,0.969-1.169
		c0,0-0.498,1.236-0.987,0.917c0-0.281,0.081-0.555,0.235-0.793c0.073-0.116,0.161-0.22,0.378-0.396
		c0.107-0.083,0.227-0.187,0.202-0.468c-0.02-0.041-0.049-0.079-0.161-0.172c-0.057-0.03-0.118-0.041-0.258-0.004
		c-0.086,0.042-0.154,0.121-0.196,0.171c-0.319,0.384-0.672,0.622-1.319,0.617c-0.16-0.479,1.049-0.969,1.049-0.969
		c-1.187,0.388-1.197,0.819-1.177,0.933c-0.422-0.078-0.805-0.321-1.017-0.676c-0.018-0.567,1.062-0.728,1.602-0.774l0.186-0.012
		l-0.191-0.015c-0.528-0.044-1.566-0.199-1.596-0.733c0.217-0.364,0.586-0.627,1.016-0.7c-0.019,0.121,0.008,0.554,1.178,0.938
		c0,0-1.187-0.479-0.931-0.959c0.449,0,0.846,0.2,1.229,0.659c0.415,0.481,1-0.03,0.435-0.483c-0.39-0.314-0.634-0.672-0.631-1.29
		c0.473-0.135,0.955,1.053,0.955,1.053c-0.39-1.191-0.83-1.197-0.943-1.176c0.06-0.423,0.302-0.787,0.642-1.016
		c0.589-0.051,0.752,1.067,0.798,1.613l0.013,0.184l0.01-0.183c0.046-0.558,0.217-1.727,0.849-1.605
		c0.331,0.228,0.567,0.585,0.627,1c-0.109-0.019-0.566-0.018-0.961,1.184c0,0,0.495-1.217,0.975-1.047
		c0.003,0.497-0.188,0.906-0.496,1.181c-0.208,0.159-0.524,0.376-0.154,0.727c0.054,0.03,0.118,0.042,0.257,0.005
		c0.084-0.043,0.154-0.121,0.197-0.174c0.308-0.386,0.681-0.622,1.339-0.616c0.109,0.47-1.058,0.944-1.058,0.944
		c1.141-0.375,1.195-0.793,1.18-0.927c0.43,0.078,0.798,0.345,1.011,0.715c-0.06,0.514-1.075,0.665-1.595,0.707l-0.214,0.012
		l0.21,0.014c0.533,0.045,1.601,0.205,1.603,0.757c-0.214,0.37-0.576,0.638-1.005,0.717
		C110.745,66.546,110.792,66.079,109.535,65.665 M124.55,34.706c0,0,1.001,0,1.288-0.063c0.286-0.063,1.364-0.333,1.65,0.905
		c0.259,1.118,0.09,2.107-0.086,2.465c-0.649,0.302-1.631-0.01-2.246-0.272c-0.049-0.309-0.234-1.435-0.32-1.842
		C124.724,35.374,124.55,34.706,124.55,34.706 M123.128,52.206l0.202-0.553l2.29,0.687l-0.293,0.741L123.128,52.206z
		 M121.257,56.882c0,0,1.547-2.748,1.855-3.576l1.547,0.604c0,0-1.068,2.466-1.94,3.774L121.257,56.882z M120.422,57.534l0.324-0.5
		l1.887,1.059l-0.47,0.66L120.422,57.534z M117.737,61.141c0,0,1.602-1.545,2.431-2.67l1.371,0.927c0,0-0.68,0.884-1.218,1.556
		c-0.39,0.405-0.794,0.79-1.21,1.151l-0.208,0.178L117.737,61.141z M116.782,61.613l0.486-0.402l1.307,1.335
		c-0.199,0.155-0.398,0.303-0.604,0.448L116.782,61.613z M113.687,65.354l-0.747,0.337l-0.371-2.114
		c0.194-0.029,0.387-0.063,0.579-0.109L113.687,65.354z M113.575,63.495c0,0,1.125-0.209,2.713-1.271l1.006,1.229
		c-1.021,0.65-2.107,1.204-3.21,1.716L113.575,63.495z M126.543,47.29c0,0-0.478,3.063-1.11,4.58l-1.59-0.477
		c0,0,1.055-3.164,1.296-5.131c0,0,0.842-0.015,0.997-0.042C126.136,46.221,125.995,46.727,126.543,47.29 M122.756,30.279
		c0,0,2.035-1.81,2.949-0.175c0.437,0.78,0.205,1.482-0.155,2.005c-0.554,0.283-1.304,0.239-1.822,0.155
		C123.542,31.878,123.025,30.796,122.756,30.279 M122.895,32.204c0.424,1.165,0.643,1.528,1.479,5.25l0.221,2.071
		c0.067,0.788,0.092,1.43,0.092,2.124c0,0.679-0.027,1.36-0.077,2.033c-0.055,0.711-0.113,1.052-0.181,1.749
		c-1.282,9.5-7.138,17.802-12.788,17.803c-0.554,0-1.226-0.164-1.625-0.495c-0.134-0.11-0.244-0.248-0.324-0.401
		c-0.072-0.141-0.122-0.297-0.148-0.454c-0.04-0.266-0.003-0.544,0.121-0.776c0.217-0.412,0.731-0.599,1.161-0.411
		c0.257,0.113,0.437,0.332,0.495,0.611c0.017,0.079,0.149,0.931-0.183,1.163c-0.126,0.08-0.284,0.122-0.471,0.028
		c0,0,0.101,0.252,0.65,0.295l0.331-0.01c6.234-0.364,12.259-10.887,12.259-20.972c0-10.318-5.585-16.862-11.906-16.862
		l-0.667,0.017c-0.126,0.004-0.297,0.022-0.484,0.162c0.194,0.085,0.269,0.148,0.374,0.215c0.507,0.334,0.47,0.832-0.049,1.172
		c-0.484,0.313-1.162,0.02-1.227-0.554c-0.148-1.37,1.147-1.926,2.428-1.926c3.152,0,6.182,1.603,8.444,4.539
		c0.544,0.842,0.622,0.886,0.95,1.406C122.165,30.662,122.555,31.406,122.895,32.204 M113.691,22.123
		c0.469,0.367,0.96,0.422,0.96,0.422c-0.249-0.171-0.525-0.463-0.758-0.759c0,0-0.135-0.171-0.316-0.461
		c-0.786-1.254-1.399-2.995-0.541-4.392c0.936-1.531,3.492-1.563,3.787-0.232c0.201,0.916-1.682,1.924-1.196,0.273
		c0.111-0.382-1.186-0.726-1.752,0.251c-0.554,0.954-0.859,2.999,1.661,4.903l1.565,1.339c-0.296-0.262-0.902-0.843-1.345-1.634
		c0,0-0.059-0.14-0.124-0.354c-0.169-0.561-0.392-1.629,0.367-1.879l0.025,0.269c0.212,1.645,1.392,3.062,2.732,4.139
		c0.03,0.209,0.114,0.392,0.239,0.546c0.248,0.477,0.855,1.169,1.785,1.213c1.129,0.054,1.492-0.873,1.492-0.873
		c1.316,1.25,1.012,2.182,0.776,2.574c-0.388,0.538-1.071,0.803-1.553,0.929c-1.743-2.32-4.399-3.803-4.68-3.956
		c-1.911-1.584-4.153-2.74-6.423-2.699c-0.315,0.006-0.555,1.521-1.529,0.832c-0.313-0.225-0.287-0.967,0.577-1.431
		C110.228,20.719,111.654,20.666,113.691,22.123 M134.271,34.633c-2.675-11.498-10.12-13.054-10.17-13.065
		c-0.223-0.077-0.45-0.138-0.682-0.187c-1.619-0.331-3.39,0.066-4.37,1.573c-0.125,0.195-0.209,0.379-0.256,0.554
		c-1.168-0.987-2.174-2.255-2.362-3.692c-0.016-0.126-0.042-0.5,0.02-0.694c-0.051-0.016-0.178,0.011-0.266,0.02
		c-0.607,0.062-0.916,0.383-1.047,0.797c-0.131,0.414-0.087,0.92,0.017,1.354v0.002c-1.244-1.182-1.374-2.36-1.189-3.178
		c0.061-0.272,0.159-0.505,0.264-0.684c0.29-0.5,0.73-0.457,0.956-0.389c-0.018,0.104-0.024,0.2-0.021,0.291
		c0.051,1.17,1.872,1.182,2.088-0.058c0.033-0.19,0.028-0.412-0.026-0.663c-0.097-0.437-0.36-0.762-0.719-0.976
		c-1.072-0.641-2.994-0.277-3.824,1.081c-0.33,0.539-0.471,1.117-0.476,1.702c-0.009,0.777,0.222,1.565,0.557,2.277
		c0.083,0.179,0.173,0.351,0.268,0.519c-0.173-0.098-0.341-0.185-0.506-0.262c-0.494-0.231-0.951-0.369-1.368-0.437
		c0.417-0.441,0.691-0.974,0.694-1.573c0-0.199-0.03-0.407-0.095-0.621c-0.058-0.199-0.126-0.314-0.207-0.394
		c-0.113-0.06-0.237-0.089-0.367-0.095c-0.392-0.016-0.831,0.174-1.158,0.348l-0.322,0.184c0.279-0.93,0.388-2.106-0.295-2.911
		c-0.485-0.574-0.773-1.16-0.939-1.602c-0.161-0.435-0.208-0.729-0.208-0.729l-0.073-0.416c-0.045-0.269-0.358-0.265-0.4,0.005
		l-0.063,0.413c-0.338,2.221-2.295,2.363-1.441,5.239l-0.32-0.184c-0.271-0.144-0.623-0.3-0.978-0.32
		c-0.072-0.004-0.143-0.002-0.215,0.006c-0.14,0.017-0.282,0.061-0.415,0.14c0,0-0.067,0.115-0.128,0.314
		c-0.256,0.846,0.066,1.586,0.614,2.173c-0.592,0.072-1.27,0.293-2.02,0.719c0.755-1.341,1.23-3.061,0.347-4.499
		c-1.105-1.811-4.155-1.853-4.541-0.106c-0.055,0.25-0.06,0.472-0.026,0.663c0.216,1.24,2.036,1.228,2.087,0.058
		c0.004-0.091-0.002-0.187-0.021-0.291c0.226-0.067,0.664-0.111,0.956,0.389c0.415,0.716,0.732,2.287-0.925,3.863
		c0.204-0.867,0.183-2.03-1.031-2.153c-0.087-0.008-0.214-0.036-0.265-0.02c0.063,0.194,0.037,0.568,0.02,0.694
		c-0.187,1.437-1.193,2.705-2.362,3.692c-0.047-0.174-0.13-0.359-0.257-0.554c-0.92-1.418-2.541-1.842-4.081-1.611
		c-0.329,0.049-0.656,0.118-0.97,0.225c-0.021,0.005-1.361,0.289-3.101,1.473c-2.384,1.624-5.523,4.945-7.068,11.592
		c-2.63,11.318,5.4,12.738,5.891,12.796c0.528,2.929,1.495,5.776,2.816,8.436c0.769,1.547,1.934,3.246,3.194,4.733
		c0.66,0.78,1.346,1.504,2.017,2.111c2.567,2.337,5.328,3.39,8.445,4.759c0.911,0.4,1.433,0.873,1.73,1.237l0.151,0.206
		c-0.48-0.063-1.014,0.108-1.002,0.799c0.006,0.684,0.707,1.261,1.405,1.068l0.199-0.07c0.106,0.157,0.237,0.355,0.371,0.571
		c0.408,0.649,0.864,1.464,0.887,1.841c0.001,0.04,0.03,0.074,0.061,0.107c0.048,0.048,0.119,0.085,0.233,0.085
		c0.099,0,0.196-0.092,0.203-0.192c0.017-0.305,0.34-0.936,0.699-1.537c0.21-0.353,0.426-0.671,0.562-0.867l0.174,0.061
		c0.699,0.193,1.401-0.385,1.408-1.068c0.01-0.691-0.523-0.863-1.003-0.799l0.151-0.206c0.293-0.364,0.817-0.837,1.727-1.237
		c3.118-1.369,5.88-2.422,8.449-4.759c1.462-1.322,3-3.186,4.174-5.028c0.39-0.615,0.742-1.227,1.034-1.816
		c1.325-2.66,2.289-5.507,2.815-8.436C128.872,47.371,136.902,45.951,134.271,34.633"/>
	<path fill="#010101" d="M126.671,32.074c0.001-0.002,0.388-0.503,0.511-1.198c0.124-0.7-0.021-1.595-1.085-2.376l-0.401-0.255
		l0.365,0.304C126.224,28.674,127.477,29.716,126.671,32.074"/>
	<path fill="#010101" d="M86.7,40.447c0.05-0.284,0.097-0.46,0.097-0.46l0.066-0.223l-0.124,0.201
		c-0.746,1.529-0.443,2.641,0.058,3.374c0.25,0.368,0.549,0.634,0.784,0.811c0.119,0.088,0.222,0.153,0.435,0.223
		c-1.053-0.799-1.346-1.907-1.389-2.798C86.606,41.127,86.649,40.731,86.7,40.447"/>
	<path fill="#010101" d="M88.593,30.864c0.123,0.697,0.511,1.198,0.633,1.354l-0.069-0.184c-0.861-2.329,0.391-3.371,0.556-3.496
		l0.365-0.304l-0.402,0.255C88.615,29.27,88.47,30.165,88.593,30.864"/>
	<path fill="#010101" d="M86.675,36.827c0.169,0.807,0.594,1.37,0.706,1.518l-0.057-0.176c-0.479-1.455-0.394-2.489-0.188-3.158
		c0.101-0.335,0.233-0.578,0.338-0.737c0.053-0.08,0.101-0.139,0.186-0.234l0.226-0.264l-0.269,0.217
		C86.592,34.968,86.507,36.021,86.675,36.827"/>
	<path fill="#010101" d="M118.057,50.247c0.322-0.582,0.495-1.244,0.284-1.89c-0.216-0.671-0.68-1.27-1.451-1.314
		c-0.222-0.012-0.46,0.012-0.676,0.055c-0.783,0.161-1.186,0.609-1.364,1.004c1.041,0.397,1.871,0.959,2.435,1.426
		C117.57,49.761,117.789,49.968,118.057,50.247"/>
	<path fill="#010101" d="M103.484,50.894c0.672,0.228,0.731,0.968,0.735,1.172C103.5,51.798,103.477,51.085,103.484,50.894
		 M103.414,50.793c-0.02,0.198-0.003,0.394,0.056,0.586c0.13,0.417,0.406,0.66,0.822,0.798c0.013-0.207-0.015-0.413-0.079-0.613
		C104.083,51.162,103.831,50.911,103.414,50.793"/>
	<path fill="#010101" d="M103.132,50.735c-0.11,0.003-0.206-0.084-0.207-0.198c-0.011-0.261,0.395-0.279,0.403-0.012
		C103.331,50.638,103.244,50.73,103.132,50.735 M102.847,50.541c0.003,0.156,0.134,0.278,0.288,0.273
		c0.155-0.009,0.276-0.136,0.273-0.29C103.397,50.152,102.831,50.177,102.847,50.541"/>
	<path fill="#010101" d="M102.709,33.946c-0.931-0.08-1.853-0.36-2.554-0.629c-0.647-0.248-1.14-0.501-1.257-0.564
		c-0.242,0.261-0.486,0.521-0.544,0.568c-0.097,0.078-0.196,0.199-0.18,0.351c0.025,0.184,0.238,0.249,0.382,0.284l0.235,0.146
		c-0.023,0.062-0.07,0.139-0.164,0.196c-0.274,0.164-0.138,0.338-0.086,0.388c0.021,0.023,0.056,0.036,0.172,0.063l-0.12,0.192
		c0.004,0.041,0.02,0.106,0.245,0.204c0.036,0.015,0.07,0.039,0.002,0.2c-0.043,0.105-0.067,0.255,0.032,0.39
		c0.185,0.25,0.639,0.268,0.984-0.106c0.07,0.088,0.173,0.269,0.045,0.449c-0.103,0.147-0.501,0.605-0.849,1.065
		c-0.327,0.438-0.672,0.955-0.533,1.163c0.143,0.208,0.363,0.144,0.612,0.017c0.257-0.131,0.599-0.362,1.061-0.596
		c0.219-0.113,0.465-0.149,0.715-0.16c0.251-0.012,0.504,0.003,0.723-0.007c0.458-0.021,0.813-0.159,0.775-0.841
		c-0.01-0.163-0.051-0.323-0.148-0.464l-0.163-0.187c-0.054-0.056-0.105-0.112-0.138-0.178c-0.068-0.122-0.093-0.261-0.09-0.405
		c0-0.284,0.098-0.604,0.287-0.814C102.349,34.456,102.543,34.211,102.709,33.946"/>
	<path fill="#010101" d="M118.595,34.025c0.001,0.11-0.084,0.202-0.198,0.207c-0.109,0.005-0.204-0.085-0.207-0.197
		C118.18,33.773,118.587,33.754,118.595,34.025 M118.114,34.038c0.002,0.156,0.133,0.278,0.288,0.272
		c0.154-0.005,0.276-0.134,0.274-0.287C118.66,33.649,118.097,33.673,118.114,34.038"/>
	<path fill="#010101" d="M107.915,65.7c-0.267,0-0.481-0.216-0.481-0.481c0-0.269,0.214-0.484,0.481-0.484
		c0.265,0,0.48,0.216,0.48,0.484C108.395,65.485,108.18,65.7,107.915,65.7 M107.915,64.468c-0.415,0-0.75,0.335-0.75,0.751
		c0,0.412,0.335,0.748,0.75,0.748c0.413,0,0.749-0.338,0.749-0.748C108.664,64.803,108.328,64.468,107.915,64.468"/>
	<path fill="#010101" d="M103.098,48.357c-0.216-0.671-0.682-1.27-1.449-1.314c-0.226-0.012-0.462,0.012-0.678,0.055
		c-0.782,0.16-1.186,0.608-1.364,1.004c1.041,0.397,1.869,0.959,2.436,1.427c0.283,0.232,0.503,0.439,0.772,0.718
		C103.134,49.665,103.308,49.004,103.098,48.357"/>
	<path fill="#010101" d="M102.693,50.449c-0.931-0.079-1.852-0.36-2.553-0.63c-0.648-0.247-1.141-0.501-1.256-0.563
		c-0.242,0.261-0.488,0.522-0.546,0.569c-0.097,0.076-0.196,0.199-0.179,0.352c0.023,0.181,0.236,0.248,0.381,0.281l0.236,0.146
		c-0.025,0.063-0.07,0.139-0.164,0.197c-0.276,0.163-0.138,0.337-0.088,0.389c0.024,0.022,0.058,0.035,0.173,0.062l-0.119,0.194
		c0.002,0.038,0.019,0.105,0.243,0.202c0.038,0.014,0.07,0.04,0.003,0.199c-0.042,0.107-0.068,0.255,0.031,0.393
		c0.185,0.249,0.64,0.266,0.985-0.108c0.068,0.089,0.171,0.27,0.043,0.45c-0.101,0.146-0.502,0.605-0.848,1.066
		c-0.327,0.437-0.674,0.956-0.533,1.163c0.143,0.206,0.362,0.144,0.613,0.014c0.255-0.13,0.599-0.359,1.06-0.596
		c0.219-0.11,0.463-0.147,0.715-0.159c0.251-0.013,0.502,0.003,0.723-0.007c0.457-0.023,0.813-0.158,0.776-0.842
		c-0.01-0.162-0.051-0.322-0.148-0.464l-0.162-0.187c-0.055-0.056-0.103-0.113-0.14-0.179c-0.066-0.122-0.091-0.261-0.09-0.404
		c0.001-0.288,0.1-0.605,0.289-0.817C102.334,50.96,102.527,50.715,102.693,50.449"/>
	<path fill="#010101" d="M104.855,50.05c0,0-0.486,0.519-1.271,0.272C103.584,50.322,104.101,49.708,104.855,50.05 M103.595,50.202
		l-0.148,0.153c0.565,0.209,1.157,0.103,1.535-0.329C104.473,49.759,104.004,49.845,103.595,50.202"/>
	<path fill="#010101" d="M120.122,33.548c0,0-0.488,0.518-1.273,0.271C118.849,33.819,119.367,33.207,120.122,33.548
		 M120.249,33.526c-0.507-0.269-0.979-0.184-1.389,0.173l-0.148,0.154C119.279,34.064,119.869,33.957,120.249,33.526"/>
	<path fill="#010101" d="M119.487,35.563c-0.722-0.268-0.742-0.98-0.737-1.171C119.423,34.617,119.481,35.359,119.487,35.563
		 M119.559,35.672c0.01-0.205-0.015-0.413-0.081-0.613c-0.128-0.4-0.381-0.65-0.798-0.771c-0.02,0.198-0.002,0.395,0.056,0.588
		C118.866,35.293,119.143,35.535,119.559,35.672"/>
	<path fill="#010101" d="M104.872,33.548c0,0-0.488,0.518-1.271,0.271C103.601,33.819,104.118,33.207,104.872,33.548
		 M103.612,33.699l-0.148,0.155c0.564,0.21,1.155,0.103,1.537-0.328C104.492,33.256,104.02,33.342,103.612,33.699"/>
	<path fill="#010101" d="M103.116,31.853c-0.218-0.67-0.683-1.269-1.45-1.313c-0.224-0.013-0.462,0.011-0.678,0.057
		c-0.781,0.158-1.184,0.606-1.363,1.002c1.04,0.397,1.869,0.96,2.435,1.426c0.284,0.232,0.503,0.439,0.772,0.717
		C103.15,33.163,103.326,32.502,103.116,31.853"/>
	<path fill="#010101" d="M103.149,34.232c-0.109,0.005-0.204-0.085-0.208-0.197c-0.01-0.261,0.396-0.28,0.406-0.01
		C103.349,34.135,103.26,34.228,103.149,34.232 M102.863,34.038c0.005,0.156,0.134,0.278,0.289,0.272
		c0.154-0.005,0.275-0.134,0.271-0.287C103.411,33.649,102.847,33.673,102.863,34.038"/>
	<path fill="#010101" d="M103.502,34.391c0.672,0.225,0.729,0.968,0.734,1.171C103.516,35.294,103.494,34.582,103.502,34.391
		 M103.433,34.289c-0.023,0.198-0.005,0.395,0.055,0.588c0.129,0.416,0.407,0.658,0.823,0.796c0.01-0.206-0.015-0.413-0.081-0.613
		C104.099,34.66,103.848,34.409,103.433,34.289"/>
	<path fill="#010101" d="M16.613,79.494c0-0.363-0.092-0.624-0.275-0.782c-0.184-0.157-0.494-0.237-0.931-0.237h-0.382v1.961h0.349
		c0.424,0,0.737-0.077,0.937-0.23C16.512,80.053,16.613,79.816,16.613,79.494 M18.98,84.296h-2.262l-1.693-2.87v2.87h-1.923v-7.384
		h2.253c1.199,0,2.041,0.186,2.525,0.562c0.485,0.374,0.727,0.967,0.727,1.777c0,0.568-0.141,1.029-0.421,1.39
		c-0.281,0.358-0.688,0.594-1.224,0.709L18.98,84.296z"/>
</g>
<polygon fill="#010101" points="24.172,84.296 19.949,84.296 19.949,76.912 24.172,76.912 24.172,78.537 21.871,78.537 
	21.871,79.771 24.076,79.771 24.076,81.34 21.871,81.34 21.871,82.67 24.172,82.67 "/>
<g>
	<path fill="#010101" d="M32.753,80.484c0,1.302-0.313,2.287-0.94,2.961c-0.626,0.672-1.544,1.008-2.753,1.008
		c-1.129,0-2.056-0.356-2.781-1.071c-0.726-0.713-1.088-1.634-1.088-2.76c0-1.112,0.371-2.034,1.115-2.769
		c0.743-0.732,1.677-1.098,2.803-1.098c0.71,0,1.344,0.143,1.901,0.426c0.556,0.287,1.023,0.709,1.399,1.266l-1.731,0.841
		c-0.207-0.282-0.44-0.495-0.698-0.634c-0.258-0.137-0.548-0.207-0.87-0.207c-0.59,0-1.058,0.201-1.404,0.606
		c-0.346,0.402-0.519,0.951-0.519,1.648c0,0.655,0.17,1.178,0.51,1.565c0.339,0.388,0.794,0.582,1.365,0.582
		c0.498,0,0.902-0.114,1.212-0.342c0.312-0.229,0.49-0.534,0.538-0.921H28.98v-1.57h3.773V80.484z"/>
</g>
<rect x="33.918" y="76.912" fill="#010101" width="1.918" height="7.384"/>
<g>
	<path fill="#010101" d="M42.987,80.612c0-0.566-0.189-1.041-0.567-1.425c-0.377-0.382-0.855-0.574-1.432-0.574
		c-0.59,0-1.072,0.19-1.446,0.568c-0.375,0.377-0.562,0.854-0.562,1.431c0,0.568,0.189,1.04,0.567,1.416
		c0.377,0.376,0.859,0.565,1.442,0.565c0.581,0,1.059-0.188,1.435-0.566C42.799,81.648,42.987,81.177,42.987,80.612 M44.986,80.612
		c0,1.088-0.383,1.999-1.15,2.737c-0.767,0.735-1.716,1.103-2.848,1.103c-1.135,0-2.086-0.368-2.853-1.103
		c-0.766-0.738-1.15-1.649-1.15-2.737c0-1.083,0.385-1.998,1.156-2.743c0.77-0.744,1.719-1.115,2.848-1.115
		c1.132,0,2.081,0.371,2.848,1.114C44.603,78.611,44.986,79.526,44.986,80.612"/>
</g>
<polygon fill="#010101" points="53.468,84.296 51.551,84.296 48.131,79.714 48.131,84.296 46.209,84.296 46.209,76.912 
	48.14,76.912 51.551,81.502 51.551,76.912 53.468,76.912 "/>
<polygon fill="#010101" points="59.257,84.296 55.034,84.296 55.034,76.912 59.257,76.912 59.257,78.537 56.957,78.537 
	56.957,79.771 59.161,79.771 59.161,81.34 56.957,81.34 56.957,82.67 59.257,82.67 "/>
<path fill="#010101" d="M68.309,81.564l-0.981-3.137l-0.99,3.137H68.309z M71.189,84.296h-2.057l-0.401-1.31h-2.822l-0.411,1.31
	H63.44l2.626-7.384h2.496L71.189,84.296z"/>
<g>
	<path fill="#010101" d="M78.317,80.885c0,1.371-0.237,2.309-0.71,2.812c-0.474,0.503-1.294,0.755-2.461,0.755
		c-1.17,0-1.992-0.252-2.465-0.755s-0.71-1.441-0.71-2.812v-3.973h1.923v3.993c0,0.726,0.091,1.216,0.273,1.47
		c0.182,0.253,0.509,0.38,0.98,0.38c0.469,0,0.795-0.127,0.979-0.38c0.182-0.253,0.274-0.744,0.274-1.47v-3.993h1.918L78.317,80.885
		z"/>
</g>
<polygon fill="#010101" points="84.225,78.604 82.727,78.604 82.727,84.296 80.805,84.296 80.805,78.604 79.298,78.604 
	79.298,76.912 84.225,76.912 "/>
<g>
	<path fill="#010101" d="M89.713,75.634l-0.445,0.675l-1.87-0.948l0.636-0.96L89.713,75.634z M90.894,80.612
		c0-0.566-0.19-1.041-0.567-1.425c-0.378-0.382-0.855-0.574-1.433-0.574c-0.59,0-1.072,0.19-1.446,0.568
		c-0.375,0.377-0.562,0.854-0.562,1.431c0,0.568,0.188,1.04,0.566,1.416c0.379,0.376,0.859,0.565,1.442,0.565
		c0.581,0,1.059-0.188,1.435-0.566C90.705,81.648,90.894,81.177,90.894,80.612 M92.892,80.612c0,1.088-0.383,1.999-1.15,2.737
		c-0.767,0.735-1.716,1.103-2.848,1.103c-1.134,0-2.086-0.368-2.852-1.103c-0.768-0.738-1.151-1.649-1.151-2.737
		c0-1.083,0.385-1.998,1.154-2.743c0.771-0.744,1.72-1.115,2.848-1.115c1.132,0,2.081,0.371,2.848,1.114
		C92.509,78.611,92.892,79.526,92.892,80.612"/>
</g>
<polygon fill="#010101" points="101.374,84.296 99.458,84.296 96.037,79.714 96.037,84.296 94.115,84.296 94.115,76.912 
	96.047,76.912 99.458,81.502 99.458,76.912 101.374,76.912 "/>
<g>
	<path fill="#010101" d="M108.602,80.612c0-0.566-0.187-1.041-0.565-1.425c-0.379-0.382-0.857-0.574-1.433-0.574
		c-0.591,0-1.071,0.19-1.448,0.568c-0.374,0.377-0.562,0.854-0.562,1.431c0,0.568,0.19,1.04,0.568,1.416
		c0.377,0.376,0.857,0.565,1.442,0.565c0.58,0,1.059-0.188,1.435-0.566C108.414,81.648,108.602,81.177,108.602,80.612
		 M110.602,80.612c0,1.088-0.383,1.999-1.151,2.737c-0.767,0.735-1.718,1.103-2.848,1.103c-1.135,0-2.085-0.368-2.853-1.103
		c-0.767-0.738-1.149-1.649-1.149-2.737c0-1.083,0.384-1.998,1.154-2.743c0.77-0.744,1.72-1.115,2.848-1.115
		c1.131,0,2.081,0.371,2.848,1.114C110.219,78.611,110.602,79.526,110.602,80.612"/>
</g>
<polygon fill="#010101" points="120.438,84.296 118.524,84.296 117.917,79.781 116.607,84.296 115.283,84.296 113.971,79.781 
	113.355,84.296 111.456,84.296 112.579,76.912 114.599,76.912 115.952,81.556 117.292,76.912 119.309,76.912 "/>
<path fill="#010101" d="M125.777,81.564l-0.982-3.137l-0.989,3.137H125.777z M128.655,84.296h-2.056l-0.402-1.31h-2.822l-0.41,1.31
	h-2.057l2.625-7.384h2.498L128.655,84.296z"/>
<g>
	<path fill="#010101" d="M137.382,80.612c0-0.71-0.182-1.235-0.548-1.571c-0.363-0.336-0.934-0.505-1.706-0.505h-0.168v4.133h0.168
		c0.776,0,1.343-0.167,1.707-0.5C137.2,81.837,137.382,81.318,137.382,80.612 M139.377,80.612c0,1.245-0.362,2.168-1.086,2.774
		c-0.723,0.606-1.846,0.91-3.367,0.91h-1.884v-7.384h1.596c1.688,0,2.9,0.299,3.635,0.899
		C139.009,78.409,139.377,79.343,139.377,80.612"/>
</g>
<polygon fill="#010101" points="144.824,84.296 140.601,84.296 140.601,76.912 144.824,76.912 144.824,78.537 142.525,78.537 
	142.525,79.771 144.729,79.771 144.729,81.34 142.525,81.34 142.525,82.67 144.824,82.67 "/>
<g>
	<path fill="#010101" d="M154.67,81.966c0,0.758-0.262,1.359-0.784,1.81c-0.523,0.451-1.22,0.676-2.09,0.676
		c-0.509,0-0.971-0.084-1.381-0.254c-0.412-0.172-0.819-0.445-1.22-0.826l0.899-1.388c0.27,0.307,0.548,0.535,0.831,0.681
		c0.285,0.148,0.589,0.22,0.915,0.22c0.268,0,0.486-0.071,0.654-0.212c0.17-0.138,0.256-0.321,0.256-0.543
		c0-0.242-0.079-0.431-0.232-0.568c-0.155-0.135-0.49-0.268-1.004-0.4c-0.685-0.177-1.188-0.439-1.509-0.781
		c-0.318-0.342-0.48-0.791-0.48-1.347c0-0.681,0.236-1.232,0.707-1.652c0.47-0.417,1.087-0.627,1.853-0.627
		c0.41,0,0.796,0.054,1.156,0.161c0.361,0.111,0.701,0.273,1.02,0.494l-0.631,1.482c-0.217-0.186-0.447-0.327-0.687-0.423
		c-0.24-0.097-0.48-0.145-0.721-0.145c-0.255,0-0.456,0.049-0.609,0.149c-0.151,0.101-0.227,0.237-0.227,0.405
		c0,0.329,0.363,0.588,1.086,0.773c0.049,0.014,0.085,0.025,0.11,0.031c0.742,0.198,1.277,0.476,1.602,0.836
		C154.508,80.878,154.67,81.361,154.67,81.966"/>
</g>
<path fill="#010101" d="M160.097,81.564l-0.982-3.137l-0.988,3.137H160.097z M162.975,84.296h-2.056l-0.401-1.31h-2.823l-0.41,1.31
	h-2.057l2.625-7.384h2.498L162.975,84.296z"/>
<g>
	<path fill="#010101" d="M167.316,79.494c0-0.363-0.092-0.624-0.275-0.782c-0.185-0.157-0.495-0.237-0.931-0.237h-0.382v1.961h0.348
		c0.425,0,0.738-0.077,0.937-0.23C167.216,80.053,167.316,79.816,167.316,79.494 M169.683,84.296h-2.263l-1.692-2.87v2.87h-1.924
		v-7.384h2.253c1.199,0,2.041,0.186,2.526,0.562c0.485,0.374,0.727,0.967,0.727,1.777c0,0.568-0.14,1.029-0.421,1.39
		c-0.281,0.358-0.689,0.594-1.224,0.709L169.683,84.296z"/>
	<path fill="#010101" d="M174.993,80.612c0-0.71-0.18-1.235-0.546-1.571c-0.365-0.336-0.934-0.505-1.704-0.505h-0.168v4.133h0.168
		c0.773,0,1.343-0.167,1.707-0.5C174.813,81.837,174.993,81.318,174.993,80.612 M176.989,80.612c0,1.245-0.363,2.168-1.086,2.774
		c-0.725,0.606-1.848,0.91-3.367,0.91h-1.885v-7.384h1.599c1.685,0,2.896,0.299,3.634,0.899
		C176.62,78.409,176.989,79.343,176.989,80.612"/>
</g>
<rect x="178.156" y="76.912" fill="#010101" width="1.918" height="7.384"/>
<g>
	<path fill="#010101" d="M188.795,80.484c0,1.302-0.312,2.287-0.94,2.961c-0.627,0.672-1.545,1.008-2.753,1.008
		c-1.128,0-2.055-0.356-2.781-1.071c-0.726-0.713-1.088-1.634-1.088-2.76c0-1.112,0.369-2.034,1.114-2.769
		c0.741-0.732,1.677-1.098,2.801-1.098c0.712,0,1.345,0.143,1.903,0.426c0.557,0.287,1.021,0.709,1.398,1.266l-1.732,0.841
		c-0.207-0.282-0.441-0.495-0.698-0.634c-0.259-0.137-0.548-0.207-0.871-0.207c-0.589,0-1.056,0.201-1.403,0.606
		c-0.346,0.402-0.518,0.951-0.518,1.648c0,0.655,0.17,1.178,0.51,1.565c0.338,0.388,0.793,0.582,1.365,0.582
		c0.497,0,0.901-0.114,1.212-0.342c0.313-0.229,0.491-0.534,0.537-0.921h-1.83v-1.57h3.773v0.469H188.795z"/>
</g>
<polygon fill="#010101" points="197.276,84.296 195.359,84.296 191.938,79.714 191.938,84.296 190.015,84.296 190.015,76.912 
	191.947,76.912 195.359,81.502 195.359,76.912 197.276,76.912 "/>
<path fill="#010101" d="M202.979,81.564l-0.982-3.137l-0.989,3.137H202.979z M205.857,84.296h-2.056l-0.402-1.31h-2.823l-0.41,1.31
	h-2.057l2.625-7.384h2.497L205.857,84.296z"/>
<g>
	<path fill="#010101" d="M6.544,93.863c0-0.363-0.092-0.624-0.275-0.782c-0.184-0.157-0.494-0.237-0.931-0.237H4.956v1.961h0.349
		c0.424,0,0.737-0.077,0.937-0.23C6.443,94.422,6.544,94.185,6.544,93.863 M8.911,98.665H6.649l-1.693-2.87v2.87H3.034v-7.384h2.253
		c1.199,0,2.041,0.186,2.525,0.562c0.485,0.374,0.727,0.967,0.727,1.775c0,0.57-0.141,1.031-0.421,1.392
		c-0.281,0.358-0.689,0.594-1.224,0.709L8.911,98.665z"/>
</g>
<polygon fill="#010101" points="14.103,98.665 9.88,98.665 9.88,91.281 14.103,91.281 14.103,92.906 11.802,92.906 11.802,94.141 
	14.007,94.141 14.007,95.709 11.802,95.709 11.802,97.039 14.103,97.039 "/>
<g>
	<path fill="#010101" d="M22.684,94.853c0,1.301-0.313,2.287-0.94,2.959c-0.626,0.674-1.543,1.01-2.752,1.01
		c-1.129,0-2.056-0.356-2.781-1.071c-0.726-0.713-1.088-1.634-1.088-2.76c0-1.112,0.371-2.034,1.115-2.769
		c0.743-0.732,1.677-1.098,2.802-1.098c0.711,0,1.345,0.143,1.901,0.426c0.556,0.287,1.023,0.709,1.399,1.266l-1.731,0.84
		c-0.207-0.282-0.44-0.494-0.698-0.634c-0.258-0.138-0.548-0.207-0.871-0.207c-0.589,0-1.058,0.201-1.403,0.606
		c-0.346,0.402-0.519,0.951-0.519,1.646c0,0.657,0.17,1.18,0.509,1.567c0.34,0.388,0.795,0.582,1.365,0.582
		c0.498,0,0.902-0.114,1.212-0.343c0.312-0.228,0.49-0.534,0.538-0.92h-1.831v-1.57h3.773V94.853z"/>
</g>
<rect x="23.849" y="91.281" fill="#010101" width="1.918" height="7.384"/>
<g>
	<path fill="#010101" d="M32.919,94.982c0-0.568-0.189-1.041-0.567-1.425c-0.377-0.382-0.855-0.574-1.432-0.574
		c-0.59,0-1.072,0.19-1.447,0.566c-0.374,0.379-0.562,0.856-0.562,1.433c0,0.568,0.189,1.04,0.567,1.416
		c0.377,0.376,0.858,0.565,1.442,0.565c0.58,0,1.059-0.19,1.435-0.566C32.73,96.017,32.919,95.546,32.919,94.982 M34.917,94.982
		c0,1.088-0.384,1.999-1.15,2.735c-0.767,0.737-1.717,1.105-2.848,1.105c-1.135,0-2.086-0.368-2.853-1.105
		c-0.766-0.737-1.15-1.648-1.15-2.735c0-1.083,0.385-1.998,1.156-2.743c0.77-0.744,1.719-1.115,2.848-1.115
		c1.132,0,2.081,0.371,2.848,1.114C34.534,92.98,34.917,93.896,34.917,94.982"/>
</g>
<polygon fill="#010101" points="43.4,98.665 41.482,98.665 38.063,94.083 38.063,98.665 36.14,98.665 36.14,91.281 38.072,91.281 
	41.482,95.871 41.482,91.281 43.4,91.281 "/>
<polygon fill="#010101" points="49.188,98.665 44.965,98.665 44.965,91.281 49.188,91.281 49.188,92.906 46.887,92.906 
	46.887,94.141 49.092,94.141 49.092,95.709 46.887,95.709 46.887,97.039 49.188,97.039 "/>
<path fill="#010101" d="M58.24,95.933l-0.981-3.137l-0.99,3.137H58.24z M61.119,98.665h-2.057l-0.402-1.312h-2.821l-0.412,1.312
	H53.37l2.626-7.384h2.496L61.119,98.665z"/>
<g>
	<path fill="#010101" d="M68.247,95.255c0,1.371-0.237,2.309-0.71,2.812c-0.474,0.503-1.295,0.755-2.46,0.755
		c-1.171,0-1.993-0.252-2.466-0.755c-0.473-0.504-0.71-1.441-0.71-2.812v-3.973h1.923v3.993c0,0.726,0.091,1.216,0.273,1.47
		c0.182,0.253,0.509,0.38,0.981,0.38c0.468,0,0.794-0.127,0.978-0.38c0.182-0.253,0.274-0.744,0.274-1.47v-3.993h1.918
		L68.247,95.255z"/>
</g>
<polygon fill="#010101" points="74.156,92.973 72.658,92.973 72.658,98.665 70.736,98.665 70.736,92.973 69.229,92.973 
	69.229,91.281 74.156,91.281 "/>
<g>
	<path fill="#010101" d="M80.825,94.982c0-0.568-0.19-1.041-0.567-1.425c-0.378-0.382-0.855-0.574-1.433-0.574
		c-0.59,0-1.072,0.19-1.446,0.566c-0.375,0.379-0.562,0.856-0.562,1.433c0,0.568,0.188,1.04,0.566,1.416
		c0.379,0.376,0.859,0.565,1.442,0.565c0.581,0,1.059-0.19,1.435-0.566C80.636,96.017,80.825,95.546,80.825,94.982 M82.823,94.982
		c0,1.088-0.383,1.999-1.15,2.735c-0.767,0.737-1.716,1.105-2.848,1.105c-1.134,0-2.086-0.368-2.852-1.105
		c-0.768-0.737-1.151-1.648-1.151-2.735c0-1.083,0.385-1.998,1.154-2.743c0.771-0.744,1.72-1.115,2.848-1.115
		c1.132,0,2.081,0.371,2.848,1.114C82.44,92.98,82.823,93.896,82.823,94.982"/>
</g>
<polygon fill="#010101" points="91.306,98.665 89.388,98.665 85.969,94.083 85.969,98.665 84.046,98.665 84.046,91.281 
	85.978,91.281 89.388,95.871 89.388,91.281 91.306,91.281 "/>
<g>
	<path fill="#010101" d="M98.533,94.982c0-0.568-0.188-1.041-0.566-1.425c-0.377-0.382-0.856-0.574-1.432-0.574
		c-0.59,0-1.072,0.19-1.448,0.566c-0.373,0.379-0.56,0.856-0.56,1.433c0,0.568,0.188,1.04,0.566,1.416s0.857,0.565,1.443,0.565
		c0.579,0,1.058-0.19,1.435-0.566C98.345,96.017,98.533,95.546,98.533,94.982 M100.533,94.982c0,1.088-0.384,1.999-1.151,2.735
		c-0.766,0.737-1.717,1.105-2.848,1.105c-1.137,0-2.086-0.368-2.854-1.105c-0.767-0.737-1.149-1.648-1.149-2.735
		c0-1.083,0.384-1.998,1.155-2.743c0.77-0.744,1.719-1.115,2.848-1.115c1.131,0,2.081,0.371,2.848,1.114
		C100.15,92.98,100.533,93.896,100.533,94.982"/>
</g>
<polygon fill="#010101" points="110.368,98.665 108.455,98.665 107.847,94.15 106.537,98.665 105.213,98.665 103.902,94.15 
	103.285,98.665 101.387,98.665 102.51,91.281 104.529,91.281 105.883,95.925 107.222,91.281 109.239,91.281 "/>
<path fill="#010101" d="M115.708,95.933l-0.982-3.137l-0.989,3.137H115.708z M118.586,98.665h-2.056l-0.402-1.312h-2.822
	l-0.41,1.312h-2.058l2.626-7.384h2.498L118.586,98.665z"/>
<g>
	<path fill="#010101" d="M127.313,94.982c0-0.71-0.182-1.235-0.548-1.571c-0.363-0.336-0.934-0.505-1.705-0.505h-0.168v4.133h0.168
		c0.776,0,1.343-0.167,1.707-0.5C127.131,96.204,127.313,95.687,127.313,94.982 M129.307,94.982c0,1.244-0.361,2.168-1.085,2.774
		c-0.723,0.606-1.846,0.91-3.367,0.91h-1.884v-7.384h1.596c1.688,0,2.899,0.299,3.635,0.898
		C128.939,92.779,129.307,93.713,129.307,94.982"/>
</g>
<polygon fill="#010101" points="134.755,98.665 130.532,98.665 130.532,91.281 134.755,91.281 134.755,92.906 132.455,92.906 
	132.455,94.141 134.66,94.141 134.66,95.709 132.455,95.709 132.455,97.039 134.755,97.039 "/>
<polygon fill="#010101" points="140.114,98.665 136.116,98.665 136.116,91.281 138.114,91.281 138.114,96.971 140.114,96.971 "/>
<polygon fill="#010101" points="145.139,98.665 141.14,98.665 141.14,91.281 143.139,91.281 143.139,96.971 145.139,96.971 "/>
<path fill="#010101" d="M150.321,95.933l-0.98-3.137l-0.99,3.137H150.321z M153.201,98.665h-2.057l-0.402-1.312h-2.821l-0.413,1.312
	h-2.055l2.625-7.384h2.495L153.201,98.665z"/>
<g>
	<path fill="#010101" d="M162.516,96.335c0,0.756-0.262,1.359-0.785,1.81c-0.523,0.451-1.22,0.676-2.09,0.676
		c-0.51,0-0.971-0.084-1.381-0.254c-0.412-0.172-0.819-0.446-1.22-0.826l0.899-1.388c0.269,0.307,0.548,0.534,0.831,0.681
		c0.285,0.148,0.589,0.22,0.915,0.22c0.268,0,0.486-0.071,0.654-0.212c0.17-0.14,0.255-0.321,0.255-0.543
		c0-0.242-0.079-0.431-0.232-0.568c-0.156-0.135-0.489-0.268-1.003-0.4c-0.685-0.177-1.188-0.439-1.509-0.781
		c-0.32-0.342-0.48-0.791-0.48-1.347c0-0.681,0.235-1.232,0.706-1.652c0.47-0.419,1.088-0.627,1.854-0.627
		c0.41,0,0.797,0.054,1.156,0.161c0.362,0.11,0.702,0.273,1.021,0.494l-0.631,1.482c-0.217-0.186-0.448-0.327-0.687-0.423
		c-0.24-0.097-0.481-0.146-0.721-0.146c-0.254,0-0.456,0.051-0.61,0.151c-0.151,0.101-0.227,0.236-0.227,0.405
		c0,0.329,0.363,0.586,1.086,0.773c0.048,0.014,0.085,0.025,0.11,0.029c0.743,0.199,1.278,0.477,1.603,0.838
		C162.355,95.247,162.516,95.731,162.516,96.335"/>
</g>
<path fill="#010101" d="M167.943,95.933l-0.979-3.137l-0.992,3.137H167.943z M170.823,98.665h-2.058l-0.402-1.312h-2.821
	l-0.412,1.312h-2.056l2.626-7.384h2.495L170.823,98.665z"/>
<g>
	<path fill="#010101" d="M175.161,93.863c0-0.363-0.091-0.624-0.274-0.782c-0.183-0.157-0.493-0.237-0.931-0.237h-0.383v1.961h0.351
		c0.424,0,0.736-0.077,0.938-0.23C175.061,94.422,175.161,94.185,175.161,93.863 M177.529,98.665h-2.262l-1.695-2.87v2.87h-1.921
		v-7.384h2.254c1.198,0,2.04,0.186,2.524,0.562c0.485,0.374,0.727,0.967,0.727,1.775c0,0.57-0.14,1.031-0.421,1.392
		c-0.28,0.358-0.688,0.594-1.225,0.709L177.529,98.665z"/>
	<path fill="#010101" d="M182.842,94.982c0-0.71-0.184-1.235-0.549-1.571c-0.363-0.336-0.933-0.505-1.704-0.505h-0.168v4.133h0.168
		c0.776,0,1.344-0.167,1.707-0.5C182.658,96.204,182.842,95.687,182.842,94.982 M184.834,94.982c0,1.244-0.36,2.168-1.086,2.774
		c-0.723,0.606-1.845,0.91-3.367,0.91h-1.882v-7.384h1.596c1.687,0,2.899,0.299,3.635,0.898
		C184.467,92.779,184.834,93.713,184.834,94.982"/>
</g>
<polygon fill="#010101" points="190.283,98.665 186.059,98.665 186.059,91.281 190.283,91.281 190.283,92.906 187.981,92.906 
	187.981,94.141 190.187,94.141 190.187,95.709 187.981,95.709 187.981,97.039 190.283,97.039 "/>
<g>
	<path fill="#010101" d="M198.861,94.853c0,1.301-0.312,2.287-0.94,2.959c-0.624,0.674-1.543,1.01-2.753,1.01
		c-1.128,0-2.055-0.356-2.78-1.071c-0.725-0.713-1.088-1.634-1.088-2.76c0-1.112,0.372-2.034,1.114-2.769
		c0.744-0.732,1.677-1.098,2.804-1.098c0.709,0,1.345,0.143,1.9,0.426c0.557,0.287,1.023,0.709,1.399,1.266l-1.731,0.84
		c-0.208-0.282-0.44-0.494-0.699-0.634c-0.257-0.138-0.548-0.207-0.869-0.207c-0.591,0-1.059,0.201-1.403,0.606
		c-0.346,0.402-0.521,0.951-0.521,1.646c0,0.657,0.17,1.18,0.51,1.567c0.341,0.388,0.796,0.582,1.365,0.582
		c0.498,0,0.904-0.114,1.213-0.343c0.311-0.228,0.49-0.534,0.538-0.92h-1.832v-1.57h3.773L198.861,94.853L198.861,94.853z"/>
</g>
<polygon fill="#010101" points="207.345,98.665 205.428,98.665 202.007,94.083 202.007,98.665 200.087,98.665 200.087,91.281 
	202.018,91.281 205.428,95.871 205.428,91.281 207.345,91.281 "/>
<path fill="#010101" d="M213.048,95.933l-0.982-3.137l-0.989,3.137H213.048z M215.926,98.665h-2.056l-0.402-1.312h-2.823
	l-0.41,1.312h-2.058l2.626-7.384h2.498L215.926,98.665z"/>
</svg>
