<?xml version="1.0" encoding="utf-8"?>
<!-- Generator: Adobe Illustrator 17.0.0, SVG Export Plug-In . SVG Version: 6.00 Build 0)  -->
<!DOCTYPE svg PUBLIC "-//W3C//DTD SVG 1.1//EN" "http://www.w3.org/Graphics/SVG/1.1/DTD/svg11.dtd">
<svg version="1.1" id="Livello_1" xmlns="http://www.w3.org/2000/svg" xmlns:xlink="http://www.w3.org/1999/xlink" x="0px" y="0px"
	 width="64px" height="64px" viewBox="0 0 64 64" enable-background="new 0 0 64 64" xml:space="preserve">
<g>
	<path fill="#FFFFFF" d="M32,0C14.327,0,0,14.327,0,32s14.327,32,32,32s32-14.327,32-32S49.673,0,32,0z M32,61
		C15.984,61,3,48.016,3,32S15.984,3,32,3s29,12.984,29,29S48.016,61,32,61z"/>
	<ellipse fill="#FFFFFF" cx="24.633" cy="26.703" rx="1.208" ry="1.223"/>
	<path fill="#FFFFFF" d="M38.331,21.763c-1.946-0.829-4.016-1.244-6.085-1.244c-2.069,0-4.139,0.415-6.085,1.244
		c-0.272,0.106-0.465,0.372-0.465,0.684c0,0.405,0.325,0.734,0.725,0.734c0.096,0,0.187-0.019,0.271-0.053
		c0.001,0.002,0.001,0.003,0.002,0.005c1.775-0.761,3.664-1.141,5.552-1.141c1.889,0,3.777,0.381,5.553,1.141
		c0-0.002,0.001-0.003,0.002-0.005c0.084,0.034,0.175,0.053,0.271,0.053c0.401,0,0.725-0.328,0.725-0.734
		C38.797,22.135,38.603,21.869,38.331,21.763z"/>
	<path fill="#FFFFFF" d="M32.367,17.787c-1.765,0-3.483,0.26-5.125,0.774c-1.691-1.681-4.711-2.553-6.23-2.554
		c-0.547,0-0.988,0.109-1.351,0.333c-0.43,0.266-0.729,0.683-0.842,1.175c-0.212,0.921,0.257,1.672,0.8,2.542
		c0.436,0.698,1.007,1.611,1.092,2.43c-0.995,1.001-1.816,2.113-2.454,3.321l-0.437,0.831h-0.73c-1.155,0-2.095,0.95-2.095,2.118
		v6.358c0,1.168,0.94,2.118,2.095,2.118h0.774l0.446,0.831c0.951,1.76,2.299,3.323,3.962,4.591l-0.053,2.427
		c-0.104,1.088,0.639,2.095,1.721,2.288l3.333,0.594c0.12,0.021,0.243,0.032,0.365,0.032c0.963,0,1.791-0.658,2.028-1.588
		l0.202-0.602c0.824,0.12,1.66,0.18,2.499,0.18c0.965,0,1.924-0.079,2.866-0.237l0.221,0.659c0.237,0.929,1.065,1.588,2.028,1.588
		c0.122,0,0.244-0.011,0.364-0.032l3.333-0.594c1.083-0.193,1.825-1.2,1.721-2.288l-0.059-2.726
		c3.288-2.673,5.156-6.444,5.156-10.469l0-0.078c0.003-0.661,0.009-2.418-0.923-4.709C44.857,21.534,38.945,17.787,32.367,17.787z
		 M46.386,31.887c0,3.904-2.017,7.388-5.174,9.675l0.079,3.637c0.046,0.266-0.129,0.52-0.392,0.566l-3.333,0.594
		c-0.028,0.005-0.057,0.008-0.084,0.008c-0.23,0-0.434-0.167-0.476-0.404l-0.706-2.104c-1.248,0.324-2.568,0.498-3.934,0.498
		c-1.236,0-2.435-0.143-3.576-0.41l-0.676,2.016c-0.041,0.237-0.245,0.404-0.476,0.404c-0.028,0-0.056-0.002-0.084-0.008
		l-3.333-0.594c-0.263-0.047-0.438-0.301-0.392-0.566l0.073-3.371c-2.04-1.377-3.643-3.239-4.592-5.393H19.3
		c-0.161-0.483-0.613-0.831-1.145-0.831c-0.066,0-1.063,0-1.063,0c-0.267,0-0.484-0.219-0.484-0.489v-6.358
		c0-0.27,0.216-0.489,0.484-0.489c0,0,0.966,0,1.015,0c0.532,0,0.984-0.348,1.145-0.831h0.016c0.683-1.589,1.719-3.022,3.026-4.222
		c0.426-2.616-2.539-5.021-1.79-5.485c0.102-0.063,0.278-0.093,0.509-0.093c1.408,0,4.836,1.128,5.667,2.849
		c1.738-0.687,3.663-1.069,5.688-1.069c6.1,0,11.29,3.466,13.217,8.304C46.435,29.808,46.386,31.336,46.386,31.887z"/>
</g>
</svg>
