<?xml version="1.0" encoding="utf-8"?>
<!-- Generator: Adobe Illustrator 17.0.0, SVG Export Plug-In . SVG Version: 6.00 Build 0)  -->
<!DOCTYPE svg PUBLIC "-//W3C//DTD SVG 1.1//EN" "http://www.w3.org/Graphics/SVG/1.1/DTD/svg11.dtd">
<svg version="1.1" id="Livello_1" xmlns="http://www.w3.org/2000/svg" xmlns:xlink="http://www.w3.org/1999/xlink" x="0px" y="0px"
	 width="64px" height="64px" viewBox="0 0 64 64" enable-background="new 0 0 64 64" xml:space="preserve">
<g>
	<path fill-rule="evenodd" clip-rule="evenodd" fill="#FFFFFF" d="M32,0C14.327,0,0,14.327,0,32s14.327,32,32,32s32-14.327,32-32
		S49.673,0,32,0z M32,61C15.984,61,3,48.016,3,32S15.984,3,32,3s29,12.984,29,29S48.016,61,32,61z"/>
	<path fill-rule="evenodd" clip-rule="evenodd" fill="#FFFFFF" d="M31.2,31.2c-0.884,0-1.6,0.716-1.6,1.6v8
		c0,0.884,0.716,1.6,1.6,1.6h12c0.884,0,1.6-0.716,1.6-1.6v-8c0-0.884-0.716-1.6-1.6-1.6H31.2z M43.2,40c0,0.442-0.358,0.8-0.8,0.8
		H32c-0.442,0-0.8-0.358-0.8-0.8v-6.4c0-0.442,0.358-0.8,0.8-0.8h10.4c0.442,0,0.8,0.358,0.8,0.8V40z"/>
	<path fill-rule="evenodd" clip-rule="evenodd" fill="#FFFFFF" d="M41.034,37.034l-1.6,1.6C39.278,38.791,39.2,38.995,39.2,39.2
		s0.078,0.409,0.234,0.566C39.591,39.922,39.795,40,40,40s0.409-0.078,0.566-0.234l1.6-1.6c0.156-0.156,0.234-0.361,0.234-0.566
		c0-0.205-0.078-0.409-0.234-0.566C41.853,36.722,41.347,36.722,41.034,37.034z"/>
	<path fill-rule="evenodd" clip-rule="evenodd" fill="#FFFFFF" d="M41.034,33.834l-4.8,4.8C36.078,38.791,36,38.995,36,39.2
		s0.078,0.409,0.234,0.566C36.391,39.922,36.595,40,36.8,40s0.409-0.078,0.566-0.234l4.8-4.8c0.156-0.156,0.234-0.361,0.234-0.566
		c0-0.205-0.078-0.409-0.234-0.566C41.853,33.522,41.347,33.522,41.034,33.834z"/>
	<path fill-rule="evenodd" clip-rule="evenodd" fill="#FFFFFF" d="M43.2,16.8H40h-3.2h-3.2h-3.2h-3.2H24h-3.2h-1.6l-5.6,8v0.8
		c0,1.639,0.989,3.045,2.4,3.662V45.6c0,0.884,0.716,1.6,1.6,1.6h3.2V33.6c0-0.442,0.358-0.8,0.8-0.8h4c0.442,0,0.8,0.358,0.8,0.8
		v13.6h20c0.884,0,1.6-0.716,1.6-1.6V29.262c1.411-0.618,2.4-2.023,2.4-3.662v-0.8l-5.6-8H43.2z M37.28,18.4l1.92,6.4v0.8
		c0,1.326-1.075,2.4-2.4,2.4s-2.4-1.075-2.4-2.4v-0.8l-0.64-6.4H37.28z M24.8,24.8l1.92-6.4h3.52l-0.64,6.4v0.8
		c0,1.326-1.074,2.4-2.4,2.4s-2.4-1.075-2.4-2.4V24.8z M15.2,25.6v-0.8l4.48-6.4h3.52L20,24.8v0.8c0,1.326-1.075,2.4-2.4,2.4
		S15.2,26.925,15.2,25.6z M46.4,44.8c0,0.442-0.358,0.8-0.8,0.8H28V32.8c0-0.884-0.716-1.6-1.6-1.6h-5.6c-0.884,0-1.6,0.716-1.6,1.6
		v12.8h-0.8c-0.442,0-0.8-0.358-0.8-0.8V29.6c1.079,0,2.054-0.432,2.773-1.126c0.425,0.674,1.171,1.126,2.027,1.126
		c0.856,0,1.602-0.451,2.027-1.126c0.719,0.694,1.694,1.126,2.773,1.126c1.079,0,2.054-0.432,2.773-1.126
		C30.398,29.149,31.144,29.6,32,29.6s1.602-0.451,2.027-1.126c0.719,0.694,1.694,1.126,2.773,1.126c1.079,0,2.054-0.432,2.773-1.126
		c0.425,0.674,1.171,1.126,2.027,1.126c0.856,0,1.602-0.451,2.027-1.126c0.719,0.694,1.694,1.126,2.773,1.126V44.8z M48.8,25.6
		c0,1.326-1.074,2.4-2.4,2.4S44,26.925,44,25.6v-0.8l-3.2-6.4h3.52l4.48,6.4V25.6z"/>
</g>
</svg>
