<?xml version="1.0" encoding="utf-8"?>
<!-- Generator: Adobe Illustrator 17.0.0, SVG Export Plug-In . SVG Version: 6.00 Build 0)  -->
<!DOCTYPE svg PUBLIC "-//W3C//DTD SVG 1.1//EN" "http://www.w3.org/Graphics/SVG/1.1/DTD/svg11.dtd">
<svg version="1.1" id="Livello_1" xmlns="http://www.w3.org/2000/svg" xmlns:xlink="http://www.w3.org/1999/xlink" x="0px" y="0px"
	 width="64px" height="64px" viewBox="0 0 64 64" enable-background="new 0 0 64 64" xml:space="preserve">
<g>
	<path fill-rule="evenodd" clip-rule="evenodd" fill="#FFFFFF" d="M32,0C14.327,0,0,14.327,0,32s14.327,32,32,32s32-14.327,32-32
		S49.673,0,32,0z M32,61C15.984,61,3,48.016,3,32S15.984,3,32,3s29,12.984,29,29S48.016,61,32,61z"/>
	<path fill-rule="evenodd" clip-rule="evenodd" fill="#FFFFFF" d="M36.287,30.315C39.094,28.792,41,25.818,41,22.4
		c0-4.971-4.029-9-9-9s-9,4.029-9,9c0,3.418,1.906,6.391,4.713,7.915C19.842,32.239,14,39.336,14,47.8c0,0.442,0.358,0.8,0.8,0.8
		c0.442,0,0.8-0.358,0.8-0.8c0-9.057,7.343-16.4,16.4-16.4s16.4,7.342,16.4,16.4c0,0.442,0.358,0.8,0.8,0.8
		c0.442,0,0.8-0.358,0.8-0.8C50,39.336,44.158,32.239,36.287,30.315z M24.6,22.4c0-4.087,3.313-7.4,7.4-7.4s7.4,3.313,7.4,7.4
		c0,4.087-3.313,7.4-7.4,7.4S24.6,26.487,24.6,22.4z"/>
</g>
</svg>
