<?xml version="1.0" encoding="utf-8"?>
<!-- Generator: Adobe Illustrator 17.0.0, SVG Export Plug-In . SVG Version: 6.00 Build 0)  -->
<!DOCTYPE svg PUBLIC "-//W3C//DTD SVG 1.1//EN" "http://www.w3.org/Graphics/SVG/1.1/DTD/svg11.dtd">
<svg version="1.1" id="Livello_1" xmlns="http://www.w3.org/2000/svg" xmlns:xlink="http://www.w3.org/1999/xlink" x="0px" y="0px"
	 width="60px" height="60px" viewBox="0 0 60 60" enable-background="new 0 0 60 60" xml:space="preserve">
<path fill-rule="evenodd" clip-rule="evenodd" fill="#0050a0" d="M30,0c16.569,0,30,13.432,30,30S46.569,60,30,60S0,46.569,0,30
	S13.432,0,30,0z"/>
<path fill-rule="evenodd" clip-rule="evenodd" fill="#0050a0" d="M30,3c14.912,0,27,12.088,27,27S44.912,57,30,57S3,44.912,3,30
	S15.088,3,30,3z"/>
<path fill="#FFFFFF" d="M48.673,21.146c-0.265-0.315-0.656-0.496-1.067-0.496h-5.404c0.107-1.34,0.166-2.717,0.168-4.128
	c0.001-0.024,0.002-0.048,0.002-0.071c0-0.773-0.624-1.4-1.395-1.4h-0.004H20.026c-0.771,0-1.396,0.627-1.396,1.4
	c0,1.436,0.059,2.837,0.168,4.2h-5.404c-0.411,0-0.801,0.182-1.067,0.496c-0.265,0.315-0.379,0.731-0.31,1.137
	c1.497,8.873,7.367,15.67,14.611,17.485c0.403,0.28,0.817,0.517,1.24,0.708c-0.689,1.862-1.978,3.166-3.475,3.263
	c-0.045-0.004-0.093-0.007-0.144-0.007c-1.16,0-2.104,0.946-2.104,2.109c0,1.047,0.764,1.92,1.778,2.078
	c0.095,0.02,0.193,0.031,0.293,0.031h12.568c0.006,0,0.011,0,0.017,0c0.005,0,0.01,0,0.016,0c1.16,0,2.104-0.946,2.104-2.109
	c0-1.163-0.944-2.109-2.104-2.109c-0.067,0-0.128,0.004-0.183,0.011c-1.482-0.084-2.787-1.407-3.489-3.272
	c0.419-0.191,0.829-0.426,1.229-0.703c7.244-1.815,13.112-8.611,14.61-17.484C49.052,21.877,48.938,21.461,48.673,21.146z
	 M40.974,16.45c0,12.822-4.689,23.217-10.474,23.217S20.026,29.272,20.026,16.45H40.974z M13.394,22.05h5.536
	c0.707,6.536,2.632,12.007,5.277,15.378C18.73,34.88,14.586,29.115,13.394,22.05z M36.741,45.147
	c0.026-0.003,0.049-0.015,0.076-0.015c0.391,0,0.707,0.318,0.707,0.709c0,0.392-0.317,0.709-0.707,0.709
	c-0.012,0-0.021-0.006-0.033-0.007v0.007H24.216v-0.007c-0.374-0.018-0.675-0.322-0.675-0.702c0-0.392,0.317-0.709,0.707-0.709
	c0.021,0,0.038,0.01,0.059,0.012c2.138-0.048,3.977-1.754,4.885-4.222c0.429,0.093,0.865,0.145,1.308,0.145
	c0.443,0,0.879-0.051,1.308-0.145C32.722,43.41,34.583,45.124,36.741,45.147z M36.793,37.429c2.646-3.371,4.57-8.842,5.278-15.379
	h5.536C46.414,29.115,42.27,34.881,36.793,37.429z"/>
</svg>
