<?xml version="1.0" encoding="utf-8"?>
<!-- Generator: Adobe Illustrator 17.0.0, SVG Export Plug-In . SVG Version: 6.00 Build 0)  -->
<!DOCTYPE svg PUBLIC "-//W3C//DTD SVG 1.1//EN" "http://www.w3.org/Graphics/SVG/1.1/DTD/svg11.dtd">
<svg version="1.1" id="Livello_1" xmlns="http://www.w3.org/2000/svg" xmlns:xlink="http://www.w3.org/1999/xlink" x="0px" y="0px"
	 width="64px" height="64px" viewBox="0 0 64 64" enable-background="new 0 0 64 64" xml:space="preserve">
<path fill-rule="evenodd" clip-rule="evenodd" fill="#0050a0" d="M32,0c17.673,0,32,14.327,32,32S49.673,64,32,64S0,49.673,0,32
	S14.327,0,32,0z"/>
<path fill-rule="evenodd" clip-rule="evenodd" fill="#72C2B9" d="M32,3c16.016,0,29,12.984,29,29S48.016,61,32,61S3,48.016,3,32
	S15.984,3,32,3z"/>
<g>
	<ellipse fill-rule="evenodd" clip-rule="evenodd" fill="#FFFFFF" cx="18.407" cy="26.3" rx="0.746" ry="0.756"/>
	<path fill-rule="evenodd" clip-rule="evenodd" fill="#FFFFFF" d="M32.06,28.722c1.773,0,3.195-1.121,3.804-2.7h-7.608
		C28.865,27.601,30.285,28.722,32.06,28.722z"/>
	<ellipse fill-rule="evenodd" clip-rule="evenodd" fill="#FFFFFF" cx="28.826" cy="20.814" rx="1.331" ry="1.35"/>
	<ellipse fill-rule="evenodd" clip-rule="evenodd" fill="#FFFFFF" cx="35.293" cy="20.814" rx="1.331" ry="1.35"/>
	<path fill-rule="evenodd" clip-rule="evenodd" fill="#FFFFFF" d="M47.855,45.824c-0.079-6.903-4.655-12.976-11.208-14.981
		c2.931-1.672,4.792-4.86,4.792-8.293c0-2.548-0.981-4.938-2.764-6.737c-0.344-0.917-1.162-2.608-2.867-3.996
		c-0.34-0.277-0.883-0.218-1.156,0.128c-0.126,0.16-0.185,0.354-0.179,0.544c-0.838-0.557-1.787-1.044-2.759-1.268
		c-0.302-0.073-0.628,0.042-0.824,0.289c-0.196,0.248-0.236,0.58-0.104,0.868l0.183,0.398c-1.129-0.265-2.096-0.233-2.848,0.103
		c-1.353,0.607-2.257,1.607-2.494,2.754c-1.874,1.792-2.947,4.308-2.947,6.917c0,3.412,1.844,6.59,4.747,8.268
		c-6.599,1.982-11.207,8.068-11.283,15.023l-0.001,0.045l0.003,0.012c0.03,0.501,0.451,0.901,0.957,0.901
		c0.528,0,0.958-0.43,0.955-0.996C18.167,38.225,24.421,32.06,32,32.06c7.606,0,13.862,6.188,13.944,13.796l0.006,0.247h0.035
		c0.117,0.396,0.486,0.688,0.916,0.688c0.418,0,0.779-0.277,0.905-0.657l0.127,0.019l-0.078-0.311V45.824z M24.702,22.55
		c0-1.667,0.557-3.291,1.575-4.603c0.566,0.505,1.442,0.771,2.555,0.771c0.378,0,0.641-0.033,0.64-0.033
		c0.399-0.047,0.703-0.375,0.723-0.78c0.019-0.375-0.211-0.71-0.602-0.833l0.001-0.002c-0.01-0.024-0.022-0.147,0.059-0.384
		c0.08-0.235,0.324-0.952,2.057-0.952c1.965,0,4.433,0.915,5.207,1.223c1.591,1.423,2.502,3.459,2.502,5.593
		c0,4.116-3.301,7.464-7.358,7.464C28.002,30.014,24.702,26.666,24.702,22.55z"/>
	<path fill-rule="evenodd" clip-rule="evenodd" fill="#FFFFFF" d="M18.727,29.216h-4.26c0.341,0.885,1.137,1.512,2.13,1.512
		C17.59,30.728,18.386,30.101,18.727,29.216z"/>
	<ellipse fill-rule="evenodd" clip-rule="evenodd" fill="#FFFFFF" cx="14.786" cy="26.3" rx="0.746" ry="0.756"/>
	<path fill-rule="evenodd" clip-rule="evenodd" fill="#FFFFFF" d="M16.506,32.452c0.03,0,0.06,0.005,0.09,0.005
		c0.019,0,0.037-0.003,0.056-0.003c1.507,0.017,2.914,0.452,4.108,1.197c0.202-0.186,0.408-0.367,0.619-0.543
		c-0.785-0.519-1.66-0.91-2.594-1.156c1.727-0.832,2.923-2.612,2.923-4.679c0-1.447-0.586-2.755-1.529-3.695
		c-0.16-0.438-0.604-1.418-1.573-2.207c-0.137-0.112-0.339-0.089-0.449,0.05c-0.111,0.139-0.089,0.343,0.049,0.456
		c0.245,0.199,0.45,0.414,0.624,0.627c-0.649-0.581-1.537-1.227-2.46-1.439c-0.119-0.028-0.243,0.016-0.32,0.112
		c-0.077,0.097-0.092,0.229-0.041,0.34l0.227,0.494c-0.31-0.093-0.68-0.172-1.04-0.172c-0.283,0-0.535,0.049-0.749,0.144
		c-0.745,0.334-1.216,0.871-1.325,1.485c-1.008,0.947-1.64,2.3-1.64,3.803c0,2.055,1.182,3.826,2.892,4.664
		c-3.722,0.959-6.482,4.308-6.55,8.314c0,0.008-0.002,0.015-0.002,0.022c0,0.004,0.001,0.007,0.001,0.011
		c0,0.01-0.001,0.021-0.001,0.031h0.004c0.021,0.2,0.188,0.356,0.392,0.356s0.371-0.156,0.392-0.356h0.002
		c0-0.009,0.001-0.017,0.001-0.026c0-0.005,0.002-0.011,0.002-0.016c0-0.003-0.001-0.005-0.001-0.008
		C8.689,35.956,12.187,32.482,16.506,32.452z M12.336,27.272c0-1.063,0.381-2.035,1.011-2.788c0.275,0.323,0.77,0.502,1.441,0.502
		c0.197,0,0.336-0.016,0.342-0.017c0.155-0.018,0.274-0.147,0.282-0.305c0.008-0.158-0.097-0.298-0.249-0.333
		c0,0-0.048-0.02-0.07-0.061c-0.035-0.063-0.026-0.182,0.024-0.327c0.053-0.156,0.215-0.628,1.284-0.628
		c1.158,0,2.624,0.557,2.991,0.704c0.896,0.793,1.466,1.956,1.466,3.253c0,2.382-1.911,4.32-4.26,4.32S12.336,29.654,12.336,27.272z
		"/>
	<path fill-rule="evenodd" clip-rule="evenodd" fill="#FFFFFF" d="M47.47,30.728c0.993,0,1.789-0.628,2.13-1.512H45.34
		C45.681,30.101,46.477,30.728,47.47,30.728z"/>
	<ellipse fill-rule="evenodd" clip-rule="evenodd" fill="#FFFFFF" cx="45.659" cy="26.3" rx="0.746" ry="0.756"/>
	<ellipse fill-rule="evenodd" clip-rule="evenodd" fill="#FFFFFF" cx="49.281" cy="26.3" rx="0.746" ry="0.756"/>
	<path fill-rule="evenodd" clip-rule="evenodd" fill="#FFFFFF" d="M56.176,40.314c-0.039-4.018-2.79-7.387-6.51-8.366
		c1.723-0.834,2.917-2.611,2.917-4.676c0-1.447-0.586-2.755-1.529-3.695c-0.16-0.438-0.604-1.418-1.573-2.207
		c-0.138-0.112-0.339-0.089-0.449,0.05c-0.111,0.139-0.089,0.343,0.049,0.456c0.245,0.199,0.45,0.414,0.624,0.627
		c-0.649-0.581-1.537-1.227-2.46-1.439c-0.119-0.028-0.243,0.016-0.319,0.112c-0.077,0.097-0.092,0.229-0.041,0.34l0.227,0.494
		c-0.31-0.093-0.679-0.172-1.04-0.172c-0.283,0-0.535,0.049-0.749,0.144c-0.745,0.334-1.216,0.871-1.325,1.485
		c-1.008,0.947-1.64,2.3-1.64,3.803c0,2.058,1.186,3.831,2.9,4.668c-0.937,0.241-1.815,0.629-2.603,1.145
		c0.211,0.175,0.418,0.356,0.621,0.542c1.197-0.737,2.604-1.166,4.112-1.175c0.028,0,0.055,0.004,0.084,0.004
		c0.023,0,0.045-0.003,0.068-0.003c4.314,0.054,7.798,3.542,7.847,7.857c0,0.003-0.001,0.005-0.001,0.008
		c0,0.224,0.177,0.406,0.396,0.406s0.396-0.182,0.396-0.406C56.176,40.317,56.176,40.316,56.176,40.314L56.176,40.314z
		 M47.47,31.592c-2.349,0-4.26-1.938-4.26-4.32c0-1.063,0.381-2.035,1.011-2.788c0.275,0.323,0.77,0.502,1.441,0.502
		c0.197,0,0.336-0.016,0.342-0.017c0.154-0.018,0.274-0.147,0.282-0.305c0.008-0.158-0.097-0.298-0.249-0.333
		c0,0-0.048-0.02-0.07-0.061c-0.035-0.063-0.026-0.182,0.023-0.327c0.053-0.156,0.215-0.628,1.284-0.628
		c1.158,0,2.624,0.557,2.991,0.704c0.896,0.793,1.466,1.956,1.466,3.253C51.731,29.654,49.819,31.592,47.47,31.592z"/>
</g>
</svg>
