<?xml version="1.0" encoding="utf-8"?>
<!-- Generator: Adobe Illustrator 17.0.0, SVG Export Plug-In . SVG Version: 6.00 Build 0)  -->
<!DOCTYPE svg PUBLIC "-//W3C//DTD SVG 1.1//EN" "http://www.w3.org/Graphics/SVG/1.1/DTD/svg11.dtd">
<svg version="1.1" id="Livello_1" xmlns="http://www.w3.org/2000/svg" xmlns:xlink="http://www.w3.org/1999/xlink" x="0px" y="0px"
	 width="20px" height="20px" viewBox="0 0 20 20" enable-background="new 0 0 20 20" xml:space="preserve">
<path fill-rule="evenodd" clip-rule="evenodd" fill="#1A62AA" d="M1.5,0h17C19.328,0,20,0.672,20,1.5v17c0,0.828-0.672,1.5-1.5,1.5
	h-17C0.672,20,0,19.328,0,18.5v-17C0,0.672,0.672,0,1.5,0z"/>
<path fill-rule="evenodd" clip-rule="evenodd" fill="#FFFFFF" d="M2,2h16v16H2V2z"/>
<path fill="#1A62AA" d="M9,13.004L9,13.004c-0.266,0-0.521-0.106-0.708-0.294l-1.905-1.911c-0.39-0.391-0.389-1.024,0.002-1.414
	c0.392-0.39,1.024-0.389,1.414,0.002L9,10.588l3.197-3.202c0.39-0.391,1.023-0.391,1.414-0.001s0.391,1.023,0.001,1.414L9.708,12.71
	C9.52,12.898,9.266,13.004,9,13.004z"/>
</svg>
