<?xml version="1.0" encoding="utf-8"?>
<!-- Generator: Adobe Illustrator 17.0.0, SVG Export Plug-In . SVG Version: 6.00 Build 0)  -->
<!DOCTYPE svg PUBLIC "-//W3C//DTD SVG 1.1//EN" "http://www.w3.org/Graphics/SVG/1.1/DTD/svg11.dtd">
<svg version="1.1" id="Livello_1" xmlns="http://www.w3.org/2000/svg" xmlns:xlink="http://www.w3.org/1999/xlink" x="0px" y="0px"
	 width="60px" height="60px" viewBox="0 0 60 60" enable-background="new 0 0 60 60" xml:space="preserve">
<path fill="#0050A0" d="M30,0c16.569,0,30,13.432,30,30S46.568,60,30,60S0,46.569,0,30S13.431,0,30,0z"/>
<path fill="#5EAAA1" d="M30,2c15.464,0,28,12.536,28,28S45.464,58,30,58S2,45.464,2,30S14.536,2,30,2z"/>
<path fill="#FFFFFF" d="M52.935,30.293c-0.391-0.391-1.023-0.391-1.414,0L38.846,42.967l-7.139-7.139
	c-0.391-0.391-1.023-0.391-1.414,0s-0.391,1.023,0,1.414l7.846,7.846c0.195,0.195,0.451,0.293,0.707,0.293s0.512-0.098,0.707-0.293
	l13.381-13.381C53.325,31.316,53.325,30.684,52.935,30.293z"/>
<g>
	<path fill="#FFFFFF" d="M43.061,35.924l1.423-1.423c-2.334-3.264-5.732-5.717-9.694-6.828c2.755-1.641,4.61-4.641,4.61-8.073
		c0-5.183-4.217-9.4-9.4-9.4s-9.4,4.217-9.4,9.4c0,3.432,1.855,6.432,4.61,8.073c-7.492,2.1-13.01,8.973-13.01,17.127
		c0,0.552,0.448,1,1,1s1-0.448,1-1C14.2,36.088,21.288,29,30,29C35.423,29,40.215,31.748,43.061,35.924z M22.6,19.6
		c0-4.08,3.32-7.4,7.4-7.4s7.4,3.32,7.4,7.4c0,4.08-3.32,7.4-7.4,7.4S22.6,23.68,22.6,19.6z"/>
	<path fill="#FFFFFF" d="M45.528,41.942c0.171,0.928,0.272,1.881,0.272,2.858c0,0.552,0.448,1,1,1s1-0.448,1-1
		c0-1.569-0.208-3.089-0.592-4.538L45.528,41.942z"/>
</g>
</svg>
