<?xml version="1.0" encoding="utf-8"?>
<!-- Generator: Adobe Illustrator 17.0.0, SVG Export Plug-In . SVG Version: 6.00 Build 0)  -->
<!DOCTYPE svg PUBLIC "-//W3C//DTD SVG 1.1//EN" "http://www.w3.org/Graphics/SVG/1.1/DTD/svg11.dtd">
<svg version="1.1" id="Livello_1" xmlns="http://www.w3.org/2000/svg" xmlns:xlink="http://www.w3.org/1999/xlink" x="0px" y="0px"
	 width="20px" height="20px" viewBox="0 0 20 20" enable-background="new 0 0 20 20" xml:space="preserve">
<path fill-rule="evenodd" clip-rule="evenodd" fill="#004594" d="M4,0h12c2.209,0,4,1.791,4,4v12c0,2.209-1.791,4-4,4H4
	c-2.209,0-4-1.791-4-4V4C0,1.791,1.791,0,4,0z"/>
<path fill-rule="evenodd" clip-rule="evenodd" fill="#FFFFFF" d="M4,2h12c1.105,0,2,0.895,2,2v12c0,1.105-0.895,2-2,2H4
	c-1.105,0-2-0.895-2-2V4C2,2.895,2.895,2,4,2z"/>
</svg>
