<?xml version="1.0" encoding="utf-8"?>
<!-- Generator: Adobe Illustrator 17.0.0, SVG Export Plug-In . SVG Version: 6.00 Build 0)  -->
<!DOCTYPE svg PUBLIC "-//W3C//DTD SVG 1.1//EN" "http://www.w3.org/Graphics/SVG/1.1/DTD/svg11.dtd">
<svg version="1.1" id="Livello_1" xmlns="http://www.w3.org/2000/svg" xmlns:xlink="http://www.w3.org/1999/xlink" x="0px" y="0px"
	 width="20px" height="20px" viewBox="0 0 20 20" enable-background="new 0 0 20 20" xml:space="preserve">
<path fill-rule="evenodd" clip-rule="evenodd" fill="#004594" d="M4,0h12c2.209,0,4,1.791,4,4v12c0,2.209-1.791,4-4,4H4
	c-2.209,0-4-1.791-4-4V4C0,1.791,1.791,0,4,0z"/>
<path fill-rule="evenodd" clip-rule="evenodd" fill="#FFFFFF" d="M4,2h12c1.105,0,2,0.895,2,2v12c0,1.105-0.895,2-2,2H4
	c-1.105,0-2-0.895-2-2V4C2,2.895,2.895,2,4,2z"/>
<path fill-rule="evenodd" clip-rule="evenodd" fill="#004594" d="M10.068,12.659c1.866-1.882,1.733-1.764,3.599-3.646
	c1.096-1.106-0.726-2.733-1.828-1.62c-1.569,1.581-1.136,1.162-2.703,2.743c-1.65-1.593,0.7,0.815-0.949-0.779
	c-1.129-1.09-2.955,0.534-1.83,1.62c1.96,1.893-0.078-0.212,1.883,1.681C8.693,13.098,9.617,13.115,10.068,12.659z"/>
</svg>
