<?xml version="1.0" encoding="utf-8"?>
<!-- Generator: Adobe Illustrator 17.0.0, SVG Export Plug-In . SVG Version: 6.00 Build 0)  -->
<!DOCTYPE svg PUBLIC "-//W3C//DTD SVG 1.1//EN" "http://www.w3.org/Graphics/SVG/1.1/DTD/svg11.dtd">
<svg version="1.1" id="Livello_1" xmlns="http://www.w3.org/2000/svg" xmlns:xlink="http://www.w3.org/1999/xlink" x="0px" y="0px"
	 width="84px" height="84px" viewBox="0 0 84 84" enable-background="new 0 0 84 84" xml:space="preserve">
<path fill-rule="evenodd" clip-rule="evenodd" fill="#0050a0" d="M42,0c23.196,0,42,18.804,42,42S65.196,84,42,84S0,65.196,0,42
	S18.804,0,42,0z"/>
<path fill-rule="evenodd" clip-rule="evenodd" fill="#63A8A0" d="M42,3c21.539,0,39,17.461,39,39S63.539,81,42,81S3,63.539,3,42
	S20.461,3,42,3z"/>
<path fill="#FFFFFF" d="M55,61.287H29c-1.654,0-3-1.346-3-3V42.115c-1.18-0.418-2-1.548-2-2.828v-7c0-1.654,1.346-3,3-3h4.49
	c-0.507-0.674-0.934-1.513-0.966-2.451c-0.044-1.256,0.587-2.383,1.876-3.349c0.684-0.513,1.445-0.773,2.263-0.773
	c3.17,0,6.257,4.077,7.598,6.11c1.213-1.835,3.923-5.445,6.787-6.027c1.12-0.224,2.167,0.01,3.073,0.69
	c1.289,0.966,1.92,2.093,1.876,3.349c-0.032,0.938-0.458,1.776-0.966,2.451H57c1.654,0,3,1.346,3,3v7c0,1.28-0.82,2.41-2,2.828
	v16.172C58,59.941,56.654,61.287,55,61.287z M48,59.287h7c0.551,0,1-0.449,1-1v-16h-8V59.287z M38,59.287h8v-28h-8V59.287z
	 M28,42.287v16c0,0.551,0.449,1,1,1h7v-17H28z M48,40.287h9c0.551,0,1-0.449,1-1v-7c0-0.551-0.449-1-1-1h-9V40.287z M27,31.287
	c-0.551,0-1,0.449-1,1v7c0,0.551,0.449,1,1,1h9v-9H27z M44.374,29.287h5.828c0.481-0.363,1.76-1.428,1.797-2.522
	c0.019-0.563-0.344-1.127-1.078-1.678c-0.452-0.339-0.93-0.441-1.476-0.33C47.559,25.139,45.458,27.76,44.374,29.287z M34.32,29.287
	h5.837c-1.6-2.257-3.817-4.573-5.494-4.573c-0.386,0-0.724,0.119-1.063,0.373c-0.733,0.551-1.096,1.115-1.077,1.678
	C32.56,27.856,33.838,28.923,34.32,29.287z"/>
</svg>
