<?xml version="1.0" encoding="utf-8"?>
<!-- Generator: Adobe Illustrator 17.0.0, SVG Export Plug-In . SVG Version: 6.00 Build 0)  -->
<!DOCTYPE svg PUBLIC "-//W3C//DTD SVG 1.1//EN" "http://www.w3.org/Graphics/SVG/1.1/DTD/svg11.dtd">
<svg version="1.1" id="Livello_1" xmlns="http://www.w3.org/2000/svg" xmlns:xlink="http://www.w3.org/1999/xlink" x="0px" y="0px"
	 width="56px" height="56px" viewBox="0 0 56 56" enable-background="new 0 0 56 56" xml:space="preserve">
<g>
	<path fill="#FFFFFF" d="M20.634,18.5c-1.93,0-3.5,1.57-3.5,3.5c0,0.276,0.224,0.5,0.5,0.5s0.5-0.224,0.5-0.5
		c0-1.378,1.122-2.5,2.5-2.5c0.276,0,0.5-0.224,0.5-0.5S20.91,18.5,20.634,18.5z"/>
	<path fill="#FFFFFF" d="M42.841,14.615c-2.077-2.078-4.839-3.222-7.776-3.222c-2.613,0-5.087,0.905-7.064,2.566
		c-1.978-1.662-4.452-2.566-7.064-2.566c-2.938,0-5.7,1.144-7.777,3.222c-2.078,2.078-3.222,4.84-3.222,7.778
		c0,2.938,1.144,5.701,3.222,7.778l14.142,14.143c0.188,0.188,0.442,0.293,0.707,0.293s0.52-0.105,0.707-0.293l14.143-14.143
		c0.04-0.039,0.075-0.082,0.107-0.128C47.128,25.746,47.085,18.859,42.841,14.615z M41.434,28.749
		c-0.037,0.037-0.071,0.077-0.102,0.12L28.009,42.192L14.574,28.757c-1.7-1.7-2.636-3.959-2.636-6.364
		c0-2.404,0.936-4.664,2.636-6.364c1.7-1.7,3.959-2.636,6.363-2.636c2.4,0,4.658,0.934,6.358,2.629c0.39,0.39,1.022,0.39,1.413,0
		c1.699-1.695,3.957-2.629,6.357-2.629c2.403,0,4.663,0.936,6.362,2.636C44.931,19.534,44.935,25.24,41.434,28.749z"/>
</g>
</svg>
