<?xml version="1.0" encoding="utf-8"?>
<!-- Generator: Adobe Illustrator 17.0.0, SVG Export Plug-In . SVG Version: 6.00 Build 0)  -->
<!DOCTYPE svg PUBLIC "-//W3C//DTD SVG 1.1//EN" "http://www.w3.org/Graphics/SVG/1.1/DTD/svg11.dtd">
<svg version="1.1" id="Livello_1" xmlns="http://www.w3.org/2000/svg" xmlns:xlink="http://www.w3.org/1999/xlink" x="0px" y="0px"
	 width="320px" height="203.052px" viewBox="0 0 320 203.052" enable-background="new 0 0 320 203.052" xml:space="preserve">
<g>
	<path fill="#010202" d="M7.163,13.228c1.969,0,3.48-0.571,4.535-1.714c1.055-1.143,1.582-2.777,1.582-4.904
		c0-2.133-0.523-3.768-1.569-4.904S9.155,0,7.181,0C5.206,0,3.69,0.564,2.632,1.692c-1.058,1.128-1.586,2.761-1.586,4.9
		s0.527,3.779,1.582,4.922S5.194,13.228,7.163,13.228z M4.728,3.362c0.551-0.729,1.368-1.094,2.452-1.094
		c2.162,0,3.243,1.447,3.243,4.342c0,2.889-1.087,4.333-3.261,4.333c-1.084,0-1.898-0.363-2.443-1.09
		C4.175,9.126,3.902,8.045,3.902,6.609C3.902,5.174,4.178,4.091,4.728,3.362z"/>
	<path fill="#010202" d="M19.169,13.228c0.674,0,1.275-0.125,1.802-0.374c0.527-0.249,0.935-0.602,1.222-1.059h0.141l0.36,1.257
		h2.057V3.226h-2.681v4.623c0,1.16-0.167,1.991-0.501,2.492c-0.334,0.501-0.876,0.751-1.626,0.751c-0.551,0-0.952-0.177-1.204-0.532
		c-0.252-0.354-0.378-0.886-0.378-1.595V3.226H15.68v6.407c0,1.16,0.293,2.049,0.879,2.667
		C17.144,12.918,18.015,13.228,19.169,13.228z"/>
	<path fill="#010202" d="M30.243,8.051c0-0.791,0.239-1.406,0.716-1.846c0.478-0.439,1.144-0.659,2-0.659
		c0.31,0,0.574,0.029,0.791,0.088l0.202-2.514c-0.24-0.053-0.542-0.079-0.905-0.079c-0.609,0-1.173,0.168-1.692,0.505
		c-0.519,0.337-0.93,0.781-1.235,1.332h-0.132l-0.396-1.652h-2.03v9.826h2.681V8.051z"/>
	<path fill="#010202" d="M45.826,13.228c1.301,0,2.479-0.22,3.533-0.659v-2.285c-1.283,0.451-2.376,0.677-3.278,0.677
		c-2.15,0-3.226-1.433-3.226-4.298c0-1.377,0.281-2.451,0.844-3.221s1.356-1.156,2.382-1.156c0.469,0,0.946,0.085,1.433,0.255
		s0.97,0.369,1.45,0.598l0.879-2.215c-1.26-0.604-2.514-0.905-3.762-0.905c-1.225,0-2.293,0.268-3.204,0.804
		c-0.911,0.536-1.61,1.307-2.096,2.312c-0.487,1.005-0.729,2.175-0.729,3.511c0,2.121,0.495,3.749,1.485,4.882
		C42.527,12.661,43.957,13.228,45.826,13.228z"/>
	<path fill="#010202" d="M53.525,12.608c0.721,0.413,1.553,0.62,2.496,0.62c1.506,0,2.681-0.451,3.524-1.354
		s1.266-2.153,1.266-3.753c0-1.031-0.193-1.93-0.58-2.698c-0.387-0.768-0.94-1.356-1.661-1.767s-1.553-0.615-2.496-0.615
		c-1.518,0-2.695,0.445-3.533,1.336c-0.838,0.891-1.257,2.139-1.257,3.744c0,1.031,0.193,1.934,0.58,2.707
		S52.805,12.195,53.525,12.608z M54.492,5.928c0.316-0.483,0.832-0.725,1.547-0.725c0.721,0,1.239,0.243,1.556,0.729
		s0.475,1.216,0.475,2.188c0,0.979-0.157,1.715-0.47,2.21c-0.313,0.495-0.828,0.743-1.542,0.743c-0.721,0-1.241-0.249-1.56-0.747
		s-0.479-1.233-0.479-2.206C54.018,7.143,54.176,6.412,54.492,5.928z"/>
	<path fill="#010202" d="M65.707,8.429c0-1.16,0.167-1.991,0.501-2.492s0.876-0.751,1.626-0.751c0.551,0,0.952,0.177,1.204,0.532
		c0.252,0.354,0.378,0.886,0.378,1.595v5.739h2.681V6.645c0-1.166-0.296-2.058-0.888-2.676c-0.592-0.618-1.459-0.927-2.602-0.927
		c-0.668,0-1.264,0.122-1.789,0.365s-0.936,0.602-1.235,1.077h-0.149l-0.36-1.257h-2.048v9.826h2.681V8.429z"/>
	<path fill="#010202" d="M75.146,9.976c0,1.084,0.245,1.897,0.734,2.439c0.489,0.542,1.27,0.813,2.342,0.813
		c0.973,0,1.793-0.149,2.461-0.448v-1.995c-0.656,0.205-1.219,0.308-1.688,0.308c-0.352,0-0.634-0.091-0.848-0.272
		s-0.321-0.463-0.321-0.844V5.238h2.751V3.226h-2.751V1.134h-1.714L75.34,3.208l-1.477,0.896v1.134h1.283V9.976z"/>
	<path fill="#010202" d="M85.061,13.228c0.768,0,1.39-0.11,1.868-0.33s0.942-0.614,1.393-1.182h0.07l0.519,1.336h1.872V6.504
		c0-1.172-0.352-2.045-1.055-2.619s-1.714-0.861-3.032-0.861c-1.377,0-2.631,0.296-3.762,0.888l0.888,1.811
		c1.06-0.475,1.983-0.712,2.769-0.712c1.02,0,1.529,0.498,1.529,1.494v0.431l-1.705,0.053c-1.471,0.053-2.571,0.327-3.3,0.822
		s-1.094,1.264-1.094,2.307c0,0.996,0.271,1.764,0.813,2.303C83.374,12.958,84.117,13.228,85.061,13.228z M85.342,8.956
		c0.381-0.258,0.961-0.398,1.74-0.422l1.037-0.035v0.809c0,0.592-0.186,1.067-0.558,1.424c-0.372,0.357-0.869,0.536-1.49,0.536
		c-0.867,0-1.301-0.378-1.301-1.134C84.771,9.606,84.961,9.214,85.342,8.956z"/>
	<path fill="#010202" d="M97.532,13.228c0.674,0,1.232-0.053,1.674-0.158s0.88-0.296,1.314-0.571v-2.294
		c-0.439,0.293-0.879,0.508-1.318,0.646s-0.917,0.207-1.433,0.207c-1.395,0-2.092-0.961-2.092-2.883c0-1.98,0.697-2.971,2.092-2.971
		c0.363,0,0.726,0.054,1.09,0.163c0.363,0.109,0.756,0.248,1.178,0.417l0.791-2.074c-0.902-0.445-1.922-0.668-3.059-0.668
		c-1.553,0-2.745,0.441-3.577,1.323c-0.832,0.882-1.248,2.158-1.248,3.828C92.944,11.549,94.474,13.228,97.532,13.228z"/>
	<path fill="#010202" d="M103.087,9.976c0,1.084,0.245,1.897,0.734,2.439s1.27,0.813,2.342,0.813c0.973,0,1.793-0.149,2.461-0.448
		v-1.995c-0.656,0.205-1.219,0.308-1.688,0.308c-0.352,0-0.634-0.091-0.848-0.272c-0.214-0.182-0.321-0.463-0.321-0.844V5.238h2.751
		V3.226h-2.751V1.134h-1.714l-0.773,2.074l-1.477,0.896v1.134h1.283V9.976z"/>
	<path fill="#010202" d="M111.028,7.998c0.354,0.27,0.91,0.562,1.666,0.879c0.527,0.223,0.949,0.417,1.266,0.584
		s0.539,0.316,0.668,0.448s0.193,0.303,0.193,0.514c0,0.562-0.486,0.844-1.459,0.844c-0.475,0-1.024-0.079-1.648-0.237
		s-1.185-0.354-1.683-0.589v2.215c0.439,0.188,0.911,0.33,1.415,0.426c0.504,0.097,1.113,0.145,1.828,0.145
		c1.395,0,2.442-0.264,3.142-0.791c0.7-0.527,1.05-1.295,1.05-2.303c0-0.486-0.085-0.905-0.255-1.257
		c-0.17-0.352-0.434-0.662-0.791-0.932s-0.92-0.56-1.688-0.87c-0.861-0.346-1.419-0.606-1.674-0.782s-0.382-0.384-0.382-0.624
		c0-0.428,0.396-0.642,1.187-0.642c0.445,0,0.882,0.067,1.31,0.202c0.428,0.135,0.888,0.308,1.38,0.519l0.809-1.934
		c-1.119-0.515-2.271-0.773-3.454-0.773c-1.242,0-2.202,0.239-2.878,0.716s-1.015,1.153-1.015,2.026c0,0.51,0.081,0.939,0.242,1.288
		S110.673,7.729,111.028,7.998z"/>
	<polygon fill="#010202" points="9.447,43.052 9.447,33.058 7.335,33.058 7.335,36.975 3.377,36.975 3.377,33.058 1.258,33.058 
		1.258,43.052 3.377,43.052 3.377,38.738 7.335,38.738 7.335,43.052 	"/>
	<path fill="#010202" d="M11.341,39.285c0,1.244,0.346,2.206,1.039,2.885c0.693,0.679,1.654,1.019,2.885,1.019
		c0.597,0,1.103-0.044,1.518-0.133c0.415-0.089,0.804-0.224,1.169-0.407v-1.613c-0.447,0.21-0.875,0.362-1.285,0.458
		c-0.41,0.096-0.845,0.144-1.306,0.144c-0.592,0-1.053-0.166-1.381-0.499c-0.328-0.333-0.504-0.795-0.526-1.388h4.929v-1.012
		c0-1.084-0.301-1.935-0.902-2.55c-0.602-0.615-1.442-0.923-2.523-0.923c-1.13,0-2.016,0.35-2.656,1.049
		C11.661,37.014,11.341,38.005,11.341,39.285z M13.932,37.169c0.251-0.28,0.597-0.42,1.039-0.42c0.442,0,0.793,0.14,1.053,0.42
		c0.26,0.28,0.394,0.678,0.403,1.193h-2.926C13.537,37.847,13.681,37.45,13.932,37.169z"/>
	<path fill="#010202" d="M20.282,35.942l0.69,1.408c0.825-0.369,1.542-0.554,2.153-0.554c0.793,0,1.189,0.387,1.189,1.162v0.335
		l-1.326,0.041c-1.144,0.041-2,0.254-2.567,0.639c-0.567,0.385-0.851,0.983-0.851,1.794c0,0.775,0.211,1.372,0.632,1.791
		c0.422,0.419,0.999,0.629,1.733,0.629c0.597,0,1.081-0.085,1.453-0.256c0.371-0.171,0.732-0.477,1.083-0.919h0.055l0.403,1.039
		h1.456v-5.093c0-0.911-0.273-1.591-0.82-2.037c-0.547-0.447-1.333-0.67-2.358-0.67C22.137,35.252,21.162,35.482,20.282,35.942z
		 M24.315,40.14c0,0.46-0.145,0.829-0.434,1.107c-0.289,0.278-0.676,0.417-1.159,0.417c-0.675,0-1.012-0.294-1.012-0.882
		c0-0.41,0.148-0.716,0.444-0.916c0.296-0.2,0.747-0.31,1.354-0.328l0.807-0.027V40.14z"/>
	<path fill="#010202" d="M33.12,34.862c0,0.447,0.052,0.955,0.157,1.524h-0.068c-0.506-0.747-1.24-1.121-2.201-1.121
		c-0.916,0-1.635,0.35-2.157,1.049c-0.522,0.699-0.783,1.676-0.783,2.929c0,1.235,0.256,2.201,0.769,2.898s1.218,1.046,2.116,1.046
		c0.971,0,1.693-0.376,2.167-1.128h0.089l0.403,0.991h1.6V32.415H33.12V34.862z M33.264,39.483
		c-0.023,0.743-0.158,1.269-0.407,1.579c-0.248,0.31-0.639,0.465-1.172,0.465c-0.483,0-0.854-0.188-1.114-0.564
		c-0.26-0.376-0.39-0.94-0.39-1.692s0.129-1.325,0.386-1.719c0.257-0.394,0.619-0.591,1.083-0.591c0.57,0,0.981,0.178,1.234,0.533
		c0.253,0.355,0.379,0.943,0.379,1.764V39.483z"/>
	<path fill="#010202" d="M39.812,43.188c0.483,0,0.909-0.096,1.278-0.287c0.369-0.191,0.665-0.472,0.889-0.841h0.089
		c-0.059,0.488-0.089,0.87-0.089,1.148v3.206h2.092V35.409h-1.764l-0.185,0.978h-0.055c-0.273-0.383-0.59-0.665-0.95-0.848
		c-0.36-0.182-0.782-0.273-1.265-0.273c-0.907,0-1.621,0.351-2.143,1.053c-0.522,0.702-0.783,1.677-0.783,2.926
		c0,1.24,0.255,2.207,0.766,2.902C38.204,42.841,38.91,43.188,39.812,43.188z M40.523,36.961c0.561,0,0.967,0.178,1.22,0.533
		c0.253,0.355,0.379,0.943,0.379,1.764v0.253c-0.023,0.757-0.157,1.286-0.403,1.589c-0.246,0.303-0.634,0.455-1.162,0.455
		c-0.515,0-0.894-0.189-1.138-0.567c-0.244-0.378-0.366-0.95-0.366-1.716C39.054,37.731,39.544,36.961,40.523,36.961z"/>
	<path fill="#010202" d="M48.59,41.114c-0.196-0.276-0.294-0.689-0.294-1.241v-4.464h-2.085v4.983c0,0.902,0.228,1.594,0.684,2.075
		c0.456,0.481,1.132,0.721,2.03,0.721c0.524,0,0.991-0.097,1.401-0.291s0.727-0.468,0.95-0.824h0.109l0.28,0.978h1.6v-7.643h-2.085
		v3.596c0,0.902-0.13,1.548-0.39,1.938s-0.681,0.584-1.265,0.584C49.098,41.527,48.786,41.389,48.59,41.114z"/>
	<path fill="#010202" d="M55.658,35.942l0.69,1.408c0.825-0.369,1.542-0.554,2.153-0.554c0.793,0,1.189,0.387,1.189,1.162v0.335
		l-1.326,0.041c-1.144,0.041-2,0.254-2.567,0.639s-0.851,0.983-0.851,1.794c0,0.775,0.211,1.372,0.632,1.791
		c0.422,0.419,0.999,0.629,1.733,0.629c0.597,0,1.081-0.085,1.453-0.256c0.371-0.171,0.733-0.477,1.083-0.919h0.055l0.403,1.039
		h1.456v-5.093c0-0.911-0.273-1.591-0.82-2.037s-1.333-0.67-2.358-0.67C57.513,35.252,56.538,35.482,55.658,35.942z M59.691,40.14
		c0,0.46-0.145,0.829-0.434,1.107c-0.289,0.278-0.676,0.417-1.159,0.417c-0.675,0-1.012-0.294-1.012-0.882
		c0-0.41,0.148-0.716,0.444-0.916c0.296-0.2,0.747-0.31,1.354-0.328l0.807-0.027V40.14z"/>
	<path fill="#010202" d="M68.879,35.327c-0.187-0.041-0.422-0.062-0.704-0.062c-0.474,0-0.913,0.131-1.316,0.393
		c-0.403,0.262-0.724,0.607-0.96,1.036h-0.103l-0.308-1.285h-1.579v7.643h2.085v-3.89c0-0.615,0.186-1.094,0.557-1.436
		s0.89-0.513,1.555-0.513c0.241,0,0.447,0.023,0.615,0.068L68.879,35.327z"/>
	<path fill="#010202" d="M71.244,33.782l-0.602,1.613l-1.148,0.697v0.882h0.998v3.685c0,0.843,0.19,1.475,0.571,1.897
		c0.38,0.422,0.988,0.632,1.822,0.632c0.756,0,1.395-0.116,1.914-0.349v-1.552c-0.51,0.159-0.948,0.239-1.312,0.239
		c-0.273,0-0.493-0.071-0.66-0.212c-0.167-0.141-0.25-0.36-0.25-0.656v-3.685h2.14v-1.565h-2.14v-1.627H71.244z"/>
	<path fill="#010202" d="M76.839,36.315c-0.64,0.699-0.96,1.69-0.96,2.97c0,1.244,0.346,2.206,1.039,2.885
		c0.693,0.679,1.654,1.019,2.885,1.019c0.597,0,1.103-0.044,1.518-0.133c0.415-0.089,0.804-0.224,1.169-0.407v-1.613
		c-0.447,0.21-0.875,0.362-1.285,0.458s-0.845,0.144-1.306,0.144c-0.592,0-1.053-0.166-1.381-0.499s-0.504-0.795-0.526-1.388h4.929
		v-1.012c0-1.084-0.301-1.935-0.902-2.55s-1.442-0.923-2.522-0.923C78.365,35.266,77.48,35.615,76.839,36.315z M80.562,37.169
		c0.26,0.28,0.394,0.678,0.403,1.193h-2.926c0.036-0.515,0.18-0.913,0.431-1.193c0.25-0.28,0.597-0.42,1.039-0.42
		C79.951,36.749,80.302,36.889,80.562,37.169z"/>
	<path fill="#010202" d="M86.7,39.162c0-0.615,0.186-1.094,0.557-1.436c0.371-0.342,0.89-0.513,1.555-0.513
		c0.241,0,0.447,0.023,0.615,0.068l0.157-1.955c-0.187-0.041-0.422-0.062-0.704-0.062c-0.474,0-0.913,0.131-1.316,0.393
		c-0.403,0.262-0.724,0.607-0.96,1.036h-0.103l-0.308-1.285h-1.579v7.643H86.7V39.162z"/>
	<path fill="#999999" d="M6.057,72.45c0.638-0.492,0.957-1.178,0.957-2.058c0-0.684-0.197-1.24-0.591-1.668
		c-0.394-0.428-1.115-0.829-2.164-1.203c-0.624-0.223-1.088-0.427-1.391-0.612c-0.303-0.185-0.518-0.387-0.646-0.608
		C2.094,66.08,2.03,65.797,2.03,65.45c0-0.469,0.173-0.836,0.52-1.101c0.346-0.264,0.827-0.396,1.442-0.396
		c0.779,0,1.581,0.173,2.406,0.52l0.362-1.012c-0.834-0.365-1.748-0.547-2.741-0.547c-0.953,0-1.718,0.228-2.297,0.684
		c-0.579,0.456-0.868,1.069-0.868,1.839c0,0.734,0.199,1.328,0.598,1.784s1.063,0.85,1.993,1.183
		c0.665,0.237,1.161,0.449,1.487,0.636c0.326,0.187,0.558,0.391,0.697,0.612c0.139,0.221,0.208,0.505,0.208,0.851
		c0,0.524-0.196,0.933-0.588,1.227C4.858,72.023,4.275,72.17,3.5,72.17c-0.474,0-0.953-0.05-1.436-0.15
		c-0.483-0.1-0.93-0.237-1.34-0.41v1.121c0.638,0.305,1.549,0.458,2.734,0.458C4.553,73.188,5.418,72.942,6.057,72.45z"/>
	<path fill="#999999" d="M10.021,69.135c0-0.975,0.181-1.677,0.543-2.105s0.938-0.643,1.726-0.643c0.592,0,1.028,0.15,1.306,0.451
		c0.278,0.301,0.417,0.757,0.417,1.367v4.847h1.135v-4.888c0-0.948-0.229-1.639-0.687-2.075s-1.145-0.653-2.061-0.653
		c-0.529,0-0.999,0.104-1.412,0.311c-0.412,0.207-0.73,0.491-0.954,0.851H9.967c0.036-0.255,0.055-0.576,0.055-0.964v-3.22H8.887
		v10.637h1.135V69.135z"/>
	<path fill="#999999" d="M23.023,72.16c0.615-0.686,0.923-1.639,0.923-2.861c0-1.189-0.309-2.133-0.926-2.83
		c-0.618-0.697-1.45-1.046-2.499-1.046c-1.085,0-1.932,0.341-2.543,1.022c-0.611,0.681-0.916,1.633-0.916,2.854
		c0,0.789,0.141,1.477,0.424,2.064c0.283,0.588,0.684,1.039,1.203,1.354c0.52,0.314,1.114,0.472,1.784,0.472
		C21.558,73.188,22.408,72.846,23.023,72.16z M18.812,71.486c-0.383-0.501-0.574-1.23-0.574-2.188c0-0.966,0.189-1.693,0.567-2.181
		c0.378-0.488,0.939-0.731,1.682-0.731c0.752,0,1.32,0.247,1.706,0.742c0.385,0.494,0.578,1.218,0.578,2.17
		c0,0.962-0.193,1.692-0.578,2.191c-0.385,0.499-0.949,0.749-1.692,0.749C19.758,72.238,19.195,71.988,18.812,71.486z"/>
	<path fill="#999999" d="M25.854,65.56v4.901c0,0.952,0.227,1.645,0.68,2.078c0.453,0.433,1.136,0.649,2.047,0.649
		c0.529,0,0.999-0.098,1.412-0.294c0.412-0.196,0.735-0.479,0.967-0.848h0.061l0.164,1.005h0.937V65.56h-1.135v3.938
		c0,0.971-0.181,1.67-0.544,2.099c-0.362,0.428-0.935,0.643-1.719,0.643c-0.593,0-1.028-0.15-1.306-0.451
		c-0.278-0.301-0.417-0.757-0.417-1.367v-4.86H25.854z"/>
	<path fill="#999999" d="M35.089,63.823l-0.479,1.6l-1.073,0.472v0.547h1.073v4.457c0,1.527,0.725,2.29,2.174,2.29
		c0.191,0,0.407-0.02,0.646-0.058c0.239-0.039,0.42-0.088,0.543-0.147v-0.868c-0.109,0.032-0.257,0.063-0.444,0.092
		c-0.187,0.03-0.381,0.044-0.581,0.044c-0.374,0-0.668-0.121-0.882-0.362c-0.214-0.241-0.321-0.588-0.321-1.039v-4.409h2.174V65.56
		h-2.174v-1.736H35.089z"/>
	<path fill="#999999" d="M40.729,73.011c0.15-0.159,0.226-0.387,0.226-0.684c0-0.305-0.074-0.537-0.222-0.694
		c-0.148-0.157-0.354-0.236-0.619-0.236c-0.26,0-0.459,0.079-0.598,0.236c-0.139,0.157-0.208,0.388-0.208,0.694
		c0,0.328,0.076,0.564,0.229,0.708s0.345,0.215,0.578,0.215C40.373,73.25,40.578,73.17,40.729,73.011z"/>
	<path fill="#999999" d="M48.234,72.047h0.062l0.15,1.005h0.923V62.415h-1.135v3.049l0.027,0.526l0.048,0.54h-0.089
		c-0.542-0.738-1.322-1.107-2.338-1.107c-0.975,0-1.736,0.342-2.283,1.025c-0.547,0.684-0.82,1.643-0.82,2.878
		c0,1.235,0.272,2.188,0.817,2.857c0.544,0.67,1.307,1.005,2.287,1.005C46.926,73.188,47.71,72.808,48.234,72.047z M44.481,71.507
		c-0.351-0.488-0.526-1.21-0.526-2.167c0-0.943,0.177-1.674,0.53-2.191c0.353-0.517,0.862-0.776,1.528-0.776
		c0.775,0,1.339,0.227,1.692,0.68c0.353,0.453,0.53,1.211,0.53,2.273v0.239c0,0.939-0.174,1.619-0.523,2.041
		s-0.91,0.632-1.685,0.632C45.347,72.238,44.832,71.994,44.481,71.507z"/>
	<path fill="#999999" d="M57.695,68.793c0-1.012-0.273-1.826-0.82-2.444s-1.29-0.926-2.229-0.926c-1.003,0-1.801,0.355-2.396,1.066
		s-0.892,1.67-0.892,2.878c0,1.198,0.32,2.135,0.96,2.81c0.64,0.675,1.514,1.012,2.622,1.012c0.506,0,0.938-0.038,1.295-0.113
		c0.358-0.075,0.737-0.199,1.138-0.373v-1.012c-0.789,0.337-1.586,0.506-2.393,0.506c-0.766,0-1.359-0.228-1.781-0.684
		c-0.422-0.456-0.644-1.123-0.667-2.003h5.161V68.793z M52.562,68.588c0.064-0.693,0.274-1.235,0.632-1.627
		c0.358-0.392,0.837-0.588,1.439-0.588c0.592,0,1.048,0.19,1.367,0.571c0.319,0.381,0.479,0.928,0.479,1.644H52.562z"/>
	<path fill="#999999" d="M59.91,66.079l0.349,0.868c0.788-0.383,1.495-0.574,2.119-0.574c0.556,0,0.96,0.14,1.213,0.42
		s0.379,0.714,0.379,1.302v0.465l-1.271,0.041c-2.42,0.073-3.63,0.866-3.63,2.379c0,0.707,0.211,1.251,0.632,1.634
		c0.421,0.383,1.004,0.574,1.747,0.574c0.556,0,1.02-0.083,1.391-0.25c0.371-0.166,0.744-0.484,1.118-0.954h0.055l0.226,1.066h0.841
		v-5.113c0-0.875-0.215-1.511-0.646-1.907s-1.093-0.595-1.986-0.595c-0.442,0-0.883,0.057-1.323,0.171
		C60.684,65.721,60.279,65.879,59.91,66.079z M63.943,70.044c0,0.697-0.202,1.24-0.605,1.627s-0.958,0.581-1.665,0.581
		c-0.447,0-0.794-0.107-1.042-0.321c-0.249-0.214-0.373-0.526-0.373-0.937c0-0.524,0.199-0.91,0.598-1.159
		c0.399-0.248,1.049-0.388,1.952-0.42l1.135-0.048V70.044z"/>
	<rect x="67.416" y="62.415" fill="#999999" width="1.135" height="10.637"/>
	<path fill="#999999" d="M71.969,66.626c0.273-0.169,0.679-0.253,1.217-0.253c0.611,0,1.292,0.155,2.044,0.465l0.403-0.923
		c-0.77-0.328-1.559-0.492-2.365-0.492c-0.866,0-1.547,0.177-2.044,0.53c-0.497,0.353-0.745,0.835-0.745,1.446
		c0,0.342,0.072,0.636,0.215,0.882s0.362,0.466,0.656,0.66s0.79,0.42,1.487,0.68c0.734,0.282,1.227,0.528,1.48,0.735
		c0.253,0.208,0.379,0.457,0.379,0.749c0,0.387-0.16,0.676-0.479,0.865c-0.319,0.189-0.775,0.284-1.367,0.284
		c-0.383,0-0.781-0.052-1.193-0.157c-0.413-0.105-0.799-0.248-1.159-0.431v1.053c0.556,0.314,1.331,0.472,2.324,0.472
		c0.939,0,1.668-0.189,2.188-0.567c0.52-0.378,0.779-0.916,0.779-1.613c0-0.497-0.156-0.909-0.468-1.237
		c-0.312-0.328-0.913-0.654-1.801-0.978c-0.647-0.241-1.085-0.426-1.312-0.554c-0.228-0.127-0.393-0.262-0.496-0.403
		s-0.154-0.312-0.154-0.513C71.559,67.027,71.695,66.795,71.969,66.626z"/>
	<path fill="#999999" d="M4.245,96.428c0.228,0,0.49,0.033,0.786,0.099c0.296,0.066,0.57,0.149,0.82,0.25L6.2,95.812
		c-0.205-0.105-0.488-0.196-0.848-0.273c-0.36-0.077-0.72-0.116-1.08-0.116c-1.117,0-1.977,0.342-2.581,1.025
		c-0.604,0.684-0.906,1.652-0.906,2.905c0,1.221,0.297,2.166,0.892,2.833c0.595,0.668,1.434,1.001,2.519,1.001
		c0.761,0,1.392-0.13,1.893-0.39v-1.005c-0.656,0.269-1.297,0.403-1.921,0.403c-0.729,0-1.279-0.246-1.651-0.738
		s-0.557-1.198-0.557-2.119C1.962,97.398,2.723,96.428,4.245,96.428z"/>
	<polygon fill="#999999" points="10.527,93.058 6.802,103.052 7.936,103.052 11.662,93.058 	"/>
	<path fill="#999999" d="M14.219,102.717c0.52,0.314,1.114,0.472,1.784,0.472c1.085,0,1.935-0.343,2.55-1.029
		c0.615-0.686,0.923-1.639,0.923-2.861c0-1.189-0.309-2.133-0.926-2.83c-0.618-0.697-1.45-1.046-2.498-1.046
		c-1.085,0-1.932,0.341-2.543,1.022c-0.611,0.681-0.916,1.633-0.916,2.854c0,0.789,0.141,1.477,0.424,2.064
		C13.298,101.951,13.699,102.402,14.219,102.717z M14.335,97.118c0.378-0.488,0.939-0.731,1.682-0.731
		c0.752,0,1.32,0.247,1.706,0.742c0.385,0.494,0.578,1.218,0.578,2.17c0,0.962-0.193,1.692-0.578,2.191
		c-0.385,0.499-0.949,0.749-1.692,0.749c-0.743,0-1.306-0.251-1.688-0.752c-0.383-0.501-0.574-1.23-0.574-2.188
		C13.768,98.333,13.957,97.606,14.335,97.118z"/>
	<path fill="#999999" d="M31.609,95.881c0-0.943-0.293-1.65-0.878-2.119c-0.586-0.469-1.492-0.704-2.717-0.704h-2.741v9.994h1.162
		v-4.156h2.085l2.42,4.156h1.374L29.6,98.561C30.94,98.096,31.609,97.202,31.609,95.881z M29.832,97.409
		c-0.383,0.326-0.984,0.489-1.805,0.489h-1.593v-3.821h1.511c0.861,0,1.487,0.146,1.876,0.438s0.585,0.768,0.585,1.429
		C30.406,96.594,30.215,97.083,29.832,97.409z"/>
	<rect x="33.756" y="95.56" fill="#999999" width="1.135" height="7.492"/>
	<path fill="#999999" d="M34.802,92.962c-0.132-0.123-0.289-0.185-0.472-0.185c-0.191,0-0.351,0.06-0.478,0.181
		c-0.128,0.121-0.191,0.311-0.191,0.571c0,0.255,0.064,0.446,0.191,0.571c0.128,0.125,0.287,0.188,0.478,0.188
		c0.182,0,0.339-0.063,0.472-0.188C34.934,93.975,35,93.784,35,93.529S34.934,93.085,34.802,92.962z"/>
	<path fill="#999999" d="M40.558,101.968c-0.319,0.189-0.775,0.284-1.367,0.284c-0.383,0-0.78-0.052-1.193-0.157
		c-0.413-0.105-0.799-0.248-1.159-0.431v1.053c0.556,0.314,1.331,0.472,2.324,0.472c0.939,0,1.668-0.189,2.188-0.567
		c0.52-0.378,0.779-0.916,0.779-1.613c0-0.497-0.156-0.909-0.468-1.237c-0.312-0.328-0.913-0.654-1.801-0.978
		c-0.647-0.241-1.085-0.426-1.312-0.554c-0.228-0.127-0.393-0.262-0.496-0.403c-0.102-0.141-0.154-0.312-0.154-0.513
		c0-0.296,0.137-0.529,0.41-0.697s0.679-0.253,1.217-0.253c0.611,0,1.292,0.155,2.044,0.465l0.403-0.923
		c-0.77-0.328-1.559-0.492-2.365-0.492c-0.866,0-1.547,0.177-2.044,0.53c-0.497,0.353-0.745,0.835-0.745,1.446
		c0,0.342,0.072,0.636,0.215,0.882c0.143,0.246,0.362,0.466,0.656,0.66c0.294,0.194,0.79,0.42,1.487,0.68
		c0.734,0.282,1.227,0.528,1.48,0.735c0.253,0.208,0.379,0.457,0.379,0.749C41.036,101.491,40.877,101.779,40.558,101.968z"/>
	<path fill="#999999" d="M46.125,102.918c0.403,0.18,0.849,0.27,1.336,0.27c0.975,0,1.737-0.341,2.287-1.022
		c0.549-0.681,0.824-1.637,0.824-2.868c0-1.226-0.27-2.178-0.81-2.857c-0.54-0.679-1.307-1.019-2.3-1.019
		c-0.501,0-0.946,0.091-1.333,0.273c-0.387,0.182-0.727,0.479-1.019,0.889h-0.055l-0.157-1.025h-0.923v10.855h1.135v-3.083
		c0-0.392-0.027-0.807-0.082-1.244h0.082C45.384,102.462,45.722,102.739,46.125,102.918z M45.11,99.046
		c0.009-0.925,0.185-1.6,0.526-2.023s0.896-0.636,1.661-0.636c0.665,0,1.181,0.25,1.548,0.749c0.367,0.499,0.55,1.216,0.55,2.15
		c0,0.921-0.183,1.643-0.55,2.167c-0.367,0.524-0.874,0.786-1.521,0.786c-0.775,0-1.338-0.227-1.688-0.68
		c-0.351-0.453-0.526-1.207-0.526-2.259V99.046z"/>
	<path fill="#999999" d="M58.003,97.938c0-0.875-0.215-1.511-0.646-1.907s-1.093-0.595-1.986-0.595
		c-0.442,0-0.883,0.057-1.323,0.171c-0.44,0.114-0.844,0.271-1.213,0.472l0.349,0.868c0.788-0.383,1.495-0.574,2.119-0.574
		c0.556,0,0.96,0.14,1.213,0.42s0.379,0.714,0.379,1.302v0.465l-1.271,0.041c-2.42,0.073-3.63,0.866-3.63,2.379
		c0,0.707,0.211,1.251,0.632,1.634c0.421,0.383,1.004,0.574,1.747,0.574c0.556,0,1.02-0.083,1.391-0.25
		c0.371-0.166,0.744-0.484,1.118-0.954h0.055l0.226,1.066h0.841V97.938z M56.868,100.044c0,0.697-0.202,1.24-0.605,1.627
		s-0.958,0.581-1.665,0.581c-0.447,0-0.794-0.107-1.042-0.321c-0.249-0.214-0.373-0.526-0.373-0.937c0-0.524,0.199-0.91,0.598-1.159
		c0.399-0.248,1.049-0.388,1.952-0.42l1.135-0.048V100.044z"/>
	<path fill="#999999" d="M64.497,96.558l0.157-1.053c-0.264-0.055-0.563-0.082-0.896-0.082c-0.469,0-0.9,0.132-1.292,0.396
		c-0.392,0.264-0.727,0.64-1.005,1.128h-0.055l-0.13-1.388h-0.937v7.492h1.135v-4.02c0-0.734,0.215-1.347,0.646-1.839
		s0.949-0.738,1.555-0.738C63.914,96.455,64.187,96.489,64.497,96.558z"/>
	<path fill="#999999" d="M71.962,103.052v-4.184c0-0.843,0.169-1.468,0.506-1.873c0.337-0.406,0.859-0.608,1.565-0.608
		c0.538,0,0.934,0.149,1.189,0.448c0.255,0.299,0.383,0.746,0.383,1.343v4.874h1.135v-4.888c0-0.957-0.211-1.653-0.632-2.088
		c-0.422-0.435-1.056-0.653-1.904-0.653c-0.542,0-1.025,0.114-1.449,0.342s-0.748,0.538-0.971,0.93h-0.055
		c-0.36-0.848-1.126-1.271-2.297-1.271c-0.483,0-0.919,0.103-1.309,0.308s-0.692,0.49-0.906,0.854h-0.055l-0.185-1.025h-0.923v7.492
		h1.135v-3.931c0-0.971,0.165-1.669,0.496-2.095c0.33-0.426,0.851-0.639,1.562-0.639c0.542,0,0.941,0.149,1.196,0.448
		c0.255,0.299,0.383,0.746,0.383,1.343v4.874H71.962z"/>
	<path fill="#999999" d="M80.124,92.962c-0.132-0.123-0.289-0.185-0.472-0.185c-0.191,0-0.351,0.06-0.479,0.181
		c-0.128,0.121-0.191,0.311-0.191,0.571c0,0.255,0.064,0.446,0.191,0.571c0.128,0.125,0.287,0.188,0.479,0.188
		c0.182,0,0.339-0.063,0.472-0.188c0.132-0.125,0.198-0.316,0.198-0.571S80.256,93.085,80.124,92.962z"/>
	<rect x="79.078" y="95.56" fill="#999999" width="1.135" height="7.492"/>
	<path fill="#999999" d="M88.16,96.469c-0.618-0.697-1.45-1.046-2.499-1.046c-1.085,0-1.932,0.341-2.543,1.022
		c-0.611,0.681-0.916,1.633-0.916,2.854c0,0.789,0.141,1.477,0.424,2.064c0.282,0.588,0.684,1.039,1.203,1.354
		s1.114,0.472,1.784,0.472c1.084,0,1.935-0.343,2.55-1.029c0.615-0.686,0.923-1.639,0.923-2.861
		C89.086,98.109,88.777,97.166,88.16,96.469z M87.333,101.49c-0.385,0.499-0.949,0.749-1.692,0.749s-1.306-0.251-1.688-0.752
		s-0.574-1.23-0.574-2.188c0-0.966,0.189-1.693,0.567-2.181c0.378-0.488,0.939-0.731,1.682-0.731c0.752,0,1.32,0.247,1.706,0.742
		c0.385,0.494,0.578,1.218,0.578,2.17C87.91,100.26,87.718,100.991,87.333,101.49z"/>
	<path fill="#999999" d="M98.759,101.729c-0.392,0.294-0.975,0.441-1.75,0.441c-0.474,0-0.953-0.05-1.436-0.15
		c-0.483-0.1-0.93-0.237-1.34-0.41v1.121c0.638,0.305,1.549,0.458,2.734,0.458c1.094,0,1.959-0.246,2.598-0.738
		c0.638-0.492,0.957-1.178,0.957-2.058c0-0.684-0.197-1.24-0.591-1.668c-0.394-0.428-1.115-0.829-2.164-1.203
		c-0.624-0.223-1.088-0.427-1.391-0.612c-0.303-0.185-0.519-0.387-0.646-0.608c-0.128-0.221-0.191-0.505-0.191-0.851
		c0-0.469,0.173-0.836,0.52-1.101c0.346-0.264,0.827-0.396,1.442-0.396c0.779,0,1.581,0.173,2.406,0.52l0.362-1.012
		c-0.834-0.365-1.748-0.547-2.741-0.547c-0.953,0-1.718,0.228-2.297,0.684c-0.579,0.456-0.868,1.069-0.868,1.839
		c0,0.734,0.199,1.328,0.598,1.784s1.063,0.85,1.993,1.183c0.665,0.237,1.161,0.449,1.487,0.636
		c0.326,0.187,0.558,0.391,0.697,0.612c0.139,0.221,0.208,0.505,0.208,0.851C99.347,101.026,99.151,101.435,98.759,101.729z"/>
	<path fill="#999999" d="M103.53,99.032c0-0.734,0.215-1.347,0.646-1.839s0.949-0.738,1.555-0.738c0.237,0,0.51,0.034,0.82,0.103
		l0.157-1.053c-0.264-0.055-0.563-0.082-0.896-0.082c-0.469,0-0.9,0.132-1.292,0.396c-0.392,0.264-0.727,0.64-1.005,1.128h-0.055
		l-0.13-1.388h-0.937v7.492h1.135V99.032z"/>
	<rect x="108.11" y="92.415" fill="#999999" width="1.135" height="10.637"/>
	<path fill="#999999" d="M4.17,133.052l2.844-7.492H5.797c-0.93,2.552-1.528,4.208-1.794,4.966s-0.425,1.259-0.475,1.5H3.473
		c-0.064-0.31-0.278-0.984-0.643-2.023l-1.613-4.443H0l2.844,7.492H4.17z"/>
	<path fill="#999999" d="M8.791,124.288c0.182,0,0.34-0.063,0.472-0.188c0.132-0.125,0.198-0.316,0.198-0.571
		s-0.066-0.444-0.198-0.567c-0.132-0.123-0.29-0.185-0.472-0.185c-0.191,0-0.351,0.06-0.478,0.181
		c-0.128,0.121-0.191,0.311-0.191,0.571c0,0.255,0.064,0.446,0.191,0.571C8.44,124.225,8.6,124.288,8.791,124.288z"/>
	<rect x="8.217" y="125.56" fill="#999999" width="1.135" height="7.492"/>
	<path fill="#999999" d="M14.574,125.437c-0.442,0-0.883,0.057-1.323,0.171c-0.44,0.114-0.844,0.271-1.213,0.472l0.349,0.868
		c0.788-0.383,1.495-0.574,2.119-0.574c0.556,0,0.96,0.14,1.213,0.42c0.253,0.28,0.379,0.714,0.379,1.302v0.465l-1.271,0.041
		c-2.42,0.073-3.63,0.866-3.63,2.379c0,0.707,0.211,1.251,0.632,1.634c0.422,0.383,1.004,0.574,1.747,0.574
		c0.556,0,1.02-0.083,1.391-0.25c0.371-0.166,0.744-0.484,1.118-0.954h0.055l0.226,1.066h0.841v-5.113
		c0-0.875-0.215-1.511-0.646-1.907C16.129,125.635,15.467,125.437,14.574,125.437z M16.071,130.044c0,0.697-0.202,1.24-0.605,1.627
		c-0.403,0.387-0.958,0.581-1.664,0.581c-0.447,0-0.794-0.107-1.042-0.321c-0.248-0.214-0.373-0.526-0.373-0.937
		c0-0.524,0.199-0.91,0.598-1.159c0.399-0.248,1.049-0.388,1.952-0.42l1.135-0.048V130.044z"/>
	<rect x="23.352" y="123.058" fill="#999999" width="1.162" height="9.994"/>
	<path fill="#999999" d="M33.681,129.299c0-1.226-0.27-2.178-0.81-2.857c-0.54-0.679-1.307-1.019-2.3-1.019
		c-0.501,0-0.946,0.091-1.333,0.273c-0.387,0.182-0.727,0.479-1.018,0.889h-0.055l-0.157-1.025h-0.923v10.855h1.135v-3.083
		c0-0.392-0.027-0.807-0.082-1.244h0.082c0.273,0.374,0.612,0.651,1.015,0.831c0.403,0.18,0.849,0.27,1.336,0.27
		c0.975,0,1.737-0.341,2.287-1.022C33.406,131.485,33.681,130.529,33.681,129.299z M31.955,131.452
		c-0.367,0.524-0.874,0.786-1.521,0.786c-0.775,0-1.338-0.227-1.688-0.68c-0.351-0.453-0.526-1.207-0.526-2.259v-0.253
		c0.009-0.925,0.185-1.6,0.526-2.023s0.896-0.636,1.661-0.636c0.665,0,1.181,0.25,1.548,0.749c0.367,0.499,0.55,1.216,0.55,2.15
		C32.505,130.206,32.321,130.928,31.955,131.452z"/>
	<path fill="#999999" d="M39.149,125.423c-0.501,0-0.946,0.091-1.333,0.273c-0.387,0.182-0.727,0.479-1.018,0.889h-0.055
		l-0.157-1.025h-0.923v10.855h1.135v-3.083c0-0.392-0.027-0.807-0.082-1.244h0.082c0.273,0.374,0.612,0.651,1.015,0.831
		c0.403,0.18,0.849,0.27,1.336,0.27c0.975,0,1.737-0.341,2.287-1.022c0.549-0.681,0.824-1.637,0.824-2.868
		c0-1.226-0.27-2.178-0.81-2.857C40.91,125.762,40.143,125.423,39.149,125.423z M40.534,131.452
		c-0.367,0.524-0.874,0.786-1.521,0.786c-0.775,0-1.338-0.227-1.688-0.68c-0.351-0.453-0.526-1.207-0.526-2.259v-0.253
		c0.009-0.925,0.185-1.6,0.526-2.023s0.896-0.636,1.661-0.636c0.665,0,1.181,0.25,1.548,0.749c0.367,0.499,0.55,1.216,0.55,2.15
		C41.084,130.206,40.901,130.928,40.534,131.452z"/>
	<path fill="#999999" d="M45.452,132.717c0.52,0.314,1.114,0.472,1.784,0.472c1.085,0,1.935-0.343,2.55-1.029
		c0.615-0.686,0.923-1.639,0.923-2.861c0-1.189-0.309-2.133-0.926-2.83c-0.618-0.697-1.45-1.046-2.499-1.046
		c-1.085,0-1.932,0.341-2.543,1.022s-0.916,1.633-0.916,2.854c0,0.789,0.141,1.477,0.424,2.064
		C44.531,131.951,44.933,132.402,45.452,132.717z M45.568,127.118c0.378-0.488,0.939-0.731,1.682-0.731
		c0.752,0,1.32,0.247,1.706,0.742c0.385,0.494,0.578,1.218,0.578,2.17c0,0.962-0.193,1.692-0.578,2.191
		c-0.385,0.499-0.949,0.749-1.692,0.749c-0.743,0-1.306-0.251-1.688-0.752s-0.574-1.23-0.574-2.188
		C45.001,128.333,45.19,127.606,45.568,127.118z"/>
	<path fill="#999999" d="M55.74,126.428c0.228,0,0.49,0.033,0.786,0.099c0.296,0.066,0.57,0.149,0.82,0.25l0.349-0.964
		c-0.205-0.105-0.488-0.196-0.848-0.273c-0.36-0.077-0.72-0.116-1.08-0.116c-1.117,0-1.977,0.342-2.581,1.025
		c-0.604,0.684-0.906,1.652-0.906,2.905c0,1.221,0.297,2.166,0.892,2.833s1.434,1.001,2.519,1.001c0.761,0,1.392-0.13,1.894-0.39
		v-1.005c-0.656,0.269-1.297,0.403-1.921,0.403c-0.729,0-1.28-0.246-1.651-0.738c-0.371-0.492-0.557-1.198-0.557-2.119
		C53.457,127.398,54.218,126.428,55.74,126.428z"/>
	<path fill="#999999" d="M60.484,126.947H60.43l-0.13-1.388h-0.937v7.492h1.135v-4.02c0-0.734,0.215-1.347,0.646-1.839
		s0.949-0.738,1.555-0.738c0.237,0,0.51,0.034,0.82,0.103l0.157-1.053c-0.264-0.055-0.563-0.082-0.896-0.082
		c-0.469,0-0.9,0.132-1.292,0.396C61.097,126.084,60.762,126.46,60.484,126.947z"/>
	<path fill="#999999" d="M70.526,127.938c0-0.875-0.215-1.511-0.646-1.907s-1.093-0.595-1.986-0.595
		c-0.442,0-0.883,0.057-1.323,0.171c-0.44,0.114-0.844,0.271-1.213,0.472l0.349,0.868c0.788-0.383,1.495-0.574,2.119-0.574
		c0.556,0,0.96,0.14,1.213,0.42s0.379,0.714,0.379,1.302v0.465l-1.271,0.041c-2.42,0.073-3.63,0.866-3.63,2.379
		c0,0.707,0.211,1.251,0.632,1.634c0.422,0.383,1.004,0.574,1.747,0.574c0.556,0,1.02-0.083,1.391-0.25
		c0.371-0.166,0.744-0.484,1.118-0.954h0.055l0.226,1.066h0.841V127.938z M69.392,130.044c0,0.697-0.202,1.24-0.605,1.627
		s-0.958,0.581-1.665,0.581c-0.447,0-0.794-0.107-1.042-0.321c-0.249-0.214-0.373-0.526-0.373-0.937c0-0.524,0.199-0.91,0.598-1.159
		c0.399-0.248,1.049-0.388,1.952-0.42l1.135-0.048V130.044z"/>
	<path fill="#999999" d="M75.12,133.188c0.191,0,0.407-0.02,0.646-0.058c0.239-0.039,0.42-0.088,0.543-0.147v-0.868
		c-0.109,0.032-0.258,0.063-0.444,0.092c-0.187,0.03-0.381,0.044-0.581,0.044c-0.374,0-0.668-0.121-0.882-0.362
		c-0.214-0.241-0.321-0.588-0.321-1.039v-4.409h2.174v-0.882h-2.174v-1.736h-0.656l-0.479,1.6l-1.073,0.472v0.547h1.073v4.457
		C72.946,132.425,73.671,133.188,75.12,133.188z"/>
	<path fill="#999999" d="M83.405,131.691c-0.788,0.337-1.586,0.506-2.393,0.506c-0.766,0-1.359-0.228-1.781-0.684
		c-0.422-0.456-0.644-1.123-0.667-2.003h5.161v-0.718c0-1.012-0.273-1.826-0.82-2.444s-1.29-0.926-2.229-0.926
		c-1.003,0-1.801,0.355-2.396,1.066s-0.892,1.67-0.892,2.878c0,1.198,0.32,2.135,0.96,2.81c0.64,0.675,1.514,1.012,2.622,1.012
		c0.506,0,0.938-0.038,1.295-0.113c0.358-0.075,0.737-0.199,1.138-0.373V131.691z M79.225,126.961
		c0.358-0.392,0.837-0.588,1.439-0.588c0.592,0,1.048,0.19,1.367,0.571c0.319,0.381,0.479,0.928,0.479,1.644h-3.917
		C78.656,127.895,78.867,127.353,79.225,126.961z"/>
	<path fill="#999999" d="M89.51,124.835c0.456-0.36,0.869-0.608,1.241-0.745c0.371-0.137,0.764-0.205,1.179-0.205
		c0.574,0,1.023,0.156,1.347,0.468c0.323,0.312,0.485,0.735,0.485,1.268c0,0.378-0.064,0.731-0.191,1.06
		c-0.128,0.328-0.319,0.665-0.574,1.012c-0.255,0.346-0.784,0.925-1.586,1.736l-2.632,2.646v0.978h6.569v-1.053h-5.141v-0.055
		l2.188-2.14c0.975-0.948,1.641-1.732,1.996-2.352s0.533-1.246,0.533-1.88c0-0.811-0.267-1.457-0.8-1.938
		c-0.533-0.481-1.269-0.721-2.208-0.721c-1.085,0-2.087,0.383-3.008,1.148L89.51,124.835z"/>
	<path fill="#999999" d="M102.512,132.447c0.579-0.494,0.868-1.156,0.868-1.986c0-0.561-0.171-1.054-0.513-1.48
		s-0.918-0.833-1.729-1.22c0.67-0.333,1.157-0.702,1.463-1.107c0.305-0.406,0.458-0.854,0.458-1.347c0-0.747-0.267-1.333-0.8-1.757
		s-1.256-0.636-2.167-0.636c-0.898,0-1.615,0.215-2.15,0.646c-0.536,0.431-0.803,1.008-0.803,1.733c0,0.51,0.137,0.972,0.41,1.384
		s0.725,0.796,1.354,1.152c-1.395,0.638-2.092,1.529-2.092,2.673c0,0.857,0.287,1.519,0.861,1.986s1.395,0.701,2.461,0.701
		C101.14,133.188,101.933,132.941,102.512,132.447z M98.656,126.421c-0.269-0.301-0.403-0.661-0.403-1.08
		c0-0.456,0.162-0.82,0.485-1.094c0.323-0.273,0.77-0.41,1.34-0.41c0.579,0,1.033,0.135,1.364,0.407
		c0.33,0.271,0.496,0.637,0.496,1.097c0,0.419-0.136,0.786-0.407,1.101c-0.271,0.314-0.733,0.608-1.384,0.882
		C99.422,127.022,98.925,126.722,98.656,126.421z M98.502,131.808c-0.381-0.305-0.571-0.731-0.571-1.278
		c0-0.492,0.153-0.915,0.458-1.268c0.305-0.353,0.797-0.676,1.477-0.967c0.884,0.323,1.504,0.657,1.859,1.001
		s0.533,0.737,0.533,1.179c0,0.556-0.189,0.993-0.567,1.312c-0.378,0.319-0.907,0.479-1.586,0.479
		C99.417,132.266,98.883,132.113,98.502,131.808z"/>
	<path fill="#999999" d="M3.992,152.9c-1.112,0-1.939,0.422-2.482,1.265c-0.542,0.843-0.813,2.135-0.813,3.876
		c0,1.686,0.28,2.966,0.841,3.838c0.56,0.873,1.378,1.309,2.454,1.309c1.121,0,1.954-0.426,2.498-1.278
		c0.544-0.852,0.817-2.142,0.817-3.869c0-1.668-0.281-2.942-0.844-3.821C5.9,153.34,5.077,152.9,3.992,152.9z M5.636,161.203
		c-0.339,0.672-0.888,1.008-1.644,1.008c-0.747,0-1.292-0.332-1.634-0.995s-0.513-1.721-0.513-3.175c0-1.454,0.171-2.51,0.513-3.168
		s0.886-0.988,1.634-0.988c0.756,0,1.305,0.334,1.644,1.001s0.509,1.719,0.509,3.155S5.976,160.531,5.636,161.203z"/>
	<path fill="#999999" d="M11.614,159.285c0.52,0,0.987-0.099,1.401-0.297c0.415-0.198,0.747-0.487,0.998-0.865h0.082
		c-0.05,1.399-0.354,2.437-0.913,3.114c-0.558,0.677-1.384,1.015-2.478,1.015c-0.465,0-0.88-0.059-1.244-0.178v0.978
		c0.31,0.091,0.729,0.137,1.258,0.137c3.026,0,4.539-1.955,4.539-5.865c0-0.907-0.137-1.694-0.41-2.362
		c-0.273-0.668-0.664-1.176-1.172-1.524c-0.508-0.349-1.102-0.523-1.781-0.523c-0.948,0-1.712,0.301-2.293,0.902
		c-0.581,0.602-0.872,1.422-0.872,2.461c0,0.948,0.26,1.686,0.779,2.215C10.028,159.021,10.73,159.285,11.614,159.285z
		 M10.384,154.514c0.355-0.419,0.859-0.629,1.511-0.629c0.433,0,0.817,0.116,1.152,0.349c0.335,0.232,0.596,0.552,0.783,0.957
		c0.187,0.406,0.28,0.848,0.28,1.326c0,0.319-0.1,0.625-0.301,0.916c-0.201,0.292-0.475,0.522-0.824,0.69
		c-0.349,0.169-0.73,0.253-1.145,0.253c-0.67,0-1.169-0.188-1.497-0.564c-0.328-0.376-0.492-0.892-0.492-1.548
		C9.851,155.516,10.028,154.933,10.384,154.514z"/>
	<path fill="#999999" d="M19.523,154.548c0.118-0.105,0.226-0.205,0.321-0.301c-0.036,0.529-0.055,1.089-0.055,1.682v7.123h1.108
		v-9.994H19.94l-2.646,2.044l0.602,0.779C18.863,155.097,19.405,154.653,19.523,154.548z"/>
	<path fill="#999999" d="M28.916,157.692c-0.255,0.346-0.784,0.925-1.586,1.736l-2.632,2.646v0.978h6.569v-1.053h-5.141v-0.055
		l2.188-2.14c0.975-0.948,1.641-1.732,1.996-2.352c0.356-0.62,0.533-1.246,0.533-1.88c0-0.811-0.267-1.457-0.8-1.938
		c-0.533-0.481-1.269-0.721-2.208-0.721c-1.085,0-2.087,0.383-3.008,1.148l0.602,0.772c0.456-0.36,0.869-0.608,1.241-0.745
		c0.371-0.137,0.764-0.205,1.179-0.205c0.574,0,1.023,0.156,1.347,0.468c0.323,0.312,0.485,0.735,0.485,1.268
		c0,0.378-0.064,0.731-0.191,1.06C29.363,157.009,29.171,157.346,28.916,157.692z"/>
	<path fill="#999999" d="M35.854,154.247c-0.036,0.529-0.055,1.089-0.055,1.682v7.123h1.107v-9.994H35.95l-2.646,2.044l0.602,0.779
		c0.966-0.784,1.508-1.228,1.627-1.333C35.652,154.443,35.759,154.343,35.854,154.247z"/>
	<path fill="#999999" d="M49.123,163.188c1.016,0,1.871-0.13,2.563-0.39v-1.019c-0.893,0.251-1.688,0.376-2.386,0.376
		c-1.135,0-2.009-0.356-2.622-1.07c-0.613-0.713-0.919-1.724-0.919-3.032c0-1.271,0.318-2.273,0.954-3.004s1.503-1.097,2.601-1.097
		c0.756,0,1.513,0.178,2.27,0.533l0.492-0.998c-0.784-0.383-1.7-0.574-2.748-0.574c-0.984,0-1.84,0.21-2.567,0.629
		c-0.727,0.419-1.283,1.016-1.668,1.791c-0.385,0.775-0.578,1.677-0.578,2.707c0,1.645,0.4,2.914,1.2,3.808
		S47.651,163.188,49.123,163.188z"/>
	<path fill="#999999" d="M56.906,162.939c0.371-0.166,0.744-0.484,1.118-0.954h0.055l0.226,1.066h0.841v-5.113
		c0-0.875-0.215-1.511-0.646-1.907s-1.093-0.595-1.986-0.595c-0.442,0-0.883,0.057-1.323,0.171c-0.44,0.114-0.844,0.271-1.213,0.472
		l0.349,0.868c0.788-0.383,1.495-0.574,2.119-0.574c0.556,0,0.96,0.14,1.213,0.42s0.379,0.714,0.379,1.302v0.465l-1.271,0.041
		c-2.42,0.073-3.63,0.866-3.63,2.379c0,0.707,0.211,1.251,0.632,1.634c0.421,0.383,1.004,0.574,1.747,0.574
		C56.071,163.188,56.534,163.105,56.906,162.939z M54.325,160.994c0-0.524,0.199-0.91,0.598-1.159
		c0.399-0.248,1.049-0.388,1.952-0.42l1.135-0.048v0.677c0,0.697-0.202,1.24-0.605,1.627s-0.958,0.581-1.665,0.581
		c-0.447,0-0.794-0.107-1.042-0.321C54.449,161.717,54.325,161.404,54.325,160.994z"/>
	<path fill="#999999" d="M67.519,163.865c0-0.652-0.218-1.148-0.653-1.49c-0.435-0.342-1.059-0.513-1.87-0.513H63.67
		c-0.41,0-0.7-0.049-0.868-0.147c-0.169-0.098-0.253-0.25-0.253-0.455c0-0.387,0.241-0.709,0.725-0.964
		c0.196,0.036,0.406,0.055,0.629,0.055c0.875,0,1.563-0.219,2.064-0.656c0.501-0.438,0.752-1.023,0.752-1.757
		c0-0.323-0.05-0.614-0.15-0.872c-0.1-0.258-0.214-0.466-0.342-0.625l1.388-0.164v-0.718h-2.591
		c-0.314-0.091-0.668-0.137-1.06-0.137c-0.902,0-1.6,0.222-2.092,0.667s-0.738,1.077-0.738,1.897c0,0.492,0.122,0.93,0.366,1.312
		c0.244,0.383,0.559,0.654,0.947,0.813c-0.314,0.191-0.545,0.39-0.69,0.595c-0.146,0.205-0.219,0.444-0.219,0.718
		c0,0.242,0.065,0.453,0.195,0.636s0.291,0.317,0.482,0.403c-0.529,0.118-0.939,0.344-1.23,0.677
		c-0.292,0.333-0.438,0.727-0.438,1.183c0,0.665,0.265,1.18,0.796,1.545c0.531,0.365,1.286,0.547,2.266,0.547
		c1.276,0,2.247-0.218,2.912-0.653C67.186,165.327,67.519,164.695,67.519,163.865z M62.255,157.959c0-0.565,0.144-0.991,0.431-1.278
		s0.697-0.431,1.23-0.431c1.121,0,1.682,0.563,1.682,1.688c0,1.075-0.554,1.613-1.661,1.613c-0.529,0-0.941-0.135-1.237-0.403
		C62.403,158.88,62.255,158.483,62.255,157.959z M65.738,165.12c-0.458,0.285-1.163,0.427-2.116,0.427
		c-0.638,0-1.128-0.105-1.47-0.314c-0.342-0.21-0.513-0.517-0.513-0.923c0-0.46,0.144-0.813,0.431-1.06s0.688-0.369,1.203-0.369
		h1.36c0.693,0,1.164,0.079,1.415,0.236c0.25,0.157,0.376,0.438,0.376,0.844C66.425,164.448,66.196,164.835,65.738,165.12z"/>
	<rect x="69.152" y="152.415" fill="#999999" width="1.135" height="10.637"/>
	<rect x="72.693" y="155.56" fill="#999999" width="1.135" height="7.492"/>
	<path fill="#999999" d="M73.268,152.777c-0.191,0-0.351,0.06-0.479,0.181c-0.128,0.121-0.191,0.311-0.191,0.571
		c0,0.255,0.064,0.446,0.191,0.571c0.128,0.125,0.287,0.188,0.479,0.188c0.182,0,0.339-0.063,0.472-0.188
		c0.132-0.125,0.198-0.316,0.198-0.571s-0.066-0.444-0.198-0.567C73.607,152.839,73.45,152.777,73.268,152.777z"/>
	<path fill="#999999" d="M78.053,163.188c0.556,0,1.02-0.083,1.391-0.25c0.371-0.166,0.744-0.484,1.118-0.954h0.055l0.226,1.066
		h0.841v-5.113c0-0.875-0.215-1.511-0.646-1.907s-1.093-0.595-1.986-0.595c-0.442,0-0.883,0.057-1.323,0.171
		c-0.44,0.114-0.844,0.271-1.213,0.472l0.349,0.868c0.788-0.383,1.495-0.574,2.119-0.574c0.556,0,0.96,0.14,1.213,0.42
		s0.379,0.714,0.379,1.302v0.465l-1.271,0.041c-2.42,0.073-3.63,0.866-3.63,2.379c0,0.707,0.211,1.251,0.632,1.634
		C76.728,162.997,77.31,163.188,78.053,163.188z M77.461,159.835c0.399-0.248,1.049-0.388,1.952-0.42l1.135-0.048v0.677
		c0,0.697-0.202,1.24-0.605,1.627s-0.958,0.581-1.665,0.581c-0.447,0-0.794-0.107-1.042-0.321c-0.248-0.214-0.373-0.526-0.373-0.937
		C76.863,160.47,77.063,160.084,77.461,159.835z"/>
	<path fill="#999999" d="M86.146,155.819c-0.392,0.264-0.727,0.64-1.005,1.128h-0.055l-0.13-1.388h-0.937v7.492h1.135v-4.02
		c0-0.734,0.215-1.347,0.646-1.839s0.949-0.738,1.555-0.738c0.237,0,0.51,0.034,0.82,0.103l0.157-1.053
		c-0.264-0.055-0.563-0.082-0.896-0.082C86.969,155.423,86.538,155.555,86.146,155.819z"/>
	<path fill="#999999" d="M90.31,154.288c0.182,0,0.339-0.063,0.472-0.188c0.132-0.125,0.198-0.316,0.198-0.571
		s-0.066-0.444-0.198-0.567c-0.132-0.123-0.289-0.185-0.472-0.185c-0.191,0-0.351,0.06-0.479,0.181
		c-0.128,0.121-0.191,0.311-0.191,0.571c0,0.255,0.064,0.446,0.191,0.571C89.959,154.225,90.118,154.288,90.31,154.288z"/>
	<rect x="89.735" y="155.56" fill="#999999" width="1.135" height="7.492"/>
	<path fill="#999999" d="M99.436,153.058h-1.107c-0.665,0.793-1.175,1.716-1.528,2.769c-0.353,1.053-0.53,2.183-0.53,3.391
		c0,1.189,0.175,2.302,0.526,3.336s0.861,1.939,1.531,2.714h1.094c-0.634-0.861-1.119-1.814-1.456-2.857
		c-0.337-1.044-0.506-2.112-0.506-3.206c0-1.112,0.165-2.194,0.496-3.247C98.286,154.903,98.779,153.937,99.436,153.058z"/>
	<path fill="#999999" d="M105.506,153.953c0.756,0,1.513,0.178,2.27,0.533l0.492-0.998c-0.784-0.383-1.7-0.574-2.748-0.574
		c-0.984,0-1.84,0.21-2.567,0.629c-0.727,0.419-1.283,1.016-1.668,1.791c-0.385,0.775-0.578,1.677-0.578,2.707
		c0,1.645,0.4,2.914,1.2,3.808s1.936,1.34,3.408,1.34c1.016,0,1.871-0.13,2.563-0.39v-1.019c-0.893,0.251-1.688,0.376-2.386,0.376
		c-1.135,0-2.009-0.356-2.622-1.07c-0.613-0.713-0.919-1.724-0.919-3.032c0-1.271,0.318-2.273,0.954-3.004
		S104.407,153.953,105.506,153.953z"/>
	<path fill="#999999" d="M116.341,163.052h1.203l-3.931-10.035h-0.978l-3.951,10.035h1.176l1.23-3.179h4.006L116.341,163.052z
		 M111.501,158.827l1.176-3.097c0.187-0.524,0.33-1.005,0.431-1.442c0.159,0.57,0.314,1.051,0.465,1.442l1.162,3.097H111.501z"/>
	<path fill="#999999" d="M119.068,153.058h-1.107c0.656,0.88,1.149,1.846,1.48,2.898c0.33,1.053,0.496,2.135,0.496,3.247
		c0,1.094-0.169,2.164-0.506,3.209c-0.337,1.046-0.823,1.997-1.456,2.854h1.094c0.665-0.766,1.175-1.666,1.528-2.7
		c0.353-1.034,0.53-2.151,0.53-3.35s-0.176-2.325-0.526-3.38C120.249,154.781,119.738,153.855,119.068,153.058z"/>
	<rect x="125.897" y="158.779" fill="#999999" width="3.356" height="1.039"/>
	<rect x="134.839" y="153.058" fill="#999999" width="1.162" height="9.994"/>
	<path fill="#999999" d="M138.653,160.898c0,1.527,0.725,2.29,2.174,2.29c0.191,0,0.407-0.02,0.646-0.058
		c0.239-0.039,0.42-0.088,0.543-0.147v-0.868c-0.109,0.032-0.258,0.063-0.444,0.092c-0.187,0.03-0.381,0.044-0.581,0.044
		c-0.374,0-0.668-0.121-0.882-0.362c-0.214-0.241-0.321-0.588-0.321-1.039v-4.409h2.174v-0.882h-2.174v-1.736h-0.656l-0.479,1.6
		l-1.073,0.472v0.547h1.073V160.898z"/>
	<path fill="#999999" d="M148.962,157.938c0-0.875-0.215-1.511-0.646-1.907s-1.093-0.595-1.986-0.595
		c-0.442,0-0.883,0.057-1.323,0.171c-0.44,0.114-0.844,0.271-1.213,0.472l0.349,0.868c0.788-0.383,1.495-0.574,2.119-0.574
		c0.556,0,0.96,0.14,1.213,0.42s0.379,0.714,0.379,1.302v0.465l-1.271,0.041c-2.42,0.073-3.63,0.866-3.63,2.379
		c0,0.707,0.211,1.251,0.632,1.634c0.421,0.383,1.004,0.574,1.747,0.574c0.556,0,1.02-0.083,1.391-0.25
		c0.371-0.166,0.744-0.484,1.118-0.954h0.055l0.226,1.066h0.841V157.938z M147.827,160.044c0,0.697-0.202,1.24-0.605,1.627
		s-0.958,0.581-1.665,0.581c-0.447,0-0.794-0.107-1.042-0.321c-0.248-0.214-0.373-0.526-0.373-0.937c0-0.524,0.199-0.91,0.598-1.159
		s1.049-0.388,1.952-0.42l1.135-0.048V160.044z"/>
	<rect x="151.3" y="152.415" fill="#999999" width="1.135" height="10.637"/>
	<path fill="#999999" d="M159.462,155.56c-1.048,2.898-1.667,4.629-1.856,5.192c-0.189,0.563-0.313,0.96-0.373,1.193h-0.055
		c-0.087-0.433-0.31-1.137-0.67-2.112l-1.641-4.272h-1.217l3.021,7.533l-0.417,1.066c-0.333,0.875-0.889,1.312-1.668,1.312
		c-0.31,0-0.59-0.027-0.841-0.082v0.909c0.337,0.077,0.679,0.116,1.025,0.116c0.62,0,1.143-0.177,1.569-0.53
		c0.426-0.353,0.799-0.951,1.118-1.794l3.22-8.531H159.462z"/>
	<path fill="#010202" d="M4.717,197.282c-0.707-0.337-1.154-0.571-1.343-0.701s-0.327-0.264-0.414-0.403
		c-0.087-0.139-0.13-0.302-0.13-0.489c0-0.301,0.107-0.545,0.321-0.731c0.214-0.187,0.522-0.28,0.923-0.28
		c0.337,0,0.68,0.043,1.029,0.13c0.349,0.087,0.79,0.239,1.323,0.458l0.684-1.647c-0.515-0.223-1.008-0.396-1.48-0.52
		c-0.472-0.123-0.967-0.185-1.487-0.185c-1.057,0-1.886,0.253-2.485,0.759c-0.599,0.506-0.899,1.201-0.899,2.085
		c0,0.469,0.091,0.88,0.273,1.23c0.182,0.351,0.426,0.658,0.732,0.923c0.305,0.264,0.763,0.54,1.374,0.827
		c0.652,0.31,1.083,0.535,1.295,0.677c0.212,0.141,0.373,0.288,0.482,0.441c0.109,0.153,0.164,0.327,0.164,0.523
		c0,0.351-0.124,0.615-0.373,0.793s-0.605,0.267-1.07,0.267c-0.387,0-0.815-0.062-1.282-0.185c-0.467-0.123-1.038-0.335-1.712-0.636
		v1.969c0.82,0.401,1.764,0.602,2.83,0.602c1.158,0,2.061-0.26,2.71-0.779c0.649-0.52,0.974-1.23,0.974-2.133
		c0-0.652-0.173-1.202-0.519-1.651C6.291,198.177,5.651,197.729,4.717,197.282z"/>
	<path fill="#010202" d="M13.118,195.266c-1.012,0-1.75,0.374-2.215,1.121h-0.109l0.048-0.615c0.032-0.624,0.048-1.021,0.048-1.189
		v-2.167H8.805v10.637h2.085v-3.596c0-0.889,0.13-1.531,0.39-1.928c0.26-0.396,0.681-0.595,1.265-0.595
		c0.82,0,1.23,0.552,1.23,1.654v4.464h2.085v-4.983c0-0.902-0.232-1.595-0.697-2.078C14.697,195.507,14.016,195.266,13.118,195.266z
		"/>
	<path fill="#010202" d="M23.208,195.744c-0.56-0.319-1.208-0.479-1.941-0.479c-1.18,0-2.096,0.346-2.748,1.039
		c-0.652,0.693-0.978,1.663-0.978,2.912c0,0.802,0.15,1.504,0.451,2.105c0.301,0.602,0.731,1.063,1.292,1.384
		c0.56,0.321,1.208,0.482,1.941,0.482c1.171,0,2.085-0.351,2.741-1.053c0.656-0.702,0.984-1.675,0.984-2.919
		c0-0.802-0.15-1.502-0.451-2.099S23.769,196.063,23.208,195.744z M22.453,200.936c-0.244,0.385-0.644,0.578-1.2,0.578
		c-0.561,0-0.965-0.194-1.213-0.581c-0.249-0.387-0.373-0.959-0.373-1.716c0-0.761,0.123-1.33,0.369-1.706
		c0.246-0.376,0.647-0.564,1.203-0.564c0.56,0,0.964,0.189,1.21,0.567s0.369,0.946,0.369,1.702
		C22.818,199.978,22.696,200.551,22.453,200.936z"/>
	<path fill="#010202" d="M31.602,199.005c0,0.902-0.13,1.548-0.39,1.938c-0.26,0.39-0.681,0.584-1.265,0.584
		c-0.428,0-0.741-0.138-0.936-0.414c-0.196-0.276-0.294-0.689-0.294-1.241v-4.464h-2.085v4.983c0,0.902,0.228,1.594,0.684,2.075
		c0.456,0.481,1.132,0.721,2.03,0.721c0.524,0,0.991-0.097,1.401-0.291c0.41-0.194,0.727-0.468,0.95-0.824h0.109l0.28,0.978h1.6
		v-7.643h-2.085V199.005z"/>
	<path fill="#010202" d="M38.435,201.315c-0.167-0.141-0.25-0.36-0.25-0.656v-3.685h2.14v-1.565h-2.14v-1.627h-1.333l-0.602,1.613
		l-1.148,0.697v0.882h0.998v3.685c0,0.843,0.19,1.475,0.571,1.897c0.38,0.422,0.988,0.632,1.822,0.632
		c0.756,0,1.394-0.116,1.914-0.349v-1.552c-0.51,0.159-0.948,0.239-1.312,0.239C38.821,201.527,38.601,201.457,38.435,201.315z"/>
	<path fill="#010202" d="M50.791,195.744c-0.561-0.319-1.208-0.479-1.941-0.479c-1.18,0-2.096,0.346-2.748,1.039
		c-0.652,0.693-0.978,1.663-0.978,2.912c0,0.802,0.15,1.504,0.451,2.105s0.731,1.063,1.292,1.384s1.208,0.482,1.941,0.482
		c1.171,0,2.085-0.351,2.741-1.053s0.984-1.675,0.984-2.919c0-0.802-0.15-1.502-0.451-2.099S51.352,196.063,50.791,195.744z
		 M50.036,200.936c-0.244,0.385-0.644,0.578-1.2,0.578c-0.561,0-0.965-0.194-1.213-0.581c-0.249-0.387-0.373-0.959-0.373-1.716
		c0-0.761,0.123-1.33,0.369-1.706s0.647-0.564,1.203-0.564c0.561,0,0.964,0.189,1.21,0.567s0.369,0.946,0.369,1.702
		C50.401,199.978,50.279,200.551,50.036,200.936z"/>
	<path fill="#010202" d="M58.598,195.266c-0.52,0-0.983,0.094-1.391,0.284c-0.408,0.189-0.728,0.468-0.96,0.837H56.13l-0.28-0.978
		h-1.593v7.643h2.085v-3.596c0-0.902,0.13-1.548,0.39-1.938s0.681-0.584,1.265-0.584c0.428,0,0.74,0.138,0.937,0.414
		c0.196,0.276,0.294,0.689,0.294,1.241v4.464h2.085v-4.983c0-0.907-0.23-1.601-0.69-2.082
		C60.161,195.506,59.486,195.266,58.598,195.266z"/>
	<path fill="#010202" d="M70.718,197.282c-0.707-0.337-1.154-0.571-1.343-0.701c-0.189-0.13-0.327-0.264-0.414-0.403
		c-0.087-0.139-0.13-0.302-0.13-0.489c0-0.301,0.107-0.545,0.321-0.731c0.214-0.187,0.522-0.28,0.923-0.28
		c0.337,0,0.68,0.043,1.029,0.13s0.79,0.239,1.323,0.458l0.684-1.647c-0.515-0.223-1.008-0.396-1.48-0.52s-0.967-0.185-1.487-0.185
		c-1.057,0-1.886,0.253-2.485,0.759c-0.599,0.506-0.899,1.201-0.899,2.085c0,0.469,0.091,0.88,0.273,1.23
		c0.182,0.351,0.426,0.658,0.731,0.923c0.305,0.264,0.763,0.54,1.374,0.827c0.652,0.31,1.083,0.535,1.295,0.677
		s0.373,0.288,0.482,0.441s0.164,0.327,0.164,0.523c0,0.351-0.124,0.615-0.373,0.793c-0.248,0.178-0.605,0.267-1.07,0.267
		c-0.387,0-0.815-0.062-1.282-0.185c-0.467-0.123-1.038-0.335-1.712-0.636v1.969c0.82,0.401,1.764,0.602,2.83,0.602
		c1.157,0,2.061-0.26,2.71-0.779s0.974-1.23,0.974-2.133c0-0.652-0.173-1.202-0.52-1.651
		C72.292,198.177,71.652,197.729,70.718,197.282z"/>
	<path fill="#010202" d="M80.008,195.744c-0.561-0.319-1.208-0.479-1.941-0.479c-1.18,0-2.096,0.346-2.748,1.039
		c-0.652,0.693-0.978,1.663-0.978,2.912c0,0.802,0.15,1.504,0.451,2.105s0.731,1.063,1.292,1.384s1.208,0.482,1.941,0.482
		c1.171,0,2.085-0.351,2.741-1.053s0.984-1.675,0.984-2.919c0-0.802-0.15-1.502-0.451-2.099S80.568,196.063,80.008,195.744z
		 M79.252,200.936c-0.244,0.385-0.644,0.578-1.2,0.578c-0.561,0-0.965-0.194-1.213-0.581c-0.249-0.387-0.373-0.959-0.373-1.716
		c0-0.761,0.123-1.33,0.369-1.706s0.647-0.564,1.203-0.564c0.561,0,0.964,0.189,1.21,0.567s0.369,0.946,0.369,1.702
		C79.618,199.978,79.496,200.551,79.252,200.936z"/>
	<path fill="#010202" d="M86.762,196.947c0.282,0,0.565,0.042,0.848,0.126c0.282,0.084,0.588,0.193,0.916,0.325l0.615-1.613
		c-0.702-0.346-1.495-0.52-2.379-0.52c-1.208,0-2.135,0.343-2.782,1.029c-0.647,0.686-0.971,1.678-0.971,2.977
		c0,2.611,1.189,3.917,3.568,3.917c0.524,0,0.958-0.041,1.302-0.123c0.344-0.082,0.685-0.23,1.022-0.444v-1.784
		c-0.342,0.228-0.684,0.395-1.025,0.502s-0.713,0.161-1.114,0.161c-1.085,0-1.627-0.747-1.627-2.242
		C85.135,197.718,85.677,196.947,86.762,196.947z"/>
	<path fill="#010202" d="M91.718,192.415c-0.757,0-1.135,0.34-1.135,1.019c0,0.684,0.378,1.025,1.135,1.025
		c0.378,0,0.662-0.09,0.851-0.27c0.189-0.18,0.284-0.432,0.284-0.755C92.853,192.755,92.474,192.415,91.718,192.415z"/>
	<rect x="90.672" y="195.409" fill="#010202" width="2.085" height="7.643"/>
	<path fill="#010202" d="M98.075,195.252c-1.071,0-2.046,0.23-2.926,0.69l0.69,1.408c0.825-0.369,1.542-0.554,2.153-0.554
		c0.793,0,1.189,0.387,1.189,1.162v0.335l-1.326,0.041c-1.144,0.041-2,0.254-2.567,0.639s-0.851,0.983-0.851,1.794
		c0,0.775,0.211,1.372,0.632,1.791c0.422,0.419,0.999,0.629,1.733,0.629c0.597,0,1.081-0.085,1.453-0.256
		c0.371-0.171,0.733-0.477,1.083-0.919h0.055l0.403,1.039h1.456v-5.093c0-0.911-0.273-1.591-0.82-2.037
		S99.101,195.252,98.075,195.252z M99.183,200.14c0,0.46-0.145,0.829-0.434,1.107c-0.289,0.278-0.676,0.417-1.159,0.417
		c-0.675,0-1.012-0.294-1.012-0.882c0-0.41,0.148-0.716,0.444-0.916c0.296-0.2,0.747-0.31,1.354-0.328l0.807-0.027V200.14z"/>
	<rect x="103.4" y="192.415" fill="#010202" width="2.085" height="10.637"/>
	<path fill="#010202" d="M118.433,197.788c0,0.538,0.034,1.456,0.103,2.755h-0.048l-4.341-7.485h-2.673v9.994h1.894v-4.703
		c0-0.57-0.043-1.522-0.13-2.857h0.062l4.348,7.561h2.693v-9.994h-1.907V197.788z"/>
	<path fill="#010202" d="M125.843,195.266c-1.13,0-2.016,0.35-2.656,1.049c-0.64,0.699-0.96,1.69-0.96,2.97
		c0,1.244,0.346,2.206,1.039,2.885c0.693,0.679,1.654,1.019,2.885,1.019c0.597,0,1.103-0.044,1.518-0.133
		c0.415-0.089,0.804-0.224,1.169-0.407v-1.613c-0.447,0.21-0.875,0.362-1.285,0.458s-0.845,0.144-1.306,0.144
		c-0.593,0-1.053-0.166-1.381-0.499s-0.504-0.795-0.526-1.388h4.929v-1.012c0-1.084-0.301-1.935-0.902-2.55
		S126.923,195.266,125.843,195.266z M124.387,198.362c0.036-0.515,0.18-0.913,0.431-1.193c0.251-0.28,0.597-0.42,1.039-0.42
		c0.442,0,0.793,0.14,1.053,0.42s0.394,0.678,0.403,1.193H124.387z"/>
	<path fill="#010202" d="M133.523,201.315c-0.167-0.141-0.25-0.36-0.25-0.656v-3.685h2.14v-1.565h-2.14v-1.627h-1.333l-0.602,1.613
		l-1.148,0.697v0.882h0.998v3.685c0,0.843,0.19,1.475,0.571,1.897c0.38,0.422,0.988,0.632,1.822,0.632
		c0.756,0,1.395-0.116,1.914-0.349v-1.552c-0.51,0.159-0.948,0.239-1.312,0.239C133.909,201.527,133.689,201.457,133.523,201.315z"
		/>
	<path fill="#010202" d="M144.833,198.793c-0.046,0.2-0.121,0.587-0.226,1.159c-0.105,0.572-0.178,1.022-0.219,1.35h-0.041
		c-0.005-0.127-0.022-0.297-0.051-0.509c-0.03-0.212-0.063-0.428-0.099-0.649c-0.037-0.221-0.074-0.429-0.113-0.625
		c-0.039-0.196-0.067-0.344-0.085-0.444l-0.896-3.664h-2.297l-0.943,3.664l-0.109,0.581c-0.141,0.752-0.221,1.301-0.239,1.647
		h-0.041c-0.146-1.066-0.289-1.903-0.431-2.509l-0.882-3.384h-2.078l2.174,7.643h2.242l1.395-6.05h0.048l0.793,3.377l0.588,2.673
		h2.27l2.201-7.643h-2.044L144.833,198.793z"/>
	<path fill="#010202" d="M154.226,195.744c-0.561-0.319-1.208-0.479-1.941-0.479c-1.18,0-2.096,0.346-2.748,1.039
		c-0.652,0.693-0.978,1.663-0.978,2.912c0,0.802,0.15,1.504,0.451,2.105s0.731,1.063,1.292,1.384s1.208,0.482,1.941,0.482
		c1.171,0,2.085-0.351,2.741-1.053s0.984-1.675,0.984-2.919c0-0.802-0.15-1.502-0.451-2.099S154.786,196.063,154.226,195.744z
		 M153.47,200.936c-0.244,0.385-0.644,0.578-1.2,0.578c-0.561,0-0.965-0.194-1.213-0.581c-0.248-0.387-0.373-0.959-0.373-1.716
		c0-0.761,0.123-1.33,0.369-1.706s0.647-0.564,1.203-0.564c0.561,0,0.964,0.189,1.21,0.567s0.369,0.946,0.369,1.702
		C153.836,199.978,153.714,200.551,153.47,200.936z"/>
	<path fill="#010202" d="M160.641,195.659c-0.403,0.262-0.724,0.607-0.96,1.036h-0.103l-0.308-1.285h-1.579v7.643h2.085v-3.89
		c0-0.615,0.186-1.094,0.557-1.436c0.371-0.342,0.89-0.513,1.555-0.513c0.241,0,0.447,0.023,0.615,0.068l0.157-1.955
		c-0.187-0.041-0.422-0.062-0.704-0.062C161.483,195.266,161.044,195.397,160.641,195.659z"/>
	<polygon fill="#010202" points="171.452,195.409 169.101,195.409 166.961,197.733 166.052,198.896 166.024,198.896 
		166.134,197.159 166.134,192.415 164.049,192.415 164.049,203.052 166.134,203.052 166.134,200.673 167.029,199.955 
		169.23,203.052 171.637,203.052 168.417,198.725 	"/>
	<path fill="#010202" d="M177.864,199.805c-0.132-0.273-0.337-0.515-0.615-0.725c-0.278-0.209-0.716-0.435-1.312-0.677
		c-0.67-0.269-1.104-0.472-1.302-0.608s-0.297-0.299-0.297-0.485c0-0.333,0.308-0.499,0.923-0.499c0.346,0,0.686,0.052,1.019,0.157
		c0.333,0.105,0.69,0.239,1.073,0.403l0.629-1.504c-0.87-0.401-1.766-0.602-2.687-0.602c-0.966,0-1.712,0.186-2.239,0.557
		s-0.79,0.897-0.79,1.576c0,0.396,0.062,0.73,0.188,1.001c0.125,0.271,0.326,0.511,0.602,0.721c0.276,0.21,0.708,0.438,1.295,0.684
		c0.41,0.173,0.738,0.325,0.984,0.455s0.419,0.246,0.52,0.349c0.1,0.103,0.15,0.236,0.15,0.4c0,0.438-0.378,0.656-1.135,0.656
		c-0.369,0-0.796-0.062-1.282-0.185s-0.922-0.276-1.309-0.458v1.723c0.342,0.146,0.709,0.256,1.101,0.332
		c0.392,0.075,0.866,0.113,1.422,0.113c1.084,0,1.899-0.205,2.444-0.615c0.544-0.41,0.817-1.007,0.817-1.791
		C178.062,200.404,177.996,200.078,177.864,199.805z"/>
</g>
</svg>
