<?xml version="1.0" encoding="utf-8"?>
<!-- Generator: Adobe Illustrator 17.0.0, SVG Export Plug-In . SVG Version: 6.00 Build 0)  -->
<!DOCTYPE svg PUBLIC "-//W3C//DTD SVG 1.1//EN" "http://www.w3.org/Graphics/SVG/1.1/DTD/svg11.dtd">
<svg version="1.1" id="Livello_1" xmlns="http://www.w3.org/2000/svg" xmlns:xlink="http://www.w3.org/1999/xlink" x="0px" y="0px"
	 width="34px" height="34px" viewBox="0 0 34 34" enable-background="new 0 0 34 34" xml:space="preserve">
<path fill="#FFF000" d="M32.5,0H13l21,21V1.5C34,0.672,33.328,0,32.5,0z"/>
<path fill="#0050A0" d="M27.035,2.986C26.591,3.4,26.37,3.974,26.37,4.708v1.5h-1.102v1.008h1.102v1.078
	c0,0.438-0.092,0.785-0.275,1.043c-0.184,0.258-0.467,0.445-0.85,0.562v1.142h6.082V9.829h-4.43
	c0.312-0.176,0.533-0.389,0.662-0.639c0.129-0.25,0.193-0.553,0.193-0.908V7.216h2.326V6.208h-2.326v-1.43
	c0-0.855,0.4-1.283,1.201-1.283c0.476,0,1.031,0.139,1.664,0.416l0.445-1.066c-0.707-0.32-1.439-0.48-2.197-0.48
	C28.088,2.365,27.478,2.572,27.035,2.986z"/>
</svg>
