<?xml version="1.0" encoding="utf-8"?>
<!-- Generator: Adobe Illustrator 17.0.0, SVG Export Plug-In . SVG Version: 6.00 Build 0)  -->
<!DOCTYPE svg PUBLIC "-//W3C//DTD SVG 1.1//EN" "http://www.w3.org/Graphics/SVG/1.1/DTD/svg11.dtd">
<svg version="1.1" id="Livello_1" xmlns="http://www.w3.org/2000/svg" xmlns:xlink="http://www.w3.org/1999/xlink" x="0px" y="0px"
	 width="48px" height="48px" viewBox="-24 0 48 48" enable-background="new -24 0 48 48" xml:space="preserve">
<path fill="#FFF000" d="M22.5,0H-24l48,48V1.5C24,0.672,23.328,0,22.5,0z"/>
<path fill="#0050A0" d="M18.654,22.084H6.49V19.8c0.766-0.234,1.332-0.61,1.7-1.124c0.368-0.516,0.55-1.21,0.55-2.086v-2.158H6.536
	v-2.016H8.74v-3c0-1.468,0.444-2.618,1.33-3.446s2.108-1.242,3.662-1.242c1.516,0,2.98,0.32,4.394,0.96l-0.89,2.132
	c-1.266-0.554-2.376-0.832-3.328-0.832c-1.602,0-2.402,0.856-2.402,2.566v2.86h4.652v2.016h-4.652v2.132
	c0,0.712-0.13,1.316-0.386,1.816c-0.258,0.5-0.7,0.926-1.324,1.278h8.86v2.428H18.654z"/>
</svg>
