<?xml version="1.0" encoding="utf-8"?>
<!-- Generator: Adobe Illustrator 17.0.0, SVG Export Plug-In . SVG Version: 6.00 Build 0)  -->
<!DOCTYPE svg PUBLIC "-//W3C//DTD SVG 1.1//EN" "http://www.w3.org/Graphics/SVG/1.1/DTD/svg11.dtd">
<svg version="1.1" id="Livello_1" xmlns="http://www.w3.org/2000/svg" xmlns:xlink="http://www.w3.org/1999/xlink" x="0px" y="0px"
	 width="30px" height="21px" viewBox="0 0 30 21" enable-background="new 0 0 30 21" xml:space="preserve">
<g>
	<path fill-rule="evenodd" clip-rule="evenodd" fill="#FFFFFF" d="M28.828,3.439C28.642,3.165,28.332,3,28,3H6.841L5.934,0.641
		C5.785,0.255,5.414,0,5,0H1C0.448,0,0,0.448,0,1s0.448,1,1,1h3.313l4.753,12.359C9.215,14.745,9.586,15,10,15h14
		c0.409,0,0.776-0.249,0.929-0.628l4-10C29.052,4.063,29.014,3.714,28.828,3.439z M23.323,13H10.687L7.61,5h18.913L23.323,13z"/>
	<circle fill-rule="evenodd" clip-rule="evenodd" fill="#FFFFFF" cx="10" cy="19" r="2"/>
	<circle fill-rule="evenodd" clip-rule="evenodd" fill="#FFFFFF" cx="24" cy="19" r="2"/>
</g>
</svg>
