<?xml version="1.0" encoding="utf-8"?>
<!-- Generator: Adobe Illustrator 17.0.0, SVG Export Plug-In . SVG Version: 6.00 Build 0)  -->
<!DOCTYPE svg PUBLIC "-//W3C//DTD SVG 1.1//EN" "http://www.w3.org/Graphics/SVG/1.1/DTD/svg11.dtd">
<svg version="1.1" id="Livello_1" xmlns="http://www.w3.org/2000/svg" xmlns:xlink="http://www.w3.org/1999/xlink" x="0px" y="0px"
	 width="120px" height="80px" viewBox="0 0 120 80" enable-background="new 0 0 120 80" xml:space="preserve">
<g>
	<path fill-rule="evenodd" clip-rule="evenodd" fill="#FFFFFF" d="M115,0H5C2.239,0,0,2.239,0,5v70c0,2.761,2.239,5,5,5h110
		c2.761,0,5-2.239,5-5V5C120,2.239,117.761,0,115,0z M5,2h110c1.657,0,3,1.343,3,3v59.586L96.707,43.293
		c-0.391-0.391-1.023-0.391-1.414,0L70.086,68.5L23.713,21.299c-0.187-0.19-0.442-0.298-0.709-0.299
		c-0.239-0.017-0.523,0.105-0.711,0.293L2,41.586V5C2,3.343,3.343,2,5,2z M2,75V44.414L22.994,23.42L76.616,78H5
		C3.343,78,2,76.657,2,75z M115,78H79.419l-7.932-8.073L96,45.414l22,22V75C118,76.657,116.657,78,115,78z"/>
	<path fill-rule="evenodd" clip-rule="evenodd" fill="#FFFFFF" d="M88,34c6.627,0,12-5.373,12-12s-5.373-12-12-12s-12,5.373-12,12
		S81.373,34,88,34z M88,12c5.523,0,10,4.477,10,10s-4.477,10-10,10s-10-4.477-10-10S82.477,12,88,12z"/>
</g>
</svg>
