<?xml version="1.0" encoding="utf-8"?>
<!-- Generator: Adobe Illustrator 17.0.0, SVG Export Plug-In . SVG Version: 6.00 Build 0)  -->
<!DOCTYPE svg PUBLIC "-//W3C//DTD SVG 1.1//EN" "http://www.w3.org/Graphics/SVG/1.1/DTD/svg11.dtd">
<svg version="1.1" id="Livello_1" xmlns="http://www.w3.org/2000/svg" xmlns:xlink="http://www.w3.org/1999/xlink" x="0px" y="0px"
	 width="21.022px" height="15.981px" viewBox="0 0 21.022 15.981" enable-background="new 0 0 21.022 15.981" xml:space="preserve">
<path fill="#FFFFFF" d="M19.789,12.299c0.808-1.058,1.233-2.273,1.233-3.544c0-3.603-3.455-6.535-7.702-6.535
	c-4.246,0-7.701,2.932-7.701,6.535c0,3.604,3.455,6.535,7.701,6.535c0.982,0,1.941-0.158,2.856-0.469l2.795,1.092
	c0.115,0.045,0.235,0.067,0.354,0.067c0.231,0,0.46-0.083,0.641-0.241c0.275-0.24,0.401-0.614,0.326-0.975L19.789,12.299z
	 M17.991,11.345c-0.213,0.24-0.302,0.569-0.236,0.886l0.232,1.136l-1.444-0.564c-0.114-0.044-0.234-0.067-0.354-0.067
	c-0.12,0-0.24,0.023-0.353,0.067c-0.798,0.312-1.645,0.469-2.515,0.469c-3.156,0-5.723-2.026-5.723-4.516
	c0-2.49,2.567-4.516,5.723-4.516c3.156,0,5.723,2.026,5.723,4.516C19.043,9.68,18.68,10.575,17.991,11.345z"/>
<path fill="#FFFFFF" d="M10.353,8.092c-0.545,0-0.989,0.453-0.989,1.01c0,0.557,0.444,1.009,0.989,1.009
	c0.545,0,0.989-0.452,0.989-1.009C11.342,8.545,10.898,8.092,10.353,8.092z"/>
<path fill="#FFFFFF" d="M13.32,8.092c-0.546,0-0.989,0.453-0.989,1.01c0,0.557,0.443,1.009,0.989,1.009s0.989-0.452,0.989-1.009
	C14.309,8.545,13.866,8.092,13.32,8.092z"/>
<path fill="#FFFFFF" d="M16.288,8.092c-0.546,0-0.989,0.453-0.989,1.01c0,0.557,0.443,1.009,0.989,1.009
	c0.546,0,0.989-0.452,0.989-1.009C17.277,8.545,16.833,8.092,16.288,8.092z"/>
<path fill="#FFFFFF" d="M3.875,10.684l-0.809,0.304l0.236-1.105c0.07-0.327-0.024-0.668-0.25-0.911
	C2.349,8.22,1.978,7.347,1.978,6.449c0-2.443,2.65-4.43,5.907-4.43c0.307,0,0.632,0.025,1.023,0.077
	c0.537,0.076,1.039-0.315,1.111-0.868c0.072-0.553-0.309-1.06-0.851-1.133C8.689,0.03,8.281,0,7.886,0C3.537,0,0,2.893,0,6.449
	c0,1.257,0.435,2.458,1.262,3.502l-0.513,2.403c-0.077,0.36,0.044,0.734,0.317,0.976c0.183,0.163,0.414,0.248,0.65,0.248
	c0.114,0,0.23-0.021,0.341-0.062l2.5-0.938c0.513-0.192,0.776-0.772,0.587-1.295C4.956,10.759,4.387,10.493,3.875,10.684z"/>
</svg>
