<?xml version="1.0" encoding="utf-8"?>
<!-- Generator: Adobe Illustrator 17.0.0, SVG Export Plug-In . SVG Version: 6.00 Build 0)  -->
<!DOCTYPE svg PUBLIC "-//W3C//DTD SVG 1.1//EN" "http://www.w3.org/Graphics/SVG/1.1/DTD/svg11.dtd">
<svg version="1.1" id="Livello_1" xmlns="http://www.w3.org/2000/svg" xmlns:xlink="http://www.w3.org/1999/xlink" x="0px" y="0px"
	 width="409.6px" height="320px" viewBox="0 0 409.6 320" enable-background="new 0 0 409.6 320" xml:space="preserve">
<path fill-rule="evenodd" clip-rule="evenodd" fill="#FFFFFF" d="M0,0h409.6v320H0V0z"/>
<path fill-rule="evenodd" clip-rule="evenodd" fill="#FAFAFA" d="M0,0h409.6v320H0V0z"/>
<path fill-rule="evenodd" clip-rule="evenodd" fill="#4982BC" d="M265.355,197.212c-19.118-1.51-23.898-4.528-23.898-4.528
	l-69.46,4.991c0,0-11.722-0.094-25.8-1.651l-1.511,16.956c12.999,1.859,23.173,2.599,23.173,2.599L154.577,277.9
	c14.717,8.705,31.885,13.707,50.223,13.707c19.835,0,38.302-5.85,53.778-15.911l-10.567-65.226c0,0,4.52,3.6,18.105,2.845
	c1.066-0.059,2.305-0.167,3.688-0.338l1.593-15.804C269.367,197.356,267.343,197.37,265.355,197.212z"/>
<g>
	<path fill="#EFEEEE" d="M154.599,277.9c-0.006-0.004-0.013-0.007-0.019-0.011l-0.002,0.011L154.599,277.9z"/>
	<path fill="#EFEEEE" d="M258.578,275.696l-0.001-0.007c-0.059,0.038-0.116,0.079-0.174,0.117
		C258.461,275.769,258.521,275.734,258.578,275.696z"/>
	<path fill="#EFEEEE" d="M303.6,192.808c0-54.566-44.234-98.8-98.8-98.8s-98.8,44.234-98.8,98.8
		c0,36.226,19.506,67.884,48.58,85.081l13.279-62.311c0,0-10.174-0.74-23.173-2.599l1.511-16.956
		c14.078,1.558,25.8,1.651,25.8,1.651l69.46-4.991c0,0,4.78,3.018,23.898,4.528c1.988,0.157,4.012,0.144,6.042-0.038l-1.593,15.804
		c-1.383,0.171-2.622,0.279-3.688,0.338c-13.584,0.755-18.105-2.845-18.105-2.845l10.566,65.22
		C285.675,258.072,303.6,227.537,303.6,192.808z"/>
</g>
<path fill="#99BADA" d="M279.18,53.259c4.236-5.994,13.408-13.053,20.041-5.031c1.502,1.815,0.721,4.892-1.802,6.791
	c-3.532,2.66-10.272,3.397-14.045,5.619c-5.533,3.259-6.038,7.043-6.624,6.96C276.164,67.513,274.944,59.253,279.18,53.259z"/>
<path fill="#FDE0CA" d="M159.952,93.822c0,0-21.13,18.112-21.885,53.582s18.615,60.373,55.594,62.888
	c36.979,2.515,60.122-23.143,60.122-23.143l17.86-32.702l-8.804-55.092L159.952,93.822z"/>
<path fill="#99BADA" d="M288.054,38.123c-1.148,1.95-9.712,6.876-11.928,9.853c-2.216,2.976-3.695,5.913-4.115,5.702
	c-0.419-0.211-1.174-6.08,2.39-15.219s11.401-12.148,14.758-9.35C291.675,31.205,289.202,36.173,288.054,38.123z"/>
<path fill="#FDE0CA" d="M319.187,154.197c-2.768-49.808-42.01-71.944-42.01-71.944s-14.087-10.314-20.375-5.283
	c-6.288,5.031,14.087,39.997,18.112,39.495c4.025-0.503,6.288-13.081,6.288-13.081s22.138,20.375,23.898,50.814
	c1.601,27.675-16.762,41.832-34.479,43.038l-1.225,15.786C285.448,211.14,321.757,200.481,319.187,154.197z"/>
<g>
	<ellipse fill="#402618" cx="156.872" cy="132.814" rx="5.974" ry="9.811"/>
	<ellipse fill="#402618" cx="197.372" cy="134.324" rx="5.974" ry="9.811"/>
	<path fill="#402618" d="M155.578,107.698c0.508-0.224,0.74-0.818,0.516-1.326c-0.224-0.508-0.818-0.74-1.326-0.516
		c-5.033,2.214-7.711,8.696-7.823,8.969c-0.209,0.514,0.038,1.1,0.554,1.311c0.123,0.051,0.252,0.074,0.379,0.074
		c0.396,0,0.774-0.237,0.933-0.626C148.834,115.525,151.298,109.582,155.578,107.698z"/>
	<path fill="#402618" d="M205.519,110.745c-2.064-2.614-6.789-3.997-6.988-4.054c-0.535-0.154-1.091,0.156-1.244,0.689
		s0.154,1.091,0.689,1.246c0.044,0.013,4.306,1.263,5.966,3.367c1.745,2.212,2.775,5.433,2.787,5.465
		c0.135,0.429,0.531,0.704,0.96,0.704c0.101,0,0.201-0.015,0.302-0.047c0.529-0.167,0.825-0.732,0.658-1.261
		C208.598,116.707,207.498,113.251,205.519,110.745z"/>
	<path fill="#402618" d="M277.554,116.965c-6.918-45.028-38.362-63.14-64.963-62.951c-23.08,0.163-40.06,10.629-53.016,10.439
		c-4.543-0.066-6.226,0.565-11.634-3.71c-3.682-2.91-6.23-7.178-7.296-10.439c-0.501-1.531-0.4-3.371-0.44-3.773
		c-0.125-1.258,0.88-2.2,2.263-2.453c1.383-0.252,2.578,0.943,2.578,0.943s1.573,1.887,3.523,1.76
		c1.95-0.125,2.893-1.132,3.018-3.333c0.125-2.2-2.138-6.603-8.804-6.541c-6.666,0.063-9.874,8.491-9.621,11.886
		c0.252,3.396,0.484,8.282,6.038,14.904c8.491,10.126,20.375,9.874,20.375,9.874c-10.314,8.616-17.892,4.936-23.458,1.573
		c-5.566-3.365-9.684-13.394-9.684-13.394s0.943,0.818,1.95,0.755c1.007-0.063,3.018-1.005,3.145-3.458
		c0.127-2.453-2.705-4.591-4.465-4.528s-6.666,0.377-6.918,4.025c-0.283,4.096-0.692,12.767,8.804,24.841
		s26.538,13.584,26.538,13.584l99.05,5.031l-0.377,42.575c0,0,15.974-5.22,14.717,9.748c-1.258,14.967-14.339,10.439-14.339,10.439
		l-0.755,22.388C253.782,187.151,284.473,161.995,277.554,116.965z"/>
	<ellipse fill="#402618" cx="174.292" cy="173.944" rx="6.541" ry="10.944"/>
</g>
<path fill="#FDE0CA" d="M109.07,187.151c-15.635-7.843-33.27-33.235-40.557-44.502c-1.335-5.281-3.021-25.711-8.619-27.53
	c-6.718-2.182-14.41,13.227-16.768,19.114c-2.197,5.484,11.465,16.747,14.702,19.755c8.942,13.962,28.01,41.37,44.135,48.586
	c11.369,5.088,28.692,8.398,42.725,10.404l1.511-16.956C133.43,194.611,118.726,191.994,109.07,187.151z"/>
<path fill="#565656" d="M117.371,190.45c2.083,0.666,4.266,1.272,6.513,1.821c-4.448-9.466-11.309-17.901-20.525-25.171
	c-15.171-11.969-34.716-18.961-51.692-21.599c12.69-20.735,23.253-48.153,25.05-52.917c0.481-1.276-0.163-2.701-1.44-3.183
	c-1.276-0.482-2.701,0.163-3.183,1.439c-0.07,0.185-7.101,18.748-16.429,37.132c-3.432,6.765-6.552,12.302-9.374,16.827
	c-13.398-1.396-24.567,0.083-29.669,4.107c-3.367,2.656-4.258,6.432-2.444,10.357c3.195,6.913,7.409,10.344,12.474,10.141
	c7.128-0.258,14.91-8.461,22.179-19.444c16.284,2.214,35.983,8.8,51.468,21.016C106.591,175.941,112.768,182.346,117.371,190.45z
	 M26.475,164.468c-2.875,0.095-5.53-2.343-7.811-7.277c-0.866-1.875-0.571-3.151,1.019-4.405c3.019-2.381,9.198-3.688,17.134-3.688
	c2.056,0,4.233,0.088,6.501,0.267C34.767,161.875,29.342,164.365,26.475,164.468z"/>
<path fill-rule="evenodd" clip-rule="evenodd" fill="#FDE0CA" d="M59.444,131.242l6.639,13.279c0,0,7.18-24.343,1.456-28.533
	S59.444,131.242,59.444,131.242z"/>
<g>
	
		<rect x="70.719" y="94.238" transform="matrix(0.687 -0.7266 0.7266 0.687 -48.1006 81.9821)" fill-rule="evenodd" clip-rule="evenodd" fill="#454545" width="0.797" height="5.179"/>
	<polygon fill-rule="evenodd" clip-rule="evenodd" fill="#343434" points="76.088,98.238 75.541,98.817 72.725,98.896 
		73.272,98.317 	"/>
	<polygon fill-rule="evenodd" clip-rule="evenodd" fill="#565656" points="76.088,98.238 73.272,98.317 69.509,94.759 72.325,94.68 
			"/>
	
		<rect x="71.235" y="92.533" transform="matrix(0.687 -0.7266 0.7266 0.687 -46.7001 81.8235)" fill-rule="evenodd" clip-rule="evenodd" fill="#454545" width="0.797" height="5.179"/>
	<polygon fill-rule="evenodd" clip-rule="evenodd" fill="#343434" points="77.73,96.501 77.183,97.08 73.241,97.191 73.788,96.612 	
		"/>
	<polygon fill-rule="evenodd" clip-rule="evenodd" fill="#565656" points="77.73,96.501 73.788,96.612 70.025,93.054 73.967,92.944 
			"/>
	
		<rect x="71.75" y="90.828" transform="matrix(0.687 -0.7266 0.7266 0.687 -45.2995 81.6643)" fill-rule="evenodd" clip-rule="evenodd" fill="#454545" width="0.797" height="5.179"/>
	<polygon fill-rule="evenodd" clip-rule="evenodd" fill="#343434" points="79.372,94.765 78.825,95.344 73.757,95.486 
		74.304,94.907 	"/>
	<polygon fill-rule="evenodd" clip-rule="evenodd" fill="#565656" points="79.372,94.765 74.304,94.907 70.541,91.349 
		75.609,91.207 	"/>
	
		<rect x="72.266" y="89.123" transform="matrix(0.687 -0.7267 0.7267 0.687 -43.8992 81.5071)" fill-rule="evenodd" clip-rule="evenodd" fill="#454545" width="0.797" height="5.179"/>
	<polygon fill-rule="evenodd" clip-rule="evenodd" fill="#343434" points="81.014,93.028 80.467,93.607 74.272,93.78 74.82,93.201 	
		"/>
	<polygon fill-rule="evenodd" clip-rule="evenodd" fill="#565656" points="81.014,93.028 74.82,93.201 71.057,89.644 77.251,89.47 	
		"/>
</g>
<path fill-rule="evenodd" clip-rule="evenodd" fill="#565656" d="M69.237,92.104l2.517-2.724l-2.807-2.45l11.473,0.304
	c0,0,1.54,0.408,3.879-2.363c1.036-1.228,5.353-6.541,6.153-11.726c0.422-2.733,0.542-5.433,0.49-7.696l1.668,1.352l2.257-2.786
	l-4.709-4.272c-0.028-0.047-0.056-0.086-0.085-0.113c-1.216-1.2-9.355-1.868-11.295-0.811c-1.03,0.561-9.514,8.775-13.652,15.6
	c-3.655,6.027-3.831,9.355-3.079,10.795c0.132,0.253,0.307,0.466,0.504,0.646l0,0.001L69.237,92.104z"/>
<path fill-rule="evenodd" clip-rule="evenodd" fill="#343434" d="M83.544,64.07c-0.984,0.638-8.815,9.476-12.42,16.597
	c-3.184,6.289-3.105,9.621-2.245,10.998c0.86,1.378,2.978,1.387,2.978,1.387l15.496-0.776c0,0,1.567,0.289,3.687-2.653
	c0.939-1.303,4.837-6.931,5.238-12.162c0.504-6.577-0.684-12.832-1.411-13.447C93.564,62.911,85.397,62.867,83.544,64.07z"/>
<path fill-rule="evenodd" clip-rule="evenodd" fill="#EFEEEE" d="M93.875,82.281l1.963-0.337l1.872-4.834l-1.999,0.329
	L93.875,82.281z"/>
<path fill-rule="evenodd" clip-rule="evenodd" fill="#EFEEEE" d="M81.239,93.907l3.942-0.111l1.063-2.284l-3.942,0.111
	L81.239,93.907z"/>
<path fill-rule="evenodd" clip-rule="evenodd" fill="#EFEEEE" d="M93.37,94.412l3.942-0.111l1.063-2.284l-3.942,0.111L93.37,94.412z
	"/>
<path fill-rule="evenodd" clip-rule="evenodd" fill="#DDDDDB" d="M95.712,77.439l1.963-0.337l-8.395-7.937l-1.963,0.337
	L95.712,77.439z"/>
<path fill-rule="evenodd" clip-rule="evenodd" fill="#DDDDDB" d="M82.302,91.623l3.942-0.111l-8.395-7.937l-3.942,0.111
	L82.302,91.623z"/>
<path fill-rule="evenodd" clip-rule="evenodd" fill="#DDDDDB" d="M94.433,92.128l3.942-0.111l-8.395-7.937l-3.942,0.111
	L94.433,92.128z"/>
<path fill-rule="evenodd" clip-rule="evenodd" fill="#CDCCCC" d="M95.712,77.439l-1.837,4.842l-8.395-7.937l1.837-4.842
	L95.712,77.439z"/>
<path fill-rule="evenodd" clip-rule="evenodd" fill="#CDCCCC" d="M82.302,91.623l-1.063,2.284l-8.395-7.937l1.063-2.284
	L82.302,91.623z"/>
<path fill-rule="evenodd" clip-rule="evenodd" fill="#CDCCCC" d="M94.433,92.128l-1.063,2.284l-8.395-7.937l1.063-2.284
	L94.433,92.128z"/>
<path fill="#565656" d="M120.896,244.958c1.104,1.772,2.265,3.504,3.476,5.199c4.946-14.231,6.586-27.548,4.874-39.766
	c-1.721-0.336-3.441-0.691-5.151-1.066C125.815,219.401,125.17,231.206,120.896,244.958z"/>
</svg>
