<?xml version="1.0" encoding="utf-8"?>
<!-- Generator: Adobe Illustrator 17.0.0, SVG Export Plug-In . SVG Version: 6.00 Build 0)  -->
<!DOCTYPE svg PUBLIC "-//W3C//DTD SVG 1.1//EN" "http://www.w3.org/Graphics/SVG/1.1/DTD/svg11.dtd">
<svg version="1.1" id="Livello_1" xmlns="http://www.w3.org/2000/svg" xmlns:xlink="http://www.w3.org/1999/xlink" x="0px" y="0px"
	 width="23.425px" height="14.79px" viewBox="0 0 23.425 14.79" enable-background="new 0 0 23.425 14.79" xml:space="preserve">
<path fill="#FFFFFF" d="M23.423,5.722c-0.016-0.18-0.1-0.342-0.239-0.458c-0.121-0.102-0.275-0.158-0.434-0.158
	c-0.2,0-0.389,0.088-0.517,0.241l-1.212,1.445c-0.365-0.337-0.741-0.661-1.123-0.968l1.031-1.786
	c0.186-0.322,0.075-0.736-0.247-0.922c-0.103-0.059-0.219-0.091-0.337-0.091c-0.241,0-0.465,0.129-0.585,0.338l-0.95,1.646
	c-0.395-0.274-0.794-0.53-1.193-0.761l0.696-1.913c0.062-0.169,0.054-0.353-0.023-0.516c-0.076-0.163-0.211-0.287-0.381-0.349
	c-0.074-0.027-0.152-0.041-0.231-0.041c-0.283,0-0.538,0.179-0.634,0.444l-0.634,1.741c-0.128-0.06-0.253-0.117-0.376-0.17
	c-0.326-0.141-0.656-0.268-0.985-0.379l0.344-1.954c0.065-0.367-0.181-0.717-0.547-0.782c-0.039-0.007-0.078-0.01-0.118-0.01
	c-0.326,0-0.604,0.232-0.663,0.552l-0.424,1.84c-0.448-0.09-0.975-0.16-1.479-0.195V0.675C12.162,0.303,11.86,0,11.488,0
	c-0.372,0-0.675,0.303-0.675,0.675v1.842c-0.39,0.03-0.772,0.088-1.236,0.188L9.305,0.884L9.304,0.878
	C9.246,0.549,8.984,0.32,8.667,0.32c-0.039,0-0.078,0.004-0.117,0.01C8.372,0.362,8.218,0.462,8.119,0.613
	c-0.097,0.146-0.133,0.323-0.101,0.5l0.351,1.953C8.045,3.175,7.722,3.299,7.386,3.445c-0.12,0.052-0.243,0.108-0.374,0.169
	L6.38,1.873C6.283,1.607,6.028,1.429,5.746,1.429c-0.079,0-0.156,0.014-0.231,0.041c-0.35,0.127-0.53,0.515-0.403,0.865l0.696,1.912
	C5.41,4.479,5.01,4.734,4.615,5.009l-0.95-1.646C3.545,3.154,3.321,3.025,3.08,3.025c-0.118,0-0.234,0.031-0.337,0.091
	c-0.322,0.186-0.433,0.6-0.247,0.922l1.031,1.785C3.145,6.13,2.768,6.454,2.403,6.791L1.192,5.347
	C1.063,5.194,0.875,5.106,0.674,5.106c-0.158,0-0.312,0.056-0.434,0.158C-0.044,5.503-0.082,5.93,0.158,6.215l1.28,1.526
	C1.029,8.17,0.798,8.452,0.771,8.486C0.561,8.745,0.57,9.114,0.792,9.362c0.05,0.056,1.242,1.376,3.17,2.707
	C5.1,12.854,6.26,13.48,7.411,13.931c1.457,0.57,2.904,0.859,4.301,0.859c1.397,0,2.844-0.289,4.301-0.859
	c1.151-0.451,2.311-1.077,3.448-1.862c1.928-1.33,3.121-2.651,3.17-2.707c0.223-0.249,0.232-0.617,0.021-0.876
	c-0.027-0.034-0.257-0.315-0.666-0.745l1.281-1.527C23.383,6.077,23.438,5.902,23.423,5.722z M11.712,4.505
	c0.248,0,0.45,0.201,0.45,0.45c0,0.248-0.201,0.45-0.45,0.45c-1.147,0-2.081,0.934-2.081,2.081c0,0.248-0.201,0.45-0.45,0.45
	c-0.249,0-0.45-0.201-0.45-0.45C8.732,5.842,10.069,4.505,11.712,4.505z M18.695,10.958c-1.052,0.726-2.12,1.303-3.174,1.716
	c-1.3,0.509-2.581,0.767-3.809,0.767c-1.224,0-2.502-0.256-3.797-0.762c-1.052-0.411-2.118-0.985-3.167-1.708
	c-1.157-0.796-2.039-1.598-2.533-2.082c0.144-0.156,0.334-0.356,0.562-0.583C2.78,8.302,2.783,8.3,2.786,8.298
	C2.817,8.271,2.846,8.242,2.873,8.21C3.48,7.614,4.119,7.06,4.772,6.563c0.714-0.543,1.441-1.014,2.162-1.4
	c0.012-0.006,0.023-0.012,0.035-0.018c0.323-0.172,0.649-0.329,0.967-0.466c0.168-0.072,0.337-0.141,0.507-0.204
	C7.694,5.284,7.27,6.35,7.27,7.486c0,2.45,1.993,4.443,4.442,4.443c2.45,0,4.442-1.993,4.442-4.443c0-1.136-0.425-2.201-1.173-3.011
	c0.17,0.064,0.339,0.132,0.507,0.204c1.05,0.453,2.115,1.087,3.164,1.884c0.656,0.499,1.298,1.056,1.907,1.655
	c0.025,0.029,0.052,0.056,0.08,0.08C20.64,8.299,20.641,8.3,20.643,8.3c0.23,0.229,0.422,0.431,0.567,0.588
	C20.72,9.368,19.845,10.163,18.695,10.958z"/>
</svg>
