<?xml version="1.0" encoding="utf-8"?>
<!-- Generator: Adobe Illustrator 17.0.0, SVG Export Plug-In . SVG Version: 6.00 Build 0)  -->
<!DOCTYPE svg PUBLIC "-//W3C//DTD SVG 1.1//EN" "http://www.w3.org/Graphics/SVG/1.1/DTD/svg11.dtd">
<svg version="1.1" id="Livello_1" xmlns="http://www.w3.org/2000/svg" xmlns:xlink="http://www.w3.org/1999/xlink" x="0px" y="0px"
	 width="21px" height="21px" viewBox="0 0 21 21" enable-background="new 0 0 21 21" xml:space="preserve">
<g>
	<path fill="#FFFFFF" d="M18,11.2V18c0,0.552-0.448,1-1,1H3c-0.552,0-1-0.448-1-1V4c0-0.552,0.448-1,1-1h6.8l-2-2H2
		C0.895,1,0,1.896,0,3v16c0,1.104,0.895,2,2,2h16c1.104,0,2-0.896,2-2v-5.8L18,11.2L18,11.2z"/>
	<path fill="#FFFFFF" d="M18.2,0H9.8l3.621,3.62L7.155,9.886c-0.82,0.82-0.82,2.149,0,2.97l0.99,0.99c0.82,0.82,2.15,0.82,2.969,0
		L17.38,7.58L21,11.2V2.8C21,1.253,19.747,0,18.2,0z"/>
</g>
</svg>
