<?xml version="1.0" encoding="utf-8"?>
<!-- Generator: Adobe Illustrator 17.0.0, SVG Export Plug-In . SVG Version: 6.00 Build 0)  -->
<!DOCTYPE svg PUBLIC "-//W3C//DTD SVG 1.1//EN" "http://www.w3.org/Graphics/SVG/1.1/DTD/svg11.dtd">
<svg version="1.1" id="Livello_1" xmlns="http://www.w3.org/2000/svg" xmlns:xlink="http://www.w3.org/1999/xlink" x="0px" y="0px"
	 width="34.719px" height="28.935px" viewBox="0 0 34.719 28.935" enable-background="new 0 0 34.719 28.935" xml:space="preserve">
<path fill="#FFFFFF" d="M24.005,0c-2.42,0-4.751,0.759-6.646,2.152C15.465,0.759,13.133,0,10.714,0C7.869,0,5.191,1.037,3.173,2.92
	C1.127,4.827,0,7.369,0,10.076c-0.001,2.709,1.126,5.252,3.172,7.16l11.372,10.606c0.757,0.705,1.756,1.094,2.815,1.094
	c1.06,0,2.059-0.389,2.813-1.094c0,0,11.247-10.489,11.373-10.605c2.046-1.91,3.174-4.453,3.173-7.161
	c-0.001-2.707-1.128-5.249-3.173-7.156C29.528,1.037,26.85,0,24.005,0z M28.85,14.552L17.479,25.156h-0.238L5.868,14.552
	c-1.282-1.197-1.989-2.785-1.99-4.473c0-1.689,0.707-3.279,1.99-4.476c1.293-1.205,3.016-1.869,4.852-1.869
	c1.726,0,3.382,0.598,4.663,1.682l1.976,1.675l1.976-1.675c2.644-2.24,7.007-2.151,9.515,0.186c1.283,1.196,1.99,2.785,1.99,4.474
	C30.84,11.766,30.133,13.355,28.85,14.552z"/>
<path fill="#FFFFFF" d="M10.414,5.296c-0.001,0-0.002,0-0.002,0C7.755,5.298,5.593,7.348,5.593,9.864
	c0,0.515,0.432,0.934,0.964,0.934s0.965-0.42,0.965-0.936c0-1.488,1.298-2.698,2.893-2.698c0.532,0,0.965-0.419,0.965-0.935
	C11.38,5.715,10.95,5.296,10.414,5.296z"/>
</svg>
