<?xml version="1.0" encoding="utf-8"?>
<!-- Generator: Adobe Illustrator 17.0.0, SVG Export Plug-In . SVG Version: 6.00 Build 0)  -->
<!DOCTYPE svg PUBLIC "-//W3C//DTD SVG 1.1//EN" "http://www.w3.org/Graphics/SVG/1.1/DTD/svg11.dtd">
<svg version="1.1" id="Livello_1" xmlns="http://www.w3.org/2000/svg" xmlns:xlink="http://www.w3.org/1999/xlink" x="0px" y="0px"
	 width="600px" height="151px" viewBox="0 30.442 600 151" enable-background="new 0 30.442 600 151" xml:space="preserve">
<path fill="#4881BB" d="M585,74.442v10h-26v-37h-10.858L540,39.3l-8.142,8.142H521v53h-4v-23h-1v0.452
	c-0.635-0.279-1.519-0.452-2.5-0.452c-1.933,0-3.5,0.672-3.5,1.5s1.567,1.5,3.5,1.5c0.981,0,1.865-0.174,2.5-0.452v20.452h-9v-18h-1
	v0.452c-0.635-0.279-1.519-0.452-2.5-0.452c-1.933,0-3.5,0.672-3.5,1.5s1.567,1.5,3.5,1.5c0.981,0,1.865-0.174,2.5-0.452v15.452h-9
	v-12h-1v0.389c-0.532-0.239-1.228-0.389-2-0.389c-1.657,0-3,0.672-3,1.5s1.343,1.5,3,1.5c0.772,0,1.468-0.15,2-0.389v9.389h-33v-5h1
	c0-3.866-3.134-7-7-7v-44h-6.858L443,37.3l-7.142,7.142H429v23h-27v-5h-3v5h-7v24h-5v-29h-14v-32h-16v25h-15v19h-31v-15h-4v-4h-21v4
	h-5v15h-6v-39h-18v39h-18v-7h-22v-23h-6.858L203,37.3l-7.142,7.142H189v44c-3.866,0-7,3.134-7,7h1v5h-33v-9.389
	c0.532,0.24,1.228,0.389,2,0.389c1.657,0,3-0.672,3-1.5s-1.343-1.5-3-1.5c-0.772,0-1.469,0.15-2,0.389v-0.389h-1v12h-9V84.99
	c0.635,0.279,1.519,0.452,2.5,0.452c1.933,0,3.5-0.672,3.5-1.5s-1.567-1.5-3.5-1.5c-0.981,0-1.865,0.174-2.5,0.452v-0.452h-1v18h-8
	V79.99c0.635,0.279,1.519,0.452,2.5,0.452c1.933,0,3.5-0.672,3.5-1.5s-1.567-1.5-3.5-1.5c-0.981,0-1.865,0.174-2.5,0.452v-0.452h-1
	v23h-5v-52h-9.894l-8.979-9.142l-9.307,9.142H88v45H70v-35h-6v-4H39v4h-5v18H0v24l0,0v81h600v-73v-8v-7v-9v-10H585z M548,54.442h6v6
	h-6V54.442z M548,64.442h6v6h-6V64.442z M537,54.442h6v6h-6V54.442z M526,54.442h6v6h-6V54.442z M449,48.442h4v4h-4V48.442z
	 M449,56.442h4v4h-4V56.442z M449,64.442h4v4h-4V64.442z M449,72.442h4v4h-4V72.442z M441,48.442h4v4h-4V48.442z M441,56.442h4v4h-4
	V56.442z M441,64.442h4v4h-4V64.442z M441,72.442h4v4h-4V72.442z M433,48.442h4v4h-4V48.442z M433,56.442h4v4h-4V56.442z
	 M433,64.442h4v4h-4V64.442z M433,72.442h4v4h-4V72.442z M411,70.442h4v4h-4V70.442z M403,70.442h4v4h-4V70.442z M403,78.442h4v4h-4
	V78.442z M395,70.442h4v4h-4V70.442z M395,78.442h4v4h-4V78.442z M379,67.442h4v4h-4V67.442z M379,75.442h4v4h-4V75.442z
	 M371,67.442h4v4h-4V67.442z M371,75.442h4v4h-4V75.442z M363,35.442h4v4h-4V35.442z M363,43.442h4v4h-4V43.442z M363,51.442h4v4h-4
	V51.442z M363,59.442h4v4h-4V59.442z M363,67.442h4v4h-4V67.442z M363,75.442h4v4h-4V75.442z M355,59.442h4v4h-4V59.442z
	 M347,59.442h4v4h-4V59.442z M347,67.442h4v4h-4V67.442z M302,62.442h6v6h-6V62.442z M302,72.442h6v6h-6V72.442z M291,62.442h6v6h-6
	V62.442z M291,72.442h6v6h-6V72.442z M268,38.442h4v4h-4V38.442z M268,46.442h4v4h-4V46.442z M268,54.442h4v4h-4V54.442z
	 M268,62.442h4v4h-4V62.442z M268,70.442h4v4h-4V70.442z M268,78.442h4v4h-4V78.442z M260,38.442h4v4h-4V38.442z M260,46.442h4v4h-4
	V46.442z M260,54.442h4v4h-4V54.442z M260,62.442h4v4h-4V62.442z M260,70.442h4v4h-4V70.442z M260,78.442h4v4h-4V78.442z
	 M209,48.442h4v4h-4V48.442z M201,48.442h4v4h-4V48.442z M193,48.442h4v4h-4V48.442z M114,53.442h6v6h-6V53.442z M114,63.442h6v6h-6
	V63.442z M114,73.442h6v6h-6V73.442z M103,53.442h6v6h-6V53.442z M103,63.442h6v6h-6V63.442z M103,73.442h6v6h-6V73.442z M92,53.442
	h6v6h-6V53.442z M92,63.442h6v6h-6V63.442z M92,73.442h6v6h-6V73.442z M61,61.442h6v6h-6V61.442z M61,71.442h6v6h-6V71.442z
	 M61,81.442h6v6h-6V81.442z M50,61.442h6v6h-6V61.442z M50,71.442h6v6h-6V71.442z M6,91.442H3v-3h3V91.442z M6,84.442H3v-3h3V84.442
	z M184,100.442v-5h5v5h-4.894H184z M457,100.442v-5h5v5h-0.106H457z"/>
</svg>
