<?xml version="1.0" encoding="utf-8"?>
<!-- Generator: Adobe Illustrator 17.0.0, SVG Export Plug-In . SVG Version: 6.00 Build 0)  -->
<!DOCTYPE svg PUBLIC "-//W3C//DTD SVG 1.1//EN" "http://www.w3.org/Graphics/SVG/1.1/DTD/svg11.dtd">
<svg version="1.1" id="Livello_1" xmlns="http://www.w3.org/2000/svg" xmlns:xlink="http://www.w3.org/1999/xlink" x="0px" y="0px"
	 width="600px" height="181.442px" viewBox="0 0 600 181.442" enable-background="new 0 0 600 181.442" xml:space="preserve">
<g>
	<path fill-rule="evenodd" clip-rule="evenodd" fill="#FFA600" d="M85.324,18.204H110.1v-4.92l-0.004,0.001
		c-0.077-2.538-2.528-4.585-5.58-4.67c0.27-0.658,0.418-1.362,0.418-2.095c0-3.6-3.524-6.519-7.872-6.519
		c-3.755,0-6.893,2.178-7.68,5.091c-1.055-0.575-2.301-0.909-3.636-0.909c-3.804,0-6.888,2.698-6.888,6.027
		c0,0.21,0.012,0.417,0.036,0.621c-0.094-0.003-0.188-0.006-0.282-0.006c-3.804,0-6.888,2.698-6.888,6.027
		c0,0.465,0.062,0.918,0.176,1.353H85.324z"/>
	<path fill-rule="evenodd" clip-rule="evenodd" fill="#FFA600" d="M519.185,23.204H549.4v-6l-0.005,0.001
		c-0.094-3.095-3.083-5.592-6.805-5.696c0.329-0.802,0.51-1.661,0.51-2.555c0-4.391-4.298-7.95-9.6-7.95
		c-4.579,0-8.406,2.656-9.366,6.208c-1.287-0.702-2.806-1.108-4.434-1.108c-4.639,0-8.4,3.291-8.4,7.35
		c0,0.256,0.015,0.509,0.044,0.758c-0.114-0.004-0.229-0.008-0.344-0.008c-4.639,0-8.4,3.291-8.4,7.35
		c0,0.568,0.076,1.119,0.215,1.65H519.185z"/>
	<path fill-rule="evenodd" clip-rule="evenodd" fill="#FFA600" d="M585,74.442v10h-26v-37h-10.858L540,39.3l-8.142,8.142H521v53h-4
		v-23h-1v0.452c-0.635-0.279-1.519-0.452-2.5-0.452c-1.933,0-3.5,0.672-3.5,1.5c0,0.828,1.567,1.5,3.5,1.5
		c0.981,0,1.865-0.174,2.5-0.452v20.452h-9v-18h-1v0.452c-0.635-0.279-1.519-0.452-2.5-0.452c-1.933,0-3.5,0.672-3.5,1.5
		c0,0.828,1.567,1.5,3.5,1.5c0.981,0,1.865-0.174,2.5-0.452v15.452h-9v-12h-1v0.389c-0.532-0.239-1.228-0.389-2-0.389
		c-1.657,0-3,0.672-3,1.5c0,0.828,1.343,1.5,3,1.5c0.772,0,1.468-0.15,2-0.389v9.389h-33v-5h1c0-3.866-3.134-7-7-7v-44h-6.858
		L443,37.3l-7.142,7.142H429v23h-27v-5h-3v5h-7v24h-5v-29h-14v-32h-16v25h-15v19h-31v-15h-4v-4h-21v4h-5v15h-6v-39h-18v39h-18v-7
		h-22v-23h-6.858L203,37.3l-7.142,7.142H189v44c-3.866,0-7,3.134-7,7h1v5h-33v-9.389c0.532,0.24,1.228,0.389,2,0.389
		c1.657,0,3-0.672,3-1.5c0-0.828-1.343-1.5-3-1.5c-0.772,0-1.469,0.15-2,0.389v-0.389h-1v12h-9V84.99
		c0.635,0.279,1.519,0.452,2.5,0.452c1.933,0,3.5-0.672,3.5-1.5c0-0.828-1.567-1.5-3.5-1.5c-0.981,0-1.865,0.174-2.5,0.452v-0.452
		h-1v18h-8V79.99c0.635,0.279,1.519,0.452,2.5,0.452c1.933,0,3.5-0.672,3.5-1.5c0-0.828-1.567-1.5-3.5-1.5
		c-0.981,0-1.865,0.174-2.5,0.452v-0.452h-1v23h-5v-52h-9.894l-8.979-9.142l-9.307,9.142H88v45H70v-35h-6v-4H39v4h-5v18H0v24h0v81
		h600v-73v-8v-7v-9v-10H585z M548,54.442h6v6h-6V54.442z M548,64.442h6v6h-6V64.442z M537,54.442h6v6h-6V54.442z M526,54.442h6v6h-6
		V54.442z M449,48.442h4v4h-4V48.442z M449,56.442h4v4h-4V56.442z M449,64.442h4v4h-4V64.442z M449,72.442h4v4h-4V72.442z
		 M441,48.442h4v4h-4V48.442z M441,56.442h4v4h-4V56.442z M441,64.442h4v4h-4V64.442z M441,72.442h4v4h-4V72.442z M433,48.442h4v4
		h-4V48.442z M433,56.442h4v4h-4V56.442z M433,64.442h4v4h-4V64.442z M433,72.442h4v4h-4V72.442z M411,70.442h4v4h-4V70.442z
		 M403,70.442h4v4h-4V70.442z M403,78.442h4v4h-4V78.442z M395,70.442h4v4h-4V70.442z M395,78.442h4v4h-4V78.442z M379,67.442h4v4
		h-4V67.442z M379,75.442h4v4h-4V75.442z M371,67.442h4v4h-4V67.442z M371,75.442h4v4h-4V75.442z M363,35.442h4v4h-4V35.442z
		 M363,43.442h4v4h-4V43.442z M363,51.442h4v4h-4V51.442z M363,59.442h4v4h-4V59.442z M363,67.442h4v4h-4V67.442z M363,75.442h4v4
		h-4V75.442z M355,59.442h4v4h-4V59.442z M347,59.442h4v4h-4V59.442z M347,67.442h4v4h-4V67.442z M302,62.442h6v6h-6V62.442z
		 M302,72.442h6v6h-6V72.442z M291,62.442h6v6h-6V62.442z M291,72.442h6v6h-6V72.442z M268,38.442h4v4h-4V38.442z M268,46.442h4v4
		h-4V46.442z M268,54.442h4v4h-4V54.442z M268,62.442h4v4h-4V62.442z M268,70.442h4v4h-4V70.442z M268,78.442h4v4h-4V78.442z
		 M260,38.442h4v4h-4V38.442z M260,46.442h4v4h-4V46.442z M260,54.442h4v4h-4V54.442z M260,62.442h4v4h-4V62.442z M260,70.442h4v4
		h-4V70.442z M260,78.442h4v4h-4V78.442z M209,48.442h4v4h-4V48.442z M201,48.442h4v4h-4V48.442z M193,48.442h4v4h-4V48.442z
		 M114,53.442h6v6h-6V53.442z M114,63.442h6v6h-6V63.442z M114,73.442h6v6h-6V73.442z M103,53.442h6v6h-6V53.442z M103,63.442h6v6
		h-6V63.442z M103,73.442h6v6h-6V73.442z M92,53.442h6v6h-6V53.442z M92,63.442h6v6h-6V63.442z M92,73.442h6v6h-6V73.442z
		 M61,61.442h6v6h-6V61.442z M61,71.442h6v6h-6V71.442z M61,81.442h6v6h-6V81.442z M50,61.442h6v6h-6V61.442z M50,71.442h6v6h-6
		V71.442z M6,91.442H3v-3h3V91.442z M6,84.442H3v-3h3V84.442z M184,100.442v-5h5v5h-4.894H184z M457,100.442v-5h5v5h-0.106H457z"/>
</g>
</svg>
