<?xml version="1.0" encoding="utf-8"?>
<!-- Generator: Adobe Illustrator 17.0.0, SVG Export Plug-In . SVG Version: 6.00 Build 0)  -->
<!DOCTYPE svg PUBLIC "-//W3C//DTD SVG 1.1//EN" "http://www.w3.org/Graphics/SVG/1.1/DTD/svg11.dtd">
<svg version="1.1" id="Livello_1" xmlns="http://www.w3.org/2000/svg" xmlns:xlink="http://www.w3.org/1999/xlink" x="0px" y="0px"
	 width="146px" height="49px" viewBox="0 0 146 49" enable-background="new 0 0 146 49" xml:space="preserve">
<path fill-rule="evenodd" clip-rule="evenodd" fill="#0050a0" d="M131.262,30.532c0,0-2.246,2.34-4.003,0.822
	c-0.55-0.554-0.824-1.46-0.824-2.718V19.82h5.547v-0.123h0.058v-5.166h-0.058v-0.326h-5.547V7.799h-6.547l0,6.406h-2.324v5.615
	h1.947v8.906c0,1.288,0.149,2.464,0.447,3.526c0.298,1.063,0.769,1.97,1.413,2.718c0.643,0.749,1.476,1.333,2.496,1.752
	c1.02,0.419,2.253,0.629,3.697,0.629c3.304,0.005,5.096-1.873,5.581-2.012L131.262,30.532z"/>
<path fill-rule="evenodd" clip-rule="evenodd" fill="#0050a0" d="M90.678,17.247c-1.112-0.984-2.388-1.737-3.831-2.259
	c-1.443-0.522-2.944-0.783-4.503-0.783c-1.559,0-3.068,0.261-4.527,0.783c-1.46,0.522-2.745,1.275-3.856,2.259
	c-1.112,0.984-1.999,2.2-2.662,3.646c-0.664,1.447-0.995,3.095-0.995,4.944c0,1.85,0.331,3.497,0.995,4.943
	c0.663,1.447,1.55,2.662,2.662,3.646c1.111,0.984,2.396,1.738,3.856,2.259c1.459,0.521,2.968,0.783,4.527,0.783
	c1.559,0,3.06-0.261,4.503-0.783c1.443-0.521,2.719-1.275,3.831-2.259c1.111-0.984,1.998-2.199,2.662-3.646
	c0.663-1.446,0.995-3.094,0.995-4.943c0-1.849-0.332-3.496-0.995-4.944C92.676,19.447,91.789,18.231,90.678,17.247z M85.728,30.444
	c-0.763,1.134-1.891,1.7-3.383,1.7c-1.526,0-2.662-0.566-3.408-1.7c-0.746-1.133-1.119-2.669-1.119-4.608
	c0-1.938,0.373-3.474,1.119-4.608c0.746-1.133,1.882-1.7,3.408-1.7c1.493,0,2.62,0.567,3.383,1.7
	c0.763,1.134,1.144,2.67,1.144,4.608C86.872,27.775,86.49,29.311,85.728,30.444z"/>
<path fill-rule="evenodd" clip-rule="evenodd" fill="#0050a0" d="M109.554,14.205v15.36c-0.696,0.825-1.346,1.428-1.948,1.802
	c-0.617,0.383-1.381,0.575-2.289,0.575c-1.04,0-1.802-0.294-2.289-0.884c-0.487-0.589-0.731-1.68-0.731-3.272v-13.58h-7.16v14.42
	c0,2.771,0.592,4.937,1.778,6.5c1.185,1.563,3.093,2.343,5.723,2.343c1.656,0,3.076-0.317,4.262-0.951
	c0.93-0.497,1.814-1.146,2.655-1.944v2.894h7.209v-0.531V14.205h-7.16H109.554z"/>
<path fill-rule="evenodd" clip-rule="evenodd" fill="#0050a0" d="M143.997,23.43h-7.209c-0.664,0-1.202,0.539-1.202,1.203
	s0.538,1.203,1.202,1.203h7.209c0.664,0,1.201-0.539,1.201-1.203S144.661,23.43,143.997,23.43z"/>
<path fill-rule="evenodd" clip-rule="evenodd" fill="#0050a0" d="M133.894,7.985l5.088-5.115c0.468-0.471,0.467-1.232-0.003-1.701
	c-0.47-0.469-1.231-0.468-1.699,0.003l-5.088,5.115c-0.468,0.471-0.467,1.233,0.003,1.702
	C132.665,8.457,133.425,8.456,133.894,7.985z"/>
<path fill-rule="evenodd" clip-rule="evenodd" fill="#0050a0" d="M133.719,41.141c-0.461-0.463-1.21-0.464-1.673-0.003
	c-0.463,0.461-0.464,1.209-0.003,1.672l5.011,5.024c0.461,0.462,1.21,0.464,1.673,0.003c0.463-0.461,0.464-1.209,0.003-1.672
	L133.719,41.141z"/>
<path fill-rule="evenodd" clip-rule="evenodd" fill="#0050a0" d="M50.148,41.72l-26.429-6.055l-8.745-2.004l-7.064-1.618
	l-0.821-9.008L46.581,5.447c0.607-0.27,0.88-0.982,0.61-1.59c-0.27-0.608-0.981-0.882-1.588-0.611L4.423,21.646l1.537,12.421
	l8.479,1.943l-0.626,2.74c-0.494,2.162,0.856,4.315,3.014,4.81l9.77,2.239c2.158,0.494,4.309-0.857,4.802-3.019l0.626-2.74
	l17.587,4.03c0.647,0.148,1.292-0.257,1.441-0.906C51.2,42.514,50.795,41.868,50.148,41.72z M28.361,41.671
	c-0.198,0.865-1.058,1.405-1.921,1.208l-8.207-1.88c-0.863-0.198-1.403-1.059-1.206-1.924l0.537-2.349l11.334,2.597L28.361,41.671z"
	/>
<path fill-rule="evenodd" clip-rule="evenodd" fill="#0050a0" d="M2.46,22.463c-0.067-0.662-0.658-1.144-1.318-1.076
	C0.481,21.455,0,22.046,0.067,22.708l1.137,11.185c0.067,0.662,0.658,1.144,1.318,1.076c0.661-0.067,1.142-0.659,1.075-1.321
	L2.46,22.463z"/>
<path fill-rule="evenodd" clip-rule="evenodd" fill="#0050a0" d="M40.061,31.96c-0.471,0.33-1.225,0.494-2.261,0.494
	c-1.005,0-1.994-0.194-2.967-0.584c-0.974-0.389-1.994-0.973-3.062-1.752l-3.109,4.133c1.193,0.929,2.598,1.677,4.215,2.246
	c1.617,0.569,3.195,0.854,4.734,0.854c1.57,0,2.951-0.188,4.145-0.562c1.193-0.374,2.198-0.883,3.014-1.527
	c0.816-0.644,1.429-1.4,1.837-2.269c0.408-0.868,0.612-1.811,0.612-2.83c0-1.018-0.188-1.894-0.565-2.628
	c-0.377-0.734-0.871-1.355-1.484-1.864c-0.612-0.509-1.288-0.935-2.025-1.28c-0.738-0.344-1.484-0.651-2.237-0.921
	c-0.597-0.209-1.17-0.411-1.719-0.606c-0.55-0.194-1.036-0.396-1.46-0.607c-0.424-0.209-0.762-0.441-1.013-0.696
	c-0.252-0.254-0.377-0.562-0.377-0.921c0-1.168,0.879-1.752,2.637-1.752c0.816,0,1.632,0.165,2.449,0.494
	c0.816,0.33,1.649,0.794,2.496,1.393l3.109-3.953c-1.005-0.719-2.183-1.37-3.532-1.954c-1.35-0.584-2.92-0.876-4.71-0.876
	c-1.35,0-2.575,0.173-3.674,0.517c-1.099,0.344-2.041,0.816-2.826,1.415c-0.785,0.599-1.389,1.333-1.813,2.201
	c-0.424,0.869-0.636,1.812-0.636,2.83c0,0.929,0.188,1.745,0.565,2.448c0.377,0.704,0.863,1.318,1.46,1.842
	c0.596,0.524,1.256,0.966,1.978,1.325c0.722,0.359,1.444,0.674,2.167,0.943c0.596,0.24,1.177,0.457,1.743,0.651
	c0.565,0.195,1.075,0.412,1.531,0.652c0.455,0.24,0.816,0.502,1.083,0.786c0.266,0.285,0.4,0.606,0.4,0.966
	C40.767,31.167,40.532,31.631,40.061,31.96z"/>
<path fill-rule="evenodd" clip-rule="evenodd" fill="#0050a0" d="M61.894,13.804c-2.669,0.057-5.325,1.808-6.809,2.977V5.38h-7.209
	v32.087h7.209V21.623c1.198-0.932,3.05-2.18,4.406-2.205c3.05-0.039,2.804,2.808,2.804,2.808v15.241h7.209V22.226
	C69.503,22.226,70.05,13.715,61.894,13.804z"/>
</svg>
