<?xml version="1.0" encoding="utf-8"?>
<!-- Generator: Adobe Illustrator 17.0.0, SVG Export Plug-In . SVG Version: 6.00 Build 0)  -->
<!DOCTYPE svg PUBLIC "-//W3C//DTD SVG 1.1//EN" "http://www.w3.org/Graphics/SVG/1.1/DTD/svg11.dtd">
<svg version="1.1" id="Livello_1" xmlns="http://www.w3.org/2000/svg" xmlns:xlink="http://www.w3.org/1999/xlink" x="0px" y="0px"
	 width="34px" height="34px" viewBox="0 0 34 34" enable-background="new 0 0 34 34" xml:space="preserve">
<path fill="#FFFFFF" d="M17,0C7.611,0,0,7.611,0,17c0,9.389,7.611,17,17,17s17-7.611,17-17C34,7.612,26.389,0,17,0z M17,32
	C8.716,32,2,25.284,2,17S8.716,2,17,2s15,6.716,15,15S25.284,32,17,32z"/>
<path fill="#FFFFFF" d="M24.23,9.385c-1.803-1.608-4.005-2.413-6.608-2.413c-1.94,0-3.734,0.449-5.384,1.346
	c-1.649,0.897-2.962,2.154-3.94,3.77C7.32,13.706,6.831,15.5,6.831,17.472c0,2.652,0.816,4.846,2.449,6.584
	c1.633,1.737,3.856,2.607,6.669,2.607c1.713,0,3.177-0.291,4.389-0.873l0.097-2.207c-1.343,0.711-2.829,1.067-4.462,1.067
	c-1.94,0-3.581-0.627-4.923-1.88c-1.343-1.252-2.013-3.043-2.013-5.372s0.828-4.316,2.485-5.966
	c1.657-1.649,3.609-2.473,5.856-2.473s4.058,0.602,5.432,1.806c1.374,1.205,2.061,2.923,2.061,5.153
	c0,1.212-0.222,2.195-0.667,2.947c-0.445,0.752-0.998,1.128-1.661,1.128c-1.003,0-1.504-0.877-1.504-2.542
	c0-0.776,0.137-2.452,0.412-5.452h-1.94c-0.065,1-0.097,1.33-0.097,1.572c-0.614-1.084-1.584-1.604-2.909-1.604
	c-1.326,0-2.449,0.513-3.371,1.515c-0.922,1.003-1.382,2.221-1.382,3.643c0,1.423,0.355,2.582,1.067,3.47
	c0.711,0.89,1.681,1.335,2.91,1.335c1.632,0,2.837-0.767,3.613-2.303c0.452,1.504,1.487,2.256,3.104,2.256
	c1.18,0,2.222-0.554,3.128-1.661c0.905-1.107,1.358-2.591,1.358-4.449C26.934,13.124,26.033,10.994,24.23,9.385z M19.149,17.567
	c-0.227,0.793-0.61,1.41-1.152,1.856c-0.542,0.445-1.136,0.667-1.782,0.667c-0.647,0-1.184-0.246-1.613-0.74
	c-0.429-0.493-0.643-1.2-0.643-2.122s0.265-1.717,0.79-2.388c0.525-0.67,1.192-1.007,2-1.007c1.39,0,2.214,0.833,2.474,2.498
	C19.205,16.767,19.181,17.179,19.149,17.567z"/>
</svg>
