<?xml version="1.0" encoding="utf-8"?>
<!-- Generator: Adobe Illustrator 17.0.0, SVG Export Plug-In . SVG Version: 6.00 Build 0)  -->
<!DOCTYPE svg PUBLIC "-//W3C//DTD SVG 1.1//EN" "http://www.w3.org/Graphics/SVG/1.1/DTD/svg11.dtd">
<svg version="1.1" id="Livello_1" xmlns="http://www.w3.org/2000/svg" xmlns:xlink="http://www.w3.org/1999/xlink" x="0px" y="0px"
	 width="225.022px" height="180.32px" viewBox="0 0 225.022 180.32" enable-background="new 0 0 225.022 180.32"
	 xml:space="preserve">
<path fill="#FCDFC9" d="M138.408,82.101c-3.242-1.555-6.39-3.262-9.205-5.533c-1.979-1.596-3.659-3.425-4.892-5.663
	c-1.928-3.5-3.114-7.266-3.717-11.177c-0.267-1.728-0.41-3.543-0.133-5.326c0.054-0.353,0.021-0.719,0.025-1.077
	c0.018-1.958,0.017-1.958-1.89-2.493c-1.572-0.441-2.094-1.108-2.121-2.772c-0.024-1.436-0.038-2.848,0.549-4.233
	c0.826-1.952,2.01-2.74,4.059-2.334c0.715,0.142,0.897-0.075,1.008-0.705c0.465-2.64,1.318-5.146,2.588-7.521
	c1.893-3.543,4.027-6.905,6.938-9.719c0.397-0.384,0.888-0.726,0.954-1.353c0.602-0.315,1.209-0.109,1.811-0.012
	c9.948,1.607,19.831,3.573,29.742,5.394c5.865,1.077,11.733,2.142,17.609,3.17c0.405,0.071,0.81,0.141,1.212,0.228
	c2.048,0.438,2.256,0.766,2.016,2.833c-0.688,5.927-1.905,11.767-2.796,17.662c-0.092,0.602-0.291,1.194-0.205,1.99
	c1.327-0.303,2.627-0.273,3.854,0.358c2.511,1.292,3.621,3.94,2.899,6.965c-0.676,2.832-2.919,4.698-5.704,4.749
	c-2.664,0.048-2.693,0.043-3.147,2.664c-0.387,2.229-0.696,4.47-1.27,6.663c-0.192,0.483-0.24,1.014-0.488,1.479
	c-1.786,1.839-4.089,2.937-6.294,4.097c-3.495,1.837-7.082,3.535-11.033,4.25c-0.862,0.156-1.713,0.308-2.593,0.313
	c-5.753,0.038-11.52,0.238-17.117-1.494C140.094,83.201,139.028,83.07,138.408,82.101z"/>
<path fill="#F08241" d="M21.384,101.145c-3.24-1.98-6.616-2.373-10.149-0.858c-1.754,0.752-3.555,1.347-5.422,1.738
	c-0.302,0.063-0.604,0.148-0.909,0.165c-2.964,0.159-2.648,0.151-3.447-2.27c-1.177-3.567,0.278-6.531,1.914-9.48
	c0.548-0.987,1.21-1.909,1.808-2.869c0.479-0.77,0.63-1.59,0.502-2.508c-0.144-1.026-0.334-2.039-0.732-2.986
	c-1.146-2.735-1.518-5.643-1.995-8.529c-0.05-0.301-0.089-0.628-0.027-0.919c0.573-2.677,1.301-5.296,3.071-7.486
	c0.516-0.64,1.071-1.26,1.505-1.953c0.891-1.425,1.323-2.99,1.28-4.69c-0.167-6.525,1.362-12.76,3.538-18.823
	c1.569-4.377,3.966-8.34,6.995-11.913c2.264-2.67,4.514-5.315,7.349-7.436c3.653-2.734,7.755-4.163,12.229-4.684
	c3.894-0.455,7.791-0.549,11.684-0.01c2.832,0.391,5.477,1.366,8.009,2.668c2.605,1.339,5.212,2.679,7.821,4.013
	c2.364,1.209,4.859,1.587,7.474,1.12c0.25-0.045,0.501-0.119,0.739-0.206c1.149-0.423,1.333-0.837,0.901-1.985
	c-0.789-2.094,0.297-3.661,2.548-3.714c1.17-0.027,1.971,0.483,2.419,1.545c0.765,1.812,0.762,3.622-0.211,5.344
	c-1.308,2.314-2.993,4.293-5.362,5.613c-0.984,0.547-1.939,1.146-2.909,1.72c-0.483,0.701-1.273,0.848-2.002,1.056
	c-5.259,1.505-10.588,2.483-16.093,2.485c-5.46,0.005-10.902-0.027-16.232-1.41c-1.142-0.297-1.44,0.349-1.666,1.242
	c-1.074,4.236-2.153,8.47-3.232,12.705c-1.538,6.027-3.097,12.05-4.618,18.083c-0.556,2.207-0.732,2.333-3.051,2.406
	c-2.263,0.072-3.561,1.341-3.6,3.522c-0.045,2.507,1.253,4.077,3.512,4.237c0.881,0.063,1.729-0.059,2.574-0.357
	c1.452-0.513,1.71-0.343,2.24,1.149c1.221,3.442,2.566,6.831,4.492,9.957c0.763,1.034,1.545,2.055,2.288,3.099
	c2.798,3.936,3.402,8.276,2.229,12.914c-0.257,1.016-0.812,1.506-1.895,1.257c-1.995-0.46-3.984-0.294-5.966,0.095
	C27.231,104.922,23.96,104.135,21.384,101.145z"/>
<path fill="#FCDFC9" d="M34.035,86.999c-0.763-0.972-1.382-2.039-1.841-3.179c-0.996-2.473-2.279-4.833-2.948-7.436
	c-0.177-0.686-0.542-0.723-1.135-0.423c-1.761,0.888-3.552,1.029-5.27-0.092c-2.438-1.591-2.379-5.975,0.039-7.59
	c0.855-0.572,1.778-0.434,2.68-0.455c1.643-0.039,1.648-0.001,2.072-1.648c2.637-10.281,5.271-20.562,7.908-30.843
	c0.577-2.253,0.577-2.25,2.889-1.724c4.428,1.008,8.925,1.276,13.454,1.317c6.891,0.062,13.587-1.041,20.125-3.176
	c1.026,1.275,2.015,2.582,3.085,3.818c1.497,1.726,2.646,3.643,3.449,5.778c0.177,0.471,0.298,0.943,1.079,0.671
	c2.103-0.738,3.214-0.375,4.5,1.431c0.845,1.185,1.293,2.542,1.48,3.996c0.159,1.232-0.378,2.077-1.35,2.711
	c-0.386,0.25-0.81,0.447-1.233,0.633c-0.676,0.299-0.765,0.709-0.663,1.466c0.315,2.325,0.929,4.618,0.777,7.003
	c-0.053,0.821-0.048,1.636-0.297,2.428c-0.41,0.67-1.098,0.696-1.759,0.717c-1.913,0.059-3.77-0.198-5.547-0.969
	c1.143,0.939,2.467,1.327,3.956,1.431c1.107,0.076,2.222-0.471,3.309,0.069c-0.429,2.314-0.726,4.66-1.583,6.873
	c-1.47,3.804-3.368,7.317-6.137,10.401c-1.845,2.055-3.995,3.646-6.162,5.268c-3.841,2.385-7.892,4.1-12.483,4.491
	C48.732,90.618,41.267,89.754,34.035,86.999z"/>
<path fill="#F8F8F8" d="M138.408,82.101c2.958,1.205,6.038,1.823,9.209,2.205c3.846,0.463,7.692,0.303,11.526,0.19
	c2.229-0.064,4.414-0.843,6.512-1.681c4.346-1.737,8.423-3.981,12.292-6.609c0.177-0.169,0.345-0.354,0.596-0.421
	c0.131-0.018,0.238,0.02,0.324,0.123c1.503,2.354,2.924,4.755,4.553,7.035c1.709,2.391,3.156,4.969,4.719,7.465
	c-1.59,1.322-3.212,2.6-4.948,3.726c-0.671-0.999-1.343-2-1.979-2.946c-0.468,0.062-0.367,0.287-0.331,0.476
	c0.527,2.695,1.11,5.381,1.568,8.088c0.523,3.096,1.149,6.174,1.728,9.257c0.561,2.982,1.044,5.98,1.663,8.953
	c0.629,3.024,1.122,6.078,1.68,9.117c0.192,1.044,0.438,2.079,0.596,3.129c0.09,0.599,0.336,0.95,0.952,0.996
	c-0.139,0.71-0.681,0.573-1.167,0.555c-0.813-0.213-1.635-0.059-2.454-0.067c-13.301-0.153-26.598,0.638-39.896,0.263
	c-5.029-0.143-10.058-0.216-15.087-0.273c-0.565-0.006-1.137-0.022-1.602-0.426c0.846-4.293,1.688-8.587,2.538-12.879
	c1.058-5.334,2.136-10.665,3.179-16.002c0.312-1.596,0.474-3.222,0.95-4.788c0.028-0.091-0.138-0.243-0.213-0.366
	c-1.635-1.142-3.719-1.632-4.935-3.385c2.572-3.709,5.145-7.417,7.717-11.127l0.002-0.001
	C138.345,82.577,138.402,82.352,138.408,82.101z"/>
<path fill="#3F2417" d="M178.865,75.908c-0.099-0.006-0.195,0.003-0.291,0.027c-0.779-0.081-0.402-0.598-0.373-0.986
	c0.598-3.127,1.207-6.253,1.617-9.411c0.079-0.613,0.355-0.799,0.916-0.691c0.303,0.059,0.606,0.11,0.907,0.176
	c3.132,0.693,6.266-1.242,6.717-4.702c0.437-3.348-0.393-5.407-3.719-6.49c-0.913-0.297-1.405-0.216-3.163,0.252
	c-0.258-0.395-0.054-0.793-0.009-1.191c0.495-4.293,1.644-8.477,2.142-12.765c0.273-2.349,0.706-4.671,1.03-7.01
	c0.174-1.254,0.132-1.365-1.178-1.608c-3.432-0.641-6.87-1.25-10.307-1.872c-6.014-1.09-12.039-2.115-18.036-3.291
	c-7.206-1.411-14.447-2.623-21.681-3.873c-0.299-0.051-0.582-0.183-0.872-0.276c-1.683-1.799-3.315-3.635-4.674-5.706
	c-2.632-4.011-4.173-8.331-3.979-13.191c0.044-1.076,0.006-2.154,0.006-3.208c0.476-0.271,0.701,0.129,0.974,0.305
	c3.672,2.375,7.664,3.889,11.994,4.512c1.065,0.153,2.126,0.35,3.189,0.507c0.918,0.137,1.843,0.165,2.758-0.024
	c4.626-0.955,9.285-1.81,14.008-1.885c5.336-0.085,10.757-0.093,15.777,2.016c6.516,2.737,12.439,6.384,16.353,12.562
	c2.585,4.081,4.26,8.546,5.294,13.24c0.762,3.46,1.431,6.945,1.211,10.527c-0.218,3.544-0.703,7.05-1.554,10.496
	c-1.239,5.018-3.17,9.751-5.854,14.182c-1.951,3.219-4.554,5.806-7.518,8.07C179.985,75.032,179.427,75.471,178.865,75.908z"/>
<path fill="#C26075" d="M71.333,134.261c0.27,2.445,0.518,4.892,0.816,7.332c0.604,4.945,1.032,9.89,0.441,14.873
	c-0.204,1.721-0.25,1.813-1.929,1.837c-4.051,0.059-8.092,0.486-12.148,0.387c-1.282-0.032-2.565-0.04-3.847-0.06
	c-2.553,0.227-5.111,0.561-7.628-0.257c-1.152-0.36-2.331-0.284-3.509-0.216c-0.237,0.104-0.435,0.387-0.662,0.377
	c-2.537-0.114-5.111,0.405-7.606-0.414c-0.548-0.403-1.188-0.255-1.79-0.271c-4.15-0.124-8.305-0.07-12.453-0.35
	c-1.181-0.079-2.339-0.3-3.513-0.378c-0.777-0.051-1.054-0.42-1.016-1.195c0.048-0.969-0.033-1.938,0.072-2.914
	c0.121-1.118,0.165-2.253,0.125-3.377c-0.096-2.678,0.271-5.307,0.693-7.935c0.397-2.477,0.627-4.98,1.198-7.428
	c0.687-0.402,1.035,0.137,1.394,0.539c0.504,0.567,0.943,1.194,1.572,1.654c1.128-1.9,0.859-3.778-0.601-5.328
	c-0.528-0.56-1.571-0.94-1.103-2.067c0.621-1.425,1.242-2.849,1.863-4.273c0.214-0.675,0.78-0.846,1.353-0.744
	c1.808,0.322,3.583-0.124,5.373-0.129c8.269-0.025,16.539-0.012,24.809-0.011c0.514,0,1.026,0.041,1.533,0.099
	c0.795,0.118,1.373,0.628,1.992,1.087c3.96,2.943,8.096,5.583,12.804,7.189C70.548,132.623,71.346,133.059,71.333,134.261z"/>
<path fill="#72ADD8" d="M128.864,131.256c2.203-0.231,4.414-0.09,6.617-0.038c9.852,0.235,19.709,0.476,29.558,0.206
	c7.133-0.195,14.262-0.216,21.393-0.259c0.587-0.003,1.24-0.225,1.749,0.297c-1.095,1.284-2.837,1.275-4.169,2.085
	c-0.199,0.017-0.397-0.007-0.58-0.096c-0.907-0.438-0.432,0.169-0.354,0.474c0.124,0.318,0.224,0.645,0.35,0.962
	c0.056,0.129,0.101,0.263,0.143,0.396c0.801,2.438,2.022,4.664,3.412,6.804c0.212,0.347,0.428,0.691,0.711,0.987
	c0.228,0.245,0.457,0.486,0.654,0.755c0.171,0.172,0.344,0.594,0.501-0.009c0.064-0.249,0.217-0.419,0.451-0.522
	c0.473-0.133,0.923-0.143,1.312,0.216c0.336,2.016,0.699,4.027,1.002,6.048c0.507,3.385,0.975,6.777,1.46,10.167
	c0.21,1.467,0.439,2.932,0.622,4.404c0.061,0.495,0.234,0.735,0.76,0.723c0.509-0.011,1.019,0.046,1.529,0.074
	c-0.084,0.861-0.813,0.655-1.281,0.682c-4.086,0.23-8.18,0.288-12.263,0.588c-0.513,0.038-1.032,0.006-1.422-0.417
	c-0.428-2.107-0.868-4.214-1.278-6.324c-0.555-2.857-2.066-5.226-3.774-7.497c-3.78-5.028-8.988-7.729-15.006-8.919
	c-3.725-0.736-7.411-0.495-10.998,1.098c-3.043,1.353-5.892,2.964-8.217,5.327c-1.724,1.752-3.242,3.705-3.925,6.175
	c-0.725,2.619-1.638,5.183-1.979,7.903c-0.096,0.762-0.087,1.536-0.246,2.289c-0.466,0.411-1.034,0.42-1.593,0.348
	c-3.447-0.445-6.939-0.014-10.377-0.552c-0.609-0.096-1.472,0.311-1.721-0.705c0.421-0.066,0.741-0.145,0.785-0.723
	c0.364-4.877,1.7-9.584,2.589-14.369c1.088-5.849,2.328-11.669,3.495-17.504C128.841,131.981,128.834,131.615,128.864,131.256z"/>
<path fill="#F8F8F8" d="M55.332,124.398c-8.993,0.012-17.985,0.024-26.976,0.042c-0.562,0.001-1.128,0.033-1.689,0.088
	c-1.126,0.111-2.25,0.2-3.372-0.033c-0.57-0.118-1.125-0.132-1.593,0.299c-0.01-5.125-0.135-10.255,0.026-15.376
	c0.06-1.929,0.21-3.867,0.262-5.807c0.024-0.896-0.096-1.719-0.604-2.466c0.526,0.128,0.858,0.549,1.266,0.852
	c2.211,1.643,4.66,2.343,7.404,1.887c0.86-0.143,1.716-0.311,2.577-0.453c1.496-0.247,2.98-0.188,4.424,0.285
	c0.707,0.231,1.1,0.198,1.319-0.659c1.242-4.864,0.669-9.362-2.498-13.401c-0.663-0.846-1.227-1.771-1.837-2.659
	c0.066-0.663,0.509-0.372,0.777-0.253c1.786,0.792,3.695,1.189,5.557,1.731c2.163,0.63,4.365,1.063,6.635,1.024
	c1.383-0.024,2.754,0.21,4.122,0.257c4.054,0.139,8.061-0.241,11.899-1.741c1.486-0.582,2.866-1.369,4.303-2.043
	c0.512-0.24,0.989-0.555,1.587-0.5c-0.333,0.55-0.007,0.909,0.423,1.121c0.594,0.292,1.221,0.548,1.861,0.709
	c1.689,0.426,3.393,0.789,5.155,0.666c0.652,0.86,0.466,1.872,0.407,2.812c-0.088,1.368,0.154,2.488,1.486,3.144
	c-0.371,0.77-1.107,0.659-1.745,0.674c-2.355,0.055-4.717,0.144-7.245-0.801c0.754,10.654-0.876,21.093,0.213,31.533
	c-0.115,0.234-0.327,0.495-0.553,0.273c-1.074-1.056-2.43-0.702-3.693-0.806c-0.846-0.057-1.594-0.403-2.275-0.868
	c-3.18-2.172-6.353-4.357-9.078-7.111c-2.562-2.589-5.277-5.039-7.479-7.962c-0.534-0.71-0.928-0.717-1.604-0.141
	c-2.237,1.907-2.193,1.829-0.363,4.182c2.979,3.834,6.558,7.062,10.125,10.311C54.903,123.531,55.485,123.731,55.332,124.398z"/>
<path fill="#FDC60C" d="M97.094,41.646c-1.356-1.229-2.947-2.137-4.396-3.24c-0.063-0.999,1.034-1.474,1.153-2.512
	c-0.978,0.345-1.1,1.6-2.119,1.719c-1.877-1.288-3.504-2.86-5.107-4.461c0.104-1.069,1.441-1.019,1.763-1.99
	c-0.914,0.276-1.31,1.347-2.301,1.366c-1.053-1.392-2.147-2.759-2.676-4.464c0.575-0.814,1.237-1.514,2.271-1.724
	c0.131,0.057,0.24,0.144,0.324,0.26c0.014,0.069,0.025,0.138,0.041,0.207c-0.005,0.208-0.033,0.416-0.048,0.624
	c0.009,0.587,0.098,1.134,0.822,1.208c0.399,0.041,0.687-0.205,0.739-0.595c0.135-0.998-0.681-1.067-1.325-1.295
	c-0.128-0.077-0.24-0.17-0.342-0.276c0.375-1.223,1.26-1.77,2.479-1.873c0.783,1.207,1.572,2.41,2.346,3.622
	c1.65,2.588,4.017,4.383,6.617,5.885c1.917,1.109,3.871,2.184,5.551,3.609c3.584,3.041,5.078,6.942,4.507,11.669
	c-0.393,3.255-0.785,6.518-0.845,9.805c-0.192,1.254,0.117,2.517-0.153,3.784c-0.286,1.341-0.396,2.72-0.992,3.982
	c-0.736,3.462-1.286,6.953-1.631,10.475c-0.14,1.43-0.549,2.812-0.634,4.254c-0.164,2.763-0.364,5.524-0.602,8.283
	c-0.364,4.237-0.61,8.484-1.09,12.715c-0.345,3.047-0.465,6.12-0.541,9.198c-0.099,3.954-0.14,7.908-0.221,11.862
	c-0.235,1.95-0.235,1.949-2.213,1.769c-1.08-0.098-2.144-0.064-3.188,0.294c-0.466,0.161-0.951,0.439-1.461,0.089
	c-0.493-0.914-0.39-1.857-0.148-2.807c0.39-0.785,1.226-0.476,1.845-0.714c-0.609-0.164-1.329,0.348-1.821-0.361
	c-0.238-1.703,0.133-3.372,0.267-5.05c0.445-0.916,1.262-0.342,1.921-0.462c-0.657-0.27-1.549,0.066-1.941-0.809
	c0.001-2.355,0.099-4.702,0.328-7.041c0.606-0.91,1.507-0.196,2.228-0.432c-0.61-0.215-1.425,0.048-1.878-0.675
	c-0.386-1.922-0.033-3.78,0.461-5.625c0.736-0.311,1.455,0.036,2.298,0.035c-0.851-0.18-1.796,0.057-2.183-0.922
	c-0.24-1.536-0.372-3.063,0.291-4.536c0.599-0.795,1.434-0.528,2.154-0.495c-0.594-0.441-1.582,0.255-2.127-0.618
	c-0.445-1.923,0.006-3.791,0.326-5.664c0.615-0.942,1.546-0.429,2.309-0.518c-0.714-0.059-1.503-0.057-1.991-0.812
	c-0.499-1.843,0.102-3.625,0.285-5.428c0.645-1.024,1.564-0.306,2.345-0.386c-0.666-0.294-1.5,0.05-2.139-0.474
	c-0.185-0.653-0.009-1.296,0.035-1.944c0.38-1.605,0.245-3.307,0.923-4.854c0.745-0.371,1.453,0.244,2.226,0.101
	c-0.81-0.147-1.682-0.074-2.139-0.942c-0.131-2.124,0.175-4.184,0.874-6.188c0.75-0.672,1.609,0.021,2.433-0.181
	c-0.77-0.367-1.757,0.072-2.349-0.741c-0.076-1.9,0.329-3.719,0.938-5.501c0.924-0.733,1.931,0.122,2.947-0.164
	c-0.806-0.637-2.018-0.19-2.655-1.092c-0.252-1.242,0.027-2.393,0.58-3.498c0.382-0.569,0.2-1.252,0.384-1.862
	c0.66-0.686,1.458-0.197,2.345-0.27c-0.729-0.525-1.688-0.001-2.196-0.725c0.112-2.145-0.126-4.278-0.232-6.416
	c0.459-1.099,1.813-0.743,2.521-1.525c-0.993-0.03-1.847,0.764-2.834,0.306c-0.652-1.431-1.536-2.724-2.422-4.014
	c-0.028-1.031,1.011-1.479,1.341-2.42C98.226,40.164,98.205,41.769,97.094,41.646z"/>
<path fill="#FCDFC9" d="M93.989,125.892c1.632-0.862,3.34-1.145,5.16-0.729c1.114,0.255,1.119,0.225,1.354-1.008
	c0.027-0.144,0.118-0.277,0.18-0.415c0.006,1.243,0.315,2.247,1.176,3.318c1.305,1.625,1.64,3.711,1.127,5.828
	c-0.303,1.251-1.399,1.858-2.205,2.7c-0.21,0.219-0.466,0.393-0.702,0.588c-1.338,0.751-2.697,0.306-4.029,0.022
	c-1.702-0.361-1.693-0.402-1.696,1.413c0.003,0.246,0,0.489-0.011,0.735c-0.074,0.492,0.009,1.066-0.661,1.237
	c-0.017-1.281-0.041-2.563-0.048-3.845c-0.005-0.681-0.175-0.951-0.999-0.904c-2.348,0.132-4.682,0.438-7.044,0.447
	c-1.258,0.004-2.538,0.347-3.815,0.228c-3.252-0.301-6.505-0.651-9.6-1.786c-0.663-0.243-0.813-0.028-0.841,0.543
	c-0.185-0.942-0.906-1.257-1.708-1.541c-5.291-1.866-9.996-4.746-14.292-8.324c-2.333-2.226-4.829-4.273-7.084-6.587
	c-2.187-2.243-4.104-4.701-6.114-7.153c0.96-1.305,2.451-1.928,3.376-3.163c1.045,0.589,1.51,1.562,2.14,2.337
	c1.917,2.367,4.196,4.371,6.3,6.547c2.726,2.818,5.958,5.003,9.148,7.234c0.54,0.378,1.135,0.71,1.815,0.816
	c1.667,0.321,3.009,1.501,4.701,1.761c3.102,1.913,6.657,2.298,10.119,2.946c3.196,0.599,6.418,0.492,9.636,0.027
	c1.187-0.171,2.133-0.489,2.649-1.728C92.354,126.629,93.03,126.024,93.989,125.892z"/>
<path fill="#FDC60C" d="M93.953,137.615c0-0.814,0-1.629,0-2.642c1.992,1.084,4.05,1.206,6.127,1.2
	c-0.186,3.27-0.445,6.537-0.537,9.81c-0.072,2.607-0.158,5.225,0.217,7.824c0.007,0.051,0.003,0.104,0.011,0.153
	c0.541,3.465,1.646,3.796,4.372,3.431c0.051-0.007,0.102-0.015,0.151-0.027c1.923-0.435,3.785-0.47,5.358,0.966
	c1.792,1.637,3.16,3.498,3.105,6.093c-0.014,0.61-0.101,1.231,0.077,1.836c0.562,0.49-0.047,0.91-0.111,1.347
	c-0.345,2.31-1.189,4.423-2.64,6.274c-1.083,1.449-2.375,2.648-4.074,3.347c-1.771,0.975-3.495,2.059-5.541,2.401
	c-1.532-1.09-2.456-2.754-3.777-4.044c-0.285-0.277-0.481-0.678-0.277-1.125c0.94-0.294,1.882-0.588,2.823-0.883
	c0.783,0.207,0.996,0.996,1.622,1.577c-0.27-0.726-1.013-1.148-0.764-1.921c1.125-0.743,2.166-1.581,2.979-2.672
	c0.668-0.001,1.026,0.572,1.605,0.876c-0.399-0.51-1.098-0.684-1.167-1.382c0.258-0.434,0.521-0.866,0.774-1.302
	c0.179-0.308,0.366-0.611,0.508-0.935c0.457-1.027,0.591-2.122-0.109-3.033c-0.648-0.843-1.64-0.594-2.543-0.346
	c-0.144,0.039-0.298,0.04-0.449,0.06c-0.246-0.503,0.102-0.854,0.339-1.284c-0.452,0.515-0.629,1.221-1.335,1.424
	c-2.549-0.077-4.505-1.164-5.79-3.395c0.202-0.656,0.933-0.714,1.312-1.154c-0.579,0.234-1.058,0.771-1.782,0.606
	c-0.636-1.62-1.234-3.249-1.119-5.036c0.468-0.661,1.314-0.46,1.865-0.887c-0.646-0.039-1.288,0.633-1.998,0.171
	c-0.228-1.717-0.141-3.438-0.07-5.16c0.313-0.538,0.969-0.277,1.386-0.576c-0.474,0.059-0.962,0.347-1.38-0.133
	c0.24-1.85,0.081-3.738,0.533-5.568c0.36-0.319,0.812-0.328,1.371-0.36c-0.505-0.238-1.032,0.072-1.378-0.326
	c-0.182-1.083,0.095-2.16,0.035-3.242c0.358-0.375,0.151-0.879,0.3-1.302c0.571-0.487,1.312-0.259,1.937-0.437
	C95.285,137.634,94.55,138.308,93.953,137.615z"/>
<path fill="#FCDFC9" d="M183.188,94.134c1.379-1.602,3.009-2.869,4.948-3.726c3.102,4.778,6.037,9.652,8.869,14.597
	c1.809,3.158,3.843,6.19,5.879,9.21c0.951,1.412,2.378,2.418,3.73,3.426c1.53,1.142,2.796,2.563,4.256,3.778
	c1.256,1.047,2.445,2.188,3.717,3.227c0.404,0.329,0.357,0.581-0.003,0.851c-2.463,1.855-4.547,4.143-6.929,6.093
	c-0.895,0.733-1.021,0.741-1.569-0.334c-1.065-2.09-2.08-4.205-3.449-6.501c0,0.876-0.015,1.462,0.005,2.049
	c0.018,0.573-0.056,1.122-0.269,1.659c-0.363,0.91-1.149,1.182-1.947,0.617c-0.873-0.619-1.149-1.549-1.162-2.562
	c-0.024-1.749-0.054-3.5-0.005-5.247c0.025-0.917-0.188-1.725-0.661-2.484c-4.128-6.615-7.954-13.417-12.321-19.885
	C185.217,97.334,184.215,95.724,183.188,94.134z"/>
<path fill="#FCDFC9" d="M130.382,93.836c1.284,0.792,2.563,1.592,3.856,2.37c0.438,0.264,0.866,0.521,1.079,1.016
	c-2.886,3.921-5.776,7.837-8.655,11.765c-1.819,2.482-3.604,4.989-5.432,7.465c-0.655,0.89-0.868,1.782-0.552,2.879
	c0.287,0.992,0.128,2.047,0.075,3.07c-0.027,0.519-0.298,0.992-0.703,1.335c-0.445,0.378-0.966,0.596-1.559,0.414
	c-0.655-0.201-0.774-0.726-0.794-1.341c-0.017-0.537,0.196-1.145-0.393-1.648c-1.03,1.296-1.643,2.823-2.52,4.185
	c-0.166,0.258-0.288,0.546-0.439,0.814c-0.274,0.487-0.631,0.455-1.016,0.141c-0.159-0.131-0.303-0.279-0.451-0.422
	c-1.486-1.417-2.859-2.955-4.502-4.21c-0.393-0.301-0.814-0.633-1.023-1.218c1.359-1.131,2.737-2.267,4.101-3.42
	c1.451-1.227,3.025-2.286,4.522-3.45c1.192-0.927,1.855-2.314,2.723-3.518c1.409-1.958,2.622-4.063,4.125-5.941
	C125.487,100.793,127.857,97.259,130.382,93.836z"/>
<path fill="#FCDFC9" d="M98.898,68.178c-0.522,2.172-0.867,4.37-0.916,6.607c0.124,0.232,0.14,0.439-0.141,0.573
	c-0.179,1.237-0.372,2.473-0.528,3.714c-0.051,0.404-0.091,0.8-0.293,1.161c-2.17,4.68-5.923,7.908-10.011,10.8
	c-2.122,1.501-4.569,2.306-7.08,2.906c-0.585,0.139-1.195,0.402-1.753-0.096c-1.777-0.036-1.86,0.27-1.842-1.788
	c0.012-1.363,0.014-2.726,0.02-4.089c2.191,0.066,4.157-0.792,5.961-1.821c5.589-3.188,9.849-7.647,12.392-13.64
	c0.63-1.485,0.596-3.007,0.322-4.53c-0.279-1.557-0.699-3.09-0.999-4.644c-0.116-0.597-0.126-1.23-0.083-1.839
	c0.053-0.733,0.254-1.437,1.124-1.632c1.055-0.236,1.668,0.033,2.139,0.989c0.291,0.591,0.518,1.213,0.846,1.998
	c0.646-1.091,0.754-2.196,1.11-3.207c0.238-0.675,0.428-1.368,0.618-2.058c0.099-0.36,0.326-0.497,0.676-0.485
	c0.148,1.259-0.424,2.449-0.342,3.702c0.18,0.367,0.036,0.654-0.225,0.912c-0.337,1.928-0.859,3.824-0.951,5.792
	C99.105,67.74,99.057,67.964,98.898,68.178z"/>
<path fill="#010101" d="M181.019,165.782c4.984-0.389,9.997-0.253,14.969-0.852c2.193-0.245,4.301-0.009,6.399,0.775
	c3.051,1.14,4.929,3.415,6.415,6.135c0.291,0.533,0.488,1.114,0.726,1.674c-0.378,0.956-1.248,0.774-1.968,0.775
	c-3.688,0.01-7.372-0.053-11.062-0.228c-4.707-0.225-9.432-0.087-14.149-0.039c-0.543,0.006-1.139,0.211-1.587-0.306
	c-0.282-2.58-0.106-5.157,0.059-7.734c0.087-0.053,0.156-0.123,0.209-0.21L181.019,165.782z"/>
<path fill="#010203" d="M109.754,173.771c1.449-2.07,2.309-4.371,2.737-6.851c0.041-0.234,0.225-0.442,0.342-0.661
	c2.13-1.048,4.36-1.607,6.756-1.401c0.765,0.066,1.539,0.046,2.31,0.068c1.885,0.529,3.834,0.403,5.749,0.502
	c2.647,0.137,5.303,0.135,7.944,0.407c0.438,2.626,0.311,5.275,0.318,7.92c-0.555,0.596-1.296,0.555-2.008,0.557
	c-7.382,0.014-14.763,0.015-22.145-0.003C111.057,174.308,110.304,174.389,109.754,173.771z"/>
<path fill="#F8F8F8" d="M180.761,173.718c4.253-0.328,8.513-0.165,12.767-0.145c4.767,0.021,9.532,0.198,14.299,0.273
	c0.567,0.009,1.234,0.281,1.701-0.33c0.467,1.643,0.564,3.347,0.824,5.023c0.069,0.452,0.182,1.086-0.638,1.092
	c-0.642-0.96-1.653-0.699-2.532-0.691c-8.222,0.066-16.441-0.12-23.487-0.024c4.226,0.282,9.629-0.127,15.024,0.042
	c3.182,0.1,6.361,0.273,9.546,0.268c0.512,0,1.035,0.018,1.446,0.405c-0.251,0.464-0.697,0.359-1.094,0.359
	c-3.289,0.006-6.582,0.081-9.868-0.042c-1.145-0.044-2.31-0.106-3.464-0.214c-1.008-0.095-2.027-0.021-3.057,0.141
	c-1.928,0.305-3.917,0.266-5.841,0.053c-1.59-0.176-3.165-0.195-4.749-0.243c-1.187-0.036-1.14-0.049-1.242-1.227
	C180.26,176.852,180.755,175.305,180.761,173.718z"/>
<path fill="#F8F8F8" d="M109.754,173.771c1.641,0.02,3.282,0.053,4.923,0.054c6.516,0.006,13.032,0.005,19.548,0
	c0.562,0,1.125-0.045,1.688-0.07c0.032,1.692,0.028,3.387,0.112,5.076c0.027,0.534-0.12,0.77-0.613,0.835
	c-0.102,0.014-0.205,0.02-0.308,0.017c-3.33-0.084-6.639,0.534-9.975,0.309c-1.221-0.082-2.42-0.435-3.66-0.3
	c-4.379,0.475-8.773,0.252-13.163,0.3c-0.36,0.005-0.72,0.008-1.078-0.012c-0.617-0.035-0.893-0.381-0.948-0.99
	c-0.054-0.591,0.232-1.242-0.274-1.763C107.238,176.055,108.75,175.188,109.754,173.771z"/>
<path fill="#010101" d="M54.108,169.217c1.688,0.017,3.375,0.046,5.064,0.046c2.844,0.002,5.235,1.025,7.229,3.059
	c0.777,0.794,0.942,1.916,1.641,2.733c-0.069,0.833-0.679,0.969-1.32,0.942c-6.341-0.276-12.686-0.09-19.026-0.183
	c-0.76-0.011-1.429-0.203-1.625-1.082c-0.186-1.363,0.351-2.694,0.173-4.076c-0.046-0.355,0.046-1.055,0.738-1.147
	c0.531-0.491,1.198-0.51,1.854-0.484C50.591,169.091,52.362,168.803,54.108,169.217z"/>
<path fill="#010101" d="M42.621,169.589c0.939,0.838,0.442,1.99,0.621,2.99c0.125,0.697,0.033,1.436,0.039,2.154
	c-0.336,1.194-1.329,1.104-2.238,1.109c-4.5,0.022-9.001,0.001-13.501,0.014c-1.533,0.004-3.067-0.054-4.601,0.081
	c-0.61,0.054-1.257,0.128-1.566-0.617c0.444-1.742,1.425-3.188,2.709-4.372c0.944-0.87,2.207-1.268,3.492-1.356
	c2.344-0.161,4.694-0.243,7.041-0.357c2.361-0.431,4.736-0.197,7.105-0.141C42.086,169.1,42.405,169.272,42.621,169.589z"/>
<path fill="#F8F8F8" d="M21.375,175.317c0.324,0.156,0.645,0.277,1.026,0.255c6.459-0.381,12.924-0.169,19.386-0.175
	c0.624,0,1.218,0.063,1.494-0.663c0.001,1.283,0.021,2.565-0.001,3.848c-0.022,1.238-0.185,1.447-1.449,1.396
	c-1.322-0.054-2.682-0.039-3.942,0.116c-2.676,0.327-5.286-0.294-7.938-0.129c-2.605,0.163-5.23,0.046-7.846,0.033
	c-1.352-0.007-1.36-0.028-1.36-1.396C20.742,177.467,20.981,176.376,21.375,175.317z"/>
<path fill="#FCDFC9" d="M42.621,169.589c-2.482-0.057-4.967-0.116-7.449-0.171c-0.207-0.005-0.4-0.033-0.555-0.188
	c0.316-3.699,0.639-7.398,0.642-11.115c2.355-0.021,4.71-0.117,7.061,0.137c0.396,0.042,0.807-0.062,1.21-0.098
	c-0.42,1.063-0.492,2.23-0.488,3.307C43.055,164.186,42.599,166.874,42.621,169.589z"/>
<path fill="#F8F8F8" d="M46.07,174.732c0.225,0.522,0.591,0.689,1.18,0.681c3.43-0.044,6.863-0.044,10.293-0.041
	c2.352,0.002,4.702-0.042,7.053,0.144c0.801,0.063,1.622-0.057,2.438,0.048c0.407,0.053,0.825-0.036,1.008-0.51
	c0.364,1.216,0.466,2.48,0.549,3.732c0.074,1.133-0.034,1.2-1.219,1.208c-3.127,0.017-6.255-0.012-9.383,0.014
	c-1.374,0.011-2.766-0.18-4.117,0.267c-0.186,0.062-0.414,0.051-0.611,0.012c-1.906-0.375-3.838-0.196-5.757-0.292
	c-0.387-0.02-0.849,0.128-1.049-0.399c0.507-0.382,1.094-0.212,1.644-0.213c5.916-0.014,11.833-0.007,17.75-0.009
	c-5.916-0.002-11.832-0.006-17.748,0.007c-0.548,0.001-1.138-0.182-1.636,0.227c-0.516-0.204-0.388-0.661-0.393-1.048
	C46.059,177.285,46.068,176.009,46.07,174.732z"/>
<path fill="#FCDFC9" d="M54.108,169.217c-0.973,0.404-2.002,0.277-3.008,0.276c-1.374-0.003-2.748,0.21-4.122,0.016
	c0.018-3.712,0.038-7.425,0.057-11.139c2.542,0.119,5.095-0.07,7.629,0.256c-0.411,1.206-0.477,2.478-0.532,3.719
	C54.03,164.633,54.107,166.926,54.108,169.217z"/>
<path fill="#58935C" d="M188.045,143.852c-0.198-0.221-0.396-0.439-0.594-0.66c0.057-0.059,0.114-0.117,0.17-0.175
	c3.014-1.617,6.025-1.214,9.028,0.024c1.359,0.561,1.469,0.483,1.857-0.932c0.603-2.202,0.174-4.363-0.153-6.533
	c-0.06-0.402-0.224-0.791-0.123-1.209c0.094-0.177,0.228-0.216,0.402-0.117c2.284,0.18,1.788-0.162,2.012,1.653
	c0.344,2.798,0.273,5.627-0.755,8.333c-0.09,0.238-0.166,0.484-0.28,0.711c-1.074,2.134-1.047,1.974-2.601,0.676
	c-1.806-1.506-3.96-2.331-6.396-2.11c-0.523-0.101-1.038-0.017-1.549,0.084C188.765,143.855,188.418,143.907,188.045,143.852z"/>
<path fill="#91C686" d="M198.632,134.25c-0.1,0.028-0.202,0.057-0.303,0.086c0.105,1.269,0.499,2.492,0.558,3.772
	c0.037,0.82,0.148,1.656,0.009,2.45c-0.156,0.888-0.066,1.956-0.784,2.59c-0.848,0.75-1.598-0.234-2.381-0.449
	c-2.784-0.767-5.519-1.053-8.15,0.506c0,0-0.131-0.014-0.131-0.015c-0.351-0.169-0.513-0.479-0.612-0.832
	c0.024-0.078,0.048-0.156,0.072-0.234c2.233-2.005,4.877-2.167,7.638-1.621c2.91,0.576,2.94,0.606,2.72-2.397
	c-0.124-1.69-0.607-3.316-1.133-4.932c-0.305-0.935-0.836-1.3-1.806-1.269c-3.526,0.117-6.945,0.6-9.972,2.61
	c-0.372,0.246-0.702,0.642-1.236,0.415c-0.266-0.214-0.252-0.521-0.266-0.817c0.015-0.56,0.519-0.552,0.855-0.738
	c1.368-0.923,2.989-1.256,4.47-1.917c0.327,0.018,0.648,0.022,0.888-0.258c1.673-0.183,3.344-0.336,5.026-0.424
	c1.689-0.088,2.748,0.515,3.254,2.096C197.564,133.553,197.973,134.006,198.632,134.25z"/>
<path fill="#C6C6C5" d="M96.413,174.459c0.87,1.46,2.211,2.54,3.166,3.932c0.288,0.419,0.732,0.725,0.887,1.238
	c-0.246,0.076-0.486,0.178-0.736,0.223c-1.774,0.318-3.442,0.38-4.686-1.332c-0.536-0.738-1.296-1.317-1.757-2.132
	c-0.562-0.996-0.274-1.6,0.849-1.647C94.908,174.71,95.661,174.62,96.413,174.459z"/>
<path fill="#FCE0C9" d="M105.401,66.954c0.308-2.6,0.583-5.205,1.146-7.767c-0.059,0.969,0.363,1.592,1.239,2.053
	c1.41,0.744,1.391,0.804,0.396,2.109C107.261,64.556,106.328,65.753,105.401,66.954z"/>
<path fill="#462A1C" d="M82.794,62.931c-1.307,0.287-2.615,0.417-3.963,0.308c-1.323-0.108-2.474-0.6-3.576-1.271
	c-0.171-0.104-0.333-0.241-0.46-0.396c-0.24-0.29-0.093-0.609,0.053-0.86c0.234-0.405,0.502-0.127,0.753,0.036
	c2.262,1.467,4.706,1.529,7.234,0.936C83.229,62.114,82.832,62.517,82.794,62.931z"/>
<path fill="#C9C7C3" d="M85.911,26.486c-1.032,0.213-1.501,1.318-2.503,1.578c-0.687-1.126-0.694-1.139,0.221-1.804
	c0.987-0.719,1.983-1.427,2.991-2.114c1.055-0.719,1.063-0.706,1.749,0.453c-0.882,0.562-1.774,1.111-2.477,1.906L85.911,26.486z"/>
<path fill="#1F180B" d="M97.094,41.646c0.59-0.637,1.185-1.272,1.769-1.916c0.36-0.397,0.671-0.349,1.026,0.022
	c0.355,0.37,0.169,0.615-0.101,0.903c-0.597,0.636-1.174,1.29-1.759,1.937C97.514,42.479,97.253,42.113,97.094,41.646z"/>
<path fill="#251E0F" d="M91.733,37.614c0.583-0.696,1.167-1.391,1.749-2.087c0.277-0.332,0.567-0.372,0.896-0.063
	c0.298,0.282,0.166,0.513-0.039,0.777c-0.557,0.714-1.095,1.442-1.641,2.165C92.211,38.343,91.883,38.085,91.733,37.614z"/>
<path fill="#211B0F" d="M100.452,46.607c0.879-0.252,1.759-0.502,2.637-0.76c0.363-0.106,0.793-0.46,0.999,0.153
	c0.207,0.618-0.266,0.764-0.732,0.915c-0.87,0.283-1.728,0.606-2.592,0.91C100.271,47.52,100.463,47.037,100.452,46.607z"/>
<path fill="#2A2311" d="M100.997,54.243c0.864,0.066,1.729,0.111,2.589,0.211c0.28,0.033,0.632,0.135,0.613,0.544
	c-0.021,0.51-0.407,0.513-0.772,0.497c-0.864-0.038-1.702-0.341-2.578-0.258C100.692,54.875,100.535,54.512,100.997,54.243z"/>
<path fill="#251D0D" d="M86.084,32.528c0.68-0.61,1.356-1.225,2.04-1.83c0.246-0.218,0.557-0.34,0.816-0.087
	c0.337,0.328,0.168,0.635-0.154,0.89c-0.711,0.564-1.275,1.32-2.163,1.651C86.378,33.002,86.151,32.834,86.084,32.528z"/>
<path fill="#3E331B" d="M93.186,154.944c0.775-0.216,1.553-0.431,2.328-0.646c0.284-0.079,0.618-0.266,0.775,0.138
	c0.159,0.41-0.177,0.496-0.48,0.591c-0.819,0.256-1.617,0.588-2.49,0.634C93.161,155.444,92.96,155.234,93.186,154.944z"/>
<path fill="#292013" d="M100.094,173.231c0.408,0.583,0.828,1.157,1.216,1.752c0.179,0.275,0.525,0.599,0.059,0.902
	c-0.342,0.222-0.536-0.057-0.741-0.303c-0.525-0.628-1.001-1.287-1.392-2.007C99.507,173.426,99.734,173.162,100.094,173.231z"/>
<path fill="#2A2212" d="M103.511,170.055c0.603,0.468,1.212,0.925,1.803,1.407c0.19,0.156,0.379,0.355,0.114,0.63
	c-0.232,0.24-0.451,0.177-0.666,0.001c-0.588-0.483-1.237-0.9-1.689-1.533C103.19,170.366,103.275,170.145,103.511,170.055z"/>
<path fill="#2A2312" d="M94.439,160.697c0.744-0.432,1.485-0.871,2.235-1.293c0.18-0.102,0.39-0.123,0.546,0.069
	c0.228,0.282,0.047,0.495-0.172,0.62c-0.704,0.402-1.426,0.77-2.141,1.15C94.623,161.172,94.484,160.976,94.439,160.697z"/>
<path fill="#060603" d="M93.647,142.821c0.693-0.185,1.396-0.121,2.097-0.079c0.215,0.014,0.381,0.172,0.319,0.4
	c-0.03,0.116-0.192,0.269-0.303,0.276c-0.701,0.049-1.404,0.063-2.106,0.089C93.653,143.279,93.65,143.051,93.647,142.821z"/>
<path fill="#342C1C" d="M100.697,164.639c0.39-0.582,0.772-1.169,1.173-1.743c0.21-0.301,0.379-0.863,0.864-0.518
	c0.442,0.315-0.101,0.597-0.24,0.864c-0.229,0.439-0.529,0.842-0.801,1.258C101.387,164.723,101.099,165.084,100.697,164.639z"/>
<path fill="#362B19" d="M93.122,149.075c0.693-0.09,1.386-0.193,2.082-0.264c0.227-0.022,0.539-0.064,0.549,0.312
	c0.006,0.253-0.217,0.274-0.405,0.343c-0.723,0.264-1.48,0.261-2.23,0.318C92.99,149.547,92.99,149.31,93.122,149.075z"/>
<path fill="#F8F8F8" d="M138.099,82.707c-0.133-0.039-0.266-0.076-0.399-0.116c0.225-0.282,0.291-0.006,0.4,0.114L138.099,82.707z"
	/>
<path fill="#72ADD8" d="M181.029,165.774c-0.012,0.129-0.054,0.228-0.21,0.212C180.788,165.813,180.882,165.768,181.029,165.774z"/>
<path fill="#402517" d="M128.034,56.043c5.453,2.99,11.202,3.333,17.184,2.577c-0.311,1.938-1.152,3.522-2.411,4.803
	c-2.041,2.079-4.539,3.329-7.514,3.382c-0.599,0.011-1.221-0.162-1.797-0.354C129.671,65.183,127.04,59.802,128.034,56.043z"/>
<path fill="#3F2417" d="M152.729,43.152c0.035,1.974-0.547,3.553-1.384,5.053c-0.277,0.497-0.66,0.919-1.118,1.264
	c-0.993,0.751-2.184,0.695-3.076-0.185c-0.974-0.957-1.409-2.128-1.269-3.499c0.189-1.861,0.712-3.625,1.554-5.295
	c0.339-0.673,0.864-1.13,1.56-1.419c1.202-0.501,2.236-0.176,2.921,0.911C152.573,41.025,152.775,42.17,152.729,43.152z"/>
<path fill="#402517" d="M133.761,38.231c-0.074,1.13-0.231,2.4-0.617,3.629c-0.185,0.587-0.442,1.147-0.866,1.613
	c-1.52,1.674-3.504,1.375-4.422-0.656c-0.345-0.764-0.477-1.53-0.371-2.384c0.216-1.746,0.533-3.443,1.47-4.973
	c0.392-0.639,0.894-1.084,1.617-1.333c0.834-0.286,1.495-0.098,2.088,0.519C133.592,35.615,133.719,36.83,133.761,38.231z"/>
<path fill="#8B766A" d="M178.2,74.949c0.15,0.32-0.073,0.78,0.373,0.986c-0.144,0.24-0.361,0.313-0.629,0.273
	C177.926,75.767,177.87,75.318,178.2,74.949z"/>
<path fill="#402517" d="M58.997,48.341c0.039-0.446-0.363-0.569-0.597-0.813c0.036-0.802,1.347-0.327,1.259-1.255
	c1.24-1.219,2.731-1.246,3.861,0.031c1.203,1.36,2.103,2.916,2.607,4.68c0.311,1.089,0.197,2.135-0.27,3.155
	c-0.67,1.466-1.827,1.851-3.283,1.1c-0.753-0.388-1.327-0.973-1.788-1.664c-0.399-0.597-0.826-1.198-1.091-1.857
	c-0.28-0.7-0.697-0.918-1.41-0.865c-0.477,0.034-1.023,0.088-1.404-0.413c0.41-0.462,0.889-0.24,1.314-0.29
	c0.326-0.038,0.786,0.165,0.864-0.367c0.064-0.435-0.287-0.618-0.627-0.767C58.238,48.468,58.965,48.696,58.997,48.341z"/>
<path fill="#F6B5A6" d="M62.688,67.248c-0.206,0-0.418,0.033-0.617-0.006c-0.867-0.171-1.736-0.348-2.023-1.383
	c-0.228-0.819,0.18-1.575,1.147-2.314c1.629-1.247,3.606-1.403,5.5-1.781c0.638-0.127,1.325,0.211,1.878,0.583
	c0.968,0.649,1.065,1.728,0.297,2.645c-0.54,0.644-1.191,1.15-1.986,1.417C65.525,66.866,64.122,67.148,62.688,67.248z"/>
<path fill="#664938" d="M58.997,48.341c-0.021,0.366-0.437,0.399-0.567,0.673c-0.537,0.141-1.002-0.144-1.496-0.258
	c-0.207-0.048-0.395-0.138-0.36-0.402c0.038-0.278,0.267-0.26,0.46-0.267C57.704,48.057,58.305,48.537,58.997,48.341z"/>
<path fill="#66493A" d="M59.658,46.272c0.253,1.093-0.881,0.795-1.259,1.255c-0.588-0.03-1.08-0.306-1.564-0.606
	c-0.066-0.354,0.064-0.505,0.428-0.418c0.228,0.083,0.465,0.144,0.681,0.249C58.665,47.105,59.237,46.967,59.658,46.272z"/>
<path fill="#94715C" d="M57.263,46.503c-0.197,0.085-0.362,0.199-0.428,0.418c-0.269-0.106-0.395-0.295-0.173-0.524
	C56.871,46.182,57.089,46.314,57.263,46.503z"/>
<path fill="#8CC58A" d="M186.839,142.359c-1.696-2.134-2.814-4.563-3.636-7.142c3.33-2.88,7.377-3.322,11.533-3.4
	c0.719-0.014,1.167,0.311,1.405,0.966c0.836,2.286,1.377,4.622,1.253,7.082c-0.054,1.062-0.562,1.335-1.529,1.053
	c-2.316-0.676-4.621-0.814-6.939,0.067c-0.787,0.3-1.503,0.636-2.018,1.317L186.839,142.359z"/>
<path fill="#78AC79" d="M186.911,142.301c0.029-0.929,0.87-1.188,1.449-1.405c2.135-0.798,4.347-1.063,6.613-0.489
	c2.112,0.535,2.096,0.512,2.124-1.612c0.025-1.869-0.437-3.646-0.981-5.401c-0.358-1.155-0.558-1.229-1.774-1.272
	c-2.585-0.091-5.062,0.51-7.544,1.114c-0.674,0.164-1.178,0.602-1.751,0.929c-0.613,0.353-1.105,0.918-1.844,1.051
	c-0.048-0.089-0.075-0.183-0.082-0.284c2.381-1.907,5.109-2.85,8.133-3.188c1.224-0.137,2.434-0.201,3.657-0.25
	c0.73-0.03,1.165,0.298,1.4,0.946c0.93,2.563,1.604,5.175,1.383,7.935c-0.092,1.149-0.373,1.353-1.445,0.981
	c-1.312-0.458-2.698-0.831-4.027-0.771c-1.59,0.07-3.252,0.35-4.631,1.365C187.389,142.101,187.139,142.185,186.911,142.301z"/>
<path fill="#1D5886" d="M183.71,133.379c-0.138,0.415-0.492,0.58-0.855,0.738c-0.405-0.434-0.596-0.933-0.493-1.599
	C183.059,132.47,183.276,133.104,183.71,133.379z"/>
<path fill="#165283" d="M188.045,143.852c0.299-0.246,0.637-0.328,1.016-0.253c-0.069,0.481,0.389,0.925,0.09,1.488
	C188.502,144.908,188.198,144.453,188.045,143.852z"/>
<path fill="#0C0C0E" d="M67.062,104.096c-0.059,1.402-0.956,2.39-2.119,2.334c-1.231-0.059-2.225-1.155-2.124-2.348
	c0.102-1.215,1.178-2.244,2.326-2.225C66.423,101.879,67.122,102.693,67.062,104.096z"/>
<path fill="#0B0C0D" d="M64.686,110.799c1.108-0.039,2.112,0.961,2.154,2.149c0.043,1.231-0.83,2.387-1.854,2.451
	c-1.03,0.064-2.094-0.925-2.146-2.001C62.775,112.064,63.647,110.835,64.686,110.799z"/>
<path fill="#C46A7F" d="M69.222,125.649c0.025,0.202,0.049,0.405,0.075,0.609c-0.167,0.257-0.381,0.287-0.644,0.148
	c-1.252-0.649-2.571-1.171-3.739-1.977c0.757-0.007,1.524,0.051,2.272-0.036C68.235,124.271,68.915,124.628,69.222,125.649z"/>
<path fill="#FFFDFB" d="M86.147,26.616c0.573-0.233,1.093-0.184,1.536,0.283c0.435,0.458,0.534,0.984,0.25,1.543
	c-0.289,0.568-0.786,0.781-1.404,0.648c-0.62-0.134-0.978-0.511-0.985-1.173c-0.003-0.309,0.028-0.61,0.196-0.88
	c0.039-0.043,0.076-0.089,0.116-0.132c0.03-0.069,0.078-0.119,0.146-0.15C86.051,26.709,86.099,26.663,86.147,26.616z"/>
<path fill="#2C2511" d="M99.896,61.712c-0.087-0.344,0.154-0.606,0.225-0.912c0.909,0.108,1.821,0.206,2.729,0.33
	c0.338,0.046,0.561,0.237,0.48,0.628c-0.069,0.336-0.254,0.611-0.617,0.519C101.783,62.042,100.781,62.163,99.896,61.712z"/>
<path fill="#312811" d="M98.898,68.178c0.015-0.225,0.03-0.45,0.047-0.675c0.852,0.073,1.705,0.125,2.551,0.234
	c0.287,0.038,0.615,0.168,0.498,0.603c-0.111,0.418-0.369,0.334-0.702,0.276C100.493,68.478,99.666,68.49,98.898,68.178z"/>
<path fill="#3F341B" d="M94.719,108.531c-0.177-0.312-0.285-0.615,0.105-0.858c0.887,0.189,1.821-0.003,2.691,0.342
	c0.188,0.075,0.389,0.102,0.364,0.372c-0.025,0.285-0.267,0.295-0.445,0.289C96.53,108.644,95.624,108.582,94.719,108.531z"/>
<path fill="#302715" d="M96.819,82.752c-0.118-0.282-0.105-0.555,0.059-0.819c0.837,0.253,1.712,0.085,2.559,0.227
	c0.318,0.053,0.627,0.131,0.607,0.519c-0.022,0.45-0.405,0.374-0.681,0.35C98.514,82.953,97.668,82.845,96.819,82.752z"/>
<path fill="#41351E" d="M96.209,89.474c-0.118-0.315-0.12-0.611,0.146-0.861c0.859,0.093,1.719,0.181,2.577,0.283
	c0.258,0.03,0.542,0.105,0.492,0.444c-0.057,0.384-0.381,0.227-0.606,0.222C97.947,89.54,97.079,89.505,96.209,89.474z"/>
<path fill="#443717" d="M95.82,96.12c-0.001-0.121-0.003-0.243-0.004-0.365c0.919-0.781,1.863-0.007,2.794-0.025
	c0.19-0.004,0.276,0.264,0.224,0.492c-0.056,0.241-0.243,0.346-0.449,0.316C97.527,96.414,96.675,96.263,95.82,96.12z"/>
<path fill="#312914" d="M95.39,101.979c0.039-0.193,0.078-0.387,0.117-0.581c0.867,0.077,1.734,0.148,2.601,0.232
	c0.284,0.027,0.481,0.167,0.421,0.495c-0.046,0.249-0.256,0.315-0.459,0.308C97.157,102.405,96.257,102.281,95.39,101.979z"/>
<path fill="#080709" d="M94.04,122.828c-0.004-0.251-0.009-0.501-0.012-0.753c0.759-0.014,1.517-0.033,2.275-0.036
	c0.224-0.002,0.417,0.14,0.412,0.353c-0.003,0.201-0.195,0.376-0.402,0.386C95.558,122.811,94.799,122.814,94.04,122.828z"/>
<path fill="#352B13" d="M97.841,75.359c0.047-0.19,0.095-0.383,0.141-0.573c0.801,0.084,1.602,0.16,2.401,0.253
	c0.273,0.032,0.486,0.189,0.465,0.486c-0.022,0.315-0.266,0.392-0.545,0.375C99.455,75.854,98.609,75.785,97.841,75.359z"/>
<path fill="#272616" d="M94.347,116.72c-0.102-0.247-0.078-0.498-0.014-0.748c0.753,0.028,1.506,0.051,2.257,0.091
	c0.195,0.011,0.417,0.041,0.416,0.326c-0.002,0.279-0.099,0.483-0.403,0.544C95.829,117.087,95.1,116.784,94.347,116.72z"/>
<path fill="#C9C7C3" d="M85.856,26.906c-0.003,0.078-0.042,0.123-0.117,0.134c0.001-0.001,0.015-0.104,0.015-0.104L85.856,26.906z"
	/>
<path fill="#C9C7C3" d="M86.147,26.616c-0.012,0.084-0.062,0.13-0.146,0.14c-0.014-0.096-0.044-0.188-0.089-0.271l-0.018,0.018
	C85.977,26.543,86.061,26.58,86.147,26.616z"/>
<path fill="#191102" d="M93.953,137.615c0.979,0.028,2.01-0.522,3.035,0.276c-0.992,0.694-2.046,0.204-3.004,0.387
	C93.903,138.06,93.821,137.843,93.953,137.615z"/>
<path fill="#322A19" d="M107.838,165.921c-0.424,0.555-1.273,0.462-1.929,0.762c-0.221,0.101-0.528,0.105-0.606-0.235
	c-0.03-0.133,0.001-0.327,0.082-0.432c0.264-0.336,1.931-0.673,2.325-0.505C107.825,165.558,107.882,165.623,107.838,165.921z"/>
<path fill="#CFCFCF" d="M21.903,131.478c-0.798-0.696-1.712-1.325-2.066-2.412c-0.766-0.438-0.926-1.163-0.958-1.965
	c-0.045-1.103,0.271-2.139,0.633-3.146c0.798-2.222,0.735-4.395-0.01-6.624c-0.795-2.378-2.466-3.869-4.665-4.812
	c-1.692-0.726-3.467-0.256-4.391,1.088c-0.855,1.243-1.345,2.639-1.446,4.164c-0.237,3.615,1.773,5.994,4.479,7.897
	c1.053,0.741,1.96,1.641,3.005,2.382c0.582,0.414,0.843,1.086,1.025,1.973c-1.507-0.494-2.754-0.981-3.572-2.225
	c-0.821-1.247-1.821-2.346-2.887-3.389c-2.637-2.577-6.228-2.886-9.23-0.77c-1.684,1.188-2.308,2.913-1.407,4.685
	c1.287,2.529,3.366,4.213,6.122,5.026c1.634,0.481,3.235,0.263,4.853-0.099c1.446-0.322,2.902-0.666,4.404-0.513
	c1.132,0.116,2.234,0.339,2.79,1.53c0.705,0.081,0.962,0.697,1.385,1.131c0.646,0.663,1.118,1.557,2.184,1.897
	c0.283-1.478,0.48-2.835,0.483-4.223C22.629,132.413,22.424,131.933,21.903,131.478z M10.772,131.168
	c-0.42,0.166-0.859,0.368-1.337,0.313c-2.165-0.245-4.238-0.699-5.807-2.4c-0.812-0.877-1.111-1.934-0.648-2.976
	c0.441-0.992,1.41-1.446,2.541-1.404c0.153,0.006,0.307,0.002,0.462,0.002c2.438,0.143,4.438,1.051,5.776,3.202
	C12.707,129.426,12.414,130.517,10.772,131.168z M17.589,122.894c-0.396,1.52-1.479,1.928-2.776,1.034
	c-1.986-1.368-2.91-3.333-3.056-5.706c0.018-0.357-0.006-0.723,0.06-1.071c0.349-1.819,2.16-2.487,3.588-1.317
	c1.017,0.832,1.649,1.911,2.04,3.172C17.849,120.302,17.928,121.595,17.589,122.894z"/>
<path fill="#939F9E" d="M20.115,133.964c-0.682,0.014-1.431-0.63-1.484-1.276c-0.045-0.555,0.749-1.42,1.332-1.451
	c0.644-0.033,1.371,0.708,1.353,1.38C21.297,133.296,20.712,133.952,20.115,133.964z"/>
<path fill="#1F1D1E" d="M209.712,179.631c-5.497-0.062-10.998-0.242-16.492-0.146c-3.755,0.066-7.497-0.082-11.245-0.121
	c-0.154-0.002-0.309-0.002-0.462-0.005c-0.372-0.011-0.772-0.021-0.735-0.542c0.039-0.528,0.473-0.445,0.816-0.435
	c4.057,0.132,8.116,0.135,12.177,0.126c4.828-0.01,9.657,0.027,14.486,0.047c0.411,0.001,0.837-0.048,1.227,0.046
	C210.168,178.767,210.05,179.195,209.712,179.631C209.714,179.631,209.712,179.631,209.712,179.631z"/>
<path fill="#1F1D1E" d="M121.263,178.424c4.362,0,8.726,0,13.087-0.001c0.153,0,0.308-0.03,0.461-0.032
	c0.393-0.003,0.908-0.15,0.894,0.498c-0.011,0.51-0.451,0.46-0.806,0.471c-1.899,0.051-3.799,0.151-5.699,0.139
	c-6.726-0.04-13.451-0.004-20.174,0.117c-0.564,0.011-1.129-0.012-1.693-0.031c-0.361-0.012-0.786-0.021-0.748-0.531
	c0.036-0.484,0.47-0.471,0.822-0.481c1.079-0.03,2.162-0.12,3.234-0.045C114.182,178.778,117.725,178.239,121.263,178.424z"/>
<path fill="#262528" d="M31.857,179.753c-3.034,0-6.069,0.001-9.104-0.001c-0.36,0-0.722-0.005-1.078-0.035
	c-0.252-0.021-0.557-0.067-0.517-0.415c0.037-0.324,0.354-0.329,0.593-0.33c2.777-0.007,5.553-0.021,8.33,0.005
	c3.805,0.035,7.609,0.118,11.415-0.029c0.257-0.01,0.516-0.03,0.771-0.01c0.249,0.018,0.542,0.04,0.51,0.407
	c-0.021,0.244-0.222,0.324-0.432,0.339c-0.308,0.021-0.616,0.017-0.926,0.027C38.232,179.822,35.045,179.82,31.857,179.753z"/>
<path fill="#262528" d="M46.463,179.609c-0.038-0.68,0.388-0.691,0.905-0.68c1.948,0.045,3.898,0.083,5.848,0.081
	c4.567-0.003,9.135-0.036,13.703-0.04c0.429,0,1.179-0.193,1.201,0.295c0.036,0.765-0.772,0.467-1.203,0.47
	c-2.925,0.025-5.852-0.017-8.776-0.009c-3.385,0.008-6.771,0.129-10.156-0.014c-0.511-0.021-1.021-0.075-1.531-0.112l-0.059,0.061
	L46.463,179.609z"/>
<path fill="#3A6D36" d="M187.583,143.207c1.446-1.241,3.159-1.574,4.988-1.377c1.779,0.19,3.52,0.57,5.259,1.473
	c0.534-1.013,0.786-2.026,0.807-3.09c0.031-1.686,0.025-3.373-0.475-5.013c-0.09-0.296-0.406-0.68,0.17-0.864
	c1.049,2.918,1.285,5.865,0.283,8.844c-0.335,0.992-0.482,1.078-1.421,0.546c-1.464-0.83-3.084-1.077-4.686-1.36
	c-1.008-0.177-2.034-0.035-3.02,0.343C188.876,142.944,188.289,143.325,187.583,143.207z"/>
<path fill="#73A976" d="M190.607,137.766c0.003,1.468-0.506,2.145-1.835,2.516c-0.786,0.219-2.354-0.571-2.834-1.457
	c-0.612-1.128-0.726-2.355-0.528-3.591c0.134-0.832,0.713-1.363,1.547-1.525c0.98-0.19,1.906,0.032,2.477,0.866
	C190.091,135.539,190.739,136.562,190.607,137.766z"/>
<path fill="#58935C" d="M129.618,144.296c-0.519-0.045-1.04-0.073-1.549,0.084c-2.446,0.044-4.498,1.097-6.13,2.789
	c-1.405,1.458-1.36,1.615-2.659-0.391c-0.138-0.213-0.24-0.45-0.355-0.677c-1.315-2.579-1.691-5.384-1.652-8.203
	c0.026-1.829-0.43-1.435,1.821-1.861c0.162-0.117,0.3-0.093,0.412,0.073c0.146,0.405,0.025,0.809,0.008,1.215
	c-0.09,2.193-0.283,4.387,0.554,6.511c0.539,1.365,0.656,1.43,1.947,0.726c2.852-1.555,5.801-2.282,8.972-1
	c0.062,0.052,0.125,0.103,0.188,0.156c-0.173,0.241-0.346,0.479-0.519,0.72C130.293,144.535,129.943,144.52,129.618,144.296z"/>
<path fill="#91C686" d="M120.222,134.53c0.332-1.626,1.32-2.34,3.008-2.436c1.682-0.094,3.359-0.123,5.042-0.122
	c0.269,0.252,0.588,0.214,0.911,0.16c1.544,0.497,3.191,0.653,4.651,1.422c0.354,0.149,0.854,0.086,0.93,0.641
	c0.018,0.296,0.065,0.599-0.176,0.841c-0.506,0.283-0.877-0.075-1.274-0.279c-3.227-1.671-6.678-1.781-10.196-1.517
	c-0.968,0.074-1.456,0.494-1.658,1.457c-0.348,1.663-0.653,3.332-0.593,5.026c0.106,3.009,0.133,2.976,2.963,2.089
	c2.686-0.841,5.332-0.966,7.768,0.786c0.032,0.075,0.065,0.15,0.097,0.225c-0.06,0.362-0.188,0.687-0.518,0.893
	c0,0.001-0.129,0.029-0.129,0.029c-2.784-1.265-5.472-0.685-8.157,0.378c-0.755,0.298-1.394,1.358-2.318,0.704
	c-0.782-0.553-0.808-1.624-1.059-2.49c-0.224-0.774-0.204-1.617-0.256-2.437c-0.08-1.279,0.18-2.537,0.147-3.81
	c-0.104-0.018-0.208-0.036-0.311-0.053C119.724,135.725,120.081,135.23,120.222,134.53z"/>
<path fill="#8CC58A" d="M131.621,142.776c-0.586-0.621-1.334-0.878-2.149-1.091c-2.4-0.625-4.676-0.239-6.906,0.684
	c-0.931,0.385-1.465,0.168-1.634-0.882c-0.389-2.432-0.104-4.813,0.48-7.176c0.166-0.677,0.576-1.048,1.292-1.112
	c4.14-0.372,8.211-0.37,11.833,2.133c-0.538,2.653-1.387,5.188-2.843,7.493L131.621,142.776z"/>
<path fill="#78AC79" d="M130.904,142.5c-1.481-0.86-3.163-0.959-4.751-0.856c-1.328,0.084-2.665,0.605-3.92,1.202
	c-1.026,0.486-1.327,0.313-1.543-0.819c-0.518-2.72-0.13-5.389,0.517-8.038c0.164-0.67,0.561-1.043,1.29-1.092
	c1.221-0.084,2.431-0.151,3.663-0.147c3.043,0.009,5.857,0.652,8.43,2.29c0.004,0.101-0.013,0.198-0.051,0.291
	c-0.749-0.052-1.299-0.561-1.947-0.845c-0.605-0.263-1.153-0.644-1.841-0.734c-2.533-0.332-5.06-0.662-7.62-0.292
	c-1.204,0.174-1.395,0.269-1.626,1.456c-0.351,1.804-0.618,3.62-0.391,5.475c0.257,2.109,0.244,2.133,2.286,1.373
	c2.191-0.816,4.418-0.791,6.627-0.229c0.599,0.153,1.463,0.32,1.592,1.24C131.378,142.684,131.121,142.628,130.904,142.5z"/>
<path fill="#1D5886" d="M135.082,132.558c0.174,0.651,0.038,1.168-0.317,1.643c-0.378-0.118-0.748-0.244-0.93-0.641
	C134.237,133.239,134.384,132.585,135.082,132.558z"/>
<path fill="#165283" d="M129.692,145.787c-0.358-0.527,0.049-1.018-0.071-1.489c0.369-0.116,0.714-0.071,1.037,0.142
	C130.571,145.054,130.318,145.539,129.692,145.787z"/>
<path fill="#3A6D36" d="M129.1,143.459c-1.021-0.269-2.056-0.299-3.039-0.014c-1.562,0.455-3.146,0.875-4.511,1.859
	c-0.876,0.63-1.031,0.561-1.472-0.389c-1.318-2.853-1.402-5.808-0.675-8.823c0.593,0.121,0.32,0.537,0.262,0.841
	c-0.32,1.684-0.143,3.362,0.07,5.035c0.136,1.055,0.496,2.035,1.136,2.985c1.631-1.086,3.321-1.652,5.069-2.033
	c1.797-0.394,3.536-0.248,5.108,0.83C130.358,143.942,129.734,143.627,129.1,143.459z"/>
<path fill="#73A976" d="M128.274,135.367c0.477-0.891,1.374-1.212,2.369-1.129c0.847,0.071,1.48,0.536,1.703,1.349
	c0.33,1.207,0.35,2.439-0.137,3.627c-0.381,0.933-1.855,1.888-2.66,1.755c-1.361-0.225-1.941-0.843-2.096-2.303
	C127.192,137.484,127.725,136.397,128.274,135.367z"/>
</svg>
