<?xml version="1.0" encoding="utf-8"?>
<!-- Generator: Adobe Illustrator 17.0.0, SVG Export Plug-In . SVG Version: 6.00 Build 0)  -->
<!DOCTYPE svg PUBLIC "-//W3C//DTD SVG 1.1//EN" "http://www.w3.org/Graphics/SVG/1.1/DTD/svg11.dtd">
<svg version="1.1" id="Livello_1" xmlns="http://www.w3.org/2000/svg" xmlns:xlink="http://www.w3.org/1999/xlink" x="0px" y="0px"
	 width="96.828px" height="105.862px" viewBox="0 0 96.828 105.862" enable-background="new 0 0 96.828 105.862"
	 xml:space="preserve">
<g>
	<path fill-rule="evenodd" clip-rule="evenodd" fill="#FFFFFF" d="M96.288,60.838L93.686,54.5c-1.014,1.373-2.124,2.672-3.319,3.886
		c0,0,3.671,8.096,3.581,9.878c-0.066,1.307-0.467,2.216-0.677,2.612l2.741-4.755c0,0,0.716-1.053,0.806-2.836
		C96.909,61.504,96.288,60.838,96.288,60.838z"/>
	<path fill-rule="evenodd" clip-rule="evenodd" fill="#FFFFFF" d="M55.646,50.016c5.143,2.974,11.141,2.102,15.553-1.464
		L49.136,35.795C48.258,41.404,50.501,47.041,55.646,50.016z"/>
	<path fill-rule="evenodd" clip-rule="evenodd" fill="#FFFFFF" d="M60.293,28.074c0.769,0.444,1.752,0.181,2.196-0.589
		c1.775-3.08,0.722-7.018-2.353-8.796c-3.075-1.778-7.007-0.723-8.783,2.357c-0.444,0.77-0.18,1.755,0.588,2.199
		c0.769,0.445,1.752,0.181,2.196-0.589c0.888-1.54,2.854-2.067,4.391-1.178s2.064,2.858,1.177,4.398
		C59.261,26.645,59.524,27.63,60.293,28.074z"/>
	<path fill-rule="evenodd" clip-rule="evenodd" fill="#FFFFFF" d="M79.781,39.342c0.769,0.445,1.752,0.181,2.196-0.589
		c1.775-3.08,0.722-7.018-2.353-8.796s-7.007-0.723-8.783,2.357c-0.444,0.77-0.18,1.754,0.588,2.199s1.752,0.181,2.196-0.589
		c0.888-1.54,2.854-2.068,4.391-1.178c1.537,0.889,2.064,2.858,1.177,4.398C78.749,37.913,79.012,38.898,79.781,39.342z"/>
	<path fill-rule="evenodd" clip-rule="evenodd" fill="#FFFFFF" d="M44.138,49.235c-5.691-7.954-6.551-18.923-1.298-28.035
		c3.177-5.511,8.059-9.412,13.573-11.431c0.457,2.501,2.488,4.908,5.962,6.917c1.021,0.59,1.789,0.921,1.823,0.935
		c0.855,0.368,1.857,0.057,2.37-0.738c0.513-0.794,0.388-1.839-0.296-2.473c-0.002-0.001-0.187-0.246-0.181-0.527
		c0.008-0.429,0.41-1.021,1.099-1.624c0.739-0.648,2.988-2.612,8.528,0.591c5.996,3.467,11.923,10.745,13.383,12.605
		c2.272,6.794,1.745,14.531-2.134,21.26c-5.248,9.105-15.149,13.842-24.865,12.895l2.837,5.284
		c10.515-0.15,20.744-5.743,26.441-15.625c4.325-7.506,5.203-16.043,3.132-23.744c0.48-2.753,1.113-9.16-1.548-16.155
		c-0.376-0.994-1.487-1.476-2.477-1.084c-0.989,0.392-1.486,1.515-1.109,2.508c0.674,1.766,1.092,3.496,1.355,5.122
		C89.11,10.962,86.44,4.95,82.295,1.086c-0.532-0.501-1.307-0.642-1.991-0.373c-0.685,0.271-1.161,0.909-1.229,1.644l-0.302,3.242
		c-1.325-1.411-3.005-2.926-4.872-4.005c-1.465-0.847-2.916-1.349-4.311-1.493c-4.856-0.498-8.902,0.877-11.302,3.735
		c-8.051,1.892-15.368,7.019-19.862,14.815c-5.699,9.885-5.42,21.558-0.287,30.754L44.138,49.235z"/>
	<path fill-rule="evenodd" clip-rule="evenodd" fill="#FFFFFF" d="M52.34,55.645c-2.444-1.421-5.572-1.575-5.572-1.575L3.106,55.303
		L0.96,59.046c-1.976,3.445-0.803,7.85,2.618,9.839l61.954,36.012c3.422,1.989,7.797,0.809,9.772-2.636l2.146-3.742l-20.77-38.686
		C56.681,59.832,54.851,57.105,52.34,55.645z"/>
	<path fill-rule="evenodd" clip-rule="evenodd" fill="#FFFFFF" d="M27.799,49.697l-8.951-21.831
		c0.321-0.474,0.878-1.148,1.723-1.582c1.391-0.716,2.434-0.772,2.434-0.772l7.03-0.949c0.427-1.654,0.975-3.258,1.622-4.81
		l-5.782,0.78c0,0-1.042,0.055-2.434,0.772c-1.391,0.716-2.055,2.126-2.055,2.126l-2.641,4.581c0.017-0.026,0.044-0.061,0.062-0.089
		l-12.84,22.39L27.799,49.697z"/>
	<polygon fill-rule="evenodd" clip-rule="evenodd" fill="#FFFFFF" points="80.313,93.528 93.19,71.073 69.928,74.185 	"/>
</g>
</svg>
