<?xml version="1.0" encoding="utf-8"?>
<!-- Generator: Adobe Illustrator 17.0.0, SVG Export Plug-In . SVG Version: 6.00 Build 0)  -->
<!DOCTYPE svg PUBLIC "-//W3C//DTD SVG 1.1//EN" "http://www.w3.org/Graphics/SVG/1.1/DTD/svg11.dtd">
<svg version="1.1" id="Livello_1" xmlns="http://www.w3.org/2000/svg" xmlns:xlink="http://www.w3.org/1999/xlink" x="0px" y="0px"
	 width="130.869px" height="171.291px" viewBox="0 0 130.869 171.291" enable-background="new 0 0 130.869 171.291"
	 xml:space="preserve">
<path fill="#FFFFFF" d="M105.608,84.486c-1.07,0.096-2.137,0.103-3.185,0.02c-10.078-0.796-12.598-2.387-12.598-2.387l-40.048,3.846
	c0,0-10.155,0.265-13.735-0.53c-0.194-0.043-0.607-0.1-0.607-0.171v8.132c5,1.983,15.592,0.792,15.592,0.792l-8.648,40.579
	l57.804-0.663l-6.903-42.609c0,0,2.383,1.898,9.544,1.5c0.562-0.031,1.215-0.088,1.944-0.178L105.608,84.486z"/>
<path fill="#99B9D9" d="M12.248,45.519c-0.309,0.044-0.575-1.951-3.492-3.669c-1.989-1.171-5.542-1.56-7.404-2.962
	c-1.33-1.001-1.742-2.623-0.95-3.58c3.497-4.229,8.332-0.508,10.565,2.652S12.557,45.474,12.248,45.519z"/>
<path fill="#FFE1C9" d="M46.859,30.003c0,0-11.139,9.548-11.537,28.246c-0.398,18.698,9.813,31.826,29.307,33.152
	s31.694-12.2,31.694-12.2l9.415-17.239l-4.641-29.042L46.859,30.003z"/>
<path fill="#99B9D9" d="M5.706,25.229c1.77-1.475,5.901,0.111,7.78,4.929s1.481,7.912,1.26,8.023
	c-0.221,0.111-1.001-1.437-2.169-3.006c-1.168-1.569-5.683-4.166-6.288-5.194S4.38,26.334,5.706,25.229z"/>
<g>
	<path fill="#FFE1C9" d="M130.801,61.83c-1.459-26.257-22.146-37.926-22.146-37.926s-7.426-5.437-10.741-2.785
		s7.426,21.085,9.548,20.82c2.122-0.265,3.315-6.896,3.315-6.896s11.67,10.741,12.598,26.787
		c0.844,14.589-8.836,22.052-18.176,22.688l-0.646,8.322C113.015,91.848,132.156,86.229,130.801,61.83z"/>
	<path fill="#FFE1C9" d="M35.435,85.263c-4-1.242-16.127-6.972-14.246-24.515c1.989-18.545,23.709-30.745,23.709-30.745
		l-7.838-2.785c0,0-19.766,9.548-23.612,32.092s16.474,32.092,21.922,34.081c0.004,0.001,0.064,0.003,0.064,0.004V85.263z"/>
</g>
<g>
	<ellipse fill="#402517" cx="45.235" cy="50.558" rx="3.149" ry="5.172"/>
	<ellipse fill="#402517" cx="66.585" cy="51.354" rx="3.149" ry="5.172"/>
	<path fill="#402517" d="M44.553,37.318c0.268-0.118,0.39-0.431,0.272-0.699c-0.118-0.268-0.431-0.39-0.699-0.272
		c-2.653,1.167-4.065,4.584-4.124,4.728c-0.11,0.271,0.02,0.58,0.292,0.691c0.065,0.027,0.133,0.039,0.2,0.039
		c0.209,0,0.408-0.125,0.492-0.33C40.998,41.444,42.297,38.311,44.553,37.318z"/>
	<path fill="#402517" d="M70.88,38.924c-1.088-1.378-3.579-2.107-3.684-2.137c-0.282-0.081-0.575,0.082-0.656,0.363
		c-0.081,0.281,0.081,0.575,0.363,0.657c0.023,0.007,2.27,0.666,3.145,1.775c0.92,1.166,1.463,2.864,1.469,2.881
		c0.071,0.226,0.28,0.371,0.506,0.371c0.053,0,0.106-0.008,0.159-0.025c0.279-0.088,0.435-0.386,0.347-0.665
		C72.503,42.067,71.923,40.245,70.88,38.924z"/>
	<path fill="#402517" d="M108.854,42.203C105.207,18.466,88.631,8.918,74.608,9.018c-12.167,0.086-21.118,5.603-27.948,5.503
		c-2.395-0.035-3.282,0.298-6.133-1.956c-1.941-1.534-3.284-3.784-3.846-5.503c-0.264-0.807-0.211-1.777-0.232-1.989
		c-0.066-0.663,0.464-1.16,1.193-1.293c0.729-0.133,1.359,0.497,1.359,0.497s0.829,0.995,1.857,0.928
		c1.028-0.066,1.525-0.597,1.591-1.757c0.066-1.16-1.127-3.481-4.641-3.448s-5.205,4.476-5.072,6.266
		c0.133,1.79,0.255,4.366,3.183,7.857c4.476,5.338,10.741,5.205,10.741,5.205c-5.437,4.542-9.432,2.602-12.366,0.829
		c-2.934-1.774-5.105-7.061-5.105-7.061s0.497,0.431,1.028,0.398s1.591-0.53,1.658-1.823s-1.426-2.42-2.354-2.387
		s-3.514,0.199-3.647,2.122c-0.149,2.159-0.365,6.73,4.641,13.095s13.99,7.161,13.99,7.161l52.215,2.652l-0.199,22.444
		c0,0,8.421-2.752,7.758,5.139c-0.663,7.89-7.559,5.503-7.559,5.503l-0.398,11.802C96.322,79.202,112.501,65.941,108.854,42.203z"/>
	<ellipse fill="#402517" cx="54.418" cy="72.24" rx="3.448" ry="5.769"/>
</g>
<path fill="#2D80BD" d="M23.676,158.195l11.354,0.042c0,0,5.596-18.168,37.594-17.501c27.679,0.577,30.615,17.736,30.615,17.736
	l12.077-0.018c-0.826-14.672-15.148-24.352-15.148-24.352l-57.818,0.663C42.35,134.765,25.822,139.057,23.676,158.195z"/>
<path d="M8.8,166.291h25.859l0.371-8.054l-11.354-0.042C23.676,158.195,10.789,156.291,8.8,166.291z"/>
<polygon fill="#FFFFFF" points="34.435,166.291 8.8,166.291 8.435,170.291 34.435,170.291 "/>
<polygon points="34.659,170.291 8.435,170.291 8.435,171.291 34.791,171.291 "/>
<path d="M129.448,166.291H103.59l-0.351-7.818l12.077-0.018C115.316,158.454,127.459,156.291,129.448,166.291z"/>
<polygon fill="#FFFFFF" points="103.435,166.291 129.448,166.291 129.435,170.291 103.435,170.291 "/>
<polygon points="103.59,170.291 129.435,170.291 129.435,171.291 103.457,171.291 "/>
</svg>
