<?xml version="1.0" encoding="utf-8"?>
<!-- Generator: Adobe Illustrator 17.0.0, SVG Export Plug-In . SVG Version: 6.00 Build 0)  -->
<!DOCTYPE svg PUBLIC "-//W3C//DTD SVG 1.1//EN" "http://www.w3.org/Graphics/SVG/1.1/DTD/svg11.dtd">
<svg version="1.1" id="Livello_1" xmlns="http://www.w3.org/2000/svg" xmlns:xlink="http://www.w3.org/1999/xlink" x="0px" y="0px"
	 width="120px" height="120px" viewBox="0 0 120 120" enable-background="new 0 0 120 120" xml:space="preserve">
<g>
	<path fill-rule="evenodd" clip-rule="evenodd" fill="#EEEEEE" d="M60,0c33.137,0,60,26.863,60,60s-26.863,60-60,60S0,93.137,0,60
		S26.863,0,60,0z"/>
	<path fill="#76ADDD" d="M80.913,96.33l-1.498-15.091l-0.576-3.6l4.385-0.194c-2.615-6.851-5.793-14.466-8.33-18.555l-31.738,2.477
		c0,0-8.673,2.446-12.182,2.333l-0.346,5.213c3.974,0.346,11.405-1.181,11.405-1.181l-2.707,29.088L80.913,96.33z"/>
	<path fill="#FFE1C9" d="M75.214,21.597c0,0,8.018,6.873,8.305,20.333c0.286,13.46-7.064,22.91-21.097,23.865
		c-14.033,0.954-22.814-8.782-22.814-8.782l-6.778-12.41l3.341-20.906L75.214,21.597z"/>
	<path fill="#402517" d="M90.32,8.209c-0.095-1.384-1.957-1.503-2.625-1.527c-0.668-0.024-1.742,0.787-1.694,1.718
		s0.811,1.289,1.194,1.313c0.382,0.024,0.74-0.286,0.74-0.286s-1.563,3.806-3.675,5.083c-2.112,1.277-4.988,2.673-8.902-0.597
		c0,0,4.51,0.095,7.732-3.746c2.107-2.514,2.195-4.367,2.291-5.656C85.477,3.222,84.26,0.024,81.73,0
		c-2.53-0.024-3.389,1.646-3.341,2.482c0.048,0.835,0.406,1.217,1.146,1.265s1.337-0.668,1.337-0.668s0.454-0.454,0.978-0.358
		c0.525,0.095,0.907,0.454,0.859,0.93c-0.015,0.153,0.022,0.851-0.167,1.432c-0.405,1.238-1.371,2.857-2.768,3.962
		c-2.052,1.623-2.691,1.383-4.415,1.408c-4.916,0.071-11.36-3.899-20.118-3.962C45.145,6.42,33.213,13.293,30.588,30.38
		c-2.625,17.087,9.021,26.633,9.021,26.633l-0.286-8.496c0,0-4.964,1.718-5.441-3.962c-0.478-5.68,5.584-3.699,5.584-3.699
		l-0.144-16.157l37.587-1.909c0,0,6.467-0.573,10.071-5.155C90.583,13.054,90.428,9.763,90.32,8.209z"/>
	<path fill="#FFE1C9" d="M79.329,81.239c0,0,4.666,13.133,4.752,13.939c0.086,0.806-4.234,3.859-3.11,5.386s2.938-1.094,2.938-1.094
		l1.066,5.414c0,0,0.216,0.418,0.806,0.432c0.59,0.014,0.634-0.461,0.634-0.461s0.288,0.346,0.778,0.259s0.518-0.461,0.518-0.461
		s0.432,0.403,0.95,0.259c0.518-0.144,0.691-0.547,0.691-0.547s0.216,0.518,0.922,0.317c0.706-0.202,0.432-1.037,0.432-1.037
		s-1.944-9.922-2.621-12.269c-0.336-1.165-2.368-7.178-4.946-13.931l-4.298,0.194L79.329,81.239z"/>
	<path fill="#FFE1C9" d="M30.974,63.699c-3.51-0.113-16.589,1.238-16.934-13.19c-0.244-10.195,8.294-11.808,8.294-11.808
		s6.451,2.851,6.854,0.893c0.403-1.958-3.139-2.678-3.139-2.678l5.443-2.851c0,0,0.72-0.202,0.49-0.893
		c-0.23-0.691-0.835-0.634-0.835-0.634s0.374-0.144,0.202-0.749c-0.173-0.605-0.806-0.778-0.806-0.778s0.173-0.317-0.029-0.864
		c-0.202-0.547-0.806-0.634-0.806-0.634s0.432-0.317,0.144-0.864c-0.288-0.547-1.066-0.432-1.066-0.432l-9.158,4.867
		c0,0-11.901,6.959-10.886,17.021c1.843,18.288,17.914,18.461,21.888,18.806L30.974,63.699z"/>
	<path fill="#402517" d="M65.134,36.751c0,2.285-1.128,4.138-2.519,4.138c-1.391,0-2.519-1.852-2.519-4.138H65.134z"/>
	<path fill="#402517" d="M78.214,36.588c0,2.285-1.128,4.138-2.519,4.138c-1.391,0-2.519-1.852-2.519-4.138H78.214z"/>
	<path fill="#402517" d="M73.635,54.633h-8.241c-0.221,0-0.4-0.179-0.4-0.4s0.179-0.4,0.4-0.4h8.241c0.221,0,0.4,0.179,0.4,0.4
		S73.856,54.633,73.635,54.633z"/>
	<path fill-rule="evenodd" clip-rule="evenodd" fill="#0050A0" d="M80.913,96.254l-41.587,0.444l-1.683,18.98
		c2.857,1.148,5.822,2.081,8.877,2.782c1.963-6.14,6.273-13.882,15.471-13.036c8.871,0.816,12.28,7.323,13.586,12.521
		c2.414-0.647,4.767-1.443,7.051-2.374L80.913,96.254z"/>
</g>
</svg>
