<?xml version="1.0" encoding="utf-8"?>
<!-- Generator: Adobe Illustrator 17.0.0, SVG Export Plug-In . SVG Version: 6.00 Build 0)  -->
<!DOCTYPE svg PUBLIC "-//W3C//DTD SVG 1.1//EN" "http://www.w3.org/Graphics/SVG/1.1/DTD/svg11.dtd">
<svg version="1.1" id="Livello_1" xmlns="http://www.w3.org/2000/svg" xmlns:xlink="http://www.w3.org/1999/xlink" x="0px" y="0px"
	 width="67.64px" height="93.181px" viewBox="0 0 67.64 93.181" enable-background="new 0 0 67.64 93.181" xml:space="preserve">
<g>
	<g>
		<rect x="7.066" y="90.661" fill="#FFFFFF" width="12.54" height="1.86"/>
		<rect x="41.266" y="90.661" fill="#FFFFFF" width="12.54" height="1.86"/>
	</g>
	<g>
		<rect x="7.066" y="92.521" width="12.54" height="0.66"/>
		<rect x="41.266" y="92.521" width="12.54" height="0.66"/>
	</g>
	<g>
		<path d="M7.066,90.661h12.54v-4.08h-4.98c0,0-3.12,0.1-4.98,0.98C7.786,88.441,7.066,90.661,7.066,90.661z"/>
		<path d="M41.266,86.581v4.08h12.54c0,0-0.08-1.32-2.7-2.76c-2.62-1.44-4.26-1.32-4.26-1.32H41.266z"/>
	</g>
	<path fill="#2E7FBC" d="M41.266,86.581h5.58l-1.66-19.26l-28.96-0.26l-1.6,19.52h4.98c0,0-0.22-13.3,10.14-13.22
		S41.266,86.581,41.266,86.581z"/>
	<path fill="#FFFEFD" d="M16.215,67.201l28.984,0.261l-2.062-22.041c0,0,1.531-0.036,3.749,0.031l-0.004-3.404
		c-2.375-0.11-3.985-0.077-3.985-0.077l-27.84-1.44l-0.21,3.75l3.032,0.129L16.215,67.201z"/>
	<g>
		<path fill="#FEE0C8" d="M65.606,47.941c-2.637-4.508-12.945-5.625-18.725-5.893l0.004,3.404
			c5.331,0.162,14.633,0.924,16.201,4.229c2.22,4.68,0.6,7.92,0.6,7.92l3.12,1.83C66.806,59.431,69.326,54.301,65.606,47.941z"/>
		<path fill="#FEE0C8" d="M61.522,61.082c-1.286,1.004-2.579,1.347-2.579,1.347s-3.902-1.779-4.504-0.81
			c-0.602,0.968,1.906,1.864,1.906,1.864l-3.673,1.918c0,0-0.34,0.199-0.172,0.556c0.168,0.357,0.592,0.115,0.592,0.115
			s-0.332,0.331-0.072,0.777c0.26,0.446,0.665,0.303,0.665,0.303s-0.364,0.348-0.099,0.744c0.264,0.396,0.67,0.243,0.67,0.243
			s-0.222,0.331-0.028,0.63c0.193,0.299,0.777,0.072,0.777,0.072l5.533-2.8c0,0,1.376-0.695,2.918-2.021
			C65.462,62.292,62.807,60.077,61.522,61.082z"/>
	</g>
	<circle fill="#FFB100" cx="63.491" cy="61.276" r="4.005"/>
	<circle fill="#FFFFFF" cx="63.491" cy="61.276" r="3.364"/>
	<path fill="#3F2416" d="M65.239,59.802l0.174-0.558l-0.561,0.214l0.14,0.124l-1.072,1.21c-0.109-0.082-0.244-0.131-0.391-0.131
		c-0.36,0-0.652,0.292-0.652,0.652c0,0.36,0.292,0.652,0.652,0.652c0.155,0,0.298-0.055,0.41-0.145l0.752,0.685l-0.101,0.111
		l0.555,0.181l-0.207-0.564l-0.126,0.139l-0.751-0.684c0.075-0.106,0.119-0.235,0.119-0.375c0-0.148-0.05-0.284-0.133-0.393
		l1.079-1.217L65.239,59.802z"/>
	<path fill="#FEE0C8" d="M47.506,22.134c0.305,1.386,0.488,2.766,0.557,4.126c0,0,2.415-0.234,2.169,2.464s-2.406,2.357-2.406,2.357
		c-1.197,7.882-6.313,14.309-13.546,15.899c-9.845,2.164-19.886-5.45-22.426-17.008S15.235,7.29,25.08,5.126
		S44.965,10.577,47.506,22.134z"/>
	<g>
		<ellipse fill="#422719" cx="39.041" cy="35.926" rx="1.515" ry="2.655"/>
		<ellipse fill="#422719" cx="33.491" cy="26.476" rx="1.515" ry="2.655"/>
		<ellipse fill="#422719" cx="43.196" cy="26.476" rx="1.305" ry="2.287"/>
		<path fill="#422719" d="M33.269,20.491c0.099-0.002,0.179-0.084,0.177-0.183c-0.002-0.098-0.082-0.177-0.18-0.177
			c-0.001,0-0.002,0-0.003,0c-0.75,0.013-1.424,0.456-1.949,1.28c-0.385,0.604-0.554,1.197-0.561,1.222
			c-0.027,0.096,0.029,0.195,0.124,0.222c0.016,0.005,0.033,0.007,0.049,0.007c0.079,0,0.151-0.052,0.173-0.131
			C31.106,22.708,31.741,20.519,33.269,20.491z"/>
		<path fill="#422719" d="M45.402,22.207c-0.03-0.073-0.758-1.793-1.877-2.128c-0.096-0.029-0.196,0.025-0.224,0.121
			c-0.029,0.095,0.025,0.196,0.121,0.224c0.955,0.287,1.641,1.906,1.648,1.922c0.029,0.069,0.096,0.111,0.166,0.111
			c0.023,0,0.047-0.004,0.069-0.014C45.397,22.404,45.44,22.299,45.402,22.207z"/>
	</g>
	<path fill="#402517" d="M18.152,16.898l-0.271,24.543c-2.889-2.98-5.139-6.944-6.147-11.53C9.193,18.354,15.138,7.336,24.96,5.066
		c7.766-1.795,15.056,2.465,18.416,2.285c2.636-0.141,5.64-4.23,4.41-5.34c-0.677-0.611-1.773,1.233-2.58,0.3
		c-1.53-1.77,4.32-4.08,4.65-0.18c0.566,6.685-5.423,8.827-5.423,8.827s6.443-0.157,7.283-4.297c-0.96,0.6-1.98-1.05-0.99-1.59
		c0.221-0.121,1.793-1.148,2.704,0.847c2.216,4.853-5.018,9.423-8.483,9.601C41.483,15.698,18.152,16.898,18.152,16.898z"/>
	<path fill="#FEE0C8" d="M15.186,40.531c0,0-10.576,0.241-11.55-8.97c-0.557-5.267,4.47-7.11,4.47-7.11s4.05,1.41,4.56,0.39
		s-2.07-1.68-2.07-1.68l3.48-2.25c0,0,0.32-0.23,0.12-0.57c-0.2-0.34-0.6-0.06-0.6-0.06s0.3-0.36,0-0.78s-0.69-0.24-0.69-0.24
		s0.33-0.38,0.03-0.75c-0.3-0.37-0.69-0.18-0.69-0.18s0.19-0.35-0.03-0.63s-0.78,0-0.78,0l-5.25,3.3c0,0-6.932,4.35-6.12,10.89
		c1.59,12.81,14.91,12.39,14.91,12.39L15.186,40.531z"/>
</g>
</svg>
