<?xml version="1.0" encoding="utf-8"?>
<!-- Generator: Adobe Illustrator 17.0.0, SVG Export Plug-In . SVG Version: 6.00 Build 0)  -->
<!DOCTYPE svg PUBLIC "-//W3C//DTD SVG 1.1//EN" "http://www.w3.org/Graphics/SVG/1.1/DTD/svg11.dtd">
<svg version="1.1" id="Livello_1" xmlns="http://www.w3.org/2000/svg" xmlns:xlink="http://www.w3.org/1999/xlink" x="0px" y="0px"
	 width="22.911px" height="20.942px" viewBox="0 0 22.911 20.942" enable-background="new 0 0 22.911 20.942" xml:space="preserve">
<path fill="#FFFFFF" d="M20.342,8.282l2.274-2.224c0.219-0.214,0.325-0.515,0.287-0.815c-0.037-0.301-0.215-0.568-0.48-0.723
	L14.958,0.14c-0.397-0.231-0.902-0.172-1.229,0.148l-2.274,2.223L9.181,0.288C8.895,0.009,8.468-0.075,8.097,0.07L0.633,2.989
	C0.318,3.112,0.089,3.381,0.021,3.705c-0.068,0.324,0.034,0.659,0.274,0.893l2.166,2.118L0.403,8.225
	C0.145,8.414-0.005,8.712,0,9.028c0.006,0.315,0.376,0.608,0.64,0.789l2.767,1.749v3.283c0,0.321-0.051,0.622,0.218,0.806
	l7.358,5.108c0.007,0.005-0.036,0.007-0.029,0.011c0.009,0.006-0.011,0.014-0.002,0.019c0.048,0.029,0.088,0.045,0.139,0.065
	c0.03,0.012,0.052,0.03,0.083,0.039c0.093,0.027,0.186,0.043,0.283,0.043c0.154,0,0.306-0.035,0.448-0.104l7.252-3.649
	c0.341-0.167,0.344-0.507,0.344-0.88v-3.041l2.641-1.188c0.289-0.142,0.597-0.41,0.649-0.722c0.052-0.312,0.052-0.63-0.176-0.853
	L20.342,8.282z M8.227,2.138l1.438,1.406L4.234,5.668L2.796,4.262L8.227,2.138z M2.72,8.984l1.292-0.948l5.729,3.921l-1.292,0.948
	L2.72,8.984z M10.449,18.069l-5.03-3.732v-1.394l2.685,1.982c0.173,0.119,0.27,0.178,0.471,0.178c0.212,0,0.372-0.066,0.55-0.197
	l1.323-1.009V18.069z M11.541,10.789L6.092,7.059l5.273-2.062l5.465,3.206L11.541,10.789z M17.491,15.701l-5.03,2.665v-4.062
	l1.268,1.24c0.193,0.189,0.451,0.288,0.711,0.288c0.153,0,0.095-0.034,0.239-0.104l2.811-1.478V15.701z M14.639,13.653L13.154,12.2
	l5.567-2.721l1.485,1.453L14.639,13.653z M18.763,7.043l-5.686-3.336l1.52-1.485l5.686,3.336L18.763,7.043z"/>
</svg>
