<?xml version="1.0" encoding="utf-8"?>
<!-- Generator: Adobe Illustrator 17.0.0, SVG Export Plug-In . SVG Version: 6.00 Build 0)  -->
<!DOCTYPE svg PUBLIC "-//W3C//DTD SVG 1.1//EN" "http://www.w3.org/Graphics/SVG/1.1/DTD/svg11.dtd">
<svg version="1.1" id="Livello_1" xmlns="http://www.w3.org/2000/svg" xmlns:xlink="http://www.w3.org/1999/xlink" x="0px" y="0px"
	 width="22.307px" height="34.701px" viewBox="0 0 22.307 34.701" enable-background="new 0 0 22.307 34.701" xml:space="preserve">
<g>
	<rect x="0.917" y="33.701" width="5" height="1"/>
	<rect x="11.917" y="33.701" width="5" height="1"/>
	<rect x="1.39" y="33.701" fill="#FFFFFF" width="5" height="0"/>
	<rect x="12.39" y="33.701" fill="#FFFFFF" width="5" height="0"/>
	<path d="M17.218,33.701h-5.301v-1h3.293c0,0,0.634-0.307,1.249,0.028C17.074,33.064,17.218,33.701,17.218,33.701z"/>
	<path d="M1.157,33.701h4.76v-1h-2.15c0,0-0.822-0.245-1.562,0.022C1.464,32.99,1.157,33.701,1.157,33.701z"/>
	<path fill="#80A7D0" d="M4.168,26.415l-0.402,6.286h2.208c0,0,0.151-3.872,3.513-3.921c3.363-0.05,3.112,3.921,3.112,3.921h2.61
		l-1.004-6.444L4.168,26.415z"/>
	<path fill="#F16439" d="M4.156,26.701l1.01-8.7c0,0-0.618,0.386-1.268,1.026l-0.923-0.931c1.243-1.275,2.824-2.339,2.824-2.339
		l7.228,1.23c0,0,1.041-0.057,2.22-0.36l0.371,1.414c-1.28,0.405-2.365,0.692-2.365,0.692l1.027,7.967H4.156z"/>
	<g>
		<path fill="#FFE6D4" d="M3.898,18.943l-0.923-0.889c-0.556,0.57-1.043,1.187-1.291,1.777c-0.803,1.911-0.778,3.897-0.778,3.897
			s-1.029,1.663-0.893,1.936c0.136,0.273,1.596,0.571,1.747,0.323c0.151-0.248,0-1.439,0-1.439s0.678,0.794,0.864,0.593
			c0.187-0.202-0.717-1.095-0.717-1.095s0.078-2.227,0.72-3.497C2.901,20.001,3.408,19.424,3.898,18.943z"/>
		<path fill="#FFE6D4" d="M20.782,8.116l-1.958,2.159c0.376,0.546,0.602,0.372,0.602,0.372s-0.025,2.978-1.456,4.567
			c-0.652,0.724-1.737,1.154-2.724,1.408l0.371,1.417c1.175-0.371,2.515-0.982,3.332-1.956c1.707-2.035,1.631-5.634,1.631-5.634
			S21.108,8.786,20.782,8.116z"/>
	</g>
	<g>
		<polygon fill="#CD1118" points="7.113,19.5 9.296,17.349 5.147,15.934 		"/>
		<polygon fill="#CD1118" points="9.549,17.448 10.994,19.5 12.935,16.919 		"/>
	</g>
	<path fill="#FFE6D4" d="M15.673,5.977c0.548,0.998,0.9,2.042,1.068,3.078c0,0,0.753-0.163,0.885,0.78
		c0.132,0.943-0.783,1.16-0.783,1.16c-0.149,2.518-1.404,4.78-3.583,5.95c-3.598,1.933-8.352,0.155-10.617-3.97
		S1.458,3.94,5.056,2.007S13.408,1.852,15.673,5.977z"/>
	<path d="M4.018,6.776l0.575,4.663c0,0-1.278-0.494-1.478,0.946s1.766,1.386,1.766,1.386l0.267,2.163
		c-0.984-0.768-1.848-1.765-2.504-2.959C0.378,8.85,1.458,3.94,5.056,2.007C7.261,0.823,9.9,1.032,12.134,2.32
		c1.847,0.907,3.277-2.27,3.854-2.32s0.979,3.251-1.11,4.752L4.018,6.776z"/>
	<path d="M11.803,9.311c0.177,0.663-0.042,1.294-0.488,1.411c-0.447,0.117-0.952-0.326-1.129-0.989
		c-0.177-0.663,0.042-1.294,0.488-1.411C11.121,8.206,11.626,8.649,11.803,9.311z"/>
	<path d="M15.268,8.658c0.141,0.658-0.078,1.262-0.487,1.347s-0.856-0.379-0.997-1.037c-0.141-0.658,0.078-1.262,0.487-1.347
		C14.681,7.535,15.128,7.999,15.268,8.658z"/>
	<path d="M11.396,12.385c0.837,0.199,3.246-0.232,3.681-0.629c0,0-0.134,2.019-1.539,2.283S11.396,12.385,11.396,12.385z"/>
	<ellipse fill="#CD1118" cx="9.489" cy="19.169" rx="0.368" ry="0.331"/>
	<ellipse fill="#CD1118" cx="9.71" cy="20.807" rx="0.414" ry="0.347"/>
	<ellipse fill="#CD1118" cx="9.71" cy="22.454" rx="0.414" ry="0.388"/>
	<ellipse fill="#CD1118" cx="9.71" cy="24.596" rx="0.414" ry="0.364"/>
	<polygon fill="#45418D" points="21.545,8.195 18.418,10.686 17.284,9.295 20.412,6.804 	"/>
	<polygon points="22.307,6.441 21.529,6.59 21.259,7.285 21.976,7.203 	"/>
	<path fill="#FFFFFF" d="M21.643,6.97c-0.173-0.213-0.113-0.38-0.113-0.38l-1.118,0.214l1.134,1.392l0.431-0.993
		C21.976,7.203,21.816,7.183,21.643,6.97z"/>
</g>
</svg>
