<?xml version="1.0" encoding="utf-8"?>
<!-- Generator: Adobe Illustrator 17.0.0, SVG Export Plug-In . SVG Version: 6.00 Build 0)  -->
<!DOCTYPE svg PUBLIC "-//W3C//DTD SVG 1.1//EN" "http://www.w3.org/Graphics/SVG/1.1/DTD/svg11.dtd">
<svg version="1.1" id="Livello_1" xmlns="http://www.w3.org/2000/svg" xmlns:xlink="http://www.w3.org/1999/xlink" x="0px" y="0px"
	 width="33.504px" height="53.105px" viewBox="0 0 33.504 53.105" enable-background="new 0 0 33.504 53.105" xml:space="preserve">
<g>
	<path fill="#EC6D3C" d="M4.268,28.647c0.401-0.617,0.827-1.217,1.194-1.855c0.22-0.044,0.335,0.135,0.489,0.23
		c0.09,0.075,0.2,0.113,0.306,0.155c0.136,0.062,0.23,0.175,0.336,0.274c0.417,0.389,0.874,0.725,1.354,1.031
		c0.388,0.293,0.859,0.471,1.181,0.855c0.03,0.106,0.077,0.203,0.129,0.3c0.553,1.028,1.248,1.967,1.86,2.958
		c0.14,0.226,0.239,0.132,0.342-0.026c0.343-0.53,0.726-1.033,1.071-1.562c0.075-0.115,0.126-0.272,0.303-0.284
		c0.131,0.078,0.128,0.225,0.174,0.346c0.173,0.457,0.272,0.94,0.447,1.408c0.154-0.088,0.178-0.214,0.233-0.318
		c0.237-0.45,0.405-0.931,0.622-1.39c0.167-0.354,0.249-0.387,0.656-0.275c0.035,0.047,0.031,0.108-0.018,0.121
		c-0.314,0.082-0.212,0.233-0.089,0.415c0.313,0.462,0.597,0.944,0.916,1.403c0.221,0.317,0.265,0.313,0.46-0.018
		c0.487-0.826,0.964-1.658,1.511-2.447c0.119-0.092,0.261-0.13,0.4-0.173c1.03-0.317,2-0.759,2.887-1.376
		c0.089-0.063,0.18-0.128,0.297-0.128c0.079,0.011,0.129,0.062,0.17,0.123c0.317,0.467,0.59,0.963,0.897,1.438
		c0.058,0.089,0.104,0.194,0.025,0.301c-0.087,0.065-0.169,0.139-0.262,0.194c-0.822,0.491-1.621,1.026-2.523,1.366
		c-0.186,0.071-0.23,0.177-0.2,0.358c0.036,0.215,0.058,0.433,0.077,0.65c0.078,0.881,0.141,1.763,0.232,2.643
		c0.178,1.711,0.374,3.42,0.553,5.131c0.034,0.323,0.074,0.649,0.048,0.976c-0.102,0.11-0.24,0.101-0.372,0.116
		c-1.489,0.165-2.987,0.077-4.481,0.13c-3.185,0.112-6.371-0.097-9.557-0.056c-0.061,0.001-0.121-0.003-0.182-0.005
		c-0.172-0.007-0.337-0.041-0.483-0.141c-0.019-0.159,0.003-0.315,0.028-0.471c0.164-1.041,0.344-2.08,0.549-3.115
		c0.331-1.677,0.634-3.359,0.942-5.041c0.1-0.549,0.238-1.09,0.305-1.645c0.026-0.215-0.011-0.351-0.221-0.467
		c-0.947-0.521-1.864-1.088-2.687-1.797C4.124,28.846,4.206,28.746,4.268,28.647z"/>
	<path fill="#F8B124" d="M25.193,8.496c-1.433,0.242-2.849,0.568-4.275,0.843c-0.155,0.027-0.308,0.069-0.467,0.029
		c-0.116-0.104-0.128-0.258-0.189-0.389c-0.356-0.766-1.366-0.875-1.85-0.2c-0.097,0.135-0.177,0.284-0.04,0.428
		c0.145,0.151,0.288,0.062,0.417-0.046c0.103-0.087,0.204-0.174,0.334-0.218c0.182-0.061,0.343-0.022,0.457,0.13
		c0.11,0.148,0.217,0.309,0.029,0.48c-0.143,0.072-0.3,0.096-0.455,0.125c-2.978,0.55-5.949,1.138-8.922,1.716
		c-0.435,0.085-0.865,0.259-1.325,0.178c-0.112-0.074-0.142-0.192-0.165-0.313c-0.466-2.4-1.003-4.785-1.46-7.186
		C7.256,3.935,7.194,3.786,7.32,3.659c0.203-0.041,0.405-0.081,0.607-0.122c2.843-0.569,5.685-1.14,8.528-1.705
		c2.987-0.593,5.975-1.18,8.962-1.769c0.07-0.029,0.144-0.042,0.209,0.001c0.171,0.111,0.192,0.301,0.236,0.476
		c0.596,2.334,0.894,4.727,1.436,7.072c0.033,0.144,0.032,0.287-0.074,0.408c-0.495,0.149-1.014,0.182-1.513,0.31
		C25.538,8.381,25.377,8.463,25.193,8.496z"/>
	<path fill="#0050A0" d="M20.444,41.929c0.013,0.655,0.135,1.301,0.172,1.955c0.064,1.111,0.188,2.218,0.261,3.328
		c0.052,0.785,0.062,1.573,0.09,2.359c-0.209,0.185-0.471,0.178-0.723,0.186c-0.557,0.018-1.115-0.012-1.672,0.067
		c-0.212,0.03-0.437,0.043-0.644-0.06c-0.148-0.167,0.002-0.387-0.099-0.562c-0.058-0.798-0.346-1.536-0.596-2.284
		c-0.03-0.09-0.096-0.168-0.148-0.25c-0.56-0.875-1.341-1.476-2.272-1.93c-0.924-0.452-1.876-0.596-2.868-0.402
		c-1.465,0.287-2.726,0.945-3.631,2.178c-0.427,0.582-0.767,1.195-0.883,1.934c-0.067,0.426-0.159,0.858-0.27,1.28
		c-0.14,0.126-0.317,0.118-0.48,0.102c-0.647-0.062-1.295-0.064-1.944-0.082c-0.2-0.006-0.412-0.019-0.572-0.176
		c0.006-0.146-0.002-0.294,0.021-0.437c0.139-0.873,0.236-1.752,0.376-2.624c0.194-1.208,0.3-2.427,0.498-3.634
		c0.075-0.453,0.091-0.916,0.21-1.362c0.132-0.073,0.262,0.006,0.393,0.006c1.737,0.001,3.474,0.033,5.211,0.063
		c1.895,0.032,3.79,0.038,5.686-0.026c1.261-0.043,2.524-0.039,3.786-0.087C20.41,41.617,20.442,41.77,20.444,41.929z"/>
	<path fill="#FCDFC9" d="M25.525,8.628c-0.076,0.272-0.198,0.528-0.356,0.755C25.051,9.552,25.077,9.669,25.19,9.8
		c0.316,0.37,0.552,0.795,0.807,1.206c0.276,0.444,0.469,0.932,0.713,1.391c0.581,1.092,0.915,2.262,1.199,3.454
		c0.168,0.707,0.269,1.424,0.346,2.144c0.039,0.372,0.011,0.75,0.079,1.122c0.033,0.179-0.075,0.351-0.067,0.538
		c0.032,0.768-0.076,1.517-0.29,2.257c-0.273,0.945-0.583,1.872-1.016,2.759c-0.486,0.995-1.047,1.941-1.715,2.824
		c-0.471,0.622-1.041,1.147-1.618,1.668c-0.387,0.35-0.824,0.635-1.206,0.988c-0.008-0.047-0.004-0.103-0.027-0.14
		c-0.353-0.564-0.709-1.126-1.065-1.688c-0.022-0.185,0.13-0.255,0.244-0.328c0.477-0.302,0.853-0.708,1.253-1.1
		c1.597-1.563,2.394-3.544,3.003-5.624c0.546-1.863,0.321-3.741-0.043-5.593c-0.315-1.603-1.039-3.054-1.993-4.38
		c-0.288-0.401-0.607-0.79-1.173-0.834c-0.229-0.018-0.421-0.176-0.624-0.287c-0.432-0.235-0.682-0.688-1.117-0.916
		c0.056-0.021,0.11-0.05,0.167-0.062c0.852-0.172,1.705-0.344,2.558-0.512c0.699-0.137,1.393-0.303,2.106-0.357
		C25.609,8.405,25.557,8.511,25.525,8.628z"/>
	<path fill="#FCDFC9" d="M2.659,27.585c-0.722-0.686-1.168-1.544-1.552-2.441c-0.229-0.536-0.36-1.106-0.541-1.658
		c-0.321-0.975-0.501-1.975-0.538-2.989c-0.044-1.185-0.069-2.375,0.199-3.55c0.181-0.792,0.37-1.583,0.641-2.346
		c0.321-0.903,0.771-1.752,1.243-2.587c0.088-0.156,0.084-0.265-0.025-0.424C1.7,11.03,1.551,10.393,1.64,9.722
		c0.036-0.276,0.074-0.547,0.062-0.825c0.101-0.006,0.151,0.069,0.2,0.136c0.437,0.602,0.96,1.127,1.5,1.633
		c0.71,0.665,1.521,1.161,2.487,1.369c0.082,0.018,0.173,0.021,0.206,0.121c-0.022,0.193-0.156,0.294-0.308,0.38
		c-0.349,0.199-0.701,0.396-1.093,0.497c-0.229,0.059-0.377,0.192-0.498,0.391c-0.248,0.408-0.426,0.848-0.618,1.281
		c-0.659,1.49-1.165,3.018-1.133,4.677c0.009,0.477,0.117,0.94,0.156,1.413c0.083,1.021,0.229,2.035,0.712,2.959
		c0.507,0.971,1.027,1.935,1.923,2.626c0.129,0.1,0.315,0.209,0.257,0.438c-0.155,0.452-0.454,0.821-0.705,1.217
		c-0.2,0.315-0.45,0.598-0.601,0.944C3.614,28.584,3.159,28.059,2.659,27.585z"/>
	<path fill="#EC788F" d="M1.662,8.645C1.444,7.664,1.227,6.682,1.064,5.69c-0.071-0.436,0.142-0.806,0.56-0.933
		C1.74,4.722,1.86,4.701,1.979,4.677c0.713-0.142,1.425-0.294,2.14-0.422c0.452-0.081,0.899-0.196,1.36-0.229
		c0.183,0.206,0.173,0.473,0.22,0.718C6.14,7.02,6.626,9.287,7.045,11.567c0.027,0.142,0.081,0.284-0.008,0.423
		c-0.308,0.149-0.623,0.248-0.969,0.141c-0.374,0.007-0.711-0.122-1.044-0.273c-1.415-0.642-2.418-1.746-3.323-2.961
		C1.689,8.813,1.683,8.728,1.662,8.645z"/>
	<path fill="#FFEDC8" d="M25.684,0.022c0.173,0.053,0.349,0.094,0.519,0.154c0.66,0.232,1.316,0.471,1.975,0.705
		c0.611,0.217,1.224,0.429,1.836,0.644c0.255,1.2,0.533,2.395,0.794,3.594c-0.23,0.153-0.433,0.338-0.639,0.522
		c-0.215,0.192-0.425,0.392-0.65,0.573c-0.759,0.609-1.529,1.204-2.295,1.805c0.061-0.301-0.082-0.572-0.136-0.855
		c-0.333-1.753-0.673-3.505-1.02-5.255c-0.106-0.535-0.243-1.064-0.363-1.597c-0.035-0.157-0.094-0.279-0.287-0.249
		C25.496-0.021,25.588-0.008,25.684,0.022z"/>
	<path fill="#DBDCDC" d="M6.552,3.655C6.805,3.59,7.067,3.504,7.323,3.659c0.007,0.06,0.01,0.121,0.022,0.18
		c0.38,1.866,0.761,3.731,1.142,5.597c0.143,0.701,0.287,1.401,0.431,2.102c0.021,0.175-0.11,0.236-0.234,0.278
		c-0.414,0.142-0.834,0.269-1.279,0.262c-0.142-0.002-0.296,0.017-0.401-0.119c0.018-0.248-0.094-0.472-0.137-0.708
		C6.535,9.445,6.188,7.642,5.805,5.846C5.676,5.244,5.547,4.641,5.481,4.027C5.78,3.738,6.185,3.748,6.552,3.655z"/>
	<path fill="#020202" d="M21.73,49.57c0.811,0.016,1.563,0.202,2.135,0.832c0.161,0.178,0.3,0.376,0.449,0.565
		c0.124,0.191,0.336,0.398,0.237,0.615c-0.11,0.24-0.411,0.153-0.631,0.149c-1.857-0.037-3.713-0.097-5.571-0.071
		c-0.098,0.001-0.195-0.002-0.29-0.027c-0.098-0.025-0.195-0.064-0.19-0.185c0.021-0.565-0.064-1.134,0.044-1.697
		c0.593-0.053,1.186-0.088,1.782-0.101c0.425-0.009,0.85-0.015,1.272-0.078C21.221,49.595,21.475,49.565,21.73,49.57z"/>
	<path fill="#020202" d="M7.157,49.721c0.11,0.301-0.005,0.618,0.066,0.922c0.003,0.295,0.006,0.59,0.009,0.885
		c-0.106,0.129-0.255,0.131-0.4,0.129c-1.95-0.034-3.899,0.059-5.849,0.073c-0.527,0.004-0.568-0.074-0.341-0.528
		c0.054-0.108,0.097-0.223,0.191-0.306c0.136-0.167,0.264-0.342,0.409-0.501c0.571-0.625,1.32-0.81,2.127-0.825
		c0.265-0.005,0.53,0.025,0.795,0.002c0.996,0.109,1.999,0.084,2.997,0.157L7.157,49.721z"/>
	<path fill="#F8F8F8" d="M24.43,51.045c0.31,0.567,0.423,1.18,0.403,1.82c-0.004,0.127-0.081,0.199-0.208,0.209
		c-0.085,0.007-0.17,0.005-0.255,0.005c-1.039-0.005-2.078,0.032-3.114-0.073c-0.344-0.035-0.673,0.065-1.012,0.079
		c-0.681,0.028-1.354-0.085-2.033-0.079c-0.395,0.004-0.395-0.001-0.385-0.414c0.003-0.085,0.001-0.17,0.001-0.255
		c0.001-1.045,0.002-2.09,0.003-3.135c0.122,0.168,0.021,0.37,0.083,0.548c-0.009,0.534-0.015,1.069-0.029,1.603
		c-0.004,0.15,0.034,0.22,0.203,0.214c0.363-0.012,0.728-0.007,1.092-0.007c0.911,0,1.821-0.019,2.731,0.008
		c0.789,0.023,1.577,0.048,2.366,0.057c0.089,0.002,0.188,0.024,0.274-0.038c-0.023-0.241-0.186-0.409-0.237-0.62
		C24.352,50.993,24.409,51.01,24.43,51.045z"/>
	<path fill="#F8F8F8" d="M7.312,52.723c-0.024,0.274-0.013,0.278-0.297,0.286c-0.374,0.011-0.747,0.018-1.122,0.058
		c-0.455,0.049-0.925,0.06-1.38-0.013c-0.243-0.039-0.484-0.056-0.722-0.033c-0.272,0.026-0.547,0.04-0.818,0.05
		c-0.777,0.029-1.555,0.011-2.332,0.01c-0.093,0-0.199,0.024-0.258-0.085C0.48,52.904,0.604,52.9,0.725,52.9
		c0.753,0,1.505-0.041,2.257-0.064c1.275-0.04,2.553,0.056,3.546-0.01c-1.659-0.024-3.603,0.021-5.546,0.005
		c-0.207-0.002-0.446-0.064-0.598,0.163c-0.242-0.025-0.158-0.218-0.146-0.336c0.033-0.322,0.069-0.649,0.156-0.96
		c0.083-0.294,0.151-0.613,0.439-0.802c-0.084,0.236-0.253,0.438-0.29,0.698c0.153,0.058,0.298,0.031,0.44,0.029
		c1.697-0.024,3.393-0.098,5.091-0.069c0.385,0.007,0.775,0.049,1.159-0.026C7.218,51.928,7.351,52.318,7.312,52.723z"/>
	<path fill="#2F2E2C" d="M33.504,2.819c-0.299,0.257-0.552,0.478-0.808,0.695c-0.63,0.533-1.291,1.031-1.886,1.605
		c-0.087,0.007-0.12-0.033-0.139-0.12c-0.234-1.096-0.473-2.19-0.709-3.286c-0.015-0.068-0.035-0.146,0.053-0.188
		C31.158,1.95,32.301,2.374,33.504,2.819z"/>
	<path fill="#72ADD8" d="M7.224,50.644c-0.072-0.304-0.02-0.617-0.066-0.923C7.305,50.019,7.233,50.334,7.224,50.644z"/>
	<path fill="#FCDFC9" d="M12.384,30.626c-1.094-0.12-2.064-0.602-3.048-1.042c-0.115-0.051-0.193-0.143-0.263-0.244
		c-0.397-0.265-0.794-0.529-1.191-0.793c-0.019-0.052-0.044-0.101-0.067-0.151c-0.031-0.07-0.059-0.141-0.079-0.215
		c-0.126-0.483-0.198-0.976-0.28-1.467c-0.115-0.681-0.122-0.679-0.802-0.691c-0.653-0.012-1.044-0.322-1.267-1.002
		c-0.205-0.628-0.036-1.263,0.421-1.621c0.337-0.264,0.718-0.324,1.17-0.237c-0.115-0.602-0.156-1.169-0.281-1.726
		c-0.224-0.997-0.31-2.017-0.474-3.024c-0.047-0.296,0.061-0.468,0.353-0.529c0.083-0.018,0.166-0.039,0.25-0.053
		c3.605-0.619,7.19-1.35,10.797-1.959c0.322-0.055,0.64-0.147,0.972-0.135c1.237,1.121,2.103,2.474,2.525,4.095
		c0.065,0.25,0.111,0.412,0.437,0.392c0.373-0.023,0.631,0.207,0.79,0.545c0.172,0.365,0.194,0.75,0.174,1.142
		c-0.02,0.389-0.154,0.567-0.525,0.7c-0.436,0.155-0.447,0.161-0.417,0.617c0.046,0.708,0.023,1.412-0.158,2.099
		c-0.3,1.139-0.69,2.24-1.591,3.064c-0.713,0.652-1.502,1.196-2.41,1.546c-0.085,0.033-0.126,0.062-0.109,0.151
		c-0.687,0.17-1.358,0.406-2.062,0.51c-0.096,0.014-0.193,0.009-0.271-0.065c-0.463-0.009-0.464-0.009-0.64,0.39
		c-0.04,0.089-0.07,0.181-0.11,0.27c-0.228,0.506-0.43,1.024-0.719,1.515c-0.045-0.036-0.086-0.052-0.095-0.078
		c-0.206-0.632-0.408-1.265-0.61-1.898C12.66,30.71,12.528,30.641,12.384,30.626z"/>
	<path fill="#3F2417" d="M6.214,27.249C6.124,27.153,6,27.098,5.912,27c-1.487-1.972-2.154-4.237-2.263-6.664
		c-0.065-1.448,0.303-2.848,0.839-4.192c1.009-2.531,2.966-3.981,5.52-4.652c1.561-0.41,3.168-0.239,4.745-0.017
		c0.72,0.102,1.437,0.269,2.162,0.307c1.212,0.064,2.195-0.49,2.546-1.731c0.053-0.186,0.058-0.387,0.165-0.557
		c-0.001-0.06,0.01-0.124-0.005-0.18c-0.09-0.349-0.34-0.434-0.625-0.212c-0.077,0.06-0.14,0.136-0.215,0.197
		c-0.163,0.133-0.348,0.135-0.493,0.01c-0.111-0.096-0.142-0.314-0.046-0.469c0.136-0.219,0.311-0.416,0.556-0.507
		c0.453-0.169,0.979-0.186,1.321,0.258c0.176,0.229,0.291,0.472,0.347,0.749c0.116,0.14,0.137,0.31,0.132,0.479
		c-0.042,1.493-1.46,3.034-2.935,3.193c-0.077-0.007-0.152-0.022-0.143-0.018c-0.025-0.003,0.038,0.008,0.098,0.025
		c0.44,0.189,0.902,0.312,1.379,0.302c1.223-0.026,2.044-0.892,2.463-2.178c-0.454-0.082-0.66-0.282-0.614-0.597
		c0.042-0.291,0.402-0.554,0.734-0.537c0.394,0.02,0.77,0.347,0.853,0.733c0.084,0.39,0.054,0.765-0.086,1.144
		c-0.161,0.437-0.375,0.848-0.621,1.236c-0.664,1.05-1.476,1.961-2.589,2.561c-0.157,0.084-0.319,0.186-0.515,0.112
		c-0.047,0.013-0.092,0.03-0.139,0.038c-1.757,0.3-3.515,0.596-5.265,0.941c-1.416,0.279-2.84,0.518-4.261,0.775
		c-0.788,0.142-1.576,0.282-2.363,0.429c-0.313,0.058-0.324,0.084-0.283,0.376c0.078,0.553,0.18,1.101,0.244,1.656
		c0.118,1.013,0.39,2.002,0.506,3.016c0.01,0.094,0.058,0.187,0.002,0.287c-0.034-0.006-0.068-0.008-0.101-0.017
		c-0.819-0.236-1.49,0.236-1.547,1.085c-0.023,0.338,0.057,0.645,0.202,0.948c0.189,0.395,0.506,0.568,0.923,0.6
		c0.22,0.017,0.436-0.014,0.65-0.063c0.153-0.035,0.242-0.008,0.268,0.183c0.104,0.757,0.234,1.51,0.396,2.258
		c0.004,0.015,0.008,0.031,0.012,0.046c0.005,0.064,0.01,0.129,0.015,0.193C7.289,28.16,6.732,27.73,6.214,27.249z"/>
	<path fill="#AD4217" d="M11.445,32.752c-0.142,0.21-0.189,0.209-0.33-0.005c-0.307-0.465-0.602-0.939-0.914-1.4
		C9.82,30.785,9.48,30.2,9.141,29.613c-0.051-0.089-0.086-0.173-0.07-0.274c1.133,0.542,2.259,1.1,3.535,1.234
		c0.09,0.009,0.202,0.019,0.198,0.159C12.352,31.406,11.901,32.081,11.445,32.752z"/>
	<path fill="#AD4217" d="M17.694,30.185c-0.527,0.815-1.023,1.648-1.504,2.49c-0.126,0.22-0.21,0.214-0.359-0.01
		c-0.41-0.616-0.813-1.236-1.216-1.856c-0.032-0.049-0.068-0.103-0.044-0.172c0.118-0.096,0.292,0.011,0.406-0.105
		c0.119-0.017,0.238-0.037,0.357-0.052c0.682-0.085,1.314-0.385,1.998-0.461c0.137-0.001,0.274-0.003,0.411-0.005
		C17.727,30.072,17.725,30.138,17.694,30.185z"/>
	<path fill="#B04318" d="M13.567,34.597c-0.193,0.02-0.39-0.168-0.4-0.382c-0.012-0.245,0.163-0.469,0.383-0.489
		c0.257-0.024,0.408,0.119,0.431,0.412C13.998,34.356,13.801,34.574,13.567,34.597z"/>
	<path fill="#B04318" d="M14.035,35.834c-0.005,0.246-0.205,0.452-0.428,0.439c-0.194-0.012-0.377-0.242-0.369-0.466
		c0.008-0.223,0.204-0.407,0.427-0.402C13.917,35.41,14.04,35.553,14.035,35.834z"/>
	<path fill="#DFC8BA" d="M6.217,27.245c-0.113-0.019-0.213-0.06-0.283-0.157c0.025-0.029,0.051-0.057,0.077-0.085
		C6.108,27.06,6.173,27.144,6.217,27.245z"/>
	<path fill="#1F1C1E" d="M23.763,52.732c0.278-0.016,0.559,0.002,0.838,0.009c0.089,0.002,0.18,0.029,0.165,0.144
		c-0.011,0.092-0.097,0.094-0.17,0.097c-0.121,0.005-0.243,0.011-0.364,0.009c-0.619-0.008-1.238-0.011-1.857-0.028
		c-1.383-0.038-2.767,0.049-4.15-0.033c-0.084-0.005-0.17,0.002-0.254-0.009c-0.069-0.009-0.097-0.062-0.089-0.131
		c0.006-0.056,0.042-0.087,0.094-0.089c0.072-0.003,0.145,0.005,0.218,0.005c1.02,0,2.039,0,3.059,0
		C22.09,52.671,22.927,52.782,23.763,52.732z"/>
	<path fill="#1F1D1E" d="M0.386,52.994c-0.08-0.103-0.108-0.204,0.056-0.244c0.092-0.022,0.193-0.011,0.29-0.011
		c1.142-0.004,2.283-0.013,3.425-0.011c0.959,0.002,1.919,0.001,2.878-0.03c0.081-0.002,0.184-0.022,0.193,0.103
		c0.009,0.123-0.086,0.126-0.174,0.128c-0.037,0.001-0.073,0.001-0.11,0.001c-0.887,0.009-1.772,0.044-2.659,0.029
		C2.986,52.937,1.686,52.979,0.386,52.994L0.386,52.994z"/>
	<path fill="#402517" d="M19.749,23.946c0.029,0.87-0.271,1.593-0.986,2.11c-0.302,0.218-0.646,0.293-1.032,0.247
		c-0.503-0.061-0.922-0.278-1.309-0.582c-0.428-0.335-0.669-0.782-0.799-1.336c1.428,0.183,2.796,0.097,4.082-0.611
		C19.726,23.855,19.747,23.9,19.749,23.946z"/>
	<path fill="#3F2417" d="M14.048,19.986c0.162-0.258,0.404-0.338,0.688-0.222c0.178,0.072,0.303,0.194,0.388,0.365
		c0.186,0.374,0.298,0.769,0.35,1.182c0.041,0.321-0.047,0.604-0.267,0.841c-0.225,0.243-0.527,0.26-0.782,0.053
		c-0.105-0.086-0.192-0.187-0.256-0.306c-0.187-0.346-0.319-0.709-0.312-1.154C13.848,20.505,13.89,20.233,14.048,19.986z"/>
	<path fill="#402517" d="M18.519,18.82c0.232-0.327,0.597-0.346,0.861-0.041c0.047,0.054,0.083,0.119,0.121,0.181
		c0.208,0.34,0.268,0.721,0.322,1.108c0.029,0.215-0.005,0.407-0.092,0.599c-0.237,0.526-0.592,0.441-0.915,0.246
		c-0.176-0.107-0.261-0.286-0.324-0.47c-0.098-0.288-0.129-0.591-0.152-0.871C18.351,19.295,18.363,19.041,18.519,18.82z"/>
	<path fill="#EC6D3C" d="M7.873,28.311c-0.001,0.013-0.004,0.027-0.007,0.041c-0.006-0.001-0.019-0.003-0.019-0.005
		c0.001-0.013,0.004-0.027,0.007-0.041C7.861,28.308,7.874,28.31,7.873,28.311z"/>
</g>
</svg>
