<?xml version="1.0" encoding="utf-8"?>
<!-- Generator: Adobe Illustrator 17.0.0, SVG Export Plug-In . SVG Version: 6.00 Build 0)  -->
<!DOCTYPE svg PUBLIC "-//W3C//DTD SVG 1.1//EN" "http://www.w3.org/Graphics/SVG/1.1/DTD/svg11.dtd">
<svg version="1.1" id="Livello_1" xmlns="http://www.w3.org/2000/svg" xmlns:xlink="http://www.w3.org/1999/xlink" x="0px" y="0px"
	 width="26px" height="26px" viewBox="0 0 26 26" enable-background="new 0 0 26 26" xml:space="preserve">
<path fill="#FFFFFF" d="M14.635,1.759c-5.381,0-9.887,3.803-10.982,8.862L2.135,8.188c-0.292-0.468-0.91-0.612-1.378-0.319
	C0.288,8.161,0.146,8.777,0.438,9.246l3.03,4.857c0.19,0.304,0.516,0.471,0.85,0.471c0.181,0,0.364-0.049,0.528-0.151l4.857-3.03
	c0.469-0.292,0.611-0.909,0.319-1.378C9.73,9.546,9.113,9.403,8.645,9.695l-3.142,1.96c0.655-4.459,4.494-7.897,9.132-7.897
	c5.096,0,9.241,4.146,9.241,9.241s-4.146,9.241-9.241,9.241c-2.469,0-4.79-0.961-6.535-2.707c-0.391-0.391-1.023-0.391-1.414,0
	s-0.391,1.023,0,1.414c2.123,2.123,4.946,3.293,7.949,3.293c6.198,0,11.241-5.043,11.241-11.241S20.833,1.759,14.635,1.759z"/>
</svg>
