<?xml version="1.0" encoding="utf-8"?>
<!-- Generator: Adobe Illustrator 17.0.0, SVG Export Plug-In . SVG Version: 6.00 Build 0)  -->
<!DOCTYPE svg PUBLIC "-//W3C//DTD SVG 1.1//EN" "http://www.w3.org/Graphics/SVG/1.1/DTD/svg11.dtd">
<svg version="1.1" id="Livello_1" xmlns="http://www.w3.org/2000/svg" xmlns:xlink="http://www.w3.org/1999/xlink" x="0px" y="0px"
	 width="20px" height="20px" viewBox="0 0 20 20" enable-background="new 0 0 20 20" xml:space="preserve">
<path fill="#FFFFFF" d="M11.212,1.262c-4.208,0-7.73,2.99-8.555,6.958L1.436,6.262C1.217,5.911,0.754,5.804,0.403,6.023
	s-0.458,0.682-0.239,1.033l2.364,3.789c0.142,0.228,0.387,0.354,0.637,0.354c0.136,0,0.273-0.037,0.396-0.114L7.349,8.72
	c0.352-0.219,0.458-0.682,0.239-1.033C7.369,7.334,6.907,7.229,6.555,7.448L4.049,9.011c0.485-3.524,3.508-6.25,7.163-6.25
	c3.991,0,7.238,3.247,7.238,7.238s-3.247,7.238-7.238,7.238c-1.933,0-3.751-0.753-5.118-2.12c-0.293-0.293-0.768-0.293-1.061,0
	s-0.293,0.768,0,1.061c1.65,1.65,3.845,2.56,6.179,2.56c4.818,0,8.738-3.92,8.738-8.738S16.03,1.262,11.212,1.262z"/>
</svg>
