<?xml version="1.0" encoding="utf-8"?>
<!-- Generator: Adobe Illustrator 17.0.0, SVG Export Plug-In . SVG Version: 6.00 Build 0)  -->
<!DOCTYPE svg PUBLIC "-//W3C//DTD SVG 1.1//EN" "http://www.w3.org/Graphics/SVG/1.1/DTD/svg11.dtd">
<svg version="1.1" id="Livello_1" xmlns="http://www.w3.org/2000/svg" xmlns:xlink="http://www.w3.org/1999/xlink" x="0px" y="0px"
	 width="24px" height="19px" viewBox="0 0 24 19" enable-background="new 0 0 24 19" xml:space="preserve">
<path fill="#FFFFFF" d="M12.008,16h6c0.552,0,1-0.448,1-1v-4c0-0.552-0.448-1-1-1h-6c-0.552,0-1,0.448-1,1v4
	C11.007,15.552,11.455,16,12.008,16z M12.008,11h6v4h-6V11z"/>
<path fill="#FFFFFF" d="M16.654,12.646l-1,1c-0.195,0.195-0.195,0.512,0,0.707c0.097,0.098,0.226,0.147,0.353,0.147
	c0.128,0,0.256-0.049,0.354-0.147l1-1c0.195-0.195,0.195-0.512,0-0.707C17.166,12.451,16.85,12.451,16.654,12.646z"/>
<path fill="#FFFFFF" d="M23.453,4.092l-3.778-3.711L19.62,0.327l-0.062-0.045C19.3,0.097,18.998,0,18.682,0h-1.909h-1.909h-1.909
	h-1.909H9.136H7.227H5.318C5.003,0,4.7,0.097,4.443,0.282L4.38,0.327L4.325,0.381L0.547,4.092C0.203,4.375,0,4.801,0,5.25v1.375
	c0,1.252,0.839,2.32,2.007,2.713V17c0,1.103,0.897,2,2,2h2h1v-1v-6h1v6v1h1h11.001c1.103,0,2-0.897,2-2V9.332
	C23.167,8.934,24,7.869,24,6.625V5.25C24,4.801,23.797,4.375,23.453,4.092z M22,6.625C22,7.107,21.552,7.5,21,7.5s-1-0.393-1-0.875
	V5.25c0-0.132-0.052-0.258-0.145-0.352L17.973,2h0.547L22,5.506V6.625z M8.007,10h-1c-1.103,0-2,0.897-2,2v5h-1V8.235
	C4.193,8.133,4.358,8.004,4.5,7.852C4.867,8.246,5.4,8.5,6,8.5c0.6,0,1.133-0.254,1.5-0.648C7.867,8.246,8.4,8.5,9,8.5
	s1.133-0.254,1.5-0.648C10.867,8.246,11.4,8.5,12,8.5c0.6,0,1.133-0.254,1.5-0.648C13.867,8.246,14.4,8.5,15,8.5
	c0.6,0,1.133-0.254,1.5-0.648C16.867,8.246,17.4,8.5,18,8.5c0.6,0,1.133-0.254,1.5-0.648c0.145,0.156,0.316,0.287,0.508,0.391V17
	H10.007v-5C10.007,10.897,9.11,10,8.007,10z M4,6.625C4,7.107,3.551,7.5,3,7.5c-0.551,0-1-0.393-1-0.875V5.506L5.479,2h0.547
	L4.145,4.898C4.052,4.992,4,5.118,4,5.25V6.625z M10.439,2L10,5.25v1.375C10,7.107,9.551,7.5,9,7.5c-0.551,0-1-0.393-1-0.875V5.388
	L9.421,2H10.439z M14.579,2L16,5.388v1.237C16,7.107,15.551,7.5,15,7.5c-0.551,0-1-0.393-1-0.875l-0.01-1.472L13.563,2H14.579z"/>
</svg>
