<?xml version="1.0" encoding="utf-8"?>
<!-- Generator: Adobe Illustrator 17.0.0, SVG Export Plug-In . SVG Version: 6.00 Build 0)  -->
<!DOCTYPE svg PUBLIC "-//W3C//DTD SVG 1.1//EN" "http://www.w3.org/Graphics/SVG/1.1/DTD/svg11.dtd">
<svg version="1.1" id="Livello_1" xmlns="http://www.w3.org/2000/svg" xmlns:xlink="http://www.w3.org/1999/xlink" x="0px" y="0px"
	 width="416.626px" height="114.486px" viewBox="1 6.811 416.626 114.486" enable-background="new 1 6.811 416.626 114.486"
	 xml:space="preserve">
<g>
	<path fill="#FFFFFF" d="M245.101,44.437c-3.007-2.661-6.459-4.698-10.362-6.11c-3.903-1.411-7.963-2.118-12.179-2.118
		c-4.218,0-8.299,0.707-12.246,2.118c-3.949,1.412-7.425,3.449-10.429,6.11c-3.007,2.663-5.406,5.95-7.2,9.862
		c-1.795,3.914-2.691,8.37-2.691,13.372c0,5.002,0.896,9.459,2.691,13.37c1.794,3.915,4.193,7.2,7.2,9.863
		c3.005,2.661,6.48,4.7,10.429,6.111c3.946,1.411,8.028,2.117,12.246,2.117c4.216,0,8.276-0.706,12.179-2.117
		c3.903-1.411,7.355-3.449,10.362-6.111c3.005-2.662,5.404-5.948,7.199-9.863c1.794-3.911,2.692-8.368,2.692-13.37
		c0-5.001-0.898-9.458-2.692-13.372C250.505,50.387,248.106,47.1,245.101,44.437z M231.711,80.134
		c-2.065,3.067-5.114,4.598-9.151,4.598c-4.127,0-7.199-1.531-9.218-4.598c-2.019-3.065-3.028-7.219-3.028-12.463
		c0-5.243,1.009-9.397,3.028-12.464c2.019-3.065,5.091-4.599,9.218-4.599c4.037,0,7.086,1.534,9.151,4.599
		c2.063,3.066,3.095,7.22,3.095,12.464C234.806,72.915,233.774,77.069,231.711,80.134z"/>
	<path fill="#FFFFFF" d="M108.191,84.234c-1.274,0.893-3.312,1.337-6.115,1.337c-2.719,0-5.395-0.526-8.026-1.58
		c-2.634-1.051-5.394-2.631-8.281-4.739l-8.408,11.179c3.227,2.511,7.026,4.537,11.402,6.075c4.373,1.538,8.641,2.309,12.803,2.309
		c4.246,0,7.982-0.508,11.211-1.519c3.227-1.012,5.943-2.388,8.153-4.131c2.208-1.741,3.863-3.786,4.968-6.136
		c1.103-2.348,1.656-4.901,1.656-7.655c0-2.753-0.51-5.122-1.529-7.109c-1.019-1.984-2.357-3.664-4.013-5.042
		c-1.656-1.376-3.483-2.53-5.478-3.462c-1.997-0.93-4.013-1.762-6.051-2.491c-1.614-0.566-3.165-1.112-4.65-1.64
		c-1.487-0.527-2.803-1.073-3.949-1.641c-1.147-0.565-2.06-1.194-2.739-1.884c-0.681-0.686-1.019-1.518-1.019-2.49
		c0-3.159,2.376-4.739,7.134-4.739c2.208,0,4.415,0.446,6.624,1.336c2.208,0.892,4.459,2.147,6.752,3.767l8.408-10.694
		c-2.719-1.943-5.904-3.705-9.555-5.285c-3.653-1.58-7.898-2.369-12.74-2.369c-3.653,0-6.965,0.467-9.937,1.397
		c-2.974,0.932-5.522,2.209-7.644,3.827c-2.124,1.622-3.758,3.605-4.905,5.954c-1.146,2.35-1.72,4.903-1.72,7.656
		c0,2.511,0.509,4.72,1.528,6.622c1.019,1.903,2.335,3.565,3.949,4.981c1.613,1.418,3.396,2.612,5.351,3.584
		c1.953,0.972,3.906,1.823,5.86,2.552c1.612,0.648,3.185,1.235,4.714,1.761c1.529,0.528,2.908,1.115,4.14,1.762
		c1.23,0.649,2.208,1.357,2.93,2.126c0.721,0.771,1.083,1.64,1.083,2.612C110.102,82.089,109.465,83.344,108.191,84.234z"/>
	<path fill="#FFFFFF" d="M167.245,35.124c-7.218,0.156-14.402,4.89-18.416,8.052V12.341H129.33v86.79h19.499V56.275
		c3.241-2.522,8.251-5.897,11.916-5.963c8.25-0.104,7.583,7.594,7.583,7.594v41.225h19.499V57.906
		C187.828,57.906,189.306,34.884,167.245,35.124z"/>
	<path fill="#FFFFFF" d="M314.461,42.869c-4.905-5.728-11.437-8.593-19.598-8.593c-8.161,0-14.426,3.462-18.795,10.386v-9.644
		h-18.053v85.811h18.053V88.433c4.121,6.678,10.406,10.016,18.856,10.016c8.449,0,15.043-3.049,19.784-9.15
		c4.739-6.1,7.11-13.93,7.11-23.493C321.818,56.244,319.364,48.6,314.461,42.869z M299.808,78.85
		c-2.473,3.01-5.73,4.514-9.768,4.514c-4.04,0-7.378-1.608-10.015-4.823c-2.639-3.214-3.957-7.46-3.957-12.735
		c0-5.275,1.401-9.355,4.204-12.242c2.801-2.885,6.12-4.328,9.954-4.328c3.833,0,7.005,1.464,9.521,4.39
		c2.513,2.927,3.771,7.11,3.771,12.551S302.281,75.842,299.808,78.85z"/>
	<path fill="#FFFFFF" d="M366.218,67.223c-1.656-1.376-3.483-2.53-5.478-3.462c-1.996-0.93-4.013-1.762-6.051-2.491
		c-1.614-0.566-3.165-1.112-4.65-1.64c-1.487-0.527-2.803-1.073-3.949-1.641c-1.146-0.565-2.06-1.194-2.739-1.884
		c-0.681-0.686-1.019-1.518-1.019-2.49c0-3.159,2.377-4.739,7.134-4.739c2.207,0,4.415,0.446,6.624,1.336
		c2.208,0.892,4.459,2.147,6.752,3.767l8.408-10.694c-2.719-1.943-5.904-3.705-9.555-5.285c-3.653-1.58-7.899-2.369-12.74-2.369
		c-3.652,0-6.965,0.467-9.936,1.397c-2.974,0.932-5.522,2.209-7.644,3.827c-2.124,1.622-3.758,3.605-4.904,5.954
		c-1.146,2.35-1.72,4.903-1.72,7.656c0,2.511,0.51,4.72,1.529,6.622c1.019,1.903,2.335,3.565,3.949,4.981
		c1.613,1.418,3.396,2.612,5.351,3.584c1.953,0.972,3.905,1.823,5.86,2.552c1.612,0.648,3.185,1.235,4.714,1.761
		c1.529,0.528,2.908,1.115,4.14,1.762c1.23,0.649,2.208,1.357,2.93,2.126c0.721,0.771,1.083,1.64,1.083,2.612
		c0,1.621-0.637,2.876-1.911,3.766c-1.274,0.893-3.312,1.337-6.115,1.337c-2.719,0-5.394-0.526-8.026-1.58
		c-2.633-1.051-5.394-2.631-8.28-4.739l-8.408,11.179c3.227,2.511,7.027,4.537,11.402,6.075c4.373,1.538,8.641,2.309,12.803,2.309
		c4.246,0,7.982-0.508,11.211-1.519c3.227-1.012,5.944-2.388,8.153-4.131c2.207-1.738,3.863-3.782,4.968-6.133
		c1.102-2.348,1.656-4.901,1.656-7.655c0-2.753-0.509-5.122-1.529-7.109C369.212,70.281,367.874,68.601,366.218,67.223z"/>
	<path fill="#FFFFFF" d="M134.588,109.554L85.412,98.178l-41.746-9.662c-0.004,0-0.007,0-0.007,0l-19.112-4.421l-2.181-22.917
		l104.537-47.455c1.811-0.824,2.617-2.963,1.797-4.784c-0.821-1.818-2.952-2.628-4.767-1.804L17.048,55.655
		c-1.404,0.637-2.246,2.099-2.102,3.64l2.675,28.084c0.148,1.552,1.267,2.833,2.776,3.182l18.137,4.198l-1.184,5.169
		c-0.749,3.262-0.187,6.624,1.58,9.468c1.771,2.84,4.536,4.817,7.783,5.569l25.977,6.012c0.922,0.212,1.869,0.321,2.812,0.321
		c5.846,0,10.847-4,12.161-9.724l1.188-5.169l44.115,10.206c0.274,0.065,0.544,0.094,0.814,0.094c1.638,0,3.121-1.13,3.506-2.805
		C137.734,111.945,136.525,110.001,134.588,109.554z M80.645,109.943c-0.644,2.819-3.496,4.644-6.336,3.978l-25.978-6.008
		c-1.375-0.317-2.545-1.156-3.294-2.354c-0.749-1.203-0.986-2.628-0.669-4.007l1.184-5.169l20.905,4.838l15.376,3.553
		L80.645,109.943z"/>
	<path fill="#FFFFFF" d="M4.26,57.253c-1.984,0.191-3.434,1.958-3.244,3.946l2.567,26.96c0.18,1.872,1.746,3.272,3.582,3.272
		c0.115,0,0.23-0.003,0.346-0.018c1.98-0.187,3.431-1.951,3.244-3.942L8.188,60.508C7.994,58.521,6.233,57.052,4.26,57.253z"/>
	<path fill="#FFFFFF" d="M400.71,102.826L382.667,89.83c-1.613-1.163-3.867-0.792-5.029,0.832c-1.163,1.62-0.792,3.881,0.824,5.044
		l18.043,12.996c0.529,0.382,1.13,0.598,1.739,0.659c1.238,0.122,2.506-0.403,3.287-1.49
		C402.697,106.249,402.33,103.992,400.71,102.826z"/>
	<path fill="#FFFFFF" d="M381.928,44.257c0.605-0.083,1.199-0.324,1.714-0.727l17.514-13.701c1.566-1.224,1.85-3.499,0.623-5.072
		c-1.231-1.577-3.499-1.861-5.058-0.634l-17.514,13.702c-1.566,1.224-1.847,3.499-0.623,5.072
		C379.408,43.955,380.694,44.43,381.928,44.257z"/>
	<path fill="#FFFFFF" d="M414.026,61.674h-21.6c-1.987,0-3.6,1.613-3.6,3.6c0,1.987,1.613,3.6,3.6,3.6h21.6
		c1.987,0,3.6-1.613,3.6-3.6C417.626,63.287,416.013,61.674,414.026,61.674z"/>
</g>
</svg>
