<?xml version="1.0" encoding="utf-8"?>
<!-- Generator: Adobe Illustrator 17.0.0, SVG Export Plug-In . SVG Version: 6.00 Build 0)  -->
<!DOCTYPE svg PUBLIC "-//W3C//DTD SVG 1.1//EN" "http://www.w3.org/Graphics/SVG/1.1/DTD/svg11.dtd">
<svg version="1.1" id="Livello_1" xmlns="http://www.w3.org/2000/svg" xmlns:xlink="http://www.w3.org/1999/xlink" x="0px" y="0px"
	 width="401.843px" height="128.109px" viewBox="0 0 401.843 128.109" enable-background="new 0 0 401.843 128.109"
	 xml:space="preserve">
<g>
	<path fill-rule="evenodd" clip-rule="evenodd" fill="#FFFFFF" d="M245.101,44.437c-3.007-2.661-6.459-4.698-10.362-6.11
		c-3.903-1.411-7.963-2.118-12.179-2.118c-4.218,0-8.299,0.707-12.246,2.118c-3.949,1.412-7.425,3.449-10.429,6.11
		c-3.007,2.663-5.406,5.95-7.2,9.862c-1.795,3.914-2.691,8.37-2.691,13.372c0,5.002,0.896,9.459,2.691,13.37
		c1.794,3.915,4.193,7.2,7.2,9.863c3.005,2.661,6.48,4.7,10.429,6.111c3.946,1.411,8.028,2.117,12.246,2.117
		c4.216,0,8.276-0.706,12.179-2.117s7.355-3.449,10.362-6.111c3.005-2.662,5.404-5.948,7.199-9.863
		c1.794-3.911,2.692-8.368,2.692-13.37c0-5.001-0.898-9.458-2.692-13.372C250.505,50.387,248.106,47.1,245.101,44.437z
		 M231.711,80.134c-2.065,3.067-5.114,4.598-9.151,4.598c-4.127,0-7.199-1.531-9.218-4.598c-2.019-3.065-3.028-7.219-3.028-12.463
		c0-5.243,1.009-9.397,3.028-12.464c2.019-3.065,5.091-4.599,9.218-4.599c4.037,0,7.086,1.534,9.151,4.599
		c2.063,3.066,3.095,7.22,3.095,12.464C234.806,72.915,233.774,77.069,231.711,80.134z"/>
	<path fill-rule="evenodd" clip-rule="evenodd" fill="#FFFFFF" d="M398.593,61.161h-19.499c-1.795,0-3.25,1.457-3.25,3.256
		c0,1.797,1.455,3.254,3.25,3.254h19.499c1.795,0,3.25-1.457,3.25-3.254C401.843,62.618,400.388,61.161,398.593,61.161z"/>
	<path fill-rule="evenodd" clip-rule="evenodd" fill="#FFFFFF" d="M371.265,19.386l13.762-13.834
		c1.267-1.273,1.263-3.334-0.009-4.603c-1.271-1.269-3.329-1.264-4.596,0.008L366.66,14.791c-1.267,1.274-1.263,3.334,0.008,4.603
		C367.94,20.663,369.998,20.659,371.265,19.386z"/>
	<path fill-rule="evenodd" clip-rule="evenodd" fill="#FFFFFF" d="M370.793,109.066c-1.248-1.251-3.274-1.255-4.526-0.008
		c-1.252,1.247-1.256,3.27-0.008,4.521l13.553,13.59c1.248,1.251,3.274,1.255,4.526,0.008c1.252-1.245,1.256-3.27,0.009-4.521
		L370.793,109.066z"/>
	<path fill-rule="evenodd" clip-rule="evenodd" fill="#FFFFFF" d="M135.475,110.632L63.99,94.254l-23.653-5.42l-19.106-4.377
		l-2.221-24.365L125.827,12.52c1.642-0.73,2.381-2.656,1.651-4.301c-0.73-1.644-2.652-2.384-4.294-1.652L11.797,56.336l4.157,33.597
		l22.933,5.255l-1.693,7.411c-1.336,5.848,2.313,11.672,8.152,13.009l26.427,6.056c5.838,1.337,11.653-2.319,12.989-8.166
		l1.693-7.412l47.569,10.899c1.751,0.401,3.496-0.696,3.897-2.45C138.321,112.78,137.226,111.033,135.475,110.632z M76.547,110.502
		c-0.534,2.338-2.861,3.801-5.195,3.266l-22.199-5.085c-2.335-0.536-3.795-2.865-3.261-5.204l1.451-6.353l30.655,7.024
		L76.547,110.502z"/>
	<path fill-rule="evenodd" clip-rule="evenodd" fill="#FFFFFF" d="M6.49,58.548c-0.182-1.79-1.778-3.094-3.566-2.912
		c-1.787,0.183-3.089,1.782-2.907,3.573l3.076,30.254c0.182,1.79,1.779,3.094,3.566,2.912c1.787-0.183,3.089-1.782,2.907-3.572
		L6.49,58.548z"/>
	<path fill-rule="evenodd" clip-rule="evenodd" fill="#FFFFFF" d="M108.191,84.234c-1.274,0.893-3.312,1.337-6.115,1.337
		c-2.719,0-5.395-0.526-8.026-1.58c-2.634-1.051-5.394-2.631-8.281-4.739l-8.408,11.179c3.227,2.511,7.026,4.537,11.402,6.075
		c4.373,1.538,8.641,2.309,12.803,2.309c4.246,0,7.982-0.508,11.211-1.519c3.227-1.012,5.943-2.388,8.153-4.131
		c2.208-1.741,3.863-3.786,4.968-6.136c1.103-2.348,1.656-4.901,1.656-7.655c0-2.753-0.51-5.122-1.529-7.109
		c-1.019-1.984-2.357-3.664-4.013-5.042c-1.656-1.376-3.483-2.53-5.478-3.462c-1.997-0.93-4.013-1.762-6.051-2.491
		c-1.614-0.566-3.165-1.112-4.65-1.64c-1.487-0.527-2.803-1.073-3.949-1.641c-1.147-0.565-2.06-1.194-2.739-1.884
		c-0.681-0.686-1.019-1.518-1.019-2.49c0-3.159,2.376-4.739,7.134-4.739c2.208,0,4.415,0.446,6.624,1.336
		c2.208,0.892,4.459,2.147,6.752,3.767l8.408-10.694c-2.719-1.943-5.904-3.705-9.555-5.285c-3.653-1.58-7.898-2.369-12.74-2.369
		c-3.653,0-6.965,0.467-9.937,1.397c-2.974,0.932-5.522,2.209-7.644,3.827c-2.124,1.622-3.758,3.605-4.905,5.954
		c-1.146,2.35-1.72,4.903-1.72,7.656c0,2.511,0.509,4.72,1.528,6.622c1.019,1.903,2.335,3.565,3.949,4.981
		c1.613,1.418,3.396,2.612,5.351,3.584c1.953,0.972,3.906,1.823,5.86,2.552c1.612,0.648,3.185,1.235,4.714,1.761
		c1.529,0.528,2.908,1.115,4.14,1.762c1.23,0.649,2.208,1.357,2.93,2.126c0.721,0.771,1.083,1.64,1.083,2.612
		C110.102,82.089,109.465,83.344,108.191,84.234z"/>
	<path fill-rule="evenodd" clip-rule="evenodd" fill="#FFFFFF" d="M167.245,35.124c-7.218,0.156-14.402,4.89-18.416,8.052V12.341
		H129.33v86.79h19.499V56.275c3.241-2.522,8.251-5.897,11.916-5.963c8.25-0.104,7.583,7.594,7.583,7.594v41.225h19.499V57.906
		C187.828,57.906,189.306,34.884,167.245,35.124z"/>
	<path fill-rule="evenodd" clip-rule="evenodd" fill="#FFFFFF" d="M314.461,42.869c-4.905-5.728-11.437-8.593-19.598-8.593
		c-8.161,0-14.426,3.462-18.795,10.386v-9.644h-18.053v85.811h18.053V88.433c4.121,6.678,10.406,10.016,18.856,10.016
		c8.449,0,15.043-3.049,19.784-9.15c4.739-6.1,7.11-13.93,7.11-23.493C321.818,56.244,319.364,48.6,314.461,42.869z M299.808,78.85
		c-2.473,3.01-5.73,4.514-9.768,4.514c-4.04,0-7.378-1.608-10.015-4.823c-2.639-3.214-3.957-7.46-3.957-12.735
		c0-5.275,1.401-9.355,4.204-12.242c2.801-2.885,6.12-4.328,9.954-4.328c3.833,0,7.005,1.464,9.521,4.39
		c2.513,2.927,3.771,7.11,3.771,12.551S302.281,75.842,299.808,78.85z"/>
	<path fill-rule="evenodd" clip-rule="evenodd" fill="#FFFFFF" d="M370.104,87.029c1.102-2.348,1.656-4.901,1.656-7.655
		c0-2.753-0.509-5.122-1.529-7.109c-1.019-1.984-2.357-3.664-4.013-5.042c-1.656-1.376-3.483-2.53-5.478-3.462
		c-1.996-0.93-4.013-1.762-6.051-2.491c-1.614-0.566-3.165-1.112-4.65-1.64c-1.487-0.527-2.803-1.073-3.949-1.641
		c-1.146-0.565-2.06-1.194-2.739-1.884c-0.681-0.686-1.019-1.518-1.019-2.49c0-3.159,2.377-4.739,7.134-4.739
		c2.207,0,4.415,0.446,6.624,1.336c2.208,0.892,4.459,2.147,6.752,3.767l8.408-10.694c-2.719-1.943-5.904-3.705-9.555-5.285
		c-3.653-1.58-7.899-2.369-12.74-2.369c-3.652,0-6.965,0.467-9.936,1.397c-2.974,0.932-5.522,2.209-7.644,3.827
		c-2.124,1.622-3.758,3.605-4.904,5.954c-1.146,2.35-1.72,4.903-1.72,7.656c0,2.511,0.51,4.72,1.529,6.622
		c1.019,1.903,2.335,3.565,3.949,4.981c1.613,1.418,3.396,2.612,5.351,3.584c1.953,0.972,3.905,1.823,5.86,2.552
		c1.612,0.648,3.185,1.235,4.714,1.761c1.529,0.528,2.908,1.115,4.14,1.762c1.23,0.649,2.208,1.357,2.93,2.126
		c0.721,0.771,1.083,1.64,1.083,2.612c0,1.621-0.637,2.876-1.911,3.766c-1.274,0.893-3.312,1.337-6.115,1.337
		c-2.719,0-5.394-0.526-8.026-1.58c-2.633-1.051-5.394-2.631-8.28-4.739l-8.408,11.179c3.227,2.511,7.027,4.537,11.402,6.075
		c4.373,1.538,8.641,2.309,12.803,2.309c4.246,0,7.982-0.508,11.211-1.519c3.227-1.012,5.944-2.388,8.153-4.131
		C367.343,91.424,368.999,89.38,370.104,87.029z"/>
</g>
</svg>
