<?xml version="1.0" encoding="utf-8"?>
<!-- Generator: Adobe Illustrator 17.0.0, SVG Export Plug-In . SVG Version: 6.00 Build 0)  -->
<!DOCTYPE svg PUBLIC "-//W3C//DTD SVG 1.1//EN" "http://www.w3.org/Graphics/SVG/1.1/DTD/svg11.dtd">
<svg version="1.1" id="Livello_1" xmlns="http://www.w3.org/2000/svg" xmlns:xlink="http://www.w3.org/1999/xlink" x="0px" y="0px"
	 width="34.99px" height="52.054px" viewBox="60.666 63.95 34.99 52.054" enable-background="new 60.666 63.95 34.99 52.054"
	 xml:space="preserve">
<g>
	<path fill-rule="evenodd" clip-rule="evenodd" d="M73.278,87.336c0,0-5.655-1.992-5.781-10.773
		c-0.04-2.763,0.742-5.185,2.628-7.094c1.886-1.91,7.652-2.667,8.408-2.89c0.756-0.223,1.434-1.944,2.102-2.102
		s0.25,1.544,0.263,1.577c0.611-0.073,1.053-1.477,1.839-1.839c0.786-0.362,0.468,2.628,0.526,2.628c0.603,0,1.17-2.949,2.102-2.89
		c0.932,0.058,0.263,7.357,0.263,7.357L73.278,87.336z"/>
	<path fill-rule="evenodd" clip-rule="evenodd" fill="#FFE1C9" d="M72.753,87.599l-0.526-4.204c0,0-2.529,1.278-2.628-1.314
		s2.365-1.314,2.365-1.314l-1.314-6.569l14.977-2.89c0,0,1.294,1.408,2.102,2.89c0.767,1.406,1.051,2.89,1.051,2.89
		s1.525-0.671,1.839,1.051c0.314,1.722-1.314,1.577-1.314,1.577s1.406,8.356-7.094,9.459c-0.309,0.057-2.628,4.204-2.628,4.204
		L72.753,87.599z"/>
	<path fill-rule="evenodd" clip-rule="evenodd" fill="#FA701D" d="M71.206,101.66l0.759-12.485c0,0-1.659-0.596-3.456-1.759
		c-0.994-0.643-0.031-2.265,0.887-1.774c1.503,0.805,2.832,1.168,2.832,1.168l5.781,2.628l1.051,2.365l1.314-2.365
		c0,0,3.654-0.517,6.909-2.012c1.13-0.519,2.368,0.856,1.217,1.419c-1.997,0.978-3.921,1.381-3.921,1.381l1.839,11.561
		L71.206,101.66z"/>
	<path fill-rule="evenodd" clip-rule="evenodd" fill="#402517" d="M85.102,81.818c-1.519,0.217-3.153,0-3.153,0
		s0.119,2.782,2.89,2.628c2.771-0.154,2.628-3.416,2.628-3.416S86.305,81.646,85.102,81.818z"/>
	<g>
		<circle fill-rule="evenodd" clip-rule="evenodd" fill="#DB5826" cx="78.271" cy="97.846" r="0.526"/>
		<circle fill-rule="evenodd" clip-rule="evenodd" fill="#DB5826" cx="78.271" cy="95.219" r="0.526"/>
		<circle fill-rule="evenodd" clip-rule="evenodd" fill="#DB5826" cx="78.008" cy="92.591" r="0.526"/>
	</g>
	<g>
		<path fill-rule="evenodd" clip-rule="evenodd" fill="#FFE1C9" d="M69.396,85.642c-0.918-0.491-1.901-1.147-2.686-1.985
			c-1.858-1.982-2.365-5.255-2.365-5.255s1.18-2.817,0.788-3.153c-0.392-0.336-1.051,1.314-1.051,1.314s0.23-2.149,0-2.628
			c-0.23-0.479-3.395,1.538-3.416,2.102c-0.021,0.564,2.102,2.102,2.102,2.102s0.598,4.08,2.89,6.832
			c0.821,0.985,1.857,1.801,2.851,2.444L69.396,85.642z"/>
		<path fill-rule="evenodd" clip-rule="evenodd" fill="#FFE1C9" d="M95.613,74.724c-0.298-0.483-3.196-0.739-3.153,0
			s0.526,2.102,0.526,2.102s-1.151-1.15-1.314-0.526c-0.162,0.624,1.314,1.839,1.314,1.839s0.298,4.736-2.628,7.357
			c-0.864,0.774-1.946,1.41-3.076,1.929l1.217,1.42c1.152-0.564,2.328-1.318,3.173-2.297c2.656-3.075,2.89-7.883,2.89-7.883
			S95.911,75.207,95.613,74.724z"/>
	</g>
	<g>
		<g>
			<path d="M69.703,112.225l3.188-0.01l0,2.402h-7.07C66.348,111.926,69.703,112.225,69.703,112.225z"/>
			<polygon fill="#FFFFFF" points="72.891,115.513 65.821,115.513 65.821,114.616 72.891,114.616 			"/>
			<rect x="65.821" y="115.513" width="7.07" height="0.299"/>
		</g>
		<path fill="#0050A0" d="M71.206,101.66l-1.498,10.605l3.188-0.01c0,0-0.238-6.652,5.38-7.168c5.618-0.517,6.361,7.542,6.361,7.542
			h3.067l-1.289-10.842L71.206,101.66z"/>
		<g>
			<path d="M87.705,112.63h-3.067v2.178h7.123C91.234,112.117,87.705,112.63,87.705,112.63z"/>
			<polygon fill="#FFFFFF" points="84.637,115.754 91.761,115.674 91.761,114.808 84.637,114.808 			"/>
			<polygon points="84.637,116.004 91.771,116.004 91.761,115.674 84.637,115.674 			"/>
		</g>
	</g>
	<path fill="#402517" d="M79.769,78.919c-0.057-0.006-0.114-0.024-0.167-0.057c-0.185-0.114-0.243-0.356-0.129-0.541
		c0.023-0.037,0.563-0.904,1.386-1.235c0.872-0.351,1.84,0.154,1.88,0.175c0.192,0.102,0.265,0.341,0.163,0.533
		c-0.102,0.192-0.341,0.265-0.533,0.163c-0.006-0.003-0.687-0.353-1.217-0.14c-0.579,0.233-1.005,0.91-1.01,0.917
		C80.063,78.867,79.915,78.934,79.769,78.919z"/>
	<path fill="#402517" d="M87.832,76.692c0.04-0.034,0.073-0.077,0.095-0.13c0.077-0.185-0.013-0.406-0.2-0.496
		c-0.037-0.018-0.921-0.434-1.724-0.28c-0.851,0.163-1.303,1.054-1.322,1.092c-0.089,0.179-0.013,0.406,0.17,0.507
		c0.183,0.101,0.403,0.038,0.492-0.14c0.003-0.005,0.325-0.629,0.841-0.728c0.565-0.108,1.258,0.215,1.265,0.218
		C87.582,76.799,87.731,76.777,87.832,76.692z"/>
	<polygon fill-rule="evenodd" clip-rule="evenodd" fill="#DB5826" points="81.518,91.235 80.373,89.438 84.456,88.488 	"/>
	<polygon fill-rule="evenodd" clip-rule="evenodd" fill="#DB5826" points="76.678,91.497 78.008,89.438 73.278,87.336 	"/>
</g>
</svg>
