<?xml version="1.0" encoding="utf-8"?>
<!-- Generator: Adobe Illustrator 17.0.0, SVG Export Plug-In . SVG Version: 6.00 Build 0)  -->
<!DOCTYPE svg PUBLIC "-//W3C//DTD SVG 1.1//EN" "http://www.w3.org/Graphics/SVG/1.1/DTD/svg11.dtd">
<svg version="1.1" id="Livello_1" xmlns="http://www.w3.org/2000/svg" xmlns:xlink="http://www.w3.org/1999/xlink" x="0px" y="0px"
	 width="23px" height="36px" viewBox="0 0 23 36" enable-background="new 0 0 23 36" xml:space="preserve">
<path fill="#C70000" d="M9.442,32L9.442,32c0.045,0,0.09-0.001,0.136-0.003c0.025-0.001,0.049-0.002,0.074-0.004
	c2.08-0.162,3.129-1.566,3.971-2.695c0.486-0.652,0.946-1.267,1.625-1.758c1.729-1.251,3.951-2,4.597-2.202
	C21.614,25.16,23,23.631,23,21.777v-8.178c0-1.537-0.768-2.978-2.022-3.827C20.431,9.278,19.728,9,19,9h-0.5h-1H6
	c-1.654,0-3,1.376-3,3.066v0.783c-0.613,0.562-1,1.377-1,2.283v0.783c-0.614,0.562-1,1.378-1,2.284v0.782
	c-0.613,0.562-1,1.378-1,2.284v1.023c0,1.691,1.346,3.066,3,3.066h3.44c-0.482,2.102-0.45,2.856-0.438,3.155
	c0.001,0.032,0.003,0.064,0.006,0.096C6.18,30.541,7.656,32,9.442,32L9.442,32z"/>
</svg>
