<?xml version="1.0" encoding="utf-8"?>
<!-- Generator: Adobe Illustrator 17.0.0, SVG Export Plug-In . SVG Version: 6.00 Build 0)  -->
<!DOCTYPE svg PUBLIC "-//W3C//DTD SVG 1.1//EN" "http://www.w3.org/Graphics/SVG/1.1/DTD/svg11.dtd">
<svg version="1.1" id="Livello_1" xmlns="http://www.w3.org/2000/svg" xmlns:xlink="http://www.w3.org/1999/xlink" x="0px" y="0px"
	 width="16px" height="24px" viewBox="0 0 16 24" enable-background="new 0 0 16 24" xml:space="preserve">
<path fill="#FFFFFF" d="M8,0C3.589,0,0,3.589,0,8c0,2.431,1.112,4.726,3,6.24V19c0,0.738,0.405,1.376,1,1.723V21
	c0,1.654,1.346,3,3,3h2c1.654,0,3-1.346,3-3v-0.277c0.595-0.346,1-0.984,1-1.723v-4.76c1.888-1.515,3-3.81,3-6.24
	C16,3.589,12.411,0,8,0z M9,22H7c-0.552,0-1-0.448-1-1h4C10,21.552,9.552,22,9,22z M11,19h-1H6H5v-1h6V19z M11.427,12.92
	C11.16,13.107,11,13.413,11,13.74V16H9v-5.089c1.222-0.204,2.349-0.775,3.243-1.669c0.39-0.391,0.39-1.023-0.001-1.414
	c-0.391-0.391-1.024-0.391-1.415,0c-1.51,1.512-4.147,1.512-5.656,0c-0.391-0.391-1.024-0.391-1.415,0
	c-0.391,0.391-0.391,1.023,0,1.414C4.65,10.136,5.778,10.707,7,10.911V16H5v-2.26c0-0.327-0.16-0.633-0.427-0.82
	C2.962,11.795,2,9.956,2,8c0-3.309,2.691-6,6-6s6,2.691,6,6C14,9.956,13.038,11.795,11.427,12.92z"/>
</svg>
