<?xml version="1.0" encoding="utf-8"?>
<!-- Generator: Adobe Illustrator 17.0.0, SVG Export Plug-In . SVG Version: 6.00 Build 0)  -->
<!DOCTYPE svg PUBLIC "-//W3C//DTD SVG 1.1//EN" "http://www.w3.org/Graphics/SVG/1.1/DTD/svg11.dtd">
<svg version="1.1" id="Livello_1" xmlns="http://www.w3.org/2000/svg" xmlns:xlink="http://www.w3.org/1999/xlink" x="0px" y="0px"
	 width="120px" height="120px" viewBox="0 0 120 120" enable-background="new 0 0 120 120" xml:space="preserve">
<path fill-rule="evenodd" clip-rule="evenodd" fill="#EEEEEE" d="M60,0c33.137,0,60,26.863,60,60s-26.863,60-60,60S0,93.137,0,60
	S26.863,0,60,0z"/>
<path fill-rule="evenodd" clip-rule="evenodd" fill="#F5AF00" d="M42.417,18.818c0,0-1.712-18.667,0.672-18.816
	c2.384-0.149,3.833,7.392,5.376,7.392c0.147,0-0.666-7.646,1.344-6.72s3.142,4.516,4.704,4.704c0.032-0.084-1.036-4.436,0.672-4.032
	c1.708,0.404,3.443,4.805,5.376,5.376c1.933,0.571,16.681,2.509,21.504,7.392c4.823,4.883,6.821,11.079,6.72,18.144
	C88.463,54.717,74.001,59.81,74.001,59.81L42.417,18.818z"/>
<path fill-rule="evenodd" clip-rule="evenodd" fill="#FFE1C9" d="M57.873,75.266c0,0-5.93-10.606-6.72-10.752
	c-21.741-2.823-18.144-24.192-18.144-24.192s-4.164,0.373-3.36-4.032c0.804-4.405,4.704-2.688,4.704-2.688s0.726-3.796,2.688-7.392
	c2.068-3.791,5.376-7.392,5.376-7.392l38.304,7.392l-3.36,16.8c0,0,6.301-3.268,6.048,3.36c-0.253,6.628-6.72,3.36-6.72,3.36
	l-1.344,10.752L57.873,75.266z"/>
<path fill-rule="evenodd" clip-rule="evenodd" fill="#FA701D" d="M40.401,96.77l4.704-29.568c0,0-4.92-1.03-10.029-3.531
	c-2.945-1.442,0.221-4.957,3.112-3.63c8.323,3.822,17.669,5.145,17.669,5.145l3.36,6.048l2.688-6.048l14.784-6.72
	c0,0,3.398-0.93,7.242-2.988c2.348-1.257,4.81,2.892,2.269,4.536c-4.596,2.975-8.838,4.499-8.838,4.499l1.94,31.931L40.401,96.77z"
	/>
<ellipse transform="matrix(-0.9398 -0.3418 0.3418 -0.9398 93.6663 86.7993)" fill-rule="evenodd" clip-rule="evenodd" fill="#402517" cx="54.48" cy="35.148" rx="2.744" ry="4.368"/>
<ellipse transform="matrix(-0.2143 0.9768 -0.9768 -0.2143 79.6558 -1.1735)" fill-rule="evenodd" clip-rule="evenodd" fill="#402517" cx="40.3" cy="31.452" rx="3.821" ry="2.688"/>
<path fill-rule="evenodd" clip-rule="evenodd" fill="#402517" d="M45.506,50.515c-3.799-0.982-8.014-0.893-8.014-0.893
	s1.091-7.037,8.091-5.86s5.711,9.427,5.711,9.427S48.514,51.292,45.506,50.515z"/>
<g>
	<circle fill-rule="evenodd" clip-rule="evenodd" fill="#FFFFFF" cx="61.233" cy="86.69" r="1.344"/>
	<circle fill-rule="evenodd" clip-rule="evenodd" fill="#FFFFFF" cx="61.233" cy="79.97" r="1.344"/>
	<circle fill-rule="evenodd" clip-rule="evenodd" fill="#FFFFFF" cx="61.905" cy="73.25" r="1.344"/>
</g>
<g>
	<path fill-rule="evenodd" clip-rule="evenodd" fill="#FFE1C9" d="M83.93,55.478c2.348-1.257,4.862-2.933,6.87-5.075
		c4.753-5.07,6.048-13.44,6.048-13.44s-3.019-7.205-2.016-8.064c1.003-0.859,2.688,3.36,2.688,3.36s-0.589-5.496,0-6.72
		c0.589-1.224,8.683,3.933,8.736,5.376c0.053,1.443-5.376,5.376-5.376,5.376s-1.528,10.436-7.392,17.472
		c-2.1,2.52-4.749,4.606-7.29,6.251L83.93,55.478z"/>
	<path fill-rule="evenodd" clip-rule="evenodd" fill="#FFE1C9" d="M16.881,27.554c0.763-1.235,8.173-1.891,8.064,0
		c-0.109,1.891-1.344,5.376-1.344,5.376s2.945-2.941,3.36-1.344c0.415,1.597-3.36,4.704-3.36,4.704s-0.763,12.113,6.72,18.816
		c2.209,1.979,4.977,3.605,7.868,4.933l-3.112,3.631c-2.945-1.442-5.953-3.371-8.116-5.875c-6.792-7.865-7.392-20.16-7.392-20.16
		S16.117,28.79,16.881,27.554z"/>
</g>
<path fill-rule="evenodd" clip-rule="evenodd" fill="#99B9D9" d="M79.301,96.445l-38.9,0.326l-2.27,19.1
	c2.609,1.022,5.305,1.866,8.078,2.518c1.764-5.961,5.853-14.021,15.009-13.18c9.07,0.834,12.169,7.917,13.224,13.03
	c2.604-0.644,5.137-1.462,7.594-2.434L79.301,96.445z"/>
</svg>
