<?xml version="1.0" encoding="utf-8"?>
<!-- Generator: Adobe Illustrator 18.1.1, SVG Export Plug-In . SVG Version: 6.00 Build 0)  -->
<svg version="1.1" id="Layer_1" xmlns="http://www.w3.org/2000/svg" xmlns:xlink="http://www.w3.org/1999/xlink" x="0px" y="0px"
	 viewBox="0 0 11.2 6.2" enable-background="new 0 0 11.2 6.2" xml:space="preserve">
<g>
	<path fill="#6BB5AC" d="M10.1,0.1C8.8,1.6,7.2,3,5.8,4.4C5.5,4.7,5.4,4.5,5.2,4.3C4,3.1,2.8,2,1.6,0.8C1.4,0.6,1.1,0.4,0.9,0.1
		c-0.1-0.1-0.2-0.1-0.4,0C0,0.7,0,0.8,0.5,1.4C2,2.8,3.4,4.3,4.9,5.7c0.6,0.5,0.8,0.5,1.3,0c1.4-1.3,2.7-2.7,4.1-4
		c0.3-0.2,0.5-0.5,0.7-0.8c0.1-0.1,0.1-0.3,0-0.4c-0.1-0.2-0.3-0.3-0.5-0.4C10.3,0.1,10.2,0.1,10.1,0.1z"/>
</g>
</svg>
