<?xml version="1.0" encoding="utf-8"?>
<!-- Generator: Adobe Illustrator 17.0.0, SVG Export Plug-In . SVG Version: 6.00 Build 0)  -->
<!DOCTYPE svg PUBLIC "-//W3C//DTD SVG 1.1//EN" "http://www.w3.org/Graphics/SVG/1.1/DTD/svg11.dtd">
<svg version="1.1" id="Livello_1" xmlns="http://www.w3.org/2000/svg" xmlns:xlink="http://www.w3.org/1999/xlink" x="0px" y="0px"
	 width="180px" height="180px" viewBox="0 0 180 180" enable-background="new 0 0 180 180" xml:space="preserve">
<rect y="-0.187" fill="#DDDCDA" width="180" height="180.374"/>
<path fill="#FFFFFF" d="M98.009,88.454C108.157,85.088,115.5,75.513,115.5,64.25c0-14.061-11.439-25.5-25.5-25.5
	s-25.5,11.439-25.5,25.5c0,11.263,7.343,20.838,17.491,24.204C60.156,92.263,43.5,111.341,43.5,134.25c0,0.553,0.448,1,1,1
	s1-0.447,1-1c0-24.537,19.962-44.5,44.5-44.5c24.537,0,44.5,19.963,44.5,44.5c0,0.553,0.447,1,1,1s1-0.447,1-1
	C136.5,111.341,119.844,92.263,98.009,88.454z M66.5,64.25c0-12.958,10.542-23.5,23.5-23.5s23.5,10.542,23.5,23.5
	s-10.542,23.5-23.5,23.5S66.5,77.208,66.5,64.25z"/>
</svg>
