<?xml version="1.0" encoding="utf-8"?>
<!-- Generator: Adobe Illustrator 17.0.0, SVG Export Plug-In . SVG Version: 6.00 Build 0)  -->
<!DOCTYPE svg PUBLIC "-//W3C//DTD SVG 1.1//EN" "http://www.w3.org/Graphics/SVG/1.1/DTD/svg11.dtd">
<svg version="1.1" id="Livello_1" xmlns="http://www.w3.org/2000/svg" xmlns:xlink="http://www.w3.org/1999/xlink" x="0px" y="0px"
	 width="20px" height="20px" viewBox="0 0 20 20" enable-background="new 0 0 20 20" xml:space="preserve">
<path fill-rule="evenodd" clip-rule="evenodd" fill="#0050a0" d="M10,0c5.523,0,10,4.477,10,10s-4.477,10-10,10S0,15.523,0,10
	S4.477,0,10,0z"/>
<path fill-rule="evenodd" clip-rule="evenodd" fill="#0050a0" d="M10,2c4.418,0,8,3.582,8,8s-3.582,8-8,8s-8-3.582-8-8S5.582,2,10,2
	z"/>
<path fill="#FFFFFF" d="M11.719,5.345c-0.064-0.144-0.15-0.271-0.26-0.381c-0.11-0.11-0.237-0.197-0.381-0.26
	c-0.144-0.063-0.299-0.095-0.465-0.095c-0.166,0-0.321,0.032-0.465,0.095c-0.144,0.063-0.27,0.15-0.377,0.26
	c-0.108,0.11-0.192,0.237-0.253,0.381C9.457,5.49,9.427,5.645,9.427,5.811c0,0.166,0.03,0.321,0.092,0.465
	C9.579,6.42,9.663,6.544,9.771,6.649c0.107,0.105,0.233,0.188,0.377,0.249c0.144,0.061,0.299,0.091,0.465,0.091
	c0.166,0,0.321-0.03,0.465-0.091c0.144-0.061,0.271-0.144,0.381-0.249c0.11-0.105,0.196-0.229,0.26-0.373
	c0.063-0.144,0.095-0.299,0.095-0.465C11.814,5.645,11.783,5.49,11.719,5.345z M8.108,12.615c-0.039,0.19-0.068,0.368-0.088,0.531
	c-0.019,0.164-0.029,0.314-0.029,0.45c0,0.317,0.042,0.588,0.124,0.813c0.083,0.225,0.196,0.41,0.341,0.557
	C8.6,15.112,8.77,15.22,8.965,15.288c0.195,0.068,0.405,0.102,0.63,0.102c0.195,0,0.388-0.031,0.579-0.092
	c0.19-0.061,0.361-0.155,0.513-0.282c0.151-0.127,0.277-0.287,0.377-0.48c0.1-0.193,0.16-0.424,0.18-0.692
	c-0.054,0.024-0.112,0.046-0.176,0.066c-0.064,0.02-0.166,0.029-0.308,0.029c-0.21,0-0.364-0.04-0.462-0.121
	c-0.098-0.081-0.146-0.226-0.146-0.436c0-0.078,0.004-0.158,0.011-0.238c0.007-0.08,0.023-0.162,0.048-0.245l1.077-5.098H9.127
	L8.108,12.615z"/>
</svg>
