<?xml version="1.0" encoding="utf-8"?>
<!-- Generator: Adobe Illustrator 17.0.0, SVG Export Plug-In . SVG Version: 6.00 Build 0)  -->
<!DOCTYPE svg PUBLIC "-//W3C//DTD SVG 1.1//EN" "http://www.w3.org/Graphics/SVG/1.1/DTD/svg11.dtd">
<svg version="1.1" id="Livello_1" xmlns="http://www.w3.org/2000/svg" xmlns:xlink="http://www.w3.org/1999/xlink" x="0px" y="0px"
	 width="220px" height="220px" viewBox="0 0 220 220" enable-background="new 0 0 220 220" xml:space="preserve">
<path fill-rule="evenodd" clip-rule="evenodd" fill="#FFFFFF" d="M131.436,104.576C145.471,96.958,155,82.092,155,65
	c0-24.853-20.147-45-45-45S65,40.147,65,65c0,17.092,9.529,31.958,23.564,39.576C49.209,114.193,20,149.682,20,192
	c0,2.209,1.791,4,4,4s4-1.791,4-4c0-45.287,36.713-82,82-82s82,36.713,82,82c0,2.209,1.791,4,4,4s4-1.791,4-4
	C200,149.682,170.791,114.193,131.436,104.576z M73,65c0-20.435,16.565-37,37-37s37,16.565,37,37s-16.565,37-37,37S73,85.435,73,65z
	"/>
</svg>
