<?xml version="1.0" encoding="utf-8"?>
<!-- Generator: Adobe Illustrator 17.0.0, SVG Export Plug-In . SVG Version: 6.00 Build 0)  -->
<!DOCTYPE svg PUBLIC "-//W3C//DTD SVG 1.1//EN" "http://www.w3.org/Graphics/SVG/1.1/DTD/svg11.dtd">
<svg version="1.1" id="Livello_1" xmlns="http://www.w3.org/2000/svg" xmlns:xlink="http://www.w3.org/1999/xlink" x="0px" y="0px"
	 width="25px" height="22px" viewBox="0 0 25 22" enable-background="new 0 0 25 22" xml:space="preserve">
<path fill="#FFFFFF" d="M24.707,20.293l-5.682-5.682c0.805-1.005,1.393-2.186,1.708-3.475c0.956,0.823,1.772,1.512,2.326,2.024
	C23.658,13.694,24,14,24,14s-0.278-0.366-0.801-0.977c-0.533-0.601-1.273-1.483-2.259-2.452c-0.024-0.024-0.051-0.049-0.075-0.073
	C20.947,10.01,21,9.512,21,9c0-4.962-4.038-9-9-9C7.944,0,4.51,2.698,3.388,6.392c-0.962-0.677-1.777-1.25-2.361-1.66
	C0.374,4.266,0,4,0,4s0.319,0.331,0.905,0.882c0.563,0.511,1.346,1.257,2.339,2.073C3.09,7.613,3,8.295,3,9c0,4.962,4.038,9,9,9
	c2.122,0,4.071-0.742,5.611-1.975l5.682,5.682C23.488,21.902,23.744,22,24,22s0.512-0.098,0.707-0.293
	C25.098,21.316,25.098,20.684,24.707,20.293z M12,2c3.485,0,6.375,2.563,6.905,5.901C16.707,6.223,15.644,6.019,14.99,6
	c-1.656,0.017-2.868,0.987-3.936,1.844l-0.197,0.157C10.17,8.547,9.558,9,9.01,9C9.008,9,9.006,9,9.005,9
	C8.923,9,8.131,8.909,5.322,6.903C6.215,4.065,8.871,2,12,2z M12,16c-3.818,0-6.927-3.074-6.994-6.877
	C7.399,10.744,8.401,10.997,8.995,11c0.005,0,0.01,0,0.016,0c1.191,0,2.143-0.679,3.092-1.435l0.201-0.161
	C13.199,8.687,14.044,8.01,15.01,8c0.001,0,0.002,0,0.004,0c0.179,0,1.141,0.134,3.837,2.432C18.189,13.607,15.369,16,12,16z"/>
</svg>
