<?xml version="1.0" encoding="utf-8"?>
<!-- Generator: Adobe Illustrator 17.0.0, SVG Export Plug-In . SVG Version: 6.00 Build 0)  -->
<!DOCTYPE svg PUBLIC "-//W3C//DTD SVG 1.1//EN" "http://www.w3.org/Graphics/SVG/1.1/DTD/svg11.dtd">
<svg version="1.1" id="Livello_1" xmlns="http://www.w3.org/2000/svg" xmlns:xlink="http://www.w3.org/1999/xlink" x="0px" y="0px"
	 width="600px" height="554px" viewBox="0 0 600 554" enable-background="new 0 0 600 554" xml:space="preserve">
<path fill="#0050A0" d="M0,0h600v554H0V0z"/>
<g>
	<path fill="#F9F9F9" d="M85.324,244.204H110.1v-4.92l-0.004,0.001c-0.077-2.538-2.528-4.585-5.58-4.67
		c0.27-0.658,0.418-1.362,0.418-2.095c0-3.6-3.524-6.519-7.872-6.519c-3.755,0-6.893,2.178-7.68,5.091
		c-1.055-0.575-2.301-0.909-3.636-0.909c-3.804,0-6.888,2.698-6.888,6.027c0,0.21,0.012,0.417,0.036,0.621
		c-0.094-0.003-0.188-0.006-0.282-0.006c-3.804,0-6.888,2.698-6.888,6.027c0,0.465,0.062,0.918,0.176,1.353h13.424
		C85.324,244.205,85.324,244.204,85.324,244.204z"/>
	<path fill="#F9F9F9" d="M519.185,249.204H549.4v-6l-0.005,0.001c-0.094-3.095-3.083-5.592-6.805-5.696
		c0.329-0.802,0.51-1.661,0.51-2.555c0-4.391-4.298-7.95-9.6-7.95c-4.579,0-8.406,2.656-9.366,6.208
		c-1.287-0.702-2.806-1.108-4.434-1.108c-4.639,0-8.4,3.291-8.4,7.35c0,0.256,0.015,0.509,0.044,0.758
		c-0.114-0.004-0.229-0.008-0.344-0.008c-4.639,0-8.4,3.291-8.4,7.35c0,0.568,0.076,1.119,0.215,1.65L519.185,249.204
		L519.185,249.204z"/>
	<path fill="#F9F9F9" d="M585,300.442v10h-26v-37h-10.858L540,265.3l-8.142,8.142H521v53h-4v-23h-1v0.452
		c-0.635-0.279-1.519-0.452-2.5-0.452c-1.933,0-3.5,0.672-3.5,1.5s1.567,1.5,3.5,1.5c0.981,0,1.865-0.174,2.5-0.452v20.452h-9v-18
		h-1v0.452c-0.635-0.279-1.519-0.452-2.5-0.452c-1.933,0-3.5,0.672-3.5,1.5s1.567,1.5,3.5,1.5c0.981,0,1.865-0.174,2.5-0.452v15.452
		h-9v-12h-1v0.389c-0.532-0.239-1.228-0.389-2-0.389c-1.657,0-3,0.672-3,1.5s1.343,1.5,3,1.5c0.772,0,1.468-0.15,2-0.389v9.389h-33
		v-5h1c0-3.866-3.134-7-7-7v-44h-6.858L443,263.3l-7.142,7.142H429v23h-27v-5h-3v5h-7v24h-5v-29h-14v-32h-16v25h-15v19h-31v-15h-4
		v-4h-21v4h-5v15h-6v-39h-18v39h-18v-7h-22v-23h-6.858L203,263.3l-7.142,7.142H189v44c-3.866,0-7,3.134-7,7h1v5h-33v-9.389
		c0.532,0.24,1.228,0.389,2,0.389c1.657,0,3-0.672,3-1.5s-1.343-1.5-3-1.5c-0.772,0-1.469,0.15-2,0.389v-0.389h-1v12h-9V310.99
		c0.635,0.279,1.519,0.452,2.5,0.452c1.933,0,3.5-0.672,3.5-1.5s-1.567-1.5-3.5-1.5c-0.981,0-1.865,0.174-2.5,0.452v-0.452h-1v18h-8
		V305.99c0.635,0.279,1.519,0.452,2.5,0.452c1.933,0,3.5-0.672,3.5-1.5s-1.567-1.5-3.5-1.5c-0.981,0-1.865,0.174-2.5,0.452v-0.452
		h-1v23h-5v-52h-9.894l-8.979-9.142l-9.307,9.142H88v45H70v-35h-6v-4H39v4h-5v18H0v24l0,0V554h600V334.442v-8v-7v-9v-10H585z
		 M548,280.442h6v6h-6V280.442z M548,290.442h6v6h-6V290.442z M537,280.442h6v6h-6V280.442z M526,280.442h6v6h-6V280.442z
		 M449,274.442h4v4h-4V274.442z M449,282.442h4v4h-4V282.442z M449,290.442h4v4h-4V290.442z M449,298.442h4v4h-4V298.442z
		 M441,274.442h4v4h-4V274.442z M441,282.442h4v4h-4V282.442z M441,290.442h4v4h-4V290.442z M441,298.442h4v4h-4V298.442z
		 M433,274.442h4v4h-4V274.442z M433,282.442h4v4h-4V282.442z M433,290.442h4v4h-4V290.442z M433,298.442h4v4h-4V298.442z
		 M411,296.442h4v4h-4V296.442z M403,296.442h4v4h-4V296.442z M403,304.442h4v4h-4V304.442z M395,296.442h4v4h-4V296.442z
		 M395,304.442h4v4h-4V304.442z M379,293.442h4v4h-4V293.442z M379,301.442h4v4h-4V301.442z M371,293.442h4v4h-4V293.442z
		 M371,301.442h4v4h-4V301.442z M363,261.442h4v4h-4V261.442z M363,269.442h4v4h-4V269.442z M363,277.442h4v4h-4V277.442z
		 M363,285.442h4v4h-4V285.442z M363,293.442h4v4h-4V293.442z M363,301.442h4v4h-4V301.442z M355,285.442h4v4h-4V285.442z
		 M347,285.442h4v4h-4V285.442z M347,293.442h4v4h-4V293.442z M302,288.442h6v6h-6V288.442z M302,298.442h6v6h-6V298.442z
		 M291,288.442h6v6h-6V288.442z M291,298.442h6v6h-6V298.442z M268,264.442h4v4h-4V264.442z M268,272.442h4v4h-4V272.442z
		 M268,280.442h4v4h-4V280.442z M268,288.442h4v4h-4V288.442z M268,296.442h4v4h-4V296.442z M268,304.442h4v4h-4V304.442z
		 M260,264.442h4v4h-4V264.442z M260,272.442h4v4h-4V272.442z M260,280.442h4v4h-4V280.442z M260,288.442h4v4h-4V288.442z
		 M260,296.442h4v4h-4V296.442z M260,304.442h4v4h-4V304.442z M209,274.442h4v4h-4V274.442z M201,274.442h4v4h-4V274.442z
		 M193,274.442h4v4h-4V274.442z M114,279.442h6v6h-6V279.442z M114,289.442h6v6h-6V289.442z M114,299.442h6v6h-6V299.442z
		 M103,279.442h6v6h-6V279.442z M103,289.442h6v6h-6V289.442z M103,299.442h6v6h-6V299.442z M92,279.442h6v6h-6V279.442z
		 M92,289.442h6v6h-6V289.442z M92,299.442h6v6h-6V299.442z M61,287.442h6v6h-6V287.442z M61,297.442h6v6h-6V297.442z M61,307.442h6
		v6h-6V307.442z M50,287.442h6v6h-6V287.442z M50,297.442h6v6h-6V297.442z M6,317.442H3v-3h3V317.442z M6,310.442H3v-3h3V310.442z
		 M184,326.442v-5h5v5h-4.894H184z M457,326.442v-5h5v5h-0.106H457z"/>
</g>
<g>
	<g>
		<path fill="#FFE1C9" d="M92.318,314.452c0,0-4.118,0.112-4.059-0.911s2.735-0.09,2.735-0.09c-1.033-0.794-2.376-1.857-2.89-2.403
			c-0.883-0.938,4.011-5.078,4.894-4.085c0.883,0.994,1.472,5.888,1.472,5.888s5.299,5.189,4.784,17.215
			c-0.325,7.589-3.989,12.585-8.051,15.814l-1.975-2.403c3.751-2.681,6.774-6.925,7.088-13.642
			C96.845,318.537,92.318,314.452,92.318,314.452z"/>
		<path fill="#FFE1C9" d="M54.948,315.491c0,0-0.103-6.649,1.086-7.203c1.188-0.554,6.466-0.275,6.992,1.021
			c0.295,0.727-1.825,4.73-3.225,6.294c0,0,3.605-0.522,3.237,0.961s-5.053,1.255-5.053,1.255s-3.56,6.853-3.615,12.148
			c-0.029,2.758,0.702,5.21,1.801,7.245l-3.8,2.771c-1.211-2.554-2.107-5.909-2.053-10.098
			C50.404,323.174,54.948,315.491,54.948,315.491z"/>
	</g>
	<path fill="#FFE1C9" d="M61.296,326.596c0,0,18.437-6.679,21.749-3.864c3.312,2.815,4.25,8.004,4.25,8.004s2.208-0.828,2.65,1.546
		s-2.042,2.539-2.042,2.539s1.279,14.352-14.473,13.248c0.894,2.153-2.252,6.79-2.252,6.79l-8.057-10.602l-4.034-5.723l-0.44-8.349
		L61.296,326.596z"/>
	<path d="M78.749,369.039c0,0,0.224,0.011,2.965,7.11c2.74,7.098,2.205,5.992,2.205,5.992L78,383.89c0,0-3.234-12.14-13.281-12.416
		c-5.69-0.156-11.04,2.87-17.278,3.422s-9.439-9.66-9.439-9.66l4.361-1.822c0,0,0.828,4.968,4.03,4.858
		c2.321-0.08,3.626-2.088,4.105-3.052C50.678,364.855,78.749,369.039,78.749,369.039z"/>
	<path fill="#2D80BD" d="M50.642,364.849l8.571-17.353c0,0-4.215-2.022-6.843-7.514l3.8-2.771
		c4.271,7.798,14.676,10.553,14.676,10.553l0.386,3.616l2.197-3.312c0,0,9.072,0.217,15.8-4.592l1.975,2.403
		c-5.361,4.261-11.416,5.445-11.416,5.445l-1.045,17.827l-28.246-3.932L50.642,364.849z"/>
	
		<ellipse transform="matrix(0.9476 -0.3193 0.3193 0.9476 -100.8987 43.9872)" fill="#402517" cx="83.699" cy="329.706" rx="1.432" ry="2.318"/>
	
		<ellipse transform="matrix(-0.9782 0.2076 -0.2076 -0.9782 218.959 640.499)" fill="#402517" cx="75.871" cy="331.739" rx="1.606" ry="2.472"/>
	<path fill="#402517" d="M85.032,336.339c0,0,0.138,4.554-3.174,4.72s-4.327-3.478-4.327-3.478s2.782-0.028,4.187-0.179
		C83.123,337.251,85.032,336.339,85.032,336.339z"/>
	<path fill="#FFFFFF" d="M79.25,388.124l10.588-3.128l0.25,0.847L79.5,388.971L79.25,388.124z"/>
	<g>
		<path d="M87.268,382.532c-1.257-0.684-2.916-0.52-2.916-0.52L78,383.889l1.251,4.235l10.588-3.128
			C89.838,384.996,88.737,383.331,87.268,382.532z"/>
		<rect x="79.353" y="387.389" transform="matrix(-0.959 0.2834 -0.2834 -0.959 276.115 735.2754)" width="11.04" height="0.442"/>
	</g>
	<path fill="#FFFFFF" d="M40.678,359.263l-10.139,4.368l-0.349-0.811l10.139-4.368L40.678,359.263z"/>
	<g>
		<path d="M33.384,365.772c1.33,0.529,2.958,0.168,2.958,0.168l6.02-2.526l-1.684-4.151l-10.139,4.368
			C30.539,363.632,31.83,365.153,33.384,365.772z"/>
		<rect x="29.637" y="360.212" transform="matrix(0.9184 -0.3957 0.3957 0.9184 -139.7514 43.3289)" width="11.04" height="0.442"/>
	</g>
	<g>
		<polygon fill="#76ADDD" points="79.898,347.333 75.877,351.307 73.429,348.069 		"/>
		<polygon fill="#76ADDD" points="70.845,347.765 67.828,350.461 64.372,345.009 		"/>
		<circle fill="#76ADDD" cx="71.765" cy="353.221" r="0.626"/>
		<circle fill="#76ADDD" cx="73.09" cy="351.013" r="0.626"/>
	</g>
	<path d="M64.442,345.382c0,0-8.229-2.345-8.42-15.109c-0.06-4.015,1.127-7.536,3.995-10.311c2.867-2.775,11.634-3.877,12.783-4.201
		c1.149-0.324,2.18-2.826,3.196-3.055s0.38,2.244,0.399,2.291c0.928-0.107,1.601-2.147,2.796-2.673s0.712,3.819,0.799,3.819
		c0.917,0,1.779-4.286,3.196-4.201c1.417,0.085,0.399,10.693,0.399,10.693l-22.069,4.081l1.898,8.766c0,0-3.543-0.701-3.525,2.354
		s3.503,1.952,3.503,1.952L64.442,345.382z"/>
	
		<ellipse transform="matrix(0.9476 -0.3193 0.3193 0.9476 -100.9908 44.2164)" fill="#76ADDD" cx="84.352" cy="330.102" rx="0.716" ry="1.159"/>
	
		<ellipse transform="matrix(-0.9782 0.2076 -0.2076 -0.9782 220.3317 641.1475)" fill="#76ADDD" cx="76.523" cy="332.135" rx="0.803" ry="1.236"/>
</g>
<g>
	<polygon fill="#FFE1C9" points="169.281,339.503 158.927,328.622 173.392,328.084 	"/>
	<path fill="#FFE1C9" d="M173.757,331.093c0,0,8.29,1.909,13.191-2.46c4.9-4.369,5.357-7.961,5.357-7.961
		c0.603,0.176,3.862-5.079,3.509-5.599c-0.353-0.519-3.46-1.79-4.185-1.435c-0.725,0.355-0.216,3.185-0.216,3.185
		s-0.731-2.749-1.676-2.209c-0.945,0.539,0.792,5.124,0.792,5.124s-0.67,2.873-5.02,6.833c-4.35,3.96-12.925,0.961-12.925,0.961
		l-1.559,2.351L173.757,331.093z"/>
	<path fill="#FFE1C9" d="M178.87,309.944c-0.77-1.753-1.642-1.478-2.059-1.201c-0.15-0.33-0.309-0.664-0.478-1.002
		c-3.889-7.568-12.381-10.335-18.969-6.18c-6.587,4.155-8.775,13.658-4.886,21.225c3.889,7.568,12.381,10.335,18.969,6.18
		c5.507-3.473,8.91-8.553,6.792-16.329C178.784,312.368,179.621,311.656,178.87,309.944z"/>
	<path fill="#2D80BD" d="M153.579,349.515c0,0,7.368-13.886,2.194-18.787l3.384-3.104c0,0,6.045,8.511,8.262,8.713
		c2.217,0.202,5.801-8.607,5.801-8.607l1.158,0.302c0,0,4.684,4.121,5.325,5.806s-1.629,4.579-1.629,4.579l1.173,15.047
		L153.579,349.515z"/>
	<path fill="#FFB8A7" d="M161.944,319.969c-0.164-0.569,0.262-1.09,1.644-1.57c1.382-0.479,2.298-0.461,2.541,0.149
		c0.243,0.611,0.149,0.848-1.57,1.57C162.842,320.84,162.107,320.538,161.944,319.969z"/>
	<path fill="#402517" d="M175.242,315.719c0,0-1.347,1.26-2.911,1.931c-1.975,0.848-4.489,0.924-4.489,0.924
		s1.402,3.957,5.094,2.739C176.628,320.094,175.242,315.719,175.242,315.719z"/>
	<path fill="#3F2416" d="M164.026,310.401c-0.29,0.126-0.478,0.418-0.568,0.802c-0.324-0.231-1.152-0.776-1.289-0.428
		c-0.147,0.373,0.946,0.546,1.26,0.587c-0.025,0.16-0.038,0.329-0.03,0.513c-0.377-0.168-1.26-0.518-1.325-0.157
		c-0.071,0.391,1.013,0.351,1.341,0.33c0.017,0.174,0.048,0.355,0.093,0.54c-0.43-0.095-1.267-0.236-1.263,0.111
		c0.004,0.372,0.933,0.182,1.312,0.088c0.052,0.175,0.113,0.351,0.19,0.528c0.565,1.296,1.606,2.093,2.325,1.78
		s0.844-1.618,0.279-2.915C165.786,310.885,164.745,310.088,164.026,310.401z"/>
	<path fill="#3F2416" d="M173.249,311.425c0.72-0.267,0.907-1.524,0.418-2.807c-0.198-0.518-0.477-0.955-0.785-1.282
		c0.294-0.308,0.89-0.991,0.58-1.172c-0.306-0.178-0.603,0.624-0.73,1.024c-0.108-0.099-0.219-0.185-0.33-0.253
		c0.245-0.376,0.643-1.073,0.326-1.19c-0.32-0.118-0.474,0.658-0.535,1.087c-0.248-0.105-0.494-0.136-0.715-0.054
		c-0.72,0.267-0.907,1.524-0.418,2.807C171.548,310.869,172.529,311.693,173.249,311.425z"/>
	<path fill="#FA701D" d="M170.619,295.403c2.275-0.598,4.142,1.657,4.416,3.616c0.274,1.96,0.476,5.025-3.897,6.009
		c-4.413,0.993-14.725-0.598-14.725-0.598s0.288,4.728-0.972,8.895c-1.166,3.857-1.755,2.912-1.755,2.912s-3.564-0.137-2.392,3.289
		s4.111,1.345,4.111,1.345s4.383,16.775-12.499,13.296c-2.782-0.573-6.205-2.825-6.833-4.489c-0.628-1.665-0.626-4.914,1.987-6.314
		c-0.807,1.497-0.579,5.634,2.105,4.98c6.68-1.628,1.279-14.99,7.577-24.212c6.297-9.222,18.193-7.157,21.901-4.859
		c3.45,2.088,2.327-1.357,1.604-1.624c-0.35,0.381-1.123,0.228-1.389-0.057C169.591,297.306,169.16,295.808,170.619,295.403z"/>
	<path fill="#FFE1C9" d="M146.756,324.812c-5.824-1.183-10.025,2.518-10.025,2.518s-0.921,3.041-2.081,2.823s0.18-2.516,0.18-2.516
		s-1.672,2.504-2.298,2.26c-0.625-0.244-2.784-3.321-1.76-4.338c1.024-1.017,6.06-1.208,6.06-1.208s4.375-3.587,10.644-2.649
		c6.269,0.937,11.682,5.922,11.682,5.922l-3.384,3.104C155.773,330.727,152.579,325.995,146.756,324.812z"/>
	<path fill="#FFE1C9" d="M145.58,349.829c0,0,0.963,5.591,1.775,6.048c0.812,0.457,3.299-0.914,3.299-0.914l2.081,1.776l3.959,1.37
		c0,0-10.047,2.945-11.723,0.762c-1.676-2.182-2.323-8.273-2.323-8.273L145.58,349.829z"/>
	<path fill="#FFE1C9" d="M145.58,349.829c0,0,0.963,5.591,1.775,6.048c0.812,0.457,3.299-0.914,3.299-0.914l2.081,1.776l3.959,1.37
		c0,0-10.047,2.945-11.723,0.762c-1.676-2.182-2.323-8.273-2.323-8.273L145.58,349.829z"/>
	<g>
		<path d="M137.915,350.903c2.233,0.863,4.733,0.138,4.733,0.138l3.101-0.885l-0.793-4.489l-9.837,2.919
			C135.119,348.585,135.681,350.04,137.915,350.903z"/>
	</g>
	<g>
		<path fill="#FFE1C9" d="M180.139,368.31c0,0-0.953-5.593-1.765-6.051s-3.301,0.908-3.301,0.908l-2.078-1.78l-3.956-1.376
			c0,0,10.052-2.927,11.724-0.742s2.309,8.277,2.309,8.277L180.139,368.31z"/>
		<g>
			<path d="M187.806,367.25c-2.232-0.867-4.733-0.146-4.733-0.146l-3.102,0.88l0.785,4.49l9.842-2.902
				C190.597,369.572,190.037,368.116,187.806,367.25z"/>
		</g>
	</g>
	<path fill="#F88F95" d="M179.248,353.465c0,0,4.701,5.914,3.607,10.095c-14.133,2.265-37.132-9.252-34.224-9.366
		c2.109-0.083,4.512-3.682,4.947-4.679C153.744,349.137,179.248,353.465,179.248,353.465z"/>
	<g>
		<path d="M137.915,350.903c2.233,0.863,4.733,0.138,4.733,0.138l3.101-0.885l-0.793-4.489l-9.837,2.919
			C135.119,348.585,135.681,350.04,137.915,350.903z"/>
	</g>
	
		<ellipse transform="matrix(0.9476 -0.3193 0.3193 0.9476 -89.8598 71.4371)" fill="#76ADDD" cx="172.933" cy="309.765" rx="0.741" ry="1.199"/>
	
		<ellipse transform="matrix(-0.9782 0.2076 -0.2076 -0.9782 392.955 585.5494)" fill="#76ADDD" cx="165.752" cy="313.394" rx="0.831" ry="1.279"/>
</g>
<g>
	<path fill="#FFE1C9" d="M447.59,311.057c0,0-18.808-7.543-22.186-4.364s-4.336,9.039-4.336,9.039s-2.252-0.935-2.703,1.745
		c-0.451,2.681,2.083,2.868,2.083,2.868s-1.305,16.208,14.764,14.961c-0.912,2.431,2.298,7.668,2.298,7.668L445.729,331l4.115-6.463
		l0.449-9.429L447.59,311.057z"/>
	<path fill="#F5AF00" d="M447.59,311.057l-2.14,10.161c0,0,4.054-0.997,3.548,2.992c-0.507,3.99-3.548,1.745-3.548,1.745
		l-1.07,6.317c0,0,7.151-5.631,7.658-16.977c0.507-11.346-7.771-16.956-15.316-17.642c-4.331-0.394-7.151,1.164-8.784,1.122
		s-4.561-1.558-4.617-4.364c-0.025-1.226,0.901-1.496,0.901-1.496s0,1.787,1.52,1.683c1.52-0.104,1.483-3.429-1.464-3.242
		c-1.424,0.09-2.515,1.6-2.478,3.429c0.092,4.487,5.349,6.047,5.349,6.047s0.638,1.081-2.309,0.997
		c-2.947-0.083-4.805-3.574-4.843-4.8c0.287,0.628,1.614,0.894,1.577-0.374s-0.582-1.87-1.577-1.87s-1.633,0.956-1.633,2.369
		c0,3.159,2.397,8.625,7.039,9.538S447.59,311.057,447.59,311.057z"/>
	<path fill="#76ADDD" d="M429.785,358.989l-3.047,14.291l4.919,1.457c0,0,2.192-12.687,12.441-12.999
		c5.805-0.177,11.262,3.242,17.625,3.865s9.629-7.585,9.629-7.585l-4.449-2.057c0,0-0.845,2.286-4.111,2.161
		c-2.368-0.09-3.581-2.081-4.07-3.169C458.538,354.54,429.785,358.989,429.785,358.989z"/>
	<path fill="#FA701D" d="M445.729,331.001l-7.881,3.962l-0.394,4.083l-2.241-3.74c0,0-2.792,0.231-6.446-0.601l1.025,24.411
		l28.932-4.164L445.729,331.001z"/>
	<path fill="#402517" d="M423.992,317.067c0.765,0.285,1.723-0.594,2.14-1.965c0.417-1.37,0.135-2.712-0.629-2.998
		c-0.765-0.285-1.723,0.594-2.14,1.965C422.945,315.44,423.227,316.782,423.992,317.067z"/>
	<path fill="#402517" d="M433.239,314.138c-0.885-0.208-1.837,0.846-2.126,2.355c-0.289,1.508,0.194,2.9,1.079,3.108
		s1.837-0.846,2.126-2.355C434.607,315.737,434.124,314.346,433.239,314.138z"/>
	<path fill="#402517" d="M423.376,322.059c0,0-0.141,5.143,3.238,5.33c3.379,0.187,4.414-3.927,4.414-3.927
		s-2.838-0.031-4.271-0.202C425.323,323.09,423.376,322.059,423.376,322.059z"/>
	<path fill="#FFFFFF" d="M430.261,380.518l-10.88-3.221l0.233-0.964l10.88,3.221L430.261,380.518z"/>
	<g>
		<path d="M422.17,373.476c1.264-0.809,2.96-0.672,2.96-0.672l6.528,1.933l-1.164,4.818l-10.88-3.221
			C419.614,376.334,420.692,374.422,422.17,373.476z"/>
		<polygon points="419.381,377.297 430.261,380.518 430.145,381 419.265,377.779 		"/>
	</g>
	<path fill="#FFFFFF" d="M468.979,350.358l10.343,4.933l-0.356,0.916l-10.343-4.933L468.979,350.358z"/>
	<g>
		<path d="M476.063,358.624c-1.357,0.597-3.017,0.19-3.017,0.19l-6.142-2.852l1.718-4.688l10.343,4.933
			C478.965,356.207,477.648,357.925,476.063,358.624z"/>
		<polygon points="479.322,355.291 468.979,350.358 469.157,349.9 479.5,354.833 		"/>
	</g>
	<path fill="#FFFFFF" d="M439.082,344.232c-0.339-0.109-0.693,0.107-0.791,0.482s0.097,0.767,0.435,0.875
		c0.339,0.109,0.693-0.107,0.791-0.482C439.615,344.733,439.42,344.341,439.082,344.232z"/>
	<path fill="#FFFFFF" d="M438.411,341.421c-0.339-0.109-0.693,0.107-0.791,0.482s0.097,0.767,0.435,0.875
		c0.339,0.109,0.693-0.107,0.791-0.482S438.75,341.529,438.411,341.421z"/>
	<path fill="#FFFFFF" d="M440.893,349.995c-0.339-0.109-0.693,0.107-0.791,0.482s0.097,0.767,0.435,0.875
		c0.339,0.109,0.693-0.107,0.791-0.482C441.427,350.496,441.232,350.104,440.893,349.995z"/>
	<path fill="#FFFFFF" d="M439.908,346.976c-0.339-0.109-0.693,0.107-0.791,0.482s0.097,0.767,0.435,0.875
		c0.339,0.109,0.693-0.107,0.791-0.482C440.441,347.476,440.246,347.085,439.908,346.976z"/>
	<path fill="#FFFFFF" d="M442.17,353.238c-0.339-0.109-0.693,0.107-0.791,0.482s0.097,0.767,0.435,0.875s0.693-0.107,0.791-0.482
		S442.509,353.347,442.17,353.238z"/>
	<path fill="#FFE1C9" d="M426.185,343.367c-1.706,1.568-3.792,2.968-6.184,3.589c-5.289,1.372-12.979-3.321-13.558-3.764
		c-0.288,0.459-6.294-1.902-6.4-3.132s2.241-4.195,2.879-4.253c0.638-0.057,2.072,2.593,2.072,2.593s-1.067-2.558,0.101-2.904
		c1.169-0.345,2.137,4.903,2.137,4.903s6.867,4.975,11.974,3.559c1.852-0.514,3.497-1.644,4.878-2.945L426.185,343.367z"/>
	<path fill="#FFE1C9" d="M453.374,328.068c2.12-0.361,4.46-0.375,6.717,0.39c5.194,1.761,9.706,10.101,10.005,10.806
		c0.458-0.236,4.574,5.15,4.107,6.272s-3.843,2.377-4.421,2.071s-0.612-3.395-0.612-3.395s-0.241,2.805-1.408,2.453
		c-1.167-0.353,0.383-5.427,0.383-5.427s-3.672-8.125-8.73-9.746c-1.89-0.606-3.888-0.523-5.718-0.14
		C449.972,332.132,449.101,328.796,453.374,328.068z"/>
	<path fill="#FA701D" d="M445.729,331c0,0,3.372-2.204,7.645-2.932l0.323,3.283c-3.725,0.78-6.754,2.806-6.754,2.806L445.729,331z"
		/>
	<path fill="#FA701D" d="M431.292,336.813c0,0-1.87,3.579-5.107,6.554l-2.1-2.354c2.941-2.768,4.687-6.307,4.687-6.307
		L431.292,336.813z"/>
	<path fill="#5EAF85" d="M423.78,316.492c0.382,0.143,0.861-0.297,1.07-0.982s0.068-1.356-0.315-1.499
		c-0.382-0.143-0.861,0.297-1.07,0.982S423.398,316.349,423.78,316.492z"/>
	<path fill="#5EAF85" d="M432.387,316.168c-0.443-0.104-0.919,0.423-1.063,1.177s0.097,1.45,0.54,1.554
		c0.443,0.104,0.919-0.423,1.063-1.177C433.072,316.968,432.83,316.272,432.387,316.168z"/>
</g>
<g>
	<polygon fill="#FFE1C9" points="525.447,354.123 537.341,341.622 520.724,341.004 	"/>
	<path fill="#FFE1C9" d="M520.305,344.461c0,0-9.524,2.193-15.154-2.827s-6.155-9.146-6.155-9.146
		c-0.693,0.203-4.437-5.835-4.031-6.432c0.406-0.597,3.975-2.056,4.808-1.648s0.248,3.659,0.248,3.659s0.839-3.158,1.925-2.538
		s-0.91,5.886-0.91,5.886s0.77,3.3,5.767,7.85s14.848,1.104,14.848,1.104l1.791,2.701L520.305,344.461z"/>
	<path fill="#FFE1C9" d="M514.431,320.165c0.885-2.014,1.886-1.698,2.365-1.379c0.173-0.379,0.355-0.762,0.549-1.151
		c4.468-8.694,14.224-11.873,21.792-7.1c7.568,4.773,10.081,15.69,5.613,24.384s-14.224,11.873-21.792,7.1
		c-6.326-3.99-10.236-9.825-7.803-18.76C514.529,322.949,513.567,322.131,514.431,320.165z"/>
	<path fill="#F89C71" d="M543.485,365.624c0,0-8.465-15.953-2.521-21.583l-3.888-3.566c0,0-6.945,9.778-9.491,10.01
		c-2.547,0.232-6.665-9.888-6.665-9.888l-1.331,0.347c0,0-5.381,4.734-6.117,6.671s1.871,5.26,1.871,5.26l-1.348,17.286
		L543.485,365.624z"/>
	<path fill="#FFB8A7" d="M533.876,331.682c0.188-0.654-0.301-1.253-1.889-1.803c-1.588-0.551-2.64-0.53-2.92,0.172
		c-0.28,0.702-0.171,0.974,1.803,1.803S533.688,332.336,533.876,331.682z"/>
	<path fill="#402517" d="M518.598,326.799c0,0,1.547,1.447,3.344,2.218c2.269,0.974,5.157,1.061,5.157,1.061
		s-1.61,4.546-5.852,3.147C517.006,331.826,518.598,326.799,518.598,326.799z"/>
	<path fill="#3F2416" d="M531.484,320.69c0.333,0.145,0.549,0.481,0.653,0.921c0.372-0.265,1.323-0.892,1.481-0.491
		c0.169,0.429-1.086,0.627-1.448,0.675c0.028,0.184,0.044,0.378,0.035,0.589c0.433-0.192,1.447-0.595,1.522-0.18
		c0.081,0.449-1.164,0.403-1.541,0.379c-0.019,0.2-0.056,0.407-0.107,0.62c0.494-0.11,1.456-0.272,1.451,0.128
		c-0.005,0.428-1.072,0.209-1.507,0.101c-0.059,0.201-0.13,0.403-0.219,0.607c-0.649,1.489-1.845,2.405-2.671,2.044
		c-0.826-0.36-0.969-1.859-0.32-3.348C529.462,321.245,530.658,320.33,531.484,320.69z"/>
	<path fill="#3F2416" d="M520.888,321.866c-0.827-0.307-1.042-1.751-0.48-3.225c0.227-0.595,0.548-1.098,0.902-1.473
		c-0.338-0.354-1.022-1.139-0.666-1.346c0.352-0.205,0.693,0.717,0.839,1.176c0.125-0.113,0.251-0.212,0.379-0.29
		c-0.281-0.432-0.739-1.233-0.374-1.367c0.368-0.135,0.545,0.756,0.614,1.249c0.285-0.121,0.567-0.156,0.821-0.062
		c0.827,0.307,1.042,1.751,0.48,3.225S521.715,322.173,520.888,321.866z"/>
	<path fill="#3F2416" d="M523.91,303.46c-2.613-0.687-4.758,1.903-5.073,4.154s-0.547,5.772,4.477,6.903
		c5.07,1.141,16.917-0.687,16.917-0.687s-0.331,5.432,1.116,10.219c1.339,4.43,2.016,3.346,2.016,3.346s4.094-0.157,2.748,3.778
		c-1.346,3.935-4.723,1.546-4.723,1.546s-5.035,19.271,14.359,15.274c3.196-0.659,7.128-3.245,7.85-5.157
		c0.721-1.912,0.72-5.645-2.283-7.254c0.927,1.719,0.665,6.472-2.418,5.721c-7.674-1.87-1.47-17.221-8.704-27.815
		c-7.235-10.595-20.9-8.222-25.16-5.582c-3.964,2.398-2.674-1.559-1.843-1.865c0.402,0.438,1.29,0.262,1.596-0.066
		C525.09,305.646,525.585,303.925,523.91,303.46z"/>
	<path fill="#FFE1C9" d="M551.324,337.245c6.69-1.359,11.517,2.893,11.517,2.893s1.058,3.494,2.391,3.243
		c1.333-0.251-0.206-2.891-0.206-2.891s1.921,2.877,2.64,2.596c0.719-0.28,3.198-3.816,2.022-4.983
		c-1.177-1.168-6.962-1.388-6.962-1.388s-5.026-4.12-12.228-3.044c-7.202,1.077-13.421,6.804-13.421,6.804l3.888,3.566
		C540.964,344.041,544.634,338.604,551.324,337.245z"/>
	<path fill="#FFE1C9" d="M552.675,365.985c0,0-1.106,6.423-2.039,6.948s-3.79-1.05-3.79-1.05l-2.391,2.041l-4.548,1.573
		c0,0,11.542,3.383,13.468,0.876s2.669-9.504,2.669-9.504L552.675,365.985z"/>
	<path fill="#FFE1C9" d="M552.675,365.985c0,0-1.106,6.423-2.039,6.948s-3.79-1.05-3.79-1.05l-2.391,2.041l-4.548,1.573
		c0,0,11.542,3.383,13.468,0.876s2.669-9.504,2.669-9.504L552.675,365.985z"/>
	<g>
		<path d="M561.481,367.219c-2.566,0.991-5.437,0.158-5.437,0.158l-3.562-1.017l0.911-5.157l11.3,3.353
			C564.692,364.557,564.046,366.228,561.481,367.219z"/>
	</g>
	<g>
		<path fill="#FFE1C9" d="M512.973,387.217c0,0,1.095-6.425,2.027-6.952c0.932-0.526,3.792,1.043,3.792,1.043l2.387-2.045
			l4.545-1.581c0,0-11.548-3.363-13.469-0.852c-1.921,2.511-2.653,9.509-2.653,9.509L512.973,387.217z"/>
		<g>
			<path d="M504.165,385.999c2.564-0.996,5.437-0.167,5.437-0.167l3.564,1.011L512.264,392l-11.306-3.333
				C500.958,388.667,501.601,386.994,504.165,385.999z"/>
		</g>
	</g>
	<path fill="#76ADDD" d="M513.995,370.162c0,0-5.4,6.794-4.144,11.597c16.237,2.602,42.659-10.629,39.317-10.76
		c-2.423-0.095-5.184-4.23-5.684-5.375C543.295,365.19,513.995,370.162,513.995,370.162z"/>
	<g>
		<path d="M561.481,367.219c-2.566,0.991-5.437,0.158-5.437,0.158l-3.562-1.017l0.911-5.157l11.3,3.353
			C564.692,364.557,564.046,366.228,561.481,367.219z"/>
	</g>
	
		<ellipse transform="matrix(0.9476 0.3193 -0.3193 0.9476 129.4624 -149.7061)" fill="#76ADDD" cx="521.292" cy="319.971" rx="0.851" ry="1.378"/>
	
		<ellipse transform="matrix(-0.9782 -0.2076 0.2076 -0.9782 980.1595 751.1523)" fill="#76ADDD" cx="529.494" cy="324.145" rx="0.954" ry="1.469"/>
</g>
</svg>
