<?xml version="1.0" encoding="utf-8"?>
<!-- Generator: Adobe Illustrator 17.0.0, SVG Export Plug-In . SVG Version: 6.00 Build 0)  -->
<!DOCTYPE svg PUBLIC "-//W3C//DTD SVG 1.1//EN" "http://www.w3.org/Graphics/SVG/1.1/DTD/svg11.dtd">
<svg version="1.1" id="Livello_1" xmlns="http://www.w3.org/2000/svg" xmlns:xlink="http://www.w3.org/1999/xlink" x="0px" y="0px"
	 width="60px" height="60px" viewBox="0 0 60 60" enable-background="new 0 0 60 60" xml:space="preserve">
<path fill-rule="evenodd" clip-rule="evenodd" fill="#0050a0" d="M30,0c16.569,0,30,13.432,30,30S46.569,60,30,60S0,46.569,0,30
	S13.432,0,30,0z"/>
<path fill-rule="evenodd" clip-rule="evenodd" fill="#0050a0" d="M30,3c14.912,0,27,12.088,27,27S44.912,57,30,57S3,44.912,3,30
	S15.088,3,30,3z"/>
<path fill="#FFFFFF" d="M43.241,20.736l-0.868-0.658v-2.923H28.526L13.8,31.943l13.847,13.906l12.144-12.196
	c1.002,0.328,2.033,0.51,2.999,0.51c2.112,0,3.758-0.822,4.636-2.315l0.03-0.05l0.025-0.052
	C50.2,26.099,43.526,20.952,43.241,20.736z M42.372,27.601c0.324,0.554,0.531,1.059,0.56,1.368
	c-0.023,0.001-0.048,0.001-0.074,0.001c-0.14,0-0.306-0.013-0.486-0.037V27.601z M27.647,43.861L15.78,31.943L29.105,18.56h11.867
	v5.268l-0.017,1.375l-0.007,0.561l0.024,0.026v2.752c-0.242-0.104-0.485-0.23-0.722-0.38c-0.927-0.588-1.85-1.549-2.545-2.426
	c0.163-0.442,0.234-0.915,0.205-1.393c-0.11-1.818-1.615-3.243-3.428-3.243c-0.069,0-0.139,0.002-0.209,0.006
	c-1.891,0.115-3.337,1.754-3.223,3.653c0.069,1.141,0.682,2.145,1.636,2.728c0.626,1.073,2.134,3.335,4.486,4.904
	c0.382,0.255,0.789,0.483,1.209,0.688L27.647,43.861z M46.221,31.133c-0.668,1.136-1.963,1.624-3.431,1.624
	c-0.605,0-1.239-0.083-1.871-0.237l0.003-0.002c-0.494-0.12-0.985-0.286-1.462-0.488c-0.531-0.226-1.044-0.494-1.513-0.807
	c-2.436-1.626-3.876-4.099-4.245-4.788c-0.695-0.291-1.205-0.953-1.254-1.758c-0.068-1.128,0.787-2.097,1.91-2.165
	c0.042-0.003,0.083-0.004,0.125-0.004c1.069,0,1.965,0.836,2.031,1.922c0.033,0.539-0.15,1.038-0.468,1.424
	c0.38,0.547,1.749,2.415,3.458,3.499c0.473,0.3,0.975,0.514,1.47,0.679v0.013c0.051,0.017,0.1,0.026,0.15,0.041
	c0.114,0.035,0.223,0.064,0.336,0.092c0.156,0.039,0.306,0.073,0.456,0.1c0.11,0.02,0.216,0.038,0.322,0.051
	c0.044,0.005,0.093,0.017,0.137,0.022v-0.011c0.166,0.016,0.337,0.038,0.486,0.038c0.577,0,1.013-0.12,1.175-0.34
	c1.158-1.636-1.479-4.597-1.66-4.796l0,0c-0.006-0.007-0.017-0.019-0.017-0.019l0.017-1.385l0,0l0.025-1.978
	C42.397,21.858,48.471,26.461,46.221,31.133z"/>
</svg>
