<?xml version="1.0" encoding="utf-8"?>
<!-- Generator: Adobe Illustrator 17.0.0, SVG Export Plug-In . SVG Version: 6.00 Build 0)  -->
<!DOCTYPE svg PUBLIC "-//W3C//DTD SVG 1.1//EN" "http://www.w3.org/Graphics/SVG/1.1/DTD/svg11.dtd">
<svg version="1.1" id="Livello_1" xmlns="http://www.w3.org/2000/svg" xmlns:xlink="http://www.w3.org/1999/xlink" x="0px" y="0px"
	 width="34px" height="34px" viewBox="0 0 34 34" enable-background="new 0 0 34 34" xml:space="preserve">
<g>
	<path fill-rule="evenodd" clip-rule="evenodd" fill="#FFFFFF" d="M17,0c9.389,0,17,7.611,17,17s-7.611,17-17,17S0,26.389,0,17
		S7.611,0,17,0z"/>
	<path fill-rule="evenodd" clip-rule="evenodd" fill="#1A62AA" d="M17,2c8.284,0,15,6.716,15,15s-6.716,15-15,15S2,25.284,2,17
		S8.716,2,17,2z"/>
	<g>
		<path fill="#FFFFFF" d="M11.812,15.697c-0.276,0-0.5-0.224-0.5-0.5c0-1.103,0.897-2,2-2c0.276,0,0.5,0.224,0.5,0.5
			s-0.224,0.5-0.5,0.5c-0.551,0-1,0.448-1,1C12.312,15.474,12.089,15.697,11.812,15.697z"/>
		<path fill="#FFFFFF" d="M17,27c-0.265,0-0.52-0.105-0.707-0.293l-7.071-7.071c-2.339-2.339-2.339-6.146,0-8.485
			c1.134-1.133,2.64-1.757,4.243-1.757c1.287,0,2.512,0.402,3.532,1.148c1.02-0.746,2.245-1.148,3.532-1.148
			c1.603,0,3.109,0.624,4.242,1.757c2.306,2.306,2.338,6.042,0.094,8.388c-0.026,0.034-0.054,0.066-0.085,0.098l-7.071,7.071
			C17.52,26.895,17.265,27,17,27z M13.464,11.394c-1.068,0-2.073,0.416-2.828,1.171c-1.559,1.56-1.559,4.098,0,5.657L17,24.586
			l6.281-6.281c0.024-0.03,0.049-0.06,0.077-0.087c1.556-1.56,1.554-4.096-0.003-5.653c-1.51-1.51-4.142-1.512-5.653-0.002
			c-0.391,0.389-1.023,0.389-1.413,0C15.534,11.809,14.531,11.394,13.464,11.394z"/>
	</g>
</g>
</svg>
