<?xml version="1.0" encoding="utf-8"?>
<!-- Generator: Adobe Illustrator 17.0.0, SVG Export Plug-In . SVG Version: 6.00 Build 0)  -->
<!DOCTYPE svg PUBLIC "-//W3C//DTD SVG 1.1//EN" "http://www.w3.org/Graphics/SVG/1.1/DTD/svg11.dtd">
<svg version="1.1" id="Livello_1" xmlns="http://www.w3.org/2000/svg" xmlns:xlink="http://www.w3.org/1999/xlink" x="0px" y="0px"
	 width="34px" height="34px" viewBox="0 0 34 34" enable-background="new 0 0 34 34" xml:space="preserve">
<g>
	<path fill-rule="evenodd" clip-rule="evenodd" fill="#FFFFFF" d="M17,0c9.389,0,17,7.611,17,17s-7.611,17-17,17S0,26.389,0,17
		S7.611,0,17,0z"/>
	<path fill-rule="evenodd" clip-rule="evenodd" fill="#1A62AA" d="M17,2c8.284,0,15,6.716,15,15s-6.716,15-15,15S2,25.284,2,17
		S8.716,2,17,2z"/>
	<g>
		<path fill="#FFFFFF" d="M17,23h6c0.552,0,1-0.448,1-1v-4c0-0.552-0.448-1-1-1h-6c-0.552,0-1,0.448-1,1v4
			C16,22.552,16.448,23,17,23z M17,18h6v4h-6V18z"/>
		<path fill="#FFFFFF" d="M21.646,19.646l-1,1c-0.195,0.195-0.195,0.512,0,0.707C20.744,21.451,20.872,21.5,21,21.5
			s0.256-0.049,0.354-0.146l1-1c0.195-0.195,0.195-0.512,0-0.707S21.842,19.451,21.646,19.646z"/>
		<path fill="#FFFFFF" d="M28.445,11.092l-3.778-3.711l-0.055-0.054l-0.062-0.045C24.292,7.098,23.99,7,23.674,7h-1.909h-1.909
			h-1.909h-1.909h-1.909H12.22h-1.909C9.995,7,9.693,7.097,9.436,7.282L9.373,7.327L9.318,7.381L5.54,11.092
			c-0.344,0.284-0.547,0.71-0.547,1.158v1.375c0,1.252,0.839,2.32,2.007,2.713V24c0,1.103,0.897,2,2,2h2h1v-1v-6h1v6v1h1h11
			c1.103,0,2-0.897,2-2v-7.668c1.159-0.398,1.992-1.463,1.992-2.707V12.25C28.992,11.801,28.789,11.375,28.445,11.092z
			 M26.992,13.625c0,0.482-0.448,0.875-1,0.875c-0.551,0-1-0.393-1-0.875V12.25c0-0.132-0.052-0.258-0.145-0.352L22.965,9h0.547
			l3.479,3.506V13.625z M13,17h-1c-1.103,0-2,0.897-2,2v5H9v-8.765c0.186-0.103,0.351-0.232,0.493-0.383
			c0.367,0.394,0.9,0.648,1.5,0.648c0.6,0,1.133-0.254,1.5-0.648c0.367,0.394,0.9,0.648,1.5,0.648c0.6,0,1.133-0.254,1.5-0.648
			c0.367,0.394,0.9,0.648,1.5,0.648c0.6,0,1.133-0.254,1.5-0.648c0.367,0.394,0.9,0.648,1.5,0.648c0.6,0,1.133-0.254,1.5-0.648
			c0.367,0.394,0.9,0.648,1.5,0.648c0.6,0,1.133-0.254,1.5-0.648c0.145,0.156,0.316,0.287,0.508,0.391V24H15v-5
			C15,17.897,14.103,17,13,17z M8.993,13.625c0,0.482-0.449,0.875-1,0.875c-0.551,0-0.999-0.393-0.999-0.875v-1.119L10.472,9h0.547
			l-1.882,2.898c-0.093,0.094-0.145,0.22-0.145,0.352V13.625z M15.431,9l-0.439,3.25v1.375c0,0.482-0.449,0.875-1,0.875
			c-0.551,0-1-0.393-1-0.875v-1.237L14.413,9H15.431z M19.571,9l1.421,3.388v1.237c0,0.482-0.449,0.875-1,0.875
			c-0.551,0-1-0.393-1-0.875l-0.01-1.472L18.556,9H19.571z"/>
	</g>
</g>
</svg>
