<?xml version="1.0" encoding="utf-8"?>
<!-- Generator: Adobe Illustrator 17.0.0, SVG Export Plug-In . SVG Version: 6.00 Build 0)  -->
<!DOCTYPE svg PUBLIC "-//W3C//DTD SVG 1.1//EN" "http://www.w3.org/Graphics/SVG/1.1/DTD/svg11.dtd">
<svg version="1.1" id="Livello_1" xmlns="http://www.w3.org/2000/svg" xmlns:xlink="http://www.w3.org/1999/xlink" x="0px" y="0px"
	 width="34px" height="34px" viewBox="0 0 34 34" enable-background="new 0 0 34 34" xml:space="preserve">
<g>
	<circle fill-rule="evenodd" clip-rule="evenodd" fill="#FFFFFF" cx="17" cy="17" r="17"/>
	<circle fill-rule="evenodd" clip-rule="evenodd" fill="#1A62AA" cx="17" cy="17" r="15"/>
	<path fill="#FFFFFF" d="M17,5c-4.411,0-8.25,3.589-8.25,8c0,2.431,1.75,4.726,2.75,6.24V24c0,0.738,1,1.376,1,1.723V26
		c0,1.654,1.846,3.5,3.5,3.5h2c1.654,0,2.5-1.846,2.5-3.5v-0.277c1-0.346,1-0.984,1-1.723v-4.76c2-1.515,3.25-3.81,3.25-6.24
		C24.75,8.589,21.411,5,17,5z"/>
	<g>
		<polygon fill="#1A62AA" points="13.5,24.5 15,24.5 19,24.5 19.5,24.5 19.5,23.5 13.5,23.5 		"/>
		<path fill="#1A62AA" d="M16,27.5h2c0.552,0,1-1,1-1h-4C15,26.5,15.448,27.5,16,27.5z"/>
		<path fill="#1A62AA" d="M17,7c-3.309,0-6,2.691-6,6c0,1.956,0.712,3.795,2.323,4.92c0.268,0.188,0.177,0.493,0.177,0.82v2.76h2
			v-5.589c-1-0.204-2.1-0.775-2.993-1.669c-0.39-0.391-0.265-1.023,0.125-1.414s1.086-0.391,1.477,0c1.51,1.512,4.178,1.512,5.688,0
			c0.391-0.391,1.04-0.391,1.43,0s0.148,1.023-0.242,1.414c-0.894,0.894-1.485,1.465-3.485,1.669V21.5h2v-2.76
			c0-0.327,0.41-0.633,0.677-0.82c1.611-1.125,2.698-2.964,2.698-4.92C22.875,9.691,20.309,7,17,7z"/>
	</g>
</g>
</svg>
