<?xml version="1.0" encoding="utf-8"?>
<!-- Generator: Adobe Illustrator 17.0.0, SVG Export Plug-In . SVG Version: 6.00 Build 0)  -->
<!DOCTYPE svg PUBLIC "-//W3C//DTD SVG 1.1//EN" "http://www.w3.org/Graphics/SVG/1.1/DTD/svg11.dtd">
<svg version="1.1" id="Livello_1" xmlns="http://www.w3.org/2000/svg" xmlns:xlink="http://www.w3.org/1999/xlink" x="0px" y="0px"
	 width="34px" height="34px" viewBox="0 0 34 34" enable-background="new 0 0 34 34" xml:space="preserve">
<g>
	<circle fill-rule="evenodd" clip-rule="evenodd" fill="#FFFFFF" cx="17" cy="17" r="17"/>
	<circle fill-rule="evenodd" clip-rule="evenodd" fill="#4881BB" cx="17" cy="17" r="15"/>
	<g>
		<path fill-rule="evenodd" clip-rule="evenodd" fill="#FFFFFF" d="M16,23.5h-2c-0.552,0-1,0.448-1,1s0.448,1,1,1h2
			c0.552,0,1-0.448,1-1S16.552,23.5,16,23.5z"/>
		<path fill-rule="evenodd" clip-rule="evenodd" fill="#FFFFFF" d="M24.5,12.5H24c-0.552,0-1,0.448-1,1s0.448,1,1,1h0.5
			c0.276,0,0-0.276,0,0V15c0,0.552,0.448,1,1,1s1-0.448,1-1v-0.5C26.5,13.122,25.878,12.5,24.5,12.5z"/>
		<path fill-rule="evenodd" clip-rule="evenodd" fill="#FFFFFF" d="M11,23.5h-0.5c-0.276,0-1-0.724-1-1V22c0-0.552-0.448-1-1-1
			s-1,0.448-1,1v0.5c0,1.378,1.622,3,3,3H11c0.552,0,1-0.448,1-1S11.552,23.5,11,23.5z"/>
		<path fill-rule="evenodd" clip-rule="evenodd" fill="#FFFFFF" d="M25.5,21c-0.552,0-1,0.448-1,1v0.5c0,0.276,0,1,0,1H24
			c-0.552,0-1,0.448-1,1s0.448,1,1,1h0.5c1.378,0,2-1.622,2-3V22C26.5,21.448,26.052,21,25.5,21z"/>
		<path fill-rule="evenodd" clip-rule="evenodd" fill="#FFFFFF" d="M21,12.5h-2c-0.552,0-1,0.448-1,1s0.448,1,1,1h2
			c0.552,0,1-0.448,1-1S21.552,12.5,21,12.5z"/>
		<path fill-rule="evenodd" clip-rule="evenodd" fill="#FFFFFF" d="M25.5,17c-0.552,0-1,0.448-1,1v1c0,0.552,0.448,1,1,1
			s1-0.448,1-1v-1C26.5,17.448,26.052,17,25.5,17z"/>
		<path fill-rule="evenodd" clip-rule="evenodd" fill="#FFFFFF" d="M21,23.5h-2c-0.552,0-1,0.448-1,1s0.448,1,1,1h2
			c0.552,0,1-0.448,1-1S21.552,23.5,21,23.5z"/>
		<path fill-rule="evenodd" clip-rule="evenodd" fill="#FFFFFF" d="M13.557,14.2c1.033,1.148,2.177,2.383,3.064,3.242
			c2.121,2.052,4.283,0.004,4.283,0.004l-5.875-4.398l6.067-4.747c0,0-2.14-2.103-4.239,0.004c-0.953,0.956-2.205,2.379-3.29,3.649
			L12.025,10.8c0.236-0.381,0.378-0.826,0.378-1.306c0-1.379-1.122-2.5-2.5-2.5c-1.379,0-2.5,1.121-2.5,2.5
			c0,1.378,1.121,2.5,2.5,2.5c0.499,0,0.962-0.151,1.353-0.404c0.3,0.348,0.772,0.891,1.331,1.523
			c-0.518,0.618-0.934,1.121-1.17,1.409c-0.421-0.323-0.942-0.523-1.514-0.523c-1.379,0-2.5,1.121-2.5,2.498
			c0,1.377,1.121,2.498,2.5,2.498c1.378,0,2.5-1.121,2.5-2.498c0-0.421-0.115-0.812-0.299-1.16L13.557,14.2z M8.404,9.494
			c0-0.828,0.672-1.5,1.5-1.5c0.828,0,1.5,0.672,1.5,1.5c0,0.828-0.672,1.5-1.5,1.5C9.075,10.994,8.404,10.322,8.404,9.494z
			 M9.904,17.994c-0.828,0-1.5-0.671-1.5-1.498c0-0.827,0.672-1.498,1.5-1.498c0.828,0,1.5,0.671,1.5,1.498
			C11.404,17.324,10.732,17.994,9.904,17.994z"/>
	</g>
</g>
</svg>
