<?xml version="1.0" encoding="utf-8"?>
<!-- Generator: Adobe Illustrator 17.0.0, SVG Export Plug-In . SVG Version: 6.00 Build 0)  -->
<!DOCTYPE svg PUBLIC "-//W3C//DTD SVG 1.1//EN" "http://www.w3.org/Graphics/SVG/1.1/DTD/svg11.dtd">
<svg version="1.1" id="Livello_1" xmlns="http://www.w3.org/2000/svg" xmlns:xlink="http://www.w3.org/1999/xlink" x="0px" y="0px"
	 width="20px" height="20px" viewBox="0 0 20 20" enable-background="new 0 0 20 20" xml:space="preserve">
<g>
	<circle fill="#FFFFFF" cx="10" cy="10" r="10"/>
	<circle fill="#4881BB" cx="10" cy="10" r="8"/>
	<path fill="#FFFFFF" d="M13.978,9H11V6c0-0.552-0.448-1-1-1S9,5.448,9,6v3H5.978c-0.552,0-1,0.448-1,1s0.448,1,1,1H9v3
		c0,0.552,0.448,1,1,1s1-0.448,1-1v-3h2.978c0.552,0,1-0.448,1-1S14.53,9,13.978,9z"/>
</g>
</svg>
