<?xml version="1.0" encoding="utf-8"?>
<!-- Generator: Adobe Illustrator 17.0.0, SVG Export Plug-In . SVG Version: 6.00 Build 0)  -->
<!DOCTYPE svg PUBLIC "-//W3C//DTD SVG 1.1//EN" "http://www.w3.org/Graphics/SVG/1.1/DTD/svg11.dtd">
<svg version="1.1" id="Livello_1" xmlns="http://www.w3.org/2000/svg" xmlns:xlink="http://www.w3.org/1999/xlink" x="0px" y="0px"
	 width="34px" height="34px" viewBox="0 0 34 34" enable-background="new 0 0 34 34" xml:space="preserve">
<g>
	<path fill-rule="evenodd" clip-rule="evenodd" fill="#FFFFFF" d="M17,0c9.389,0,17,7.611,17,17s-7.611,17-17,17S0,26.389,0,17
		S7.611,0,17,0z"/>
	<path fill-rule="evenodd" clip-rule="evenodd" fill="#4881BB" d="M17,2c8.284,0,15,6.716,15,15s-6.716,15-15,15S2,25.284,2,17
		S8.716,2,17,2z"/>
	<g>
		<path fill-rule="evenodd" clip-rule="evenodd" fill="#FFFFFF" d="M21.196,9.58c-1.083-1.068-2.525-1.609-4.284-1.609
			c-0.798,0-1.606,0.099-2.411,0.294c-0.48,0.125-1.473,0.522-3.035,1.213c-0.181,0.08-0.298,0.259-0.298,0.457v2.065
			c0,0.427,0.101,0.744,0.309,0.969c0.433,0.469,1.22,0.453,1.628-0.008c0.198-0.223,0.294-0.538,0.294-0.961v-0.945
			c0.666-0.312,1.241-0.53,1.711-0.651c0.528-0.135,1.1-0.204,1.7-0.204c1.145,0,2.043,0.334,2.749,1.022
			c0.702,0.685,1.043,1.485,1.043,2.447c0,0.531-0.167,0.957-0.515,1.304c-0.726,0.735-2.138,1.494-4.197,2.256
			c-0.196,0.072-0.327,0.259-0.327,0.469v2.065c0,0.427,0.101,0.744,0.309,0.969c0.212,0.229,0.496,0.351,0.821,0.351
			c0.316,0,0.595-0.122,0.807-0.351c0.208-0.225,0.309-0.542,0.309-0.969V18.85c2.086-0.904,3.403-1.707,4.022-2.448
			c0.665-0.797,1.002-1.726,1.002-2.759C22.832,12.016,22.282,10.65,21.196,9.58z"/>
		<circle fill-rule="evenodd" clip-rule="evenodd" fill="#FFFFFF" cx="17" cy="24.529" r="1.5"/>
	</g>
</g>
</svg>
