<?xml version="1.0" encoding="utf-8"?>
<!-- Generator: Adobe Illustrator 17.0.0, SVG Export Plug-In . SVG Version: 6.00 Build 0)  -->
<!DOCTYPE svg PUBLIC "-//W3C//DTD SVG 1.1//EN" "http://www.w3.org/Graphics/SVG/1.1/DTD/svg11.dtd">
<svg version="1.1" id="Livello_1" xmlns="http://www.w3.org/2000/svg" xmlns:xlink="http://www.w3.org/1999/xlink" x="0px" y="0px"
	 width="34px" height="34px" viewBox="0 0 34 34" enable-background="new 0 0 34 34" xml:space="preserve">
<g>
	<path fill-rule="evenodd" clip-rule="evenodd" fill="#FFFFFF" d="M17,0c9.389,0,17,7.611,17,17s-7.611,17-17,17S0,26.389,0,17
		S7.611,0,17,0z"/>
	<path fill-rule="evenodd" clip-rule="evenodd" fill="#15569F" d="M17,2c8.284,0,15,6.716,15,15s-6.716,15-15,15
		C8.716,32,2,25.284,2,17S8.716,2,17,2z"/>
	<g>
		<polygon fill-rule="evenodd" clip-rule="evenodd" fill="#FFFFFF" points="22.375,17.026 26,19.646 26,14.407 		"/>
		<path fill-rule="evenodd" clip-rule="evenodd" fill="#FFFFFF" d="M15.456,17.341c0.818,0.592,2.249,0.592,3.065,0.002l7.255-5.243
			C25.447,11.45,24.779,11,24,11H10c-0.792,0-1.471,0.464-1.795,1.133L15.456,17.341z"/>
		<path fill-rule="evenodd" clip-rule="evenodd" fill="#FFFFFF" d="M20.667,18.26l-0.973,0.703c-0.758,0.548-1.73,0.823-2.703,0.823
			c-0.973,0-1.946-0.274-2.705-0.823l-1.002-0.72l-5.069,3.642C8.542,22.543,9.215,23,10,23h14c0.764,0,1.419-0.433,1.756-1.062
			L20.667,18.26z"/>
		<polygon fill-rule="evenodd" clip-rule="evenodd" fill="#FFFFFF" points="11.57,17.012 8,14.447 8,19.577 		"/>
	</g>
</g>
</svg>
