<?xml version="1.0" encoding="utf-8"?>
<!-- Generator: Adobe Illustrator 17.0.0, SVG Export Plug-In . SVG Version: 6.00 Build 0)  -->
<!DOCTYPE svg PUBLIC "-//W3C//DTD SVG 1.1//EN" "http://www.w3.org/Graphics/SVG/1.1/DTD/svg11.dtd">
<svg version="1.1" id="Livello_1" xmlns="http://www.w3.org/2000/svg" xmlns:xlink="http://www.w3.org/1999/xlink" x="0px" y="0px"
	 width="34px" height="34px" viewBox="0 0 34 34" enable-background="new 0 0 34 34" xml:space="preserve">
<g>
	<path fill-rule="evenodd" clip-rule="evenodd" fill="#FFFFFF" d="M17,0c9.389,0,17,7.611,17,17s-7.611,17-17,17S0,26.389,0,17
		S7.611,0,17,0z"/>
	<path fill-rule="evenodd" clip-rule="evenodd" fill="#15569F" d="M17,2c8.284,0,15,6.716,15,15s-6.716,15-15,15S2,25.284,2,17
		S8.716,2,17,2z"/>
	<g>
		<path fill="#FFFFFF" d="M17,17c-1.87,0-3.627,0.728-4.95,2.05c-0.391,0.391-0.391,1.023,0,1.414s1.023,0.391,1.414,0
			C14.409,19.52,15.665,19,17,19s2.591,0.52,3.536,1.464c0.195,0.195,0.451,0.293,0.707,0.293s0.512-0.098,0.707-0.293
			c0.391-0.391,0.391-1.023,0-1.414C20.627,17.728,18.87,17,17,17z"/>
		<circle fill="#FFFFFF" cx="17" cy="24" r="3"/>
		<path fill="#FFFFFF" d="M17,13c-2.938,0-5.7,1.144-7.778,3.222c-0.391,0.39-0.391,1.023,0,1.414s1.023,0.391,1.414,0
			C12.336,15.936,14.596,15,17,15s4.664,0.936,6.364,2.636c0.195,0.195,0.451,0.293,0.707,0.293s0.512-0.098,0.707-0.293
			c0.391-0.391,0.391-1.024,0-1.414C22.7,14.144,19.938,13,17,13z"/>
		<path fill="#FFFFFF" d="M27.606,13.394C24.774,10.561,21.007,9,17,9s-7.774,1.561-10.606,4.394c-0.391,0.391-0.391,1.024,0,1.414
			c0.391,0.391,1.023,0.391,1.414,0C10.263,12.352,13.527,11,17,11s6.737,1.352,9.192,3.808c0.195,0.195,0.451,0.293,0.707,0.293
			s0.512-0.098,0.707-0.293C27.997,14.417,27.997,13.784,27.606,13.394z"/>
	</g>
</g>
</svg>
