<?xml version="1.0" encoding="utf-8"?>
<!-- Generator: Adobe Illustrator 17.0.0, SVG Export Plug-In . SVG Version: 6.00 Build 0)  -->
<!DOCTYPE svg PUBLIC "-//W3C//DTD SVG 1.1//EN" "http://www.w3.org/Graphics/SVG/1.1/DTD/svg11.dtd">
<svg version="1.1" id="Livello_1" xmlns="http://www.w3.org/2000/svg" xmlns:xlink="http://www.w3.org/1999/xlink" x="0px" y="0px"
	 width="34px" height="34px" viewBox="0 0 34 34" enable-background="new 0 0 34 34" xml:space="preserve">
<g>
	<circle fill-rule="evenodd" clip-rule="evenodd" fill="#FFFFFF" cx="17" cy="17" r="17"/>
	<circle fill-rule="evenodd" clip-rule="evenodd" fill="#15569F" cx="17" cy="17" r="15"/>
	<path fill="#FFFFFF" d="M28.095,18.035l-2.261-2.261l2.261-2.261c0.218-0.218,0.323-0.523,0.285-0.829
		c-0.037-0.306-0.214-0.577-0.478-0.735l-7.42-4.452c-0.395-0.235-0.896-0.175-1.222,0.15L17,9.908l-2.261-2.261
		c-0.284-0.284-0.709-0.37-1.078-0.222l-7.42,2.968c-0.312,0.125-0.541,0.398-0.608,0.728s0.034,0.67,0.272,0.908l2.153,2.153
		l-2.045,1.534c-0.257,0.192-0.405,0.496-0.4,0.816c0.006,0.32,0.124,0.619,0.387,0.803L8.5,19.114v3.338
		c0,0.326,0.199,0.632,0.467,0.819l7.44,5.194c0.007,0.005,0.026,0.007,0.034,0.012c0.009,0.006,0.02,0.014,0.029,0.02
		c0.048,0.03,0.103,0.046,0.154,0.067c0.03,0.012,0.059,0.03,0.091,0.039c0.093,0.028,0.189,0.043,0.285,0.043
		c0.153,0,0.306-0.035,0.448-0.105l6.96-3.71c0.339-0.169,0.093-0.516,0.093-0.895v-3.092l2.875-1.208
		c0.287-0.144,0.718-0.417,0.77-0.734S28.322,18.262,28.095,18.035z"/>
	<g>
		<polygon fill="#15569F" points="16.91,12.434 11.668,14.531 17.085,18.323 22.343,15.694 		"/>
		<polygon fill="#15569F" points="25.775,13.005 20.123,9.613 18.612,11.123 24.265,14.515 		"/>
		<polygon fill="#15569F" points="15.221,10.957 13.791,9.527 8.392,11.687 9.821,13.117 		"/>
		<polygon fill="#15569F" points="15.296,19.512 9.601,15.525 8.316,16.488 14.012,20.475 		"/>
		<path fill="#15569F" d="M14.137,22.71c-0.2,0-0.546-0.06-0.718-0.181L10.5,20.514v1.418l5,3.794v-4.242l-1.066,1.026
			C14.258,22.643,14.348,22.71,14.137,22.71z"/>
		<path fill="#15569F" d="M19.968,23.452c-0.259,0-0.766-0.101-0.957-0.293L17.5,21.898v4.13l5-2.71v-1.474l-2.545,1.502
			C19.812,23.417,20.12,23.452,19.968,23.452z"/>
		<polygon fill="#15569F" points="18.688,19.758 20.165,21.235 25.699,18.468 24.223,16.991 		"/>
	</g>
</g>
</svg>
