<?xml version="1.0" encoding="utf-8"?>
<!-- Generator: Adobe Illustrator 17.0.0, SVG Export Plug-In . SVG Version: 6.00 Build 0)  -->
<!DOCTYPE svg PUBLIC "-//W3C//DTD SVG 1.1//EN" "http://www.w3.org/Graphics/SVG/1.1/DTD/svg11.dtd">
<svg version="1.1" id="Livello_1" xmlns="http://www.w3.org/2000/svg" xmlns:xlink="http://www.w3.org/1999/xlink" x="0px" y="0px"
	 width="34px" height="34px" viewBox="0 0 34 34" enable-background="new 0 0 34 34" xml:space="preserve">
<g>
	<path fill-rule="evenodd" clip-rule="evenodd" fill="#FFFFFF" d="M17,0c9.389,0,17,7.611,17,17s-7.611,17-17,17S0,26.389,0,17
		S7.611,0,17,0z"/>
	<path fill-rule="evenodd" clip-rule="evenodd" fill="#15569F" d="M17,2c8.284,0,15,6.716,15,15s-6.716,15-15,15S2,25.284,2,17
		S8.716,2,17,2z"/>
	<path fill="#FFFFFF" d="M15.808,28.678c-0.534,0-1.036-0.208-1.414-0.586l-8.485-8.485c-0.378-0.378-0.586-0.88-0.586-1.414
		s0.208-1.036,0.586-1.414l8.485-8.485C14.581,8.105,14.835,8,15.101,8H25c0.552,0,1,0.448,1,1v9.899
		c0,0.265-0.105,0.52-0.293,0.707l-8.485,8.485C16.844,28.47,16.342,28.678,15.808,28.678z"/>
	<polygon fill="#15569F" points="15.515,10 7.322,18.192 15.808,26.678 24,18.485 24,10 	"/>
	<path fill="#FFFFFF" d="M29.589,14.073c-0.826-2.056-2.536-3.367-4.589-3.897l-1.5-0.323v3.03l0.824,0.271
		c0.517,0.244,1.216,0.622,1.667,1.066c-0.277-0.155-0.789-0.243-1.106-0.306l-1.384-0.24v1.442c0-0.474-0.633-1.135-0.828-1.903
		c-0.342-1.34-1.412-2.276-2.78-2.276c-0.275,0-0.458,0.028-0.684,0.087c-0.775,0.197-1.395,0.684-1.803,1.37
		c-0.409,0.689-0.51,1.496-0.313,2.271c1.012,3.976,4.297,6.559,7.009,7.055c0.367,0.068,0.744,0.103,1.112,0.103
		c1.668,0,2.98-0.712,4.007-2.177C30.304,18.097,30.433,16.171,29.589,14.073z"/>
	<path fill="#15569F" d="M27.984,14.819c-0.47-1.17-1.484-2.099-2.484-2.571v2.646c1,0.2,0.53,0.425,0.628,0.67
		c0.262,0.651,0.327,1.234-0.058,1.783c-0.283,0.403-0.679,0.548-1.302,0.436c-1.445-0.265-3.248-1.874-3.816-4.108
		c-0.137-0.536-0.667-0.861-1.2-0.723c-0.535,0.136-0.851,0.681-0.715,1.216c0.804,3.16,3.342,5.2,5.43,5.583
		c0.254,0.047,0.505,0.07,0.747,0.07c1.083,0,1.889-0.463,2.493-1.325C28.477,17.398,28.496,16.092,27.984,14.819z"/>
</g>
</svg>
