<?xml version="1.0" encoding="utf-8"?>
<!-- Generator: Adobe Illustrator 17.0.0, SVG Export Plug-In . SVG Version: 6.00 Build 0)  -->
<!DOCTYPE svg PUBLIC "-//W3C//DTD SVG 1.1//EN" "http://www.w3.org/Graphics/SVG/1.1/DTD/svg11.dtd">
<svg version="1.1" id="Livello_1" xmlns="http://www.w3.org/2000/svg" xmlns:xlink="http://www.w3.org/1999/xlink" x="0px" y="0px"
	 width="34px" height="34px" viewBox="0 0 34 34" enable-background="new 0 0 34 34" xml:space="preserve">
<g>
	<path fill-rule="evenodd" clip-rule="evenodd" fill="#FFFFFF" d="M17,0c9.389,0,17,7.611,17,17s-7.611,17-17,17S0,26.389,0,17
		S7.611,0,17,0z"/>
	<path fill-rule="evenodd" clip-rule="evenodd" fill="#15569F" d="M17,2c8.284,0,15,6.716,15,15s-6.716,15-15,15S2,25.284,2,17
		S8.716,2,17,2z"/>
	<path fill="#FFFFFF" d="M26.923,10.618c-0.101-0.244-0.296-0.439-0.541-0.541C26.26,10.027,26.13,10,26,10h-6c-0.552,0-1,0.448-1,1
		s0.448,1,1,1h3.586L17,18.586l-2.293-2.293c-0.391-0.391-1.023-0.391-1.414,0l-6,6c-0.391,0.391-0.391,1.023,0,1.414
		C7.488,23.902,7.744,24,8,24s0.512-0.098,0.707-0.293L14,18.414l2.293,2.293c0.391,0.391,1.023,0.391,1.414,0L25,13.414V17
		c0,0.552,0.448,1,1,1s1-0.448,1-1v-6C27,10.87,26.973,10.74,26.923,10.618z"/>
</g>
</svg>
