<?xml version="1.0" encoding="utf-8"?>
<!-- Generator: Adobe Illustrator 17.0.0, SVG Export Plug-In . SVG Version: 6.00 Build 0)  -->
<!DOCTYPE svg PUBLIC "-//W3C//DTD SVG 1.1//EN" "http://www.w3.org/Graphics/SVG/1.1/DTD/svg11.dtd">
<svg version="1.1" id="Livello_1" xmlns="http://www.w3.org/2000/svg" xmlns:xlink="http://www.w3.org/1999/xlink" x="0px" y="0px"
	 width="60px" height="60px" viewBox="0 0 60 60" enable-background="new 0 0 60 60" xml:space="preserve">
<g>
	<path fill-rule="evenodd" clip-rule="evenodd" fill="#0050A0" d="M30,0c16.569,0,30,13.432,30,30S46.569,60,30,60S0,46.569,0,30
		S13.432,0,30,0z"/>
	<path fill-rule="evenodd" clip-rule="evenodd" fill="#6AB5AC" d="M30,2c15.464,0,28,12.536,28,28S45.464,58,30,58S2,45.464,2,30
		S14.536,2,30,2z"/>
	<g>
		<path fill="#FFFFFF" d="M48.926,34.956l-29.272,4.501l-2.688-5.245l20.952-21.561c0.384-0.395,0.375-1.03-0.021-1.415
			c-0.382-0.371-1.042-0.363-1.413,0.021L15.031,33.332c-0.299,0.308-0.368,0.771-0.173,1.153l3.345,6.526
			c0.195,0.38,0.614,0.597,1.042,0.532l4.518-0.695l0.131,1.162l-0.005,0.044l0.329,2.17c0.131,0.876,0.596,1.647,1.31,2.172
			c0.715,0.526,1.595,0.746,2.479,0.608l6.921-1.065c1.817-0.278,3.072-1.976,2.799-3.784l-0.33-2.189
			c-0.015-0.044-0.03-0.093-0.041-0.149l-0.208-1.028l12.083-1.858c0.545-0.084,0.92-0.595,0.836-1.14
			C49.983,35.26,49.468,34.869,48.926,34.956z M34.624,43.965L27.5,45.044c-0.294,0-0.571-0.092-0.801-0.267
			c-0.269-0.195-0.454-0.502-0.506-0.851l-0.371-2.332l-0.212-1.03l9.683-1.489l0.133,1.162l-0.005,0.045l0.327,2.173
			C35.856,43.177,35.352,43.854,34.624,43.965z"/>
		<path fill="#FFFFFF" d="M11.813,36.422c-0.172-0.337-0.514-0.546-0.891-0.546c-0.158,0-0.311,0.038-0.454,0.111
			c-0.492,0.252-0.687,0.856-0.436,1.348l3.211,6.265c0.245,0.477,0.865,0.681,1.347,0.434c0.49-0.251,0.685-0.855,0.434-1.347
			L11.813,36.422z"/>
	</g>
</g>
</svg>
