<?xml version="1.0" encoding="utf-8"?>
<!-- Generator: Adobe Illustrator 17.0.0, SVG Export Plug-In . SVG Version: 6.00 Build 0)  -->
<!DOCTYPE svg PUBLIC "-//W3C//DTD SVG 1.1//EN" "http://www.w3.org/Graphics/SVG/1.1/DTD/svg11.dtd">
<svg version="1.1" id="Livello_1" xmlns="http://www.w3.org/2000/svg" xmlns:xlink="http://www.w3.org/1999/xlink" x="0px" y="0px"
	 width="34px" height="34px" viewBox="0 0 34 34" enable-background="new 0 0 34 34" xml:space="preserve">
<g>
	<circle fill="#1A62AA" cx="17" cy="17" r="17"/>
	<path fill="#FFFFFF" d="M16.507,11.991c-1.326,0-2.449,0.502-3.371,1.503c-0.922,1.003-1.382,2.215-1.382,3.637
		c0,1.423,0.355,2.579,1.067,3.468c0.711,0.889,1.681,1.334,2.91,1.334c1.632,0,2.837-0.767,3.613-2.304
		c0.452,1.503,1.487,2.255,3.104,2.255c1.179,0,2.222-0.554,3.128-1.661c0.905-1.107,1.358-2.591,1.358-4.449
		c0-2.651-0.901-4.781-2.704-6.389c-1.803-1.608-4.005-2.413-6.608-2.413c-1.94,0-3.734,0.449-5.384,1.346
		c-1.649,0.897-2.962,2.154-3.94,3.77C7.32,13.706,6.831,15.5,6.831,17.472c0,2.652,0.816,4.846,2.449,6.584
		c1.632,1.737,3.856,2.607,6.669,2.607c1.713,0,3.177-0.291,4.389-0.873l0.097-2.207c-1.343,0.711-2.83,1.067-4.462,1.067
		c-1.94,0-3.581-0.627-4.923-1.88c-1.342-1.252-2.013-3.043-2.013-5.372s0.828-4.316,2.485-5.965
		c1.657-1.649,3.609-2.474,5.856-2.474c2.247,0,4.058,0.602,5.432,1.806c1.374,1.205,2.061,2.923,2.061,5.153
		c0,1.212-0.222,2.195-0.667,2.947c-0.445,0.752-0.998,1.128-1.661,1.128c-1.003,0-1.503-0.832-1.503-2.498
		c0-0.776,0.137-2.578,0.412-5.408h-1.94c-0.065,0.776-0.097,1.285-0.097,1.528C18.802,12.532,17.832,11.991,16.507,11.991z"/>
	<path fill="#1A62AA" d="M14.748,14.84c0.525-0.67,1.192-1.007,2-1.007c1.39,0,2.215,0.833,2.474,2.498
		c-0.017,0.436-0.041,0.849-0.073,1.237c-0.227,0.792-0.61,1.41-1.152,1.856c-0.542,0.445-1.136,0.667-1.782,0.667
		c-0.647,0-1.184-0.246-1.613-0.74c-0.429-0.493-0.643-1.2-0.643-2.122C13.958,16.305,14.223,15.511,14.748,14.84z"/>
</g>
</svg>
