<?xml version="1.0" encoding="utf-8"?>
<!-- Generator: Adobe Illustrator 17.0.0, SVG Export Plug-In . SVG Version: 6.00 Build 0)  -->
<!DOCTYPE svg PUBLIC "-//W3C//DTD SVG 1.1//EN" "http://www.w3.org/Graphics/SVG/1.1/DTD/svg11.dtd">
<svg version="1.1" id="Livello_1" xmlns="http://www.w3.org/2000/svg" xmlns:xlink="http://www.w3.org/1999/xlink" x="0px" y="0px"
	 width="60px" height="60px" viewBox="0 0 60 60" enable-background="new 0 0 60 60" xml:space="preserve">
<path fill-rule="evenodd" clip-rule="evenodd" fill="#0050A0" d="M30,0c16.569,0,30,13.432,30,30S46.569,60,30,60S0,46.569,0,30
	S13.432,0,30,0z"/>
<path fill-rule="evenodd" clip-rule="evenodd" fill="#5EAAA1" d="M30,2c15.464,0,28,12.536,28,28S45.464,58,30,58S2,45.464,2,30
	S14.536,2,30,2z"/>
<path fill="#FFFFFF" d="M24.741,12.337c-0.263,0-0.521,0.107-0.707,0.293L7.063,29.6c-0.567,0.567-0.879,1.32-0.879,2.121
	s0.312,1.554,0.879,2.121l16.971,16.971c1.134,1.134,3.108,1.134,4.242,0l13.368-13.368l0.551,0.14
	c0.12,0.03,0.241,0.066,0.362,0.103c0.128,0.039,0.255,0.08,0.38,0.103c0.677,0.125,1.361,0.188,2.036,0.188
	c3.028,0,5.313-1.248,7.191-3.927c1.965-2.805,2.182-6.33,0.627-10.196c-1.333-3.317-3.556-5.589-6.608-6.755l-0.643-0.246v-3.519
	c0-0.551-0.449-1-1-1H24.741z M26.155,50.106L7.77,31.721l17.385-17.385H43.54v13.701l-1.718-1.773
	c-1.158-1.195-2.013-2.707-2.407-4.256c-0.57-2.237-2.561-3.799-4.841-3.799c-0.467,0-0.874,0.046-1.243,0.142
	c-1.295,0.33-2.38,1.14-3.06,2.282c-0.682,1.148-0.876,2.492-0.547,3.783c1.238,4.862,4.423,9.093,8.738,11.609l1.121,0.653
	L26.155,50.106z M46.113,29.457c0.574-0.819,0.653-1.627,0.255-2.617c-0.151-0.375-0.365-0.753-0.636-1.123l-0.193-0.264v-7.317
	l1.485,0.824c2.099,1.164,3.98,3.326,4.911,5.643c1.154,2.869,0.831,5.817-0.91,8.3c-1.39,1.983-3.54,3.076-6.053,3.076
	c-0.546,0-1.109-0.053-1.671-0.156C38.814,35,33.374,30.648,31.661,23.92c-0.198-0.776-0.081-1.583,0.329-2.272
	c0.41-0.689,1.063-1.177,1.839-1.375c0.24-0.062,0.492-0.094,0.744-0.094c1.37,0,2.563,0.93,2.903,2.262
	c1.024,4.027,4.382,7.018,6.906,7.48c0.209,0.038,0.408,0.057,0.587,0.057C45.659,29.977,45.943,29.699,46.113,29.457z"/>
</svg>
