<?xml version="1.0" encoding="utf-8"?>
<!-- Generator: Adobe Illustrator 17.0.0, SVG Export Plug-In . SVG Version: 6.00 Build 0)  -->
<!DOCTYPE svg PUBLIC "-//W3C//DTD SVG 1.1//EN" "http://www.w3.org/Graphics/SVG/1.1/DTD/svg11.dtd">
<svg version="1.1" id="Livello_1" xmlns="http://www.w3.org/2000/svg" xmlns:xlink="http://www.w3.org/1999/xlink" x="0px" y="0px"
	 width="20px" height="20px" viewBox="0 0 20 20" enable-background="new 0 0 20 20" xml:space="preserve">
<ellipse fill-rule="evenodd" clip-rule="evenodd" fill="none" cx="10" cy="9.99" rx="9" ry="8.99"/>
<path fill-rule="evenodd" clip-rule="evenodd" fill="#FFFFFF" d="M10,0C4.477,0,0,4.477,0,10c0,5.523,4.477,10,10,10s10-4.477,10-10
	C20,4.477,15.523,0,10,0z M10,18c-4.418,0-8-3.582-8-8c0-4.418,3.582-8,8-8s8,3.582,8,8C18,14.418,14.418,18,10,18z"/>
<path fill-rule="evenodd" clip-rule="evenodd" fill="#FFFFFF" d="M10,5C9.448,5,9,5.448,9,6v8c0,0.552,0.448,1,1,1s1-0.448,1-1V6
	C11,5.448,10.552,5,10,5z"/>
<path fill-rule="evenodd" clip-rule="evenodd" fill="#FFFFFF" d="M14,9H6c-0.552,0-1,0.448-1,1c0,0.552,0.448,1,1,1h8
	c0.552,0,1-0.448,1-1C15,9.448,14.552,9,14,9z"/>
</svg>
