<?xml version="1.0" encoding="utf-8"?>
<!-- Generator: Adobe Illustrator 17.0.0, SVG Export Plug-In . SVG Version: 6.00 Build 0)  -->
<!DOCTYPE svg PUBLIC "-//W3C//DTD SVG 1.1//EN" "http://www.w3.org/Graphics/SVG/1.1/DTD/svg11.dtd">
<svg version="1.1" id="Livello_1" xmlns="http://www.w3.org/2000/svg" xmlns:xlink="http://www.w3.org/1999/xlink" x="0px" y="0px"
	 width="34px" height="34px" viewBox="0 0 34 34" enable-background="new 0 0 34 34" xml:space="preserve">
<g>
	<circle fill-rule="evenodd" clip-rule="evenodd" fill="#DDDCDA" cx="17" cy="17" r="17"/>
	<circle fill-rule="evenodd" clip-rule="evenodd" fill="#FFFFFF" cx="17" cy="17" r="15"/>
	<g>
		<path fill="#DDDCDA" d="M21.971,19c-0.552,0-1,0.448-1,1v2c0,0.552-0.449,1-1,1h-8c-0.551,0-1-0.448-1-1v-8c0-0.552,0.449-1,1-1h2
			c0.552,0,1-0.448,1-1s-0.448-1-1-1h-2c-1.654,0-3,1.346-3,3v8c0,1.654,1.346,3,3,3h8c1.654,0,3-1.346,3-3v-2
			C22.971,19.448,22.523,19,21.971,19z"/>
		<path fill="#DDDCDA" d="M21.971,9h-5c-0.552,0-1,0.448-1,1s0.448,1,1,1h5c-0.256,0-0.512,0.098-0.707,0.293l-6,6
			c-0.391,0.39-0.391,1.024,0,1.414C15.459,18.902,15.715,19,15.971,19c0.256,0,0.512-0.098,0.707-0.293l6-6
			c0.195-0.195,0.293-0.451,0.293-0.707v5c0,0.552,0.448,1,1,1s1-0.448,1-1v-5C24.971,10.346,23.625,9,21.971,9z"/>
	</g>
</g>
</svg>
