<?xml version="1.0" encoding="utf-8"?>
<!-- Generator: Adobe Illustrator 17.0.0, SVG Export Plug-In . SVG Version: 6.00 Build 0)  -->
<!DOCTYPE svg PUBLIC "-//W3C//DTD SVG 1.1//EN" "http://www.w3.org/Graphics/SVG/1.1/DTD/svg11.dtd">
<svg version="1.1" id="Livello_1" xmlns="http://www.w3.org/2000/svg" xmlns:xlink="http://www.w3.org/1999/xlink" x="0px" y="0px"
	 width="34px" height="34px" viewBox="0 0 34 34" enable-background="new 0 0 34 34" xml:space="preserve">
<path fill-rule="evenodd" clip-rule="evenodd" fill="#0050A0" d="M17,0c9.389,0,17,7.611,17,17s-7.611,17-17,17S0,26.389,0,17
	S7.611,0,17,0z"/>
<path fill-rule="evenodd" clip-rule="evenodd" fill="#FFFFFF" d="M17,2c8.284,0,15,6.716,15,15s-6.716,15-15,15S2,25.284,2,17
	S8.716,2,17,2z"/>
<path fill-rule="evenodd" clip-rule="evenodd" fill="#0050A0" d="M21,12c0-0.552-0.448-1-1-1h-6c-0.552,0-1,0.448-1,1s0.448,1,1,1h6
	C20.552,13,21,12.552,21,12z"/>
<path fill-rule="evenodd" clip-rule="evenodd" fill="#0050A0" d="M28.45,13.05c-1.326-1.325-3.483-1.325-4.808,0l-4.525,4.525
	c-0.153,0.153-0.252,0.351-0.283,0.566l-0.566,3.96c-0.044,0.311,0.06,0.626,0.283,0.848c0.223,0.223,0.537,0.327,0.848,0.283
	l3.96-0.566c0.214-0.031,0.413-0.13,0.566-0.283l4.525-4.525C29.775,16.533,29.775,14.376,28.45,13.05z"/>
<path fill-rule="evenodd" clip-rule="evenodd" fill="#0050A0" d="M13,20c0,0.552,0.448,1,1,1h2.405l0.286-2H14
	C13.448,19,13,19.448,13,20z"/>
<path fill-rule="evenodd" clip-rule="evenodd" fill="#0050A0" d="M17.702,16.161L18.863,15H14c-0.552,0-1,0.448-1,1s0.448,1,1,1
	h3.117C17.264,16.691,17.459,16.404,17.702,16.161z"/>
<path fill-rule="evenodd" clip-rule="evenodd" fill="#0050A0" d="M15.375,25H12c-0.552,0-1-0.448-1-1V10c0-0.552,0.448-1,1-1h10
	c0.552,0,1,0.448,1,1v0.016h0.003C23.012,10.56,23.453,11,24,11c0.547,0,0.988-0.44,0.997-0.984H25V10v0V9.983h-0.002
	C24.989,8.334,23.651,7,22,7H12c-1.657,0-3,1.343-3,3v14c0,1.657,1.343,3,3,3h10c1.304,0,2.403-0.837,2.816-2H22H15.375z"/>
</svg>
