<?xml version="1.0" encoding="utf-8"?>
<!-- Generator: Adobe Illustrator 17.0.0, SVG Export Plug-In . SVG Version: 6.00 Build 0)  -->
<!DOCTYPE svg PUBLIC "-//W3C//DTD SVG 1.1//EN" "http://www.w3.org/Graphics/SVG/1.1/DTD/svg11.dtd">
<svg version="1.1" id="Livello_1" xmlns="http://www.w3.org/2000/svg" xmlns:xlink="http://www.w3.org/1999/xlink" x="0px" y="0px"
	 width="60px" height="60px" viewBox="0 0 60 60" enable-background="new 0 0 60 60" xml:space="preserve">
<path fill-rule="evenodd" clip-rule="evenodd" fill="#0050a0" d="M30,0c16.569,0,30,13.432,30,30S46.569,60,30,60S0,46.569,0,30
	S13.432,0,30,0z"/>
<path fill-rule="evenodd" clip-rule="evenodd" fill="#63A8A0" d="M30,3c14.912,0,27,12.088,27,27S44.912,57,30,57S3,44.912,3,30
	S15.088,3,30,3z"/>
<path fill="#FFFFFF" d="M39.1,43.148H20.9c-1.158,0-2.1-0.949-2.1-2.115v-11.4c-0.826-0.295-1.4-1.091-1.4-1.993v-4.934
	c0-1.166,0.942-2.115,2.1-2.115h3.143c-0.355-0.475-0.653-1.066-0.676-1.728c-0.031-0.885,0.411-1.68,1.314-2.361
	c0.479-0.362,1.011-0.545,1.584-0.545c2.219,0,4.38,2.874,5.319,4.307c0.849-1.293,2.746-3.838,4.751-4.248
	c0.784-0.158,1.517,0.007,2.151,0.487c0.902,0.681,1.344,1.475,1.313,2.361c-0.023,0.661-0.321,1.252-0.676,1.728H40.5
	c1.158,0,2.1,0.949,2.1,2.115v4.934c0,0.902-0.574,1.699-1.4,1.993v11.4C41.2,42.199,40.258,43.148,39.1,43.148z M34.2,41.738h4.9
	c0.386,0,0.7-0.316,0.7-0.705V29.754h-5.6V41.738z M27.2,41.738h5.6V22h-5.6V41.738z M20.2,29.754v11.279
	c0,0.389,0.314,0.705,0.7,0.705h4.9V29.754H20.2z M34.2,28.344h6.3c0.386,0,0.7-0.316,0.7-0.705v-4.934
	c0-0.389-0.314-0.705-0.7-0.705h-6.3V28.344z M19.5,22c-0.386,0-0.7,0.316-0.7,0.705v4.934c0,0.389,0.314,0.705,0.7,0.705h6.3V22
	H19.5z M31.662,20.59h4.08c0.337-0.256,1.232-1.006,1.258-1.778c0.013-0.397-0.24-0.795-0.754-1.183
	c-0.317-0.239-0.651-0.311-1.033-0.232C33.891,17.667,32.42,19.514,31.662,20.59z M24.624,20.59h4.086
	c-1.12-1.591-2.672-3.224-3.845-3.224c-0.27,0-0.507,0.084-0.745,0.263c-0.513,0.388-0.767,0.786-0.754,1.183
	C23.392,19.582,24.287,20.334,24.624,20.59z"/>
</svg>
