<?xml version="1.0" encoding="utf-8"?>
<!-- Generator: Adobe Illustrator 17.0.0, SVG Export Plug-In . SVG Version: 6.00 Build 0)  -->
<!DOCTYPE svg PUBLIC "-//W3C//DTD SVG 1.1//EN" "http://www.w3.org/Graphics/SVG/1.1/DTD/svg11.dtd">
<svg version="1.1" id="Livello_1" xmlns="http://www.w3.org/2000/svg" xmlns:xlink="http://www.w3.org/1999/xlink" x="0px" y="0px"
	 width="34px" height="34px" viewBox="0 0 34 34" enable-background="new 0 0 34 34" xml:space="preserve">
<path fill-rule="evenodd" clip-rule="evenodd" fill="#0050a0" d="M17,0c9.389,0,17,7.612,17,17c0,9.389-7.611,17-17,17
	C7.611,34,0,26.389,0,17C0,7.611,7.611,0,17,0z"/>
<path fill-rule="evenodd" clip-rule="evenodd" fill="#FFFFFF" d="M23.949,21.218c0.018-0.03,1.711-2.963,1.711-2.963
	c2.148-3.721,0.873-8.478-2.847-10.626c-3.721-2.148-8.478-0.873-10.626,2.847c0,0-1.693,2.933-1.711,2.963l-0.001,0.002
	c-0.423,0.732-1.15,1.17-1.929,1.267l-0.027,0.047c-1.221,0.154-2.156,0.623-2.625,1.436c-1.345,2.329,1.587,6.538,6.547,9.403
	c4.961,2.864,10.072,3.297,11.417,0.969c0.469-0.813,0.408-1.857-0.069-2.991l0.027-0.047c-0.306-0.723-0.29-1.572,0.133-2.304
	L23.949,21.218z M22.064,25.52c-0.802,1.389-4.669,0.657-8.638-1.634c-3.968-2.292-6.536-5.275-5.734-6.664
	c0.664-1.151,3.433-0.843,6.619,0.598c-0.359,0.219-0.676,0.517-0.901,0.907c-0.716,1.24-0.291,2.826,0.949,3.542
	c1.24,0.716,2.826,0.291,3.542-0.949c0.225-0.39,0.325-0.813,0.335-1.234C21.077,22.126,22.728,24.369,22.064,25.52z"/>
</svg>
