<?xml version="1.0" encoding="utf-8"?>
<!-- Generator: Adobe Illustrator 17.0.0, SVG Export Plug-In . SVG Version: 6.00 Build 0)  -->
<!DOCTYPE svg PUBLIC "-//W3C//DTD SVG 1.1//EN" "http://www.w3.org/Graphics/SVG/1.1/DTD/svg11.dtd">
<svg version="1.1" id="Livello_1" xmlns="http://www.w3.org/2000/svg" xmlns:xlink="http://www.w3.org/1999/xlink" x="0px" y="0px"
	 width="34px" height="34px" viewBox="0 0 34 34" enable-background="new 0 0 34 34" xml:space="preserve">
<g>
	<path fill-rule="evenodd" clip-rule="evenodd" fill="#0050A0" d="M17,0c9.389,0,17,7.611,17,17s-7.611,17-17,17S0,26.389,0,17
		S7.611,0,17,0z"/>
	<path fill-rule="evenodd" clip-rule="evenodd" fill="#FFFFFF" d="M17,2c8.284,0,15,6.716,15,15s-6.716,15-15,15S2,25.284,2,17
		S8.716,2,17,2z"/>
	<path fill-rule="evenodd" clip-rule="evenodd" fill="#0050A0" d="M23.758,21.669c-0.365-0.796-0.394-1.738,0.028-2.583l1.267-2.539
		c1.726-3.459,0.322-7.663-3.138-9.389s-7.663-0.322-9.389,3.138l-1.267,2.539c-0.422,0.845-1.192,1.388-2.047,1.575
		c-1.42,0.256-2.558,0.935-3.165,2.152c-1.612,3.231,2.045,7.168,6.492,9.387s9.791,2.775,11.404-0.456
		C24.549,24.274,24.408,22.957,23.758,21.669z"/>
	<path fill-rule="evenodd" clip-rule="evenodd" fill="#FFFFFF" d="M13.431,24.158c-3.953-1.973-6.458-4.974-5.595-6.704
		c0.274-0.55,0.858-0.903,1.651-1.068c0.195-0.041,0.405-0.067,0.624-0.084c0.044-0.004,0.089-0.006,0.134-0.009
		c0.199-0.012,0.406-0.015,0.622-0.009c0.03,0.001,0.059,0,0.09,0.001c0.249,0.01,0.508,0.032,0.776,0.065
		c0.038,0.005,0.077,0.012,0.115,0.017c0.22,0.03,0.445,0.069,0.675,0.114c0.282,0.056,0.573,0.125,0.867,0.203
		c0.031,0.008,0.06,0.014,0.09,0.022c0.289,0.079,0.585,0.173,0.883,0.274c0.006,0.002,0.012,0.004,0.018,0.006
		c-0.585,0.278-1.09,0.734-1.402,1.358c-0.74,1.483-0.138,3.284,1.345,4.024s3.284,0.138,4.024-1.345
		c0.312-0.624,0.373-1.302,0.243-1.937c0.005,0.004,0.01,0.007,0.016,0.011c0.26,0.178,0.512,0.358,0.75,0.541
		c0.025,0.019,0.047,0.039,0.072,0.059c0.24,0.188,0.47,0.379,0.684,0.571c0.174,0.156,0.341,0.313,0.497,0.471
		c0.027,0.027,0.057,0.055,0.083,0.082c0.187,0.194,0.361,0.388,0.518,0.581c0.019,0.024,0.036,0.047,0.055,0.071
		c0.135,0.169,0.256,0.336,0.367,0.502c0.025,0.038,0.05,0.075,0.074,0.113c0.117,0.185,0.223,0.369,0.308,0.549
		c0.345,0.733,0.413,1.412,0.139,1.961C21.289,26.328,17.385,26.131,13.431,24.158z"/>
</g>
</svg>
