<?xml version="1.0" encoding="utf-8"?>
<!-- Generator: Adobe Illustrator 17.0.0, SVG Export Plug-In . SVG Version: 6.00 Build 0)  -->
<!DOCTYPE svg PUBLIC "-//W3C//DTD SVG 1.1//EN" "http://www.w3.org/Graphics/SVG/1.1/DTD/svg11.dtd">
<svg version="1.1" id="Livello_1" xmlns="http://www.w3.org/2000/svg" xmlns:xlink="http://www.w3.org/1999/xlink" x="0px" y="0px"
	 width="34px" height="34px" viewBox="0 0 34 34" enable-background="new 0 0 34 34" xml:space="preserve">
<path fill-rule="evenodd" clip-rule="evenodd" fill="#DDDCDA" d="M17,0c9.389,0,17,7.612,17,17c0,9.389-7.611,17-17,17
	C7.611,34,0,26.389,0,17C0,7.611,7.611,0,17,0z"/>
<path fill-rule="evenodd" clip-rule="evenodd" fill="#FFFFFF" d="M17,3c7.732,0,14,6.268,14,14c0,7.732-6.268,14-14,14
	C9.268,31,3,24.732,3,17C3,9.268,9.268,3,17,3z"/>
<g>
	<path fill-rule="evenodd" clip-rule="evenodd" fill="#DDDCDA" d="M25.66,18.255c2.148-3.721,0.873-8.478-2.847-10.626
		c-2.925-1.689-6.486-1.254-8.921,0.813l11.052,11.052L25.66,18.255z"/>
	<path fill-rule="evenodd" clip-rule="evenodd" fill="#DDDCDA" d="M13.426,23.886c-3.968-2.292-6.536-5.275-5.734-6.664
		c0.552-0.957,2.568-0.893,5.062-0.019l-2.99-2.99c-0.362,0.264-0.778,0.439-1.218,0.494l-0.027,0.047
		c-1.221,0.154-2.156,0.623-2.625,1.436c-1.345,2.329,1.587,6.538,6.547,9.403c4.201,2.426,8.502,3.1,10.539,1.837l-1.447-1.447
		C20.146,26.663,16.827,25.849,13.426,23.886z"/>
	<path fill-rule="evenodd" clip-rule="evenodd" fill="#DDDCDA" d="M14.36,22.269c1.021,0.589,2.269,0.396,3.08-0.38l-3.651-3.651
		c-0.142,0.145-0.272,0.305-0.378,0.489C12.695,19.968,13.119,21.553,14.36,22.269z"/>
	
		<rect x="15.5" y="0.875" transform="matrix(0.7071 -0.7071 0.7071 0.7071 -7.0416 17)" fill-rule="evenodd" clip-rule="evenodd" fill="#DDDCDA" width="3" height="32.25"/>
</g>
</svg>
