<?xml version="1.0" encoding="utf-8"?>
<!-- Generator: Adobe Illustrator 17.0.0, SVG Export Plug-In . SVG Version: 6.00 Build 0)  -->
<!DOCTYPE svg PUBLIC "-//W3C//DTD SVG 1.1//EN" "http://www.w3.org/Graphics/SVG/1.1/DTD/svg11.dtd">
<svg version="1.1" id="Livello_1" xmlns="http://www.w3.org/2000/svg" xmlns:xlink="http://www.w3.org/1999/xlink" x="0px" y="0px"
	 width="34px" height="34px" viewBox="0 0 34 34" enable-background="new 0 0 34 34" xml:space="preserve">
<g>
	<path fill="#1A62AA" d="M17,0c9.389,0,17,7.611,17,17s-7.611,17-17,17S0,26.389,0,17S7.611,0,17,0z"/>
	<path fill="#FFFFFF" d="M17,2c8.284,0,15,6.716,15,15s-6.716,15-15,15S2,25.284,2,17S8.716,2,17,2z"/>
	<path fill="#1A62AA" d="M23.707,22.293l-2.822-2.822C21.584,18.49,22,17.294,22,16c0-3.309-2.691-6-6-6s-6,2.691-6,6s2.691,6,6,6
		c1.294,0,2.49-0.416,3.471-1.115l2.822,2.822C22.488,23.902,22.744,24,23,24s0.512-0.098,0.707-0.293
		C24.098,23.316,24.098,22.684,23.707,22.293z M16,20c-2.206,0-4-1.794-4-4s1.794-4,4-4s4,1.794,4,4S18.206,20,16,20z"/>
</g>
</svg>
