<?xml version="1.0" encoding="utf-8"?>
<!-- Generator: Adobe Illustrator 17.0.0, SVG Export Plug-In . SVG Version: 6.00 Build 0)  -->
<!DOCTYPE svg PUBLIC "-//W3C//DTD SVG 1.1//EN" "http://www.w3.org/Graphics/SVG/1.1/DTD/svg11.dtd">
<svg version="1.1" id="Livello_1" xmlns="http://www.w3.org/2000/svg" xmlns:xlink="http://www.w3.org/1999/xlink" x="0px" y="0px"
	 width="34px" height="34px" viewBox="0 0 34 34" enable-background="new 0 0 34 34" xml:space="preserve">
<g>
	<path fill-rule="evenodd" clip-rule="evenodd" fill="#004594" d="M17,0c9.389,0,17,7.611,17,17s-7.611,17-17,17S0,26.389,0,17
		S7.611,0,17,0z"/>
	<path fill-rule="evenodd" clip-rule="evenodd" fill="#FFFFFF" d="M17,2c8.284,0,15,6.716,15,15s-6.716,15-15,15S2,25.284,2,17
		S8.716,2,17,2z"/>
	<path fill="#004594" d="M21,23h-7.162c0.77-1.298,1.733-3.202,2.05-5H20c0.552,0,1-0.448,1-1s-0.448-1-1-1h-4.071
		c-0.087-0.541-0.239-0.98-0.396-1.397c-0.241-0.641-0.491-1.304-0.533-2.635c-0.028-0.879,0.978-1.579,1.986-1.815
		c1.102-0.259,2.498-0.063,3.105,1.264c0.229,0.502,0.822,0.723,1.326,0.493c0.502-0.23,0.723-0.823,0.493-1.326
		c-1.04-2.272-3.453-2.83-5.381-2.378C14.395,8.706,12.944,10.28,13,12.032c0.053,1.661,0.39,2.555,0.66,3.274
		c0.096,0.254,0.173,0.471,0.233,0.693H12c-0.552,0-1,0.448-1,1s0.448,1,1,1h1.848c-0.479,2.068-2.009,4.52-2.656,5.412
		c-0.221,0.304-0.253,0.707-0.082,1.042C11.28,24.789,11.624,25,12,25h9c0.552,0,1-0.448,1-1S21.552,23,21,23z"/>
</g>
</svg>
