<?xml version="1.0" encoding="utf-8"?>
<!-- Generator: Adobe Illustrator 17.0.0, SVG Export Plug-In . SVG Version: 6.00 Build 0)  -->
<!DOCTYPE svg PUBLIC "-//W3C//DTD SVG 1.1//EN" "http://www.w3.org/Graphics/SVG/1.1/DTD/svg11.dtd">
<svg version="1.1" id="Livello_1" xmlns="http://www.w3.org/2000/svg" xmlns:xlink="http://www.w3.org/1999/xlink" x="0px" y="0px"
	 width="34px" height="34px" viewBox="0 0 34 34" enable-background="new 0 0 34 34" xml:space="preserve">
<path fill-rule="evenodd" clip-rule="evenodd" fill="#004594" d="M17,0c9.389,0,17,7.611,17,17s-7.611,17-17,17S0,26.389,0,17
	S7.611,0,17,0z"/>
<path fill-rule="evenodd" clip-rule="evenodd" fill="#FFFFFF" d="M17,3c7.732,0,14,6.268,14,14s-6.268,14-14,14S3,24.732,3,17
	S9.268,3,17,3z"/>
<path fill="#004594" d="M14.609,22.302c1.133-0.716,1.7-1.941,1.7-3.675c0-0.3-0.009-0.525-0.025-0.675h4.05v-2.225h-4.3
	c-0.067-0.733-0.1-1.258-0.1-1.575c0-1.95,0.958-2.925,2.875-2.925c0.916,0,1.775,0.259,2.575,0.775V9.127
	c-0.867-0.5-1.917-0.75-3.15-0.75c-1.817,0-3.2,0.5-4.15,1.5s-1.425,2.409-1.425,4.225c0,0.45,0.041,0.992,0.125,1.625h-1.75v2.225
	h2.025c0.016,0.15,0.025,0.375,0.025,0.675c0,0.934-0.15,1.692-0.45,2.275c-0.3,0.584-0.842,1.075-1.625,1.475v2.5h11.175v-2.575
	H14.609z"/>
</svg>
