<?xml version="1.0" encoding="utf-8"?>
<!-- Generator: Adobe Illustrator 17.0.0, SVG Export Plug-In . SVG Version: 6.00 Build 0)  -->
<!DOCTYPE svg PUBLIC "-//W3C//DTD SVG 1.1//EN" "http://www.w3.org/Graphics/SVG/1.1/DTD/svg11.dtd">
<svg version="1.1" id="Livello_1" xmlns="http://www.w3.org/2000/svg" xmlns:xlink="http://www.w3.org/1999/xlink" x="0px" y="0px"
	 width="34px" height="34px" viewBox="0 0 34 34" enable-background="new 0 0 34 34" xml:space="preserve">
<g>
	<path fill="#FFFFFF" d="M17,0C7.611,0,0,7.611,0,17s7.611,17,17,17s17-7.611,17-17S26.389,0,17,0z M17,31C9.268,31,3,24.732,3,17
		S9.268,3,17,3s14,6.268,14,14S24.732,31,17,31z"/>
	<path fill="#FFFFFF" d="M23,15.2c-0.211,0-4.2,0-4.2,0s0-3.989,0-4.2c0-0.994-0.806-1.8-1.8-1.8s-1.8,0.806-1.8,1.8
		c0,0.211,0,4.2,0,4.2s-3.989,0-4.2,0c-0.994,0-1.8,0.806-1.8,1.8s0.806,1.8,1.8,1.8c0.211,0,4.2,0,4.2,0s0,3.989,0,4.2
		c0,0.994,0.806,1.8,1.8,1.8s1.8-0.806,1.8-1.8c0-0.211,0-4.2,0-4.2s3.989,0,4.2,0c0.994,0,1.8-0.806,1.8-1.8S23.994,15.2,23,15.2z"
		/>
</g>
</svg>
