<?xml version="1.0" encoding="utf-8"?>
<!-- Generator: Adobe Illustrator 17.0.0, SVG Export Plug-In . SVG Version: 6.00 Build 0)  -->
<!DOCTYPE svg PUBLIC "-//W3C//DTD SVG 1.1//EN" "http://www.w3.org/Graphics/SVG/1.1/DTD/svg11.dtd">
<svg version="1.1" id="Livello_1" xmlns="http://www.w3.org/2000/svg" xmlns:xlink="http://www.w3.org/1999/xlink" x="0px" y="0px"
	 width="34px" height="34px" viewBox="0 0 34 34" enable-background="new 0 0 34 34" xml:space="preserve">
<path fill-rule="evenodd" clip-rule="evenodd" fill="#0050A0" d="M17,0c9.389,0,17,7.611,17,17s-7.611,17-17,17S0,26.389,0,17
	S7.611,0,17,0z"/>
<path fill-rule="evenodd" clip-rule="evenodd" fill="#FFFFFF" d="M17,2c8.284,0,15,6.716,15,15s-6.716,15-15,15S2,25.284,2,17
	S8.716,2,17,2z"/>
<path fill="#0050A0" d="M25,25c-0.369,0-0.718-0.205-0.892-0.547l0,0c-0.013-0.025-1.315-2.539-3.522-3.542
	c-1.874-0.852-4.352-0.955-5.586-0.944V23c0,0.404-0.244,0.769-0.617,0.924c-0.375,0.154-0.804,0.069-1.09-0.217l-7-7
	c-0.391-0.391-0.391-1.023,0-1.414l7-7c0.286-0.286,0.715-0.372,1.09-0.217C14.756,8.231,15,8.596,15,9v3.07
	c1.726,0.184,5.33,0.846,7.707,3.223c2.806,2.806,3.271,8.393,3.29,8.629c0.037,0.476-0.268,0.912-0.728,1.041
	C25.18,24.988,25.089,25,25,25z M8.414,16L13,20.586V19c0-0.521,0.402-0.955,0.921-0.997c0,0,0.47-0.038,1.211-0.038
	c1.737,0,4.237,0.195,6.282,1.125c0.676,0.307,1.279,0.711,1.807,1.152c-0.41-1.29-1.023-2.629-1.928-3.535
	C18.705,14.119,14.028,14,13.981,14C13.436,13.989,13,13.545,13,13v-1.586L8.414,16z"/>
</svg>
