<?xml version="1.0" encoding="utf-8"?>

<!-- Generator: Adobe Illustrator 17.0.0, SVG Export Plug-In . SVG Version: 6.00 Build 0)  -->

<!DOCTYPE svg PUBLIC "-//W3C//DTD SVG 1.1//EN" "http://www.w3.org/Graphics/SVG/1.1/DTD/svg11.dtd">

<svg version="1.1" id="Livello_1" xmlns="http://www.w3.org/2000/svg" xmlns:xlink="http://www.w3.org/1999/xlink" x="0px" y="0px"

	 width="20.24px" height="16.72px" viewBox="0 0 20.24 16.72" enable-background="new 0 0 20.24 16.72" xml:space="preserve">

<path fill="#1a62aa" d="M9.68,7.92C9.194,7.92,8.8,8.314,8.8,8.8v4.4c0,0.486,0.394,0.88,0.88,0.88h6.6

	c0.486,0,0.88-0.394,0.88-0.88V8.8c0-0.486-0.394-0.88-0.88-0.88H9.68z M16.28,12.76c0,0.243-0.197,0.44-0.44,0.44h-5.72

	c-0.243,0-0.44-0.197-0.44-0.44V9.24c0-0.243,0.197-0.44,0.44-0.44h5.72c0.243,0,0.44,0.197,0.44,0.44V12.76z"/>

<path fill="#1a62aa" d="M15.089,11.129l-0.88,0.88c-0.086,0.086-0.129,0.199-0.129,0.311c0,0.113,0.043,0.225,0.129,0.311

	c0.086,0.086,0.198,0.129,0.311,0.129s0.225-0.043,0.311-0.129l0.88-0.88c0.086-0.086,0.129-0.198,0.129-0.311

	c0-0.113-0.043-0.225-0.129-0.311C15.539,10.957,15.261,10.957,15.089,11.129z"/>

<path fill="#1a62aa" d="M15.089,9.369l-2.64,2.64c-0.086,0.086-0.129,0.199-0.129,0.311c0,0.113,0.043,0.225,0.129,0.311

	c0.086,0.086,0.199,0.129,0.311,0.129c0.113,0,0.225-0.043,0.311-0.129l2.64-2.64c0.086-0.086,0.129-0.199,0.129-0.311

	c0-0.113-0.043-0.225-0.129-0.311C15.539,9.197,15.261,9.197,15.089,9.369z"/>

<path fill="#1a62aa" d="M17.16,0h-0.88h-1.76h-1.76H11H9.24H7.48H5.72H3.96H3.08L0,4.4v0.44c0,0.902,0.544,1.674,1.32,2.014v8.986

	c0,0.486,0.394,0.88,0.88,0.88h1.76V9.24c0-0.243,0.197-0.44,0.44-0.44h2.2c0.243,0,0.44,0.197,0.44,0.44v7.48h11

	c0.486,0,0.88-0.394,0.88-0.88V6.854c0.776-0.34,1.32-1.113,1.32-2.014V4.4L17.16,0z M13.024,0.88L14.08,4.4v0.44

	c0,0.729-0.591,1.32-1.32,1.32c-0.729,0-1.32-0.591-1.32-1.32V4.4l-0.352-3.52H13.024z M6.16,4.4l1.056-3.52h1.936L8.8,4.4v0.44

	c0,0.729-0.591,1.32-1.32,1.32S6.16,5.569,6.16,4.84V4.4z M0.88,4.84V4.4l2.464-3.52H5.28L3.52,4.4v0.44

	c0,0.729-0.591,1.32-1.32,1.32S0.88,5.569,0.88,4.84z M18.04,15.4c0,0.243-0.197,0.44-0.44,0.44H7.92V8.8

	c0-0.486-0.394-0.88-0.88-0.88H3.96c-0.486,0-0.88,0.394-0.88,0.88v7.04H2.64c-0.243,0-0.44-0.197-0.44-0.44V7.04

	c0.593,0,1.129-0.237,1.525-0.619C3.959,6.792,4.369,7.04,4.84,7.04c0.471,0,0.881-0.248,1.115-0.619

	C6.35,6.803,6.887,7.04,7.48,7.04c0.593,0,1.129-0.237,1.525-0.619C9.239,6.792,9.649,7.04,10.12,7.04

	c0.471,0,0.881-0.248,1.115-0.619C11.63,6.803,12.167,7.04,12.76,7.04c0.593,0,1.13-0.237,1.525-0.619

	C14.519,6.792,14.929,7.04,15.4,7.04s0.881-0.248,1.115-0.619C16.91,6.803,17.447,7.04,18.04,7.04V15.4z M19.36,4.84

	c0,0.729-0.591,1.32-1.32,1.32c-0.729,0-1.32-0.591-1.32-1.32V4.4l-1.76-3.52h1.936L19.36,4.4V4.84z"/>

</svg>

