<?xml version="1.0" encoding="utf-8"?>
<!-- Generator: Adobe Illustrator 17.0.0, SVG Export Plug-In . SVG Version: 6.00 Build 0)  -->
<!DOCTYPE svg PUBLIC "-//W3C//DTD SVG 1.1//EN" "http://www.w3.org/Graphics/SVG/1.1/DTD/svg11.dtd">
<svg version="1.1" id="Livello_1" xmlns="http://www.w3.org/2000/svg" xmlns:xlink="http://www.w3.org/1999/xlink" x="0px" y="0px"
	 width="60px" height="60px" viewBox="0 0 60 60" enable-background="new 0 0 60 60" xml:space="preserve">
<g>
	<path fill="#0050A0" d="M30,0c16.569,0,30,13.432,30,30S46.568,60,30,60S0,46.569,0,30S13.431,0,30,0z"/>
	<path fill="#88C4BD" d="M30,2c15.464,0,28,12.536,28,28S45.464,58,30,58S2,45.464,2,30S14.536,2,30,2z"/>
	<g>
		<path fill="#FFFFFF" d="M44.77,25.993l4.635-4.635c0.218-0.218,0.323-0.523,0.286-0.829s-0.214-0.577-0.478-0.735L35.857,11.78
			c-0.394-0.236-0.897-0.173-1.222,0.15L30,16.565l-4.635-4.635c-0.283-0.283-0.707-0.369-1.079-0.222L10.93,17.051
			c-0.312,0.125-0.541,0.398-0.608,0.728c-0.068,0.33,0.035,0.67,0.272,0.908l4.527,4.527l-4.42,3.315
			c-0.256,0.192-0.405,0.496-0.4,0.816s0.164,0.619,0.427,0.803l4.916,3.441v6.425c0,0.326,0.159,0.632,0.427,0.819l13.356,9.349
			c0.007,0.005,0.015,0.006,0.022,0.011c0.009,0.006,0.016,0.014,0.025,0.02c0.048,0.03,0.101,0.046,0.153,0.067
			c0.03,0.012,0.058,0.03,0.089,0.039c0.093,0.028,0.188,0.043,0.284,0.043c0.153,0,0.306-0.035,0.447-0.105l0.015-0.007
			l13.341-6.671c0.339-0.169,0.553-0.516,0.553-0.895v-6.06l4.79-2.395c0.288-0.144,0.488-0.417,0.54-0.734
			c0.051-0.317-0.053-0.64-0.28-0.867L44.77,25.993z M35.497,13.896l11.588,6.953l-3.884,3.884L31.613,17.78L35.497,13.896z
			 M13.081,18.345l11.336-4.534l3.804,3.804l-11.336,4.534L13.081,18.345z M13.005,27.301l3.659-2.744L28.296,32.7l-3.659,2.744
			L13.005,27.301z M29,45.442l-11.356-7.949v-4.504l6.44,4.508c0.172,0.121,0.373,0.181,0.573,0.181c0.211,0,0.422-0.067,0.6-0.2
			L29,34.671V45.442z M30.085,31.51l-11.352-7.947l11.178-4.471l11.368,6.821L30.085,31.51z M42.356,40.066L31,45.745v-10.66
			l3.635,3.635c0.192,0.192,0.448,0.293,0.708,0.293c0.151,0,0.305-0.035,0.447-0.105l6.566-3.283
			C42.356,35.625,42.356,40.066,42.356,40.066z M35.54,36.797l-3.852-3.852l11.471-5.735l3.852,3.852L35.54,36.797z"/>
	</g>
</g>
<path fill="#FFFFFF" d="M51.932,32.497c-1.305-1.325-2.709-1.997-4.173-1.997c-1.284,0-2.286,0.528-2.861,0.929
	c-0.116,0.048-0.225,0.12-0.319,0.215l-8.477,8.477c-0.14,0.14-0.235,0.317-0.273,0.511l-1.695,8.477
	c-0.066,0.328,0.037,0.667,0.273,0.903c0.189,0.189,0.444,0.293,0.707,0.293c0.065,0,0.131-0.006,0.196-0.02l8.477-1.695
	c0.193-0.039,0.371-0.134,0.511-0.273l8.477-8.477c0.086-0.086,0.153-0.189,0.201-0.301C54.182,37.814,54.512,35.117,51.932,32.497z
	 M41.411,43.055c-0.351-0.35-0.686-0.652-1.006-0.917l6.268-6.241l1.835,1.836l-6.258,6.232
	C42.003,43.673,41.727,43.37,41.411,43.055z M39.601,41.526c-0.5-0.345-0.942-0.584-1.322-0.754l6.634-6.635l1.052,1.052
	L39.601,41.526z M37.674,41.604c0.681,0.271,1.725,0.854,3.031,2.158c1.273,1.271,1.859,2.295,2.139,2.976l-6.455,1.291
	L37.674,41.604z M43.666,46.119c-0.18-0.391-0.437-0.847-0.798-1.358l6.348-6.321l1.065,1.065L43.666,46.119z M51.254,38.504
	c-0.021,0.028-0.041,0.057-0.059,0.086l-0.208,0.208L45.62,33.43l0.208-0.208c0.03-0.019,0.06-0.039,0.088-0.061
	c0.32-0.247,0.984-0.662,1.842-0.662c0.909,0,1.833,0.471,2.749,1.4C52.599,36.025,51.873,37.697,51.254,38.504z"/>
<path fill="#88C4BD" d="M47.759,30.5c1.464,0,2.868,0.672,4.173,1.997c2.581,2.62,2.25,5.317,1.043,7.042
	c-0.047,0.112-0.114,0.214-0.201,0.301l-8.477,8.477c-0.14,0.14-0.317,0.235-0.511,0.273l-8.477,1.695
	c-0.065,0.013-0.131,0.02-0.196,0.02c-0.263,0-0.518-0.104-0.707-0.293c-0.236-0.236-0.339-0.575-0.273-0.903l1.695-8.477
	c0.039-0.193,0.134-0.371,0.273-0.511l8.477-8.477c0.094-0.095,0.203-0.167,0.319-0.215C45.473,31.028,46.475,30.5,47.759,30.5
	 M50.987,38.798l0.208-0.208c0.018-0.029,0.038-0.058,0.059-0.086c0.619-0.807,1.346-2.479-0.747-4.604
	c-0.915-0.929-1.84-1.4-2.749-1.4c-0.858,0-1.522,0.415-1.842,0.662c-0.028,0.022-0.058,0.042-0.088,0.061L45.62,33.43
	L50.987,38.798 M39.601,41.526l6.364-6.337l-1.052-1.052l-6.634,6.635C38.659,40.943,39.101,41.182,39.601,41.526 M42.25,43.964
	l6.258-6.232l-1.835-1.836l-6.268,6.241c0.32,0.265,0.655,0.567,1.006,0.917C41.727,43.37,42.003,43.673,42.25,43.964
	 M43.666,46.119l6.614-6.614l-1.065-1.065l-6.348,6.321C43.229,45.272,43.486,45.728,43.666,46.119 M36.388,48.03l6.455-1.291
	c-0.28-0.681-0.865-1.705-2.139-2.976c-1.307-1.304-2.35-1.887-3.031-2.158L36.388,48.03 M47.759,28.5
	c-1.684,0-3.009,0.626-3.861,1.191c-0.272,0.141-0.519,0.323-0.737,0.543l-8.473,8.473c-0.421,0.421-0.704,0.951-0.821,1.534
	l-1.695,8.476c-0.198,0.984,0.109,1.998,0.82,2.71c0.567,0.567,1.32,0.879,2.121,0.879c0.198,0,0.397-0.02,0.592-0.059l8.474-1.695
	c0.582-0.116,1.112-0.4,1.533-0.82l8.477-8.477c0.208-0.208,0.383-0.446,0.521-0.708c2.374-3.547,0.769-7.298-1.352-9.452
	C51.662,29.373,49.778,28.5,47.759,28.5L47.759,28.5z M38.938,45.48l0.108-0.541c0.08,0.076,0.162,0.156,0.246,0.239
	c0.066,0.065,0.129,0.13,0.19,0.193L38.938,45.48L38.938,45.48z"/>
</svg>
